G04 #@! TF.GenerationSoftware,KiCad,Pcbnew,(5.1.2)-1*
G04 #@! TF.CreationDate,2019-11-05T14:59:34-06:00*
G04 #@! TF.ProjectId,laser_driver,6c617365-725f-4647-9269-7665722e6b69,rev?*
G04 #@! TF.SameCoordinates,Original*
G04 #@! TF.FileFunction,Legend,Top*
G04 #@! TF.FilePolarity,Positive*
%FSLAX46Y46*%
G04 Gerber Fmt 4.6, Leading zero omitted, Abs format (unit mm)*
G04 Created by KiCad (PCBNEW (5.1.2)-1) date 2019-11-05 14:59:34*
%MOMM*%
%LPD*%
G04 APERTURE LIST*
%ADD10C,0.149860*%
%ADD11C,0.150000*%
%ADD12C,0.200000*%
%ADD13C,0.254000*%
G04 APERTURE END LIST*
D10*
X138647714Y-94252142D02*
X138647714Y-94107000D01*
X138684000Y-94034428D01*
X138756571Y-93961857D01*
X138901714Y-93925571D01*
X139155714Y-93925571D01*
X139300857Y-93961857D01*
X139373428Y-94034428D01*
X139409714Y-94107000D01*
X139409714Y-94252142D01*
X139373428Y-94324714D01*
X139300857Y-94397285D01*
X139155714Y-94433571D01*
X138901714Y-94433571D01*
X138756571Y-94397285D01*
X138684000Y-94324714D01*
X138647714Y-94252142D01*
X138901714Y-93272428D02*
X139409714Y-93272428D01*
X138901714Y-93599000D02*
X139300857Y-93599000D01*
X139373428Y-93562714D01*
X139409714Y-93490142D01*
X139409714Y-93381285D01*
X139373428Y-93308714D01*
X139337142Y-93272428D01*
X138901714Y-93018428D02*
X138901714Y-92728142D01*
X138647714Y-92909571D02*
X139300857Y-92909571D01*
X139373428Y-92873285D01*
X139409714Y-92800714D01*
X139409714Y-92728142D01*
X138901714Y-92474142D02*
X139663714Y-92474142D01*
X138938000Y-92474142D02*
X138901714Y-92401571D01*
X138901714Y-92256428D01*
X138938000Y-92183857D01*
X138974285Y-92147571D01*
X139046857Y-92111285D01*
X139264571Y-92111285D01*
X139337142Y-92147571D01*
X139373428Y-92183857D01*
X139409714Y-92256428D01*
X139409714Y-92401571D01*
X139373428Y-92474142D01*
X138901714Y-91458142D02*
X139409714Y-91458142D01*
X138901714Y-91784714D02*
X139300857Y-91784714D01*
X139373428Y-91748428D01*
X139409714Y-91675857D01*
X139409714Y-91567000D01*
X139373428Y-91494428D01*
X139337142Y-91458142D01*
X138901714Y-91204142D02*
X138901714Y-90913857D01*
X138647714Y-91095285D02*
X139300857Y-91095285D01*
X139373428Y-91059000D01*
X139409714Y-90986428D01*
X139409714Y-90913857D01*
X216244714Y-93961857D02*
X215482714Y-93961857D01*
X215736714Y-93599000D02*
X216244714Y-93599000D01*
X215809285Y-93599000D02*
X215773000Y-93562714D01*
X215736714Y-93490142D01*
X215736714Y-93381285D01*
X215773000Y-93308714D01*
X215845571Y-93272428D01*
X216244714Y-93272428D01*
X215736714Y-92909571D02*
X216498714Y-92909571D01*
X215773000Y-92909571D02*
X215736714Y-92837000D01*
X215736714Y-92691857D01*
X215773000Y-92619285D01*
X215809285Y-92583000D01*
X215881857Y-92546714D01*
X216099571Y-92546714D01*
X216172142Y-92583000D01*
X216208428Y-92619285D01*
X216244714Y-92691857D01*
X216244714Y-92837000D01*
X216208428Y-92909571D01*
X215736714Y-91893571D02*
X216244714Y-91893571D01*
X215736714Y-92220142D02*
X216135857Y-92220142D01*
X216208428Y-92183857D01*
X216244714Y-92111285D01*
X216244714Y-92002428D01*
X216208428Y-91929857D01*
X216172142Y-91893571D01*
X215736714Y-91639571D02*
X215736714Y-91349285D01*
X215482714Y-91530714D02*
X216135857Y-91530714D01*
X216208428Y-91494428D01*
X216244714Y-91421857D01*
X216244714Y-91349285D01*
D11*
X140910714Y-96211571D02*
X140910714Y-96066428D01*
X140947000Y-95993857D01*
X141019571Y-95921285D01*
X141164714Y-95885000D01*
X141418714Y-95885000D01*
X141563857Y-95921285D01*
X141636428Y-95993857D01*
X141672714Y-96066428D01*
X141672714Y-96211571D01*
X141636428Y-96284142D01*
X141563857Y-96356714D01*
X141418714Y-96393000D01*
X141164714Y-96393000D01*
X141019571Y-96356714D01*
X140947000Y-96284142D01*
X140910714Y-96211571D01*
X141273571Y-95304428D02*
X141273571Y-95558428D01*
X141672714Y-95558428D02*
X140910714Y-95558428D01*
X140910714Y-95195571D01*
X141672714Y-94905285D02*
X140910714Y-94905285D01*
X141455000Y-94651285D01*
X140910714Y-94397285D01*
X141672714Y-94397285D01*
X141672714Y-94034428D02*
X140910714Y-94034428D01*
X141672714Y-92655571D02*
X141309857Y-92909571D01*
X141672714Y-93091000D02*
X140910714Y-93091000D01*
X140910714Y-92800714D01*
X140947000Y-92728142D01*
X140983285Y-92691857D01*
X141055857Y-92655571D01*
X141164714Y-92655571D01*
X141237285Y-92691857D01*
X141273571Y-92728142D01*
X141309857Y-92800714D01*
X141309857Y-93091000D01*
X141636428Y-92038714D02*
X141672714Y-92111285D01*
X141672714Y-92256428D01*
X141636428Y-92329000D01*
X141563857Y-92365285D01*
X141273571Y-92365285D01*
X141201000Y-92329000D01*
X141164714Y-92256428D01*
X141164714Y-92111285D01*
X141201000Y-92038714D01*
X141273571Y-92002428D01*
X141346142Y-92002428D01*
X141418714Y-92365285D01*
X141164714Y-91748428D02*
X141672714Y-91567000D01*
X141164714Y-91385571D01*
X141600142Y-91095285D02*
X141636428Y-91059000D01*
X141672714Y-91095285D01*
X141636428Y-91131571D01*
X141600142Y-91095285D01*
X141672714Y-91095285D01*
X140910714Y-90006714D02*
X140910714Y-89934142D01*
X140947000Y-89861571D01*
X140983285Y-89825285D01*
X141055857Y-89789000D01*
X141201000Y-89752714D01*
X141382428Y-89752714D01*
X141527571Y-89789000D01*
X141600142Y-89825285D01*
X141636428Y-89861571D01*
X141672714Y-89934142D01*
X141672714Y-90006714D01*
X141636428Y-90079285D01*
X141600142Y-90115571D01*
X141527571Y-90151857D01*
X141382428Y-90188142D01*
X141201000Y-90188142D01*
X141055857Y-90151857D01*
X140983285Y-90115571D01*
X140947000Y-90079285D01*
X140910714Y-90006714D01*
X141164714Y-89099571D02*
X141672714Y-89099571D01*
X140874428Y-89281000D02*
X141418714Y-89462428D01*
X141418714Y-88990714D01*
X142965714Y-97572285D02*
X142965714Y-97935142D01*
X142203714Y-97935142D01*
X142965714Y-96991714D02*
X142566571Y-96991714D01*
X142494000Y-97028000D01*
X142457714Y-97100571D01*
X142457714Y-97245714D01*
X142494000Y-97318285D01*
X142929428Y-96991714D02*
X142965714Y-97064285D01*
X142965714Y-97245714D01*
X142929428Y-97318285D01*
X142856857Y-97354571D01*
X142784285Y-97354571D01*
X142711714Y-97318285D01*
X142675428Y-97245714D01*
X142675428Y-97064285D01*
X142639142Y-96991714D01*
X142929428Y-96665142D02*
X142965714Y-96592571D01*
X142965714Y-96447428D01*
X142929428Y-96374857D01*
X142856857Y-96338571D01*
X142820571Y-96338571D01*
X142748000Y-96374857D01*
X142711714Y-96447428D01*
X142711714Y-96556285D01*
X142675428Y-96628857D01*
X142602857Y-96665142D01*
X142566571Y-96665142D01*
X142494000Y-96628857D01*
X142457714Y-96556285D01*
X142457714Y-96447428D01*
X142494000Y-96374857D01*
X142929428Y-95721714D02*
X142965714Y-95794285D01*
X142965714Y-95939428D01*
X142929428Y-96012000D01*
X142856857Y-96048285D01*
X142566571Y-96048285D01*
X142494000Y-96012000D01*
X142457714Y-95939428D01*
X142457714Y-95794285D01*
X142494000Y-95721714D01*
X142566571Y-95685428D01*
X142639142Y-95685428D01*
X142711714Y-96048285D01*
X142965714Y-95358857D02*
X142457714Y-95358857D01*
X142602857Y-95358857D02*
X142530285Y-95322571D01*
X142494000Y-95286285D01*
X142457714Y-95213714D01*
X142457714Y-95141142D01*
X142965714Y-94306571D02*
X142203714Y-94306571D01*
X142203714Y-94125142D01*
X142240000Y-94016285D01*
X142312571Y-93943714D01*
X142385142Y-93907428D01*
X142530285Y-93871142D01*
X142639142Y-93871142D01*
X142784285Y-93907428D01*
X142856857Y-93943714D01*
X142929428Y-94016285D01*
X142965714Y-94125142D01*
X142965714Y-94306571D01*
X142965714Y-93544571D02*
X142457714Y-93544571D01*
X142602857Y-93544571D02*
X142530285Y-93508285D01*
X142494000Y-93472000D01*
X142457714Y-93399428D01*
X142457714Y-93326857D01*
X142965714Y-93072857D02*
X142457714Y-93072857D01*
X142203714Y-93072857D02*
X142240000Y-93109142D01*
X142276285Y-93072857D01*
X142240000Y-93036571D01*
X142203714Y-93072857D01*
X142276285Y-93072857D01*
X142457714Y-92782571D02*
X142965714Y-92601142D01*
X142457714Y-92419714D01*
X142929428Y-91839142D02*
X142965714Y-91911714D01*
X142965714Y-92056857D01*
X142929428Y-92129428D01*
X142856857Y-92165714D01*
X142566571Y-92165714D01*
X142494000Y-92129428D01*
X142457714Y-92056857D01*
X142457714Y-91911714D01*
X142494000Y-91839142D01*
X142566571Y-91802857D01*
X142639142Y-91802857D01*
X142711714Y-92165714D01*
X142965714Y-91476285D02*
X142457714Y-91476285D01*
X142602857Y-91476285D02*
X142530285Y-91440000D01*
X142494000Y-91403714D01*
X142457714Y-91331142D01*
X142457714Y-91258571D01*
X142566571Y-90170000D02*
X142602857Y-90061142D01*
X142639142Y-90024857D01*
X142711714Y-89988571D01*
X142820571Y-89988571D01*
X142893142Y-90024857D01*
X142929428Y-90061142D01*
X142965714Y-90133714D01*
X142965714Y-90424000D01*
X142203714Y-90424000D01*
X142203714Y-90170000D01*
X142240000Y-90097428D01*
X142276285Y-90061142D01*
X142348857Y-90024857D01*
X142421428Y-90024857D01*
X142494000Y-90061142D01*
X142530285Y-90097428D01*
X142566571Y-90170000D01*
X142566571Y-90424000D01*
X142965714Y-89553142D02*
X142929428Y-89625714D01*
X142893142Y-89662000D01*
X142820571Y-89698285D01*
X142602857Y-89698285D01*
X142530285Y-89662000D01*
X142494000Y-89625714D01*
X142457714Y-89553142D01*
X142457714Y-89444285D01*
X142494000Y-89371714D01*
X142530285Y-89335428D01*
X142602857Y-89299142D01*
X142820571Y-89299142D01*
X142893142Y-89335428D01*
X142929428Y-89371714D01*
X142965714Y-89444285D01*
X142965714Y-89553142D01*
X142965714Y-88646000D02*
X142566571Y-88646000D01*
X142494000Y-88682285D01*
X142457714Y-88754857D01*
X142457714Y-88900000D01*
X142494000Y-88972571D01*
X142929428Y-88646000D02*
X142965714Y-88718571D01*
X142965714Y-88900000D01*
X142929428Y-88972571D01*
X142856857Y-89008857D01*
X142784285Y-89008857D01*
X142711714Y-88972571D01*
X142675428Y-88900000D01*
X142675428Y-88718571D01*
X142639142Y-88646000D01*
X142965714Y-88283142D02*
X142457714Y-88283142D01*
X142602857Y-88283142D02*
X142530285Y-88246857D01*
X142494000Y-88210571D01*
X142457714Y-88138000D01*
X142457714Y-88065428D01*
X142965714Y-87484857D02*
X142203714Y-87484857D01*
X142929428Y-87484857D02*
X142965714Y-87557428D01*
X142965714Y-87702571D01*
X142929428Y-87775142D01*
X142893142Y-87811428D01*
X142820571Y-87847714D01*
X142602857Y-87847714D01*
X142530285Y-87811428D01*
X142494000Y-87775142D01*
X142457714Y-87702571D01*
X142457714Y-87557428D01*
X142494000Y-87484857D01*
X143496714Y-96320428D02*
X143496714Y-96175285D01*
X143533000Y-96102714D01*
X143605571Y-96030142D01*
X143750714Y-95993857D01*
X144004714Y-95993857D01*
X144149857Y-96030142D01*
X144222428Y-96102714D01*
X144258714Y-96175285D01*
X144258714Y-96320428D01*
X144222428Y-96393000D01*
X144149857Y-96465571D01*
X144004714Y-96501857D01*
X143750714Y-96501857D01*
X143605571Y-96465571D01*
X143533000Y-96393000D01*
X143496714Y-96320428D01*
X144222428Y-95340714D02*
X144258714Y-95413285D01*
X144258714Y-95558428D01*
X144222428Y-95631000D01*
X144186142Y-95667285D01*
X144113571Y-95703571D01*
X143895857Y-95703571D01*
X143823285Y-95667285D01*
X143787000Y-95631000D01*
X143750714Y-95558428D01*
X143750714Y-95413285D01*
X143787000Y-95340714D01*
X143750714Y-95123000D02*
X143750714Y-94832714D01*
X143496714Y-95014142D02*
X144149857Y-95014142D01*
X144222428Y-94977857D01*
X144258714Y-94905285D01*
X144258714Y-94832714D01*
X144258714Y-94469857D02*
X144222428Y-94542428D01*
X144186142Y-94578714D01*
X144113571Y-94615000D01*
X143895857Y-94615000D01*
X143823285Y-94578714D01*
X143787000Y-94542428D01*
X143750714Y-94469857D01*
X143750714Y-94361000D01*
X143787000Y-94288428D01*
X143823285Y-94252142D01*
X143895857Y-94215857D01*
X144113571Y-94215857D01*
X144186142Y-94252142D01*
X144222428Y-94288428D01*
X144258714Y-94361000D01*
X144258714Y-94469857D01*
X144258714Y-93889285D02*
X143496714Y-93889285D01*
X143787000Y-93889285D02*
X143750714Y-93816714D01*
X143750714Y-93671571D01*
X143787000Y-93599000D01*
X143823285Y-93562714D01*
X143895857Y-93526428D01*
X144113571Y-93526428D01*
X144186142Y-93562714D01*
X144222428Y-93599000D01*
X144258714Y-93671571D01*
X144258714Y-93816714D01*
X144222428Y-93889285D01*
X144222428Y-92909571D02*
X144258714Y-92982142D01*
X144258714Y-93127285D01*
X144222428Y-93199857D01*
X144149857Y-93236142D01*
X143859571Y-93236142D01*
X143787000Y-93199857D01*
X143750714Y-93127285D01*
X143750714Y-92982142D01*
X143787000Y-92909571D01*
X143859571Y-92873285D01*
X143932142Y-92873285D01*
X144004714Y-93236142D01*
X144258714Y-92546714D02*
X143750714Y-92546714D01*
X143895857Y-92546714D02*
X143823285Y-92510428D01*
X143787000Y-92474142D01*
X143750714Y-92401571D01*
X143750714Y-92329000D01*
X143569285Y-91530714D02*
X143533000Y-91494428D01*
X143496714Y-91421857D01*
X143496714Y-91240428D01*
X143533000Y-91167857D01*
X143569285Y-91131571D01*
X143641857Y-91095285D01*
X143714428Y-91095285D01*
X143823285Y-91131571D01*
X144258714Y-91567000D01*
X144258714Y-91095285D01*
X143496714Y-90623571D02*
X143496714Y-90551000D01*
X143533000Y-90478428D01*
X143569285Y-90442142D01*
X143641857Y-90405857D01*
X143787000Y-90369571D01*
X143968428Y-90369571D01*
X144113571Y-90405857D01*
X144186142Y-90442142D01*
X144222428Y-90478428D01*
X144258714Y-90551000D01*
X144258714Y-90623571D01*
X144222428Y-90696142D01*
X144186142Y-90732428D01*
X144113571Y-90768714D01*
X143968428Y-90805000D01*
X143787000Y-90805000D01*
X143641857Y-90768714D01*
X143569285Y-90732428D01*
X143533000Y-90696142D01*
X143496714Y-90623571D01*
X144258714Y-89643857D02*
X144258714Y-90079285D01*
X144258714Y-89861571D02*
X143496714Y-89861571D01*
X143605571Y-89934142D01*
X143678142Y-90006714D01*
X143714428Y-90079285D01*
X144258714Y-89281000D02*
X144258714Y-89135857D01*
X144222428Y-89063285D01*
X144186142Y-89027000D01*
X144077285Y-88954428D01*
X143932142Y-88918142D01*
X143641857Y-88918142D01*
X143569285Y-88954428D01*
X143533000Y-88990714D01*
X143496714Y-89063285D01*
X143496714Y-89208428D01*
X143533000Y-89281000D01*
X143569285Y-89317285D01*
X143641857Y-89353571D01*
X143823285Y-89353571D01*
X143895857Y-89317285D01*
X143932142Y-89281000D01*
X143968428Y-89208428D01*
X143968428Y-89063285D01*
X143932142Y-88990714D01*
X143895857Y-88954428D01*
X143823285Y-88918142D01*
D12*
X217052000Y-107130000D02*
X228923000Y-107130000D01*
X228923000Y-107130000D02*
X228923000Y-78290000D01*
X228923000Y-78290000D02*
X217052000Y-78290000D01*
X217052000Y-78290000D02*
X217052000Y-107130000D01*
X138421000Y-107130000D02*
X138421000Y-78290000D01*
X126550000Y-107130000D02*
X138421000Y-107130000D01*
X126550000Y-78290000D02*
X126550000Y-107130000D01*
X138421000Y-78290000D02*
X126550000Y-78290000D01*
D11*
X208788000Y-105791000D02*
X146558000Y-105791000D01*
X146558000Y-105791000D02*
X146558000Y-79629000D01*
X146558000Y-79629000D02*
X208788000Y-79629000D01*
X208788000Y-79629000D02*
X208788000Y-105791000D01*
D10*
X227123667Y-107656382D02*
X227123667Y-108370666D01*
X227076048Y-108513523D01*
X226980810Y-108608761D01*
X226837953Y-108656380D01*
X226742715Y-108656380D01*
X228123665Y-108656380D02*
X227552237Y-108656380D01*
X227837951Y-108656380D02*
X227837951Y-107656382D01*
X227742713Y-107799238D01*
X227647475Y-107894476D01*
X227552237Y-107942095D01*
X128190667Y-107656382D02*
X128190667Y-108370666D01*
X128143048Y-108513523D01*
X128047810Y-108608761D01*
X127904953Y-108656380D01*
X127809715Y-108656380D01*
X128619237Y-107751619D02*
X128666856Y-107704001D01*
X128762094Y-107656382D01*
X129000189Y-107656382D01*
X129095427Y-107704001D01*
X129143046Y-107751619D01*
X129190665Y-107846857D01*
X129190665Y-107942095D01*
X129143046Y-108084952D01*
X128571618Y-108656380D01*
X129190665Y-108656380D01*
D11*
X200025095Y-103973380D02*
X200025095Y-104782904D01*
X200072714Y-104878142D01*
X200120333Y-104925761D01*
X200215571Y-104973380D01*
X200406047Y-104973380D01*
X200501285Y-104925761D01*
X200548904Y-104878142D01*
X200596523Y-104782904D01*
X200596523Y-103973380D01*
X201596523Y-104973380D02*
X201025095Y-104973380D01*
X201310809Y-104973380D02*
X201310809Y-103973380D01*
X201215571Y-104116238D01*
X201120333Y-104211476D01*
X201025095Y-104259095D01*
D13*
X168903952Y-92014523D02*
X169629666Y-92014523D01*
X169266809Y-93284523D02*
X169266809Y-92014523D01*
X170053000Y-93284523D02*
X170053000Y-92014523D01*
X170597285Y-93284523D02*
X170597285Y-92619285D01*
X170536809Y-92498333D01*
X170415857Y-92437857D01*
X170234428Y-92437857D01*
X170113476Y-92498333D01*
X170053000Y-92558809D01*
X171383476Y-93284523D02*
X171262523Y-93224047D01*
X171202047Y-93163571D01*
X171141571Y-93042619D01*
X171141571Y-92679761D01*
X171202047Y-92558809D01*
X171262523Y-92498333D01*
X171383476Y-92437857D01*
X171564904Y-92437857D01*
X171685857Y-92498333D01*
X171746333Y-92558809D01*
X171806809Y-92679761D01*
X171806809Y-93042619D01*
X171746333Y-93163571D01*
X171685857Y-93224047D01*
X171564904Y-93284523D01*
X171383476Y-93284523D01*
X172351095Y-93284523D02*
X172351095Y-92437857D01*
X172351095Y-92679761D02*
X172411571Y-92558809D01*
X172472047Y-92498333D01*
X172593000Y-92437857D01*
X172713952Y-92437857D01*
X173742047Y-93284523D02*
X173137285Y-93284523D01*
X173137285Y-92014523D01*
X174709666Y-93284523D02*
X174709666Y-92619285D01*
X174649190Y-92498333D01*
X174528238Y-92437857D01*
X174286333Y-92437857D01*
X174165380Y-92498333D01*
X174709666Y-93224047D02*
X174588714Y-93284523D01*
X174286333Y-93284523D01*
X174165380Y-93224047D01*
X174104904Y-93103095D01*
X174104904Y-92982142D01*
X174165380Y-92861190D01*
X174286333Y-92800714D01*
X174588714Y-92800714D01*
X174709666Y-92740238D01*
X175314428Y-93284523D02*
X175314428Y-92014523D01*
X175314428Y-92498333D02*
X175435380Y-92437857D01*
X175677285Y-92437857D01*
X175798238Y-92498333D01*
X175858714Y-92558809D01*
X175919190Y-92679761D01*
X175919190Y-93042619D01*
X175858714Y-93163571D01*
X175798238Y-93224047D01*
X175677285Y-93284523D01*
X175435380Y-93284523D01*
X175314428Y-93224047D01*
X176403000Y-93224047D02*
X176523952Y-93284523D01*
X176765857Y-93284523D01*
X176886809Y-93224047D01*
X176947285Y-93103095D01*
X176947285Y-93042619D01*
X176886809Y-92921666D01*
X176765857Y-92861190D01*
X176584428Y-92861190D01*
X176463476Y-92800714D01*
X176403000Y-92679761D01*
X176403000Y-92619285D01*
X176463476Y-92498333D01*
X176584428Y-92437857D01*
X176765857Y-92437857D01*
X176886809Y-92498333D01*
X179063952Y-93284523D02*
X178459190Y-93284523D01*
X178459190Y-92014523D01*
X179487285Y-93284523D02*
X179487285Y-92014523D01*
X179789666Y-92014523D01*
X179971095Y-92075000D01*
X180092047Y-92195952D01*
X180152523Y-92316904D01*
X180213000Y-92558809D01*
X180213000Y-92740238D01*
X180152523Y-92982142D01*
X180092047Y-93103095D01*
X179971095Y-93224047D01*
X179789666Y-93284523D01*
X179487285Y-93284523D01*
X181422523Y-93284523D02*
X180696809Y-93284523D01*
X181059666Y-93284523D02*
X181059666Y-92014523D01*
X180938714Y-92195952D01*
X180817761Y-92316904D01*
X180696809Y-92377380D01*
X181906333Y-92135476D02*
X181966809Y-92075000D01*
X182087761Y-92014523D01*
X182390142Y-92014523D01*
X182511095Y-92075000D01*
X182571571Y-92135476D01*
X182632047Y-92256428D01*
X182632047Y-92377380D01*
X182571571Y-92558809D01*
X181845857Y-93284523D01*
X182632047Y-93284523D01*
X183781095Y-92014523D02*
X183176333Y-92014523D01*
X183115857Y-92619285D01*
X183176333Y-92558809D01*
X183297285Y-92498333D01*
X183599666Y-92498333D01*
X183720619Y-92558809D01*
X183781095Y-92619285D01*
X183841571Y-92740238D01*
X183841571Y-93042619D01*
X183781095Y-93163571D01*
X183720619Y-93224047D01*
X183599666Y-93284523D01*
X183297285Y-93284523D01*
X183176333Y-93224047D01*
X183115857Y-93163571D01*
X184990619Y-92014523D02*
X184385857Y-92014523D01*
X184325380Y-92619285D01*
X184385857Y-92558809D01*
X184506809Y-92498333D01*
X184809190Y-92498333D01*
X184930142Y-92558809D01*
X184990619Y-92619285D01*
X185051095Y-92740238D01*
X185051095Y-93042619D01*
X184990619Y-93163571D01*
X184930142Y-93224047D01*
X184809190Y-93284523D01*
X184506809Y-93284523D01*
X184385857Y-93224047D01*
X184325380Y-93163571D01*
X186321095Y-93284523D02*
X185897761Y-92679761D01*
X185595380Y-93284523D02*
X185595380Y-92014523D01*
X186079190Y-92014523D01*
X186200142Y-92075000D01*
X186260619Y-92135476D01*
X186321095Y-92256428D01*
X186321095Y-92437857D01*
X186260619Y-92558809D01*
X186200142Y-92619285D01*
X186079190Y-92679761D01*
X185595380Y-92679761D01*
M02*
