G04 #@! TF.GenerationSoftware,KiCad,Pcbnew,(5.1.2)-1*
G04 #@! TF.CreationDate,2019-10-29T15:10:56-05:00*
G04 #@! TF.ProjectId,laser_driver,6c617365-725f-4647-9269-7665722e6b69,rev?*
G04 #@! TF.SameCoordinates,Original*
G04 #@! TF.FileFunction,Copper,L1,Top*
G04 #@! TF.FilePolarity,Positive*
%FSLAX46Y46*%
G04 Gerber Fmt 4.6, Leading zero omitted, Abs format (unit mm)*
G04 Created by KiCad (PCBNEW (5.1.2)-1) date 2019-10-29 15:10:56*
%MOMM*%
%LPD*%
G04 APERTURE LIST*
%ADD10C,1.620000*%
%ADD11C,1.700000*%
%ADD12C,1.270000*%
%ADD13C,0.254000*%
G04 APERTURE END LIST*
D10*
X218313000Y-105410000D03*
X218313000Y-102870000D03*
X218313000Y-100330000D03*
X218313000Y-97790000D03*
X218313000Y-95250000D03*
X218313000Y-92710000D03*
X218313000Y-90170000D03*
X218313000Y-87630000D03*
X218313000Y-85090000D03*
X218313000Y-82550000D03*
X218313000Y-80010000D03*
X137160000Y-105410000D03*
X137160000Y-102870000D03*
X137160000Y-100330000D03*
X137160000Y-97790000D03*
X137160000Y-95250000D03*
X137160000Y-92710000D03*
X137160000Y-90170000D03*
X137160000Y-87630000D03*
X137160000Y-85090000D03*
X137160000Y-82550000D03*
X137160000Y-80010000D03*
D11*
X199898000Y-82169000D03*
X197358000Y-82169000D03*
X194818000Y-82169000D03*
X192278000Y-82169000D03*
X189738000Y-82169000D03*
X187198000Y-82169000D03*
X184658000Y-82169000D03*
X182118000Y-82169000D03*
X179578000Y-82169000D03*
X177038000Y-82169000D03*
X194818000Y-103251000D03*
X192278000Y-103251000D03*
X189738000Y-103251000D03*
X187198000Y-103251000D03*
X184658000Y-103251000D03*
D12*
X199898000Y-84455000D02*
X199898000Y-82169000D01*
X218313000Y-102870000D02*
X199898000Y-84455000D01*
X181268001Y-81319001D02*
X182118000Y-82169000D01*
X177571599Y-77622599D02*
X181268001Y-81319001D01*
X135737401Y-77622599D02*
X177571599Y-77622599D01*
X135562599Y-77797401D02*
X135737401Y-77622599D01*
X135562599Y-86032599D02*
X135562599Y-77797401D01*
X137160000Y-87630000D02*
X135562599Y-86032599D01*
X186348001Y-83018999D02*
X187198000Y-82169000D01*
X184886599Y-84480401D02*
X186348001Y-83018999D01*
X139090401Y-84480401D02*
X184886599Y-84480401D01*
X137160000Y-82550000D02*
X139090401Y-84480401D01*
D13*
G36*
X217335619Y-78943842D02*
G01*
X217190595Y-79088866D01*
X217032457Y-79325536D01*
X216923530Y-79588509D01*
X216868000Y-79867680D01*
X216868000Y-80152320D01*
X216923530Y-80431491D01*
X217032457Y-80694464D01*
X217190595Y-80931134D01*
X217391866Y-81132405D01*
X217612757Y-81280000D01*
X217391866Y-81427595D01*
X217190595Y-81628866D01*
X217032457Y-81865536D01*
X216923530Y-82128509D01*
X216868000Y-82407680D01*
X216868000Y-82692320D01*
X216923530Y-82971491D01*
X217032457Y-83234464D01*
X217190595Y-83471134D01*
X217391866Y-83672405D01*
X217612757Y-83820000D01*
X217391866Y-83967595D01*
X217190595Y-84168866D01*
X217032457Y-84405536D01*
X216923530Y-84668509D01*
X216868000Y-84947680D01*
X216868000Y-85232320D01*
X216923530Y-85511491D01*
X217032457Y-85774464D01*
X217190595Y-86011134D01*
X217391866Y-86212405D01*
X217612757Y-86360000D01*
X217391866Y-86507595D01*
X217190595Y-86708866D01*
X217032457Y-86945536D01*
X216923530Y-87208509D01*
X216868000Y-87487680D01*
X216868000Y-87772320D01*
X216923530Y-88051491D01*
X217032457Y-88314464D01*
X217190595Y-88551134D01*
X217391866Y-88752405D01*
X217612757Y-88900000D01*
X217391866Y-89047595D01*
X217190595Y-89248866D01*
X217032457Y-89485536D01*
X216923530Y-89748509D01*
X216868000Y-90027680D01*
X216868000Y-90312320D01*
X216923530Y-90591491D01*
X217032457Y-90854464D01*
X217190595Y-91091134D01*
X217391866Y-91292405D01*
X217612757Y-91440000D01*
X217391866Y-91587595D01*
X217190595Y-91788866D01*
X217032457Y-92025536D01*
X216984009Y-92142500D01*
X212303953Y-92142500D01*
X212303953Y-94962500D01*
X216896878Y-94962500D01*
X216868000Y-95107680D01*
X216868000Y-95392320D01*
X216923530Y-95671491D01*
X217032457Y-95934464D01*
X217190595Y-96171134D01*
X217391866Y-96372405D01*
X217612757Y-96520000D01*
X217391866Y-96667595D01*
X217190595Y-96868866D01*
X217032457Y-97105536D01*
X216923530Y-97368509D01*
X216868000Y-97647680D01*
X216868000Y-97932320D01*
X216923530Y-98211491D01*
X217032457Y-98474464D01*
X217190595Y-98711134D01*
X217391866Y-98912405D01*
X217612757Y-99060000D01*
X217391866Y-99207595D01*
X217190595Y-99408866D01*
X217032457Y-99645536D01*
X216989147Y-99750095D01*
X201168000Y-83928950D01*
X201168000Y-82941240D01*
X201213990Y-82872411D01*
X201325932Y-82602158D01*
X201383000Y-82315260D01*
X201383000Y-82022740D01*
X201369796Y-81956357D01*
X203962000Y-81956357D01*
X203962000Y-82381643D01*
X204044970Y-82798757D01*
X204207719Y-83191670D01*
X204443996Y-83545282D01*
X204744718Y-83846004D01*
X205098330Y-84082281D01*
X205491243Y-84245030D01*
X205908357Y-84328000D01*
X206333643Y-84328000D01*
X206750757Y-84245030D01*
X207143670Y-84082281D01*
X207497282Y-83846004D01*
X207798004Y-83545282D01*
X208034281Y-83191670D01*
X208197030Y-82798757D01*
X208280000Y-82381643D01*
X208280000Y-81956357D01*
X208197030Y-81539243D01*
X208034281Y-81146330D01*
X207798004Y-80792718D01*
X207497282Y-80491996D01*
X207143670Y-80255719D01*
X206750757Y-80092970D01*
X206333643Y-80010000D01*
X205908357Y-80010000D01*
X205491243Y-80092970D01*
X205098330Y-80255719D01*
X204744718Y-80491996D01*
X204443996Y-80792718D01*
X204207719Y-81146330D01*
X204044970Y-81539243D01*
X203962000Y-81956357D01*
X201369796Y-81956357D01*
X201325932Y-81735842D01*
X201213990Y-81465589D01*
X201051475Y-81222368D01*
X200844632Y-81015525D01*
X200601411Y-80853010D01*
X200331158Y-80741068D01*
X200044260Y-80684000D01*
X199751740Y-80684000D01*
X199464842Y-80741068D01*
X199194589Y-80853010D01*
X198951368Y-81015525D01*
X198744525Y-81222368D01*
X198628689Y-81395729D01*
X198386397Y-81320208D01*
X197537605Y-82169000D01*
X198386397Y-83017792D01*
X198628001Y-82942486D01*
X198628000Y-84392627D01*
X198621857Y-84455000D01*
X198628000Y-84517373D01*
X198628000Y-84517379D01*
X198642885Y-84668509D01*
X198646377Y-84703963D01*
X198662301Y-84756456D01*
X198718997Y-84943358D01*
X198836925Y-85163987D01*
X198995630Y-85357370D01*
X199044091Y-85397141D01*
X216919828Y-103272880D01*
X216923530Y-103291491D01*
X217032457Y-103554464D01*
X217190595Y-103791134D01*
X217391866Y-103992405D01*
X217612706Y-104139966D01*
X217565556Y-104165168D01*
X217492762Y-104410157D01*
X218313000Y-105230395D01*
X219133238Y-104410157D01*
X219060444Y-104165168D01*
X219010793Y-104141637D01*
X219234134Y-103992405D01*
X219435405Y-103791134D01*
X219593543Y-103554464D01*
X219702470Y-103291491D01*
X219758000Y-103012320D01*
X219758000Y-102727680D01*
X219702470Y-102448509D01*
X219593543Y-102185536D01*
X219435405Y-101948866D01*
X219234134Y-101747595D01*
X219013243Y-101600000D01*
X219234134Y-101452405D01*
X219435405Y-101251134D01*
X219593543Y-101014464D01*
X219702470Y-100751491D01*
X219758000Y-100472320D01*
X219758000Y-100187680D01*
X219702470Y-99908509D01*
X219593543Y-99645536D01*
X219435405Y-99408866D01*
X219234134Y-99207595D01*
X219013243Y-99060000D01*
X219234134Y-98912405D01*
X219435405Y-98711134D01*
X219593543Y-98474464D01*
X219702470Y-98211491D01*
X219758000Y-97932320D01*
X219758000Y-97647680D01*
X219702470Y-97368509D01*
X219593543Y-97105536D01*
X219435405Y-96868866D01*
X219234134Y-96667595D01*
X219013243Y-96520000D01*
X219234134Y-96372405D01*
X219435405Y-96171134D01*
X219593543Y-95934464D01*
X219702470Y-95671491D01*
X219758000Y-95392320D01*
X219758000Y-95107680D01*
X219702470Y-94828509D01*
X219593543Y-94565536D01*
X219435405Y-94328866D01*
X219234134Y-94127595D01*
X219013243Y-93980000D01*
X219234134Y-93832405D01*
X219435405Y-93631134D01*
X219593543Y-93394464D01*
X219702470Y-93131491D01*
X219758000Y-92852320D01*
X219758000Y-92567680D01*
X219702470Y-92288509D01*
X219593543Y-92025536D01*
X219435405Y-91788866D01*
X219234134Y-91587595D01*
X219013243Y-91440000D01*
X219234134Y-91292405D01*
X219435405Y-91091134D01*
X219593543Y-90854464D01*
X219702470Y-90591491D01*
X219758000Y-90312320D01*
X219758000Y-90027680D01*
X219702470Y-89748509D01*
X219593543Y-89485536D01*
X219435405Y-89248866D01*
X219234134Y-89047595D01*
X219013243Y-88900000D01*
X219234134Y-88752405D01*
X219435405Y-88551134D01*
X219593543Y-88314464D01*
X219702470Y-88051491D01*
X219758000Y-87772320D01*
X219758000Y-87487680D01*
X219702470Y-87208509D01*
X219593543Y-86945536D01*
X219435405Y-86708866D01*
X219234134Y-86507595D01*
X219013243Y-86360000D01*
X219234134Y-86212405D01*
X219435405Y-86011134D01*
X219593543Y-85774464D01*
X219702470Y-85511491D01*
X219758000Y-85232320D01*
X219758000Y-84947680D01*
X219702470Y-84668509D01*
X219593543Y-84405536D01*
X219435405Y-84168866D01*
X219234134Y-83967595D01*
X219013243Y-83820000D01*
X219234134Y-83672405D01*
X219435405Y-83471134D01*
X219593543Y-83234464D01*
X219702470Y-82971491D01*
X219758000Y-82692320D01*
X219758000Y-82407680D01*
X219702470Y-82128509D01*
X219593543Y-81865536D01*
X219435405Y-81628866D01*
X219234134Y-81427595D01*
X219013243Y-81280000D01*
X219234134Y-81132405D01*
X219435405Y-80931134D01*
X219593543Y-80694464D01*
X219702470Y-80431491D01*
X219758000Y-80152320D01*
X219758000Y-79867680D01*
X219702470Y-79588509D01*
X219625008Y-79401500D01*
X220560381Y-79401500D01*
X220560381Y-76860000D01*
X227940001Y-76860000D01*
X227940001Y-92142500D01*
X223542953Y-92142500D01*
X223542953Y-94962500D01*
X227940000Y-94962500D01*
X227940000Y-108560000D01*
X220084191Y-108560000D01*
X220084191Y-107132500D01*
X219464857Y-107132500D01*
X219464857Y-106607500D01*
X219074508Y-106607500D01*
X219133238Y-106409843D01*
X218313000Y-105589605D01*
X217492762Y-106409843D01*
X217551492Y-106607500D01*
X214612867Y-106607500D01*
X214705631Y-106468669D01*
X214874110Y-106061925D01*
X214960000Y-105630128D01*
X214960000Y-105480115D01*
X216862702Y-105480115D01*
X216904248Y-105761706D01*
X216999932Y-106029783D01*
X217068168Y-106157444D01*
X217313157Y-106230238D01*
X218133395Y-105410000D01*
X218492605Y-105410000D01*
X219312843Y-106230238D01*
X219557832Y-106157444D01*
X219679733Y-105900227D01*
X219749110Y-105624171D01*
X219763298Y-105339885D01*
X219721752Y-105058294D01*
X219626068Y-104790217D01*
X219557832Y-104662556D01*
X219312843Y-104589762D01*
X218492605Y-105410000D01*
X218133395Y-105410000D01*
X217313157Y-104589762D01*
X217068168Y-104662556D01*
X216946267Y-104919773D01*
X216876890Y-105195829D01*
X216862702Y-105480115D01*
X214960000Y-105480115D01*
X214960000Y-105189872D01*
X214874110Y-104758075D01*
X214705631Y-104351331D01*
X214461038Y-103985271D01*
X214149729Y-103673962D01*
X213783669Y-103429369D01*
X213376925Y-103260890D01*
X212945128Y-103175000D01*
X212504872Y-103175000D01*
X212073075Y-103260890D01*
X211666331Y-103429369D01*
X211300271Y-103673962D01*
X210988962Y-103985271D01*
X210744369Y-104351331D01*
X210575890Y-104758075D01*
X210490000Y-105189872D01*
X210490000Y-105630128D01*
X210575890Y-106061925D01*
X210744369Y-106468669D01*
X210988962Y-106834729D01*
X211300271Y-107146038D01*
X211666331Y-107390631D01*
X212073075Y-107559110D01*
X212504872Y-107645000D01*
X212945128Y-107645000D01*
X213376925Y-107559110D01*
X213783669Y-107390631D01*
X213859143Y-107340201D01*
X213859143Y-108560000D01*
X138137381Y-108560000D01*
X138137381Y-106476158D01*
X138282405Y-106331134D01*
X138440543Y-106094464D01*
X138549470Y-105831491D01*
X138605000Y-105552320D01*
X138605000Y-105267680D01*
X138589524Y-105189872D01*
X140640000Y-105189872D01*
X140640000Y-105630128D01*
X140725890Y-106061925D01*
X140894369Y-106468669D01*
X141138962Y-106834729D01*
X141450271Y-107146038D01*
X141816331Y-107390631D01*
X142223075Y-107559110D01*
X142654872Y-107645000D01*
X143095128Y-107645000D01*
X143526925Y-107559110D01*
X143933669Y-107390631D01*
X144299729Y-107146038D01*
X144611038Y-106834729D01*
X144855631Y-106468669D01*
X145024110Y-106061925D01*
X145110000Y-105630128D01*
X145110000Y-105189872D01*
X145024110Y-104758075D01*
X144855631Y-104351331D01*
X144611038Y-103985271D01*
X144299729Y-103673962D01*
X143933669Y-103429369D01*
X143526925Y-103260890D01*
X143095128Y-103175000D01*
X142654872Y-103175000D01*
X142223075Y-103260890D01*
X141816331Y-103429369D01*
X141450271Y-103673962D01*
X141138962Y-103985271D01*
X140894369Y-104351331D01*
X140725890Y-104758075D01*
X140640000Y-105189872D01*
X138589524Y-105189872D01*
X138549470Y-104988509D01*
X138440543Y-104725536D01*
X138282405Y-104488866D01*
X138081134Y-104287595D01*
X137860243Y-104140000D01*
X138081134Y-103992405D01*
X138282405Y-103791134D01*
X138440543Y-103554464D01*
X138549470Y-103291491D01*
X138599820Y-103038357D01*
X146939000Y-103038357D01*
X146939000Y-103463643D01*
X147021970Y-103880757D01*
X147184719Y-104273670D01*
X147420996Y-104627282D01*
X147721718Y-104928004D01*
X148075330Y-105164281D01*
X148468243Y-105327030D01*
X148885357Y-105410000D01*
X149310643Y-105410000D01*
X149727757Y-105327030D01*
X150120670Y-105164281D01*
X150474282Y-104928004D01*
X150775004Y-104627282D01*
X151011281Y-104273670D01*
X151174030Y-103880757D01*
X151257000Y-103463643D01*
X151257000Y-103104740D01*
X183173000Y-103104740D01*
X183173000Y-103397260D01*
X183230068Y-103684158D01*
X183342010Y-103954411D01*
X183504525Y-104197632D01*
X183711368Y-104404475D01*
X183954589Y-104566990D01*
X184224842Y-104678932D01*
X184511740Y-104736000D01*
X184804260Y-104736000D01*
X185091158Y-104678932D01*
X185361411Y-104566990D01*
X185604632Y-104404475D01*
X185811475Y-104197632D01*
X185928000Y-104023240D01*
X186044525Y-104197632D01*
X186251368Y-104404475D01*
X186494589Y-104566990D01*
X186764842Y-104678932D01*
X187051740Y-104736000D01*
X187344260Y-104736000D01*
X187631158Y-104678932D01*
X187901411Y-104566990D01*
X188144632Y-104404475D01*
X188351475Y-104197632D01*
X188468000Y-104023240D01*
X188584525Y-104197632D01*
X188791368Y-104404475D01*
X189034589Y-104566990D01*
X189304842Y-104678932D01*
X189591740Y-104736000D01*
X189884260Y-104736000D01*
X190171158Y-104678932D01*
X190441411Y-104566990D01*
X190684632Y-104404475D01*
X190891475Y-104197632D01*
X191008000Y-104023240D01*
X191124525Y-104197632D01*
X191331368Y-104404475D01*
X191574589Y-104566990D01*
X191844842Y-104678932D01*
X192131740Y-104736000D01*
X192424260Y-104736000D01*
X192711158Y-104678932D01*
X192981411Y-104566990D01*
X193224632Y-104404475D01*
X193431475Y-104197632D01*
X193548000Y-104023240D01*
X193664525Y-104197632D01*
X193871368Y-104404475D01*
X194114589Y-104566990D01*
X194384842Y-104678932D01*
X194671740Y-104736000D01*
X194964260Y-104736000D01*
X195251158Y-104678932D01*
X195521411Y-104566990D01*
X195764632Y-104404475D01*
X195971475Y-104197632D01*
X196133990Y-103954411D01*
X196245932Y-103684158D01*
X196303000Y-103397260D01*
X196303000Y-103104740D01*
X196289796Y-103038357D01*
X204089000Y-103038357D01*
X204089000Y-103463643D01*
X204171970Y-103880757D01*
X204334719Y-104273670D01*
X204570996Y-104627282D01*
X204871718Y-104928004D01*
X205225330Y-105164281D01*
X205618243Y-105327030D01*
X206035357Y-105410000D01*
X206460643Y-105410000D01*
X206877757Y-105327030D01*
X207270670Y-105164281D01*
X207624282Y-104928004D01*
X207925004Y-104627282D01*
X208161281Y-104273670D01*
X208324030Y-103880757D01*
X208407000Y-103463643D01*
X208407000Y-103038357D01*
X208324030Y-102621243D01*
X208161281Y-102228330D01*
X207925004Y-101874718D01*
X207624282Y-101573996D01*
X207270670Y-101337719D01*
X206877757Y-101174970D01*
X206460643Y-101092000D01*
X206035357Y-101092000D01*
X205618243Y-101174970D01*
X205225330Y-101337719D01*
X204871718Y-101573996D01*
X204570996Y-101874718D01*
X204334719Y-102228330D01*
X204171970Y-102621243D01*
X204089000Y-103038357D01*
X196289796Y-103038357D01*
X196245932Y-102817842D01*
X196133990Y-102547589D01*
X195971475Y-102304368D01*
X195764632Y-102097525D01*
X195521411Y-101935010D01*
X195251158Y-101823068D01*
X194964260Y-101766000D01*
X194671740Y-101766000D01*
X194384842Y-101823068D01*
X194114589Y-101935010D01*
X193871368Y-102097525D01*
X193664525Y-102304368D01*
X193548000Y-102478760D01*
X193431475Y-102304368D01*
X193224632Y-102097525D01*
X192981411Y-101935010D01*
X192711158Y-101823068D01*
X192424260Y-101766000D01*
X192131740Y-101766000D01*
X191844842Y-101823068D01*
X191574589Y-101935010D01*
X191331368Y-102097525D01*
X191124525Y-102304368D01*
X191008000Y-102478760D01*
X190891475Y-102304368D01*
X190684632Y-102097525D01*
X190441411Y-101935010D01*
X190171158Y-101823068D01*
X189884260Y-101766000D01*
X189591740Y-101766000D01*
X189304842Y-101823068D01*
X189034589Y-101935010D01*
X188791368Y-102097525D01*
X188584525Y-102304368D01*
X188468000Y-102478760D01*
X188351475Y-102304368D01*
X188144632Y-102097525D01*
X187901411Y-101935010D01*
X187631158Y-101823068D01*
X187344260Y-101766000D01*
X187051740Y-101766000D01*
X186764842Y-101823068D01*
X186494589Y-101935010D01*
X186251368Y-102097525D01*
X186044525Y-102304368D01*
X185928000Y-102478760D01*
X185811475Y-102304368D01*
X185604632Y-102097525D01*
X185361411Y-101935010D01*
X185091158Y-101823068D01*
X184804260Y-101766000D01*
X184511740Y-101766000D01*
X184224842Y-101823068D01*
X183954589Y-101935010D01*
X183711368Y-102097525D01*
X183504525Y-102304368D01*
X183342010Y-102547589D01*
X183230068Y-102817842D01*
X183173000Y-103104740D01*
X151257000Y-103104740D01*
X151257000Y-103038357D01*
X151174030Y-102621243D01*
X151011281Y-102228330D01*
X150775004Y-101874718D01*
X150474282Y-101573996D01*
X150120670Y-101337719D01*
X149727757Y-101174970D01*
X149310643Y-101092000D01*
X148885357Y-101092000D01*
X148468243Y-101174970D01*
X148075330Y-101337719D01*
X147721718Y-101573996D01*
X147420996Y-101874718D01*
X147184719Y-102228330D01*
X147021970Y-102621243D01*
X146939000Y-103038357D01*
X138599820Y-103038357D01*
X138605000Y-103012320D01*
X138605000Y-102727680D01*
X138549470Y-102448509D01*
X138440543Y-102185536D01*
X138282405Y-101948866D01*
X138081134Y-101747595D01*
X137860243Y-101600000D01*
X138081134Y-101452405D01*
X138282405Y-101251134D01*
X138440543Y-101014464D01*
X138549470Y-100751491D01*
X138605000Y-100472320D01*
X138605000Y-100187680D01*
X138549470Y-99908509D01*
X138440543Y-99645536D01*
X138282405Y-99408866D01*
X138081134Y-99207595D01*
X137860243Y-99060000D01*
X138081134Y-98912405D01*
X138282405Y-98711134D01*
X138440543Y-98474464D01*
X138549470Y-98211491D01*
X138605000Y-97932320D01*
X138605000Y-97647680D01*
X138549470Y-97368509D01*
X138440543Y-97105536D01*
X138282405Y-96868866D01*
X138081134Y-96667595D01*
X137860243Y-96520000D01*
X138081134Y-96372405D01*
X138282405Y-96171134D01*
X138440543Y-95934464D01*
X138549470Y-95671491D01*
X138605000Y-95392320D01*
X138605000Y-95107680D01*
X138549470Y-94828509D01*
X138440543Y-94565536D01*
X138282405Y-94328866D01*
X138081134Y-94127595D01*
X137860243Y-93980000D01*
X138081134Y-93832405D01*
X138282405Y-93631134D01*
X138440543Y-93394464D01*
X138488991Y-93277500D01*
X143169047Y-93277500D01*
X143169047Y-90457500D01*
X138576122Y-90457500D01*
X138605000Y-90312320D01*
X138605000Y-90027680D01*
X138549470Y-89748509D01*
X138440543Y-89485536D01*
X138282405Y-89248866D01*
X138081134Y-89047595D01*
X137860243Y-88900000D01*
X138081134Y-88752405D01*
X138282405Y-88551134D01*
X138440543Y-88314464D01*
X138549470Y-88051491D01*
X138605000Y-87772320D01*
X138605000Y-87487680D01*
X138549470Y-87208509D01*
X138440543Y-86945536D01*
X138282405Y-86708866D01*
X138081134Y-86507595D01*
X137860243Y-86360000D01*
X138081134Y-86212405D01*
X138282405Y-86011134D01*
X138440543Y-85774464D01*
X138508838Y-85609586D01*
X138602042Y-85659404D01*
X138757702Y-85706623D01*
X138841437Y-85732024D01*
X138867156Y-85734557D01*
X139028021Y-85750401D01*
X139028027Y-85750401D01*
X139090400Y-85756544D01*
X139152773Y-85750401D01*
X184824226Y-85750401D01*
X184886599Y-85756544D01*
X184948972Y-85750401D01*
X184948979Y-85750401D01*
X185135562Y-85732024D01*
X185374958Y-85659404D01*
X185595587Y-85541476D01*
X185788969Y-85382771D01*
X185828740Y-85334310D01*
X187290136Y-83872915D01*
X187290141Y-83872909D01*
X187549968Y-83613082D01*
X187631158Y-83596932D01*
X187901411Y-83484990D01*
X188144632Y-83322475D01*
X188351475Y-83115632D01*
X188468000Y-82941240D01*
X188584525Y-83115632D01*
X188791368Y-83322475D01*
X189034589Y-83484990D01*
X189304842Y-83596932D01*
X189591740Y-83654000D01*
X189884260Y-83654000D01*
X190171158Y-83596932D01*
X190441411Y-83484990D01*
X190684632Y-83322475D01*
X190891475Y-83115632D01*
X191008000Y-82941240D01*
X191124525Y-83115632D01*
X191331368Y-83322475D01*
X191574589Y-83484990D01*
X191844842Y-83596932D01*
X192131740Y-83654000D01*
X192424260Y-83654000D01*
X192711158Y-83596932D01*
X192981411Y-83484990D01*
X193224632Y-83322475D01*
X193431475Y-83115632D01*
X193548000Y-82941240D01*
X193664525Y-83115632D01*
X193871368Y-83322475D01*
X194114589Y-83484990D01*
X194384842Y-83596932D01*
X194671740Y-83654000D01*
X194964260Y-83654000D01*
X195251158Y-83596932D01*
X195521411Y-83484990D01*
X195764632Y-83322475D01*
X195889710Y-83197397D01*
X196509208Y-83197397D01*
X196586843Y-83446472D01*
X196850883Y-83572371D01*
X197134411Y-83644339D01*
X197426531Y-83659611D01*
X197716019Y-83617599D01*
X197991747Y-83519919D01*
X198129157Y-83446472D01*
X198206792Y-83197397D01*
X197358000Y-82348605D01*
X196509208Y-83197397D01*
X195889710Y-83197397D01*
X195971475Y-83115632D01*
X196087311Y-82942271D01*
X196329603Y-83017792D01*
X197178395Y-82169000D01*
X196329603Y-81320208D01*
X196087311Y-81395729D01*
X195971475Y-81222368D01*
X195889710Y-81140603D01*
X196509208Y-81140603D01*
X197358000Y-81989395D01*
X198206792Y-81140603D01*
X198129157Y-80891528D01*
X197865117Y-80765629D01*
X197581589Y-80693661D01*
X197289469Y-80678389D01*
X196999981Y-80720401D01*
X196724253Y-80818081D01*
X196586843Y-80891528D01*
X196509208Y-81140603D01*
X195889710Y-81140603D01*
X195764632Y-81015525D01*
X195521411Y-80853010D01*
X195251158Y-80741068D01*
X194964260Y-80684000D01*
X194671740Y-80684000D01*
X194384842Y-80741068D01*
X194114589Y-80853010D01*
X193871368Y-81015525D01*
X193664525Y-81222368D01*
X193548000Y-81396760D01*
X193431475Y-81222368D01*
X193224632Y-81015525D01*
X192981411Y-80853010D01*
X192711158Y-80741068D01*
X192424260Y-80684000D01*
X192131740Y-80684000D01*
X191844842Y-80741068D01*
X191574589Y-80853010D01*
X191331368Y-81015525D01*
X191124525Y-81222368D01*
X191008000Y-81396760D01*
X190891475Y-81222368D01*
X190684632Y-81015525D01*
X190441411Y-80853010D01*
X190171158Y-80741068D01*
X189884260Y-80684000D01*
X189591740Y-80684000D01*
X189304842Y-80741068D01*
X189034589Y-80853010D01*
X188791368Y-81015525D01*
X188584525Y-81222368D01*
X188468000Y-81396760D01*
X188351475Y-81222368D01*
X188144632Y-81015525D01*
X187901411Y-80853010D01*
X187631158Y-80741068D01*
X187344260Y-80684000D01*
X187051740Y-80684000D01*
X186764842Y-80741068D01*
X186494589Y-80853010D01*
X186251368Y-81015525D01*
X186044525Y-81222368D01*
X185928000Y-81396760D01*
X185811475Y-81222368D01*
X185604632Y-81015525D01*
X185361411Y-80853010D01*
X185091158Y-80741068D01*
X184804260Y-80684000D01*
X184511740Y-80684000D01*
X184224842Y-80741068D01*
X183954589Y-80853010D01*
X183711368Y-81015525D01*
X183504525Y-81222368D01*
X183388000Y-81396760D01*
X183271475Y-81222368D01*
X183064632Y-81015525D01*
X182821411Y-80853010D01*
X182551158Y-80741068D01*
X182469968Y-80724918D01*
X182210145Y-80465095D01*
X182210136Y-80465084D01*
X181534924Y-79789872D01*
X210490000Y-79789872D01*
X210490000Y-80230128D01*
X210575890Y-80661925D01*
X210744369Y-81068669D01*
X210988962Y-81434729D01*
X211300271Y-81746038D01*
X211666331Y-81990631D01*
X212073075Y-82159110D01*
X212504872Y-82245000D01*
X212945128Y-82245000D01*
X213376925Y-82159110D01*
X213783669Y-81990631D01*
X214149729Y-81746038D01*
X214461038Y-81434729D01*
X214705631Y-81068669D01*
X214874110Y-80661925D01*
X214960000Y-80230128D01*
X214960000Y-79789872D01*
X214874110Y-79358075D01*
X214705631Y-78951331D01*
X214461038Y-78585271D01*
X214149729Y-78273962D01*
X213783669Y-78029369D01*
X213376925Y-77860890D01*
X212945128Y-77775000D01*
X212504872Y-77775000D01*
X212073075Y-77860890D01*
X211666331Y-78029369D01*
X211300271Y-78273962D01*
X210988962Y-78585271D01*
X210744369Y-78951331D01*
X210575890Y-79358075D01*
X210490000Y-79789872D01*
X181534924Y-79789872D01*
X178605050Y-76860000D01*
X217335619Y-76860000D01*
X217335619Y-78943842D01*
X217335619Y-78943842D01*
G37*
X217335619Y-78943842D02*
X217190595Y-79088866D01*
X217032457Y-79325536D01*
X216923530Y-79588509D01*
X216868000Y-79867680D01*
X216868000Y-80152320D01*
X216923530Y-80431491D01*
X217032457Y-80694464D01*
X217190595Y-80931134D01*
X217391866Y-81132405D01*
X217612757Y-81280000D01*
X217391866Y-81427595D01*
X217190595Y-81628866D01*
X217032457Y-81865536D01*
X216923530Y-82128509D01*
X216868000Y-82407680D01*
X216868000Y-82692320D01*
X216923530Y-82971491D01*
X217032457Y-83234464D01*
X217190595Y-83471134D01*
X217391866Y-83672405D01*
X217612757Y-83820000D01*
X217391866Y-83967595D01*
X217190595Y-84168866D01*
X217032457Y-84405536D01*
X216923530Y-84668509D01*
X216868000Y-84947680D01*
X216868000Y-85232320D01*
X216923530Y-85511491D01*
X217032457Y-85774464D01*
X217190595Y-86011134D01*
X217391866Y-86212405D01*
X217612757Y-86360000D01*
X217391866Y-86507595D01*
X217190595Y-86708866D01*
X217032457Y-86945536D01*
X216923530Y-87208509D01*
X216868000Y-87487680D01*
X216868000Y-87772320D01*
X216923530Y-88051491D01*
X217032457Y-88314464D01*
X217190595Y-88551134D01*
X217391866Y-88752405D01*
X217612757Y-88900000D01*
X217391866Y-89047595D01*
X217190595Y-89248866D01*
X217032457Y-89485536D01*
X216923530Y-89748509D01*
X216868000Y-90027680D01*
X216868000Y-90312320D01*
X216923530Y-90591491D01*
X217032457Y-90854464D01*
X217190595Y-91091134D01*
X217391866Y-91292405D01*
X217612757Y-91440000D01*
X217391866Y-91587595D01*
X217190595Y-91788866D01*
X217032457Y-92025536D01*
X216984009Y-92142500D01*
X212303953Y-92142500D01*
X212303953Y-94962500D01*
X216896878Y-94962500D01*
X216868000Y-95107680D01*
X216868000Y-95392320D01*
X216923530Y-95671491D01*
X217032457Y-95934464D01*
X217190595Y-96171134D01*
X217391866Y-96372405D01*
X217612757Y-96520000D01*
X217391866Y-96667595D01*
X217190595Y-96868866D01*
X217032457Y-97105536D01*
X216923530Y-97368509D01*
X216868000Y-97647680D01*
X216868000Y-97932320D01*
X216923530Y-98211491D01*
X217032457Y-98474464D01*
X217190595Y-98711134D01*
X217391866Y-98912405D01*
X217612757Y-99060000D01*
X217391866Y-99207595D01*
X217190595Y-99408866D01*
X217032457Y-99645536D01*
X216989147Y-99750095D01*
X201168000Y-83928950D01*
X201168000Y-82941240D01*
X201213990Y-82872411D01*
X201325932Y-82602158D01*
X201383000Y-82315260D01*
X201383000Y-82022740D01*
X201369796Y-81956357D01*
X203962000Y-81956357D01*
X203962000Y-82381643D01*
X204044970Y-82798757D01*
X204207719Y-83191670D01*
X204443996Y-83545282D01*
X204744718Y-83846004D01*
X205098330Y-84082281D01*
X205491243Y-84245030D01*
X205908357Y-84328000D01*
X206333643Y-84328000D01*
X206750757Y-84245030D01*
X207143670Y-84082281D01*
X207497282Y-83846004D01*
X207798004Y-83545282D01*
X208034281Y-83191670D01*
X208197030Y-82798757D01*
X208280000Y-82381643D01*
X208280000Y-81956357D01*
X208197030Y-81539243D01*
X208034281Y-81146330D01*
X207798004Y-80792718D01*
X207497282Y-80491996D01*
X207143670Y-80255719D01*
X206750757Y-80092970D01*
X206333643Y-80010000D01*
X205908357Y-80010000D01*
X205491243Y-80092970D01*
X205098330Y-80255719D01*
X204744718Y-80491996D01*
X204443996Y-80792718D01*
X204207719Y-81146330D01*
X204044970Y-81539243D01*
X203962000Y-81956357D01*
X201369796Y-81956357D01*
X201325932Y-81735842D01*
X201213990Y-81465589D01*
X201051475Y-81222368D01*
X200844632Y-81015525D01*
X200601411Y-80853010D01*
X200331158Y-80741068D01*
X200044260Y-80684000D01*
X199751740Y-80684000D01*
X199464842Y-80741068D01*
X199194589Y-80853010D01*
X198951368Y-81015525D01*
X198744525Y-81222368D01*
X198628689Y-81395729D01*
X198386397Y-81320208D01*
X197537605Y-82169000D01*
X198386397Y-83017792D01*
X198628001Y-82942486D01*
X198628000Y-84392627D01*
X198621857Y-84455000D01*
X198628000Y-84517373D01*
X198628000Y-84517379D01*
X198642885Y-84668509D01*
X198646377Y-84703963D01*
X198662301Y-84756456D01*
X198718997Y-84943358D01*
X198836925Y-85163987D01*
X198995630Y-85357370D01*
X199044091Y-85397141D01*
X216919828Y-103272880D01*
X216923530Y-103291491D01*
X217032457Y-103554464D01*
X217190595Y-103791134D01*
X217391866Y-103992405D01*
X217612706Y-104139966D01*
X217565556Y-104165168D01*
X217492762Y-104410157D01*
X218313000Y-105230395D01*
X219133238Y-104410157D01*
X219060444Y-104165168D01*
X219010793Y-104141637D01*
X219234134Y-103992405D01*
X219435405Y-103791134D01*
X219593543Y-103554464D01*
X219702470Y-103291491D01*
X219758000Y-103012320D01*
X219758000Y-102727680D01*
X219702470Y-102448509D01*
X219593543Y-102185536D01*
X219435405Y-101948866D01*
X219234134Y-101747595D01*
X219013243Y-101600000D01*
X219234134Y-101452405D01*
X219435405Y-101251134D01*
X219593543Y-101014464D01*
X219702470Y-100751491D01*
X219758000Y-100472320D01*
X219758000Y-100187680D01*
X219702470Y-99908509D01*
X219593543Y-99645536D01*
X219435405Y-99408866D01*
X219234134Y-99207595D01*
X219013243Y-99060000D01*
X219234134Y-98912405D01*
X219435405Y-98711134D01*
X219593543Y-98474464D01*
X219702470Y-98211491D01*
X219758000Y-97932320D01*
X219758000Y-97647680D01*
X219702470Y-97368509D01*
X219593543Y-97105536D01*
X219435405Y-96868866D01*
X219234134Y-96667595D01*
X219013243Y-96520000D01*
X219234134Y-96372405D01*
X219435405Y-96171134D01*
X219593543Y-95934464D01*
X219702470Y-95671491D01*
X219758000Y-95392320D01*
X219758000Y-95107680D01*
X219702470Y-94828509D01*
X219593543Y-94565536D01*
X219435405Y-94328866D01*
X219234134Y-94127595D01*
X219013243Y-93980000D01*
X219234134Y-93832405D01*
X219435405Y-93631134D01*
X219593543Y-93394464D01*
X219702470Y-93131491D01*
X219758000Y-92852320D01*
X219758000Y-92567680D01*
X219702470Y-92288509D01*
X219593543Y-92025536D01*
X219435405Y-91788866D01*
X219234134Y-91587595D01*
X219013243Y-91440000D01*
X219234134Y-91292405D01*
X219435405Y-91091134D01*
X219593543Y-90854464D01*
X219702470Y-90591491D01*
X219758000Y-90312320D01*
X219758000Y-90027680D01*
X219702470Y-89748509D01*
X219593543Y-89485536D01*
X219435405Y-89248866D01*
X219234134Y-89047595D01*
X219013243Y-88900000D01*
X219234134Y-88752405D01*
X219435405Y-88551134D01*
X219593543Y-88314464D01*
X219702470Y-88051491D01*
X219758000Y-87772320D01*
X219758000Y-87487680D01*
X219702470Y-87208509D01*
X219593543Y-86945536D01*
X219435405Y-86708866D01*
X219234134Y-86507595D01*
X219013243Y-86360000D01*
X219234134Y-86212405D01*
X219435405Y-86011134D01*
X219593543Y-85774464D01*
X219702470Y-85511491D01*
X219758000Y-85232320D01*
X219758000Y-84947680D01*
X219702470Y-84668509D01*
X219593543Y-84405536D01*
X219435405Y-84168866D01*
X219234134Y-83967595D01*
X219013243Y-83820000D01*
X219234134Y-83672405D01*
X219435405Y-83471134D01*
X219593543Y-83234464D01*
X219702470Y-82971491D01*
X219758000Y-82692320D01*
X219758000Y-82407680D01*
X219702470Y-82128509D01*
X219593543Y-81865536D01*
X219435405Y-81628866D01*
X219234134Y-81427595D01*
X219013243Y-81280000D01*
X219234134Y-81132405D01*
X219435405Y-80931134D01*
X219593543Y-80694464D01*
X219702470Y-80431491D01*
X219758000Y-80152320D01*
X219758000Y-79867680D01*
X219702470Y-79588509D01*
X219625008Y-79401500D01*
X220560381Y-79401500D01*
X220560381Y-76860000D01*
X227940001Y-76860000D01*
X227940001Y-92142500D01*
X223542953Y-92142500D01*
X223542953Y-94962500D01*
X227940000Y-94962500D01*
X227940000Y-108560000D01*
X220084191Y-108560000D01*
X220084191Y-107132500D01*
X219464857Y-107132500D01*
X219464857Y-106607500D01*
X219074508Y-106607500D01*
X219133238Y-106409843D01*
X218313000Y-105589605D01*
X217492762Y-106409843D01*
X217551492Y-106607500D01*
X214612867Y-106607500D01*
X214705631Y-106468669D01*
X214874110Y-106061925D01*
X214960000Y-105630128D01*
X214960000Y-105480115D01*
X216862702Y-105480115D01*
X216904248Y-105761706D01*
X216999932Y-106029783D01*
X217068168Y-106157444D01*
X217313157Y-106230238D01*
X218133395Y-105410000D01*
X218492605Y-105410000D01*
X219312843Y-106230238D01*
X219557832Y-106157444D01*
X219679733Y-105900227D01*
X219749110Y-105624171D01*
X219763298Y-105339885D01*
X219721752Y-105058294D01*
X219626068Y-104790217D01*
X219557832Y-104662556D01*
X219312843Y-104589762D01*
X218492605Y-105410000D01*
X218133395Y-105410000D01*
X217313157Y-104589762D01*
X217068168Y-104662556D01*
X216946267Y-104919773D01*
X216876890Y-105195829D01*
X216862702Y-105480115D01*
X214960000Y-105480115D01*
X214960000Y-105189872D01*
X214874110Y-104758075D01*
X214705631Y-104351331D01*
X214461038Y-103985271D01*
X214149729Y-103673962D01*
X213783669Y-103429369D01*
X213376925Y-103260890D01*
X212945128Y-103175000D01*
X212504872Y-103175000D01*
X212073075Y-103260890D01*
X211666331Y-103429369D01*
X211300271Y-103673962D01*
X210988962Y-103985271D01*
X210744369Y-104351331D01*
X210575890Y-104758075D01*
X210490000Y-105189872D01*
X210490000Y-105630128D01*
X210575890Y-106061925D01*
X210744369Y-106468669D01*
X210988962Y-106834729D01*
X211300271Y-107146038D01*
X211666331Y-107390631D01*
X212073075Y-107559110D01*
X212504872Y-107645000D01*
X212945128Y-107645000D01*
X213376925Y-107559110D01*
X213783669Y-107390631D01*
X213859143Y-107340201D01*
X213859143Y-108560000D01*
X138137381Y-108560000D01*
X138137381Y-106476158D01*
X138282405Y-106331134D01*
X138440543Y-106094464D01*
X138549470Y-105831491D01*
X138605000Y-105552320D01*
X138605000Y-105267680D01*
X138589524Y-105189872D01*
X140640000Y-105189872D01*
X140640000Y-105630128D01*
X140725890Y-106061925D01*
X140894369Y-106468669D01*
X141138962Y-106834729D01*
X141450271Y-107146038D01*
X141816331Y-107390631D01*
X142223075Y-107559110D01*
X142654872Y-107645000D01*
X143095128Y-107645000D01*
X143526925Y-107559110D01*
X143933669Y-107390631D01*
X144299729Y-107146038D01*
X144611038Y-106834729D01*
X144855631Y-106468669D01*
X145024110Y-106061925D01*
X145110000Y-105630128D01*
X145110000Y-105189872D01*
X145024110Y-104758075D01*
X144855631Y-104351331D01*
X144611038Y-103985271D01*
X144299729Y-103673962D01*
X143933669Y-103429369D01*
X143526925Y-103260890D01*
X143095128Y-103175000D01*
X142654872Y-103175000D01*
X142223075Y-103260890D01*
X141816331Y-103429369D01*
X141450271Y-103673962D01*
X141138962Y-103985271D01*
X140894369Y-104351331D01*
X140725890Y-104758075D01*
X140640000Y-105189872D01*
X138589524Y-105189872D01*
X138549470Y-104988509D01*
X138440543Y-104725536D01*
X138282405Y-104488866D01*
X138081134Y-104287595D01*
X137860243Y-104140000D01*
X138081134Y-103992405D01*
X138282405Y-103791134D01*
X138440543Y-103554464D01*
X138549470Y-103291491D01*
X138599820Y-103038357D01*
X146939000Y-103038357D01*
X146939000Y-103463643D01*
X147021970Y-103880757D01*
X147184719Y-104273670D01*
X147420996Y-104627282D01*
X147721718Y-104928004D01*
X148075330Y-105164281D01*
X148468243Y-105327030D01*
X148885357Y-105410000D01*
X149310643Y-105410000D01*
X149727757Y-105327030D01*
X150120670Y-105164281D01*
X150474282Y-104928004D01*
X150775004Y-104627282D01*
X151011281Y-104273670D01*
X151174030Y-103880757D01*
X151257000Y-103463643D01*
X151257000Y-103104740D01*
X183173000Y-103104740D01*
X183173000Y-103397260D01*
X183230068Y-103684158D01*
X183342010Y-103954411D01*
X183504525Y-104197632D01*
X183711368Y-104404475D01*
X183954589Y-104566990D01*
X184224842Y-104678932D01*
X184511740Y-104736000D01*
X184804260Y-104736000D01*
X185091158Y-104678932D01*
X185361411Y-104566990D01*
X185604632Y-104404475D01*
X185811475Y-104197632D01*
X185928000Y-104023240D01*
X186044525Y-104197632D01*
X186251368Y-104404475D01*
X186494589Y-104566990D01*
X186764842Y-104678932D01*
X187051740Y-104736000D01*
X187344260Y-104736000D01*
X187631158Y-104678932D01*
X187901411Y-104566990D01*
X188144632Y-104404475D01*
X188351475Y-104197632D01*
X188468000Y-104023240D01*
X188584525Y-104197632D01*
X188791368Y-104404475D01*
X189034589Y-104566990D01*
X189304842Y-104678932D01*
X189591740Y-104736000D01*
X189884260Y-104736000D01*
X190171158Y-104678932D01*
X190441411Y-104566990D01*
X190684632Y-104404475D01*
X190891475Y-104197632D01*
X191008000Y-104023240D01*
X191124525Y-104197632D01*
X191331368Y-104404475D01*
X191574589Y-104566990D01*
X191844842Y-104678932D01*
X192131740Y-104736000D01*
X192424260Y-104736000D01*
X192711158Y-104678932D01*
X192981411Y-104566990D01*
X193224632Y-104404475D01*
X193431475Y-104197632D01*
X193548000Y-104023240D01*
X193664525Y-104197632D01*
X193871368Y-104404475D01*
X194114589Y-104566990D01*
X194384842Y-104678932D01*
X194671740Y-104736000D01*
X194964260Y-104736000D01*
X195251158Y-104678932D01*
X195521411Y-104566990D01*
X195764632Y-104404475D01*
X195971475Y-104197632D01*
X196133990Y-103954411D01*
X196245932Y-103684158D01*
X196303000Y-103397260D01*
X196303000Y-103104740D01*
X196289796Y-103038357D01*
X204089000Y-103038357D01*
X204089000Y-103463643D01*
X204171970Y-103880757D01*
X204334719Y-104273670D01*
X204570996Y-104627282D01*
X204871718Y-104928004D01*
X205225330Y-105164281D01*
X205618243Y-105327030D01*
X206035357Y-105410000D01*
X206460643Y-105410000D01*
X206877757Y-105327030D01*
X207270670Y-105164281D01*
X207624282Y-104928004D01*
X207925004Y-104627282D01*
X208161281Y-104273670D01*
X208324030Y-103880757D01*
X208407000Y-103463643D01*
X208407000Y-103038357D01*
X208324030Y-102621243D01*
X208161281Y-102228330D01*
X207925004Y-101874718D01*
X207624282Y-101573996D01*
X207270670Y-101337719D01*
X206877757Y-101174970D01*
X206460643Y-101092000D01*
X206035357Y-101092000D01*
X205618243Y-101174970D01*
X205225330Y-101337719D01*
X204871718Y-101573996D01*
X204570996Y-101874718D01*
X204334719Y-102228330D01*
X204171970Y-102621243D01*
X204089000Y-103038357D01*
X196289796Y-103038357D01*
X196245932Y-102817842D01*
X196133990Y-102547589D01*
X195971475Y-102304368D01*
X195764632Y-102097525D01*
X195521411Y-101935010D01*
X195251158Y-101823068D01*
X194964260Y-101766000D01*
X194671740Y-101766000D01*
X194384842Y-101823068D01*
X194114589Y-101935010D01*
X193871368Y-102097525D01*
X193664525Y-102304368D01*
X193548000Y-102478760D01*
X193431475Y-102304368D01*
X193224632Y-102097525D01*
X192981411Y-101935010D01*
X192711158Y-101823068D01*
X192424260Y-101766000D01*
X192131740Y-101766000D01*
X191844842Y-101823068D01*
X191574589Y-101935010D01*
X191331368Y-102097525D01*
X191124525Y-102304368D01*
X191008000Y-102478760D01*
X190891475Y-102304368D01*
X190684632Y-102097525D01*
X190441411Y-101935010D01*
X190171158Y-101823068D01*
X189884260Y-101766000D01*
X189591740Y-101766000D01*
X189304842Y-101823068D01*
X189034589Y-101935010D01*
X188791368Y-102097525D01*
X188584525Y-102304368D01*
X188468000Y-102478760D01*
X188351475Y-102304368D01*
X188144632Y-102097525D01*
X187901411Y-101935010D01*
X187631158Y-101823068D01*
X187344260Y-101766000D01*
X187051740Y-101766000D01*
X186764842Y-101823068D01*
X186494589Y-101935010D01*
X186251368Y-102097525D01*
X186044525Y-102304368D01*
X185928000Y-102478760D01*
X185811475Y-102304368D01*
X185604632Y-102097525D01*
X185361411Y-101935010D01*
X185091158Y-101823068D01*
X184804260Y-101766000D01*
X184511740Y-101766000D01*
X184224842Y-101823068D01*
X183954589Y-101935010D01*
X183711368Y-102097525D01*
X183504525Y-102304368D01*
X183342010Y-102547589D01*
X183230068Y-102817842D01*
X183173000Y-103104740D01*
X151257000Y-103104740D01*
X151257000Y-103038357D01*
X151174030Y-102621243D01*
X151011281Y-102228330D01*
X150775004Y-101874718D01*
X150474282Y-101573996D01*
X150120670Y-101337719D01*
X149727757Y-101174970D01*
X149310643Y-101092000D01*
X148885357Y-101092000D01*
X148468243Y-101174970D01*
X148075330Y-101337719D01*
X147721718Y-101573996D01*
X147420996Y-101874718D01*
X147184719Y-102228330D01*
X147021970Y-102621243D01*
X146939000Y-103038357D01*
X138599820Y-103038357D01*
X138605000Y-103012320D01*
X138605000Y-102727680D01*
X138549470Y-102448509D01*
X138440543Y-102185536D01*
X138282405Y-101948866D01*
X138081134Y-101747595D01*
X137860243Y-101600000D01*
X138081134Y-101452405D01*
X138282405Y-101251134D01*
X138440543Y-101014464D01*
X138549470Y-100751491D01*
X138605000Y-100472320D01*
X138605000Y-100187680D01*
X138549470Y-99908509D01*
X138440543Y-99645536D01*
X138282405Y-99408866D01*
X138081134Y-99207595D01*
X137860243Y-99060000D01*
X138081134Y-98912405D01*
X138282405Y-98711134D01*
X138440543Y-98474464D01*
X138549470Y-98211491D01*
X138605000Y-97932320D01*
X138605000Y-97647680D01*
X138549470Y-97368509D01*
X138440543Y-97105536D01*
X138282405Y-96868866D01*
X138081134Y-96667595D01*
X137860243Y-96520000D01*
X138081134Y-96372405D01*
X138282405Y-96171134D01*
X138440543Y-95934464D01*
X138549470Y-95671491D01*
X138605000Y-95392320D01*
X138605000Y-95107680D01*
X138549470Y-94828509D01*
X138440543Y-94565536D01*
X138282405Y-94328866D01*
X138081134Y-94127595D01*
X137860243Y-93980000D01*
X138081134Y-93832405D01*
X138282405Y-93631134D01*
X138440543Y-93394464D01*
X138488991Y-93277500D01*
X143169047Y-93277500D01*
X143169047Y-90457500D01*
X138576122Y-90457500D01*
X138605000Y-90312320D01*
X138605000Y-90027680D01*
X138549470Y-89748509D01*
X138440543Y-89485536D01*
X138282405Y-89248866D01*
X138081134Y-89047595D01*
X137860243Y-88900000D01*
X138081134Y-88752405D01*
X138282405Y-88551134D01*
X138440543Y-88314464D01*
X138549470Y-88051491D01*
X138605000Y-87772320D01*
X138605000Y-87487680D01*
X138549470Y-87208509D01*
X138440543Y-86945536D01*
X138282405Y-86708866D01*
X138081134Y-86507595D01*
X137860243Y-86360000D01*
X138081134Y-86212405D01*
X138282405Y-86011134D01*
X138440543Y-85774464D01*
X138508838Y-85609586D01*
X138602042Y-85659404D01*
X138757702Y-85706623D01*
X138841437Y-85732024D01*
X138867156Y-85734557D01*
X139028021Y-85750401D01*
X139028027Y-85750401D01*
X139090400Y-85756544D01*
X139152773Y-85750401D01*
X184824226Y-85750401D01*
X184886599Y-85756544D01*
X184948972Y-85750401D01*
X184948979Y-85750401D01*
X185135562Y-85732024D01*
X185374958Y-85659404D01*
X185595587Y-85541476D01*
X185788969Y-85382771D01*
X185828740Y-85334310D01*
X187290136Y-83872915D01*
X187290141Y-83872909D01*
X187549968Y-83613082D01*
X187631158Y-83596932D01*
X187901411Y-83484990D01*
X188144632Y-83322475D01*
X188351475Y-83115632D01*
X188468000Y-82941240D01*
X188584525Y-83115632D01*
X188791368Y-83322475D01*
X189034589Y-83484990D01*
X189304842Y-83596932D01*
X189591740Y-83654000D01*
X189884260Y-83654000D01*
X190171158Y-83596932D01*
X190441411Y-83484990D01*
X190684632Y-83322475D01*
X190891475Y-83115632D01*
X191008000Y-82941240D01*
X191124525Y-83115632D01*
X191331368Y-83322475D01*
X191574589Y-83484990D01*
X191844842Y-83596932D01*
X192131740Y-83654000D01*
X192424260Y-83654000D01*
X192711158Y-83596932D01*
X192981411Y-83484990D01*
X193224632Y-83322475D01*
X193431475Y-83115632D01*
X193548000Y-82941240D01*
X193664525Y-83115632D01*
X193871368Y-83322475D01*
X194114589Y-83484990D01*
X194384842Y-83596932D01*
X194671740Y-83654000D01*
X194964260Y-83654000D01*
X195251158Y-83596932D01*
X195521411Y-83484990D01*
X195764632Y-83322475D01*
X195889710Y-83197397D01*
X196509208Y-83197397D01*
X196586843Y-83446472D01*
X196850883Y-83572371D01*
X197134411Y-83644339D01*
X197426531Y-83659611D01*
X197716019Y-83617599D01*
X197991747Y-83519919D01*
X198129157Y-83446472D01*
X198206792Y-83197397D01*
X197358000Y-82348605D01*
X196509208Y-83197397D01*
X195889710Y-83197397D01*
X195971475Y-83115632D01*
X196087311Y-82942271D01*
X196329603Y-83017792D01*
X197178395Y-82169000D01*
X196329603Y-81320208D01*
X196087311Y-81395729D01*
X195971475Y-81222368D01*
X195889710Y-81140603D01*
X196509208Y-81140603D01*
X197358000Y-81989395D01*
X198206792Y-81140603D01*
X198129157Y-80891528D01*
X197865117Y-80765629D01*
X197581589Y-80693661D01*
X197289469Y-80678389D01*
X196999981Y-80720401D01*
X196724253Y-80818081D01*
X196586843Y-80891528D01*
X196509208Y-81140603D01*
X195889710Y-81140603D01*
X195764632Y-81015525D01*
X195521411Y-80853010D01*
X195251158Y-80741068D01*
X194964260Y-80684000D01*
X194671740Y-80684000D01*
X194384842Y-80741068D01*
X194114589Y-80853010D01*
X193871368Y-81015525D01*
X193664525Y-81222368D01*
X193548000Y-81396760D01*
X193431475Y-81222368D01*
X193224632Y-81015525D01*
X192981411Y-80853010D01*
X192711158Y-80741068D01*
X192424260Y-80684000D01*
X192131740Y-80684000D01*
X191844842Y-80741068D01*
X191574589Y-80853010D01*
X191331368Y-81015525D01*
X191124525Y-81222368D01*
X191008000Y-81396760D01*
X190891475Y-81222368D01*
X190684632Y-81015525D01*
X190441411Y-80853010D01*
X190171158Y-80741068D01*
X189884260Y-80684000D01*
X189591740Y-80684000D01*
X189304842Y-80741068D01*
X189034589Y-80853010D01*
X188791368Y-81015525D01*
X188584525Y-81222368D01*
X188468000Y-81396760D01*
X188351475Y-81222368D01*
X188144632Y-81015525D01*
X187901411Y-80853010D01*
X187631158Y-80741068D01*
X187344260Y-80684000D01*
X187051740Y-80684000D01*
X186764842Y-80741068D01*
X186494589Y-80853010D01*
X186251368Y-81015525D01*
X186044525Y-81222368D01*
X185928000Y-81396760D01*
X185811475Y-81222368D01*
X185604632Y-81015525D01*
X185361411Y-80853010D01*
X185091158Y-80741068D01*
X184804260Y-80684000D01*
X184511740Y-80684000D01*
X184224842Y-80741068D01*
X183954589Y-80853010D01*
X183711368Y-81015525D01*
X183504525Y-81222368D01*
X183388000Y-81396760D01*
X183271475Y-81222368D01*
X183064632Y-81015525D01*
X182821411Y-80853010D01*
X182551158Y-80741068D01*
X182469968Y-80724918D01*
X182210145Y-80465095D01*
X182210136Y-80465084D01*
X181534924Y-79789872D01*
X210490000Y-79789872D01*
X210490000Y-80230128D01*
X210575890Y-80661925D01*
X210744369Y-81068669D01*
X210988962Y-81434729D01*
X211300271Y-81746038D01*
X211666331Y-81990631D01*
X212073075Y-82159110D01*
X212504872Y-82245000D01*
X212945128Y-82245000D01*
X213376925Y-82159110D01*
X213783669Y-81990631D01*
X214149729Y-81746038D01*
X214461038Y-81434729D01*
X214705631Y-81068669D01*
X214874110Y-80661925D01*
X214960000Y-80230128D01*
X214960000Y-79789872D01*
X214874110Y-79358075D01*
X214705631Y-78951331D01*
X214461038Y-78585271D01*
X214149729Y-78273962D01*
X213783669Y-78029369D01*
X213376925Y-77860890D01*
X212945128Y-77775000D01*
X212504872Y-77775000D01*
X212073075Y-77860890D01*
X211666331Y-78029369D01*
X211300271Y-78273962D01*
X210988962Y-78585271D01*
X210744369Y-78951331D01*
X210575890Y-79358075D01*
X210490000Y-79789872D01*
X181534924Y-79789872D01*
X178605050Y-76860000D01*
X217335619Y-76860000D01*
X217335619Y-78943842D01*
G36*
X140894369Y-78951331D02*
G01*
X140725890Y-79358075D01*
X140640000Y-79789872D01*
X140640000Y-80230128D01*
X140725890Y-80661925D01*
X140894369Y-81068669D01*
X141138962Y-81434729D01*
X141450271Y-81746038D01*
X141816331Y-81990631D01*
X142223075Y-82159110D01*
X142654872Y-82245000D01*
X143095128Y-82245000D01*
X143526925Y-82159110D01*
X143933669Y-81990631D01*
X144299729Y-81746038D01*
X144611038Y-81434729D01*
X144855631Y-81068669D01*
X145024110Y-80661925D01*
X145110000Y-80230128D01*
X145110000Y-79789872D01*
X145024110Y-79358075D01*
X144855631Y-78951331D01*
X144816388Y-78892599D01*
X177045549Y-78892599D01*
X178967482Y-80814533D01*
X178874589Y-80853010D01*
X178631368Y-81015525D01*
X178424525Y-81222368D01*
X178308000Y-81396760D01*
X178191475Y-81222368D01*
X177984632Y-81015525D01*
X177741411Y-80853010D01*
X177471158Y-80741068D01*
X177184260Y-80684000D01*
X176891740Y-80684000D01*
X176604842Y-80741068D01*
X176334589Y-80853010D01*
X176091368Y-81015525D01*
X175884525Y-81222368D01*
X175722010Y-81465589D01*
X175610068Y-81735842D01*
X175553000Y-82022740D01*
X175553000Y-82315260D01*
X175610068Y-82602158D01*
X175722010Y-82872411D01*
X175884525Y-83115632D01*
X175979294Y-83210401D01*
X150998765Y-83210401D01*
X151011281Y-83191670D01*
X151174030Y-82798757D01*
X151257000Y-82381643D01*
X151257000Y-81956357D01*
X151174030Y-81539243D01*
X151011281Y-81146330D01*
X150775004Y-80792718D01*
X150474282Y-80491996D01*
X150120670Y-80255719D01*
X149727757Y-80092970D01*
X149310643Y-80010000D01*
X148885357Y-80010000D01*
X148468243Y-80092970D01*
X148075330Y-80255719D01*
X147721718Y-80491996D01*
X147420996Y-80792718D01*
X147184719Y-81146330D01*
X147021970Y-81539243D01*
X146939000Y-81956357D01*
X146939000Y-82381643D01*
X147021970Y-82798757D01*
X147184719Y-83191670D01*
X147197235Y-83210401D01*
X139616452Y-83210401D01*
X138553172Y-82147122D01*
X138549470Y-82128509D01*
X138440543Y-81865536D01*
X138282405Y-81628866D01*
X138081134Y-81427595D01*
X137860294Y-81280034D01*
X137907444Y-81254832D01*
X137980238Y-81009843D01*
X137160000Y-80189605D01*
X137145858Y-80203748D01*
X136966253Y-80024143D01*
X136980395Y-80010000D01*
X137339605Y-80010000D01*
X138159843Y-80830238D01*
X138404832Y-80757444D01*
X138526733Y-80500227D01*
X138596110Y-80224171D01*
X138610298Y-79939885D01*
X138568752Y-79658294D01*
X138473068Y-79390217D01*
X138404832Y-79262556D01*
X138159843Y-79189762D01*
X137339605Y-80010000D01*
X136980395Y-80010000D01*
X136966253Y-79995858D01*
X137145858Y-79816253D01*
X137160000Y-79830395D01*
X137980238Y-79010157D01*
X137945308Y-78892599D01*
X140933612Y-78892599D01*
X140894369Y-78951331D01*
X140894369Y-78951331D01*
G37*
X140894369Y-78951331D02*
X140725890Y-79358075D01*
X140640000Y-79789872D01*
X140640000Y-80230128D01*
X140725890Y-80661925D01*
X140894369Y-81068669D01*
X141138962Y-81434729D01*
X141450271Y-81746038D01*
X141816331Y-81990631D01*
X142223075Y-82159110D01*
X142654872Y-82245000D01*
X143095128Y-82245000D01*
X143526925Y-82159110D01*
X143933669Y-81990631D01*
X144299729Y-81746038D01*
X144611038Y-81434729D01*
X144855631Y-81068669D01*
X145024110Y-80661925D01*
X145110000Y-80230128D01*
X145110000Y-79789872D01*
X145024110Y-79358075D01*
X144855631Y-78951331D01*
X144816388Y-78892599D01*
X177045549Y-78892599D01*
X178967482Y-80814533D01*
X178874589Y-80853010D01*
X178631368Y-81015525D01*
X178424525Y-81222368D01*
X178308000Y-81396760D01*
X178191475Y-81222368D01*
X177984632Y-81015525D01*
X177741411Y-80853010D01*
X177471158Y-80741068D01*
X177184260Y-80684000D01*
X176891740Y-80684000D01*
X176604842Y-80741068D01*
X176334589Y-80853010D01*
X176091368Y-81015525D01*
X175884525Y-81222368D01*
X175722010Y-81465589D01*
X175610068Y-81735842D01*
X175553000Y-82022740D01*
X175553000Y-82315260D01*
X175610068Y-82602158D01*
X175722010Y-82872411D01*
X175884525Y-83115632D01*
X175979294Y-83210401D01*
X150998765Y-83210401D01*
X151011281Y-83191670D01*
X151174030Y-82798757D01*
X151257000Y-82381643D01*
X151257000Y-81956357D01*
X151174030Y-81539243D01*
X151011281Y-81146330D01*
X150775004Y-80792718D01*
X150474282Y-80491996D01*
X150120670Y-80255719D01*
X149727757Y-80092970D01*
X149310643Y-80010000D01*
X148885357Y-80010000D01*
X148468243Y-80092970D01*
X148075330Y-80255719D01*
X147721718Y-80491996D01*
X147420996Y-80792718D01*
X147184719Y-81146330D01*
X147021970Y-81539243D01*
X146939000Y-81956357D01*
X146939000Y-82381643D01*
X147021970Y-82798757D01*
X147184719Y-83191670D01*
X147197235Y-83210401D01*
X139616452Y-83210401D01*
X138553172Y-82147122D01*
X138549470Y-82128509D01*
X138440543Y-81865536D01*
X138282405Y-81628866D01*
X138081134Y-81427595D01*
X137860294Y-81280034D01*
X137907444Y-81254832D01*
X137980238Y-81009843D01*
X137160000Y-80189605D01*
X137145858Y-80203748D01*
X136966253Y-80024143D01*
X136980395Y-80010000D01*
X137339605Y-80010000D01*
X138159843Y-80830238D01*
X138404832Y-80757444D01*
X138526733Y-80500227D01*
X138596110Y-80224171D01*
X138610298Y-79939885D01*
X138568752Y-79658294D01*
X138473068Y-79390217D01*
X138404832Y-79262556D01*
X138159843Y-79189762D01*
X137339605Y-80010000D01*
X136980395Y-80010000D01*
X136966253Y-79995858D01*
X137145858Y-79816253D01*
X137160000Y-79830395D01*
X137980238Y-79010157D01*
X137945308Y-78892599D01*
X140933612Y-78892599D01*
X140894369Y-78951331D01*
M02*
