M48
; DRILL file {KiCad (5.1.2)-1} date 10/29/2019 3:10:59 PM
; FORMAT={-:-/ absolute / inch / decimal}
; #@! TF.CreationDate,2019-10-29T15:10:59-05:00
; #@! TF.GenerationSoftware,Kicad,Pcbnew,(5.1.2)-1
; #@! TF.FileFunction,Plated,1,2,PTH
FMAT,2
INCH
T1C0.0394
T2C0.0402
%
G90
G05
T1
X6.97Y-3.235
X7.07Y-3.235
X7.17Y-3.235
X7.27Y-3.235
X7.27Y-4.065
X7.37Y-3.235
X7.37Y-4.065
X7.47Y-3.235
X7.47Y-4.065
X7.57Y-3.235
X7.57Y-4.065
X7.67Y-3.235
X7.67Y-4.065
X7.77Y-3.235
X7.87Y-3.235
T2
X5.4Y-3.15
X5.4Y-3.25
X5.4Y-3.35
X5.4Y-3.45
X5.4Y-3.55
X5.4Y-3.65
X5.4Y-3.75
X5.4Y-3.85
X5.4Y-3.95
X5.4Y-4.05
X5.4Y-4.15
X8.595Y-3.15
X8.595Y-3.25
X8.595Y-3.35
X8.595Y-3.45
X8.595Y-3.55
X8.595Y-3.65
X8.595Y-3.75
X8.595Y-3.85
X8.595Y-3.95
X8.595Y-4.05
X8.595Y-4.15
T0
M30
