G04 #@! TF.GenerationSoftware,KiCad,Pcbnew,(5.1.5)-3*
G04 #@! TF.CreationDate,2020-09-11T08:26:04-05:00*
G04 #@! TF.ProjectId,laser_driver,6c617365-725f-4647-9269-7665722e6b69,4.1*
G04 #@! TF.SameCoordinates,Original*
G04 #@! TF.FileFunction,Soldermask,Top*
G04 #@! TF.FilePolarity,Negative*
%FSLAX46Y46*%
G04 Gerber Fmt 4.6, Leading zero omitted, Abs format (unit mm)*
G04 Created by KiCad (PCBNEW (5.1.5)-3) date 2020-09-11 08:26:04*
%MOMM*%
%LPD*%
G04 APERTURE LIST*
%ADD10C,0.100000*%
G04 APERTURE END LIST*
D10*
X194028000Y-105410000D02*
G75*
G03X194028000Y-105410000I-861000J0D01*
G01*
X194028000Y-102870000D02*
G75*
G03X194028000Y-102870000I-861000J0D01*
G01*
X194028000Y-100330000D02*
G75*
G03X194028000Y-100330000I-861000J0D01*
G01*
X194028000Y-97790000D02*
G75*
G03X194028000Y-97790000I-861000J0D01*
G01*
X194028000Y-95250000D02*
G75*
G03X194028000Y-95250000I-861000J0D01*
G01*
X194028000Y-92710000D02*
G75*
G03X194028000Y-92710000I-861000J0D01*
G01*
X194028000Y-90170000D02*
G75*
G03X194028000Y-90170000I-861000J0D01*
G01*
X194028000Y-87630000D02*
G75*
G03X194028000Y-87630000I-861000J0D01*
G01*
X194028000Y-85090000D02*
G75*
G03X194028000Y-85090000I-861000J0D01*
G01*
X194028000Y-82550000D02*
G75*
G03X194028000Y-82550000I-861000J0D01*
G01*
X194028000Y-80010000D02*
G75*
G03X194028000Y-80010000I-861000J0D01*
G01*
X137894000Y-105410000D02*
G75*
G03X137894000Y-105410000I-861000J0D01*
G01*
X137894000Y-102870000D02*
G75*
G03X137894000Y-102870000I-861000J0D01*
G01*
X137894000Y-100330000D02*
G75*
G03X137894000Y-100330000I-861000J0D01*
G01*
X137894000Y-97790000D02*
G75*
G03X137894000Y-97790000I-861000J0D01*
G01*
X137894000Y-95250000D02*
G75*
G03X137894000Y-95250000I-861000J0D01*
G01*
X137894000Y-92710000D02*
G75*
G03X137894000Y-92710000I-861000J0D01*
G01*
X137894000Y-90170000D02*
G75*
G03X137894000Y-90170000I-861000J0D01*
G01*
X137894000Y-87630000D02*
G75*
G03X137894000Y-87630000I-861000J0D01*
G01*
X137894000Y-85090000D02*
G75*
G03X137894000Y-85090000I-861000J0D01*
G01*
X137894000Y-82550000D02*
G75*
G03X137894000Y-82550000I-861000J0D01*
G01*
X137894000Y-80010000D02*
G75*
G03X137894000Y-80010000I-861000J0D01*
G01*
G36*
X187700256Y-103801298D02*
G01*
X187806579Y-103822447D01*
X188107042Y-103946903D01*
X188377451Y-104127585D01*
X188607415Y-104357549D01*
X188788097Y-104627958D01*
X188788098Y-104627960D01*
X188912553Y-104928422D01*
X188976000Y-105247389D01*
X188976000Y-105572611D01*
X188933702Y-105785256D01*
X188912553Y-105891579D01*
X188788097Y-106192042D01*
X188607415Y-106462451D01*
X188377451Y-106692415D01*
X188107042Y-106873097D01*
X187806579Y-106997553D01*
X187700256Y-107018702D01*
X187487611Y-107061000D01*
X187162389Y-107061000D01*
X186949744Y-107018702D01*
X186843421Y-106997553D01*
X186542958Y-106873097D01*
X186272549Y-106692415D01*
X186042585Y-106462451D01*
X185861903Y-106192042D01*
X185737447Y-105891579D01*
X185716298Y-105785256D01*
X185674000Y-105572611D01*
X185674000Y-105247389D01*
X185737447Y-104928422D01*
X185861902Y-104627960D01*
X185861903Y-104627958D01*
X186042585Y-104357549D01*
X186272549Y-104127585D01*
X186542958Y-103946903D01*
X186843421Y-103822447D01*
X186949744Y-103801298D01*
X187162389Y-103759000D01*
X187487611Y-103759000D01*
X187700256Y-103801298D01*
G37*
G36*
X143250256Y-103801298D02*
G01*
X143356579Y-103822447D01*
X143657042Y-103946903D01*
X143927451Y-104127585D01*
X144157415Y-104357549D01*
X144338097Y-104627958D01*
X144338098Y-104627960D01*
X144462553Y-104928422D01*
X144526000Y-105247389D01*
X144526000Y-105572611D01*
X144483702Y-105785256D01*
X144462553Y-105891579D01*
X144338097Y-106192042D01*
X144157415Y-106462451D01*
X143927451Y-106692415D01*
X143657042Y-106873097D01*
X143356579Y-106997553D01*
X143250256Y-107018702D01*
X143037611Y-107061000D01*
X142712389Y-107061000D01*
X142499744Y-107018702D01*
X142393421Y-106997553D01*
X142092958Y-106873097D01*
X141822549Y-106692415D01*
X141592585Y-106462451D01*
X141411903Y-106192042D01*
X141287447Y-105891579D01*
X141266298Y-105785256D01*
X141224000Y-105572611D01*
X141224000Y-105247389D01*
X141287447Y-104928422D01*
X141411902Y-104627960D01*
X141411903Y-104627958D01*
X141592585Y-104357549D01*
X141822549Y-104127585D01*
X142092958Y-103946903D01*
X142393421Y-103822447D01*
X142499744Y-103801298D01*
X142712389Y-103759000D01*
X143037611Y-103759000D01*
X143250256Y-103801298D01*
G37*
G36*
X154572072Y-104110918D02*
G01*
X154612308Y-104127584D01*
X154817939Y-104212759D01*
X154929328Y-104287187D01*
X155039211Y-104360609D01*
X155227391Y-104548789D01*
X155293008Y-104646992D01*
X155355969Y-104741218D01*
X155375242Y-104770063D01*
X155477082Y-105015928D01*
X155529000Y-105276937D01*
X155529000Y-105543063D01*
X155505512Y-105661143D01*
X155477082Y-105804072D01*
X155375241Y-106049939D01*
X155300813Y-106161328D01*
X155280292Y-106192040D01*
X155227390Y-106271212D01*
X155039212Y-106459390D01*
X154817939Y-106607241D01*
X154817938Y-106607242D01*
X154817937Y-106607242D01*
X154572072Y-106709082D01*
X154311063Y-106761000D01*
X154044937Y-106761000D01*
X153783928Y-106709082D01*
X153538063Y-106607242D01*
X153538062Y-106607242D01*
X153538061Y-106607241D01*
X153316788Y-106459390D01*
X153128610Y-106271212D01*
X153075709Y-106192040D01*
X153055187Y-106161328D01*
X152980759Y-106049939D01*
X152878918Y-105804072D01*
X152850488Y-105661143D01*
X152827000Y-105543063D01*
X152827000Y-105276937D01*
X152878918Y-105015928D01*
X152980758Y-104770063D01*
X153000032Y-104741218D01*
X153062992Y-104646992D01*
X153128609Y-104548789D01*
X153316789Y-104360609D01*
X153426672Y-104287187D01*
X153538061Y-104212759D01*
X153743693Y-104127584D01*
X153783928Y-104110918D01*
X154044937Y-104059000D01*
X154311063Y-104059000D01*
X154572072Y-104110918D01*
G37*
G36*
X162192072Y-104110918D02*
G01*
X162232308Y-104127584D01*
X162437939Y-104212759D01*
X162549328Y-104287187D01*
X162659211Y-104360609D01*
X162847391Y-104548789D01*
X162913008Y-104646992D01*
X162975969Y-104741218D01*
X162995242Y-104770063D01*
X163097082Y-105015928D01*
X163149000Y-105276937D01*
X163149000Y-105543063D01*
X163125512Y-105661143D01*
X163097082Y-105804072D01*
X162995241Y-106049939D01*
X162920813Y-106161328D01*
X162900292Y-106192040D01*
X162847390Y-106271212D01*
X162659212Y-106459390D01*
X162437939Y-106607241D01*
X162437938Y-106607242D01*
X162437937Y-106607242D01*
X162192072Y-106709082D01*
X161931063Y-106761000D01*
X161664937Y-106761000D01*
X161403928Y-106709082D01*
X161158063Y-106607242D01*
X161158062Y-106607242D01*
X161158061Y-106607241D01*
X160936788Y-106459390D01*
X160748610Y-106271212D01*
X160695709Y-106192040D01*
X160675187Y-106161328D01*
X160600759Y-106049939D01*
X160498918Y-105804072D01*
X160470488Y-105661143D01*
X160447000Y-105543063D01*
X160447000Y-105276937D01*
X160498918Y-105015928D01*
X160600758Y-104770063D01*
X160620032Y-104741218D01*
X160682992Y-104646992D01*
X160748609Y-104548789D01*
X160936789Y-104360609D01*
X161046672Y-104287187D01*
X161158061Y-104212759D01*
X161363693Y-104127584D01*
X161403928Y-104110918D01*
X161664937Y-104059000D01*
X161931063Y-104059000D01*
X162192072Y-104110918D01*
G37*
G36*
X193418143Y-104582087D02*
G01*
X193574838Y-104646992D01*
X193715853Y-104741215D01*
X193835785Y-104861147D01*
X193930008Y-105002162D01*
X193994913Y-105158857D01*
X194028000Y-105325198D01*
X194028000Y-105494802D01*
X193994913Y-105661143D01*
X193930008Y-105817838D01*
X193835785Y-105958853D01*
X193715853Y-106078785D01*
X193574838Y-106173008D01*
X193418143Y-106237913D01*
X193251802Y-106271000D01*
X193082198Y-106271000D01*
X192915857Y-106237913D01*
X192759162Y-106173008D01*
X192618147Y-106078785D01*
X192498215Y-105958853D01*
X192403992Y-105817838D01*
X192339087Y-105661143D01*
X192306000Y-105494802D01*
X192306000Y-105325198D01*
X192339087Y-105158857D01*
X192403992Y-105002162D01*
X192498215Y-104861147D01*
X192618147Y-104741215D01*
X192759162Y-104646992D01*
X192915857Y-104582087D01*
X193082198Y-104549000D01*
X193251802Y-104549000D01*
X193418143Y-104582087D01*
G37*
G36*
X137284143Y-104582087D02*
G01*
X137440838Y-104646992D01*
X137581853Y-104741215D01*
X137701785Y-104861147D01*
X137796008Y-105002162D01*
X137860913Y-105158857D01*
X137894000Y-105325198D01*
X137894000Y-105494802D01*
X137860913Y-105661143D01*
X137796008Y-105817838D01*
X137701785Y-105958853D01*
X137581853Y-106078785D01*
X137440838Y-106173008D01*
X137284143Y-106237913D01*
X137117802Y-106271000D01*
X136948198Y-106271000D01*
X136781857Y-106237913D01*
X136625162Y-106173008D01*
X136484147Y-106078785D01*
X136364215Y-105958853D01*
X136269992Y-105817838D01*
X136205087Y-105661143D01*
X136172000Y-105494802D01*
X136172000Y-105325198D01*
X136205087Y-105158857D01*
X136269992Y-105002162D01*
X136364215Y-104861147D01*
X136484147Y-104741215D01*
X136625162Y-104646992D01*
X136781857Y-104582087D01*
X136948198Y-104549000D01*
X137117802Y-104549000D01*
X137284143Y-104582087D01*
G37*
G36*
X193418143Y-102042087D02*
G01*
X193574838Y-102106992D01*
X193715853Y-102201215D01*
X193835785Y-102321147D01*
X193930008Y-102462162D01*
X193994913Y-102618857D01*
X194028000Y-102785198D01*
X194028000Y-102954802D01*
X193994913Y-103121143D01*
X193930008Y-103277838D01*
X193835785Y-103418853D01*
X193715853Y-103538785D01*
X193574838Y-103633008D01*
X193418143Y-103697913D01*
X193251802Y-103731000D01*
X193082198Y-103731000D01*
X192915857Y-103697913D01*
X192759162Y-103633008D01*
X192618147Y-103538785D01*
X192498215Y-103418853D01*
X192403992Y-103277838D01*
X192339087Y-103121143D01*
X192306000Y-102954802D01*
X192306000Y-102785198D01*
X192339087Y-102618857D01*
X192403992Y-102462162D01*
X192498215Y-102321147D01*
X192618147Y-102201215D01*
X192759162Y-102106992D01*
X192915857Y-102042087D01*
X193082198Y-102009000D01*
X193251802Y-102009000D01*
X193418143Y-102042087D01*
G37*
G36*
X137284143Y-102042087D02*
G01*
X137440838Y-102106992D01*
X137581853Y-102201215D01*
X137701785Y-102321147D01*
X137796008Y-102462162D01*
X137860913Y-102618857D01*
X137894000Y-102785198D01*
X137894000Y-102954802D01*
X137860913Y-103121143D01*
X137796008Y-103277838D01*
X137701785Y-103418853D01*
X137581853Y-103538785D01*
X137440838Y-103633008D01*
X137284143Y-103697913D01*
X137117802Y-103731000D01*
X136948198Y-103731000D01*
X136781857Y-103697913D01*
X136625162Y-103633008D01*
X136484147Y-103538785D01*
X136364215Y-103418853D01*
X136269992Y-103277838D01*
X136205087Y-103121143D01*
X136172000Y-102954802D01*
X136172000Y-102785198D01*
X136205087Y-102618857D01*
X136269992Y-102462162D01*
X136364215Y-102321147D01*
X136484147Y-102201215D01*
X136625162Y-102106992D01*
X136781857Y-102042087D01*
X136948198Y-102009000D01*
X137117802Y-102009000D01*
X137284143Y-102042087D01*
G37*
G36*
X148856000Y-101231000D02*
G01*
X147054000Y-101231000D01*
X147054000Y-99429000D01*
X148856000Y-99429000D01*
X148856000Y-101231000D01*
G37*
G36*
X182892000Y-101231000D02*
G01*
X181090000Y-101231000D01*
X181090000Y-99429000D01*
X182892000Y-99429000D01*
X182892000Y-101231000D01*
G37*
G36*
X137284143Y-99502087D02*
G01*
X137440838Y-99566992D01*
X137581853Y-99661215D01*
X137701785Y-99781147D01*
X137796008Y-99922162D01*
X137860913Y-100078857D01*
X137894000Y-100245198D01*
X137894000Y-100414802D01*
X137860913Y-100581143D01*
X137796008Y-100737838D01*
X137701785Y-100878853D01*
X137581853Y-100998785D01*
X137440838Y-101093008D01*
X137284143Y-101157913D01*
X137117802Y-101191000D01*
X136948198Y-101191000D01*
X136781857Y-101157913D01*
X136625162Y-101093008D01*
X136484147Y-100998785D01*
X136364215Y-100878853D01*
X136269992Y-100737838D01*
X136205087Y-100581143D01*
X136172000Y-100414802D01*
X136172000Y-100245198D01*
X136205087Y-100078857D01*
X136269992Y-99922162D01*
X136364215Y-99781147D01*
X136484147Y-99661215D01*
X136625162Y-99566992D01*
X136781857Y-99502087D01*
X136948198Y-99469000D01*
X137117802Y-99469000D01*
X137284143Y-99502087D01*
G37*
G36*
X193418143Y-99502087D02*
G01*
X193574838Y-99566992D01*
X193715853Y-99661215D01*
X193835785Y-99781147D01*
X193930008Y-99922162D01*
X193994913Y-100078857D01*
X194028000Y-100245198D01*
X194028000Y-100414802D01*
X193994913Y-100581143D01*
X193930008Y-100737838D01*
X193835785Y-100878853D01*
X193715853Y-100998785D01*
X193574838Y-101093008D01*
X193418143Y-101157913D01*
X193251802Y-101191000D01*
X193082198Y-101191000D01*
X192915857Y-101157913D01*
X192759162Y-101093008D01*
X192618147Y-100998785D01*
X192498215Y-100878853D01*
X192403992Y-100737838D01*
X192339087Y-100581143D01*
X192306000Y-100414802D01*
X192306000Y-100245198D01*
X192339087Y-100078857D01*
X192403992Y-99922162D01*
X192498215Y-99781147D01*
X192618147Y-99661215D01*
X192759162Y-99566992D01*
X192915857Y-99502087D01*
X193082198Y-99469000D01*
X193251802Y-99469000D01*
X193418143Y-99502087D01*
G37*
G36*
X182104512Y-96893927D02*
G01*
X182253812Y-96923624D01*
X182417784Y-96991544D01*
X182565354Y-97090147D01*
X182690853Y-97215646D01*
X182789456Y-97363216D01*
X182857376Y-97527188D01*
X182892000Y-97701259D01*
X182892000Y-97878741D01*
X182857376Y-98052812D01*
X182789456Y-98216784D01*
X182690853Y-98364354D01*
X182565354Y-98489853D01*
X182417784Y-98588456D01*
X182253812Y-98656376D01*
X182104512Y-98686073D01*
X182079742Y-98691000D01*
X181902258Y-98691000D01*
X181877488Y-98686073D01*
X181728188Y-98656376D01*
X181564216Y-98588456D01*
X181416646Y-98489853D01*
X181291147Y-98364354D01*
X181192544Y-98216784D01*
X181124624Y-98052812D01*
X181090000Y-97878741D01*
X181090000Y-97701259D01*
X181124624Y-97527188D01*
X181192544Y-97363216D01*
X181291147Y-97215646D01*
X181416646Y-97090147D01*
X181564216Y-96991544D01*
X181728188Y-96923624D01*
X181877488Y-96893927D01*
X181902258Y-96889000D01*
X182079742Y-96889000D01*
X182104512Y-96893927D01*
G37*
G36*
X148068512Y-96893927D02*
G01*
X148217812Y-96923624D01*
X148381784Y-96991544D01*
X148529354Y-97090147D01*
X148654853Y-97215646D01*
X148753456Y-97363216D01*
X148821376Y-97527188D01*
X148856000Y-97701259D01*
X148856000Y-97878741D01*
X148821376Y-98052812D01*
X148753456Y-98216784D01*
X148654853Y-98364354D01*
X148529354Y-98489853D01*
X148381784Y-98588456D01*
X148217812Y-98656376D01*
X148068512Y-98686073D01*
X148043742Y-98691000D01*
X147866258Y-98691000D01*
X147841488Y-98686073D01*
X147692188Y-98656376D01*
X147528216Y-98588456D01*
X147380646Y-98489853D01*
X147255147Y-98364354D01*
X147156544Y-98216784D01*
X147088624Y-98052812D01*
X147054000Y-97878741D01*
X147054000Y-97701259D01*
X147088624Y-97527188D01*
X147156544Y-97363216D01*
X147255147Y-97215646D01*
X147380646Y-97090147D01*
X147528216Y-96991544D01*
X147692188Y-96923624D01*
X147841488Y-96893927D01*
X147866258Y-96889000D01*
X148043742Y-96889000D01*
X148068512Y-96893927D01*
G37*
G36*
X193418143Y-96962087D02*
G01*
X193574838Y-97026992D01*
X193715853Y-97121215D01*
X193835785Y-97241147D01*
X193930008Y-97382162D01*
X193994913Y-97538857D01*
X194028000Y-97705198D01*
X194028000Y-97874802D01*
X193994913Y-98041143D01*
X193930008Y-98197838D01*
X193835785Y-98338853D01*
X193715853Y-98458785D01*
X193574838Y-98553008D01*
X193418143Y-98617913D01*
X193251802Y-98651000D01*
X193082198Y-98651000D01*
X192915857Y-98617913D01*
X192759162Y-98553008D01*
X192618147Y-98458785D01*
X192498215Y-98338853D01*
X192403992Y-98197838D01*
X192339087Y-98041143D01*
X192306000Y-97874802D01*
X192306000Y-97705198D01*
X192339087Y-97538857D01*
X192403992Y-97382162D01*
X192498215Y-97241147D01*
X192618147Y-97121215D01*
X192759162Y-97026992D01*
X192915857Y-96962087D01*
X193082198Y-96929000D01*
X193251802Y-96929000D01*
X193418143Y-96962087D01*
G37*
G36*
X137284143Y-96962087D02*
G01*
X137440838Y-97026992D01*
X137581853Y-97121215D01*
X137701785Y-97241147D01*
X137796008Y-97382162D01*
X137860913Y-97538857D01*
X137894000Y-97705198D01*
X137894000Y-97874802D01*
X137860913Y-98041143D01*
X137796008Y-98197838D01*
X137701785Y-98338853D01*
X137581853Y-98458785D01*
X137440838Y-98553008D01*
X137284143Y-98617913D01*
X137117802Y-98651000D01*
X136948198Y-98651000D01*
X136781857Y-98617913D01*
X136625162Y-98553008D01*
X136484147Y-98458785D01*
X136364215Y-98338853D01*
X136269992Y-98197838D01*
X136205087Y-98041143D01*
X136172000Y-97874802D01*
X136172000Y-97705198D01*
X136205087Y-97538857D01*
X136269992Y-97382162D01*
X136364215Y-97241147D01*
X136484147Y-97121215D01*
X136625162Y-97026992D01*
X136781857Y-96962087D01*
X136948198Y-96929000D01*
X137117802Y-96929000D01*
X137284143Y-96962087D01*
G37*
G36*
X182104512Y-94353927D02*
G01*
X182253812Y-94383624D01*
X182417784Y-94451544D01*
X182565354Y-94550147D01*
X182690853Y-94675646D01*
X182789456Y-94823216D01*
X182857376Y-94987188D01*
X182892000Y-95161259D01*
X182892000Y-95338741D01*
X182857376Y-95512812D01*
X182789456Y-95676784D01*
X182690853Y-95824354D01*
X182565354Y-95949853D01*
X182417784Y-96048456D01*
X182253812Y-96116376D01*
X182104512Y-96146073D01*
X182079742Y-96151000D01*
X181902258Y-96151000D01*
X181877488Y-96146073D01*
X181728188Y-96116376D01*
X181564216Y-96048456D01*
X181416646Y-95949853D01*
X181291147Y-95824354D01*
X181192544Y-95676784D01*
X181124624Y-95512812D01*
X181090000Y-95338741D01*
X181090000Y-95161259D01*
X181124624Y-94987188D01*
X181192544Y-94823216D01*
X181291147Y-94675646D01*
X181416646Y-94550147D01*
X181564216Y-94451544D01*
X181728188Y-94383624D01*
X181877488Y-94353927D01*
X181902258Y-94349000D01*
X182079742Y-94349000D01*
X182104512Y-94353927D01*
G37*
G36*
X148068512Y-94353927D02*
G01*
X148217812Y-94383624D01*
X148381784Y-94451544D01*
X148529354Y-94550147D01*
X148654853Y-94675646D01*
X148753456Y-94823216D01*
X148821376Y-94987188D01*
X148856000Y-95161259D01*
X148856000Y-95338741D01*
X148821376Y-95512812D01*
X148753456Y-95676784D01*
X148654853Y-95824354D01*
X148529354Y-95949853D01*
X148381784Y-96048456D01*
X148217812Y-96116376D01*
X148068512Y-96146073D01*
X148043742Y-96151000D01*
X147866258Y-96151000D01*
X147841488Y-96146073D01*
X147692188Y-96116376D01*
X147528216Y-96048456D01*
X147380646Y-95949853D01*
X147255147Y-95824354D01*
X147156544Y-95676784D01*
X147088624Y-95512812D01*
X147054000Y-95338741D01*
X147054000Y-95161259D01*
X147088624Y-94987188D01*
X147156544Y-94823216D01*
X147255147Y-94675646D01*
X147380646Y-94550147D01*
X147528216Y-94451544D01*
X147692188Y-94383624D01*
X147841488Y-94353927D01*
X147866258Y-94349000D01*
X148043742Y-94349000D01*
X148068512Y-94353927D01*
G37*
G36*
X193418143Y-94422087D02*
G01*
X193574838Y-94486992D01*
X193715853Y-94581215D01*
X193835785Y-94701147D01*
X193930008Y-94842162D01*
X193994913Y-94998857D01*
X194028000Y-95165198D01*
X194028000Y-95334802D01*
X193994913Y-95501143D01*
X193930008Y-95657838D01*
X193835785Y-95798853D01*
X193715853Y-95918785D01*
X193574838Y-96013008D01*
X193418143Y-96077913D01*
X193251802Y-96111000D01*
X193082198Y-96111000D01*
X192915857Y-96077913D01*
X192759162Y-96013008D01*
X192618147Y-95918785D01*
X192498215Y-95798853D01*
X192403992Y-95657838D01*
X192339087Y-95501143D01*
X192306000Y-95334802D01*
X192306000Y-95165198D01*
X192339087Y-94998857D01*
X192403992Y-94842162D01*
X192498215Y-94701147D01*
X192618147Y-94581215D01*
X192759162Y-94486992D01*
X192915857Y-94422087D01*
X193082198Y-94389000D01*
X193251802Y-94389000D01*
X193418143Y-94422087D01*
G37*
G36*
X137284143Y-94422087D02*
G01*
X137440838Y-94486992D01*
X137581853Y-94581215D01*
X137701785Y-94701147D01*
X137796008Y-94842162D01*
X137860913Y-94998857D01*
X137894000Y-95165198D01*
X137894000Y-95334802D01*
X137860913Y-95501143D01*
X137796008Y-95657838D01*
X137701785Y-95798853D01*
X137581853Y-95918785D01*
X137440838Y-96013008D01*
X137284143Y-96077913D01*
X137117802Y-96111000D01*
X136948198Y-96111000D01*
X136781857Y-96077913D01*
X136625162Y-96013008D01*
X136484147Y-95918785D01*
X136364215Y-95798853D01*
X136269992Y-95657838D01*
X136205087Y-95501143D01*
X136172000Y-95334802D01*
X136172000Y-95165198D01*
X136205087Y-94998857D01*
X136269992Y-94842162D01*
X136364215Y-94701147D01*
X136484147Y-94581215D01*
X136625162Y-94486992D01*
X136781857Y-94422087D01*
X136948198Y-94389000D01*
X137117802Y-94389000D01*
X137284143Y-94422087D01*
G37*
G36*
X148068512Y-91813927D02*
G01*
X148217812Y-91843624D01*
X148381784Y-91911544D01*
X148529354Y-92010147D01*
X148654853Y-92135646D01*
X148753456Y-92283216D01*
X148821376Y-92447188D01*
X148856000Y-92621259D01*
X148856000Y-92798741D01*
X148821376Y-92972812D01*
X148753456Y-93136784D01*
X148654853Y-93284354D01*
X148529354Y-93409853D01*
X148381784Y-93508456D01*
X148217812Y-93576376D01*
X148068512Y-93606073D01*
X148043742Y-93611000D01*
X147866258Y-93611000D01*
X147841488Y-93606073D01*
X147692188Y-93576376D01*
X147528216Y-93508456D01*
X147380646Y-93409853D01*
X147255147Y-93284354D01*
X147156544Y-93136784D01*
X147088624Y-92972812D01*
X147054000Y-92798741D01*
X147054000Y-92621259D01*
X147088624Y-92447188D01*
X147156544Y-92283216D01*
X147255147Y-92135646D01*
X147380646Y-92010147D01*
X147528216Y-91911544D01*
X147692188Y-91843624D01*
X147841488Y-91813927D01*
X147866258Y-91809000D01*
X148043742Y-91809000D01*
X148068512Y-91813927D01*
G37*
G36*
X182104512Y-91813927D02*
G01*
X182253812Y-91843624D01*
X182417784Y-91911544D01*
X182565354Y-92010147D01*
X182690853Y-92135646D01*
X182789456Y-92283216D01*
X182857376Y-92447188D01*
X182892000Y-92621259D01*
X182892000Y-92798741D01*
X182857376Y-92972812D01*
X182789456Y-93136784D01*
X182690853Y-93284354D01*
X182565354Y-93409853D01*
X182417784Y-93508456D01*
X182253812Y-93576376D01*
X182104512Y-93606073D01*
X182079742Y-93611000D01*
X181902258Y-93611000D01*
X181877488Y-93606073D01*
X181728188Y-93576376D01*
X181564216Y-93508456D01*
X181416646Y-93409853D01*
X181291147Y-93284354D01*
X181192544Y-93136784D01*
X181124624Y-92972812D01*
X181090000Y-92798741D01*
X181090000Y-92621259D01*
X181124624Y-92447188D01*
X181192544Y-92283216D01*
X181291147Y-92135646D01*
X181416646Y-92010147D01*
X181564216Y-91911544D01*
X181728188Y-91843624D01*
X181877488Y-91813927D01*
X181902258Y-91809000D01*
X182079742Y-91809000D01*
X182104512Y-91813927D01*
G37*
G36*
X137284143Y-91882087D02*
G01*
X137440838Y-91946992D01*
X137581853Y-92041215D01*
X137701785Y-92161147D01*
X137796008Y-92302162D01*
X137860913Y-92458857D01*
X137894000Y-92625198D01*
X137894000Y-92794802D01*
X137860913Y-92961143D01*
X137796008Y-93117838D01*
X137701785Y-93258853D01*
X137581853Y-93378785D01*
X137440838Y-93473008D01*
X137284143Y-93537913D01*
X137117802Y-93571000D01*
X136948198Y-93571000D01*
X136781857Y-93537913D01*
X136625162Y-93473008D01*
X136484147Y-93378785D01*
X136364215Y-93258853D01*
X136269992Y-93117838D01*
X136205087Y-92961143D01*
X136172000Y-92794802D01*
X136172000Y-92625198D01*
X136205087Y-92458857D01*
X136269992Y-92302162D01*
X136364215Y-92161147D01*
X136484147Y-92041215D01*
X136625162Y-91946992D01*
X136781857Y-91882087D01*
X136948198Y-91849000D01*
X137117802Y-91849000D01*
X137284143Y-91882087D01*
G37*
G36*
X193418143Y-91882087D02*
G01*
X193574838Y-91946992D01*
X193715853Y-92041215D01*
X193835785Y-92161147D01*
X193930008Y-92302162D01*
X193994913Y-92458857D01*
X194028000Y-92625198D01*
X194028000Y-92794802D01*
X193994913Y-92961143D01*
X193930008Y-93117838D01*
X193835785Y-93258853D01*
X193715853Y-93378785D01*
X193574838Y-93473008D01*
X193418143Y-93537913D01*
X193251802Y-93571000D01*
X193082198Y-93571000D01*
X192915857Y-93537913D01*
X192759162Y-93473008D01*
X192618147Y-93378785D01*
X192498215Y-93258853D01*
X192403992Y-93117838D01*
X192339087Y-92961143D01*
X192306000Y-92794802D01*
X192306000Y-92625198D01*
X192339087Y-92458857D01*
X192403992Y-92302162D01*
X192498215Y-92161147D01*
X192618147Y-92041215D01*
X192759162Y-91946992D01*
X192915857Y-91882087D01*
X193082198Y-91849000D01*
X193251802Y-91849000D01*
X193418143Y-91882087D01*
G37*
G36*
X148068512Y-89273927D02*
G01*
X148217812Y-89303624D01*
X148381784Y-89371544D01*
X148529354Y-89470147D01*
X148654853Y-89595646D01*
X148753456Y-89743216D01*
X148821376Y-89907188D01*
X148856000Y-90081259D01*
X148856000Y-90258741D01*
X148821376Y-90432812D01*
X148753456Y-90596784D01*
X148654853Y-90744354D01*
X148529354Y-90869853D01*
X148381784Y-90968456D01*
X148217812Y-91036376D01*
X148068512Y-91066073D01*
X148043742Y-91071000D01*
X147866258Y-91071000D01*
X147841488Y-91066073D01*
X147692188Y-91036376D01*
X147528216Y-90968456D01*
X147380646Y-90869853D01*
X147255147Y-90744354D01*
X147156544Y-90596784D01*
X147088624Y-90432812D01*
X147054000Y-90258741D01*
X147054000Y-90081259D01*
X147088624Y-89907188D01*
X147156544Y-89743216D01*
X147255147Y-89595646D01*
X147380646Y-89470147D01*
X147528216Y-89371544D01*
X147692188Y-89303624D01*
X147841488Y-89273927D01*
X147866258Y-89269000D01*
X148043742Y-89269000D01*
X148068512Y-89273927D01*
G37*
G36*
X182104512Y-89273927D02*
G01*
X182253812Y-89303624D01*
X182417784Y-89371544D01*
X182565354Y-89470147D01*
X182690853Y-89595646D01*
X182789456Y-89743216D01*
X182857376Y-89907188D01*
X182892000Y-90081259D01*
X182892000Y-90258741D01*
X182857376Y-90432812D01*
X182789456Y-90596784D01*
X182690853Y-90744354D01*
X182565354Y-90869853D01*
X182417784Y-90968456D01*
X182253812Y-91036376D01*
X182104512Y-91066073D01*
X182079742Y-91071000D01*
X181902258Y-91071000D01*
X181877488Y-91066073D01*
X181728188Y-91036376D01*
X181564216Y-90968456D01*
X181416646Y-90869853D01*
X181291147Y-90744354D01*
X181192544Y-90596784D01*
X181124624Y-90432812D01*
X181090000Y-90258741D01*
X181090000Y-90081259D01*
X181124624Y-89907188D01*
X181192544Y-89743216D01*
X181291147Y-89595646D01*
X181416646Y-89470147D01*
X181564216Y-89371544D01*
X181728188Y-89303624D01*
X181877488Y-89273927D01*
X181902258Y-89269000D01*
X182079742Y-89269000D01*
X182104512Y-89273927D01*
G37*
G36*
X193418143Y-89342087D02*
G01*
X193574838Y-89406992D01*
X193715853Y-89501215D01*
X193835785Y-89621147D01*
X193930008Y-89762162D01*
X193994913Y-89918857D01*
X194028000Y-90085198D01*
X194028000Y-90254802D01*
X193994913Y-90421143D01*
X193930008Y-90577838D01*
X193835785Y-90718853D01*
X193715853Y-90838785D01*
X193574838Y-90933008D01*
X193418143Y-90997913D01*
X193251802Y-91031000D01*
X193082198Y-91031000D01*
X192915857Y-90997913D01*
X192759162Y-90933008D01*
X192618147Y-90838785D01*
X192498215Y-90718853D01*
X192403992Y-90577838D01*
X192339087Y-90421143D01*
X192306000Y-90254802D01*
X192306000Y-90085198D01*
X192339087Y-89918857D01*
X192403992Y-89762162D01*
X192498215Y-89621147D01*
X192618147Y-89501215D01*
X192759162Y-89406992D01*
X192915857Y-89342087D01*
X193082198Y-89309000D01*
X193251802Y-89309000D01*
X193418143Y-89342087D01*
G37*
G36*
X137284143Y-89342087D02*
G01*
X137440838Y-89406992D01*
X137581853Y-89501215D01*
X137701785Y-89621147D01*
X137796008Y-89762162D01*
X137860913Y-89918857D01*
X137894000Y-90085198D01*
X137894000Y-90254802D01*
X137860913Y-90421143D01*
X137796008Y-90577838D01*
X137701785Y-90718853D01*
X137581853Y-90838785D01*
X137440838Y-90933008D01*
X137284143Y-90997913D01*
X137117802Y-91031000D01*
X136948198Y-91031000D01*
X136781857Y-90997913D01*
X136625162Y-90933008D01*
X136484147Y-90838785D01*
X136364215Y-90718853D01*
X136269992Y-90577838D01*
X136205087Y-90421143D01*
X136172000Y-90254802D01*
X136172000Y-90085198D01*
X136205087Y-89918857D01*
X136269992Y-89762162D01*
X136364215Y-89621147D01*
X136484147Y-89501215D01*
X136625162Y-89406992D01*
X136781857Y-89342087D01*
X136948198Y-89309000D01*
X137117802Y-89309000D01*
X137284143Y-89342087D01*
G37*
G36*
X182104512Y-86733927D02*
G01*
X182253812Y-86763624D01*
X182417784Y-86831544D01*
X182565354Y-86930147D01*
X182690853Y-87055646D01*
X182789456Y-87203216D01*
X182857376Y-87367188D01*
X182892000Y-87541259D01*
X182892000Y-87718741D01*
X182857376Y-87892812D01*
X182789456Y-88056784D01*
X182690853Y-88204354D01*
X182565354Y-88329853D01*
X182417784Y-88428456D01*
X182253812Y-88496376D01*
X182104512Y-88526073D01*
X182079742Y-88531000D01*
X181902258Y-88531000D01*
X181877488Y-88526073D01*
X181728188Y-88496376D01*
X181564216Y-88428456D01*
X181416646Y-88329853D01*
X181291147Y-88204354D01*
X181192544Y-88056784D01*
X181124624Y-87892812D01*
X181090000Y-87718741D01*
X181090000Y-87541259D01*
X181124624Y-87367188D01*
X181192544Y-87203216D01*
X181291147Y-87055646D01*
X181416646Y-86930147D01*
X181564216Y-86831544D01*
X181728188Y-86763624D01*
X181877488Y-86733927D01*
X181902258Y-86729000D01*
X182079742Y-86729000D01*
X182104512Y-86733927D01*
G37*
G36*
X148068512Y-86733927D02*
G01*
X148217812Y-86763624D01*
X148381784Y-86831544D01*
X148529354Y-86930147D01*
X148654853Y-87055646D01*
X148753456Y-87203216D01*
X148821376Y-87367188D01*
X148856000Y-87541259D01*
X148856000Y-87718741D01*
X148821376Y-87892812D01*
X148753456Y-88056784D01*
X148654853Y-88204354D01*
X148529354Y-88329853D01*
X148381784Y-88428456D01*
X148217812Y-88496376D01*
X148068512Y-88526073D01*
X148043742Y-88531000D01*
X147866258Y-88531000D01*
X147841488Y-88526073D01*
X147692188Y-88496376D01*
X147528216Y-88428456D01*
X147380646Y-88329853D01*
X147255147Y-88204354D01*
X147156544Y-88056784D01*
X147088624Y-87892812D01*
X147054000Y-87718741D01*
X147054000Y-87541259D01*
X147088624Y-87367188D01*
X147156544Y-87203216D01*
X147255147Y-87055646D01*
X147380646Y-86930147D01*
X147528216Y-86831544D01*
X147692188Y-86763624D01*
X147841488Y-86733927D01*
X147866258Y-86729000D01*
X148043742Y-86729000D01*
X148068512Y-86733927D01*
G37*
G36*
X193418143Y-86802087D02*
G01*
X193574838Y-86866992D01*
X193715853Y-86961215D01*
X193835785Y-87081147D01*
X193930008Y-87222162D01*
X193994913Y-87378857D01*
X194028000Y-87545198D01*
X194028000Y-87714802D01*
X193994913Y-87881143D01*
X193930008Y-88037838D01*
X193835785Y-88178853D01*
X193715853Y-88298785D01*
X193574838Y-88393008D01*
X193418143Y-88457913D01*
X193251802Y-88491000D01*
X193082198Y-88491000D01*
X192915857Y-88457913D01*
X192759162Y-88393008D01*
X192618147Y-88298785D01*
X192498215Y-88178853D01*
X192403992Y-88037838D01*
X192339087Y-87881143D01*
X192306000Y-87714802D01*
X192306000Y-87545198D01*
X192339087Y-87378857D01*
X192403992Y-87222162D01*
X192498215Y-87081147D01*
X192618147Y-86961215D01*
X192759162Y-86866992D01*
X192915857Y-86802087D01*
X193082198Y-86769000D01*
X193251802Y-86769000D01*
X193418143Y-86802087D01*
G37*
G36*
X137284143Y-86802087D02*
G01*
X137440838Y-86866992D01*
X137581853Y-86961215D01*
X137701785Y-87081147D01*
X137796008Y-87222162D01*
X137860913Y-87378857D01*
X137894000Y-87545198D01*
X137894000Y-87714802D01*
X137860913Y-87881143D01*
X137796008Y-88037838D01*
X137701785Y-88178853D01*
X137581853Y-88298785D01*
X137440838Y-88393008D01*
X137284143Y-88457913D01*
X137117802Y-88491000D01*
X136948198Y-88491000D01*
X136781857Y-88457913D01*
X136625162Y-88393008D01*
X136484147Y-88298785D01*
X136364215Y-88178853D01*
X136269992Y-88037838D01*
X136205087Y-87881143D01*
X136172000Y-87714802D01*
X136172000Y-87545198D01*
X136205087Y-87378857D01*
X136269992Y-87222162D01*
X136364215Y-87081147D01*
X136484147Y-86961215D01*
X136625162Y-86866992D01*
X136781857Y-86802087D01*
X136948198Y-86769000D01*
X137117802Y-86769000D01*
X137284143Y-86802087D01*
G37*
G36*
X182104512Y-84193927D02*
G01*
X182253812Y-84223624D01*
X182417784Y-84291544D01*
X182565354Y-84390147D01*
X182690853Y-84515646D01*
X182789456Y-84663216D01*
X182857376Y-84827188D01*
X182892000Y-85001259D01*
X182892000Y-85178741D01*
X182857376Y-85352812D01*
X182789456Y-85516784D01*
X182690853Y-85664354D01*
X182565354Y-85789853D01*
X182417784Y-85888456D01*
X182253812Y-85956376D01*
X182104512Y-85986073D01*
X182079742Y-85991000D01*
X181902258Y-85991000D01*
X181877488Y-85986073D01*
X181728188Y-85956376D01*
X181564216Y-85888456D01*
X181416646Y-85789853D01*
X181291147Y-85664354D01*
X181192544Y-85516784D01*
X181124624Y-85352812D01*
X181090000Y-85178741D01*
X181090000Y-85001259D01*
X181124624Y-84827188D01*
X181192544Y-84663216D01*
X181291147Y-84515646D01*
X181416646Y-84390147D01*
X181564216Y-84291544D01*
X181728188Y-84223624D01*
X181877488Y-84193927D01*
X181902258Y-84189000D01*
X182079742Y-84189000D01*
X182104512Y-84193927D01*
G37*
G36*
X148068512Y-84193927D02*
G01*
X148217812Y-84223624D01*
X148381784Y-84291544D01*
X148529354Y-84390147D01*
X148654853Y-84515646D01*
X148753456Y-84663216D01*
X148821376Y-84827188D01*
X148856000Y-85001259D01*
X148856000Y-85178741D01*
X148821376Y-85352812D01*
X148753456Y-85516784D01*
X148654853Y-85664354D01*
X148529354Y-85789853D01*
X148381784Y-85888456D01*
X148217812Y-85956376D01*
X148068512Y-85986073D01*
X148043742Y-85991000D01*
X147866258Y-85991000D01*
X147841488Y-85986073D01*
X147692188Y-85956376D01*
X147528216Y-85888456D01*
X147380646Y-85789853D01*
X147255147Y-85664354D01*
X147156544Y-85516784D01*
X147088624Y-85352812D01*
X147054000Y-85178741D01*
X147054000Y-85001259D01*
X147088624Y-84827188D01*
X147156544Y-84663216D01*
X147255147Y-84515646D01*
X147380646Y-84390147D01*
X147528216Y-84291544D01*
X147692188Y-84223624D01*
X147841488Y-84193927D01*
X147866258Y-84189000D01*
X148043742Y-84189000D01*
X148068512Y-84193927D01*
G37*
G36*
X137284143Y-84262087D02*
G01*
X137440838Y-84326992D01*
X137581853Y-84421215D01*
X137701785Y-84541147D01*
X137796008Y-84682162D01*
X137860913Y-84838857D01*
X137894000Y-85005198D01*
X137894000Y-85174802D01*
X137860913Y-85341143D01*
X137796008Y-85497838D01*
X137701785Y-85638853D01*
X137581853Y-85758785D01*
X137440838Y-85853008D01*
X137284143Y-85917913D01*
X137117802Y-85951000D01*
X136948198Y-85951000D01*
X136781857Y-85917913D01*
X136625162Y-85853008D01*
X136484147Y-85758785D01*
X136364215Y-85638853D01*
X136269992Y-85497838D01*
X136205087Y-85341143D01*
X136172000Y-85174802D01*
X136172000Y-85005198D01*
X136205087Y-84838857D01*
X136269992Y-84682162D01*
X136364215Y-84541147D01*
X136484147Y-84421215D01*
X136625162Y-84326992D01*
X136781857Y-84262087D01*
X136948198Y-84229000D01*
X137117802Y-84229000D01*
X137284143Y-84262087D01*
G37*
G36*
X193418143Y-84262087D02*
G01*
X193574838Y-84326992D01*
X193715853Y-84421215D01*
X193835785Y-84541147D01*
X193930008Y-84682162D01*
X193994913Y-84838857D01*
X194028000Y-85005198D01*
X194028000Y-85174802D01*
X193994913Y-85341143D01*
X193930008Y-85497838D01*
X193835785Y-85638853D01*
X193715853Y-85758785D01*
X193574838Y-85853008D01*
X193418143Y-85917913D01*
X193251802Y-85951000D01*
X193082198Y-85951000D01*
X192915857Y-85917913D01*
X192759162Y-85853008D01*
X192618147Y-85758785D01*
X192498215Y-85638853D01*
X192403992Y-85497838D01*
X192339087Y-85341143D01*
X192306000Y-85174802D01*
X192306000Y-85005198D01*
X192339087Y-84838857D01*
X192403992Y-84682162D01*
X192498215Y-84541147D01*
X192618147Y-84421215D01*
X192759162Y-84326992D01*
X192915857Y-84262087D01*
X193082198Y-84229000D01*
X193251802Y-84229000D01*
X193418143Y-84262087D01*
G37*
G36*
X193418143Y-81722087D02*
G01*
X193574838Y-81786992D01*
X193715853Y-81881215D01*
X193835785Y-82001147D01*
X193930008Y-82142162D01*
X193994913Y-82298857D01*
X194028000Y-82465198D01*
X194028000Y-82634802D01*
X193994913Y-82801143D01*
X193930008Y-82957838D01*
X193835785Y-83098853D01*
X193715853Y-83218785D01*
X193574838Y-83313008D01*
X193418143Y-83377913D01*
X193251802Y-83411000D01*
X193082198Y-83411000D01*
X192915857Y-83377913D01*
X192759162Y-83313008D01*
X192618147Y-83218785D01*
X192498215Y-83098853D01*
X192403992Y-82957838D01*
X192339087Y-82801143D01*
X192306000Y-82634802D01*
X192306000Y-82465198D01*
X192339087Y-82298857D01*
X192403992Y-82142162D01*
X192498215Y-82001147D01*
X192618147Y-81881215D01*
X192759162Y-81786992D01*
X192915857Y-81722087D01*
X193082198Y-81689000D01*
X193251802Y-81689000D01*
X193418143Y-81722087D01*
G37*
G36*
X137284143Y-81722087D02*
G01*
X137440838Y-81786992D01*
X137581853Y-81881215D01*
X137701785Y-82001147D01*
X137796008Y-82142162D01*
X137860913Y-82298857D01*
X137894000Y-82465198D01*
X137894000Y-82634802D01*
X137860913Y-82801143D01*
X137796008Y-82957838D01*
X137701785Y-83098853D01*
X137581853Y-83218785D01*
X137440838Y-83313008D01*
X137284143Y-83377913D01*
X137117802Y-83411000D01*
X136948198Y-83411000D01*
X136781857Y-83377913D01*
X136625162Y-83313008D01*
X136484147Y-83218785D01*
X136364215Y-83098853D01*
X136269992Y-82957838D01*
X136205087Y-82801143D01*
X136172000Y-82634802D01*
X136172000Y-82465198D01*
X136205087Y-82298857D01*
X136269992Y-82142162D01*
X136364215Y-82001147D01*
X136484147Y-81881215D01*
X136625162Y-81786992D01*
X136781857Y-81722087D01*
X136948198Y-81689000D01*
X137117802Y-81689000D01*
X137284143Y-81722087D01*
G37*
G36*
X187700256Y-78401298D02*
G01*
X187806579Y-78422447D01*
X188107042Y-78546903D01*
X188377451Y-78727585D01*
X188607415Y-78957549D01*
X188788097Y-79227958D01*
X188788098Y-79227960D01*
X188912553Y-79528422D01*
X188976000Y-79847389D01*
X188976000Y-80172611D01*
X188933702Y-80385256D01*
X188912553Y-80491579D01*
X188788097Y-80792042D01*
X188607415Y-81062451D01*
X188377451Y-81292415D01*
X188107042Y-81473097D01*
X187806579Y-81597553D01*
X187700256Y-81618702D01*
X187487611Y-81661000D01*
X187162389Y-81661000D01*
X186949744Y-81618702D01*
X186843421Y-81597553D01*
X186542958Y-81473097D01*
X186272549Y-81292415D01*
X186042585Y-81062451D01*
X185861903Y-80792042D01*
X185737447Y-80491579D01*
X185716298Y-80385256D01*
X185674000Y-80172611D01*
X185674000Y-79847389D01*
X185737447Y-79528422D01*
X185861902Y-79227960D01*
X185861903Y-79227958D01*
X186042585Y-78957549D01*
X186272549Y-78727585D01*
X186542958Y-78546903D01*
X186843421Y-78422447D01*
X186949744Y-78401298D01*
X187162389Y-78359000D01*
X187487611Y-78359000D01*
X187700256Y-78401298D01*
G37*
G36*
X143250256Y-78401298D02*
G01*
X143356579Y-78422447D01*
X143657042Y-78546903D01*
X143927451Y-78727585D01*
X144157415Y-78957549D01*
X144338097Y-79227958D01*
X144338098Y-79227960D01*
X144462553Y-79528422D01*
X144526000Y-79847389D01*
X144526000Y-80172611D01*
X144483702Y-80385256D01*
X144462553Y-80491579D01*
X144338097Y-80792042D01*
X144157415Y-81062451D01*
X143927451Y-81292415D01*
X143657042Y-81473097D01*
X143356579Y-81597553D01*
X143250256Y-81618702D01*
X143037611Y-81661000D01*
X142712389Y-81661000D01*
X142499744Y-81618702D01*
X142393421Y-81597553D01*
X142092958Y-81473097D01*
X141822549Y-81292415D01*
X141592585Y-81062451D01*
X141411903Y-80792042D01*
X141287447Y-80491579D01*
X141266298Y-80385256D01*
X141224000Y-80172611D01*
X141224000Y-79847389D01*
X141287447Y-79528422D01*
X141411902Y-79227960D01*
X141411903Y-79227958D01*
X141592585Y-78957549D01*
X141822549Y-78727585D01*
X142092958Y-78546903D01*
X142393421Y-78422447D01*
X142499744Y-78401298D01*
X142712389Y-78359000D01*
X143037611Y-78359000D01*
X143250256Y-78401298D01*
G37*
G36*
X173905716Y-79879952D02*
G01*
X173986311Y-79913336D01*
X174043300Y-79936941D01*
X174167122Y-80019676D01*
X174272424Y-80124978D01*
X174355159Y-80248800D01*
X174360272Y-80261144D01*
X174412148Y-80386384D01*
X174441200Y-80532439D01*
X174441200Y-80681361D01*
X174412148Y-80827416D01*
X174394095Y-80871000D01*
X174355159Y-80965000D01*
X174272424Y-81088822D01*
X174167122Y-81194124D01*
X174043300Y-81276859D01*
X173986311Y-81300464D01*
X173905716Y-81333848D01*
X173759661Y-81362900D01*
X173610739Y-81362900D01*
X173464684Y-81333848D01*
X173384089Y-81300464D01*
X173327100Y-81276859D01*
X173203278Y-81194124D01*
X173097976Y-81088822D01*
X173015241Y-80965000D01*
X172976305Y-80871000D01*
X172958252Y-80827416D01*
X172929200Y-80681361D01*
X172929200Y-80532439D01*
X172958252Y-80386384D01*
X173010128Y-80261144D01*
X173015241Y-80248800D01*
X173097976Y-80124978D01*
X173203278Y-80019676D01*
X173327100Y-79936941D01*
X173384089Y-79913336D01*
X173464684Y-79879952D01*
X173610739Y-79850900D01*
X173759661Y-79850900D01*
X173905716Y-79879952D01*
G37*
G36*
X178985716Y-79879952D02*
G01*
X179066311Y-79913336D01*
X179123300Y-79936941D01*
X179247122Y-80019676D01*
X179352424Y-80124978D01*
X179435159Y-80248800D01*
X179440272Y-80261144D01*
X179492148Y-80386384D01*
X179521200Y-80532439D01*
X179521200Y-80681361D01*
X179492148Y-80827416D01*
X179474095Y-80871000D01*
X179435159Y-80965000D01*
X179352424Y-81088822D01*
X179247122Y-81194124D01*
X179123300Y-81276859D01*
X179066311Y-81300464D01*
X178985716Y-81333848D01*
X178839661Y-81362900D01*
X178690739Y-81362900D01*
X178544684Y-81333848D01*
X178464089Y-81300464D01*
X178407100Y-81276859D01*
X178283278Y-81194124D01*
X178177976Y-81088822D01*
X178095241Y-80965000D01*
X178056305Y-80871000D01*
X178038252Y-80827416D01*
X178009200Y-80681361D01*
X178009200Y-80532439D01*
X178038252Y-80386384D01*
X178090128Y-80261144D01*
X178095241Y-80248800D01*
X178177976Y-80124978D01*
X178283278Y-80019676D01*
X178407100Y-79936941D01*
X178464089Y-79913336D01*
X178544684Y-79879952D01*
X178690739Y-79850900D01*
X178839661Y-79850900D01*
X178985716Y-79879952D01*
G37*
G36*
X137284143Y-79182087D02*
G01*
X137440838Y-79246992D01*
X137581853Y-79341215D01*
X137701785Y-79461147D01*
X137796008Y-79602162D01*
X137860913Y-79758857D01*
X137894000Y-79925198D01*
X137894000Y-80094802D01*
X137860913Y-80261143D01*
X137796008Y-80417838D01*
X137701785Y-80558853D01*
X137581853Y-80678785D01*
X137440838Y-80773008D01*
X137284143Y-80837913D01*
X137117802Y-80871000D01*
X136948198Y-80871000D01*
X136781857Y-80837913D01*
X136625162Y-80773008D01*
X136484147Y-80678785D01*
X136364215Y-80558853D01*
X136269992Y-80417838D01*
X136205087Y-80261143D01*
X136172000Y-80094802D01*
X136172000Y-79925198D01*
X136205087Y-79758857D01*
X136269992Y-79602162D01*
X136364215Y-79461147D01*
X136484147Y-79341215D01*
X136625162Y-79246992D01*
X136781857Y-79182087D01*
X136948198Y-79149000D01*
X137117802Y-79149000D01*
X137284143Y-79182087D01*
G37*
G36*
X193418143Y-79182087D02*
G01*
X193574838Y-79246992D01*
X193715853Y-79341215D01*
X193835785Y-79461147D01*
X193930008Y-79602162D01*
X193994913Y-79758857D01*
X194028000Y-79925198D01*
X194028000Y-80094802D01*
X193994913Y-80261143D01*
X193930008Y-80417838D01*
X193835785Y-80558853D01*
X193715853Y-80678785D01*
X193574838Y-80773008D01*
X193418143Y-80837913D01*
X193251802Y-80871000D01*
X193082198Y-80871000D01*
X192915857Y-80837913D01*
X192759162Y-80773008D01*
X192618147Y-80678785D01*
X192498215Y-80558853D01*
X192403992Y-80417838D01*
X192339087Y-80261143D01*
X192306000Y-80094802D01*
X192306000Y-79925198D01*
X192339087Y-79758857D01*
X192403992Y-79602162D01*
X192498215Y-79461147D01*
X192618147Y-79341215D01*
X192759162Y-79246992D01*
X192915857Y-79182087D01*
X193082198Y-79149000D01*
X193251802Y-79149000D01*
X193418143Y-79182087D01*
G37*
G36*
X176445716Y-77339952D02*
G01*
X176526311Y-77373336D01*
X176583300Y-77396941D01*
X176707122Y-77479676D01*
X176812424Y-77584978D01*
X176895159Y-77708800D01*
X176895159Y-77708801D01*
X176952148Y-77846384D01*
X176981200Y-77992439D01*
X176981200Y-78141361D01*
X176952148Y-78287416D01*
X176922497Y-78359000D01*
X176895159Y-78425000D01*
X176812424Y-78548822D01*
X176707122Y-78654124D01*
X176583300Y-78736859D01*
X176526311Y-78760464D01*
X176445716Y-78793848D01*
X176299661Y-78822900D01*
X176150739Y-78822900D01*
X176004684Y-78793848D01*
X175924089Y-78760464D01*
X175867100Y-78736859D01*
X175743278Y-78654124D01*
X175637976Y-78548822D01*
X175555241Y-78425000D01*
X175527903Y-78359000D01*
X175498252Y-78287416D01*
X175469200Y-78141361D01*
X175469200Y-77992439D01*
X175498252Y-77846384D01*
X175555241Y-77708801D01*
X175555241Y-77708800D01*
X175637976Y-77584978D01*
X175743278Y-77479676D01*
X175867100Y-77396941D01*
X175924089Y-77373336D01*
X176004684Y-77339952D01*
X176150739Y-77310900D01*
X176299661Y-77310900D01*
X176445716Y-77339952D01*
G37*
M02*
