G04 #@! TF.GenerationSoftware,KiCad,Pcbnew,(5.1.2)-1*
G04 #@! TF.CreationDate,2019-10-29T15:10:56-05:00*
G04 #@! TF.ProjectId,laser_driver,6c617365-725f-4647-9269-7665722e6b69,rev?*
G04 #@! TF.SameCoordinates,Original*
G04 #@! TF.FileFunction,Legend,Bot*
G04 #@! TF.FilePolarity,Positive*
%FSLAX46Y46*%
G04 Gerber Fmt 4.6, Leading zero omitted, Abs format (unit mm)*
G04 Created by KiCad (PCBNEW (5.1.2)-1) date 2019-10-29 15:10:56*
%MOMM*%
%LPD*%
G04 APERTURE LIST*
%ADD10C,0.149860*%
%ADD11C,0.120000*%
%ADD12C,0.150000*%
G04 APERTURE END LIST*
D10*
X139282714Y-91167857D02*
X139282714Y-91313000D01*
X139319000Y-91385571D01*
X139391571Y-91458142D01*
X139536714Y-91494428D01*
X139790714Y-91494428D01*
X139935857Y-91458142D01*
X140008428Y-91385571D01*
X140044714Y-91313000D01*
X140044714Y-91167857D01*
X140008428Y-91095285D01*
X139935857Y-91022714D01*
X139790714Y-90986428D01*
X139536714Y-90986428D01*
X139391571Y-91022714D01*
X139319000Y-91095285D01*
X139282714Y-91167857D01*
X139536714Y-92147571D02*
X140044714Y-92147571D01*
X139536714Y-91821000D02*
X139935857Y-91821000D01*
X140008428Y-91857285D01*
X140044714Y-91929857D01*
X140044714Y-92038714D01*
X140008428Y-92111285D01*
X139972142Y-92147571D01*
X139536714Y-92401571D02*
X139536714Y-92691857D01*
X139282714Y-92510428D02*
X139935857Y-92510428D01*
X140008428Y-92546714D01*
X140044714Y-92619285D01*
X140044714Y-92691857D01*
X139536714Y-92945857D02*
X140298714Y-92945857D01*
X139573000Y-92945857D02*
X139536714Y-93018428D01*
X139536714Y-93163571D01*
X139573000Y-93236142D01*
X139609285Y-93272428D01*
X139681857Y-93308714D01*
X139899571Y-93308714D01*
X139972142Y-93272428D01*
X140008428Y-93236142D01*
X140044714Y-93163571D01*
X140044714Y-93018428D01*
X140008428Y-92945857D01*
X139536714Y-93961857D02*
X140044714Y-93961857D01*
X139536714Y-93635285D02*
X139935857Y-93635285D01*
X140008428Y-93671571D01*
X140044714Y-93744142D01*
X140044714Y-93853000D01*
X140008428Y-93925571D01*
X139972142Y-93961857D01*
X139536714Y-94215857D02*
X139536714Y-94506142D01*
X139282714Y-94324714D02*
X139935857Y-94324714D01*
X140008428Y-94361000D01*
X140044714Y-94433571D01*
X140044714Y-94506142D01*
X216244714Y-91458142D02*
X215482714Y-91458142D01*
X215736714Y-91821000D02*
X216244714Y-91821000D01*
X215809285Y-91821000D02*
X215773000Y-91857285D01*
X215736714Y-91929857D01*
X215736714Y-92038714D01*
X215773000Y-92111285D01*
X215845571Y-92147571D01*
X216244714Y-92147571D01*
X215736714Y-92510428D02*
X216498714Y-92510428D01*
X215773000Y-92510428D02*
X215736714Y-92583000D01*
X215736714Y-92728142D01*
X215773000Y-92800714D01*
X215809285Y-92837000D01*
X215881857Y-92873285D01*
X216099571Y-92873285D01*
X216172142Y-92837000D01*
X216208428Y-92800714D01*
X216244714Y-92728142D01*
X216244714Y-92583000D01*
X216208428Y-92510428D01*
X215736714Y-93526428D02*
X216244714Y-93526428D01*
X215736714Y-93199857D02*
X216135857Y-93199857D01*
X216208428Y-93236142D01*
X216244714Y-93308714D01*
X216244714Y-93417571D01*
X216208428Y-93490142D01*
X216172142Y-93526428D01*
X215736714Y-93780428D02*
X215736714Y-94070714D01*
X215482714Y-93889285D02*
X216135857Y-93889285D01*
X216208428Y-93925571D01*
X216244714Y-93998142D01*
X216244714Y-94070714D01*
D11*
X222885000Y-83820000D02*
X217170000Y-83820000D01*
X217170000Y-81280000D02*
X222885000Y-81280000D01*
X217170000Y-86360000D02*
X222885000Y-86360000D01*
X222885000Y-88900000D02*
X217170000Y-88900000D01*
X217170000Y-91440000D02*
X222885000Y-91440000D01*
X222885000Y-93980000D02*
X217170000Y-93980000D01*
X222885000Y-99060000D02*
X217170000Y-99060000D01*
X217170000Y-106680000D02*
X217170000Y-78740000D01*
X217170000Y-78740000D02*
X222885000Y-78740000D01*
X217170000Y-96520000D02*
X222885000Y-96520000D01*
X217170000Y-101600000D02*
X222885000Y-101600000D01*
X217170000Y-104140000D02*
X217170000Y-101600000D01*
X222885000Y-104140000D02*
X217170000Y-104140000D01*
X222885000Y-78740000D02*
X222885000Y-106680000D01*
X222885000Y-106680000D02*
X217170000Y-106680000D01*
D10*
X222123000Y-100384428D02*
X221542428Y-100384428D01*
X220780428Y-100674714D02*
X221215857Y-100674714D01*
X220998142Y-100674714D02*
X220998142Y-99912714D01*
X221070714Y-100021571D01*
X221143285Y-100094142D01*
X221215857Y-100130428D01*
X220490142Y-99985285D02*
X220453857Y-99949000D01*
X220381285Y-99912714D01*
X220199857Y-99912714D01*
X220127285Y-99949000D01*
X220091000Y-99985285D01*
X220054714Y-100057857D01*
X220054714Y-100130428D01*
X220091000Y-100239285D01*
X220526428Y-100674714D01*
X220054714Y-100674714D01*
X221451714Y-93054714D02*
X221451714Y-92292714D01*
X221016285Y-93054714D01*
X221016285Y-92292714D01*
X220218000Y-92982142D02*
X220254285Y-93018428D01*
X220363142Y-93054714D01*
X220435714Y-93054714D01*
X220544571Y-93018428D01*
X220617142Y-92945857D01*
X220653428Y-92873285D01*
X220689714Y-92728142D01*
X220689714Y-92619285D01*
X220653428Y-92474142D01*
X220617142Y-92401571D01*
X220544571Y-92329000D01*
X220435714Y-92292714D01*
X220363142Y-92292714D01*
X220254285Y-92329000D01*
X220218000Y-92365285D01*
X221560571Y-105029000D02*
X221633142Y-104992714D01*
X221742000Y-104992714D01*
X221850857Y-105029000D01*
X221923428Y-105101571D01*
X221959714Y-105174142D01*
X221996000Y-105319285D01*
X221996000Y-105428142D01*
X221959714Y-105573285D01*
X221923428Y-105645857D01*
X221850857Y-105718428D01*
X221742000Y-105754714D01*
X221669428Y-105754714D01*
X221560571Y-105718428D01*
X221524285Y-105682142D01*
X221524285Y-105428142D01*
X221669428Y-105428142D01*
X221197714Y-105754714D02*
X221197714Y-104992714D01*
X220762285Y-105754714D01*
X220762285Y-104992714D01*
X220399428Y-105754714D02*
X220399428Y-104992714D01*
X220218000Y-104992714D01*
X220109142Y-105029000D01*
X220036571Y-105101571D01*
X220000285Y-105174142D01*
X219964000Y-105319285D01*
X219964000Y-105428142D01*
X220000285Y-105573285D01*
X220036571Y-105645857D01*
X220109142Y-105718428D01*
X220218000Y-105754714D01*
X220399428Y-105754714D01*
X221451714Y-87974714D02*
X221451714Y-87212714D01*
X221016285Y-87974714D01*
X221016285Y-87212714D01*
X220218000Y-87902142D02*
X220254285Y-87938428D01*
X220363142Y-87974714D01*
X220435714Y-87974714D01*
X220544571Y-87938428D01*
X220617142Y-87865857D01*
X220653428Y-87793285D01*
X220689714Y-87648142D01*
X220689714Y-87539285D01*
X220653428Y-87394142D01*
X220617142Y-87321571D01*
X220544571Y-87249000D01*
X220435714Y-87212714D01*
X220363142Y-87212714D01*
X220254285Y-87249000D01*
X220218000Y-87285285D01*
X221451714Y-95594714D02*
X221451714Y-94832714D01*
X221016285Y-95594714D01*
X221016285Y-94832714D01*
X220218000Y-95522142D02*
X220254285Y-95558428D01*
X220363142Y-95594714D01*
X220435714Y-95594714D01*
X220544571Y-95558428D01*
X220617142Y-95485857D01*
X220653428Y-95413285D01*
X220689714Y-95268142D01*
X220689714Y-95159285D01*
X220653428Y-95014142D01*
X220617142Y-94941571D01*
X220544571Y-94869000D01*
X220435714Y-94832714D01*
X220363142Y-94832714D01*
X220254285Y-94869000D01*
X220218000Y-94905285D01*
X222123000Y-102924428D02*
X221542428Y-102924428D01*
X221832714Y-103214714D02*
X221832714Y-102634142D01*
X220780428Y-103214714D02*
X221215857Y-103214714D01*
X220998142Y-103214714D02*
X220998142Y-102452714D01*
X221070714Y-102561571D01*
X221143285Y-102634142D01*
X221215857Y-102670428D01*
X220490142Y-102525285D02*
X220453857Y-102489000D01*
X220381285Y-102452714D01*
X220199857Y-102452714D01*
X220127285Y-102489000D01*
X220091000Y-102525285D01*
X220054714Y-102597857D01*
X220054714Y-102670428D01*
X220091000Y-102779285D01*
X220526428Y-103214714D01*
X220054714Y-103214714D01*
X221451714Y-85434714D02*
X221451714Y-84672714D01*
X221016285Y-85434714D01*
X221016285Y-84672714D01*
X220218000Y-85362142D02*
X220254285Y-85398428D01*
X220363142Y-85434714D01*
X220435714Y-85434714D01*
X220544571Y-85398428D01*
X220617142Y-85325857D01*
X220653428Y-85253285D01*
X220689714Y-85108142D01*
X220689714Y-84999285D01*
X220653428Y-84854142D01*
X220617142Y-84781571D01*
X220544571Y-84709000D01*
X220435714Y-84672714D01*
X220363142Y-84672714D01*
X220254285Y-84709000D01*
X220218000Y-84745285D01*
X221451714Y-80354714D02*
X221451714Y-79592714D01*
X221016285Y-80354714D01*
X221016285Y-79592714D01*
X220218000Y-80282142D02*
X220254285Y-80318428D01*
X220363142Y-80354714D01*
X220435714Y-80354714D01*
X220544571Y-80318428D01*
X220617142Y-80245857D01*
X220653428Y-80173285D01*
X220689714Y-80028142D01*
X220689714Y-79919285D01*
X220653428Y-79774142D01*
X220617142Y-79701571D01*
X220544571Y-79629000D01*
X220435714Y-79592714D01*
X220363142Y-79592714D01*
X220254285Y-79629000D01*
X220218000Y-79665285D01*
X221451714Y-82894714D02*
X221451714Y-82132714D01*
X221016285Y-82894714D01*
X221016285Y-82132714D01*
X220218000Y-82822142D02*
X220254285Y-82858428D01*
X220363142Y-82894714D01*
X220435714Y-82894714D01*
X220544571Y-82858428D01*
X220617142Y-82785857D01*
X220653428Y-82713285D01*
X220689714Y-82568142D01*
X220689714Y-82459285D01*
X220653428Y-82314142D01*
X220617142Y-82241571D01*
X220544571Y-82169000D01*
X220435714Y-82132714D01*
X220363142Y-82132714D01*
X220254285Y-82169000D01*
X220218000Y-82205285D01*
X221451714Y-90514714D02*
X221451714Y-89752714D01*
X221016285Y-90514714D01*
X221016285Y-89752714D01*
X220218000Y-90442142D02*
X220254285Y-90478428D01*
X220363142Y-90514714D01*
X220435714Y-90514714D01*
X220544571Y-90478428D01*
X220617142Y-90405857D01*
X220653428Y-90333285D01*
X220689714Y-90188142D01*
X220689714Y-90079285D01*
X220653428Y-89934142D01*
X220617142Y-89861571D01*
X220544571Y-89789000D01*
X220435714Y-89752714D01*
X220363142Y-89752714D01*
X220254285Y-89789000D01*
X220218000Y-89825285D01*
X221451714Y-98134714D02*
X221451714Y-97372714D01*
X221016285Y-98134714D01*
X221016285Y-97372714D01*
X220218000Y-98062142D02*
X220254285Y-98098428D01*
X220363142Y-98134714D01*
X220435714Y-98134714D01*
X220544571Y-98098428D01*
X220617142Y-98025857D01*
X220653428Y-97953285D01*
X220689714Y-97808142D01*
X220689714Y-97699285D01*
X220653428Y-97554142D01*
X220617142Y-97481571D01*
X220544571Y-97409000D01*
X220435714Y-97372714D01*
X220363142Y-97372714D01*
X220254285Y-97409000D01*
X220218000Y-97445285D01*
D11*
X138430000Y-104140000D02*
X132715000Y-104140000D01*
X132715000Y-101600000D02*
X138430000Y-101600000D01*
X138430000Y-99060000D02*
X132715000Y-99060000D01*
X132715000Y-96520000D02*
X138430000Y-96520000D01*
X138430000Y-93980000D02*
X132715000Y-93980000D01*
X132715000Y-91440000D02*
X138430000Y-91440000D01*
X138430000Y-88900000D02*
X132715000Y-88900000D01*
X132715000Y-86360000D02*
X138430000Y-86360000D01*
X138430000Y-83820000D02*
X132715000Y-83820000D01*
X138430000Y-81280000D02*
X138430000Y-83820000D01*
X132715000Y-81280000D02*
X138430000Y-81280000D01*
X132715000Y-106680000D02*
X132715000Y-78740000D01*
X138430000Y-106680000D02*
X132715000Y-106680000D01*
X138430000Y-78740000D02*
X138430000Y-106680000D01*
X132715000Y-78740000D02*
X138430000Y-78740000D01*
D10*
X135218714Y-105754714D02*
X135218714Y-104992714D01*
X134783285Y-105754714D01*
X134783285Y-104992714D01*
X133985000Y-105682142D02*
X134021285Y-105718428D01*
X134130142Y-105754714D01*
X134202714Y-105754714D01*
X134311571Y-105718428D01*
X134384142Y-105645857D01*
X134420428Y-105573285D01*
X134456714Y-105428142D01*
X134456714Y-105319285D01*
X134420428Y-105174142D01*
X134384142Y-105101571D01*
X134311571Y-105029000D01*
X134202714Y-104992714D01*
X134130142Y-104992714D01*
X134021285Y-105029000D01*
X133985000Y-105065285D01*
X135218714Y-103214714D02*
X135218714Y-102452714D01*
X134783285Y-103214714D01*
X134783285Y-102452714D01*
X133985000Y-103142142D02*
X134021285Y-103178428D01*
X134130142Y-103214714D01*
X134202714Y-103214714D01*
X134311571Y-103178428D01*
X134384142Y-103105857D01*
X134420428Y-103033285D01*
X134456714Y-102888142D01*
X134456714Y-102779285D01*
X134420428Y-102634142D01*
X134384142Y-102561571D01*
X134311571Y-102489000D01*
X134202714Y-102452714D01*
X134130142Y-102452714D01*
X134021285Y-102489000D01*
X133985000Y-102525285D01*
X135218714Y-100674714D02*
X135218714Y-99912714D01*
X134783285Y-100674714D01*
X134783285Y-99912714D01*
X133985000Y-100602142D02*
X134021285Y-100638428D01*
X134130142Y-100674714D01*
X134202714Y-100674714D01*
X134311571Y-100638428D01*
X134384142Y-100565857D01*
X134420428Y-100493285D01*
X134456714Y-100348142D01*
X134456714Y-100239285D01*
X134420428Y-100094142D01*
X134384142Y-100021571D01*
X134311571Y-99949000D01*
X134202714Y-99912714D01*
X134130142Y-99912714D01*
X134021285Y-99949000D01*
X133985000Y-99985285D01*
X135218714Y-98134714D02*
X135218714Y-97372714D01*
X134783285Y-98134714D01*
X134783285Y-97372714D01*
X133985000Y-98062142D02*
X134021285Y-98098428D01*
X134130142Y-98134714D01*
X134202714Y-98134714D01*
X134311571Y-98098428D01*
X134384142Y-98025857D01*
X134420428Y-97953285D01*
X134456714Y-97808142D01*
X134456714Y-97699285D01*
X134420428Y-97554142D01*
X134384142Y-97481571D01*
X134311571Y-97409000D01*
X134202714Y-97372714D01*
X134130142Y-97372714D01*
X134021285Y-97409000D01*
X133985000Y-97445285D01*
X135218714Y-95594714D02*
X135218714Y-94832714D01*
X134783285Y-95594714D01*
X134783285Y-94832714D01*
X133985000Y-95522142D02*
X134021285Y-95558428D01*
X134130142Y-95594714D01*
X134202714Y-95594714D01*
X134311571Y-95558428D01*
X134384142Y-95485857D01*
X134420428Y-95413285D01*
X134456714Y-95268142D01*
X134456714Y-95159285D01*
X134420428Y-95014142D01*
X134384142Y-94941571D01*
X134311571Y-94869000D01*
X134202714Y-94832714D01*
X134130142Y-94832714D01*
X134021285Y-94869000D01*
X133985000Y-94905285D01*
X135218714Y-93054714D02*
X135218714Y-92292714D01*
X134783285Y-93054714D01*
X134783285Y-92292714D01*
X133985000Y-92982142D02*
X134021285Y-93018428D01*
X134130142Y-93054714D01*
X134202714Y-93054714D01*
X134311571Y-93018428D01*
X134384142Y-92945857D01*
X134420428Y-92873285D01*
X134456714Y-92728142D01*
X134456714Y-92619285D01*
X134420428Y-92474142D01*
X134384142Y-92401571D01*
X134311571Y-92329000D01*
X134202714Y-92292714D01*
X134130142Y-92292714D01*
X134021285Y-92329000D01*
X133985000Y-92365285D01*
X135218714Y-90514714D02*
X135218714Y-89752714D01*
X134783285Y-90514714D01*
X134783285Y-89752714D01*
X133985000Y-90442142D02*
X134021285Y-90478428D01*
X134130142Y-90514714D01*
X134202714Y-90514714D01*
X134311571Y-90478428D01*
X134384142Y-90405857D01*
X134420428Y-90333285D01*
X134456714Y-90188142D01*
X134456714Y-90079285D01*
X134420428Y-89934142D01*
X134384142Y-89861571D01*
X134311571Y-89789000D01*
X134202714Y-89752714D01*
X134130142Y-89752714D01*
X134021285Y-89789000D01*
X133985000Y-89825285D01*
X135527142Y-87974714D02*
X135527142Y-87212714D01*
X135236857Y-87212714D01*
X135164285Y-87249000D01*
X135128000Y-87285285D01*
X135091714Y-87357857D01*
X135091714Y-87466714D01*
X135128000Y-87539285D01*
X135164285Y-87575571D01*
X135236857Y-87611857D01*
X135527142Y-87611857D01*
X134765142Y-87974714D02*
X134765142Y-87212714D01*
X134583714Y-87212714D01*
X134474857Y-87249000D01*
X134402285Y-87321571D01*
X134366000Y-87394142D01*
X134329714Y-87539285D01*
X134329714Y-87648142D01*
X134366000Y-87793285D01*
X134402285Y-87865857D01*
X134474857Y-87938428D01*
X134583714Y-87974714D01*
X134765142Y-87974714D01*
X134039428Y-87757000D02*
X133676571Y-87757000D01*
X134112000Y-87974714D02*
X133858000Y-87212714D01*
X133604000Y-87974714D01*
X135146142Y-85434714D02*
X135509000Y-85434714D01*
X135509000Y-84672714D01*
X134892142Y-85434714D02*
X134892142Y-84672714D01*
X134710714Y-84672714D01*
X134601857Y-84709000D01*
X134529285Y-84781571D01*
X134493000Y-84854142D01*
X134456714Y-84999285D01*
X134456714Y-85108142D01*
X134493000Y-85253285D01*
X134529285Y-85325857D01*
X134601857Y-85398428D01*
X134710714Y-85434714D01*
X134892142Y-85434714D01*
X133694714Y-85362142D02*
X133731000Y-85398428D01*
X133839857Y-85434714D01*
X133912428Y-85434714D01*
X134021285Y-85398428D01*
X134093857Y-85325857D01*
X134130142Y-85253285D01*
X134166428Y-85108142D01*
X134166428Y-84999285D01*
X134130142Y-84854142D01*
X134093857Y-84781571D01*
X134021285Y-84709000D01*
X133912428Y-84672714D01*
X133839857Y-84672714D01*
X133731000Y-84709000D01*
X133694714Y-84745285D01*
X135091714Y-82894714D02*
X135454571Y-82894714D01*
X135454571Y-82132714D01*
X134837714Y-82894714D02*
X134837714Y-82132714D01*
X134656285Y-82132714D01*
X134547428Y-82169000D01*
X134474857Y-82241571D01*
X134438571Y-82314142D01*
X134402285Y-82459285D01*
X134402285Y-82568142D01*
X134438571Y-82713285D01*
X134474857Y-82785857D01*
X134547428Y-82858428D01*
X134656285Y-82894714D01*
X134837714Y-82894714D01*
X134112000Y-82677000D02*
X133749142Y-82677000D01*
X134184571Y-82894714D02*
X133930571Y-82132714D01*
X133676571Y-82894714D01*
X135200571Y-79629000D02*
X135273142Y-79592714D01*
X135382000Y-79592714D01*
X135490857Y-79629000D01*
X135563428Y-79701571D01*
X135599714Y-79774142D01*
X135636000Y-79919285D01*
X135636000Y-80028142D01*
X135599714Y-80173285D01*
X135563428Y-80245857D01*
X135490857Y-80318428D01*
X135382000Y-80354714D01*
X135309428Y-80354714D01*
X135200571Y-80318428D01*
X135164285Y-80282142D01*
X135164285Y-80028142D01*
X135309428Y-80028142D01*
X134837714Y-80354714D02*
X134837714Y-79592714D01*
X134402285Y-80354714D01*
X134402285Y-79592714D01*
X134039428Y-80354714D02*
X134039428Y-79592714D01*
X133858000Y-79592714D01*
X133749142Y-79629000D01*
X133676571Y-79701571D01*
X133640285Y-79774142D01*
X133604000Y-79919285D01*
X133604000Y-80028142D01*
X133640285Y-80173285D01*
X133676571Y-80245857D01*
X133749142Y-80318428D01*
X133858000Y-80354714D01*
X134039428Y-80354714D01*
D12*
X227838000Y-108802714D02*
X228200857Y-108802714D01*
X228200857Y-108040714D01*
X227184857Y-108077000D02*
X227257428Y-108040714D01*
X227366285Y-108040714D01*
X227475142Y-108077000D01*
X227547714Y-108149571D01*
X227584000Y-108222142D01*
X227620285Y-108367285D01*
X227620285Y-108476142D01*
X227584000Y-108621285D01*
X227547714Y-108693857D01*
X227475142Y-108766428D01*
X227366285Y-108802714D01*
X227293714Y-108802714D01*
X227184857Y-108766428D01*
X227148571Y-108730142D01*
X227148571Y-108476142D01*
X227293714Y-108476142D01*
X226314000Y-108040714D02*
X225842285Y-108040714D01*
X226096285Y-108331000D01*
X225987428Y-108331000D01*
X225914857Y-108367285D01*
X225878571Y-108403571D01*
X225842285Y-108476142D01*
X225842285Y-108657571D01*
X225878571Y-108730142D01*
X225914857Y-108766428D01*
X225987428Y-108802714D01*
X226205142Y-108802714D01*
X226277714Y-108766428D01*
X226314000Y-108730142D01*
X225515714Y-108512428D02*
X224935142Y-108512428D01*
X224427142Y-108040714D02*
X224354571Y-108040714D01*
X224282000Y-108077000D01*
X224245714Y-108113285D01*
X224209428Y-108185857D01*
X224173142Y-108331000D01*
X224173142Y-108512428D01*
X224209428Y-108657571D01*
X224245714Y-108730142D01*
X224282000Y-108766428D01*
X224354571Y-108802714D01*
X224427142Y-108802714D01*
X224499714Y-108766428D01*
X224536000Y-108730142D01*
X224572285Y-108657571D01*
X224608571Y-108512428D01*
X224608571Y-108331000D01*
X224572285Y-108185857D01*
X224536000Y-108113285D01*
X224499714Y-108077000D01*
X224427142Y-108040714D01*
X223701428Y-108040714D02*
X223628857Y-108040714D01*
X223556285Y-108077000D01*
X223520000Y-108113285D01*
X223483714Y-108185857D01*
X223447428Y-108331000D01*
X223447428Y-108512428D01*
X223483714Y-108657571D01*
X223520000Y-108730142D01*
X223556285Y-108766428D01*
X223628857Y-108802714D01*
X223701428Y-108802714D01*
X223774000Y-108766428D01*
X223810285Y-108730142D01*
X223846571Y-108657571D01*
X223882857Y-108512428D01*
X223882857Y-108331000D01*
X223846571Y-108185857D01*
X223810285Y-108113285D01*
X223774000Y-108077000D01*
X223701428Y-108040714D01*
X222975714Y-108040714D02*
X222903142Y-108040714D01*
X222830571Y-108077000D01*
X222794285Y-108113285D01*
X222758000Y-108185857D01*
X222721714Y-108331000D01*
X222721714Y-108512428D01*
X222758000Y-108657571D01*
X222794285Y-108730142D01*
X222830571Y-108766428D01*
X222903142Y-108802714D01*
X222975714Y-108802714D01*
X223048285Y-108766428D01*
X223084571Y-108730142D01*
X223120857Y-108657571D01*
X223157142Y-108512428D01*
X223157142Y-108331000D01*
X223120857Y-108185857D01*
X223084571Y-108113285D01*
X223048285Y-108077000D01*
X222975714Y-108040714D01*
X222250000Y-108040714D02*
X222177428Y-108040714D01*
X222104857Y-108077000D01*
X222068571Y-108113285D01*
X222032285Y-108185857D01*
X221996000Y-108331000D01*
X221996000Y-108512428D01*
X222032285Y-108657571D01*
X222068571Y-108730142D01*
X222104857Y-108766428D01*
X222177428Y-108802714D01*
X222250000Y-108802714D01*
X222322571Y-108766428D01*
X222358857Y-108730142D01*
X222395142Y-108657571D01*
X222431428Y-108512428D01*
X222431428Y-108331000D01*
X222395142Y-108185857D01*
X222358857Y-108113285D01*
X222322571Y-108077000D01*
X222250000Y-108040714D01*
X221524285Y-108040714D02*
X221451714Y-108040714D01*
X221379142Y-108077000D01*
X221342857Y-108113285D01*
X221306571Y-108185857D01*
X221270285Y-108331000D01*
X221270285Y-108512428D01*
X221306571Y-108657571D01*
X221342857Y-108730142D01*
X221379142Y-108766428D01*
X221451714Y-108802714D01*
X221524285Y-108802714D01*
X221596857Y-108766428D01*
X221633142Y-108730142D01*
X221669428Y-108657571D01*
X221705714Y-108512428D01*
X221705714Y-108331000D01*
X221669428Y-108185857D01*
X221633142Y-108113285D01*
X221596857Y-108077000D01*
X221524285Y-108040714D01*
X220544571Y-108802714D02*
X220980000Y-108802714D01*
X220762285Y-108802714D02*
X220762285Y-108040714D01*
X220834857Y-108149571D01*
X220907428Y-108222142D01*
X220980000Y-108258428D01*
X219855142Y-108040714D02*
X220218000Y-108040714D01*
X220254285Y-108403571D01*
X220218000Y-108367285D01*
X220145428Y-108331000D01*
X219964000Y-108331000D01*
X219891428Y-108367285D01*
X219855142Y-108403571D01*
X219818857Y-108476142D01*
X219818857Y-108657571D01*
X219855142Y-108730142D01*
X219891428Y-108766428D01*
X219964000Y-108802714D01*
X220145428Y-108802714D01*
X220218000Y-108766428D01*
X220254285Y-108730142D01*
M02*
