G04 #@! TF.GenerationSoftware,KiCad,Pcbnew,(5.1.12)-1*
G04 #@! TF.CreationDate,2022-02-08T10:52:13-06:00*
G04 #@! TF.ProjectId,laser_driver,6c617365-725f-4647-9269-7665722e6b69,4.2*
G04 #@! TF.SameCoordinates,Original*
G04 #@! TF.FileFunction,Soldermask,Top*
G04 #@! TF.FilePolarity,Negative*
%FSLAX46Y46*%
G04 Gerber Fmt 4.6, Leading zero omitted, Abs format (unit mm)*
G04 Created by KiCad (PCBNEW (5.1.12)-1) date 2022-02-08 10:52:13*
%MOMM*%
%LPD*%
G01*
G04 APERTURE LIST*
%ADD10C,0.100000*%
%ADD11C,3.200000*%
%ADD12C,1.620000*%
%ADD13C,1.410000*%
%ADD14C,2.600000*%
%ADD15R,1.700000X1.700000*%
%ADD16C,1.700000*%
G04 APERTURE END LIST*
D10*
X194028000Y-80010000D02*
G75*
G03*
X194028000Y-80010000I-861000J0D01*
G01*
X194028000Y-82550000D02*
G75*
G03*
X194028000Y-82550000I-861000J0D01*
G01*
X194028000Y-85090000D02*
G75*
G03*
X194028000Y-85090000I-861000J0D01*
G01*
X194028000Y-87630000D02*
G75*
G03*
X194028000Y-87630000I-861000J0D01*
G01*
X194028000Y-90170000D02*
G75*
G03*
X194028000Y-90170000I-861000J0D01*
G01*
X194028000Y-92710000D02*
G75*
G03*
X194028000Y-92710000I-861000J0D01*
G01*
X194028000Y-95250000D02*
G75*
G03*
X194028000Y-95250000I-861000J0D01*
G01*
X194028000Y-97790000D02*
G75*
G03*
X194028000Y-97790000I-861000J0D01*
G01*
X194028000Y-100330000D02*
G75*
G03*
X194028000Y-100330000I-861000J0D01*
G01*
X194028000Y-102870000D02*
G75*
G03*
X194028000Y-102870000I-861000J0D01*
G01*
X194028000Y-105410000D02*
G75*
G03*
X194028000Y-105410000I-861000J0D01*
G01*
X137894000Y-80010000D02*
G75*
G03*
X137894000Y-80010000I-861000J0D01*
G01*
X137894000Y-82550000D02*
G75*
G03*
X137894000Y-82550000I-861000J0D01*
G01*
X137894000Y-85090000D02*
G75*
G03*
X137894000Y-85090000I-861000J0D01*
G01*
X137894000Y-87630000D02*
G75*
G03*
X137894000Y-87630000I-861000J0D01*
G01*
X137894000Y-90170000D02*
G75*
G03*
X137894000Y-90170000I-861000J0D01*
G01*
X137894000Y-92710000D02*
G75*
G03*
X137894000Y-92710000I-861000J0D01*
G01*
X137894000Y-95250000D02*
G75*
G03*
X137894000Y-95250000I-861000J0D01*
G01*
X137894000Y-97790000D02*
G75*
G03*
X137894000Y-97790000I-861000J0D01*
G01*
X137894000Y-100330000D02*
G75*
G03*
X137894000Y-100330000I-861000J0D01*
G01*
X137894000Y-102870000D02*
G75*
G03*
X137894000Y-102870000I-861000J0D01*
G01*
X137894000Y-105410000D02*
G75*
G03*
X137894000Y-105410000I-861000J0D01*
G01*
D11*
X142875000Y-105410000D03*
X142875000Y-80010000D03*
X187325000Y-80010000D03*
X187325000Y-105410000D03*
D12*
X193167000Y-105410000D03*
X193167000Y-102870000D03*
X193167000Y-100330000D03*
X193167000Y-97790000D03*
X193167000Y-95250000D03*
X193167000Y-92710000D03*
X193167000Y-90170000D03*
X193167000Y-87630000D03*
X193167000Y-85090000D03*
X193167000Y-82550000D03*
X193167000Y-80010000D03*
X137033000Y-105410000D03*
X137033000Y-102870000D03*
X137033000Y-100330000D03*
X137033000Y-97790000D03*
X137033000Y-95250000D03*
X137033000Y-92710000D03*
X137033000Y-90170000D03*
X137033000Y-87630000D03*
X137033000Y-85090000D03*
X137033000Y-82550000D03*
X137033000Y-80010000D03*
D13*
X178765200Y-80606900D03*
X176225200Y-78066900D03*
X173685200Y-80606900D03*
D14*
X154178000Y-105410000D03*
X161798000Y-105410000D03*
D15*
X181991000Y-100330000D03*
X147955000Y-100330000D03*
D16*
X181991000Y-97790000D03*
X181991000Y-95250000D03*
X181991000Y-92710000D03*
X181991000Y-90170000D03*
X181991000Y-87630000D03*
X181991000Y-85090000D03*
X147955000Y-97790000D03*
X147955000Y-95250000D03*
X147955000Y-92710000D03*
X147955000Y-90170000D03*
X147955000Y-87630000D03*
X147955000Y-85090000D03*
M02*
