G04 #@! TF.GenerationSoftware,KiCad,Pcbnew,(5.1.5)-3*
G04 #@! TF.CreationDate,2020-09-11T08:26:04-05:00*
G04 #@! TF.ProjectId,laser_driver,6c617365-725f-4647-9269-7665722e6b69,4.1*
G04 #@! TF.SameCoordinates,Original*
G04 #@! TF.FileFunction,Copper,L1,Top*
G04 #@! TF.FilePolarity,Positive*
%FSLAX46Y46*%
G04 Gerber Fmt 4.6, Leading zero omitted, Abs format (unit mm)*
G04 Created by KiCad (PCBNEW (5.1.5)-3) date 2020-09-11 08:26:04*
%MOMM*%
%LPD*%
G04 APERTURE LIST*
%ADD10C,1.620000*%
%ADD11C,1.410000*%
%ADD12C,2.600000*%
%ADD13R,1.700000X1.700000*%
%ADD14C,1.700000*%
%ADD15C,1.270000*%
%ADD16C,0.254000*%
G04 APERTURE END LIST*
D10*
X193167000Y-105410000D03*
X193167000Y-102870000D03*
X193167000Y-100330000D03*
X193167000Y-97790000D03*
X193167000Y-95250000D03*
X193167000Y-92710000D03*
X193167000Y-90170000D03*
X193167000Y-87630000D03*
X193167000Y-85090000D03*
X193167000Y-82550000D03*
X193167000Y-80010000D03*
X137033000Y-105410000D03*
X137033000Y-102870000D03*
X137033000Y-100330000D03*
X137033000Y-97790000D03*
X137033000Y-95250000D03*
X137033000Y-92710000D03*
X137033000Y-90170000D03*
X137033000Y-87630000D03*
X137033000Y-85090000D03*
X137033000Y-82550000D03*
X137033000Y-80010000D03*
D11*
X178765200Y-80606900D03*
X176225200Y-78066900D03*
X173685200Y-80606900D03*
D12*
X154178000Y-105410000D03*
X161798000Y-105410000D03*
D13*
X181991000Y-100330000D03*
X147955000Y-100330000D03*
D14*
X181991000Y-97790000D03*
X181991000Y-95250000D03*
X181991000Y-92710000D03*
X181991000Y-90170000D03*
X181991000Y-87630000D03*
X181991000Y-85090000D03*
X147955000Y-97790000D03*
X147955000Y-95250000D03*
X147955000Y-92710000D03*
X147955000Y-90170000D03*
X147955000Y-87630000D03*
X147955000Y-85090000D03*
D15*
X190627000Y-100330000D02*
X193167000Y-97790000D01*
X181991000Y-100330000D02*
X190627000Y-100330000D01*
X193167000Y-97790000D02*
X181991000Y-97790000D01*
X137033000Y-85265846D02*
X139001500Y-87234346D01*
X137033000Y-85090000D02*
X137033000Y-85265846D01*
X139001500Y-87234346D02*
X139001500Y-88722200D01*
X139001500Y-88722200D02*
X140436600Y-90157300D01*
X145402300Y-90157300D02*
X147955000Y-92710000D01*
X140436600Y-90157300D02*
X145402300Y-90157300D01*
X137033000Y-82550000D02*
X138709400Y-82550000D01*
X141249400Y-85090000D02*
X147955000Y-85090000D01*
X138709400Y-82550000D02*
X141249400Y-85090000D01*
X178638200Y-87630000D02*
X181991000Y-87630000D01*
X176225200Y-78066900D02*
X176225200Y-85217000D01*
X176225200Y-85217000D02*
X178638200Y-87630000D01*
X173685200Y-81864200D02*
X173659800Y-81889600D01*
X173685200Y-80606900D02*
X173685200Y-81864200D01*
X173659800Y-81889600D02*
X173659800Y-86398100D01*
X177431700Y-90170000D02*
X181991000Y-90170000D01*
X173659800Y-86398100D02*
X177431700Y-90170000D01*
D16*
G36*
X175590472Y-76879407D02*
G01*
X175371000Y-77026054D01*
X175184354Y-77212700D01*
X175037707Y-77432172D01*
X174936695Y-77676036D01*
X174885200Y-77934921D01*
X174885200Y-78198879D01*
X174936695Y-78457764D01*
X174955200Y-78502439D01*
X174955200Y-80171362D01*
X174872693Y-79972172D01*
X174726046Y-79752700D01*
X174539400Y-79566054D01*
X174319928Y-79419407D01*
X174076064Y-79318395D01*
X173817179Y-79266900D01*
X173553221Y-79266900D01*
X173294336Y-79318395D01*
X173050472Y-79419407D01*
X172831000Y-79566054D01*
X172644354Y-79752700D01*
X172497707Y-79972172D01*
X172396695Y-80216036D01*
X172345200Y-80474921D01*
X172345200Y-80738879D01*
X172396695Y-80997764D01*
X172415200Y-81042439D01*
X172415200Y-81617486D01*
X172408177Y-81640638D01*
X172389800Y-81827221D01*
X172389800Y-81827227D01*
X172383657Y-81889600D01*
X172389800Y-81951973D01*
X172389801Y-86335717D01*
X172383657Y-86398100D01*
X172408177Y-86647063D01*
X172480798Y-86886459D01*
X172598726Y-87107088D01*
X172757431Y-87300470D01*
X172805887Y-87340237D01*
X176489563Y-91023914D01*
X176529330Y-91072370D01*
X176722712Y-91231075D01*
X176943341Y-91349003D01*
X177091709Y-91394010D01*
X177182736Y-91421623D01*
X177208455Y-91424156D01*
X177369320Y-91440000D01*
X177369326Y-91440000D01*
X177431699Y-91446143D01*
X177494072Y-91440000D01*
X181217514Y-91440000D01*
X181142208Y-91681603D01*
X181991000Y-92530395D01*
X182839792Y-91681603D01*
X182764271Y-91439311D01*
X182937632Y-91323475D01*
X183144475Y-91116632D01*
X183306990Y-90873411D01*
X183418932Y-90603158D01*
X183476000Y-90316260D01*
X183476000Y-90023740D01*
X183418932Y-89736842D01*
X183306990Y-89466589D01*
X183144475Y-89223368D01*
X182937632Y-89016525D01*
X182763240Y-88900000D01*
X182937632Y-88783475D01*
X183144475Y-88576632D01*
X183306990Y-88333411D01*
X183418932Y-88063158D01*
X183476000Y-87776260D01*
X183476000Y-87483740D01*
X183418932Y-87196842D01*
X183306990Y-86926589D01*
X183144475Y-86683368D01*
X182937632Y-86476525D01*
X182763240Y-86360000D01*
X182937632Y-86243475D01*
X183144475Y-86036632D01*
X183306990Y-85793411D01*
X183418932Y-85523158D01*
X183476000Y-85236260D01*
X183476000Y-84943740D01*
X183418932Y-84656842D01*
X183306990Y-84386589D01*
X183144475Y-84143368D01*
X182937632Y-83936525D01*
X182694411Y-83774010D01*
X182424158Y-83662068D01*
X182137260Y-83605000D01*
X181844740Y-83605000D01*
X181557842Y-83662068D01*
X181287589Y-83774010D01*
X181044368Y-83936525D01*
X180837525Y-84143368D01*
X180675010Y-84386589D01*
X180563068Y-84656842D01*
X180506000Y-84943740D01*
X180506000Y-85236260D01*
X180563068Y-85523158D01*
X180675010Y-85793411D01*
X180837525Y-86036632D01*
X181044368Y-86243475D01*
X181218760Y-86360000D01*
X179164251Y-86360000D01*
X177495200Y-84690950D01*
X177495200Y-81531743D01*
X178019962Y-81531743D01*
X178080030Y-81766021D01*
X178319330Y-81877418D01*
X178575763Y-81939991D01*
X178839476Y-81951333D01*
X179100335Y-81911010D01*
X179348315Y-81820570D01*
X179450370Y-81766021D01*
X179510438Y-81531743D01*
X178765200Y-80786505D01*
X178019962Y-81531743D01*
X177495200Y-81531743D01*
X177495200Y-81035562D01*
X177551530Y-81190015D01*
X177606079Y-81292070D01*
X177840357Y-81352138D01*
X178585595Y-80606900D01*
X178944805Y-80606900D01*
X179690043Y-81352138D01*
X179924321Y-81292070D01*
X180035718Y-81052770D01*
X180098291Y-80796337D01*
X180109633Y-80532624D01*
X180069310Y-80271765D01*
X179978870Y-80023785D01*
X179924321Y-79921730D01*
X179690043Y-79861662D01*
X178944805Y-80606900D01*
X178585595Y-80606900D01*
X177840357Y-79861662D01*
X177606079Y-79921730D01*
X177495200Y-80159917D01*
X177495200Y-79682057D01*
X178019962Y-79682057D01*
X178765200Y-80427295D01*
X179402623Y-79789872D01*
X185090000Y-79789872D01*
X185090000Y-80230128D01*
X185175890Y-80661925D01*
X185344369Y-81068669D01*
X185588962Y-81434729D01*
X185900271Y-81746038D01*
X186266331Y-81990631D01*
X186673075Y-82159110D01*
X187104872Y-82245000D01*
X187545128Y-82245000D01*
X187976925Y-82159110D01*
X188383669Y-81990631D01*
X188749729Y-81746038D01*
X189061038Y-81434729D01*
X189305631Y-81068669D01*
X189474110Y-80661925D01*
X189560000Y-80230128D01*
X189560000Y-79789872D01*
X189474110Y-79358075D01*
X189305631Y-78951331D01*
X189061038Y-78585271D01*
X188749729Y-78273962D01*
X188383669Y-78029369D01*
X187976925Y-77860890D01*
X187545128Y-77775000D01*
X187104872Y-77775000D01*
X186673075Y-77860890D01*
X186266331Y-78029369D01*
X185900271Y-78273962D01*
X185588962Y-78585271D01*
X185344369Y-78951331D01*
X185175890Y-79358075D01*
X185090000Y-79789872D01*
X179402623Y-79789872D01*
X179510438Y-79682057D01*
X179450370Y-79447779D01*
X179211070Y-79336382D01*
X178954637Y-79273809D01*
X178690924Y-79262467D01*
X178430065Y-79302790D01*
X178182085Y-79393230D01*
X178080030Y-79447779D01*
X178019962Y-79682057D01*
X177495200Y-79682057D01*
X177495200Y-78502439D01*
X177513705Y-78457764D01*
X177565200Y-78198879D01*
X177565200Y-77934921D01*
X177513705Y-77676036D01*
X177412693Y-77432172D01*
X177266046Y-77212700D01*
X177079400Y-77026054D01*
X176859928Y-76879407D01*
X176813075Y-76860000D01*
X202540001Y-76860000D01*
X202540000Y-108560000D01*
X127660000Y-108560000D01*
X127660000Y-82407680D01*
X135588000Y-82407680D01*
X135588000Y-82692320D01*
X135643530Y-82971491D01*
X135752457Y-83234464D01*
X135910595Y-83471134D01*
X136111866Y-83672405D01*
X136332757Y-83820000D01*
X136111866Y-83967595D01*
X135910595Y-84168866D01*
X135752457Y-84405536D01*
X135643530Y-84668509D01*
X135588000Y-84947680D01*
X135588000Y-85232320D01*
X135643530Y-85511491D01*
X135752457Y-85774464D01*
X135910595Y-86011134D01*
X136111866Y-86212405D01*
X136327774Y-86356671D01*
X136331766Y-86360662D01*
X136111866Y-86507595D01*
X135910595Y-86708866D01*
X135752457Y-86945536D01*
X135643530Y-87208509D01*
X135588000Y-87487680D01*
X135588000Y-87772320D01*
X135643530Y-88051491D01*
X135752457Y-88314464D01*
X135910595Y-88551134D01*
X136111866Y-88752405D01*
X136332757Y-88900000D01*
X136111866Y-89047595D01*
X135910595Y-89248866D01*
X135752457Y-89485536D01*
X135643530Y-89748509D01*
X135588000Y-90027680D01*
X135588000Y-90312320D01*
X135643530Y-90591491D01*
X135752457Y-90854464D01*
X135910595Y-91091134D01*
X136111866Y-91292405D01*
X136332757Y-91440000D01*
X136111866Y-91587595D01*
X135910595Y-91788866D01*
X135752457Y-92025536D01*
X135643530Y-92288509D01*
X135588000Y-92567680D01*
X135588000Y-92852320D01*
X135643530Y-93131491D01*
X135752457Y-93394464D01*
X135910595Y-93631134D01*
X136111866Y-93832405D01*
X136332757Y-93980000D01*
X136111866Y-94127595D01*
X135910595Y-94328866D01*
X135752457Y-94565536D01*
X135643530Y-94828509D01*
X135588000Y-95107680D01*
X135588000Y-95392320D01*
X135643530Y-95671491D01*
X135752457Y-95934464D01*
X135910595Y-96171134D01*
X136111866Y-96372405D01*
X136332757Y-96520000D01*
X136111866Y-96667595D01*
X135910595Y-96868866D01*
X135752457Y-97105536D01*
X135643530Y-97368509D01*
X135588000Y-97647680D01*
X135588000Y-97932320D01*
X135643530Y-98211491D01*
X135752457Y-98474464D01*
X135910595Y-98711134D01*
X136111866Y-98912405D01*
X136332757Y-99060000D01*
X136111866Y-99207595D01*
X135910595Y-99408866D01*
X135752457Y-99645536D01*
X135643530Y-99908509D01*
X135588000Y-100187680D01*
X135588000Y-100472320D01*
X135643530Y-100751491D01*
X135752457Y-101014464D01*
X135910595Y-101251134D01*
X136111866Y-101452405D01*
X136332757Y-101600000D01*
X136111866Y-101747595D01*
X135910595Y-101948866D01*
X135752457Y-102185536D01*
X135643530Y-102448509D01*
X135588000Y-102727680D01*
X135588000Y-103012320D01*
X135643530Y-103291491D01*
X135752457Y-103554464D01*
X135910595Y-103791134D01*
X136111866Y-103992405D01*
X136332757Y-104140000D01*
X136111866Y-104287595D01*
X135910595Y-104488866D01*
X135752457Y-104725536D01*
X135643530Y-104988509D01*
X135588000Y-105267680D01*
X135588000Y-105552320D01*
X135643530Y-105831491D01*
X135752457Y-106094464D01*
X135910595Y-106331134D01*
X136111866Y-106532405D01*
X136348536Y-106690543D01*
X136611509Y-106799470D01*
X136890680Y-106855000D01*
X137175320Y-106855000D01*
X137454491Y-106799470D01*
X137717464Y-106690543D01*
X137954134Y-106532405D01*
X138155405Y-106331134D01*
X138313543Y-106094464D01*
X138422470Y-105831491D01*
X138478000Y-105552320D01*
X138478000Y-105267680D01*
X138462524Y-105189872D01*
X140640000Y-105189872D01*
X140640000Y-105630128D01*
X140725890Y-106061925D01*
X140894369Y-106468669D01*
X141138962Y-106834729D01*
X141450271Y-107146038D01*
X141816331Y-107390631D01*
X142223075Y-107559110D01*
X142654872Y-107645000D01*
X143095128Y-107645000D01*
X143526925Y-107559110D01*
X143933669Y-107390631D01*
X144299729Y-107146038D01*
X144611038Y-106834729D01*
X144855631Y-106468669D01*
X145024110Y-106061925D01*
X145110000Y-105630128D01*
X145110000Y-105219419D01*
X152243000Y-105219419D01*
X152243000Y-105600581D01*
X152317361Y-105974419D01*
X152463225Y-106326566D01*
X152674987Y-106643491D01*
X152944509Y-106913013D01*
X153261434Y-107124775D01*
X153613581Y-107270639D01*
X153987419Y-107345000D01*
X154368581Y-107345000D01*
X154742419Y-107270639D01*
X155094566Y-107124775D01*
X155411491Y-106913013D01*
X155681013Y-106643491D01*
X155892775Y-106326566D01*
X156038639Y-105974419D01*
X156113000Y-105600581D01*
X156113000Y-105219419D01*
X159863000Y-105219419D01*
X159863000Y-105600581D01*
X159937361Y-105974419D01*
X160083225Y-106326566D01*
X160294987Y-106643491D01*
X160564509Y-106913013D01*
X160881434Y-107124775D01*
X161233581Y-107270639D01*
X161607419Y-107345000D01*
X161988581Y-107345000D01*
X162362419Y-107270639D01*
X162714566Y-107124775D01*
X163031491Y-106913013D01*
X163301013Y-106643491D01*
X163512775Y-106326566D01*
X163658639Y-105974419D01*
X163733000Y-105600581D01*
X163733000Y-105219419D01*
X163727123Y-105189872D01*
X185090000Y-105189872D01*
X185090000Y-105630128D01*
X185175890Y-106061925D01*
X185344369Y-106468669D01*
X185588962Y-106834729D01*
X185900271Y-107146038D01*
X186266331Y-107390631D01*
X186673075Y-107559110D01*
X187104872Y-107645000D01*
X187545128Y-107645000D01*
X187976925Y-107559110D01*
X188383669Y-107390631D01*
X188749729Y-107146038D01*
X189061038Y-106834729D01*
X189305631Y-106468669D01*
X189329997Y-106409843D01*
X192346762Y-106409843D01*
X192419556Y-106654832D01*
X192676773Y-106776733D01*
X192952829Y-106846110D01*
X193237115Y-106860298D01*
X193518706Y-106818752D01*
X193786783Y-106723068D01*
X193914444Y-106654832D01*
X193987238Y-106409843D01*
X193167000Y-105589605D01*
X192346762Y-106409843D01*
X189329997Y-106409843D01*
X189474110Y-106061925D01*
X189560000Y-105630128D01*
X189560000Y-105480115D01*
X191716702Y-105480115D01*
X191758248Y-105761706D01*
X191853932Y-106029783D01*
X191922168Y-106157444D01*
X192167157Y-106230238D01*
X192987395Y-105410000D01*
X193346605Y-105410000D01*
X194166843Y-106230238D01*
X194411832Y-106157444D01*
X194533733Y-105900227D01*
X194603110Y-105624171D01*
X194617298Y-105339885D01*
X194575752Y-105058294D01*
X194480068Y-104790217D01*
X194411832Y-104662556D01*
X194166843Y-104589762D01*
X193346605Y-105410000D01*
X192987395Y-105410000D01*
X192167157Y-104589762D01*
X191922168Y-104662556D01*
X191800267Y-104919773D01*
X191730890Y-105195829D01*
X191716702Y-105480115D01*
X189560000Y-105480115D01*
X189560000Y-105189872D01*
X189474110Y-104758075D01*
X189305631Y-104351331D01*
X189061038Y-103985271D01*
X188749729Y-103673962D01*
X188383669Y-103429369D01*
X187976925Y-103260890D01*
X187545128Y-103175000D01*
X187104872Y-103175000D01*
X186673075Y-103260890D01*
X186266331Y-103429369D01*
X185900271Y-103673962D01*
X185588962Y-103985271D01*
X185344369Y-104351331D01*
X185175890Y-104758075D01*
X185090000Y-105189872D01*
X163727123Y-105189872D01*
X163658639Y-104845581D01*
X163512775Y-104493434D01*
X163301013Y-104176509D01*
X163031491Y-103906987D01*
X162714566Y-103695225D01*
X162362419Y-103549361D01*
X161988581Y-103475000D01*
X161607419Y-103475000D01*
X161233581Y-103549361D01*
X160881434Y-103695225D01*
X160564509Y-103906987D01*
X160294987Y-104176509D01*
X160083225Y-104493434D01*
X159937361Y-104845581D01*
X159863000Y-105219419D01*
X156113000Y-105219419D01*
X156038639Y-104845581D01*
X155892775Y-104493434D01*
X155681013Y-104176509D01*
X155411491Y-103906987D01*
X155094566Y-103695225D01*
X154742419Y-103549361D01*
X154368581Y-103475000D01*
X153987419Y-103475000D01*
X153613581Y-103549361D01*
X153261434Y-103695225D01*
X152944509Y-103906987D01*
X152674987Y-104176509D01*
X152463225Y-104493434D01*
X152317361Y-104845581D01*
X152243000Y-105219419D01*
X145110000Y-105219419D01*
X145110000Y-105189872D01*
X145024110Y-104758075D01*
X144855631Y-104351331D01*
X144611038Y-103985271D01*
X144299729Y-103673962D01*
X143933669Y-103429369D01*
X143526925Y-103260890D01*
X143095128Y-103175000D01*
X142654872Y-103175000D01*
X142223075Y-103260890D01*
X141816331Y-103429369D01*
X141450271Y-103673962D01*
X141138962Y-103985271D01*
X140894369Y-104351331D01*
X140725890Y-104758075D01*
X140640000Y-105189872D01*
X138462524Y-105189872D01*
X138422470Y-104988509D01*
X138313543Y-104725536D01*
X138155405Y-104488866D01*
X137954134Y-104287595D01*
X137733243Y-104140000D01*
X137954134Y-103992405D01*
X138155405Y-103791134D01*
X138313543Y-103554464D01*
X138422470Y-103291491D01*
X138478000Y-103012320D01*
X138478000Y-102727680D01*
X138422470Y-102448509D01*
X138313543Y-102185536D01*
X138155405Y-101948866D01*
X137954134Y-101747595D01*
X137733243Y-101600000D01*
X137954134Y-101452405D01*
X138155405Y-101251134D01*
X138313543Y-101014464D01*
X138422470Y-100751491D01*
X138478000Y-100472320D01*
X138478000Y-100187680D01*
X138422470Y-99908509D01*
X138313543Y-99645536D01*
X138155405Y-99408866D01*
X137954134Y-99207595D01*
X137733243Y-99060000D01*
X137954134Y-98912405D01*
X138155405Y-98711134D01*
X138313543Y-98474464D01*
X138422470Y-98211491D01*
X138478000Y-97932320D01*
X138478000Y-97647680D01*
X138422470Y-97368509D01*
X138313543Y-97105536D01*
X138155405Y-96868866D01*
X137954134Y-96667595D01*
X137733243Y-96520000D01*
X137954134Y-96372405D01*
X138155405Y-96171134D01*
X138313543Y-95934464D01*
X138422470Y-95671491D01*
X138478000Y-95392320D01*
X138478000Y-95107680D01*
X138422470Y-94828509D01*
X138313543Y-94565536D01*
X138155405Y-94328866D01*
X137954134Y-94127595D01*
X137733243Y-93980000D01*
X137954134Y-93832405D01*
X138155405Y-93631134D01*
X138313543Y-93394464D01*
X138422470Y-93131491D01*
X138478000Y-92852320D01*
X138478000Y-92567680D01*
X138422470Y-92288509D01*
X138313543Y-92025536D01*
X138155405Y-91788866D01*
X137954134Y-91587595D01*
X137733243Y-91440000D01*
X137954134Y-91292405D01*
X138155405Y-91091134D01*
X138313543Y-90854464D01*
X138422470Y-90591491D01*
X138478000Y-90312320D01*
X138478000Y-90027680D01*
X138469824Y-89986574D01*
X139494467Y-91011219D01*
X139534230Y-91059670D01*
X139582680Y-91099432D01*
X139582683Y-91099435D01*
X139598157Y-91112134D01*
X139727612Y-91218375D01*
X139948241Y-91336303D01*
X140187636Y-91408923D01*
X140210947Y-91411219D01*
X140374220Y-91427300D01*
X140374227Y-91427300D01*
X140436600Y-91433443D01*
X140498973Y-91427300D01*
X144876250Y-91427300D01*
X146510918Y-93061969D01*
X146527068Y-93143158D01*
X146639010Y-93413411D01*
X146801525Y-93656632D01*
X147008368Y-93863475D01*
X147182760Y-93980000D01*
X147008368Y-94096525D01*
X146801525Y-94303368D01*
X146639010Y-94546589D01*
X146527068Y-94816842D01*
X146470000Y-95103740D01*
X146470000Y-95396260D01*
X146527068Y-95683158D01*
X146639010Y-95953411D01*
X146801525Y-96196632D01*
X147008368Y-96403475D01*
X147182760Y-96520000D01*
X147008368Y-96636525D01*
X146801525Y-96843368D01*
X146639010Y-97086589D01*
X146527068Y-97356842D01*
X146470000Y-97643740D01*
X146470000Y-97936260D01*
X146527068Y-98223158D01*
X146639010Y-98493411D01*
X146801525Y-98736632D01*
X146933380Y-98868487D01*
X146860820Y-98890498D01*
X146750506Y-98949463D01*
X146653815Y-99028815D01*
X146574463Y-99125506D01*
X146515498Y-99235820D01*
X146479188Y-99355518D01*
X146466928Y-99480000D01*
X146466928Y-101180000D01*
X146479188Y-101304482D01*
X146515498Y-101424180D01*
X146574463Y-101534494D01*
X146653815Y-101631185D01*
X146750506Y-101710537D01*
X146860820Y-101769502D01*
X146980518Y-101805812D01*
X147105000Y-101818072D01*
X148805000Y-101818072D01*
X148929482Y-101805812D01*
X149049180Y-101769502D01*
X149159494Y-101710537D01*
X149256185Y-101631185D01*
X149335537Y-101534494D01*
X149394502Y-101424180D01*
X149430812Y-101304482D01*
X149443072Y-101180000D01*
X149443072Y-99480000D01*
X180502928Y-99480000D01*
X180502928Y-101180000D01*
X180515188Y-101304482D01*
X180551498Y-101424180D01*
X180610463Y-101534494D01*
X180689815Y-101631185D01*
X180786506Y-101710537D01*
X180896820Y-101769502D01*
X181016518Y-101805812D01*
X181141000Y-101818072D01*
X182841000Y-101818072D01*
X182965482Y-101805812D01*
X183085180Y-101769502D01*
X183195494Y-101710537D01*
X183292185Y-101631185D01*
X183317778Y-101600000D01*
X190564627Y-101600000D01*
X190627000Y-101606143D01*
X190689373Y-101600000D01*
X190689380Y-101600000D01*
X190875963Y-101581623D01*
X191115359Y-101509003D01*
X191335988Y-101391075D01*
X191529370Y-101232370D01*
X191569141Y-101183909D01*
X191843147Y-100909904D01*
X191886457Y-101014464D01*
X192044595Y-101251134D01*
X192245866Y-101452405D01*
X192466757Y-101600000D01*
X192245866Y-101747595D01*
X192044595Y-101948866D01*
X191886457Y-102185536D01*
X191777530Y-102448509D01*
X191722000Y-102727680D01*
X191722000Y-103012320D01*
X191777530Y-103291491D01*
X191886457Y-103554464D01*
X192044595Y-103791134D01*
X192245866Y-103992405D01*
X192466706Y-104139966D01*
X192419556Y-104165168D01*
X192346762Y-104410157D01*
X193167000Y-105230395D01*
X193987238Y-104410157D01*
X193914444Y-104165168D01*
X193864793Y-104141637D01*
X194088134Y-103992405D01*
X194289405Y-103791134D01*
X194447543Y-103554464D01*
X194556470Y-103291491D01*
X194612000Y-103012320D01*
X194612000Y-102727680D01*
X194556470Y-102448509D01*
X194447543Y-102185536D01*
X194289405Y-101948866D01*
X194088134Y-101747595D01*
X193867243Y-101600000D01*
X194088134Y-101452405D01*
X194289405Y-101251134D01*
X194447543Y-101014464D01*
X194556470Y-100751491D01*
X194612000Y-100472320D01*
X194612000Y-100187680D01*
X194556470Y-99908509D01*
X194447543Y-99645536D01*
X194289405Y-99408866D01*
X194088134Y-99207595D01*
X193867243Y-99060000D01*
X194088134Y-98912405D01*
X194289405Y-98711134D01*
X194447543Y-98474464D01*
X194556470Y-98211491D01*
X194612000Y-97932320D01*
X194612000Y-97647680D01*
X194556470Y-97368509D01*
X194447543Y-97105536D01*
X194289405Y-96868866D01*
X194088134Y-96667595D01*
X193867243Y-96520000D01*
X194088134Y-96372405D01*
X194289405Y-96171134D01*
X194447543Y-95934464D01*
X194556470Y-95671491D01*
X194612000Y-95392320D01*
X194612000Y-95107680D01*
X194556470Y-94828509D01*
X194447543Y-94565536D01*
X194289405Y-94328866D01*
X194088134Y-94127595D01*
X193867243Y-93980000D01*
X194088134Y-93832405D01*
X194289405Y-93631134D01*
X194447543Y-93394464D01*
X194556470Y-93131491D01*
X194612000Y-92852320D01*
X194612000Y-92567680D01*
X194556470Y-92288509D01*
X194447543Y-92025536D01*
X194289405Y-91788866D01*
X194088134Y-91587595D01*
X193867243Y-91440000D01*
X194088134Y-91292405D01*
X194289405Y-91091134D01*
X194447543Y-90854464D01*
X194556470Y-90591491D01*
X194612000Y-90312320D01*
X194612000Y-90027680D01*
X194556470Y-89748509D01*
X194447543Y-89485536D01*
X194289405Y-89248866D01*
X194088134Y-89047595D01*
X193867243Y-88900000D01*
X194088134Y-88752405D01*
X194289405Y-88551134D01*
X194447543Y-88314464D01*
X194556470Y-88051491D01*
X194612000Y-87772320D01*
X194612000Y-87487680D01*
X194556470Y-87208509D01*
X194447543Y-86945536D01*
X194289405Y-86708866D01*
X194088134Y-86507595D01*
X193867243Y-86360000D01*
X194088134Y-86212405D01*
X194289405Y-86011134D01*
X194447543Y-85774464D01*
X194556470Y-85511491D01*
X194612000Y-85232320D01*
X194612000Y-84947680D01*
X194556470Y-84668509D01*
X194447543Y-84405536D01*
X194289405Y-84168866D01*
X194088134Y-83967595D01*
X193867243Y-83820000D01*
X194088134Y-83672405D01*
X194289405Y-83471134D01*
X194447543Y-83234464D01*
X194556470Y-82971491D01*
X194612000Y-82692320D01*
X194612000Y-82407680D01*
X194556470Y-82128509D01*
X194447543Y-81865536D01*
X194289405Y-81628866D01*
X194088134Y-81427595D01*
X193867243Y-81280000D01*
X194088134Y-81132405D01*
X194289405Y-80931134D01*
X194447543Y-80694464D01*
X194556470Y-80431491D01*
X194612000Y-80152320D01*
X194612000Y-79867680D01*
X194556470Y-79588509D01*
X194447543Y-79325536D01*
X194289405Y-79088866D01*
X194088134Y-78887595D01*
X193851464Y-78729457D01*
X193588491Y-78620530D01*
X193309320Y-78565000D01*
X193024680Y-78565000D01*
X192745509Y-78620530D01*
X192482536Y-78729457D01*
X192245866Y-78887595D01*
X192044595Y-79088866D01*
X191886457Y-79325536D01*
X191777530Y-79588509D01*
X191722000Y-79867680D01*
X191722000Y-80152320D01*
X191777530Y-80431491D01*
X191886457Y-80694464D01*
X192044595Y-80931134D01*
X192245866Y-81132405D01*
X192466757Y-81280000D01*
X192245866Y-81427595D01*
X192044595Y-81628866D01*
X191886457Y-81865536D01*
X191777530Y-82128509D01*
X191722000Y-82407680D01*
X191722000Y-82692320D01*
X191777530Y-82971491D01*
X191886457Y-83234464D01*
X192044595Y-83471134D01*
X192245866Y-83672405D01*
X192466757Y-83820000D01*
X192245866Y-83967595D01*
X192044595Y-84168866D01*
X191886457Y-84405536D01*
X191777530Y-84668509D01*
X191722000Y-84947680D01*
X191722000Y-85232320D01*
X191777530Y-85511491D01*
X191886457Y-85774464D01*
X192044595Y-86011134D01*
X192245866Y-86212405D01*
X192466757Y-86360000D01*
X192245866Y-86507595D01*
X192044595Y-86708866D01*
X191886457Y-86945536D01*
X191777530Y-87208509D01*
X191722000Y-87487680D01*
X191722000Y-87772320D01*
X191777530Y-88051491D01*
X191886457Y-88314464D01*
X192044595Y-88551134D01*
X192245866Y-88752405D01*
X192466757Y-88900000D01*
X192245866Y-89047595D01*
X192044595Y-89248866D01*
X191886457Y-89485536D01*
X191777530Y-89748509D01*
X191722000Y-90027680D01*
X191722000Y-90312320D01*
X191777530Y-90591491D01*
X191886457Y-90854464D01*
X192044595Y-91091134D01*
X192245866Y-91292405D01*
X192466757Y-91440000D01*
X192245866Y-91587595D01*
X192044595Y-91788866D01*
X191886457Y-92025536D01*
X191777530Y-92288509D01*
X191722000Y-92567680D01*
X191722000Y-92852320D01*
X191777530Y-93131491D01*
X191886457Y-93394464D01*
X192044595Y-93631134D01*
X192245866Y-93832405D01*
X192466757Y-93980000D01*
X192245866Y-94127595D01*
X192044595Y-94328866D01*
X191886457Y-94565536D01*
X191777530Y-94828509D01*
X191722000Y-95107680D01*
X191722000Y-95392320D01*
X191777530Y-95671491D01*
X191886457Y-95934464D01*
X192044595Y-96171134D01*
X192245866Y-96372405D01*
X192466757Y-96520000D01*
X182764486Y-96520000D01*
X182839792Y-96278397D01*
X181991000Y-95429605D01*
X181142208Y-96278397D01*
X181217729Y-96520689D01*
X181044368Y-96636525D01*
X180837525Y-96843368D01*
X180675010Y-97086589D01*
X180563068Y-97356842D01*
X180506000Y-97643740D01*
X180506000Y-97936260D01*
X180563068Y-98223158D01*
X180675010Y-98493411D01*
X180837525Y-98736632D01*
X180969380Y-98868487D01*
X180896820Y-98890498D01*
X180786506Y-98949463D01*
X180689815Y-99028815D01*
X180610463Y-99125506D01*
X180551498Y-99235820D01*
X180515188Y-99355518D01*
X180502928Y-99480000D01*
X149443072Y-99480000D01*
X149430812Y-99355518D01*
X149394502Y-99235820D01*
X149335537Y-99125506D01*
X149256185Y-99028815D01*
X149159494Y-98949463D01*
X149049180Y-98890498D01*
X148976620Y-98868487D01*
X149108475Y-98736632D01*
X149270990Y-98493411D01*
X149382932Y-98223158D01*
X149440000Y-97936260D01*
X149440000Y-97643740D01*
X149382932Y-97356842D01*
X149270990Y-97086589D01*
X149108475Y-96843368D01*
X148901632Y-96636525D01*
X148727240Y-96520000D01*
X148901632Y-96403475D01*
X149108475Y-96196632D01*
X149270990Y-95953411D01*
X149382932Y-95683158D01*
X149440000Y-95396260D01*
X149440000Y-95318531D01*
X180500389Y-95318531D01*
X180542401Y-95608019D01*
X180640081Y-95883747D01*
X180713528Y-96021157D01*
X180962603Y-96098792D01*
X181811395Y-95250000D01*
X182170605Y-95250000D01*
X183019397Y-96098792D01*
X183268472Y-96021157D01*
X183394371Y-95757117D01*
X183466339Y-95473589D01*
X183481611Y-95181469D01*
X183439599Y-94891981D01*
X183341919Y-94616253D01*
X183268472Y-94478843D01*
X183019397Y-94401208D01*
X182170605Y-95250000D01*
X181811395Y-95250000D01*
X180962603Y-94401208D01*
X180713528Y-94478843D01*
X180587629Y-94742883D01*
X180515661Y-95026411D01*
X180500389Y-95318531D01*
X149440000Y-95318531D01*
X149440000Y-95103740D01*
X149382932Y-94816842D01*
X149270990Y-94546589D01*
X149108475Y-94303368D01*
X148901632Y-94096525D01*
X148727240Y-93980000D01*
X148901632Y-93863475D01*
X149026710Y-93738397D01*
X181142208Y-93738397D01*
X181217514Y-93980000D01*
X181142208Y-94221603D01*
X181991000Y-95070395D01*
X182839792Y-94221603D01*
X182764486Y-93980000D01*
X182839792Y-93738397D01*
X181991000Y-92889605D01*
X181142208Y-93738397D01*
X149026710Y-93738397D01*
X149108475Y-93656632D01*
X149270990Y-93413411D01*
X149382932Y-93143158D01*
X149440000Y-92856260D01*
X149440000Y-92778531D01*
X180500389Y-92778531D01*
X180542401Y-93068019D01*
X180640081Y-93343747D01*
X180713528Y-93481157D01*
X180962603Y-93558792D01*
X181811395Y-92710000D01*
X182170605Y-92710000D01*
X183019397Y-93558792D01*
X183268472Y-93481157D01*
X183394371Y-93217117D01*
X183466339Y-92933589D01*
X183481611Y-92641469D01*
X183439599Y-92351981D01*
X183341919Y-92076253D01*
X183268472Y-91938843D01*
X183019397Y-91861208D01*
X182170605Y-92710000D01*
X181811395Y-92710000D01*
X180962603Y-91861208D01*
X180713528Y-91938843D01*
X180587629Y-92202883D01*
X180515661Y-92486411D01*
X180500389Y-92778531D01*
X149440000Y-92778531D01*
X149440000Y-92563740D01*
X149382932Y-92276842D01*
X149270990Y-92006589D01*
X149108475Y-91763368D01*
X148901632Y-91556525D01*
X148727240Y-91440000D01*
X148901632Y-91323475D01*
X149108475Y-91116632D01*
X149270990Y-90873411D01*
X149382932Y-90603158D01*
X149440000Y-90316260D01*
X149440000Y-90023740D01*
X149382932Y-89736842D01*
X149270990Y-89466589D01*
X149108475Y-89223368D01*
X148901632Y-89016525D01*
X148727240Y-88900000D01*
X148901632Y-88783475D01*
X149108475Y-88576632D01*
X149270990Y-88333411D01*
X149382932Y-88063158D01*
X149440000Y-87776260D01*
X149440000Y-87483740D01*
X149382932Y-87196842D01*
X149270990Y-86926589D01*
X149108475Y-86683368D01*
X148901632Y-86476525D01*
X148727240Y-86360000D01*
X148901632Y-86243475D01*
X149108475Y-86036632D01*
X149270990Y-85793411D01*
X149382932Y-85523158D01*
X149440000Y-85236260D01*
X149440000Y-84943740D01*
X149382932Y-84656842D01*
X149270990Y-84386589D01*
X149108475Y-84143368D01*
X148901632Y-83936525D01*
X148658411Y-83774010D01*
X148388158Y-83662068D01*
X148101260Y-83605000D01*
X147808740Y-83605000D01*
X147521842Y-83662068D01*
X147251589Y-83774010D01*
X147182760Y-83820000D01*
X141775451Y-83820000D01*
X139651541Y-81696091D01*
X139611770Y-81647630D01*
X139418388Y-81488925D01*
X139197759Y-81370997D01*
X138958363Y-81298377D01*
X138771780Y-81280000D01*
X138771773Y-81280000D01*
X138709400Y-81273857D01*
X138647027Y-81280000D01*
X137733358Y-81280000D01*
X137780444Y-81254832D01*
X137853238Y-81009843D01*
X137033000Y-80189605D01*
X136212762Y-81009843D01*
X136285556Y-81254832D01*
X136335207Y-81278363D01*
X136111866Y-81427595D01*
X135910595Y-81628866D01*
X135752457Y-81865536D01*
X135643530Y-82128509D01*
X135588000Y-82407680D01*
X127660000Y-82407680D01*
X127660000Y-80080115D01*
X135582702Y-80080115D01*
X135624248Y-80361706D01*
X135719932Y-80629783D01*
X135788168Y-80757444D01*
X136033157Y-80830238D01*
X136853395Y-80010000D01*
X137212605Y-80010000D01*
X138032843Y-80830238D01*
X138277832Y-80757444D01*
X138399733Y-80500227D01*
X138469110Y-80224171D01*
X138483298Y-79939885D01*
X138461166Y-79789872D01*
X140640000Y-79789872D01*
X140640000Y-80230128D01*
X140725890Y-80661925D01*
X140894369Y-81068669D01*
X141138962Y-81434729D01*
X141450271Y-81746038D01*
X141816331Y-81990631D01*
X142223075Y-82159110D01*
X142654872Y-82245000D01*
X143095128Y-82245000D01*
X143526925Y-82159110D01*
X143933669Y-81990631D01*
X144299729Y-81746038D01*
X144611038Y-81434729D01*
X144855631Y-81068669D01*
X145024110Y-80661925D01*
X145110000Y-80230128D01*
X145110000Y-79789872D01*
X145024110Y-79358075D01*
X144855631Y-78951331D01*
X144611038Y-78585271D01*
X144299729Y-78273962D01*
X143933669Y-78029369D01*
X143526925Y-77860890D01*
X143095128Y-77775000D01*
X142654872Y-77775000D01*
X142223075Y-77860890D01*
X141816331Y-78029369D01*
X141450271Y-78273962D01*
X141138962Y-78585271D01*
X140894369Y-78951331D01*
X140725890Y-79358075D01*
X140640000Y-79789872D01*
X138461166Y-79789872D01*
X138441752Y-79658294D01*
X138346068Y-79390217D01*
X138277832Y-79262556D01*
X138032843Y-79189762D01*
X137212605Y-80010000D01*
X136853395Y-80010000D01*
X136033157Y-79189762D01*
X135788168Y-79262556D01*
X135666267Y-79519773D01*
X135596890Y-79795829D01*
X135582702Y-80080115D01*
X127660000Y-80080115D01*
X127660000Y-79010157D01*
X136212762Y-79010157D01*
X137033000Y-79830395D01*
X137853238Y-79010157D01*
X137780444Y-78765168D01*
X137523227Y-78643267D01*
X137247171Y-78573890D01*
X136962885Y-78559702D01*
X136681294Y-78601248D01*
X136413217Y-78696932D01*
X136285556Y-78765168D01*
X136212762Y-79010157D01*
X127660000Y-79010157D01*
X127660000Y-76860000D01*
X175637325Y-76860000D01*
X175590472Y-76879407D01*
G37*
X175590472Y-76879407D02*
X175371000Y-77026054D01*
X175184354Y-77212700D01*
X175037707Y-77432172D01*
X174936695Y-77676036D01*
X174885200Y-77934921D01*
X174885200Y-78198879D01*
X174936695Y-78457764D01*
X174955200Y-78502439D01*
X174955200Y-80171362D01*
X174872693Y-79972172D01*
X174726046Y-79752700D01*
X174539400Y-79566054D01*
X174319928Y-79419407D01*
X174076064Y-79318395D01*
X173817179Y-79266900D01*
X173553221Y-79266900D01*
X173294336Y-79318395D01*
X173050472Y-79419407D01*
X172831000Y-79566054D01*
X172644354Y-79752700D01*
X172497707Y-79972172D01*
X172396695Y-80216036D01*
X172345200Y-80474921D01*
X172345200Y-80738879D01*
X172396695Y-80997764D01*
X172415200Y-81042439D01*
X172415200Y-81617486D01*
X172408177Y-81640638D01*
X172389800Y-81827221D01*
X172389800Y-81827227D01*
X172383657Y-81889600D01*
X172389800Y-81951973D01*
X172389801Y-86335717D01*
X172383657Y-86398100D01*
X172408177Y-86647063D01*
X172480798Y-86886459D01*
X172598726Y-87107088D01*
X172757431Y-87300470D01*
X172805887Y-87340237D01*
X176489563Y-91023914D01*
X176529330Y-91072370D01*
X176722712Y-91231075D01*
X176943341Y-91349003D01*
X177091709Y-91394010D01*
X177182736Y-91421623D01*
X177208455Y-91424156D01*
X177369320Y-91440000D01*
X177369326Y-91440000D01*
X177431699Y-91446143D01*
X177494072Y-91440000D01*
X181217514Y-91440000D01*
X181142208Y-91681603D01*
X181991000Y-92530395D01*
X182839792Y-91681603D01*
X182764271Y-91439311D01*
X182937632Y-91323475D01*
X183144475Y-91116632D01*
X183306990Y-90873411D01*
X183418932Y-90603158D01*
X183476000Y-90316260D01*
X183476000Y-90023740D01*
X183418932Y-89736842D01*
X183306990Y-89466589D01*
X183144475Y-89223368D01*
X182937632Y-89016525D01*
X182763240Y-88900000D01*
X182937632Y-88783475D01*
X183144475Y-88576632D01*
X183306990Y-88333411D01*
X183418932Y-88063158D01*
X183476000Y-87776260D01*
X183476000Y-87483740D01*
X183418932Y-87196842D01*
X183306990Y-86926589D01*
X183144475Y-86683368D01*
X182937632Y-86476525D01*
X182763240Y-86360000D01*
X182937632Y-86243475D01*
X183144475Y-86036632D01*
X183306990Y-85793411D01*
X183418932Y-85523158D01*
X183476000Y-85236260D01*
X183476000Y-84943740D01*
X183418932Y-84656842D01*
X183306990Y-84386589D01*
X183144475Y-84143368D01*
X182937632Y-83936525D01*
X182694411Y-83774010D01*
X182424158Y-83662068D01*
X182137260Y-83605000D01*
X181844740Y-83605000D01*
X181557842Y-83662068D01*
X181287589Y-83774010D01*
X181044368Y-83936525D01*
X180837525Y-84143368D01*
X180675010Y-84386589D01*
X180563068Y-84656842D01*
X180506000Y-84943740D01*
X180506000Y-85236260D01*
X180563068Y-85523158D01*
X180675010Y-85793411D01*
X180837525Y-86036632D01*
X181044368Y-86243475D01*
X181218760Y-86360000D01*
X179164251Y-86360000D01*
X177495200Y-84690950D01*
X177495200Y-81531743D01*
X178019962Y-81531743D01*
X178080030Y-81766021D01*
X178319330Y-81877418D01*
X178575763Y-81939991D01*
X178839476Y-81951333D01*
X179100335Y-81911010D01*
X179348315Y-81820570D01*
X179450370Y-81766021D01*
X179510438Y-81531743D01*
X178765200Y-80786505D01*
X178019962Y-81531743D01*
X177495200Y-81531743D01*
X177495200Y-81035562D01*
X177551530Y-81190015D01*
X177606079Y-81292070D01*
X177840357Y-81352138D01*
X178585595Y-80606900D01*
X178944805Y-80606900D01*
X179690043Y-81352138D01*
X179924321Y-81292070D01*
X180035718Y-81052770D01*
X180098291Y-80796337D01*
X180109633Y-80532624D01*
X180069310Y-80271765D01*
X179978870Y-80023785D01*
X179924321Y-79921730D01*
X179690043Y-79861662D01*
X178944805Y-80606900D01*
X178585595Y-80606900D01*
X177840357Y-79861662D01*
X177606079Y-79921730D01*
X177495200Y-80159917D01*
X177495200Y-79682057D01*
X178019962Y-79682057D01*
X178765200Y-80427295D01*
X179402623Y-79789872D01*
X185090000Y-79789872D01*
X185090000Y-80230128D01*
X185175890Y-80661925D01*
X185344369Y-81068669D01*
X185588962Y-81434729D01*
X185900271Y-81746038D01*
X186266331Y-81990631D01*
X186673075Y-82159110D01*
X187104872Y-82245000D01*
X187545128Y-82245000D01*
X187976925Y-82159110D01*
X188383669Y-81990631D01*
X188749729Y-81746038D01*
X189061038Y-81434729D01*
X189305631Y-81068669D01*
X189474110Y-80661925D01*
X189560000Y-80230128D01*
X189560000Y-79789872D01*
X189474110Y-79358075D01*
X189305631Y-78951331D01*
X189061038Y-78585271D01*
X188749729Y-78273962D01*
X188383669Y-78029369D01*
X187976925Y-77860890D01*
X187545128Y-77775000D01*
X187104872Y-77775000D01*
X186673075Y-77860890D01*
X186266331Y-78029369D01*
X185900271Y-78273962D01*
X185588962Y-78585271D01*
X185344369Y-78951331D01*
X185175890Y-79358075D01*
X185090000Y-79789872D01*
X179402623Y-79789872D01*
X179510438Y-79682057D01*
X179450370Y-79447779D01*
X179211070Y-79336382D01*
X178954637Y-79273809D01*
X178690924Y-79262467D01*
X178430065Y-79302790D01*
X178182085Y-79393230D01*
X178080030Y-79447779D01*
X178019962Y-79682057D01*
X177495200Y-79682057D01*
X177495200Y-78502439D01*
X177513705Y-78457764D01*
X177565200Y-78198879D01*
X177565200Y-77934921D01*
X177513705Y-77676036D01*
X177412693Y-77432172D01*
X177266046Y-77212700D01*
X177079400Y-77026054D01*
X176859928Y-76879407D01*
X176813075Y-76860000D01*
X202540001Y-76860000D01*
X202540000Y-108560000D01*
X127660000Y-108560000D01*
X127660000Y-82407680D01*
X135588000Y-82407680D01*
X135588000Y-82692320D01*
X135643530Y-82971491D01*
X135752457Y-83234464D01*
X135910595Y-83471134D01*
X136111866Y-83672405D01*
X136332757Y-83820000D01*
X136111866Y-83967595D01*
X135910595Y-84168866D01*
X135752457Y-84405536D01*
X135643530Y-84668509D01*
X135588000Y-84947680D01*
X135588000Y-85232320D01*
X135643530Y-85511491D01*
X135752457Y-85774464D01*
X135910595Y-86011134D01*
X136111866Y-86212405D01*
X136327774Y-86356671D01*
X136331766Y-86360662D01*
X136111866Y-86507595D01*
X135910595Y-86708866D01*
X135752457Y-86945536D01*
X135643530Y-87208509D01*
X135588000Y-87487680D01*
X135588000Y-87772320D01*
X135643530Y-88051491D01*
X135752457Y-88314464D01*
X135910595Y-88551134D01*
X136111866Y-88752405D01*
X136332757Y-88900000D01*
X136111866Y-89047595D01*
X135910595Y-89248866D01*
X135752457Y-89485536D01*
X135643530Y-89748509D01*
X135588000Y-90027680D01*
X135588000Y-90312320D01*
X135643530Y-90591491D01*
X135752457Y-90854464D01*
X135910595Y-91091134D01*
X136111866Y-91292405D01*
X136332757Y-91440000D01*
X136111866Y-91587595D01*
X135910595Y-91788866D01*
X135752457Y-92025536D01*
X135643530Y-92288509D01*
X135588000Y-92567680D01*
X135588000Y-92852320D01*
X135643530Y-93131491D01*
X135752457Y-93394464D01*
X135910595Y-93631134D01*
X136111866Y-93832405D01*
X136332757Y-93980000D01*
X136111866Y-94127595D01*
X135910595Y-94328866D01*
X135752457Y-94565536D01*
X135643530Y-94828509D01*
X135588000Y-95107680D01*
X135588000Y-95392320D01*
X135643530Y-95671491D01*
X135752457Y-95934464D01*
X135910595Y-96171134D01*
X136111866Y-96372405D01*
X136332757Y-96520000D01*
X136111866Y-96667595D01*
X135910595Y-96868866D01*
X135752457Y-97105536D01*
X135643530Y-97368509D01*
X135588000Y-97647680D01*
X135588000Y-97932320D01*
X135643530Y-98211491D01*
X135752457Y-98474464D01*
X135910595Y-98711134D01*
X136111866Y-98912405D01*
X136332757Y-99060000D01*
X136111866Y-99207595D01*
X135910595Y-99408866D01*
X135752457Y-99645536D01*
X135643530Y-99908509D01*
X135588000Y-100187680D01*
X135588000Y-100472320D01*
X135643530Y-100751491D01*
X135752457Y-101014464D01*
X135910595Y-101251134D01*
X136111866Y-101452405D01*
X136332757Y-101600000D01*
X136111866Y-101747595D01*
X135910595Y-101948866D01*
X135752457Y-102185536D01*
X135643530Y-102448509D01*
X135588000Y-102727680D01*
X135588000Y-103012320D01*
X135643530Y-103291491D01*
X135752457Y-103554464D01*
X135910595Y-103791134D01*
X136111866Y-103992405D01*
X136332757Y-104140000D01*
X136111866Y-104287595D01*
X135910595Y-104488866D01*
X135752457Y-104725536D01*
X135643530Y-104988509D01*
X135588000Y-105267680D01*
X135588000Y-105552320D01*
X135643530Y-105831491D01*
X135752457Y-106094464D01*
X135910595Y-106331134D01*
X136111866Y-106532405D01*
X136348536Y-106690543D01*
X136611509Y-106799470D01*
X136890680Y-106855000D01*
X137175320Y-106855000D01*
X137454491Y-106799470D01*
X137717464Y-106690543D01*
X137954134Y-106532405D01*
X138155405Y-106331134D01*
X138313543Y-106094464D01*
X138422470Y-105831491D01*
X138478000Y-105552320D01*
X138478000Y-105267680D01*
X138462524Y-105189872D01*
X140640000Y-105189872D01*
X140640000Y-105630128D01*
X140725890Y-106061925D01*
X140894369Y-106468669D01*
X141138962Y-106834729D01*
X141450271Y-107146038D01*
X141816331Y-107390631D01*
X142223075Y-107559110D01*
X142654872Y-107645000D01*
X143095128Y-107645000D01*
X143526925Y-107559110D01*
X143933669Y-107390631D01*
X144299729Y-107146038D01*
X144611038Y-106834729D01*
X144855631Y-106468669D01*
X145024110Y-106061925D01*
X145110000Y-105630128D01*
X145110000Y-105219419D01*
X152243000Y-105219419D01*
X152243000Y-105600581D01*
X152317361Y-105974419D01*
X152463225Y-106326566D01*
X152674987Y-106643491D01*
X152944509Y-106913013D01*
X153261434Y-107124775D01*
X153613581Y-107270639D01*
X153987419Y-107345000D01*
X154368581Y-107345000D01*
X154742419Y-107270639D01*
X155094566Y-107124775D01*
X155411491Y-106913013D01*
X155681013Y-106643491D01*
X155892775Y-106326566D01*
X156038639Y-105974419D01*
X156113000Y-105600581D01*
X156113000Y-105219419D01*
X159863000Y-105219419D01*
X159863000Y-105600581D01*
X159937361Y-105974419D01*
X160083225Y-106326566D01*
X160294987Y-106643491D01*
X160564509Y-106913013D01*
X160881434Y-107124775D01*
X161233581Y-107270639D01*
X161607419Y-107345000D01*
X161988581Y-107345000D01*
X162362419Y-107270639D01*
X162714566Y-107124775D01*
X163031491Y-106913013D01*
X163301013Y-106643491D01*
X163512775Y-106326566D01*
X163658639Y-105974419D01*
X163733000Y-105600581D01*
X163733000Y-105219419D01*
X163727123Y-105189872D01*
X185090000Y-105189872D01*
X185090000Y-105630128D01*
X185175890Y-106061925D01*
X185344369Y-106468669D01*
X185588962Y-106834729D01*
X185900271Y-107146038D01*
X186266331Y-107390631D01*
X186673075Y-107559110D01*
X187104872Y-107645000D01*
X187545128Y-107645000D01*
X187976925Y-107559110D01*
X188383669Y-107390631D01*
X188749729Y-107146038D01*
X189061038Y-106834729D01*
X189305631Y-106468669D01*
X189329997Y-106409843D01*
X192346762Y-106409843D01*
X192419556Y-106654832D01*
X192676773Y-106776733D01*
X192952829Y-106846110D01*
X193237115Y-106860298D01*
X193518706Y-106818752D01*
X193786783Y-106723068D01*
X193914444Y-106654832D01*
X193987238Y-106409843D01*
X193167000Y-105589605D01*
X192346762Y-106409843D01*
X189329997Y-106409843D01*
X189474110Y-106061925D01*
X189560000Y-105630128D01*
X189560000Y-105480115D01*
X191716702Y-105480115D01*
X191758248Y-105761706D01*
X191853932Y-106029783D01*
X191922168Y-106157444D01*
X192167157Y-106230238D01*
X192987395Y-105410000D01*
X193346605Y-105410000D01*
X194166843Y-106230238D01*
X194411832Y-106157444D01*
X194533733Y-105900227D01*
X194603110Y-105624171D01*
X194617298Y-105339885D01*
X194575752Y-105058294D01*
X194480068Y-104790217D01*
X194411832Y-104662556D01*
X194166843Y-104589762D01*
X193346605Y-105410000D01*
X192987395Y-105410000D01*
X192167157Y-104589762D01*
X191922168Y-104662556D01*
X191800267Y-104919773D01*
X191730890Y-105195829D01*
X191716702Y-105480115D01*
X189560000Y-105480115D01*
X189560000Y-105189872D01*
X189474110Y-104758075D01*
X189305631Y-104351331D01*
X189061038Y-103985271D01*
X188749729Y-103673962D01*
X188383669Y-103429369D01*
X187976925Y-103260890D01*
X187545128Y-103175000D01*
X187104872Y-103175000D01*
X186673075Y-103260890D01*
X186266331Y-103429369D01*
X185900271Y-103673962D01*
X185588962Y-103985271D01*
X185344369Y-104351331D01*
X185175890Y-104758075D01*
X185090000Y-105189872D01*
X163727123Y-105189872D01*
X163658639Y-104845581D01*
X163512775Y-104493434D01*
X163301013Y-104176509D01*
X163031491Y-103906987D01*
X162714566Y-103695225D01*
X162362419Y-103549361D01*
X161988581Y-103475000D01*
X161607419Y-103475000D01*
X161233581Y-103549361D01*
X160881434Y-103695225D01*
X160564509Y-103906987D01*
X160294987Y-104176509D01*
X160083225Y-104493434D01*
X159937361Y-104845581D01*
X159863000Y-105219419D01*
X156113000Y-105219419D01*
X156038639Y-104845581D01*
X155892775Y-104493434D01*
X155681013Y-104176509D01*
X155411491Y-103906987D01*
X155094566Y-103695225D01*
X154742419Y-103549361D01*
X154368581Y-103475000D01*
X153987419Y-103475000D01*
X153613581Y-103549361D01*
X153261434Y-103695225D01*
X152944509Y-103906987D01*
X152674987Y-104176509D01*
X152463225Y-104493434D01*
X152317361Y-104845581D01*
X152243000Y-105219419D01*
X145110000Y-105219419D01*
X145110000Y-105189872D01*
X145024110Y-104758075D01*
X144855631Y-104351331D01*
X144611038Y-103985271D01*
X144299729Y-103673962D01*
X143933669Y-103429369D01*
X143526925Y-103260890D01*
X143095128Y-103175000D01*
X142654872Y-103175000D01*
X142223075Y-103260890D01*
X141816331Y-103429369D01*
X141450271Y-103673962D01*
X141138962Y-103985271D01*
X140894369Y-104351331D01*
X140725890Y-104758075D01*
X140640000Y-105189872D01*
X138462524Y-105189872D01*
X138422470Y-104988509D01*
X138313543Y-104725536D01*
X138155405Y-104488866D01*
X137954134Y-104287595D01*
X137733243Y-104140000D01*
X137954134Y-103992405D01*
X138155405Y-103791134D01*
X138313543Y-103554464D01*
X138422470Y-103291491D01*
X138478000Y-103012320D01*
X138478000Y-102727680D01*
X138422470Y-102448509D01*
X138313543Y-102185536D01*
X138155405Y-101948866D01*
X137954134Y-101747595D01*
X137733243Y-101600000D01*
X137954134Y-101452405D01*
X138155405Y-101251134D01*
X138313543Y-101014464D01*
X138422470Y-100751491D01*
X138478000Y-100472320D01*
X138478000Y-100187680D01*
X138422470Y-99908509D01*
X138313543Y-99645536D01*
X138155405Y-99408866D01*
X137954134Y-99207595D01*
X137733243Y-99060000D01*
X137954134Y-98912405D01*
X138155405Y-98711134D01*
X138313543Y-98474464D01*
X138422470Y-98211491D01*
X138478000Y-97932320D01*
X138478000Y-97647680D01*
X138422470Y-97368509D01*
X138313543Y-97105536D01*
X138155405Y-96868866D01*
X137954134Y-96667595D01*
X137733243Y-96520000D01*
X137954134Y-96372405D01*
X138155405Y-96171134D01*
X138313543Y-95934464D01*
X138422470Y-95671491D01*
X138478000Y-95392320D01*
X138478000Y-95107680D01*
X138422470Y-94828509D01*
X138313543Y-94565536D01*
X138155405Y-94328866D01*
X137954134Y-94127595D01*
X137733243Y-93980000D01*
X137954134Y-93832405D01*
X138155405Y-93631134D01*
X138313543Y-93394464D01*
X138422470Y-93131491D01*
X138478000Y-92852320D01*
X138478000Y-92567680D01*
X138422470Y-92288509D01*
X138313543Y-92025536D01*
X138155405Y-91788866D01*
X137954134Y-91587595D01*
X137733243Y-91440000D01*
X137954134Y-91292405D01*
X138155405Y-91091134D01*
X138313543Y-90854464D01*
X138422470Y-90591491D01*
X138478000Y-90312320D01*
X138478000Y-90027680D01*
X138469824Y-89986574D01*
X139494467Y-91011219D01*
X139534230Y-91059670D01*
X139582680Y-91099432D01*
X139582683Y-91099435D01*
X139598157Y-91112134D01*
X139727612Y-91218375D01*
X139948241Y-91336303D01*
X140187636Y-91408923D01*
X140210947Y-91411219D01*
X140374220Y-91427300D01*
X140374227Y-91427300D01*
X140436600Y-91433443D01*
X140498973Y-91427300D01*
X144876250Y-91427300D01*
X146510918Y-93061969D01*
X146527068Y-93143158D01*
X146639010Y-93413411D01*
X146801525Y-93656632D01*
X147008368Y-93863475D01*
X147182760Y-93980000D01*
X147008368Y-94096525D01*
X146801525Y-94303368D01*
X146639010Y-94546589D01*
X146527068Y-94816842D01*
X146470000Y-95103740D01*
X146470000Y-95396260D01*
X146527068Y-95683158D01*
X146639010Y-95953411D01*
X146801525Y-96196632D01*
X147008368Y-96403475D01*
X147182760Y-96520000D01*
X147008368Y-96636525D01*
X146801525Y-96843368D01*
X146639010Y-97086589D01*
X146527068Y-97356842D01*
X146470000Y-97643740D01*
X146470000Y-97936260D01*
X146527068Y-98223158D01*
X146639010Y-98493411D01*
X146801525Y-98736632D01*
X146933380Y-98868487D01*
X146860820Y-98890498D01*
X146750506Y-98949463D01*
X146653815Y-99028815D01*
X146574463Y-99125506D01*
X146515498Y-99235820D01*
X146479188Y-99355518D01*
X146466928Y-99480000D01*
X146466928Y-101180000D01*
X146479188Y-101304482D01*
X146515498Y-101424180D01*
X146574463Y-101534494D01*
X146653815Y-101631185D01*
X146750506Y-101710537D01*
X146860820Y-101769502D01*
X146980518Y-101805812D01*
X147105000Y-101818072D01*
X148805000Y-101818072D01*
X148929482Y-101805812D01*
X149049180Y-101769502D01*
X149159494Y-101710537D01*
X149256185Y-101631185D01*
X149335537Y-101534494D01*
X149394502Y-101424180D01*
X149430812Y-101304482D01*
X149443072Y-101180000D01*
X149443072Y-99480000D01*
X180502928Y-99480000D01*
X180502928Y-101180000D01*
X180515188Y-101304482D01*
X180551498Y-101424180D01*
X180610463Y-101534494D01*
X180689815Y-101631185D01*
X180786506Y-101710537D01*
X180896820Y-101769502D01*
X181016518Y-101805812D01*
X181141000Y-101818072D01*
X182841000Y-101818072D01*
X182965482Y-101805812D01*
X183085180Y-101769502D01*
X183195494Y-101710537D01*
X183292185Y-101631185D01*
X183317778Y-101600000D01*
X190564627Y-101600000D01*
X190627000Y-101606143D01*
X190689373Y-101600000D01*
X190689380Y-101600000D01*
X190875963Y-101581623D01*
X191115359Y-101509003D01*
X191335988Y-101391075D01*
X191529370Y-101232370D01*
X191569141Y-101183909D01*
X191843147Y-100909904D01*
X191886457Y-101014464D01*
X192044595Y-101251134D01*
X192245866Y-101452405D01*
X192466757Y-101600000D01*
X192245866Y-101747595D01*
X192044595Y-101948866D01*
X191886457Y-102185536D01*
X191777530Y-102448509D01*
X191722000Y-102727680D01*
X191722000Y-103012320D01*
X191777530Y-103291491D01*
X191886457Y-103554464D01*
X192044595Y-103791134D01*
X192245866Y-103992405D01*
X192466706Y-104139966D01*
X192419556Y-104165168D01*
X192346762Y-104410157D01*
X193167000Y-105230395D01*
X193987238Y-104410157D01*
X193914444Y-104165168D01*
X193864793Y-104141637D01*
X194088134Y-103992405D01*
X194289405Y-103791134D01*
X194447543Y-103554464D01*
X194556470Y-103291491D01*
X194612000Y-103012320D01*
X194612000Y-102727680D01*
X194556470Y-102448509D01*
X194447543Y-102185536D01*
X194289405Y-101948866D01*
X194088134Y-101747595D01*
X193867243Y-101600000D01*
X194088134Y-101452405D01*
X194289405Y-101251134D01*
X194447543Y-101014464D01*
X194556470Y-100751491D01*
X194612000Y-100472320D01*
X194612000Y-100187680D01*
X194556470Y-99908509D01*
X194447543Y-99645536D01*
X194289405Y-99408866D01*
X194088134Y-99207595D01*
X193867243Y-99060000D01*
X194088134Y-98912405D01*
X194289405Y-98711134D01*
X194447543Y-98474464D01*
X194556470Y-98211491D01*
X194612000Y-97932320D01*
X194612000Y-97647680D01*
X194556470Y-97368509D01*
X194447543Y-97105536D01*
X194289405Y-96868866D01*
X194088134Y-96667595D01*
X193867243Y-96520000D01*
X194088134Y-96372405D01*
X194289405Y-96171134D01*
X194447543Y-95934464D01*
X194556470Y-95671491D01*
X194612000Y-95392320D01*
X194612000Y-95107680D01*
X194556470Y-94828509D01*
X194447543Y-94565536D01*
X194289405Y-94328866D01*
X194088134Y-94127595D01*
X193867243Y-93980000D01*
X194088134Y-93832405D01*
X194289405Y-93631134D01*
X194447543Y-93394464D01*
X194556470Y-93131491D01*
X194612000Y-92852320D01*
X194612000Y-92567680D01*
X194556470Y-92288509D01*
X194447543Y-92025536D01*
X194289405Y-91788866D01*
X194088134Y-91587595D01*
X193867243Y-91440000D01*
X194088134Y-91292405D01*
X194289405Y-91091134D01*
X194447543Y-90854464D01*
X194556470Y-90591491D01*
X194612000Y-90312320D01*
X194612000Y-90027680D01*
X194556470Y-89748509D01*
X194447543Y-89485536D01*
X194289405Y-89248866D01*
X194088134Y-89047595D01*
X193867243Y-88900000D01*
X194088134Y-88752405D01*
X194289405Y-88551134D01*
X194447543Y-88314464D01*
X194556470Y-88051491D01*
X194612000Y-87772320D01*
X194612000Y-87487680D01*
X194556470Y-87208509D01*
X194447543Y-86945536D01*
X194289405Y-86708866D01*
X194088134Y-86507595D01*
X193867243Y-86360000D01*
X194088134Y-86212405D01*
X194289405Y-86011134D01*
X194447543Y-85774464D01*
X194556470Y-85511491D01*
X194612000Y-85232320D01*
X194612000Y-84947680D01*
X194556470Y-84668509D01*
X194447543Y-84405536D01*
X194289405Y-84168866D01*
X194088134Y-83967595D01*
X193867243Y-83820000D01*
X194088134Y-83672405D01*
X194289405Y-83471134D01*
X194447543Y-83234464D01*
X194556470Y-82971491D01*
X194612000Y-82692320D01*
X194612000Y-82407680D01*
X194556470Y-82128509D01*
X194447543Y-81865536D01*
X194289405Y-81628866D01*
X194088134Y-81427595D01*
X193867243Y-81280000D01*
X194088134Y-81132405D01*
X194289405Y-80931134D01*
X194447543Y-80694464D01*
X194556470Y-80431491D01*
X194612000Y-80152320D01*
X194612000Y-79867680D01*
X194556470Y-79588509D01*
X194447543Y-79325536D01*
X194289405Y-79088866D01*
X194088134Y-78887595D01*
X193851464Y-78729457D01*
X193588491Y-78620530D01*
X193309320Y-78565000D01*
X193024680Y-78565000D01*
X192745509Y-78620530D01*
X192482536Y-78729457D01*
X192245866Y-78887595D01*
X192044595Y-79088866D01*
X191886457Y-79325536D01*
X191777530Y-79588509D01*
X191722000Y-79867680D01*
X191722000Y-80152320D01*
X191777530Y-80431491D01*
X191886457Y-80694464D01*
X192044595Y-80931134D01*
X192245866Y-81132405D01*
X192466757Y-81280000D01*
X192245866Y-81427595D01*
X192044595Y-81628866D01*
X191886457Y-81865536D01*
X191777530Y-82128509D01*
X191722000Y-82407680D01*
X191722000Y-82692320D01*
X191777530Y-82971491D01*
X191886457Y-83234464D01*
X192044595Y-83471134D01*
X192245866Y-83672405D01*
X192466757Y-83820000D01*
X192245866Y-83967595D01*
X192044595Y-84168866D01*
X191886457Y-84405536D01*
X191777530Y-84668509D01*
X191722000Y-84947680D01*
X191722000Y-85232320D01*
X191777530Y-85511491D01*
X191886457Y-85774464D01*
X192044595Y-86011134D01*
X192245866Y-86212405D01*
X192466757Y-86360000D01*
X192245866Y-86507595D01*
X192044595Y-86708866D01*
X191886457Y-86945536D01*
X191777530Y-87208509D01*
X191722000Y-87487680D01*
X191722000Y-87772320D01*
X191777530Y-88051491D01*
X191886457Y-88314464D01*
X192044595Y-88551134D01*
X192245866Y-88752405D01*
X192466757Y-88900000D01*
X192245866Y-89047595D01*
X192044595Y-89248866D01*
X191886457Y-89485536D01*
X191777530Y-89748509D01*
X191722000Y-90027680D01*
X191722000Y-90312320D01*
X191777530Y-90591491D01*
X191886457Y-90854464D01*
X192044595Y-91091134D01*
X192245866Y-91292405D01*
X192466757Y-91440000D01*
X192245866Y-91587595D01*
X192044595Y-91788866D01*
X191886457Y-92025536D01*
X191777530Y-92288509D01*
X191722000Y-92567680D01*
X191722000Y-92852320D01*
X191777530Y-93131491D01*
X191886457Y-93394464D01*
X192044595Y-93631134D01*
X192245866Y-93832405D01*
X192466757Y-93980000D01*
X192245866Y-94127595D01*
X192044595Y-94328866D01*
X191886457Y-94565536D01*
X191777530Y-94828509D01*
X191722000Y-95107680D01*
X191722000Y-95392320D01*
X191777530Y-95671491D01*
X191886457Y-95934464D01*
X192044595Y-96171134D01*
X192245866Y-96372405D01*
X192466757Y-96520000D01*
X182764486Y-96520000D01*
X182839792Y-96278397D01*
X181991000Y-95429605D01*
X181142208Y-96278397D01*
X181217729Y-96520689D01*
X181044368Y-96636525D01*
X180837525Y-96843368D01*
X180675010Y-97086589D01*
X180563068Y-97356842D01*
X180506000Y-97643740D01*
X180506000Y-97936260D01*
X180563068Y-98223158D01*
X180675010Y-98493411D01*
X180837525Y-98736632D01*
X180969380Y-98868487D01*
X180896820Y-98890498D01*
X180786506Y-98949463D01*
X180689815Y-99028815D01*
X180610463Y-99125506D01*
X180551498Y-99235820D01*
X180515188Y-99355518D01*
X180502928Y-99480000D01*
X149443072Y-99480000D01*
X149430812Y-99355518D01*
X149394502Y-99235820D01*
X149335537Y-99125506D01*
X149256185Y-99028815D01*
X149159494Y-98949463D01*
X149049180Y-98890498D01*
X148976620Y-98868487D01*
X149108475Y-98736632D01*
X149270990Y-98493411D01*
X149382932Y-98223158D01*
X149440000Y-97936260D01*
X149440000Y-97643740D01*
X149382932Y-97356842D01*
X149270990Y-97086589D01*
X149108475Y-96843368D01*
X148901632Y-96636525D01*
X148727240Y-96520000D01*
X148901632Y-96403475D01*
X149108475Y-96196632D01*
X149270990Y-95953411D01*
X149382932Y-95683158D01*
X149440000Y-95396260D01*
X149440000Y-95318531D01*
X180500389Y-95318531D01*
X180542401Y-95608019D01*
X180640081Y-95883747D01*
X180713528Y-96021157D01*
X180962603Y-96098792D01*
X181811395Y-95250000D01*
X182170605Y-95250000D01*
X183019397Y-96098792D01*
X183268472Y-96021157D01*
X183394371Y-95757117D01*
X183466339Y-95473589D01*
X183481611Y-95181469D01*
X183439599Y-94891981D01*
X183341919Y-94616253D01*
X183268472Y-94478843D01*
X183019397Y-94401208D01*
X182170605Y-95250000D01*
X181811395Y-95250000D01*
X180962603Y-94401208D01*
X180713528Y-94478843D01*
X180587629Y-94742883D01*
X180515661Y-95026411D01*
X180500389Y-95318531D01*
X149440000Y-95318531D01*
X149440000Y-95103740D01*
X149382932Y-94816842D01*
X149270990Y-94546589D01*
X149108475Y-94303368D01*
X148901632Y-94096525D01*
X148727240Y-93980000D01*
X148901632Y-93863475D01*
X149026710Y-93738397D01*
X181142208Y-93738397D01*
X181217514Y-93980000D01*
X181142208Y-94221603D01*
X181991000Y-95070395D01*
X182839792Y-94221603D01*
X182764486Y-93980000D01*
X182839792Y-93738397D01*
X181991000Y-92889605D01*
X181142208Y-93738397D01*
X149026710Y-93738397D01*
X149108475Y-93656632D01*
X149270990Y-93413411D01*
X149382932Y-93143158D01*
X149440000Y-92856260D01*
X149440000Y-92778531D01*
X180500389Y-92778531D01*
X180542401Y-93068019D01*
X180640081Y-93343747D01*
X180713528Y-93481157D01*
X180962603Y-93558792D01*
X181811395Y-92710000D01*
X182170605Y-92710000D01*
X183019397Y-93558792D01*
X183268472Y-93481157D01*
X183394371Y-93217117D01*
X183466339Y-92933589D01*
X183481611Y-92641469D01*
X183439599Y-92351981D01*
X183341919Y-92076253D01*
X183268472Y-91938843D01*
X183019397Y-91861208D01*
X182170605Y-92710000D01*
X181811395Y-92710000D01*
X180962603Y-91861208D01*
X180713528Y-91938843D01*
X180587629Y-92202883D01*
X180515661Y-92486411D01*
X180500389Y-92778531D01*
X149440000Y-92778531D01*
X149440000Y-92563740D01*
X149382932Y-92276842D01*
X149270990Y-92006589D01*
X149108475Y-91763368D01*
X148901632Y-91556525D01*
X148727240Y-91440000D01*
X148901632Y-91323475D01*
X149108475Y-91116632D01*
X149270990Y-90873411D01*
X149382932Y-90603158D01*
X149440000Y-90316260D01*
X149440000Y-90023740D01*
X149382932Y-89736842D01*
X149270990Y-89466589D01*
X149108475Y-89223368D01*
X148901632Y-89016525D01*
X148727240Y-88900000D01*
X148901632Y-88783475D01*
X149108475Y-88576632D01*
X149270990Y-88333411D01*
X149382932Y-88063158D01*
X149440000Y-87776260D01*
X149440000Y-87483740D01*
X149382932Y-87196842D01*
X149270990Y-86926589D01*
X149108475Y-86683368D01*
X148901632Y-86476525D01*
X148727240Y-86360000D01*
X148901632Y-86243475D01*
X149108475Y-86036632D01*
X149270990Y-85793411D01*
X149382932Y-85523158D01*
X149440000Y-85236260D01*
X149440000Y-84943740D01*
X149382932Y-84656842D01*
X149270990Y-84386589D01*
X149108475Y-84143368D01*
X148901632Y-83936525D01*
X148658411Y-83774010D01*
X148388158Y-83662068D01*
X148101260Y-83605000D01*
X147808740Y-83605000D01*
X147521842Y-83662068D01*
X147251589Y-83774010D01*
X147182760Y-83820000D01*
X141775451Y-83820000D01*
X139651541Y-81696091D01*
X139611770Y-81647630D01*
X139418388Y-81488925D01*
X139197759Y-81370997D01*
X138958363Y-81298377D01*
X138771780Y-81280000D01*
X138771773Y-81280000D01*
X138709400Y-81273857D01*
X138647027Y-81280000D01*
X137733358Y-81280000D01*
X137780444Y-81254832D01*
X137853238Y-81009843D01*
X137033000Y-80189605D01*
X136212762Y-81009843D01*
X136285556Y-81254832D01*
X136335207Y-81278363D01*
X136111866Y-81427595D01*
X135910595Y-81628866D01*
X135752457Y-81865536D01*
X135643530Y-82128509D01*
X135588000Y-82407680D01*
X127660000Y-82407680D01*
X127660000Y-80080115D01*
X135582702Y-80080115D01*
X135624248Y-80361706D01*
X135719932Y-80629783D01*
X135788168Y-80757444D01*
X136033157Y-80830238D01*
X136853395Y-80010000D01*
X137212605Y-80010000D01*
X138032843Y-80830238D01*
X138277832Y-80757444D01*
X138399733Y-80500227D01*
X138469110Y-80224171D01*
X138483298Y-79939885D01*
X138461166Y-79789872D01*
X140640000Y-79789872D01*
X140640000Y-80230128D01*
X140725890Y-80661925D01*
X140894369Y-81068669D01*
X141138962Y-81434729D01*
X141450271Y-81746038D01*
X141816331Y-81990631D01*
X142223075Y-82159110D01*
X142654872Y-82245000D01*
X143095128Y-82245000D01*
X143526925Y-82159110D01*
X143933669Y-81990631D01*
X144299729Y-81746038D01*
X144611038Y-81434729D01*
X144855631Y-81068669D01*
X145024110Y-80661925D01*
X145110000Y-80230128D01*
X145110000Y-79789872D01*
X145024110Y-79358075D01*
X144855631Y-78951331D01*
X144611038Y-78585271D01*
X144299729Y-78273962D01*
X143933669Y-78029369D01*
X143526925Y-77860890D01*
X143095128Y-77775000D01*
X142654872Y-77775000D01*
X142223075Y-77860890D01*
X141816331Y-78029369D01*
X141450271Y-78273962D01*
X141138962Y-78585271D01*
X140894369Y-78951331D01*
X140725890Y-79358075D01*
X140640000Y-79789872D01*
X138461166Y-79789872D01*
X138441752Y-79658294D01*
X138346068Y-79390217D01*
X138277832Y-79262556D01*
X138032843Y-79189762D01*
X137212605Y-80010000D01*
X136853395Y-80010000D01*
X136033157Y-79189762D01*
X135788168Y-79262556D01*
X135666267Y-79519773D01*
X135596890Y-79795829D01*
X135582702Y-80080115D01*
X127660000Y-80080115D01*
X127660000Y-79010157D01*
X136212762Y-79010157D01*
X137033000Y-79830395D01*
X137853238Y-79010157D01*
X137780444Y-78765168D01*
X137523227Y-78643267D01*
X137247171Y-78573890D01*
X136962885Y-78559702D01*
X136681294Y-78601248D01*
X136413217Y-78696932D01*
X136285556Y-78765168D01*
X136212762Y-79010157D01*
X127660000Y-79010157D01*
X127660000Y-76860000D01*
X175637325Y-76860000D01*
X175590472Y-76879407D01*
M02*
