M48
; DRILL file {KiCad (5.1.5)-3} date 9/11/2020 8:26:06 AM
; FORMAT={-:-/ absolute / inch / decimal}
; #@! TF.CreationDate,2020-09-11T08:26:06-05:00
; #@! TF.GenerationSoftware,Kicad,Pcbnew,(5.1.5)-3
; #@! TF.FileFunction,Plated,1,2,PTH
FMAT,2
INCH
T1C0.0280
T2C0.0394
T3C0.0402
T4C0.0630
%
G90
G05
T1
X6.838Y-3.1735
X6.938Y-3.0735
X7.038Y-3.1735
T2
X5.825Y-3.35
X5.825Y-3.45
X5.825Y-3.55
X5.825Y-3.65
X5.825Y-3.75
X5.825Y-3.85
X5.825Y-3.95
X7.165Y-3.35
X7.165Y-3.45
X7.165Y-3.55
X7.165Y-3.65
X7.165Y-3.75
X7.165Y-3.85
X7.165Y-3.95
T3
X7.605Y-3.15
X7.605Y-3.25
X7.605Y-3.35
X7.605Y-3.45
X7.605Y-3.55
X7.605Y-3.65
X7.605Y-3.75
X7.605Y-3.85
X7.605Y-3.95
X7.605Y-4.05
X7.605Y-4.15
X5.395Y-3.15
X5.395Y-3.25
X5.395Y-3.35
X5.395Y-3.45
X5.395Y-3.55
X5.395Y-3.65
X5.395Y-3.75
X5.395Y-3.85
X5.395Y-3.95
X5.395Y-4.05
X5.395Y-4.15
T4
X6.37Y-4.15
X6.07Y-4.15
T0
M30
