G04 #@! TF.GenerationSoftware,KiCad,Pcbnew,(5.1.12)-1*
G04 #@! TF.CreationDate,2022-02-08T10:52:13-06:00*
G04 #@! TF.ProjectId,laser_driver,6c617365-725f-4647-9269-7665722e6b69,4.2*
G04 #@! TF.SameCoordinates,Original*
G04 #@! TF.FileFunction,Legend,Top*
G04 #@! TF.FilePolarity,Positive*
%FSLAX46Y46*%
G04 Gerber Fmt 4.6, Leading zero omitted, Abs format (unit mm)*
G04 Created by KiCad (PCBNEW (5.1.12)-1) date 2022-02-08 10:52:13*
%MOMM*%
%LPD*%
G01*
G04 APERTURE LIST*
%ADD10C,0.190500*%
%ADD11C,0.149860*%
%ADD12C,0.150000*%
%ADD13C,0.200000*%
%ADD14C,0.120000*%
%ADD15C,0.254000*%
G04 APERTURE END LIST*
D10*
X152490714Y-108294714D02*
X152490714Y-107532714D01*
X152817285Y-108258428D02*
X152926142Y-108294714D01*
X153107571Y-108294714D01*
X153180142Y-108258428D01*
X153216428Y-108222142D01*
X153252714Y-108149571D01*
X153252714Y-108077000D01*
X153216428Y-108004428D01*
X153180142Y-107968142D01*
X153107571Y-107931857D01*
X152962428Y-107895571D01*
X152889857Y-107859285D01*
X152853571Y-107823000D01*
X152817285Y-107750428D01*
X152817285Y-107677857D01*
X152853571Y-107605285D01*
X152889857Y-107569000D01*
X152962428Y-107532714D01*
X153143857Y-107532714D01*
X153252714Y-107569000D01*
X153579285Y-107895571D02*
X153833285Y-107895571D01*
X153942142Y-108294714D02*
X153579285Y-108294714D01*
X153579285Y-107532714D01*
X153942142Y-107532714D01*
X154268714Y-108294714D02*
X154268714Y-107532714D01*
X154704142Y-108294714D01*
X154704142Y-107532714D01*
X155030714Y-108258428D02*
X155139571Y-108294714D01*
X155321000Y-108294714D01*
X155393571Y-108258428D01*
X155429857Y-108222142D01*
X155466142Y-108149571D01*
X155466142Y-108077000D01*
X155429857Y-108004428D01*
X155393571Y-107968142D01*
X155321000Y-107931857D01*
X155175857Y-107895571D01*
X155103285Y-107859285D01*
X155067000Y-107823000D01*
X155030714Y-107750428D01*
X155030714Y-107677857D01*
X155067000Y-107605285D01*
X155103285Y-107569000D01*
X155175857Y-107532714D01*
X155357285Y-107532714D01*
X155466142Y-107569000D01*
X155792714Y-108004428D02*
X156373285Y-108004428D01*
X156083000Y-108294714D02*
X156083000Y-107714142D01*
X160110714Y-108294714D02*
X160110714Y-107532714D01*
X160437285Y-108258428D02*
X160546142Y-108294714D01*
X160727571Y-108294714D01*
X160800142Y-108258428D01*
X160836428Y-108222142D01*
X160872714Y-108149571D01*
X160872714Y-108077000D01*
X160836428Y-108004428D01*
X160800142Y-107968142D01*
X160727571Y-107931857D01*
X160582428Y-107895571D01*
X160509857Y-107859285D01*
X160473571Y-107823000D01*
X160437285Y-107750428D01*
X160437285Y-107677857D01*
X160473571Y-107605285D01*
X160509857Y-107569000D01*
X160582428Y-107532714D01*
X160763857Y-107532714D01*
X160872714Y-107569000D01*
X161199285Y-107895571D02*
X161453285Y-107895571D01*
X161562142Y-108294714D02*
X161199285Y-108294714D01*
X161199285Y-107532714D01*
X161562142Y-107532714D01*
X161888714Y-108294714D02*
X161888714Y-107532714D01*
X162324142Y-108294714D01*
X162324142Y-107532714D01*
X162650714Y-108258428D02*
X162759571Y-108294714D01*
X162941000Y-108294714D01*
X163013571Y-108258428D01*
X163049857Y-108222142D01*
X163086142Y-108149571D01*
X163086142Y-108077000D01*
X163049857Y-108004428D01*
X163013571Y-107968142D01*
X162941000Y-107931857D01*
X162795857Y-107895571D01*
X162723285Y-107859285D01*
X162687000Y-107823000D01*
X162650714Y-107750428D01*
X162650714Y-107677857D01*
X162687000Y-107605285D01*
X162723285Y-107569000D01*
X162795857Y-107532714D01*
X162977285Y-107532714D01*
X163086142Y-107569000D01*
X163412714Y-108004428D02*
X163993285Y-108004428D01*
D11*
X138647714Y-94252142D02*
X138647714Y-94107000D01*
X138684000Y-94034428D01*
X138756571Y-93961857D01*
X138901714Y-93925571D01*
X139155714Y-93925571D01*
X139300857Y-93961857D01*
X139373428Y-94034428D01*
X139409714Y-94107000D01*
X139409714Y-94252142D01*
X139373428Y-94324714D01*
X139300857Y-94397285D01*
X139155714Y-94433571D01*
X138901714Y-94433571D01*
X138756571Y-94397285D01*
X138684000Y-94324714D01*
X138647714Y-94252142D01*
X138901714Y-93272428D02*
X139409714Y-93272428D01*
X138901714Y-93599000D02*
X139300857Y-93599000D01*
X139373428Y-93562714D01*
X139409714Y-93490142D01*
X139409714Y-93381285D01*
X139373428Y-93308714D01*
X139337142Y-93272428D01*
X138901714Y-93018428D02*
X138901714Y-92728142D01*
X138647714Y-92909571D02*
X139300857Y-92909571D01*
X139373428Y-92873285D01*
X139409714Y-92800714D01*
X139409714Y-92728142D01*
X138901714Y-92474142D02*
X139663714Y-92474142D01*
X138938000Y-92474142D02*
X138901714Y-92401571D01*
X138901714Y-92256428D01*
X138938000Y-92183857D01*
X138974285Y-92147571D01*
X139046857Y-92111285D01*
X139264571Y-92111285D01*
X139337142Y-92147571D01*
X139373428Y-92183857D01*
X139409714Y-92256428D01*
X139409714Y-92401571D01*
X139373428Y-92474142D01*
X138901714Y-91458142D02*
X139409714Y-91458142D01*
X138901714Y-91784714D02*
X139300857Y-91784714D01*
X139373428Y-91748428D01*
X139409714Y-91675857D01*
X139409714Y-91567000D01*
X139373428Y-91494428D01*
X139337142Y-91458142D01*
X138901714Y-91204142D02*
X138901714Y-90913857D01*
X138647714Y-91095285D02*
X139300857Y-91095285D01*
X139373428Y-91059000D01*
X139409714Y-90986428D01*
X139409714Y-90913857D01*
X190844714Y-93961857D02*
X190082714Y-93961857D01*
X190336714Y-93599000D02*
X190844714Y-93599000D01*
X190409285Y-93599000D02*
X190373000Y-93562714D01*
X190336714Y-93490142D01*
X190336714Y-93381285D01*
X190373000Y-93308714D01*
X190445571Y-93272428D01*
X190844714Y-93272428D01*
X190336714Y-92909571D02*
X191098714Y-92909571D01*
X190373000Y-92909571D02*
X190336714Y-92837000D01*
X190336714Y-92691857D01*
X190373000Y-92619285D01*
X190409285Y-92583000D01*
X190481857Y-92546714D01*
X190699571Y-92546714D01*
X190772142Y-92583000D01*
X190808428Y-92619285D01*
X190844714Y-92691857D01*
X190844714Y-92837000D01*
X190808428Y-92909571D01*
X190336714Y-91893571D02*
X190844714Y-91893571D01*
X190336714Y-92220142D02*
X190735857Y-92220142D01*
X190808428Y-92183857D01*
X190844714Y-92111285D01*
X190844714Y-92002428D01*
X190808428Y-91929857D01*
X190772142Y-91893571D01*
X190336714Y-91639571D02*
X190336714Y-91349285D01*
X190082714Y-91530714D02*
X190735857Y-91530714D01*
X190808428Y-91494428D01*
X190844714Y-91421857D01*
X190844714Y-91349285D01*
D12*
X161391600Y-76890014D02*
X161536742Y-76890014D01*
X161609314Y-76926300D01*
X161681885Y-76998871D01*
X161718171Y-77144014D01*
X161718171Y-77398014D01*
X161681885Y-77543157D01*
X161609314Y-77615728D01*
X161536742Y-77652014D01*
X161391600Y-77652014D01*
X161319028Y-77615728D01*
X161246457Y-77543157D01*
X161210171Y-77398014D01*
X161210171Y-77144014D01*
X161246457Y-76998871D01*
X161319028Y-76926300D01*
X161391600Y-76890014D01*
X162298742Y-77252871D02*
X162044742Y-77252871D01*
X162044742Y-77652014D02*
X162044742Y-76890014D01*
X162407600Y-76890014D01*
X162697885Y-77652014D02*
X162697885Y-76890014D01*
X162951885Y-77434300D01*
X163205885Y-76890014D01*
X163205885Y-77652014D01*
X163568742Y-77652014D02*
X163568742Y-76890014D01*
X164947600Y-77652014D02*
X164693600Y-77289157D01*
X164512171Y-77652014D02*
X164512171Y-76890014D01*
X164802457Y-76890014D01*
X164875028Y-76926300D01*
X164911314Y-76962585D01*
X164947600Y-77035157D01*
X164947600Y-77144014D01*
X164911314Y-77216585D01*
X164875028Y-77252871D01*
X164802457Y-77289157D01*
X164512171Y-77289157D01*
X165564457Y-77615728D02*
X165491885Y-77652014D01*
X165346742Y-77652014D01*
X165274171Y-77615728D01*
X165237885Y-77543157D01*
X165237885Y-77252871D01*
X165274171Y-77180300D01*
X165346742Y-77144014D01*
X165491885Y-77144014D01*
X165564457Y-77180300D01*
X165600742Y-77252871D01*
X165600742Y-77325442D01*
X165237885Y-77398014D01*
X165854742Y-77144014D02*
X166036171Y-77652014D01*
X166217600Y-77144014D01*
X166507885Y-77579442D02*
X166544171Y-77615728D01*
X166507885Y-77652014D01*
X166471600Y-77615728D01*
X166507885Y-77579442D01*
X166507885Y-77652014D01*
X167777885Y-77144014D02*
X167777885Y-77652014D01*
X167596457Y-76853728D02*
X167415028Y-77398014D01*
X167886742Y-77398014D01*
X168177028Y-77579442D02*
X168213314Y-77615728D01*
X168177028Y-77652014D01*
X168140742Y-77615728D01*
X168177028Y-77579442D01*
X168177028Y-77652014D01*
X168503600Y-76962585D02*
X168539885Y-76926300D01*
X168612457Y-76890014D01*
X168793885Y-76890014D01*
X168866457Y-76926300D01*
X168902742Y-76962585D01*
X168939028Y-77035157D01*
X168939028Y-77107728D01*
X168902742Y-77216585D01*
X168467314Y-77652014D01*
X168939028Y-77652014D01*
X160212314Y-78945014D02*
X159849457Y-78945014D01*
X159849457Y-78183014D01*
X160792885Y-78945014D02*
X160792885Y-78545871D01*
X160756600Y-78473300D01*
X160684028Y-78437014D01*
X160538885Y-78437014D01*
X160466314Y-78473300D01*
X160792885Y-78908728D02*
X160720314Y-78945014D01*
X160538885Y-78945014D01*
X160466314Y-78908728D01*
X160430028Y-78836157D01*
X160430028Y-78763585D01*
X160466314Y-78691014D01*
X160538885Y-78654728D01*
X160720314Y-78654728D01*
X160792885Y-78618442D01*
X161119457Y-78908728D02*
X161192028Y-78945014D01*
X161337171Y-78945014D01*
X161409742Y-78908728D01*
X161446028Y-78836157D01*
X161446028Y-78799871D01*
X161409742Y-78727300D01*
X161337171Y-78691014D01*
X161228314Y-78691014D01*
X161155742Y-78654728D01*
X161119457Y-78582157D01*
X161119457Y-78545871D01*
X161155742Y-78473300D01*
X161228314Y-78437014D01*
X161337171Y-78437014D01*
X161409742Y-78473300D01*
X162062885Y-78908728D02*
X161990314Y-78945014D01*
X161845171Y-78945014D01*
X161772600Y-78908728D01*
X161736314Y-78836157D01*
X161736314Y-78545871D01*
X161772600Y-78473300D01*
X161845171Y-78437014D01*
X161990314Y-78437014D01*
X162062885Y-78473300D01*
X162099171Y-78545871D01*
X162099171Y-78618442D01*
X161736314Y-78691014D01*
X162425742Y-78945014D02*
X162425742Y-78437014D01*
X162425742Y-78582157D02*
X162462028Y-78509585D01*
X162498314Y-78473300D01*
X162570885Y-78437014D01*
X162643457Y-78437014D01*
X163478028Y-78945014D02*
X163478028Y-78183014D01*
X163659457Y-78183014D01*
X163768314Y-78219300D01*
X163840885Y-78291871D01*
X163877171Y-78364442D01*
X163913457Y-78509585D01*
X163913457Y-78618442D01*
X163877171Y-78763585D01*
X163840885Y-78836157D01*
X163768314Y-78908728D01*
X163659457Y-78945014D01*
X163478028Y-78945014D01*
X164240028Y-78945014D02*
X164240028Y-78437014D01*
X164240028Y-78582157D02*
X164276314Y-78509585D01*
X164312600Y-78473300D01*
X164385171Y-78437014D01*
X164457742Y-78437014D01*
X164711742Y-78945014D02*
X164711742Y-78437014D01*
X164711742Y-78183014D02*
X164675457Y-78219300D01*
X164711742Y-78255585D01*
X164748028Y-78219300D01*
X164711742Y-78183014D01*
X164711742Y-78255585D01*
X165002028Y-78437014D02*
X165183457Y-78945014D01*
X165364885Y-78437014D01*
X165945457Y-78908728D02*
X165872885Y-78945014D01*
X165727742Y-78945014D01*
X165655171Y-78908728D01*
X165618885Y-78836157D01*
X165618885Y-78545871D01*
X165655171Y-78473300D01*
X165727742Y-78437014D01*
X165872885Y-78437014D01*
X165945457Y-78473300D01*
X165981742Y-78545871D01*
X165981742Y-78618442D01*
X165618885Y-78691014D01*
X166308314Y-78945014D02*
X166308314Y-78437014D01*
X166308314Y-78582157D02*
X166344600Y-78509585D01*
X166380885Y-78473300D01*
X166453457Y-78437014D01*
X166526028Y-78437014D01*
X167614600Y-78545871D02*
X167723457Y-78582157D01*
X167759742Y-78618442D01*
X167796028Y-78691014D01*
X167796028Y-78799871D01*
X167759742Y-78872442D01*
X167723457Y-78908728D01*
X167650885Y-78945014D01*
X167360600Y-78945014D01*
X167360600Y-78183014D01*
X167614600Y-78183014D01*
X167687171Y-78219300D01*
X167723457Y-78255585D01*
X167759742Y-78328157D01*
X167759742Y-78400728D01*
X167723457Y-78473300D01*
X167687171Y-78509585D01*
X167614600Y-78545871D01*
X167360600Y-78545871D01*
X168231457Y-78945014D02*
X168158885Y-78908728D01*
X168122600Y-78872442D01*
X168086314Y-78799871D01*
X168086314Y-78582157D01*
X168122600Y-78509585D01*
X168158885Y-78473300D01*
X168231457Y-78437014D01*
X168340314Y-78437014D01*
X168412885Y-78473300D01*
X168449171Y-78509585D01*
X168485457Y-78582157D01*
X168485457Y-78799871D01*
X168449171Y-78872442D01*
X168412885Y-78908728D01*
X168340314Y-78945014D01*
X168231457Y-78945014D01*
X169138600Y-78945014D02*
X169138600Y-78545871D01*
X169102314Y-78473300D01*
X169029742Y-78437014D01*
X168884600Y-78437014D01*
X168812028Y-78473300D01*
X169138600Y-78908728D02*
X169066028Y-78945014D01*
X168884600Y-78945014D01*
X168812028Y-78908728D01*
X168775742Y-78836157D01*
X168775742Y-78763585D01*
X168812028Y-78691014D01*
X168884600Y-78654728D01*
X169066028Y-78654728D01*
X169138600Y-78618442D01*
X169501457Y-78945014D02*
X169501457Y-78437014D01*
X169501457Y-78582157D02*
X169537742Y-78509585D01*
X169574028Y-78473300D01*
X169646600Y-78437014D01*
X169719171Y-78437014D01*
X170299742Y-78945014D02*
X170299742Y-78183014D01*
X170299742Y-78908728D02*
X170227171Y-78945014D01*
X170082028Y-78945014D01*
X170009457Y-78908728D01*
X169973171Y-78872442D01*
X169936885Y-78799871D01*
X169936885Y-78582157D01*
X169973171Y-78509585D01*
X170009457Y-78473300D01*
X170082028Y-78437014D01*
X170227171Y-78437014D01*
X170299742Y-78473300D01*
X161319028Y-79838871D02*
X161065028Y-79838871D01*
X161065028Y-80238014D02*
X161065028Y-79476014D01*
X161427885Y-79476014D01*
X162008457Y-80201728D02*
X161935885Y-80238014D01*
X161790742Y-80238014D01*
X161718171Y-80201728D01*
X161681885Y-80129157D01*
X161681885Y-79838871D01*
X161718171Y-79766300D01*
X161790742Y-79730014D01*
X161935885Y-79730014D01*
X162008457Y-79766300D01*
X162044742Y-79838871D01*
X162044742Y-79911442D01*
X161681885Y-79984014D01*
X162371314Y-80238014D02*
X162371314Y-79476014D01*
X162371314Y-79766300D02*
X162443885Y-79730014D01*
X162589028Y-79730014D01*
X162661600Y-79766300D01*
X162697885Y-79802585D01*
X162734171Y-79875157D01*
X162734171Y-80092871D01*
X162697885Y-80165442D01*
X162661600Y-80201728D01*
X162589028Y-80238014D01*
X162443885Y-80238014D01*
X162371314Y-80201728D01*
X163060742Y-80238014D02*
X163060742Y-79730014D01*
X163060742Y-79875157D02*
X163097028Y-79802585D01*
X163133314Y-79766300D01*
X163205885Y-79730014D01*
X163278457Y-79730014D01*
X163859028Y-79730014D02*
X163859028Y-80238014D01*
X163532457Y-79730014D02*
X163532457Y-80129157D01*
X163568742Y-80201728D01*
X163641314Y-80238014D01*
X163750171Y-80238014D01*
X163822742Y-80201728D01*
X163859028Y-80165442D01*
X164548457Y-80238014D02*
X164548457Y-79838871D01*
X164512171Y-79766300D01*
X164439600Y-79730014D01*
X164294457Y-79730014D01*
X164221885Y-79766300D01*
X164548457Y-80201728D02*
X164475885Y-80238014D01*
X164294457Y-80238014D01*
X164221885Y-80201728D01*
X164185600Y-80129157D01*
X164185600Y-80056585D01*
X164221885Y-79984014D01*
X164294457Y-79947728D01*
X164475885Y-79947728D01*
X164548457Y-79911442D01*
X164911314Y-80238014D02*
X164911314Y-79730014D01*
X164911314Y-79875157D02*
X164947600Y-79802585D01*
X164983885Y-79766300D01*
X165056457Y-79730014D01*
X165129028Y-79730014D01*
X165310457Y-79730014D02*
X165491885Y-80238014D01*
X165673314Y-79730014D02*
X165491885Y-80238014D01*
X165419314Y-80419442D01*
X165383028Y-80455728D01*
X165310457Y-80492014D01*
X166507885Y-79548585D02*
X166544171Y-79512300D01*
X166616742Y-79476014D01*
X166798171Y-79476014D01*
X166870742Y-79512300D01*
X166907028Y-79548585D01*
X166943314Y-79621157D01*
X166943314Y-79693728D01*
X166907028Y-79802585D01*
X166471600Y-80238014D01*
X166943314Y-80238014D01*
X167415028Y-79476014D02*
X167487600Y-79476014D01*
X167560171Y-79512300D01*
X167596457Y-79548585D01*
X167632742Y-79621157D01*
X167669028Y-79766300D01*
X167669028Y-79947728D01*
X167632742Y-80092871D01*
X167596457Y-80165442D01*
X167560171Y-80201728D01*
X167487600Y-80238014D01*
X167415028Y-80238014D01*
X167342457Y-80201728D01*
X167306171Y-80165442D01*
X167269885Y-80092871D01*
X167233600Y-79947728D01*
X167233600Y-79766300D01*
X167269885Y-79621157D01*
X167306171Y-79548585D01*
X167342457Y-79512300D01*
X167415028Y-79476014D01*
X167959314Y-79548585D02*
X167995600Y-79512300D01*
X168068171Y-79476014D01*
X168249600Y-79476014D01*
X168322171Y-79512300D01*
X168358457Y-79548585D01*
X168394742Y-79621157D01*
X168394742Y-79693728D01*
X168358457Y-79802585D01*
X167923028Y-80238014D01*
X168394742Y-80238014D01*
X168685028Y-79548585D02*
X168721314Y-79512300D01*
X168793885Y-79476014D01*
X168975314Y-79476014D01*
X169047885Y-79512300D01*
X169084171Y-79548585D01*
X169120457Y-79621157D01*
X169120457Y-79693728D01*
X169084171Y-79802585D01*
X168648742Y-80238014D01*
X169120457Y-80238014D01*
D13*
X191906000Y-78290000D02*
X191906000Y-107130000D01*
X203777000Y-78290000D02*
X191906000Y-78290000D01*
X203777000Y-107130000D02*
X203777000Y-78290000D01*
X191906000Y-107130000D02*
X203777000Y-107130000D01*
X138294000Y-78290000D02*
X126423000Y-78290000D01*
X126423000Y-78290000D02*
X126423000Y-107130000D01*
X126423000Y-107130000D02*
X138294000Y-107130000D01*
X138294000Y-107130000D02*
X138294000Y-78290000D01*
D14*
X177841161Y-80632300D02*
G75*
G03*
X177841161Y-80632300I-396761J0D01*
G01*
X172872400Y-81597500D02*
X172872400Y-77076300D01*
X179578000Y-77076300D02*
X179578000Y-81597500D01*
X172872400Y-77076300D02*
X179578000Y-77076300D01*
X179578000Y-81597500D02*
X172872400Y-81597500D01*
D12*
X155768000Y-105410000D02*
G75*
G03*
X155768000Y-105410000I-1590000J0D01*
G01*
X163388000Y-105410000D02*
G75*
G03*
X163388000Y-105410000I-1590000J0D01*
G01*
D15*
X180594000Y-100457000D02*
G75*
G03*
X180594000Y-100457000I-127000J0D01*
G01*
D14*
X180721000Y-100457000D02*
G75*
G03*
X180721000Y-100457000I-254000J0D01*
G01*
X180826210Y-100457000D02*
G75*
G03*
X180826210Y-100457000I-359210J0D01*
G01*
X180924905Y-100457000D02*
G75*
G03*
X180924905Y-100457000I-457905J0D01*
G01*
X145923000Y-102235000D02*
X184023000Y-102235000D01*
X145923000Y-83185000D02*
X145923000Y-102235000D01*
X184023000Y-83185000D02*
X145923000Y-83185000D01*
X184023000Y-102235000D02*
X184023000Y-83185000D01*
D11*
X201977667Y-107656382D02*
X201977667Y-108370666D01*
X201930048Y-108513523D01*
X201834810Y-108608761D01*
X201691953Y-108656380D01*
X201596715Y-108656380D01*
X202977665Y-108656380D02*
X202406237Y-108656380D01*
X202691951Y-108656380D02*
X202691951Y-107656382D01*
X202596713Y-107799238D01*
X202501475Y-107894476D01*
X202406237Y-107942095D01*
X128063667Y-107656382D02*
X128063667Y-108370666D01*
X128016048Y-108513523D01*
X127920810Y-108608761D01*
X127777953Y-108656380D01*
X127682715Y-108656380D01*
X128492237Y-107751619D02*
X128539856Y-107704001D01*
X128635094Y-107656382D01*
X128873189Y-107656382D01*
X128968427Y-107704001D01*
X129016046Y-107751619D01*
X129063665Y-107846857D01*
X129063665Y-107942095D01*
X129016046Y-108084952D01*
X128444618Y-108656380D01*
X129063665Y-108656380D01*
D12*
X181236880Y-79970238D02*
X180760690Y-80303571D01*
X181236880Y-80541666D02*
X180236880Y-80541666D01*
X180236880Y-80160714D01*
X180284500Y-80065476D01*
X180332119Y-80017857D01*
X180427357Y-79970238D01*
X180570214Y-79970238D01*
X180665452Y-80017857D01*
X180713071Y-80065476D01*
X180760690Y-80160714D01*
X180760690Y-80541666D01*
X180236880Y-79684523D02*
X181236880Y-79351190D01*
X180236880Y-79017857D01*
X181236880Y-78160714D02*
X181236880Y-78732142D01*
X181236880Y-78446428D02*
X180236880Y-78446428D01*
X180379738Y-78541666D01*
X180474976Y-78636904D01*
X180522595Y-78732142D01*
X150422428Y-104992714D02*
X150857857Y-104992714D01*
X150640142Y-105754714D02*
X150640142Y-104992714D01*
X151111857Y-105754714D02*
X151111857Y-104992714D01*
X151402142Y-104992714D01*
X151474714Y-105029000D01*
X151511000Y-105065285D01*
X151547285Y-105137857D01*
X151547285Y-105246714D01*
X151511000Y-105319285D01*
X151474714Y-105355571D01*
X151402142Y-105391857D01*
X151111857Y-105391857D01*
X152273000Y-105754714D02*
X151837571Y-105754714D01*
X152055285Y-105754714D02*
X152055285Y-104992714D01*
X151982714Y-105101571D01*
X151910142Y-105174142D01*
X151837571Y-105210428D01*
X163757428Y-104992714D02*
X164192857Y-104992714D01*
X163975142Y-105754714D02*
X163975142Y-104992714D01*
X164446857Y-105754714D02*
X164446857Y-104992714D01*
X164737142Y-104992714D01*
X164809714Y-105029000D01*
X164846000Y-105065285D01*
X164882285Y-105137857D01*
X164882285Y-105246714D01*
X164846000Y-105319285D01*
X164809714Y-105355571D01*
X164737142Y-105391857D01*
X164446857Y-105391857D01*
X165172571Y-105065285D02*
X165208857Y-105029000D01*
X165281428Y-104992714D01*
X165462857Y-104992714D01*
X165535428Y-105029000D01*
X165571714Y-105065285D01*
X165608000Y-105137857D01*
X165608000Y-105210428D01*
X165571714Y-105319285D01*
X165136285Y-105754714D01*
X165608000Y-105754714D01*
X164211095Y-81748380D02*
X164211095Y-82557904D01*
X164258714Y-82653142D01*
X164306333Y-82700761D01*
X164401571Y-82748380D01*
X164592047Y-82748380D01*
X164687285Y-82700761D01*
X164734904Y-82653142D01*
X164782523Y-82557904D01*
X164782523Y-81748380D01*
X165782523Y-82748380D02*
X165211095Y-82748380D01*
X165496809Y-82748380D02*
X165496809Y-81748380D01*
X165401571Y-81891238D01*
X165306333Y-81986476D01*
X165211095Y-82034095D01*
X161330142Y-93432380D02*
X161901571Y-93432380D01*
X161615857Y-94432380D02*
X161615857Y-93432380D01*
X162234904Y-94432380D02*
X162234904Y-93432380D01*
X162234904Y-93908571D02*
X162806333Y-93908571D01*
X162806333Y-94432380D02*
X162806333Y-93432380D01*
X163473000Y-93432380D02*
X163663476Y-93432380D01*
X163758714Y-93480000D01*
X163853952Y-93575238D01*
X163901571Y-93765714D01*
X163901571Y-94099047D01*
X163853952Y-94289523D01*
X163758714Y-94384761D01*
X163663476Y-94432380D01*
X163473000Y-94432380D01*
X163377761Y-94384761D01*
X163282523Y-94289523D01*
X163234904Y-94099047D01*
X163234904Y-93765714D01*
X163282523Y-93575238D01*
X163377761Y-93480000D01*
X163473000Y-93432380D01*
X164901571Y-94432380D02*
X164568238Y-93956190D01*
X164330142Y-94432380D02*
X164330142Y-93432380D01*
X164711095Y-93432380D01*
X164806333Y-93480000D01*
X164853952Y-93527619D01*
X164901571Y-93622857D01*
X164901571Y-93765714D01*
X164853952Y-93860952D01*
X164806333Y-93908571D01*
X164711095Y-93956190D01*
X164330142Y-93956190D01*
X165806333Y-94432380D02*
X165330142Y-94432380D01*
X165330142Y-93432380D01*
X166092047Y-94146666D02*
X166568238Y-94146666D01*
X165996809Y-94432380D02*
X166330142Y-93432380D01*
X166663476Y-94432380D01*
X167330142Y-93908571D02*
X167473000Y-93956190D01*
X167520619Y-94003809D01*
X167568238Y-94099047D01*
X167568238Y-94241904D01*
X167520619Y-94337142D01*
X167473000Y-94384761D01*
X167377761Y-94432380D01*
X166996809Y-94432380D01*
X166996809Y-93432380D01*
X167330142Y-93432380D01*
X167425380Y-93480000D01*
X167473000Y-93527619D01*
X167520619Y-93622857D01*
X167520619Y-93718095D01*
X167473000Y-93813333D01*
X167425380Y-93860952D01*
X167330142Y-93908571D01*
X166996809Y-93908571D01*
X167949190Y-94384761D02*
X168092047Y-94432380D01*
X168330142Y-94432380D01*
X168425380Y-94384761D01*
X168473000Y-94337142D01*
X168520619Y-94241904D01*
X168520619Y-94146666D01*
X168473000Y-94051428D01*
X168425380Y-94003809D01*
X168330142Y-93956190D01*
X168139666Y-93908571D01*
X168044428Y-93860952D01*
X167996809Y-93813333D01*
X167949190Y-93718095D01*
X167949190Y-93622857D01*
X167996809Y-93527619D01*
X168044428Y-93480000D01*
X168139666Y-93432380D01*
X168377761Y-93432380D01*
X168520619Y-93480000D01*
X160425380Y-91892380D02*
X160425380Y-90892380D01*
X160758714Y-91606666D01*
X161092047Y-90892380D01*
X161092047Y-91892380D01*
X162044428Y-91892380D02*
X161568238Y-91892380D01*
X161568238Y-90892380D01*
X162377761Y-91892380D02*
X162377761Y-90892380D01*
X162615857Y-90892380D01*
X162758714Y-90940000D01*
X162853952Y-91035238D01*
X162901571Y-91130476D01*
X162949190Y-91320952D01*
X162949190Y-91463809D01*
X162901571Y-91654285D01*
X162853952Y-91749523D01*
X162758714Y-91844761D01*
X162615857Y-91892380D01*
X162377761Y-91892380D01*
X163330142Y-90987619D02*
X163377761Y-90940000D01*
X163473000Y-90892380D01*
X163711095Y-90892380D01*
X163806333Y-90940000D01*
X163853952Y-90987619D01*
X163901571Y-91082857D01*
X163901571Y-91178095D01*
X163853952Y-91320952D01*
X163282523Y-91892380D01*
X163901571Y-91892380D01*
X164520619Y-90892380D02*
X164615857Y-90892380D01*
X164711095Y-90940000D01*
X164758714Y-90987619D01*
X164806333Y-91082857D01*
X164853952Y-91273333D01*
X164853952Y-91511428D01*
X164806333Y-91701904D01*
X164758714Y-91797142D01*
X164711095Y-91844761D01*
X164615857Y-91892380D01*
X164520619Y-91892380D01*
X164425380Y-91844761D01*
X164377761Y-91797142D01*
X164330142Y-91701904D01*
X164282523Y-91511428D01*
X164282523Y-91273333D01*
X164330142Y-91082857D01*
X164377761Y-90987619D01*
X164425380Y-90940000D01*
X164520619Y-90892380D01*
X165187285Y-90892380D02*
X165806333Y-90892380D01*
X165473000Y-91273333D01*
X165615857Y-91273333D01*
X165711095Y-91320952D01*
X165758714Y-91368571D01*
X165806333Y-91463809D01*
X165806333Y-91701904D01*
X165758714Y-91797142D01*
X165711095Y-91844761D01*
X165615857Y-91892380D01*
X165330142Y-91892380D01*
X165234904Y-91844761D01*
X165187285Y-91797142D01*
X166806333Y-91797142D02*
X166758714Y-91844761D01*
X166615857Y-91892380D01*
X166520619Y-91892380D01*
X166377761Y-91844761D01*
X166282523Y-91749523D01*
X166234904Y-91654285D01*
X166187285Y-91463809D01*
X166187285Y-91320952D01*
X166234904Y-91130476D01*
X166282523Y-91035238D01*
X166377761Y-90940000D01*
X166520619Y-90892380D01*
X166615857Y-90892380D01*
X166758714Y-90940000D01*
X166806333Y-90987619D01*
X167711095Y-91892380D02*
X167234904Y-91892380D01*
X167234904Y-90892380D01*
X168044428Y-91892380D02*
X168044428Y-90892380D01*
X168615857Y-91892380D01*
X168615857Y-90892380D01*
X169092047Y-91368571D02*
X169425380Y-91368571D01*
X169568238Y-91892380D02*
X169092047Y-91892380D01*
X169092047Y-90892380D01*
X169568238Y-90892380D01*
M02*
