G04 #@! TF.GenerationSoftware,KiCad,Pcbnew,(5.1.5)-3*
G04 #@! TF.CreationDate,2020-09-11T08:26:04-05:00*
G04 #@! TF.ProjectId,laser_driver,6c617365-725f-4647-9269-7665722e6b69,4.1*
G04 #@! TF.SameCoordinates,Original*
G04 #@! TF.FileFunction,Legend,Bot*
G04 #@! TF.FilePolarity,Positive*
%FSLAX46Y46*%
G04 Gerber Fmt 4.6, Leading zero omitted, Abs format (unit mm)*
G04 Created by KiCad (PCBNEW (5.1.5)-3) date 2020-09-11 08:26:04*
%MOMM*%
%LPD*%
G04 APERTURE LIST*
%ADD10C,0.150000*%
%ADD11C,0.149860*%
%ADD12C,0.120000*%
G04 APERTURE END LIST*
D10*
X202358000Y-108783380D02*
X202834190Y-108783380D01*
X202834190Y-107783380D01*
X201500857Y-107831000D02*
X201596095Y-107783380D01*
X201738952Y-107783380D01*
X201881809Y-107831000D01*
X201977047Y-107926238D01*
X202024666Y-108021476D01*
X202072285Y-108211952D01*
X202072285Y-108354809D01*
X202024666Y-108545285D01*
X201977047Y-108640523D01*
X201881809Y-108735761D01*
X201738952Y-108783380D01*
X201643714Y-108783380D01*
X201500857Y-108735761D01*
X201453238Y-108688142D01*
X201453238Y-108354809D01*
X201643714Y-108354809D01*
X200358000Y-107783380D02*
X199738952Y-107783380D01*
X200072285Y-108164333D01*
X199929428Y-108164333D01*
X199834190Y-108211952D01*
X199786571Y-108259571D01*
X199738952Y-108354809D01*
X199738952Y-108592904D01*
X199786571Y-108688142D01*
X199834190Y-108735761D01*
X199929428Y-108783380D01*
X200215142Y-108783380D01*
X200310380Y-108735761D01*
X200358000Y-108688142D01*
X199310380Y-108402428D02*
X198548476Y-108402428D01*
X197881809Y-107783380D02*
X197786571Y-107783380D01*
X197691333Y-107831000D01*
X197643714Y-107878619D01*
X197596095Y-107973857D01*
X197548476Y-108164333D01*
X197548476Y-108402428D01*
X197596095Y-108592904D01*
X197643714Y-108688142D01*
X197691333Y-108735761D01*
X197786571Y-108783380D01*
X197881809Y-108783380D01*
X197977047Y-108735761D01*
X198024666Y-108688142D01*
X198072285Y-108592904D01*
X198119904Y-108402428D01*
X198119904Y-108164333D01*
X198072285Y-107973857D01*
X198024666Y-107878619D01*
X197977047Y-107831000D01*
X197881809Y-107783380D01*
X196929428Y-107783380D02*
X196834190Y-107783380D01*
X196738952Y-107831000D01*
X196691333Y-107878619D01*
X196643714Y-107973857D01*
X196596095Y-108164333D01*
X196596095Y-108402428D01*
X196643714Y-108592904D01*
X196691333Y-108688142D01*
X196738952Y-108735761D01*
X196834190Y-108783380D01*
X196929428Y-108783380D01*
X197024666Y-108735761D01*
X197072285Y-108688142D01*
X197119904Y-108592904D01*
X197167523Y-108402428D01*
X197167523Y-108164333D01*
X197119904Y-107973857D01*
X197072285Y-107878619D01*
X197024666Y-107831000D01*
X196929428Y-107783380D01*
X195977047Y-107783380D02*
X195881809Y-107783380D01*
X195786571Y-107831000D01*
X195738952Y-107878619D01*
X195691333Y-107973857D01*
X195643714Y-108164333D01*
X195643714Y-108402428D01*
X195691333Y-108592904D01*
X195738952Y-108688142D01*
X195786571Y-108735761D01*
X195881809Y-108783380D01*
X195977047Y-108783380D01*
X196072285Y-108735761D01*
X196119904Y-108688142D01*
X196167523Y-108592904D01*
X196215142Y-108402428D01*
X196215142Y-108164333D01*
X196167523Y-107973857D01*
X196119904Y-107878619D01*
X196072285Y-107831000D01*
X195977047Y-107783380D01*
X195024666Y-107783380D02*
X194929428Y-107783380D01*
X194834190Y-107831000D01*
X194786571Y-107878619D01*
X194738952Y-107973857D01*
X194691333Y-108164333D01*
X194691333Y-108402428D01*
X194738952Y-108592904D01*
X194786571Y-108688142D01*
X194834190Y-108735761D01*
X194929428Y-108783380D01*
X195024666Y-108783380D01*
X195119904Y-108735761D01*
X195167523Y-108688142D01*
X195215142Y-108592904D01*
X195262761Y-108402428D01*
X195262761Y-108164333D01*
X195215142Y-107973857D01*
X195167523Y-107878619D01*
X195119904Y-107831000D01*
X195024666Y-107783380D01*
X194072285Y-107783380D02*
X193977047Y-107783380D01*
X193881809Y-107831000D01*
X193834190Y-107878619D01*
X193786571Y-107973857D01*
X193738952Y-108164333D01*
X193738952Y-108402428D01*
X193786571Y-108592904D01*
X193834190Y-108688142D01*
X193881809Y-108735761D01*
X193977047Y-108783380D01*
X194072285Y-108783380D01*
X194167523Y-108735761D01*
X194215142Y-108688142D01*
X194262761Y-108592904D01*
X194310380Y-108402428D01*
X194310380Y-108164333D01*
X194262761Y-107973857D01*
X194215142Y-107878619D01*
X194167523Y-107831000D01*
X194072285Y-107783380D01*
X192881809Y-108116714D02*
X192881809Y-108783380D01*
X193119904Y-107735761D02*
X193358000Y-108450047D01*
X192738952Y-108450047D01*
X191929428Y-107783380D02*
X192119904Y-107783380D01*
X192215142Y-107831000D01*
X192262761Y-107878619D01*
X192358000Y-108021476D01*
X192405619Y-108211952D01*
X192405619Y-108592904D01*
X192358000Y-108688142D01*
X192310380Y-108735761D01*
X192215142Y-108783380D01*
X192024666Y-108783380D01*
X191929428Y-108735761D01*
X191881809Y-108688142D01*
X191834190Y-108592904D01*
X191834190Y-108354809D01*
X191881809Y-108259571D01*
X191929428Y-108211952D01*
X192024666Y-108164333D01*
X192215142Y-108164333D01*
X192310380Y-108211952D01*
X192358000Y-108259571D01*
X192405619Y-108354809D01*
D11*
X127344714Y-91167857D02*
X127344714Y-91313000D01*
X127381000Y-91385571D01*
X127453571Y-91458142D01*
X127598714Y-91494428D01*
X127852714Y-91494428D01*
X127997857Y-91458142D01*
X128070428Y-91385571D01*
X128106714Y-91313000D01*
X128106714Y-91167857D01*
X128070428Y-91095285D01*
X127997857Y-91022714D01*
X127852714Y-90986428D01*
X127598714Y-90986428D01*
X127453571Y-91022714D01*
X127381000Y-91095285D01*
X127344714Y-91167857D01*
X127598714Y-92147571D02*
X128106714Y-92147571D01*
X127598714Y-91821000D02*
X127997857Y-91821000D01*
X128070428Y-91857285D01*
X128106714Y-91929857D01*
X128106714Y-92038714D01*
X128070428Y-92111285D01*
X128034142Y-92147571D01*
X127598714Y-92401571D02*
X127598714Y-92691857D01*
X127344714Y-92510428D02*
X127997857Y-92510428D01*
X128070428Y-92546714D01*
X128106714Y-92619285D01*
X128106714Y-92691857D01*
X127598714Y-92945857D02*
X128360714Y-92945857D01*
X127635000Y-92945857D02*
X127598714Y-93018428D01*
X127598714Y-93163571D01*
X127635000Y-93236142D01*
X127671285Y-93272428D01*
X127743857Y-93308714D01*
X127961571Y-93308714D01*
X128034142Y-93272428D01*
X128070428Y-93236142D01*
X128106714Y-93163571D01*
X128106714Y-93018428D01*
X128070428Y-92945857D01*
X127598714Y-93961857D02*
X128106714Y-93961857D01*
X127598714Y-93635285D02*
X127997857Y-93635285D01*
X128070428Y-93671571D01*
X128106714Y-93744142D01*
X128106714Y-93853000D01*
X128070428Y-93925571D01*
X128034142Y-93961857D01*
X127598714Y-94215857D02*
X127598714Y-94506142D01*
X127344714Y-94324714D02*
X127997857Y-94324714D01*
X128070428Y-94361000D01*
X128106714Y-94433571D01*
X128106714Y-94506142D01*
X202528714Y-91458142D02*
X201766714Y-91458142D01*
X202020714Y-91821000D02*
X202528714Y-91821000D01*
X202093285Y-91821000D02*
X202057000Y-91857285D01*
X202020714Y-91929857D01*
X202020714Y-92038714D01*
X202057000Y-92111285D01*
X202129571Y-92147571D01*
X202528714Y-92147571D01*
X202020714Y-92510428D02*
X202782714Y-92510428D01*
X202057000Y-92510428D02*
X202020714Y-92583000D01*
X202020714Y-92728142D01*
X202057000Y-92800714D01*
X202093285Y-92837000D01*
X202165857Y-92873285D01*
X202383571Y-92873285D01*
X202456142Y-92837000D01*
X202492428Y-92800714D01*
X202528714Y-92728142D01*
X202528714Y-92583000D01*
X202492428Y-92510428D01*
X202020714Y-93526428D02*
X202528714Y-93526428D01*
X202020714Y-93199857D02*
X202419857Y-93199857D01*
X202492428Y-93236142D01*
X202528714Y-93308714D01*
X202528714Y-93417571D01*
X202492428Y-93490142D01*
X202456142Y-93526428D01*
X202020714Y-93780428D02*
X202020714Y-94070714D01*
X201766714Y-93889285D02*
X202419857Y-93889285D01*
X202492428Y-93925571D01*
X202528714Y-93998142D01*
X202528714Y-94070714D01*
D12*
X197485000Y-83820000D02*
X191770000Y-83820000D01*
X191770000Y-81280000D02*
X197485000Y-81280000D01*
X191770000Y-86360000D02*
X197485000Y-86360000D01*
X197485000Y-88900000D02*
X191770000Y-88900000D01*
X191770000Y-91440000D02*
X197485000Y-91440000D01*
X197485000Y-93980000D02*
X191770000Y-93980000D01*
X197485000Y-99060000D02*
X191770000Y-99060000D01*
X191770000Y-106680000D02*
X191770000Y-78740000D01*
X191770000Y-78740000D02*
X197485000Y-78740000D01*
X191770000Y-96520000D02*
X197485000Y-96520000D01*
X191770000Y-101600000D02*
X197485000Y-101600000D01*
X191770000Y-104140000D02*
X191770000Y-101600000D01*
X197485000Y-104140000D02*
X191770000Y-104140000D01*
X197485000Y-78740000D02*
X197485000Y-106680000D01*
X197485000Y-106680000D02*
X191770000Y-106680000D01*
D11*
X196051714Y-100674714D02*
X196051714Y-99912714D01*
X195616285Y-100674714D01*
X195616285Y-99912714D01*
X194818000Y-100602142D02*
X194854285Y-100638428D01*
X194963142Y-100674714D01*
X195035714Y-100674714D01*
X195144571Y-100638428D01*
X195217142Y-100565857D01*
X195253428Y-100493285D01*
X195289714Y-100348142D01*
X195289714Y-100239285D01*
X195253428Y-100094142D01*
X195217142Y-100021571D01*
X195144571Y-99949000D01*
X195035714Y-99912714D01*
X194963142Y-99912714D01*
X194854285Y-99949000D01*
X194818000Y-99985285D01*
X196051714Y-93054714D02*
X196051714Y-92292714D01*
X195616285Y-93054714D01*
X195616285Y-92292714D01*
X194818000Y-92982142D02*
X194854285Y-93018428D01*
X194963142Y-93054714D01*
X195035714Y-93054714D01*
X195144571Y-93018428D01*
X195217142Y-92945857D01*
X195253428Y-92873285D01*
X195289714Y-92728142D01*
X195289714Y-92619285D01*
X195253428Y-92474142D01*
X195217142Y-92401571D01*
X195144571Y-92329000D01*
X195035714Y-92292714D01*
X194963142Y-92292714D01*
X194854285Y-92329000D01*
X194818000Y-92365285D01*
X196160571Y-105029000D02*
X196233142Y-104992714D01*
X196342000Y-104992714D01*
X196450857Y-105029000D01*
X196523428Y-105101571D01*
X196559714Y-105174142D01*
X196596000Y-105319285D01*
X196596000Y-105428142D01*
X196559714Y-105573285D01*
X196523428Y-105645857D01*
X196450857Y-105718428D01*
X196342000Y-105754714D01*
X196269428Y-105754714D01*
X196160571Y-105718428D01*
X196124285Y-105682142D01*
X196124285Y-105428142D01*
X196269428Y-105428142D01*
X195797714Y-105754714D02*
X195797714Y-104992714D01*
X195362285Y-105754714D01*
X195362285Y-104992714D01*
X194999428Y-105754714D02*
X194999428Y-104992714D01*
X194818000Y-104992714D01*
X194709142Y-105029000D01*
X194636571Y-105101571D01*
X194600285Y-105174142D01*
X194564000Y-105319285D01*
X194564000Y-105428142D01*
X194600285Y-105573285D01*
X194636571Y-105645857D01*
X194709142Y-105718428D01*
X194818000Y-105754714D01*
X194999428Y-105754714D01*
X196051714Y-87974714D02*
X196051714Y-87212714D01*
X195616285Y-87974714D01*
X195616285Y-87212714D01*
X194818000Y-87902142D02*
X194854285Y-87938428D01*
X194963142Y-87974714D01*
X195035714Y-87974714D01*
X195144571Y-87938428D01*
X195217142Y-87865857D01*
X195253428Y-87793285D01*
X195289714Y-87648142D01*
X195289714Y-87539285D01*
X195253428Y-87394142D01*
X195217142Y-87321571D01*
X195144571Y-87249000D01*
X195035714Y-87212714D01*
X194963142Y-87212714D01*
X194854285Y-87249000D01*
X194818000Y-87285285D01*
X196051714Y-95594714D02*
X196051714Y-94832714D01*
X195616285Y-95594714D01*
X195616285Y-94832714D01*
X194818000Y-95522142D02*
X194854285Y-95558428D01*
X194963142Y-95594714D01*
X195035714Y-95594714D01*
X195144571Y-95558428D01*
X195217142Y-95485857D01*
X195253428Y-95413285D01*
X195289714Y-95268142D01*
X195289714Y-95159285D01*
X195253428Y-95014142D01*
X195217142Y-94941571D01*
X195144571Y-94869000D01*
X195035714Y-94832714D01*
X194963142Y-94832714D01*
X194854285Y-94869000D01*
X194818000Y-94905285D01*
X196051714Y-103214714D02*
X196051714Y-102452714D01*
X195616285Y-103214714D01*
X195616285Y-102452714D01*
X194818000Y-103142142D02*
X194854285Y-103178428D01*
X194963142Y-103214714D01*
X195035714Y-103214714D01*
X195144571Y-103178428D01*
X195217142Y-103105857D01*
X195253428Y-103033285D01*
X195289714Y-102888142D01*
X195289714Y-102779285D01*
X195253428Y-102634142D01*
X195217142Y-102561571D01*
X195144571Y-102489000D01*
X195035714Y-102452714D01*
X194963142Y-102452714D01*
X194854285Y-102489000D01*
X194818000Y-102525285D01*
X196051714Y-85434714D02*
X196051714Y-84672714D01*
X195616285Y-85434714D01*
X195616285Y-84672714D01*
X194818000Y-85362142D02*
X194854285Y-85398428D01*
X194963142Y-85434714D01*
X195035714Y-85434714D01*
X195144571Y-85398428D01*
X195217142Y-85325857D01*
X195253428Y-85253285D01*
X195289714Y-85108142D01*
X195289714Y-84999285D01*
X195253428Y-84854142D01*
X195217142Y-84781571D01*
X195144571Y-84709000D01*
X195035714Y-84672714D01*
X194963142Y-84672714D01*
X194854285Y-84709000D01*
X194818000Y-84745285D01*
X196051714Y-80354714D02*
X196051714Y-79592714D01*
X195616285Y-80354714D01*
X195616285Y-79592714D01*
X194818000Y-80282142D02*
X194854285Y-80318428D01*
X194963142Y-80354714D01*
X195035714Y-80354714D01*
X195144571Y-80318428D01*
X195217142Y-80245857D01*
X195253428Y-80173285D01*
X195289714Y-80028142D01*
X195289714Y-79919285D01*
X195253428Y-79774142D01*
X195217142Y-79701571D01*
X195144571Y-79629000D01*
X195035714Y-79592714D01*
X194963142Y-79592714D01*
X194854285Y-79629000D01*
X194818000Y-79665285D01*
X196051714Y-82894714D02*
X196051714Y-82132714D01*
X195616285Y-82894714D01*
X195616285Y-82132714D01*
X194818000Y-82822142D02*
X194854285Y-82858428D01*
X194963142Y-82894714D01*
X195035714Y-82894714D01*
X195144571Y-82858428D01*
X195217142Y-82785857D01*
X195253428Y-82713285D01*
X195289714Y-82568142D01*
X195289714Y-82459285D01*
X195253428Y-82314142D01*
X195217142Y-82241571D01*
X195144571Y-82169000D01*
X195035714Y-82132714D01*
X194963142Y-82132714D01*
X194854285Y-82169000D01*
X194818000Y-82205285D01*
X196051714Y-90514714D02*
X196051714Y-89752714D01*
X195616285Y-90514714D01*
X195616285Y-89752714D01*
X194818000Y-90442142D02*
X194854285Y-90478428D01*
X194963142Y-90514714D01*
X195035714Y-90514714D01*
X195144571Y-90478428D01*
X195217142Y-90405857D01*
X195253428Y-90333285D01*
X195289714Y-90188142D01*
X195289714Y-90079285D01*
X195253428Y-89934142D01*
X195217142Y-89861571D01*
X195144571Y-89789000D01*
X195035714Y-89752714D01*
X194963142Y-89752714D01*
X194854285Y-89789000D01*
X194818000Y-89825285D01*
X196559714Y-97844428D02*
X195979142Y-97844428D01*
X196269428Y-98134714D02*
X196269428Y-97554142D01*
X195253428Y-97372714D02*
X195616285Y-97372714D01*
X195652571Y-97735571D01*
X195616285Y-97699285D01*
X195543714Y-97663000D01*
X195362285Y-97663000D01*
X195289714Y-97699285D01*
X195253428Y-97735571D01*
X195217142Y-97808142D01*
X195217142Y-97989571D01*
X195253428Y-98062142D01*
X195289714Y-98098428D01*
X195362285Y-98134714D01*
X195543714Y-98134714D01*
X195616285Y-98098428D01*
X195652571Y-98062142D01*
X194999428Y-97372714D02*
X194745428Y-98134714D01*
X194491428Y-97372714D01*
D12*
X138303000Y-104140000D02*
X132588000Y-104140000D01*
X132588000Y-101600000D02*
X138303000Y-101600000D01*
X138303000Y-99060000D02*
X132588000Y-99060000D01*
X132588000Y-96520000D02*
X138303000Y-96520000D01*
X138303000Y-93980000D02*
X132588000Y-93980000D01*
X132588000Y-91440000D02*
X138303000Y-91440000D01*
X138303000Y-88900000D02*
X132588000Y-88900000D01*
X132588000Y-86360000D02*
X138303000Y-86360000D01*
X138303000Y-83820000D02*
X132588000Y-83820000D01*
X138303000Y-81280000D02*
X138303000Y-83820000D01*
X132588000Y-81280000D02*
X138303000Y-81280000D01*
X132588000Y-106680000D02*
X132588000Y-78740000D01*
X138303000Y-106680000D02*
X132588000Y-106680000D01*
X138303000Y-78740000D02*
X138303000Y-106680000D01*
X132588000Y-78740000D02*
X138303000Y-78740000D01*
D11*
X135091714Y-105754714D02*
X135091714Y-104992714D01*
X134656285Y-105754714D01*
X134656285Y-104992714D01*
X133858000Y-105682142D02*
X133894285Y-105718428D01*
X134003142Y-105754714D01*
X134075714Y-105754714D01*
X134184571Y-105718428D01*
X134257142Y-105645857D01*
X134293428Y-105573285D01*
X134329714Y-105428142D01*
X134329714Y-105319285D01*
X134293428Y-105174142D01*
X134257142Y-105101571D01*
X134184571Y-105029000D01*
X134075714Y-104992714D01*
X134003142Y-104992714D01*
X133894285Y-105029000D01*
X133858000Y-105065285D01*
X135091714Y-103214714D02*
X135091714Y-102452714D01*
X134656285Y-103214714D01*
X134656285Y-102452714D01*
X133858000Y-103142142D02*
X133894285Y-103178428D01*
X134003142Y-103214714D01*
X134075714Y-103214714D01*
X134184571Y-103178428D01*
X134257142Y-103105857D01*
X134293428Y-103033285D01*
X134329714Y-102888142D01*
X134329714Y-102779285D01*
X134293428Y-102634142D01*
X134257142Y-102561571D01*
X134184571Y-102489000D01*
X134075714Y-102452714D01*
X134003142Y-102452714D01*
X133894285Y-102489000D01*
X133858000Y-102525285D01*
X135091714Y-100674714D02*
X135091714Y-99912714D01*
X134656285Y-100674714D01*
X134656285Y-99912714D01*
X133858000Y-100602142D02*
X133894285Y-100638428D01*
X134003142Y-100674714D01*
X134075714Y-100674714D01*
X134184571Y-100638428D01*
X134257142Y-100565857D01*
X134293428Y-100493285D01*
X134329714Y-100348142D01*
X134329714Y-100239285D01*
X134293428Y-100094142D01*
X134257142Y-100021571D01*
X134184571Y-99949000D01*
X134075714Y-99912714D01*
X134003142Y-99912714D01*
X133894285Y-99949000D01*
X133858000Y-99985285D01*
X135091714Y-98134714D02*
X135091714Y-97372714D01*
X134656285Y-98134714D01*
X134656285Y-97372714D01*
X133858000Y-98062142D02*
X133894285Y-98098428D01*
X134003142Y-98134714D01*
X134075714Y-98134714D01*
X134184571Y-98098428D01*
X134257142Y-98025857D01*
X134293428Y-97953285D01*
X134329714Y-97808142D01*
X134329714Y-97699285D01*
X134293428Y-97554142D01*
X134257142Y-97481571D01*
X134184571Y-97409000D01*
X134075714Y-97372714D01*
X134003142Y-97372714D01*
X133894285Y-97409000D01*
X133858000Y-97445285D01*
X135091714Y-95594714D02*
X135091714Y-94832714D01*
X134656285Y-95594714D01*
X134656285Y-94832714D01*
X133858000Y-95522142D02*
X133894285Y-95558428D01*
X134003142Y-95594714D01*
X134075714Y-95594714D01*
X134184571Y-95558428D01*
X134257142Y-95485857D01*
X134293428Y-95413285D01*
X134329714Y-95268142D01*
X134329714Y-95159285D01*
X134293428Y-95014142D01*
X134257142Y-94941571D01*
X134184571Y-94869000D01*
X134075714Y-94832714D01*
X134003142Y-94832714D01*
X133894285Y-94869000D01*
X133858000Y-94905285D01*
X135091714Y-93054714D02*
X135091714Y-92292714D01*
X134656285Y-93054714D01*
X134656285Y-92292714D01*
X133858000Y-92982142D02*
X133894285Y-93018428D01*
X134003142Y-93054714D01*
X134075714Y-93054714D01*
X134184571Y-93018428D01*
X134257142Y-92945857D01*
X134293428Y-92873285D01*
X134329714Y-92728142D01*
X134329714Y-92619285D01*
X134293428Y-92474142D01*
X134257142Y-92401571D01*
X134184571Y-92329000D01*
X134075714Y-92292714D01*
X134003142Y-92292714D01*
X133894285Y-92329000D01*
X133858000Y-92365285D01*
X135091714Y-90514714D02*
X135091714Y-89752714D01*
X134656285Y-90514714D01*
X134656285Y-89752714D01*
X133858000Y-90442142D02*
X133894285Y-90478428D01*
X134003142Y-90514714D01*
X134075714Y-90514714D01*
X134184571Y-90478428D01*
X134257142Y-90405857D01*
X134293428Y-90333285D01*
X134329714Y-90188142D01*
X134329714Y-90079285D01*
X134293428Y-89934142D01*
X134257142Y-89861571D01*
X134184571Y-89789000D01*
X134075714Y-89752714D01*
X134003142Y-89752714D01*
X133894285Y-89789000D01*
X133858000Y-89825285D01*
X135091714Y-87974714D02*
X135091714Y-87212714D01*
X134656285Y-87974714D01*
X134656285Y-87212714D01*
X133858000Y-87902142D02*
X133894285Y-87938428D01*
X134003142Y-87974714D01*
X134075714Y-87974714D01*
X134184571Y-87938428D01*
X134257142Y-87865857D01*
X134293428Y-87793285D01*
X134329714Y-87648142D01*
X134329714Y-87539285D01*
X134293428Y-87394142D01*
X134257142Y-87321571D01*
X134184571Y-87249000D01*
X134075714Y-87212714D01*
X134003142Y-87212714D01*
X133894285Y-87249000D01*
X133858000Y-87285285D01*
X135019142Y-85434714D02*
X135382000Y-85434714D01*
X135382000Y-84672714D01*
X134765142Y-85434714D02*
X134765142Y-84672714D01*
X134583714Y-84672714D01*
X134474857Y-84709000D01*
X134402285Y-84781571D01*
X134366000Y-84854142D01*
X134329714Y-84999285D01*
X134329714Y-85108142D01*
X134366000Y-85253285D01*
X134402285Y-85325857D01*
X134474857Y-85398428D01*
X134583714Y-85434714D01*
X134765142Y-85434714D01*
X133567714Y-85362142D02*
X133604000Y-85398428D01*
X133712857Y-85434714D01*
X133785428Y-85434714D01*
X133894285Y-85398428D01*
X133966857Y-85325857D01*
X134003142Y-85253285D01*
X134039428Y-85108142D01*
X134039428Y-84999285D01*
X134003142Y-84854142D01*
X133966857Y-84781571D01*
X133894285Y-84709000D01*
X133785428Y-84672714D01*
X133712857Y-84672714D01*
X133604000Y-84709000D01*
X133567714Y-84745285D01*
X134964714Y-82894714D02*
X135327571Y-82894714D01*
X135327571Y-82132714D01*
X134710714Y-82894714D02*
X134710714Y-82132714D01*
X134529285Y-82132714D01*
X134420428Y-82169000D01*
X134347857Y-82241571D01*
X134311571Y-82314142D01*
X134275285Y-82459285D01*
X134275285Y-82568142D01*
X134311571Y-82713285D01*
X134347857Y-82785857D01*
X134420428Y-82858428D01*
X134529285Y-82894714D01*
X134710714Y-82894714D01*
X133985000Y-82677000D02*
X133622142Y-82677000D01*
X134057571Y-82894714D02*
X133803571Y-82132714D01*
X133549571Y-82894714D01*
X135073571Y-79629000D02*
X135146142Y-79592714D01*
X135255000Y-79592714D01*
X135363857Y-79629000D01*
X135436428Y-79701571D01*
X135472714Y-79774142D01*
X135509000Y-79919285D01*
X135509000Y-80028142D01*
X135472714Y-80173285D01*
X135436428Y-80245857D01*
X135363857Y-80318428D01*
X135255000Y-80354714D01*
X135182428Y-80354714D01*
X135073571Y-80318428D01*
X135037285Y-80282142D01*
X135037285Y-80028142D01*
X135182428Y-80028142D01*
X134710714Y-80354714D02*
X134710714Y-79592714D01*
X134275285Y-80354714D01*
X134275285Y-79592714D01*
X133912428Y-80354714D02*
X133912428Y-79592714D01*
X133731000Y-79592714D01*
X133622142Y-79629000D01*
X133549571Y-79701571D01*
X133513285Y-79774142D01*
X133477000Y-79919285D01*
X133477000Y-80028142D01*
X133513285Y-80173285D01*
X133549571Y-80245857D01*
X133622142Y-80318428D01*
X133731000Y-80354714D01*
X133912428Y-80354714D01*
M02*
