G04 #@! TF.GenerationSoftware,KiCad,Pcbnew,(5.1.2)-1*
G04 #@! TF.CreationDate,2019-11-05T14:59:34-06:00*
G04 #@! TF.ProjectId,laser_driver,6c617365-725f-4647-9269-7665722e6b69,rev?*
G04 #@! TF.SameCoordinates,Original*
G04 #@! TF.FileFunction,Soldermask,Top*
G04 #@! TF.FilePolarity,Negative*
%FSLAX46Y46*%
G04 Gerber Fmt 4.6, Leading zero omitted, Abs format (unit mm)*
G04 Created by KiCad (PCBNEW (5.1.2)-1) date 2019-11-05 14:59:34*
%MOMM*%
%LPD*%
G04 APERTURE LIST*
%ADD10C,0.100000*%
G04 APERTURE END LIST*
D10*
X219174000Y-105410000D02*
G75*
G03X219174000Y-105410000I-861000J0D01*
G01*
X219174000Y-102870000D02*
G75*
G03X219174000Y-102870000I-861000J0D01*
G01*
X219174000Y-100330000D02*
G75*
G03X219174000Y-100330000I-861000J0D01*
G01*
X219174000Y-97790000D02*
G75*
G03X219174000Y-97790000I-861000J0D01*
G01*
X219174000Y-95250000D02*
G75*
G03X219174000Y-95250000I-861000J0D01*
G01*
X219174000Y-92710000D02*
G75*
G03X219174000Y-92710000I-861000J0D01*
G01*
X219174000Y-90170000D02*
G75*
G03X219174000Y-90170000I-861000J0D01*
G01*
X219174000Y-87630000D02*
G75*
G03X219174000Y-87630000I-861000J0D01*
G01*
X219174000Y-85090000D02*
G75*
G03X219174000Y-85090000I-861000J0D01*
G01*
X219174000Y-82550000D02*
G75*
G03X219174000Y-82550000I-861000J0D01*
G01*
X219174000Y-80010000D02*
G75*
G03X219174000Y-80010000I-861000J0D01*
G01*
X138021000Y-105410000D02*
G75*
G03X138021000Y-105410000I-861000J0D01*
G01*
X138021000Y-102870000D02*
G75*
G03X138021000Y-102870000I-861000J0D01*
G01*
X138021000Y-100330000D02*
G75*
G03X138021000Y-100330000I-861000J0D01*
G01*
X138021000Y-97790000D02*
G75*
G03X138021000Y-97790000I-861000J0D01*
G01*
X138021000Y-95250000D02*
G75*
G03X138021000Y-95250000I-861000J0D01*
G01*
X138021000Y-92710000D02*
G75*
G03X138021000Y-92710000I-861000J0D01*
G01*
X138021000Y-90170000D02*
G75*
G03X138021000Y-90170000I-861000J0D01*
G01*
X138021000Y-87630000D02*
G75*
G03X138021000Y-87630000I-861000J0D01*
G01*
X138021000Y-85090000D02*
G75*
G03X138021000Y-85090000I-861000J0D01*
G01*
X138021000Y-82550000D02*
G75*
G03X138021000Y-82550000I-861000J0D01*
G01*
X138021000Y-80010000D02*
G75*
G03X138021000Y-80010000I-861000J0D01*
G01*
G36*
X213100256Y-103801298D02*
G01*
X213206579Y-103822447D01*
X213507042Y-103946903D01*
X213777451Y-104127585D01*
X214007415Y-104357549D01*
X214188097Y-104627958D01*
X214188098Y-104627960D01*
X214312553Y-104928422D01*
X214376000Y-105247389D01*
X214376000Y-105572611D01*
X214333702Y-105785256D01*
X214312553Y-105891579D01*
X214188097Y-106192042D01*
X214007415Y-106462451D01*
X213777451Y-106692415D01*
X213507042Y-106873097D01*
X213206579Y-106997553D01*
X213100256Y-107018702D01*
X212887611Y-107061000D01*
X212562389Y-107061000D01*
X212349744Y-107018702D01*
X212243421Y-106997553D01*
X211942958Y-106873097D01*
X211672549Y-106692415D01*
X211442585Y-106462451D01*
X211261903Y-106192042D01*
X211137447Y-105891579D01*
X211116298Y-105785256D01*
X211074000Y-105572611D01*
X211074000Y-105247389D01*
X211137447Y-104928422D01*
X211261902Y-104627960D01*
X211261903Y-104627958D01*
X211442585Y-104357549D01*
X211672549Y-104127585D01*
X211942958Y-103946903D01*
X212243421Y-103822447D01*
X212349744Y-103801298D01*
X212562389Y-103759000D01*
X212887611Y-103759000D01*
X213100256Y-103801298D01*
X213100256Y-103801298D01*
G37*
G36*
X143250256Y-103801298D02*
G01*
X143356579Y-103822447D01*
X143657042Y-103946903D01*
X143927451Y-104127585D01*
X144157415Y-104357549D01*
X144338097Y-104627958D01*
X144338098Y-104627960D01*
X144462553Y-104928422D01*
X144526000Y-105247389D01*
X144526000Y-105572611D01*
X144483702Y-105785256D01*
X144462553Y-105891579D01*
X144338097Y-106192042D01*
X144157415Y-106462451D01*
X143927451Y-106692415D01*
X143657042Y-106873097D01*
X143356579Y-106997553D01*
X143250256Y-107018702D01*
X143037611Y-107061000D01*
X142712389Y-107061000D01*
X142499744Y-107018702D01*
X142393421Y-106997553D01*
X142092958Y-106873097D01*
X141822549Y-106692415D01*
X141592585Y-106462451D01*
X141411903Y-106192042D01*
X141287447Y-105891579D01*
X141266298Y-105785256D01*
X141224000Y-105572611D01*
X141224000Y-105247389D01*
X141287447Y-104928422D01*
X141411902Y-104627960D01*
X141411903Y-104627958D01*
X141592585Y-104357549D01*
X141822549Y-104127585D01*
X142092958Y-103946903D01*
X142393421Y-103822447D01*
X142499744Y-103801298D01*
X142712389Y-103759000D01*
X143037611Y-103759000D01*
X143250256Y-103801298D01*
X143250256Y-103801298D01*
G37*
G36*
X218564143Y-104582087D02*
G01*
X218720838Y-104646992D01*
X218861853Y-104741215D01*
X218981785Y-104861147D01*
X219076008Y-105002162D01*
X219140913Y-105158857D01*
X219174000Y-105325198D01*
X219174000Y-105494802D01*
X219140913Y-105661143D01*
X219076008Y-105817838D01*
X218981785Y-105958853D01*
X218861853Y-106078785D01*
X218720838Y-106173008D01*
X218564143Y-106237913D01*
X218397802Y-106271000D01*
X218228198Y-106271000D01*
X218061857Y-106237913D01*
X217905162Y-106173008D01*
X217764147Y-106078785D01*
X217644215Y-105958853D01*
X217549992Y-105817838D01*
X217485087Y-105661143D01*
X217452000Y-105494802D01*
X217452000Y-105325198D01*
X217485087Y-105158857D01*
X217549992Y-105002162D01*
X217644215Y-104861147D01*
X217764147Y-104741215D01*
X217905162Y-104646992D01*
X218061857Y-104582087D01*
X218228198Y-104549000D01*
X218397802Y-104549000D01*
X218564143Y-104582087D01*
X218564143Y-104582087D01*
G37*
G36*
X137411143Y-104582087D02*
G01*
X137567838Y-104646992D01*
X137708853Y-104741215D01*
X137828785Y-104861147D01*
X137923008Y-105002162D01*
X137987913Y-105158857D01*
X138021000Y-105325198D01*
X138021000Y-105494802D01*
X137987913Y-105661143D01*
X137923008Y-105817838D01*
X137828785Y-105958853D01*
X137708853Y-106078785D01*
X137567838Y-106173008D01*
X137411143Y-106237913D01*
X137244802Y-106271000D01*
X137075198Y-106271000D01*
X136908857Y-106237913D01*
X136752162Y-106173008D01*
X136611147Y-106078785D01*
X136491215Y-105958853D01*
X136396992Y-105817838D01*
X136332087Y-105661143D01*
X136299000Y-105494802D01*
X136299000Y-105325198D01*
X136332087Y-105158857D01*
X136396992Y-105002162D01*
X136491215Y-104861147D01*
X136611147Y-104741215D01*
X136752162Y-104646992D01*
X136908857Y-104582087D01*
X137075198Y-104549000D01*
X137244802Y-104549000D01*
X137411143Y-104582087D01*
X137411143Y-104582087D01*
G37*
G36*
X206555267Y-101706263D02*
G01*
X206707411Y-101736526D01*
X206826137Y-101785704D01*
X206994041Y-101855252D01*
X206994042Y-101855253D01*
X207252004Y-102027617D01*
X207471383Y-102246996D01*
X207520927Y-102321144D01*
X207643748Y-102504959D01*
X207690926Y-102618857D01*
X207759827Y-102785198D01*
X207762474Y-102791590D01*
X207823000Y-103095875D01*
X207823000Y-103406125D01*
X207801580Y-103513811D01*
X207762474Y-103710411D01*
X207716067Y-103822447D01*
X207643748Y-103997041D01*
X207643747Y-103997042D01*
X207471383Y-104255004D01*
X207252004Y-104474383D01*
X207140331Y-104549000D01*
X206994041Y-104646748D01*
X206826137Y-104716296D01*
X206707411Y-104765474D01*
X206403125Y-104826000D01*
X206092875Y-104826000D01*
X205788589Y-104765474D01*
X205669863Y-104716296D01*
X205501959Y-104646748D01*
X205355669Y-104549000D01*
X205243996Y-104474383D01*
X205024617Y-104255004D01*
X204852253Y-103997042D01*
X204852252Y-103997041D01*
X204779933Y-103822447D01*
X204733526Y-103710411D01*
X204694420Y-103513811D01*
X204673000Y-103406125D01*
X204673000Y-103095875D01*
X204733526Y-102791590D01*
X204736174Y-102785198D01*
X204805074Y-102618857D01*
X204852252Y-102504959D01*
X204975073Y-102321144D01*
X205024617Y-102246996D01*
X205243996Y-102027617D01*
X205501958Y-101855253D01*
X205501959Y-101855252D01*
X205669863Y-101785704D01*
X205788589Y-101736526D01*
X205940733Y-101706263D01*
X206092875Y-101676000D01*
X206403125Y-101676000D01*
X206555267Y-101706263D01*
X206555267Y-101706263D01*
G37*
G36*
X149405267Y-101706263D02*
G01*
X149557411Y-101736526D01*
X149676137Y-101785704D01*
X149844041Y-101855252D01*
X149844042Y-101855253D01*
X150102004Y-102027617D01*
X150321383Y-102246996D01*
X150370927Y-102321144D01*
X150493748Y-102504959D01*
X150540926Y-102618857D01*
X150609827Y-102785198D01*
X150612474Y-102791590D01*
X150673000Y-103095875D01*
X150673000Y-103406125D01*
X150651580Y-103513811D01*
X150612474Y-103710411D01*
X150566067Y-103822447D01*
X150493748Y-103997041D01*
X150493747Y-103997042D01*
X150321383Y-104255004D01*
X150102004Y-104474383D01*
X149990331Y-104549000D01*
X149844041Y-104646748D01*
X149676137Y-104716296D01*
X149557411Y-104765474D01*
X149253125Y-104826000D01*
X148942875Y-104826000D01*
X148638589Y-104765474D01*
X148519863Y-104716296D01*
X148351959Y-104646748D01*
X148205669Y-104549000D01*
X148093996Y-104474383D01*
X147874617Y-104255004D01*
X147702253Y-103997042D01*
X147702252Y-103997041D01*
X147629933Y-103822447D01*
X147583526Y-103710411D01*
X147544420Y-103513811D01*
X147523000Y-103406125D01*
X147523000Y-103095875D01*
X147583526Y-102791590D01*
X147586174Y-102785198D01*
X147655074Y-102618857D01*
X147702252Y-102504959D01*
X147825073Y-102321144D01*
X147874617Y-102246996D01*
X148093996Y-102027617D01*
X148351958Y-101855253D01*
X148351959Y-101855252D01*
X148519863Y-101785704D01*
X148638589Y-101736526D01*
X148790733Y-101706263D01*
X148942875Y-101676000D01*
X149253125Y-101676000D01*
X149405267Y-101706263D01*
X149405267Y-101706263D01*
G37*
G36*
X184771512Y-102354927D02*
G01*
X184920812Y-102384624D01*
X185084784Y-102452544D01*
X185232354Y-102551147D01*
X185357853Y-102676646D01*
X185456456Y-102824216D01*
X185524376Y-102988188D01*
X185559000Y-103162259D01*
X185559000Y-103339741D01*
X185524376Y-103513812D01*
X185456456Y-103677784D01*
X185357853Y-103825354D01*
X185232354Y-103950853D01*
X185084784Y-104049456D01*
X184920812Y-104117376D01*
X184771512Y-104147073D01*
X184746742Y-104152000D01*
X184569258Y-104152000D01*
X184544488Y-104147073D01*
X184395188Y-104117376D01*
X184231216Y-104049456D01*
X184083646Y-103950853D01*
X183958147Y-103825354D01*
X183859544Y-103677784D01*
X183791624Y-103513812D01*
X183757000Y-103339741D01*
X183757000Y-103162259D01*
X183791624Y-102988188D01*
X183859544Y-102824216D01*
X183958147Y-102676646D01*
X184083646Y-102551147D01*
X184231216Y-102452544D01*
X184395188Y-102384624D01*
X184544488Y-102354927D01*
X184569258Y-102350000D01*
X184746742Y-102350000D01*
X184771512Y-102354927D01*
X184771512Y-102354927D01*
G37*
G36*
X187311512Y-102354927D02*
G01*
X187460812Y-102384624D01*
X187624784Y-102452544D01*
X187772354Y-102551147D01*
X187897853Y-102676646D01*
X187996456Y-102824216D01*
X188064376Y-102988188D01*
X188099000Y-103162259D01*
X188099000Y-103339741D01*
X188064376Y-103513812D01*
X187996456Y-103677784D01*
X187897853Y-103825354D01*
X187772354Y-103950853D01*
X187624784Y-104049456D01*
X187460812Y-104117376D01*
X187311512Y-104147073D01*
X187286742Y-104152000D01*
X187109258Y-104152000D01*
X187084488Y-104147073D01*
X186935188Y-104117376D01*
X186771216Y-104049456D01*
X186623646Y-103950853D01*
X186498147Y-103825354D01*
X186399544Y-103677784D01*
X186331624Y-103513812D01*
X186297000Y-103339741D01*
X186297000Y-103162259D01*
X186331624Y-102988188D01*
X186399544Y-102824216D01*
X186498147Y-102676646D01*
X186623646Y-102551147D01*
X186771216Y-102452544D01*
X186935188Y-102384624D01*
X187084488Y-102354927D01*
X187109258Y-102350000D01*
X187286742Y-102350000D01*
X187311512Y-102354927D01*
X187311512Y-102354927D01*
G37*
G36*
X189851512Y-102354927D02*
G01*
X190000812Y-102384624D01*
X190164784Y-102452544D01*
X190312354Y-102551147D01*
X190437853Y-102676646D01*
X190536456Y-102824216D01*
X190604376Y-102988188D01*
X190639000Y-103162259D01*
X190639000Y-103339741D01*
X190604376Y-103513812D01*
X190536456Y-103677784D01*
X190437853Y-103825354D01*
X190312354Y-103950853D01*
X190164784Y-104049456D01*
X190000812Y-104117376D01*
X189851512Y-104147073D01*
X189826742Y-104152000D01*
X189649258Y-104152000D01*
X189624488Y-104147073D01*
X189475188Y-104117376D01*
X189311216Y-104049456D01*
X189163646Y-103950853D01*
X189038147Y-103825354D01*
X188939544Y-103677784D01*
X188871624Y-103513812D01*
X188837000Y-103339741D01*
X188837000Y-103162259D01*
X188871624Y-102988188D01*
X188939544Y-102824216D01*
X189038147Y-102676646D01*
X189163646Y-102551147D01*
X189311216Y-102452544D01*
X189475188Y-102384624D01*
X189624488Y-102354927D01*
X189649258Y-102350000D01*
X189826742Y-102350000D01*
X189851512Y-102354927D01*
X189851512Y-102354927D01*
G37*
G36*
X192391512Y-102354927D02*
G01*
X192540812Y-102384624D01*
X192704784Y-102452544D01*
X192852354Y-102551147D01*
X192977853Y-102676646D01*
X193076456Y-102824216D01*
X193144376Y-102988188D01*
X193179000Y-103162259D01*
X193179000Y-103339741D01*
X193144376Y-103513812D01*
X193076456Y-103677784D01*
X192977853Y-103825354D01*
X192852354Y-103950853D01*
X192704784Y-104049456D01*
X192540812Y-104117376D01*
X192391512Y-104147073D01*
X192366742Y-104152000D01*
X192189258Y-104152000D01*
X192164488Y-104147073D01*
X192015188Y-104117376D01*
X191851216Y-104049456D01*
X191703646Y-103950853D01*
X191578147Y-103825354D01*
X191479544Y-103677784D01*
X191411624Y-103513812D01*
X191377000Y-103339741D01*
X191377000Y-103162259D01*
X191411624Y-102988188D01*
X191479544Y-102824216D01*
X191578147Y-102676646D01*
X191703646Y-102551147D01*
X191851216Y-102452544D01*
X192015188Y-102384624D01*
X192164488Y-102354927D01*
X192189258Y-102350000D01*
X192366742Y-102350000D01*
X192391512Y-102354927D01*
X192391512Y-102354927D01*
G37*
G36*
X194931512Y-102354927D02*
G01*
X195080812Y-102384624D01*
X195244784Y-102452544D01*
X195392354Y-102551147D01*
X195517853Y-102676646D01*
X195616456Y-102824216D01*
X195684376Y-102988188D01*
X195719000Y-103162259D01*
X195719000Y-103339741D01*
X195684376Y-103513812D01*
X195616456Y-103677784D01*
X195517853Y-103825354D01*
X195392354Y-103950853D01*
X195244784Y-104049456D01*
X195080812Y-104117376D01*
X194931512Y-104147073D01*
X194906742Y-104152000D01*
X194729258Y-104152000D01*
X194704488Y-104147073D01*
X194555188Y-104117376D01*
X194391216Y-104049456D01*
X194243646Y-103950853D01*
X194118147Y-103825354D01*
X194019544Y-103677784D01*
X193951624Y-103513812D01*
X193917000Y-103339741D01*
X193917000Y-103162259D01*
X193951624Y-102988188D01*
X194019544Y-102824216D01*
X194118147Y-102676646D01*
X194243646Y-102551147D01*
X194391216Y-102452544D01*
X194555188Y-102384624D01*
X194704488Y-102354927D01*
X194729258Y-102350000D01*
X194906742Y-102350000D01*
X194931512Y-102354927D01*
X194931512Y-102354927D01*
G37*
G36*
X137411143Y-102042087D02*
G01*
X137567838Y-102106992D01*
X137708853Y-102201215D01*
X137828785Y-102321147D01*
X137923008Y-102462162D01*
X137987913Y-102618857D01*
X138021000Y-102785198D01*
X138021000Y-102954802D01*
X137987913Y-103121143D01*
X137923008Y-103277838D01*
X137828785Y-103418853D01*
X137708853Y-103538785D01*
X137567838Y-103633008D01*
X137411143Y-103697913D01*
X137244802Y-103731000D01*
X137075198Y-103731000D01*
X136908857Y-103697913D01*
X136752162Y-103633008D01*
X136611147Y-103538785D01*
X136491215Y-103418853D01*
X136396992Y-103277838D01*
X136332087Y-103121143D01*
X136299000Y-102954802D01*
X136299000Y-102785198D01*
X136332087Y-102618857D01*
X136396992Y-102462162D01*
X136491215Y-102321147D01*
X136611147Y-102201215D01*
X136752162Y-102106992D01*
X136908857Y-102042087D01*
X137075198Y-102009000D01*
X137244802Y-102009000D01*
X137411143Y-102042087D01*
X137411143Y-102042087D01*
G37*
G36*
X218564143Y-102042087D02*
G01*
X218720838Y-102106992D01*
X218861853Y-102201215D01*
X218981785Y-102321147D01*
X219076008Y-102462162D01*
X219140913Y-102618857D01*
X219174000Y-102785198D01*
X219174000Y-102954802D01*
X219140913Y-103121143D01*
X219076008Y-103277838D01*
X218981785Y-103418853D01*
X218861853Y-103538785D01*
X218720838Y-103633008D01*
X218564143Y-103697913D01*
X218397802Y-103731000D01*
X218228198Y-103731000D01*
X218061857Y-103697913D01*
X217905162Y-103633008D01*
X217764147Y-103538785D01*
X217644215Y-103418853D01*
X217549992Y-103277838D01*
X217485087Y-103121143D01*
X217452000Y-102954802D01*
X217452000Y-102785198D01*
X217485087Y-102618857D01*
X217549992Y-102462162D01*
X217644215Y-102321147D01*
X217764147Y-102201215D01*
X217905162Y-102106992D01*
X218061857Y-102042087D01*
X218228198Y-102009000D01*
X218397802Y-102009000D01*
X218564143Y-102042087D01*
X218564143Y-102042087D01*
G37*
G36*
X137411143Y-99502087D02*
G01*
X137567838Y-99566992D01*
X137708853Y-99661215D01*
X137828785Y-99781147D01*
X137923008Y-99922162D01*
X137987913Y-100078857D01*
X138021000Y-100245198D01*
X138021000Y-100414802D01*
X137987913Y-100581143D01*
X137923008Y-100737838D01*
X137828785Y-100878853D01*
X137708853Y-100998785D01*
X137567838Y-101093008D01*
X137411143Y-101157913D01*
X137244802Y-101191000D01*
X137075198Y-101191000D01*
X136908857Y-101157913D01*
X136752162Y-101093008D01*
X136611147Y-100998785D01*
X136491215Y-100878853D01*
X136396992Y-100737838D01*
X136332087Y-100581143D01*
X136299000Y-100414802D01*
X136299000Y-100245198D01*
X136332087Y-100078857D01*
X136396992Y-99922162D01*
X136491215Y-99781147D01*
X136611147Y-99661215D01*
X136752162Y-99566992D01*
X136908857Y-99502087D01*
X137075198Y-99469000D01*
X137244802Y-99469000D01*
X137411143Y-99502087D01*
X137411143Y-99502087D01*
G37*
G36*
X218564143Y-99502087D02*
G01*
X218720838Y-99566992D01*
X218861853Y-99661215D01*
X218981785Y-99781147D01*
X219076008Y-99922162D01*
X219140913Y-100078857D01*
X219174000Y-100245198D01*
X219174000Y-100414802D01*
X219140913Y-100581143D01*
X219076008Y-100737838D01*
X218981785Y-100878853D01*
X218861853Y-100998785D01*
X218720838Y-101093008D01*
X218564143Y-101157913D01*
X218397802Y-101191000D01*
X218228198Y-101191000D01*
X218061857Y-101157913D01*
X217905162Y-101093008D01*
X217764147Y-100998785D01*
X217644215Y-100878853D01*
X217549992Y-100737838D01*
X217485087Y-100581143D01*
X217452000Y-100414802D01*
X217452000Y-100245198D01*
X217485087Y-100078857D01*
X217549992Y-99922162D01*
X217644215Y-99781147D01*
X217764147Y-99661215D01*
X217905162Y-99566992D01*
X218061857Y-99502087D01*
X218228198Y-99469000D01*
X218397802Y-99469000D01*
X218564143Y-99502087D01*
X218564143Y-99502087D01*
G37*
G36*
X218564143Y-96962087D02*
G01*
X218720838Y-97026992D01*
X218861853Y-97121215D01*
X218981785Y-97241147D01*
X219076008Y-97382162D01*
X219140913Y-97538857D01*
X219174000Y-97705198D01*
X219174000Y-97874802D01*
X219140913Y-98041143D01*
X219076008Y-98197838D01*
X218981785Y-98338853D01*
X218861853Y-98458785D01*
X218720838Y-98553008D01*
X218564143Y-98617913D01*
X218397802Y-98651000D01*
X218228198Y-98651000D01*
X218061857Y-98617913D01*
X217905162Y-98553008D01*
X217764147Y-98458785D01*
X217644215Y-98338853D01*
X217549992Y-98197838D01*
X217485087Y-98041143D01*
X217452000Y-97874802D01*
X217452000Y-97705198D01*
X217485087Y-97538857D01*
X217549992Y-97382162D01*
X217644215Y-97241147D01*
X217764147Y-97121215D01*
X217905162Y-97026992D01*
X218061857Y-96962087D01*
X218228198Y-96929000D01*
X218397802Y-96929000D01*
X218564143Y-96962087D01*
X218564143Y-96962087D01*
G37*
G36*
X137411143Y-96962087D02*
G01*
X137567838Y-97026992D01*
X137708853Y-97121215D01*
X137828785Y-97241147D01*
X137923008Y-97382162D01*
X137987913Y-97538857D01*
X138021000Y-97705198D01*
X138021000Y-97874802D01*
X137987913Y-98041143D01*
X137923008Y-98197838D01*
X137828785Y-98338853D01*
X137708853Y-98458785D01*
X137567838Y-98553008D01*
X137411143Y-98617913D01*
X137244802Y-98651000D01*
X137075198Y-98651000D01*
X136908857Y-98617913D01*
X136752162Y-98553008D01*
X136611147Y-98458785D01*
X136491215Y-98338853D01*
X136396992Y-98197838D01*
X136332087Y-98041143D01*
X136299000Y-97874802D01*
X136299000Y-97705198D01*
X136332087Y-97538857D01*
X136396992Y-97382162D01*
X136491215Y-97241147D01*
X136611147Y-97121215D01*
X136752162Y-97026992D01*
X136908857Y-96962087D01*
X137075198Y-96929000D01*
X137244802Y-96929000D01*
X137411143Y-96962087D01*
X137411143Y-96962087D01*
G37*
G36*
X218564143Y-94422087D02*
G01*
X218720838Y-94486992D01*
X218861853Y-94581215D01*
X218981785Y-94701147D01*
X219076008Y-94842162D01*
X219140913Y-94998857D01*
X219174000Y-95165198D01*
X219174000Y-95334802D01*
X219140913Y-95501143D01*
X219076008Y-95657838D01*
X218981785Y-95798853D01*
X218861853Y-95918785D01*
X218720838Y-96013008D01*
X218564143Y-96077913D01*
X218397802Y-96111000D01*
X218228198Y-96111000D01*
X218061857Y-96077913D01*
X217905162Y-96013008D01*
X217764147Y-95918785D01*
X217644215Y-95798853D01*
X217549992Y-95657838D01*
X217485087Y-95501143D01*
X217452000Y-95334802D01*
X217452000Y-95165198D01*
X217485087Y-94998857D01*
X217549992Y-94842162D01*
X217644215Y-94701147D01*
X217764147Y-94581215D01*
X217905162Y-94486992D01*
X218061857Y-94422087D01*
X218228198Y-94389000D01*
X218397802Y-94389000D01*
X218564143Y-94422087D01*
X218564143Y-94422087D01*
G37*
G36*
X137411143Y-94422087D02*
G01*
X137567838Y-94486992D01*
X137708853Y-94581215D01*
X137828785Y-94701147D01*
X137923008Y-94842162D01*
X137987913Y-94998857D01*
X138021000Y-95165198D01*
X138021000Y-95334802D01*
X137987913Y-95501143D01*
X137923008Y-95657838D01*
X137828785Y-95798853D01*
X137708853Y-95918785D01*
X137567838Y-96013008D01*
X137411143Y-96077913D01*
X137244802Y-96111000D01*
X137075198Y-96111000D01*
X136908857Y-96077913D01*
X136752162Y-96013008D01*
X136611147Y-95918785D01*
X136491215Y-95798853D01*
X136396992Y-95657838D01*
X136332087Y-95501143D01*
X136299000Y-95334802D01*
X136299000Y-95165198D01*
X136332087Y-94998857D01*
X136396992Y-94842162D01*
X136491215Y-94701147D01*
X136611147Y-94581215D01*
X136752162Y-94486992D01*
X136908857Y-94422087D01*
X137075198Y-94389000D01*
X137244802Y-94389000D01*
X137411143Y-94422087D01*
X137411143Y-94422087D01*
G37*
G36*
X218564143Y-91882087D02*
G01*
X218720838Y-91946992D01*
X218861853Y-92041215D01*
X218981785Y-92161147D01*
X219076008Y-92302162D01*
X219140913Y-92458857D01*
X219174000Y-92625198D01*
X219174000Y-92794802D01*
X219140913Y-92961143D01*
X219076008Y-93117838D01*
X218981785Y-93258853D01*
X218861853Y-93378785D01*
X218720838Y-93473008D01*
X218564143Y-93537913D01*
X218397802Y-93571000D01*
X218228198Y-93571000D01*
X218061857Y-93537913D01*
X217905162Y-93473008D01*
X217764147Y-93378785D01*
X217644215Y-93258853D01*
X217549992Y-93117838D01*
X217485087Y-92961143D01*
X217452000Y-92794802D01*
X217452000Y-92625198D01*
X217485087Y-92458857D01*
X217549992Y-92302162D01*
X217644215Y-92161147D01*
X217764147Y-92041215D01*
X217905162Y-91946992D01*
X218061857Y-91882087D01*
X218228198Y-91849000D01*
X218397802Y-91849000D01*
X218564143Y-91882087D01*
X218564143Y-91882087D01*
G37*
G36*
X137411143Y-91882087D02*
G01*
X137567838Y-91946992D01*
X137708853Y-92041215D01*
X137828785Y-92161147D01*
X137923008Y-92302162D01*
X137987913Y-92458857D01*
X138021000Y-92625198D01*
X138021000Y-92794802D01*
X137987913Y-92961143D01*
X137923008Y-93117838D01*
X137828785Y-93258853D01*
X137708853Y-93378785D01*
X137567838Y-93473008D01*
X137411143Y-93537913D01*
X137244802Y-93571000D01*
X137075198Y-93571000D01*
X136908857Y-93537913D01*
X136752162Y-93473008D01*
X136611147Y-93378785D01*
X136491215Y-93258853D01*
X136396992Y-93117838D01*
X136332087Y-92961143D01*
X136299000Y-92794802D01*
X136299000Y-92625198D01*
X136332087Y-92458857D01*
X136396992Y-92302162D01*
X136491215Y-92161147D01*
X136611147Y-92041215D01*
X136752162Y-91946992D01*
X136908857Y-91882087D01*
X137075198Y-91849000D01*
X137244802Y-91849000D01*
X137411143Y-91882087D01*
X137411143Y-91882087D01*
G37*
G36*
X137411143Y-89342087D02*
G01*
X137567838Y-89406992D01*
X137708853Y-89501215D01*
X137828785Y-89621147D01*
X137923008Y-89762162D01*
X137987913Y-89918857D01*
X138021000Y-90085198D01*
X138021000Y-90254802D01*
X137987913Y-90421143D01*
X137923008Y-90577838D01*
X137828785Y-90718853D01*
X137708853Y-90838785D01*
X137567838Y-90933008D01*
X137411143Y-90997913D01*
X137244802Y-91031000D01*
X137075198Y-91031000D01*
X136908857Y-90997913D01*
X136752162Y-90933008D01*
X136611147Y-90838785D01*
X136491215Y-90718853D01*
X136396992Y-90577838D01*
X136332087Y-90421143D01*
X136299000Y-90254802D01*
X136299000Y-90085198D01*
X136332087Y-89918857D01*
X136396992Y-89762162D01*
X136491215Y-89621147D01*
X136611147Y-89501215D01*
X136752162Y-89406992D01*
X136908857Y-89342087D01*
X137075198Y-89309000D01*
X137244802Y-89309000D01*
X137411143Y-89342087D01*
X137411143Y-89342087D01*
G37*
G36*
X218564143Y-89342087D02*
G01*
X218720838Y-89406992D01*
X218861853Y-89501215D01*
X218981785Y-89621147D01*
X219076008Y-89762162D01*
X219140913Y-89918857D01*
X219174000Y-90085198D01*
X219174000Y-90254802D01*
X219140913Y-90421143D01*
X219076008Y-90577838D01*
X218981785Y-90718853D01*
X218861853Y-90838785D01*
X218720838Y-90933008D01*
X218564143Y-90997913D01*
X218397802Y-91031000D01*
X218228198Y-91031000D01*
X218061857Y-90997913D01*
X217905162Y-90933008D01*
X217764147Y-90838785D01*
X217644215Y-90718853D01*
X217549992Y-90577838D01*
X217485087Y-90421143D01*
X217452000Y-90254802D01*
X217452000Y-90085198D01*
X217485087Y-89918857D01*
X217549992Y-89762162D01*
X217644215Y-89621147D01*
X217764147Y-89501215D01*
X217905162Y-89406992D01*
X218061857Y-89342087D01*
X218228198Y-89309000D01*
X218397802Y-89309000D01*
X218564143Y-89342087D01*
X218564143Y-89342087D01*
G37*
G36*
X218564143Y-86802087D02*
G01*
X218720838Y-86866992D01*
X218861853Y-86961215D01*
X218981785Y-87081147D01*
X219076008Y-87222162D01*
X219140913Y-87378857D01*
X219174000Y-87545198D01*
X219174000Y-87714802D01*
X219140913Y-87881143D01*
X219076008Y-88037838D01*
X218981785Y-88178853D01*
X218861853Y-88298785D01*
X218720838Y-88393008D01*
X218564143Y-88457913D01*
X218397802Y-88491000D01*
X218228198Y-88491000D01*
X218061857Y-88457913D01*
X217905162Y-88393008D01*
X217764147Y-88298785D01*
X217644215Y-88178853D01*
X217549992Y-88037838D01*
X217485087Y-87881143D01*
X217452000Y-87714802D01*
X217452000Y-87545198D01*
X217485087Y-87378857D01*
X217549992Y-87222162D01*
X217644215Y-87081147D01*
X217764147Y-86961215D01*
X217905162Y-86866992D01*
X218061857Y-86802087D01*
X218228198Y-86769000D01*
X218397802Y-86769000D01*
X218564143Y-86802087D01*
X218564143Y-86802087D01*
G37*
G36*
X137411143Y-86802087D02*
G01*
X137567838Y-86866992D01*
X137708853Y-86961215D01*
X137828785Y-87081147D01*
X137923008Y-87222162D01*
X137987913Y-87378857D01*
X138021000Y-87545198D01*
X138021000Y-87714802D01*
X137987913Y-87881143D01*
X137923008Y-88037838D01*
X137828785Y-88178853D01*
X137708853Y-88298785D01*
X137567838Y-88393008D01*
X137411143Y-88457913D01*
X137244802Y-88491000D01*
X137075198Y-88491000D01*
X136908857Y-88457913D01*
X136752162Y-88393008D01*
X136611147Y-88298785D01*
X136491215Y-88178853D01*
X136396992Y-88037838D01*
X136332087Y-87881143D01*
X136299000Y-87714802D01*
X136299000Y-87545198D01*
X136332087Y-87378857D01*
X136396992Y-87222162D01*
X136491215Y-87081147D01*
X136611147Y-86961215D01*
X136752162Y-86866992D01*
X136908857Y-86802087D01*
X137075198Y-86769000D01*
X137244802Y-86769000D01*
X137411143Y-86802087D01*
X137411143Y-86802087D01*
G37*
G36*
X137411143Y-84262087D02*
G01*
X137567838Y-84326992D01*
X137708853Y-84421215D01*
X137828785Y-84541147D01*
X137923008Y-84682162D01*
X137987913Y-84838857D01*
X138021000Y-85005198D01*
X138021000Y-85174802D01*
X137987913Y-85341143D01*
X137923008Y-85497838D01*
X137828785Y-85638853D01*
X137708853Y-85758785D01*
X137567838Y-85853008D01*
X137411143Y-85917913D01*
X137244802Y-85951000D01*
X137075198Y-85951000D01*
X136908857Y-85917913D01*
X136752162Y-85853008D01*
X136611147Y-85758785D01*
X136491215Y-85638853D01*
X136396992Y-85497838D01*
X136332087Y-85341143D01*
X136299000Y-85174802D01*
X136299000Y-85005198D01*
X136332087Y-84838857D01*
X136396992Y-84682162D01*
X136491215Y-84541147D01*
X136611147Y-84421215D01*
X136752162Y-84326992D01*
X136908857Y-84262087D01*
X137075198Y-84229000D01*
X137244802Y-84229000D01*
X137411143Y-84262087D01*
X137411143Y-84262087D01*
G37*
G36*
X218564143Y-84262087D02*
G01*
X218720838Y-84326992D01*
X218861853Y-84421215D01*
X218981785Y-84541147D01*
X219076008Y-84682162D01*
X219140913Y-84838857D01*
X219174000Y-85005198D01*
X219174000Y-85174802D01*
X219140913Y-85341143D01*
X219076008Y-85497838D01*
X218981785Y-85638853D01*
X218861853Y-85758785D01*
X218720838Y-85853008D01*
X218564143Y-85917913D01*
X218397802Y-85951000D01*
X218228198Y-85951000D01*
X218061857Y-85917913D01*
X217905162Y-85853008D01*
X217764147Y-85758785D01*
X217644215Y-85638853D01*
X217549992Y-85497838D01*
X217485087Y-85341143D01*
X217452000Y-85174802D01*
X217452000Y-85005198D01*
X217485087Y-84838857D01*
X217549992Y-84682162D01*
X217644215Y-84541147D01*
X217764147Y-84421215D01*
X217905162Y-84326992D01*
X218061857Y-84262087D01*
X218228198Y-84229000D01*
X218397802Y-84229000D01*
X218564143Y-84262087D01*
X218564143Y-84262087D01*
G37*
G36*
X149557411Y-80654526D02*
G01*
X149615977Y-80678785D01*
X149844041Y-80773252D01*
X149844042Y-80773253D01*
X150102004Y-80945617D01*
X150321383Y-81164996D01*
X150390208Y-81268000D01*
X150493748Y-81422959D01*
X150514516Y-81473098D01*
X150603946Y-81689000D01*
X150612474Y-81709590D01*
X150670468Y-82001144D01*
X150673000Y-82013876D01*
X150673000Y-82324124D01*
X150612474Y-82628411D01*
X150564863Y-82743353D01*
X150493748Y-82915041D01*
X150493747Y-82915042D01*
X150321383Y-83173004D01*
X150102004Y-83392383D01*
X149929639Y-83507553D01*
X149844041Y-83564748D01*
X149676137Y-83634296D01*
X149557411Y-83683474D01*
X149253125Y-83744000D01*
X148942875Y-83744000D01*
X148638589Y-83683474D01*
X148519863Y-83634296D01*
X148351959Y-83564748D01*
X148266361Y-83507553D01*
X148093996Y-83392383D01*
X147874617Y-83173004D01*
X147702253Y-82915042D01*
X147702252Y-82915041D01*
X147631137Y-82743353D01*
X147583526Y-82628411D01*
X147523000Y-82324124D01*
X147523000Y-82013876D01*
X147525533Y-82001144D01*
X147583526Y-81709590D01*
X147592055Y-81689000D01*
X147681484Y-81473098D01*
X147702252Y-81422959D01*
X147805792Y-81268000D01*
X147874617Y-81164996D01*
X148093996Y-80945617D01*
X148351958Y-80773253D01*
X148351959Y-80773252D01*
X148580023Y-80678785D01*
X148638589Y-80654526D01*
X148942875Y-80594000D01*
X149253125Y-80594000D01*
X149557411Y-80654526D01*
X149557411Y-80654526D01*
G37*
G36*
X206580411Y-80654526D02*
G01*
X206638977Y-80678785D01*
X206867041Y-80773252D01*
X206867042Y-80773253D01*
X207125004Y-80945617D01*
X207344383Y-81164996D01*
X207413208Y-81268000D01*
X207516748Y-81422959D01*
X207537516Y-81473098D01*
X207626946Y-81689000D01*
X207635474Y-81709590D01*
X207693468Y-82001144D01*
X207696000Y-82013876D01*
X207696000Y-82324124D01*
X207635474Y-82628411D01*
X207587863Y-82743353D01*
X207516748Y-82915041D01*
X207516747Y-82915042D01*
X207344383Y-83173004D01*
X207125004Y-83392383D01*
X206952639Y-83507553D01*
X206867041Y-83564748D01*
X206699137Y-83634296D01*
X206580411Y-83683474D01*
X206276125Y-83744000D01*
X205965875Y-83744000D01*
X205661589Y-83683474D01*
X205542863Y-83634296D01*
X205374959Y-83564748D01*
X205289361Y-83507553D01*
X205116996Y-83392383D01*
X204897617Y-83173004D01*
X204725253Y-82915042D01*
X204725252Y-82915041D01*
X204654137Y-82743353D01*
X204606526Y-82628411D01*
X204546000Y-82324124D01*
X204546000Y-82013876D01*
X204548533Y-82001144D01*
X204606526Y-81709590D01*
X204615055Y-81689000D01*
X204704484Y-81473098D01*
X204725252Y-81422959D01*
X204828792Y-81268000D01*
X204897617Y-81164996D01*
X205116996Y-80945617D01*
X205374958Y-80773253D01*
X205374959Y-80773252D01*
X205603023Y-80678785D01*
X205661589Y-80654526D01*
X205965875Y-80594000D01*
X206276125Y-80594000D01*
X206580411Y-80654526D01*
X206580411Y-80654526D01*
G37*
G36*
X137411143Y-81722087D02*
G01*
X137567838Y-81786992D01*
X137708853Y-81881215D01*
X137828785Y-82001147D01*
X137923008Y-82142162D01*
X137987913Y-82298857D01*
X138021000Y-82465198D01*
X138021000Y-82634802D01*
X137987913Y-82801143D01*
X137923008Y-82957838D01*
X137828785Y-83098853D01*
X137708853Y-83218785D01*
X137567838Y-83313008D01*
X137411143Y-83377913D01*
X137244802Y-83411000D01*
X137075198Y-83411000D01*
X136908857Y-83377913D01*
X136752162Y-83313008D01*
X136611147Y-83218785D01*
X136491215Y-83098853D01*
X136396992Y-82957838D01*
X136332087Y-82801143D01*
X136299000Y-82634802D01*
X136299000Y-82465198D01*
X136332087Y-82298857D01*
X136396992Y-82142162D01*
X136491215Y-82001147D01*
X136611147Y-81881215D01*
X136752162Y-81786992D01*
X136908857Y-81722087D01*
X137075198Y-81689000D01*
X137244802Y-81689000D01*
X137411143Y-81722087D01*
X137411143Y-81722087D01*
G37*
G36*
X218564143Y-81722087D02*
G01*
X218720838Y-81786992D01*
X218861853Y-81881215D01*
X218981785Y-82001147D01*
X219076008Y-82142162D01*
X219140913Y-82298857D01*
X219174000Y-82465198D01*
X219174000Y-82634802D01*
X219140913Y-82801143D01*
X219076008Y-82957838D01*
X218981785Y-83098853D01*
X218861853Y-83218785D01*
X218720838Y-83313008D01*
X218564143Y-83377913D01*
X218397802Y-83411000D01*
X218228198Y-83411000D01*
X218061857Y-83377913D01*
X217905162Y-83313008D01*
X217764147Y-83218785D01*
X217644215Y-83098853D01*
X217549992Y-82957838D01*
X217485087Y-82801143D01*
X217452000Y-82634802D01*
X217452000Y-82465198D01*
X217485087Y-82298857D01*
X217549992Y-82142162D01*
X217644215Y-82001147D01*
X217764147Y-81881215D01*
X217905162Y-81786992D01*
X218061857Y-81722087D01*
X218228198Y-81689000D01*
X218397802Y-81689000D01*
X218564143Y-81722087D01*
X218564143Y-81722087D01*
G37*
G36*
X197471512Y-81272927D02*
G01*
X197620812Y-81302624D01*
X197784784Y-81370544D01*
X197932354Y-81469147D01*
X198057853Y-81594646D01*
X198156456Y-81742216D01*
X198224376Y-81906188D01*
X198259000Y-82080259D01*
X198259000Y-82257741D01*
X198224376Y-82431812D01*
X198156456Y-82595784D01*
X198057853Y-82743354D01*
X197932354Y-82868853D01*
X197784784Y-82967456D01*
X197620812Y-83035376D01*
X197471512Y-83065073D01*
X197446742Y-83070000D01*
X197269258Y-83070000D01*
X197244488Y-83065073D01*
X197095188Y-83035376D01*
X196931216Y-82967456D01*
X196783646Y-82868853D01*
X196658147Y-82743354D01*
X196559544Y-82595784D01*
X196491624Y-82431812D01*
X196457000Y-82257741D01*
X196457000Y-82080259D01*
X196491624Y-81906188D01*
X196559544Y-81742216D01*
X196658147Y-81594646D01*
X196783646Y-81469147D01*
X196931216Y-81370544D01*
X197095188Y-81302624D01*
X197244488Y-81272927D01*
X197269258Y-81268000D01*
X197446742Y-81268000D01*
X197471512Y-81272927D01*
X197471512Y-81272927D01*
G37*
G36*
X177151512Y-81272927D02*
G01*
X177300812Y-81302624D01*
X177464784Y-81370544D01*
X177612354Y-81469147D01*
X177737853Y-81594646D01*
X177836456Y-81742216D01*
X177904376Y-81906188D01*
X177939000Y-82080259D01*
X177939000Y-82257741D01*
X177904376Y-82431812D01*
X177836456Y-82595784D01*
X177737853Y-82743354D01*
X177612354Y-82868853D01*
X177464784Y-82967456D01*
X177300812Y-83035376D01*
X177151512Y-83065073D01*
X177126742Y-83070000D01*
X176949258Y-83070000D01*
X176924488Y-83065073D01*
X176775188Y-83035376D01*
X176611216Y-82967456D01*
X176463646Y-82868853D01*
X176338147Y-82743354D01*
X176239544Y-82595784D01*
X176171624Y-82431812D01*
X176137000Y-82257741D01*
X176137000Y-82080259D01*
X176171624Y-81906188D01*
X176239544Y-81742216D01*
X176338147Y-81594646D01*
X176463646Y-81469147D01*
X176611216Y-81370544D01*
X176775188Y-81302624D01*
X176924488Y-81272927D01*
X176949258Y-81268000D01*
X177126742Y-81268000D01*
X177151512Y-81272927D01*
X177151512Y-81272927D01*
G37*
G36*
X179691512Y-81272927D02*
G01*
X179840812Y-81302624D01*
X180004784Y-81370544D01*
X180152354Y-81469147D01*
X180277853Y-81594646D01*
X180376456Y-81742216D01*
X180444376Y-81906188D01*
X180479000Y-82080259D01*
X180479000Y-82257741D01*
X180444376Y-82431812D01*
X180376456Y-82595784D01*
X180277853Y-82743354D01*
X180152354Y-82868853D01*
X180004784Y-82967456D01*
X179840812Y-83035376D01*
X179691512Y-83065073D01*
X179666742Y-83070000D01*
X179489258Y-83070000D01*
X179464488Y-83065073D01*
X179315188Y-83035376D01*
X179151216Y-82967456D01*
X179003646Y-82868853D01*
X178878147Y-82743354D01*
X178779544Y-82595784D01*
X178711624Y-82431812D01*
X178677000Y-82257741D01*
X178677000Y-82080259D01*
X178711624Y-81906188D01*
X178779544Y-81742216D01*
X178878147Y-81594646D01*
X179003646Y-81469147D01*
X179151216Y-81370544D01*
X179315188Y-81302624D01*
X179464488Y-81272927D01*
X179489258Y-81268000D01*
X179666742Y-81268000D01*
X179691512Y-81272927D01*
X179691512Y-81272927D01*
G37*
G36*
X184771512Y-81272927D02*
G01*
X184920812Y-81302624D01*
X185084784Y-81370544D01*
X185232354Y-81469147D01*
X185357853Y-81594646D01*
X185456456Y-81742216D01*
X185524376Y-81906188D01*
X185559000Y-82080259D01*
X185559000Y-82257741D01*
X185524376Y-82431812D01*
X185456456Y-82595784D01*
X185357853Y-82743354D01*
X185232354Y-82868853D01*
X185084784Y-82967456D01*
X184920812Y-83035376D01*
X184771512Y-83065073D01*
X184746742Y-83070000D01*
X184569258Y-83070000D01*
X184544488Y-83065073D01*
X184395188Y-83035376D01*
X184231216Y-82967456D01*
X184083646Y-82868853D01*
X183958147Y-82743354D01*
X183859544Y-82595784D01*
X183791624Y-82431812D01*
X183757000Y-82257741D01*
X183757000Y-82080259D01*
X183791624Y-81906188D01*
X183859544Y-81742216D01*
X183958147Y-81594646D01*
X184083646Y-81469147D01*
X184231216Y-81370544D01*
X184395188Y-81302624D01*
X184544488Y-81272927D01*
X184569258Y-81268000D01*
X184746742Y-81268000D01*
X184771512Y-81272927D01*
X184771512Y-81272927D01*
G37*
G36*
X187311512Y-81272927D02*
G01*
X187460812Y-81302624D01*
X187624784Y-81370544D01*
X187772354Y-81469147D01*
X187897853Y-81594646D01*
X187996456Y-81742216D01*
X188064376Y-81906188D01*
X188099000Y-82080259D01*
X188099000Y-82257741D01*
X188064376Y-82431812D01*
X187996456Y-82595784D01*
X187897853Y-82743354D01*
X187772354Y-82868853D01*
X187624784Y-82967456D01*
X187460812Y-83035376D01*
X187311512Y-83065073D01*
X187286742Y-83070000D01*
X187109258Y-83070000D01*
X187084488Y-83065073D01*
X186935188Y-83035376D01*
X186771216Y-82967456D01*
X186623646Y-82868853D01*
X186498147Y-82743354D01*
X186399544Y-82595784D01*
X186331624Y-82431812D01*
X186297000Y-82257741D01*
X186297000Y-82080259D01*
X186331624Y-81906188D01*
X186399544Y-81742216D01*
X186498147Y-81594646D01*
X186623646Y-81469147D01*
X186771216Y-81370544D01*
X186935188Y-81302624D01*
X187084488Y-81272927D01*
X187109258Y-81268000D01*
X187286742Y-81268000D01*
X187311512Y-81272927D01*
X187311512Y-81272927D01*
G37*
G36*
X189851512Y-81272927D02*
G01*
X190000812Y-81302624D01*
X190164784Y-81370544D01*
X190312354Y-81469147D01*
X190437853Y-81594646D01*
X190536456Y-81742216D01*
X190604376Y-81906188D01*
X190639000Y-82080259D01*
X190639000Y-82257741D01*
X190604376Y-82431812D01*
X190536456Y-82595784D01*
X190437853Y-82743354D01*
X190312354Y-82868853D01*
X190164784Y-82967456D01*
X190000812Y-83035376D01*
X189851512Y-83065073D01*
X189826742Y-83070000D01*
X189649258Y-83070000D01*
X189624488Y-83065073D01*
X189475188Y-83035376D01*
X189311216Y-82967456D01*
X189163646Y-82868853D01*
X189038147Y-82743354D01*
X188939544Y-82595784D01*
X188871624Y-82431812D01*
X188837000Y-82257741D01*
X188837000Y-82080259D01*
X188871624Y-81906188D01*
X188939544Y-81742216D01*
X189038147Y-81594646D01*
X189163646Y-81469147D01*
X189311216Y-81370544D01*
X189475188Y-81302624D01*
X189624488Y-81272927D01*
X189649258Y-81268000D01*
X189826742Y-81268000D01*
X189851512Y-81272927D01*
X189851512Y-81272927D01*
G37*
G36*
X192391512Y-81272927D02*
G01*
X192540812Y-81302624D01*
X192704784Y-81370544D01*
X192852354Y-81469147D01*
X192977853Y-81594646D01*
X193076456Y-81742216D01*
X193144376Y-81906188D01*
X193179000Y-82080259D01*
X193179000Y-82257741D01*
X193144376Y-82431812D01*
X193076456Y-82595784D01*
X192977853Y-82743354D01*
X192852354Y-82868853D01*
X192704784Y-82967456D01*
X192540812Y-83035376D01*
X192391512Y-83065073D01*
X192366742Y-83070000D01*
X192189258Y-83070000D01*
X192164488Y-83065073D01*
X192015188Y-83035376D01*
X191851216Y-82967456D01*
X191703646Y-82868853D01*
X191578147Y-82743354D01*
X191479544Y-82595784D01*
X191411624Y-82431812D01*
X191377000Y-82257741D01*
X191377000Y-82080259D01*
X191411624Y-81906188D01*
X191479544Y-81742216D01*
X191578147Y-81594646D01*
X191703646Y-81469147D01*
X191851216Y-81370544D01*
X192015188Y-81302624D01*
X192164488Y-81272927D01*
X192189258Y-81268000D01*
X192366742Y-81268000D01*
X192391512Y-81272927D01*
X192391512Y-81272927D01*
G37*
G36*
X194931512Y-81272927D02*
G01*
X195080812Y-81302624D01*
X195244784Y-81370544D01*
X195392354Y-81469147D01*
X195517853Y-81594646D01*
X195616456Y-81742216D01*
X195684376Y-81906188D01*
X195719000Y-82080259D01*
X195719000Y-82257741D01*
X195684376Y-82431812D01*
X195616456Y-82595784D01*
X195517853Y-82743354D01*
X195392354Y-82868853D01*
X195244784Y-82967456D01*
X195080812Y-83035376D01*
X194931512Y-83065073D01*
X194906742Y-83070000D01*
X194729258Y-83070000D01*
X194704488Y-83065073D01*
X194555188Y-83035376D01*
X194391216Y-82967456D01*
X194243646Y-82868853D01*
X194118147Y-82743354D01*
X194019544Y-82595784D01*
X193951624Y-82431812D01*
X193917000Y-82257741D01*
X193917000Y-82080259D01*
X193951624Y-81906188D01*
X194019544Y-81742216D01*
X194118147Y-81594646D01*
X194243646Y-81469147D01*
X194391216Y-81370544D01*
X194555188Y-81302624D01*
X194704488Y-81272927D01*
X194729258Y-81268000D01*
X194906742Y-81268000D01*
X194931512Y-81272927D01*
X194931512Y-81272927D01*
G37*
G36*
X182231512Y-81272927D02*
G01*
X182380812Y-81302624D01*
X182544784Y-81370544D01*
X182692354Y-81469147D01*
X182817853Y-81594646D01*
X182916456Y-81742216D01*
X182984376Y-81906188D01*
X183019000Y-82080259D01*
X183019000Y-82257741D01*
X182984376Y-82431812D01*
X182916456Y-82595784D01*
X182817853Y-82743354D01*
X182692354Y-82868853D01*
X182544784Y-82967456D01*
X182380812Y-83035376D01*
X182231512Y-83065073D01*
X182206742Y-83070000D01*
X182029258Y-83070000D01*
X182004488Y-83065073D01*
X181855188Y-83035376D01*
X181691216Y-82967456D01*
X181543646Y-82868853D01*
X181418147Y-82743354D01*
X181319544Y-82595784D01*
X181251624Y-82431812D01*
X181217000Y-82257741D01*
X181217000Y-82080259D01*
X181251624Y-81906188D01*
X181319544Y-81742216D01*
X181418147Y-81594646D01*
X181543646Y-81469147D01*
X181691216Y-81370544D01*
X181855188Y-81302624D01*
X182004488Y-81272927D01*
X182029258Y-81268000D01*
X182206742Y-81268000D01*
X182231512Y-81272927D01*
X182231512Y-81272927D01*
G37*
G36*
X200011512Y-81272927D02*
G01*
X200160812Y-81302624D01*
X200324784Y-81370544D01*
X200472354Y-81469147D01*
X200597853Y-81594646D01*
X200696456Y-81742216D01*
X200764376Y-81906188D01*
X200799000Y-82080259D01*
X200799000Y-82257741D01*
X200764376Y-82431812D01*
X200696456Y-82595784D01*
X200597853Y-82743354D01*
X200472354Y-82868853D01*
X200324784Y-82967456D01*
X200160812Y-83035376D01*
X200011512Y-83065073D01*
X199986742Y-83070000D01*
X199809258Y-83070000D01*
X199784488Y-83065073D01*
X199635188Y-83035376D01*
X199471216Y-82967456D01*
X199323646Y-82868853D01*
X199198147Y-82743354D01*
X199099544Y-82595784D01*
X199031624Y-82431812D01*
X198997000Y-82257741D01*
X198997000Y-82080259D01*
X199031624Y-81906188D01*
X199099544Y-81742216D01*
X199198147Y-81594646D01*
X199323646Y-81469147D01*
X199471216Y-81370544D01*
X199635188Y-81302624D01*
X199784488Y-81272927D01*
X199809258Y-81268000D01*
X199986742Y-81268000D01*
X200011512Y-81272927D01*
X200011512Y-81272927D01*
G37*
G36*
X143250256Y-78401298D02*
G01*
X143356579Y-78422447D01*
X143657042Y-78546903D01*
X143927451Y-78727585D01*
X144157415Y-78957549D01*
X144338097Y-79227958D01*
X144338098Y-79227960D01*
X144462553Y-79528422D01*
X144526000Y-79847389D01*
X144526000Y-80172611D01*
X144483702Y-80385256D01*
X144462553Y-80491579D01*
X144338097Y-80792042D01*
X144157415Y-81062451D01*
X143927451Y-81292415D01*
X143657042Y-81473097D01*
X143356579Y-81597553D01*
X143250256Y-81618702D01*
X143037611Y-81661000D01*
X142712389Y-81661000D01*
X142499744Y-81618702D01*
X142393421Y-81597553D01*
X142092958Y-81473097D01*
X141822549Y-81292415D01*
X141592585Y-81062451D01*
X141411903Y-80792042D01*
X141287447Y-80491579D01*
X141266298Y-80385256D01*
X141224000Y-80172611D01*
X141224000Y-79847389D01*
X141287447Y-79528422D01*
X141411902Y-79227960D01*
X141411903Y-79227958D01*
X141592585Y-78957549D01*
X141822549Y-78727585D01*
X142092958Y-78546903D01*
X142393421Y-78422447D01*
X142499744Y-78401298D01*
X142712389Y-78359000D01*
X143037611Y-78359000D01*
X143250256Y-78401298D01*
X143250256Y-78401298D01*
G37*
G36*
X213100256Y-78401298D02*
G01*
X213206579Y-78422447D01*
X213507042Y-78546903D01*
X213777451Y-78727585D01*
X214007415Y-78957549D01*
X214188097Y-79227958D01*
X214188098Y-79227960D01*
X214312553Y-79528422D01*
X214376000Y-79847389D01*
X214376000Y-80172611D01*
X214333702Y-80385256D01*
X214312553Y-80491579D01*
X214188097Y-80792042D01*
X214007415Y-81062451D01*
X213777451Y-81292415D01*
X213507042Y-81473097D01*
X213206579Y-81597553D01*
X213100256Y-81618702D01*
X212887611Y-81661000D01*
X212562389Y-81661000D01*
X212349744Y-81618702D01*
X212243421Y-81597553D01*
X211942958Y-81473097D01*
X211672549Y-81292415D01*
X211442585Y-81062451D01*
X211261903Y-80792042D01*
X211137447Y-80491579D01*
X211116298Y-80385256D01*
X211074000Y-80172611D01*
X211074000Y-79847389D01*
X211137447Y-79528422D01*
X211261902Y-79227960D01*
X211261903Y-79227958D01*
X211442585Y-78957549D01*
X211672549Y-78727585D01*
X211942958Y-78546903D01*
X212243421Y-78422447D01*
X212349744Y-78401298D01*
X212562389Y-78359000D01*
X212887611Y-78359000D01*
X213100256Y-78401298D01*
X213100256Y-78401298D01*
G37*
G36*
X218564143Y-79182087D02*
G01*
X218720838Y-79246992D01*
X218861853Y-79341215D01*
X218981785Y-79461147D01*
X219076008Y-79602162D01*
X219140913Y-79758857D01*
X219174000Y-79925198D01*
X219174000Y-80094802D01*
X219140913Y-80261143D01*
X219076008Y-80417838D01*
X218981785Y-80558853D01*
X218861853Y-80678785D01*
X218720838Y-80773008D01*
X218564143Y-80837913D01*
X218397802Y-80871000D01*
X218228198Y-80871000D01*
X218061857Y-80837913D01*
X217905162Y-80773008D01*
X217764147Y-80678785D01*
X217644215Y-80558853D01*
X217549992Y-80417838D01*
X217485087Y-80261143D01*
X217452000Y-80094802D01*
X217452000Y-79925198D01*
X217485087Y-79758857D01*
X217549992Y-79602162D01*
X217644215Y-79461147D01*
X217764147Y-79341215D01*
X217905162Y-79246992D01*
X218061857Y-79182087D01*
X218228198Y-79149000D01*
X218397802Y-79149000D01*
X218564143Y-79182087D01*
X218564143Y-79182087D01*
G37*
G36*
X137411143Y-79182087D02*
G01*
X137567838Y-79246992D01*
X137708853Y-79341215D01*
X137828785Y-79461147D01*
X137923008Y-79602162D01*
X137987913Y-79758857D01*
X138021000Y-79925198D01*
X138021000Y-80094802D01*
X137987913Y-80261143D01*
X137923008Y-80417838D01*
X137828785Y-80558853D01*
X137708853Y-80678785D01*
X137567838Y-80773008D01*
X137411143Y-80837913D01*
X137244802Y-80871000D01*
X137075198Y-80871000D01*
X136908857Y-80837913D01*
X136752162Y-80773008D01*
X136611147Y-80678785D01*
X136491215Y-80558853D01*
X136396992Y-80417838D01*
X136332087Y-80261143D01*
X136299000Y-80094802D01*
X136299000Y-79925198D01*
X136332087Y-79758857D01*
X136396992Y-79602162D01*
X136491215Y-79461147D01*
X136611147Y-79341215D01*
X136752162Y-79246992D01*
X136908857Y-79182087D01*
X137075198Y-79149000D01*
X137244802Y-79149000D01*
X137411143Y-79182087D01*
X137411143Y-79182087D01*
G37*
M02*
