G04 #@! TF.GenerationSoftware,KiCad,Pcbnew,(5.1.12)-1*
G04 #@! TF.CreationDate,2022-02-08T13:08:19-06:00*
G04 #@! TF.ProjectId,power_supply_board,706f7765-725f-4737-9570-706c795f626f,4.2*
G04 #@! TF.SameCoordinates,Original*
G04 #@! TF.FileFunction,Copper,L2,Bot*
G04 #@! TF.FilePolarity,Positive*
%FSLAX46Y46*%
G04 Gerber Fmt 4.6, Leading zero omitted, Abs format (unit mm)*
G04 Created by KiCad (PCBNEW (5.1.12)-1) date 2022-02-08 13:08:19*
%MOMM*%
%LPD*%
G01*
G04 APERTURE LIST*
G04 #@! TA.AperFunction,ComponentPad*
%ADD10C,3.175000*%
G04 #@! TD*
G04 #@! TA.AperFunction,ComponentPad*
%ADD11O,1.700000X1.700000*%
G04 #@! TD*
G04 #@! TA.AperFunction,ComponentPad*
%ADD12R,1.700000X1.700000*%
G04 #@! TD*
G04 #@! TA.AperFunction,ComponentPad*
%ADD13C,1.730000*%
G04 #@! TD*
G04 #@! TA.AperFunction,Conductor*
%ADD14C,1.270000*%
G04 #@! TD*
G04 #@! TA.AperFunction,Conductor*
%ADD15C,0.254000*%
G04 #@! TD*
G04 #@! TA.AperFunction,Conductor*
%ADD16C,0.100000*%
G04 #@! TD*
G04 APERTURE END LIST*
D10*
X157759400Y-113030000D03*
X157759400Y-118110000D03*
D11*
X128524000Y-102870000D03*
X131064000Y-102870000D03*
X128524000Y-105410000D03*
X131064000Y-105410000D03*
X128524000Y-107950000D03*
X131064000Y-107950000D03*
X128524000Y-110490000D03*
X131064000Y-110490000D03*
X128524000Y-113030000D03*
X131064000Y-113030000D03*
X128524000Y-115570000D03*
X131064000Y-115570000D03*
X128524000Y-118110000D03*
X131064000Y-118110000D03*
X128524000Y-120650000D03*
X131064000Y-120650000D03*
X128524000Y-123190000D03*
X131064000Y-123190000D03*
X128524000Y-125730000D03*
X131064000Y-125730000D03*
X128524000Y-128270000D03*
D12*
X131064000Y-128270000D03*
D13*
X143685000Y-113035000D03*
X145685000Y-113035000D03*
X149685000Y-113035000D03*
X147685000Y-118105000D03*
X143685000Y-118105000D03*
X145685000Y-118105000D03*
D14*
X145685000Y-113035000D02*
X145685000Y-118105000D01*
D15*
X161900000Y-131420000D02*
X125120000Y-131420000D01*
X125120000Y-102723740D01*
X127039000Y-102723740D01*
X127039000Y-103016260D01*
X127096068Y-103303158D01*
X127208010Y-103573411D01*
X127370525Y-103816632D01*
X127577368Y-104023475D01*
X127751760Y-104140000D01*
X127577368Y-104256525D01*
X127370525Y-104463368D01*
X127208010Y-104706589D01*
X127096068Y-104976842D01*
X127039000Y-105263740D01*
X127039000Y-105556260D01*
X127096068Y-105843158D01*
X127208010Y-106113411D01*
X127370525Y-106356632D01*
X127577368Y-106563475D01*
X127751760Y-106680000D01*
X127577368Y-106796525D01*
X127370525Y-107003368D01*
X127208010Y-107246589D01*
X127096068Y-107516842D01*
X127039000Y-107803740D01*
X127039000Y-108096260D01*
X127096068Y-108383158D01*
X127208010Y-108653411D01*
X127370525Y-108896632D01*
X127577368Y-109103475D01*
X127751760Y-109220000D01*
X127577368Y-109336525D01*
X127370525Y-109543368D01*
X127208010Y-109786589D01*
X127096068Y-110056842D01*
X127039000Y-110343740D01*
X127039000Y-110636260D01*
X127096068Y-110923158D01*
X127208010Y-111193411D01*
X127370525Y-111436632D01*
X127577368Y-111643475D01*
X127751760Y-111760000D01*
X127577368Y-111876525D01*
X127370525Y-112083368D01*
X127208010Y-112326589D01*
X127096068Y-112596842D01*
X127039000Y-112883740D01*
X127039000Y-113176260D01*
X127096068Y-113463158D01*
X127208010Y-113733411D01*
X127370525Y-113976632D01*
X127577368Y-114183475D01*
X127751760Y-114300000D01*
X127577368Y-114416525D01*
X127370525Y-114623368D01*
X127208010Y-114866589D01*
X127096068Y-115136842D01*
X127039000Y-115423740D01*
X127039000Y-115716260D01*
X127096068Y-116003158D01*
X127208010Y-116273411D01*
X127370525Y-116516632D01*
X127577368Y-116723475D01*
X127751760Y-116840000D01*
X127577368Y-116956525D01*
X127370525Y-117163368D01*
X127208010Y-117406589D01*
X127096068Y-117676842D01*
X127039000Y-117963740D01*
X127039000Y-118256260D01*
X127096068Y-118543158D01*
X127208010Y-118813411D01*
X127370525Y-119056632D01*
X127577368Y-119263475D01*
X127751760Y-119380000D01*
X127577368Y-119496525D01*
X127370525Y-119703368D01*
X127208010Y-119946589D01*
X127096068Y-120216842D01*
X127039000Y-120503740D01*
X127039000Y-120796260D01*
X127096068Y-121083158D01*
X127208010Y-121353411D01*
X127370525Y-121596632D01*
X127577368Y-121803475D01*
X127751760Y-121920000D01*
X127577368Y-122036525D01*
X127370525Y-122243368D01*
X127208010Y-122486589D01*
X127096068Y-122756842D01*
X127039000Y-123043740D01*
X127039000Y-123336260D01*
X127096068Y-123623158D01*
X127208010Y-123893411D01*
X127370525Y-124136632D01*
X127577368Y-124343475D01*
X127751760Y-124460000D01*
X127577368Y-124576525D01*
X127370525Y-124783368D01*
X127208010Y-125026589D01*
X127096068Y-125296842D01*
X127039000Y-125583740D01*
X127039000Y-125876260D01*
X127096068Y-126163158D01*
X127208010Y-126433411D01*
X127370525Y-126676632D01*
X127577368Y-126883475D01*
X127751760Y-127000000D01*
X127577368Y-127116525D01*
X127370525Y-127323368D01*
X127208010Y-127566589D01*
X127096068Y-127836842D01*
X127039000Y-128123740D01*
X127039000Y-128416260D01*
X127096068Y-128703158D01*
X127208010Y-128973411D01*
X127370525Y-129216632D01*
X127577368Y-129423475D01*
X127820589Y-129585990D01*
X128090842Y-129697932D01*
X128377740Y-129755000D01*
X128670260Y-129755000D01*
X128957158Y-129697932D01*
X129227411Y-129585990D01*
X129470632Y-129423475D01*
X129602487Y-129291620D01*
X129624498Y-129364180D01*
X129683463Y-129474494D01*
X129762815Y-129571185D01*
X129859506Y-129650537D01*
X129969820Y-129709502D01*
X130089518Y-129745812D01*
X130214000Y-129758072D01*
X130778250Y-129755000D01*
X130937000Y-129596250D01*
X130937000Y-128397000D01*
X131191000Y-128397000D01*
X131191000Y-129596250D01*
X131349750Y-129755000D01*
X131914000Y-129758072D01*
X132038482Y-129745812D01*
X132158180Y-129709502D01*
X132268494Y-129650537D01*
X132365185Y-129571185D01*
X132444537Y-129474494D01*
X132503502Y-129364180D01*
X132539812Y-129244482D01*
X132552072Y-129120000D01*
X132549000Y-128555750D01*
X132390250Y-128397000D01*
X131191000Y-128397000D01*
X130937000Y-128397000D01*
X130917000Y-128397000D01*
X130917000Y-128143000D01*
X130937000Y-128143000D01*
X130937000Y-128123000D01*
X131191000Y-128123000D01*
X131191000Y-128143000D01*
X132390250Y-128143000D01*
X132483378Y-128049872D01*
X134925000Y-128049872D01*
X134925000Y-128490128D01*
X135010890Y-128921925D01*
X135179369Y-129328669D01*
X135423962Y-129694729D01*
X135735271Y-130006038D01*
X136101331Y-130250631D01*
X136508075Y-130419110D01*
X136939872Y-130505000D01*
X137380128Y-130505000D01*
X137811925Y-130419110D01*
X138218669Y-130250631D01*
X138584729Y-130006038D01*
X138896038Y-129694729D01*
X139140631Y-129328669D01*
X139309110Y-128921925D01*
X139395000Y-128490128D01*
X139395000Y-128049872D01*
X153975000Y-128049872D01*
X153975000Y-128490128D01*
X154060890Y-128921925D01*
X154229369Y-129328669D01*
X154473962Y-129694729D01*
X154785271Y-130006038D01*
X155151331Y-130250631D01*
X155558075Y-130419110D01*
X155989872Y-130505000D01*
X156430128Y-130505000D01*
X156861925Y-130419110D01*
X157268669Y-130250631D01*
X157634729Y-130006038D01*
X157946038Y-129694729D01*
X158190631Y-129328669D01*
X158359110Y-128921925D01*
X158445000Y-128490128D01*
X158445000Y-128049872D01*
X158359110Y-127618075D01*
X158190631Y-127211331D01*
X157946038Y-126845271D01*
X157634729Y-126533962D01*
X157268669Y-126289369D01*
X156861925Y-126120890D01*
X156430128Y-126035000D01*
X155989872Y-126035000D01*
X155558075Y-126120890D01*
X155151331Y-126289369D01*
X154785271Y-126533962D01*
X154473962Y-126845271D01*
X154229369Y-127211331D01*
X154060890Y-127618075D01*
X153975000Y-128049872D01*
X139395000Y-128049872D01*
X139309110Y-127618075D01*
X139140631Y-127211331D01*
X138896038Y-126845271D01*
X138584729Y-126533962D01*
X138218669Y-126289369D01*
X137811925Y-126120890D01*
X137380128Y-126035000D01*
X136939872Y-126035000D01*
X136508075Y-126120890D01*
X136101331Y-126289369D01*
X135735271Y-126533962D01*
X135423962Y-126845271D01*
X135179369Y-127211331D01*
X135010890Y-127618075D01*
X134925000Y-128049872D01*
X132483378Y-128049872D01*
X132549000Y-127984250D01*
X132552072Y-127420000D01*
X132539812Y-127295518D01*
X132503502Y-127175820D01*
X132444537Y-127065506D01*
X132365185Y-126968815D01*
X132268494Y-126889463D01*
X132158180Y-126830498D01*
X132085620Y-126808487D01*
X132217475Y-126676632D01*
X132379990Y-126433411D01*
X132491932Y-126163158D01*
X132549000Y-125876260D01*
X132549000Y-125583740D01*
X132491932Y-125296842D01*
X132379990Y-125026589D01*
X132217475Y-124783368D01*
X132010632Y-124576525D01*
X131836240Y-124460000D01*
X132010632Y-124343475D01*
X132217475Y-124136632D01*
X132379990Y-123893411D01*
X132491932Y-123623158D01*
X132549000Y-123336260D01*
X132549000Y-123043740D01*
X132491932Y-122756842D01*
X132379990Y-122486589D01*
X132217475Y-122243368D01*
X132010632Y-122036525D01*
X131836240Y-121920000D01*
X132010632Y-121803475D01*
X132217475Y-121596632D01*
X132379990Y-121353411D01*
X132491932Y-121083158D01*
X132549000Y-120796260D01*
X132549000Y-120503740D01*
X132491932Y-120216842D01*
X132379990Y-119946589D01*
X132217475Y-119703368D01*
X132178054Y-119663947D01*
X156385058Y-119663947D01*
X156551596Y-119988465D01*
X156941274Y-120188002D01*
X157362392Y-120307682D01*
X157798767Y-120342907D01*
X158233629Y-120292322D01*
X158650267Y-120157872D01*
X158967204Y-119988465D01*
X159133742Y-119663947D01*
X157759400Y-118289605D01*
X156385058Y-119663947D01*
X132178054Y-119663947D01*
X132010632Y-119496525D01*
X131836240Y-119380000D01*
X132010632Y-119263475D01*
X132217475Y-119056632D01*
X132379990Y-118813411D01*
X132491932Y-118543158D01*
X132549000Y-118256260D01*
X132549000Y-117963740D01*
X132547712Y-117957263D01*
X142185000Y-117957263D01*
X142185000Y-118252737D01*
X142242644Y-118542534D01*
X142355717Y-118815517D01*
X142519874Y-119061194D01*
X142728806Y-119270126D01*
X142974483Y-119434283D01*
X143247466Y-119547356D01*
X143537263Y-119605000D01*
X143832737Y-119605000D01*
X144122534Y-119547356D01*
X144395517Y-119434283D01*
X144641194Y-119270126D01*
X144680303Y-119231018D01*
X144709446Y-119260161D01*
X144825503Y-119144105D01*
X144904952Y-119394710D01*
X145171550Y-119522108D01*
X145457880Y-119595048D01*
X145752938Y-119610727D01*
X146045385Y-119568540D01*
X146323983Y-119470111D01*
X146465048Y-119394710D01*
X146544497Y-119144105D01*
X146660554Y-119260161D01*
X146689698Y-119231018D01*
X146728806Y-119270126D01*
X146974483Y-119434283D01*
X147247466Y-119547356D01*
X147537263Y-119605000D01*
X147832737Y-119605000D01*
X148122534Y-119547356D01*
X148395517Y-119434283D01*
X148641194Y-119270126D01*
X148850126Y-119061194D01*
X149014283Y-118815517D01*
X149127356Y-118542534D01*
X149185000Y-118252737D01*
X149185000Y-118149367D01*
X155526493Y-118149367D01*
X155577078Y-118584229D01*
X155711528Y-119000867D01*
X155880935Y-119317804D01*
X156205453Y-119484342D01*
X157579795Y-118110000D01*
X157939005Y-118110000D01*
X159313347Y-119484342D01*
X159637865Y-119317804D01*
X159837402Y-118928126D01*
X159957082Y-118507008D01*
X159992307Y-118070633D01*
X159941722Y-117635771D01*
X159807272Y-117219133D01*
X159637865Y-116902196D01*
X159313347Y-116735658D01*
X157939005Y-118110000D01*
X157579795Y-118110000D01*
X156205453Y-116735658D01*
X155880935Y-116902196D01*
X155681398Y-117291874D01*
X155561718Y-117712992D01*
X155526493Y-118149367D01*
X149185000Y-118149367D01*
X149185000Y-117957263D01*
X149127356Y-117667466D01*
X149014283Y-117394483D01*
X148850126Y-117148806D01*
X148641194Y-116939874D01*
X148395517Y-116775717D01*
X148122534Y-116662644D01*
X147832737Y-116605000D01*
X147537263Y-116605000D01*
X147247466Y-116662644D01*
X146974483Y-116775717D01*
X146728806Y-116939874D01*
X146689698Y-116978983D01*
X146660554Y-116949839D01*
X146544497Y-117065895D01*
X146465048Y-116815290D01*
X146198450Y-116687892D01*
X145912120Y-116614952D01*
X145617062Y-116599273D01*
X145324615Y-116641460D01*
X145046017Y-116739889D01*
X144904952Y-116815290D01*
X144825503Y-117065895D01*
X144709446Y-116949839D01*
X144680303Y-116978983D01*
X144641194Y-116939874D01*
X144395517Y-116775717D01*
X144122534Y-116662644D01*
X143832737Y-116605000D01*
X143537263Y-116605000D01*
X143247466Y-116662644D01*
X142974483Y-116775717D01*
X142728806Y-116939874D01*
X142519874Y-117148806D01*
X142355717Y-117394483D01*
X142242644Y-117667466D01*
X142185000Y-117957263D01*
X132547712Y-117957263D01*
X132491932Y-117676842D01*
X132379990Y-117406589D01*
X132217475Y-117163368D01*
X132010632Y-116956525D01*
X131836240Y-116840000D01*
X132010632Y-116723475D01*
X132178054Y-116556053D01*
X156385058Y-116556053D01*
X157759400Y-117930395D01*
X159133742Y-116556053D01*
X158967204Y-116231535D01*
X158577526Y-116031998D01*
X158156408Y-115912318D01*
X157720033Y-115877093D01*
X157285171Y-115927678D01*
X156868533Y-116062128D01*
X156551596Y-116231535D01*
X156385058Y-116556053D01*
X132178054Y-116556053D01*
X132217475Y-116516632D01*
X132379990Y-116273411D01*
X132491932Y-116003158D01*
X132549000Y-115716260D01*
X132549000Y-115423740D01*
X132491932Y-115136842D01*
X132379990Y-114866589D01*
X132217475Y-114623368D01*
X132010632Y-114416525D01*
X131836240Y-114300000D01*
X132010632Y-114183475D01*
X132217475Y-113976632D01*
X132379990Y-113733411D01*
X132491932Y-113463158D01*
X132549000Y-113176260D01*
X132549000Y-112887263D01*
X142185000Y-112887263D01*
X142185000Y-113182737D01*
X142242644Y-113472534D01*
X142355717Y-113745517D01*
X142519874Y-113991194D01*
X142728806Y-114200126D01*
X142974483Y-114364283D01*
X143247466Y-114477356D01*
X143537263Y-114535000D01*
X143832737Y-114535000D01*
X144122534Y-114477356D01*
X144395517Y-114364283D01*
X144641194Y-114200126D01*
X144680303Y-114161018D01*
X144709446Y-114190161D01*
X144825503Y-114074105D01*
X144904952Y-114324710D01*
X145171550Y-114452108D01*
X145457880Y-114525048D01*
X145752938Y-114540727D01*
X146045385Y-114498540D01*
X146323983Y-114400111D01*
X146465048Y-114324710D01*
X146544498Y-114074103D01*
X145685000Y-113214605D01*
X145670858Y-113228748D01*
X145491253Y-113049143D01*
X145505395Y-113035000D01*
X145864605Y-113035000D01*
X146724103Y-113894498D01*
X146974710Y-113815048D01*
X147102108Y-113548450D01*
X147175048Y-113262120D01*
X147190727Y-112967062D01*
X147179216Y-112887263D01*
X148185000Y-112887263D01*
X148185000Y-113182737D01*
X148242644Y-113472534D01*
X148355717Y-113745517D01*
X148519874Y-113991194D01*
X148728806Y-114200126D01*
X148974483Y-114364283D01*
X149247466Y-114477356D01*
X149537263Y-114535000D01*
X149832737Y-114535000D01*
X150122534Y-114477356D01*
X150395517Y-114364283D01*
X150641194Y-114200126D01*
X150850126Y-113991194D01*
X151014283Y-113745517D01*
X151127356Y-113472534D01*
X151185000Y-113182737D01*
X151185000Y-112887263D01*
X151169851Y-112811103D01*
X155536900Y-112811103D01*
X155536900Y-113248897D01*
X155622309Y-113678279D01*
X155789846Y-114082749D01*
X156033071Y-114446761D01*
X156342639Y-114756329D01*
X156706651Y-114999554D01*
X157111121Y-115167091D01*
X157540503Y-115252500D01*
X157978297Y-115252500D01*
X158407679Y-115167091D01*
X158812149Y-114999554D01*
X159176161Y-114756329D01*
X159485729Y-114446761D01*
X159728954Y-114082749D01*
X159896491Y-113678279D01*
X159981900Y-113248897D01*
X159981900Y-112811103D01*
X159896491Y-112381721D01*
X159728954Y-111977251D01*
X159485729Y-111613239D01*
X159176161Y-111303671D01*
X158812149Y-111060446D01*
X158407679Y-110892909D01*
X157978297Y-110807500D01*
X157540503Y-110807500D01*
X157111121Y-110892909D01*
X156706651Y-111060446D01*
X156342639Y-111303671D01*
X156033071Y-111613239D01*
X155789846Y-111977251D01*
X155622309Y-112381721D01*
X155536900Y-112811103D01*
X151169851Y-112811103D01*
X151127356Y-112597466D01*
X151014283Y-112324483D01*
X150850126Y-112078806D01*
X150641194Y-111869874D01*
X150395517Y-111705717D01*
X150122534Y-111592644D01*
X149832737Y-111535000D01*
X149537263Y-111535000D01*
X149247466Y-111592644D01*
X148974483Y-111705717D01*
X148728806Y-111869874D01*
X148519874Y-112078806D01*
X148355717Y-112324483D01*
X148242644Y-112597466D01*
X148185000Y-112887263D01*
X147179216Y-112887263D01*
X147148540Y-112674615D01*
X147050111Y-112396017D01*
X146974710Y-112254952D01*
X146724103Y-112175502D01*
X145864605Y-113035000D01*
X145505395Y-113035000D01*
X145491253Y-113020858D01*
X145670858Y-112841253D01*
X145685000Y-112855395D01*
X146544498Y-111995897D01*
X146465048Y-111745290D01*
X146198450Y-111617892D01*
X145912120Y-111544952D01*
X145617062Y-111529273D01*
X145324615Y-111571460D01*
X145046017Y-111669889D01*
X144904952Y-111745290D01*
X144825503Y-111995895D01*
X144709446Y-111879839D01*
X144680303Y-111908983D01*
X144641194Y-111869874D01*
X144395517Y-111705717D01*
X144122534Y-111592644D01*
X143832737Y-111535000D01*
X143537263Y-111535000D01*
X143247466Y-111592644D01*
X142974483Y-111705717D01*
X142728806Y-111869874D01*
X142519874Y-112078806D01*
X142355717Y-112324483D01*
X142242644Y-112597466D01*
X142185000Y-112887263D01*
X132549000Y-112887263D01*
X132549000Y-112883740D01*
X132491932Y-112596842D01*
X132379990Y-112326589D01*
X132217475Y-112083368D01*
X132010632Y-111876525D01*
X131836240Y-111760000D01*
X132010632Y-111643475D01*
X132217475Y-111436632D01*
X132379990Y-111193411D01*
X132491932Y-110923158D01*
X132549000Y-110636260D01*
X132549000Y-110343740D01*
X132491932Y-110056842D01*
X132379990Y-109786589D01*
X132217475Y-109543368D01*
X132010632Y-109336525D01*
X131836240Y-109220000D01*
X132010632Y-109103475D01*
X132217475Y-108896632D01*
X132379990Y-108653411D01*
X132491932Y-108383158D01*
X132549000Y-108096260D01*
X132549000Y-107803740D01*
X132491932Y-107516842D01*
X132379990Y-107246589D01*
X132217475Y-107003368D01*
X132010632Y-106796525D01*
X131836240Y-106680000D01*
X132010632Y-106563475D01*
X132217475Y-106356632D01*
X132379990Y-106113411D01*
X132491932Y-105843158D01*
X132549000Y-105556260D01*
X132549000Y-105263740D01*
X132491932Y-104976842D01*
X132379990Y-104706589D01*
X132217475Y-104463368D01*
X132010632Y-104256525D01*
X131836240Y-104140000D01*
X132010632Y-104023475D01*
X132217475Y-103816632D01*
X132379990Y-103573411D01*
X132491932Y-103303158D01*
X132549000Y-103016260D01*
X132549000Y-102723740D01*
X132534307Y-102649872D01*
X134925000Y-102649872D01*
X134925000Y-103090128D01*
X135010890Y-103521925D01*
X135179369Y-103928669D01*
X135423962Y-104294729D01*
X135735271Y-104606038D01*
X136101331Y-104850631D01*
X136508075Y-105019110D01*
X136939872Y-105105000D01*
X137380128Y-105105000D01*
X137811925Y-105019110D01*
X138218669Y-104850631D01*
X138584729Y-104606038D01*
X138896038Y-104294729D01*
X139140631Y-103928669D01*
X139309110Y-103521925D01*
X139395000Y-103090128D01*
X139395000Y-102649872D01*
X153975000Y-102649872D01*
X153975000Y-103090128D01*
X154060890Y-103521925D01*
X154229369Y-103928669D01*
X154473962Y-104294729D01*
X154785271Y-104606038D01*
X155151331Y-104850631D01*
X155558075Y-105019110D01*
X155989872Y-105105000D01*
X156430128Y-105105000D01*
X156861925Y-105019110D01*
X157268669Y-104850631D01*
X157634729Y-104606038D01*
X157946038Y-104294729D01*
X158190631Y-103928669D01*
X158359110Y-103521925D01*
X158445000Y-103090128D01*
X158445000Y-102649872D01*
X158359110Y-102218075D01*
X158190631Y-101811331D01*
X157946038Y-101445271D01*
X157634729Y-101133962D01*
X157268669Y-100889369D01*
X156861925Y-100720890D01*
X156430128Y-100635000D01*
X155989872Y-100635000D01*
X155558075Y-100720890D01*
X155151331Y-100889369D01*
X154785271Y-101133962D01*
X154473962Y-101445271D01*
X154229369Y-101811331D01*
X154060890Y-102218075D01*
X153975000Y-102649872D01*
X139395000Y-102649872D01*
X139309110Y-102218075D01*
X139140631Y-101811331D01*
X138896038Y-101445271D01*
X138584729Y-101133962D01*
X138218669Y-100889369D01*
X137811925Y-100720890D01*
X137380128Y-100635000D01*
X136939872Y-100635000D01*
X136508075Y-100720890D01*
X136101331Y-100889369D01*
X135735271Y-101133962D01*
X135423962Y-101445271D01*
X135179369Y-101811331D01*
X135010890Y-102218075D01*
X134925000Y-102649872D01*
X132534307Y-102649872D01*
X132491932Y-102436842D01*
X132379990Y-102166589D01*
X132217475Y-101923368D01*
X132010632Y-101716525D01*
X131767411Y-101554010D01*
X131497158Y-101442068D01*
X131210260Y-101385000D01*
X130917740Y-101385000D01*
X130630842Y-101442068D01*
X130360589Y-101554010D01*
X130117368Y-101716525D01*
X129910525Y-101923368D01*
X129794000Y-102097760D01*
X129677475Y-101923368D01*
X129470632Y-101716525D01*
X129227411Y-101554010D01*
X128957158Y-101442068D01*
X128670260Y-101385000D01*
X128377740Y-101385000D01*
X128090842Y-101442068D01*
X127820589Y-101554010D01*
X127577368Y-101716525D01*
X127370525Y-101923368D01*
X127208010Y-102166589D01*
X127096068Y-102436842D01*
X127039000Y-102723740D01*
X125120000Y-102723740D01*
X125120000Y-99720000D01*
X161900001Y-99720000D01*
X161900000Y-131420000D01*
G04 #@! TA.AperFunction,Conductor*
D16*
G36*
X161900000Y-131420000D02*
G01*
X125120000Y-131420000D01*
X125120000Y-102723740D01*
X127039000Y-102723740D01*
X127039000Y-103016260D01*
X127096068Y-103303158D01*
X127208010Y-103573411D01*
X127370525Y-103816632D01*
X127577368Y-104023475D01*
X127751760Y-104140000D01*
X127577368Y-104256525D01*
X127370525Y-104463368D01*
X127208010Y-104706589D01*
X127096068Y-104976842D01*
X127039000Y-105263740D01*
X127039000Y-105556260D01*
X127096068Y-105843158D01*
X127208010Y-106113411D01*
X127370525Y-106356632D01*
X127577368Y-106563475D01*
X127751760Y-106680000D01*
X127577368Y-106796525D01*
X127370525Y-107003368D01*
X127208010Y-107246589D01*
X127096068Y-107516842D01*
X127039000Y-107803740D01*
X127039000Y-108096260D01*
X127096068Y-108383158D01*
X127208010Y-108653411D01*
X127370525Y-108896632D01*
X127577368Y-109103475D01*
X127751760Y-109220000D01*
X127577368Y-109336525D01*
X127370525Y-109543368D01*
X127208010Y-109786589D01*
X127096068Y-110056842D01*
X127039000Y-110343740D01*
X127039000Y-110636260D01*
X127096068Y-110923158D01*
X127208010Y-111193411D01*
X127370525Y-111436632D01*
X127577368Y-111643475D01*
X127751760Y-111760000D01*
X127577368Y-111876525D01*
X127370525Y-112083368D01*
X127208010Y-112326589D01*
X127096068Y-112596842D01*
X127039000Y-112883740D01*
X127039000Y-113176260D01*
X127096068Y-113463158D01*
X127208010Y-113733411D01*
X127370525Y-113976632D01*
X127577368Y-114183475D01*
X127751760Y-114300000D01*
X127577368Y-114416525D01*
X127370525Y-114623368D01*
X127208010Y-114866589D01*
X127096068Y-115136842D01*
X127039000Y-115423740D01*
X127039000Y-115716260D01*
X127096068Y-116003158D01*
X127208010Y-116273411D01*
X127370525Y-116516632D01*
X127577368Y-116723475D01*
X127751760Y-116840000D01*
X127577368Y-116956525D01*
X127370525Y-117163368D01*
X127208010Y-117406589D01*
X127096068Y-117676842D01*
X127039000Y-117963740D01*
X127039000Y-118256260D01*
X127096068Y-118543158D01*
X127208010Y-118813411D01*
X127370525Y-119056632D01*
X127577368Y-119263475D01*
X127751760Y-119380000D01*
X127577368Y-119496525D01*
X127370525Y-119703368D01*
X127208010Y-119946589D01*
X127096068Y-120216842D01*
X127039000Y-120503740D01*
X127039000Y-120796260D01*
X127096068Y-121083158D01*
X127208010Y-121353411D01*
X127370525Y-121596632D01*
X127577368Y-121803475D01*
X127751760Y-121920000D01*
X127577368Y-122036525D01*
X127370525Y-122243368D01*
X127208010Y-122486589D01*
X127096068Y-122756842D01*
X127039000Y-123043740D01*
X127039000Y-123336260D01*
X127096068Y-123623158D01*
X127208010Y-123893411D01*
X127370525Y-124136632D01*
X127577368Y-124343475D01*
X127751760Y-124460000D01*
X127577368Y-124576525D01*
X127370525Y-124783368D01*
X127208010Y-125026589D01*
X127096068Y-125296842D01*
X127039000Y-125583740D01*
X127039000Y-125876260D01*
X127096068Y-126163158D01*
X127208010Y-126433411D01*
X127370525Y-126676632D01*
X127577368Y-126883475D01*
X127751760Y-127000000D01*
X127577368Y-127116525D01*
X127370525Y-127323368D01*
X127208010Y-127566589D01*
X127096068Y-127836842D01*
X127039000Y-128123740D01*
X127039000Y-128416260D01*
X127096068Y-128703158D01*
X127208010Y-128973411D01*
X127370525Y-129216632D01*
X127577368Y-129423475D01*
X127820589Y-129585990D01*
X128090842Y-129697932D01*
X128377740Y-129755000D01*
X128670260Y-129755000D01*
X128957158Y-129697932D01*
X129227411Y-129585990D01*
X129470632Y-129423475D01*
X129602487Y-129291620D01*
X129624498Y-129364180D01*
X129683463Y-129474494D01*
X129762815Y-129571185D01*
X129859506Y-129650537D01*
X129969820Y-129709502D01*
X130089518Y-129745812D01*
X130214000Y-129758072D01*
X130778250Y-129755000D01*
X130937000Y-129596250D01*
X130937000Y-128397000D01*
X131191000Y-128397000D01*
X131191000Y-129596250D01*
X131349750Y-129755000D01*
X131914000Y-129758072D01*
X132038482Y-129745812D01*
X132158180Y-129709502D01*
X132268494Y-129650537D01*
X132365185Y-129571185D01*
X132444537Y-129474494D01*
X132503502Y-129364180D01*
X132539812Y-129244482D01*
X132552072Y-129120000D01*
X132549000Y-128555750D01*
X132390250Y-128397000D01*
X131191000Y-128397000D01*
X130937000Y-128397000D01*
X130917000Y-128397000D01*
X130917000Y-128143000D01*
X130937000Y-128143000D01*
X130937000Y-128123000D01*
X131191000Y-128123000D01*
X131191000Y-128143000D01*
X132390250Y-128143000D01*
X132483378Y-128049872D01*
X134925000Y-128049872D01*
X134925000Y-128490128D01*
X135010890Y-128921925D01*
X135179369Y-129328669D01*
X135423962Y-129694729D01*
X135735271Y-130006038D01*
X136101331Y-130250631D01*
X136508075Y-130419110D01*
X136939872Y-130505000D01*
X137380128Y-130505000D01*
X137811925Y-130419110D01*
X138218669Y-130250631D01*
X138584729Y-130006038D01*
X138896038Y-129694729D01*
X139140631Y-129328669D01*
X139309110Y-128921925D01*
X139395000Y-128490128D01*
X139395000Y-128049872D01*
X153975000Y-128049872D01*
X153975000Y-128490128D01*
X154060890Y-128921925D01*
X154229369Y-129328669D01*
X154473962Y-129694729D01*
X154785271Y-130006038D01*
X155151331Y-130250631D01*
X155558075Y-130419110D01*
X155989872Y-130505000D01*
X156430128Y-130505000D01*
X156861925Y-130419110D01*
X157268669Y-130250631D01*
X157634729Y-130006038D01*
X157946038Y-129694729D01*
X158190631Y-129328669D01*
X158359110Y-128921925D01*
X158445000Y-128490128D01*
X158445000Y-128049872D01*
X158359110Y-127618075D01*
X158190631Y-127211331D01*
X157946038Y-126845271D01*
X157634729Y-126533962D01*
X157268669Y-126289369D01*
X156861925Y-126120890D01*
X156430128Y-126035000D01*
X155989872Y-126035000D01*
X155558075Y-126120890D01*
X155151331Y-126289369D01*
X154785271Y-126533962D01*
X154473962Y-126845271D01*
X154229369Y-127211331D01*
X154060890Y-127618075D01*
X153975000Y-128049872D01*
X139395000Y-128049872D01*
X139309110Y-127618075D01*
X139140631Y-127211331D01*
X138896038Y-126845271D01*
X138584729Y-126533962D01*
X138218669Y-126289369D01*
X137811925Y-126120890D01*
X137380128Y-126035000D01*
X136939872Y-126035000D01*
X136508075Y-126120890D01*
X136101331Y-126289369D01*
X135735271Y-126533962D01*
X135423962Y-126845271D01*
X135179369Y-127211331D01*
X135010890Y-127618075D01*
X134925000Y-128049872D01*
X132483378Y-128049872D01*
X132549000Y-127984250D01*
X132552072Y-127420000D01*
X132539812Y-127295518D01*
X132503502Y-127175820D01*
X132444537Y-127065506D01*
X132365185Y-126968815D01*
X132268494Y-126889463D01*
X132158180Y-126830498D01*
X132085620Y-126808487D01*
X132217475Y-126676632D01*
X132379990Y-126433411D01*
X132491932Y-126163158D01*
X132549000Y-125876260D01*
X132549000Y-125583740D01*
X132491932Y-125296842D01*
X132379990Y-125026589D01*
X132217475Y-124783368D01*
X132010632Y-124576525D01*
X131836240Y-124460000D01*
X132010632Y-124343475D01*
X132217475Y-124136632D01*
X132379990Y-123893411D01*
X132491932Y-123623158D01*
X132549000Y-123336260D01*
X132549000Y-123043740D01*
X132491932Y-122756842D01*
X132379990Y-122486589D01*
X132217475Y-122243368D01*
X132010632Y-122036525D01*
X131836240Y-121920000D01*
X132010632Y-121803475D01*
X132217475Y-121596632D01*
X132379990Y-121353411D01*
X132491932Y-121083158D01*
X132549000Y-120796260D01*
X132549000Y-120503740D01*
X132491932Y-120216842D01*
X132379990Y-119946589D01*
X132217475Y-119703368D01*
X132178054Y-119663947D01*
X156385058Y-119663947D01*
X156551596Y-119988465D01*
X156941274Y-120188002D01*
X157362392Y-120307682D01*
X157798767Y-120342907D01*
X158233629Y-120292322D01*
X158650267Y-120157872D01*
X158967204Y-119988465D01*
X159133742Y-119663947D01*
X157759400Y-118289605D01*
X156385058Y-119663947D01*
X132178054Y-119663947D01*
X132010632Y-119496525D01*
X131836240Y-119380000D01*
X132010632Y-119263475D01*
X132217475Y-119056632D01*
X132379990Y-118813411D01*
X132491932Y-118543158D01*
X132549000Y-118256260D01*
X132549000Y-117963740D01*
X132547712Y-117957263D01*
X142185000Y-117957263D01*
X142185000Y-118252737D01*
X142242644Y-118542534D01*
X142355717Y-118815517D01*
X142519874Y-119061194D01*
X142728806Y-119270126D01*
X142974483Y-119434283D01*
X143247466Y-119547356D01*
X143537263Y-119605000D01*
X143832737Y-119605000D01*
X144122534Y-119547356D01*
X144395517Y-119434283D01*
X144641194Y-119270126D01*
X144680303Y-119231018D01*
X144709446Y-119260161D01*
X144825503Y-119144105D01*
X144904952Y-119394710D01*
X145171550Y-119522108D01*
X145457880Y-119595048D01*
X145752938Y-119610727D01*
X146045385Y-119568540D01*
X146323983Y-119470111D01*
X146465048Y-119394710D01*
X146544497Y-119144105D01*
X146660554Y-119260161D01*
X146689698Y-119231018D01*
X146728806Y-119270126D01*
X146974483Y-119434283D01*
X147247466Y-119547356D01*
X147537263Y-119605000D01*
X147832737Y-119605000D01*
X148122534Y-119547356D01*
X148395517Y-119434283D01*
X148641194Y-119270126D01*
X148850126Y-119061194D01*
X149014283Y-118815517D01*
X149127356Y-118542534D01*
X149185000Y-118252737D01*
X149185000Y-118149367D01*
X155526493Y-118149367D01*
X155577078Y-118584229D01*
X155711528Y-119000867D01*
X155880935Y-119317804D01*
X156205453Y-119484342D01*
X157579795Y-118110000D01*
X157939005Y-118110000D01*
X159313347Y-119484342D01*
X159637865Y-119317804D01*
X159837402Y-118928126D01*
X159957082Y-118507008D01*
X159992307Y-118070633D01*
X159941722Y-117635771D01*
X159807272Y-117219133D01*
X159637865Y-116902196D01*
X159313347Y-116735658D01*
X157939005Y-118110000D01*
X157579795Y-118110000D01*
X156205453Y-116735658D01*
X155880935Y-116902196D01*
X155681398Y-117291874D01*
X155561718Y-117712992D01*
X155526493Y-118149367D01*
X149185000Y-118149367D01*
X149185000Y-117957263D01*
X149127356Y-117667466D01*
X149014283Y-117394483D01*
X148850126Y-117148806D01*
X148641194Y-116939874D01*
X148395517Y-116775717D01*
X148122534Y-116662644D01*
X147832737Y-116605000D01*
X147537263Y-116605000D01*
X147247466Y-116662644D01*
X146974483Y-116775717D01*
X146728806Y-116939874D01*
X146689698Y-116978983D01*
X146660554Y-116949839D01*
X146544497Y-117065895D01*
X146465048Y-116815290D01*
X146198450Y-116687892D01*
X145912120Y-116614952D01*
X145617062Y-116599273D01*
X145324615Y-116641460D01*
X145046017Y-116739889D01*
X144904952Y-116815290D01*
X144825503Y-117065895D01*
X144709446Y-116949839D01*
X144680303Y-116978983D01*
X144641194Y-116939874D01*
X144395517Y-116775717D01*
X144122534Y-116662644D01*
X143832737Y-116605000D01*
X143537263Y-116605000D01*
X143247466Y-116662644D01*
X142974483Y-116775717D01*
X142728806Y-116939874D01*
X142519874Y-117148806D01*
X142355717Y-117394483D01*
X142242644Y-117667466D01*
X142185000Y-117957263D01*
X132547712Y-117957263D01*
X132491932Y-117676842D01*
X132379990Y-117406589D01*
X132217475Y-117163368D01*
X132010632Y-116956525D01*
X131836240Y-116840000D01*
X132010632Y-116723475D01*
X132178054Y-116556053D01*
X156385058Y-116556053D01*
X157759400Y-117930395D01*
X159133742Y-116556053D01*
X158967204Y-116231535D01*
X158577526Y-116031998D01*
X158156408Y-115912318D01*
X157720033Y-115877093D01*
X157285171Y-115927678D01*
X156868533Y-116062128D01*
X156551596Y-116231535D01*
X156385058Y-116556053D01*
X132178054Y-116556053D01*
X132217475Y-116516632D01*
X132379990Y-116273411D01*
X132491932Y-116003158D01*
X132549000Y-115716260D01*
X132549000Y-115423740D01*
X132491932Y-115136842D01*
X132379990Y-114866589D01*
X132217475Y-114623368D01*
X132010632Y-114416525D01*
X131836240Y-114300000D01*
X132010632Y-114183475D01*
X132217475Y-113976632D01*
X132379990Y-113733411D01*
X132491932Y-113463158D01*
X132549000Y-113176260D01*
X132549000Y-112887263D01*
X142185000Y-112887263D01*
X142185000Y-113182737D01*
X142242644Y-113472534D01*
X142355717Y-113745517D01*
X142519874Y-113991194D01*
X142728806Y-114200126D01*
X142974483Y-114364283D01*
X143247466Y-114477356D01*
X143537263Y-114535000D01*
X143832737Y-114535000D01*
X144122534Y-114477356D01*
X144395517Y-114364283D01*
X144641194Y-114200126D01*
X144680303Y-114161018D01*
X144709446Y-114190161D01*
X144825503Y-114074105D01*
X144904952Y-114324710D01*
X145171550Y-114452108D01*
X145457880Y-114525048D01*
X145752938Y-114540727D01*
X146045385Y-114498540D01*
X146323983Y-114400111D01*
X146465048Y-114324710D01*
X146544498Y-114074103D01*
X145685000Y-113214605D01*
X145670858Y-113228748D01*
X145491253Y-113049143D01*
X145505395Y-113035000D01*
X145864605Y-113035000D01*
X146724103Y-113894498D01*
X146974710Y-113815048D01*
X147102108Y-113548450D01*
X147175048Y-113262120D01*
X147190727Y-112967062D01*
X147179216Y-112887263D01*
X148185000Y-112887263D01*
X148185000Y-113182737D01*
X148242644Y-113472534D01*
X148355717Y-113745517D01*
X148519874Y-113991194D01*
X148728806Y-114200126D01*
X148974483Y-114364283D01*
X149247466Y-114477356D01*
X149537263Y-114535000D01*
X149832737Y-114535000D01*
X150122534Y-114477356D01*
X150395517Y-114364283D01*
X150641194Y-114200126D01*
X150850126Y-113991194D01*
X151014283Y-113745517D01*
X151127356Y-113472534D01*
X151185000Y-113182737D01*
X151185000Y-112887263D01*
X151169851Y-112811103D01*
X155536900Y-112811103D01*
X155536900Y-113248897D01*
X155622309Y-113678279D01*
X155789846Y-114082749D01*
X156033071Y-114446761D01*
X156342639Y-114756329D01*
X156706651Y-114999554D01*
X157111121Y-115167091D01*
X157540503Y-115252500D01*
X157978297Y-115252500D01*
X158407679Y-115167091D01*
X158812149Y-114999554D01*
X159176161Y-114756329D01*
X159485729Y-114446761D01*
X159728954Y-114082749D01*
X159896491Y-113678279D01*
X159981900Y-113248897D01*
X159981900Y-112811103D01*
X159896491Y-112381721D01*
X159728954Y-111977251D01*
X159485729Y-111613239D01*
X159176161Y-111303671D01*
X158812149Y-111060446D01*
X158407679Y-110892909D01*
X157978297Y-110807500D01*
X157540503Y-110807500D01*
X157111121Y-110892909D01*
X156706651Y-111060446D01*
X156342639Y-111303671D01*
X156033071Y-111613239D01*
X155789846Y-111977251D01*
X155622309Y-112381721D01*
X155536900Y-112811103D01*
X151169851Y-112811103D01*
X151127356Y-112597466D01*
X151014283Y-112324483D01*
X150850126Y-112078806D01*
X150641194Y-111869874D01*
X150395517Y-111705717D01*
X150122534Y-111592644D01*
X149832737Y-111535000D01*
X149537263Y-111535000D01*
X149247466Y-111592644D01*
X148974483Y-111705717D01*
X148728806Y-111869874D01*
X148519874Y-112078806D01*
X148355717Y-112324483D01*
X148242644Y-112597466D01*
X148185000Y-112887263D01*
X147179216Y-112887263D01*
X147148540Y-112674615D01*
X147050111Y-112396017D01*
X146974710Y-112254952D01*
X146724103Y-112175502D01*
X145864605Y-113035000D01*
X145505395Y-113035000D01*
X145491253Y-113020858D01*
X145670858Y-112841253D01*
X145685000Y-112855395D01*
X146544498Y-111995897D01*
X146465048Y-111745290D01*
X146198450Y-111617892D01*
X145912120Y-111544952D01*
X145617062Y-111529273D01*
X145324615Y-111571460D01*
X145046017Y-111669889D01*
X144904952Y-111745290D01*
X144825503Y-111995895D01*
X144709446Y-111879839D01*
X144680303Y-111908983D01*
X144641194Y-111869874D01*
X144395517Y-111705717D01*
X144122534Y-111592644D01*
X143832737Y-111535000D01*
X143537263Y-111535000D01*
X143247466Y-111592644D01*
X142974483Y-111705717D01*
X142728806Y-111869874D01*
X142519874Y-112078806D01*
X142355717Y-112324483D01*
X142242644Y-112597466D01*
X142185000Y-112887263D01*
X132549000Y-112887263D01*
X132549000Y-112883740D01*
X132491932Y-112596842D01*
X132379990Y-112326589D01*
X132217475Y-112083368D01*
X132010632Y-111876525D01*
X131836240Y-111760000D01*
X132010632Y-111643475D01*
X132217475Y-111436632D01*
X132379990Y-111193411D01*
X132491932Y-110923158D01*
X132549000Y-110636260D01*
X132549000Y-110343740D01*
X132491932Y-110056842D01*
X132379990Y-109786589D01*
X132217475Y-109543368D01*
X132010632Y-109336525D01*
X131836240Y-109220000D01*
X132010632Y-109103475D01*
X132217475Y-108896632D01*
X132379990Y-108653411D01*
X132491932Y-108383158D01*
X132549000Y-108096260D01*
X132549000Y-107803740D01*
X132491932Y-107516842D01*
X132379990Y-107246589D01*
X132217475Y-107003368D01*
X132010632Y-106796525D01*
X131836240Y-106680000D01*
X132010632Y-106563475D01*
X132217475Y-106356632D01*
X132379990Y-106113411D01*
X132491932Y-105843158D01*
X132549000Y-105556260D01*
X132549000Y-105263740D01*
X132491932Y-104976842D01*
X132379990Y-104706589D01*
X132217475Y-104463368D01*
X132010632Y-104256525D01*
X131836240Y-104140000D01*
X132010632Y-104023475D01*
X132217475Y-103816632D01*
X132379990Y-103573411D01*
X132491932Y-103303158D01*
X132549000Y-103016260D01*
X132549000Y-102723740D01*
X132534307Y-102649872D01*
X134925000Y-102649872D01*
X134925000Y-103090128D01*
X135010890Y-103521925D01*
X135179369Y-103928669D01*
X135423962Y-104294729D01*
X135735271Y-104606038D01*
X136101331Y-104850631D01*
X136508075Y-105019110D01*
X136939872Y-105105000D01*
X137380128Y-105105000D01*
X137811925Y-105019110D01*
X138218669Y-104850631D01*
X138584729Y-104606038D01*
X138896038Y-104294729D01*
X139140631Y-103928669D01*
X139309110Y-103521925D01*
X139395000Y-103090128D01*
X139395000Y-102649872D01*
X153975000Y-102649872D01*
X153975000Y-103090128D01*
X154060890Y-103521925D01*
X154229369Y-103928669D01*
X154473962Y-104294729D01*
X154785271Y-104606038D01*
X155151331Y-104850631D01*
X155558075Y-105019110D01*
X155989872Y-105105000D01*
X156430128Y-105105000D01*
X156861925Y-105019110D01*
X157268669Y-104850631D01*
X157634729Y-104606038D01*
X157946038Y-104294729D01*
X158190631Y-103928669D01*
X158359110Y-103521925D01*
X158445000Y-103090128D01*
X158445000Y-102649872D01*
X158359110Y-102218075D01*
X158190631Y-101811331D01*
X157946038Y-101445271D01*
X157634729Y-101133962D01*
X157268669Y-100889369D01*
X156861925Y-100720890D01*
X156430128Y-100635000D01*
X155989872Y-100635000D01*
X155558075Y-100720890D01*
X155151331Y-100889369D01*
X154785271Y-101133962D01*
X154473962Y-101445271D01*
X154229369Y-101811331D01*
X154060890Y-102218075D01*
X153975000Y-102649872D01*
X139395000Y-102649872D01*
X139309110Y-102218075D01*
X139140631Y-101811331D01*
X138896038Y-101445271D01*
X138584729Y-101133962D01*
X138218669Y-100889369D01*
X137811925Y-100720890D01*
X137380128Y-100635000D01*
X136939872Y-100635000D01*
X136508075Y-100720890D01*
X136101331Y-100889369D01*
X135735271Y-101133962D01*
X135423962Y-101445271D01*
X135179369Y-101811331D01*
X135010890Y-102218075D01*
X134925000Y-102649872D01*
X132534307Y-102649872D01*
X132491932Y-102436842D01*
X132379990Y-102166589D01*
X132217475Y-101923368D01*
X132010632Y-101716525D01*
X131767411Y-101554010D01*
X131497158Y-101442068D01*
X131210260Y-101385000D01*
X130917740Y-101385000D01*
X130630842Y-101442068D01*
X130360589Y-101554010D01*
X130117368Y-101716525D01*
X129910525Y-101923368D01*
X129794000Y-102097760D01*
X129677475Y-101923368D01*
X129470632Y-101716525D01*
X129227411Y-101554010D01*
X128957158Y-101442068D01*
X128670260Y-101385000D01*
X128377740Y-101385000D01*
X128090842Y-101442068D01*
X127820589Y-101554010D01*
X127577368Y-101716525D01*
X127370525Y-101923368D01*
X127208010Y-102166589D01*
X127096068Y-102436842D01*
X127039000Y-102723740D01*
X125120000Y-102723740D01*
X125120000Y-99720000D01*
X161900001Y-99720000D01*
X161900000Y-131420000D01*
G37*
G04 #@! TD.AperFunction*
D15*
X145878748Y-118090858D02*
X145864605Y-118105000D01*
X145878748Y-118119143D01*
X145699143Y-118298748D01*
X145685000Y-118284605D01*
X145670858Y-118298748D01*
X145491253Y-118119143D01*
X145505395Y-118105000D01*
X145491253Y-118090858D01*
X145670858Y-117911253D01*
X145685000Y-117925395D01*
X145699143Y-117911253D01*
X145878748Y-118090858D01*
G04 #@! TA.AperFunction,Conductor*
D16*
G36*
X145878748Y-118090858D02*
G01*
X145864605Y-118105000D01*
X145878748Y-118119143D01*
X145699143Y-118298748D01*
X145685000Y-118284605D01*
X145670858Y-118298748D01*
X145491253Y-118119143D01*
X145505395Y-118105000D01*
X145491253Y-118090858D01*
X145670858Y-117911253D01*
X145685000Y-117925395D01*
X145699143Y-117911253D01*
X145878748Y-118090858D01*
G37*
G04 #@! TD.AperFunction*
M02*
