M48
; DRILL file {KiCad (5.1.5)-3} date 9/15/2020 7:30:56 AM
; FORMAT={-:-/ absolute / inch / decimal}
; #@! TF.CreationDate,2020-09-15T07:30:56-05:00
; #@! TF.GenerationSoftware,Kicad,Pcbnew,(5.1.5)-3
; #@! TF.FileFunction,Plated,1,2,PTH
FMAT,2
INCH
T1C0.0394
T2C0.0406
T3C0.0680
%
G90
G05
T1
X5.06Y-4.05
X5.06Y-4.15
X5.06Y-4.25
X5.06Y-4.35
X5.06Y-4.45
X5.06Y-4.55
X5.06Y-4.65
X5.06Y-4.75
X5.06Y-4.85
X5.06Y-4.95
X5.06Y-5.05
X5.16Y-4.05
X5.16Y-4.15
X5.16Y-4.25
X5.16Y-4.35
X5.16Y-4.45
X5.16Y-4.55
X5.16Y-4.65
X5.16Y-4.75
X5.16Y-4.85
X5.16Y-4.95
X5.16Y-5.05
T2
X5.9569Y-4.4502
X5.9569Y-4.6498
X6.0356Y-4.4502
X6.0356Y-4.6498
X6.1144Y-4.6498
X6.1931Y-4.4502
T3
X6.51Y-4.45
X6.51Y-4.65
T0
M30
