G04 #@! TF.GenerationSoftware,KiCad,Pcbnew,(5.1.5)-3*
G04 #@! TF.CreationDate,2020-09-15T07:30:15-05:00*
G04 #@! TF.ProjectId,power_supply_board,706f7765-725f-4737-9570-706c795f626f,4.1*
G04 #@! TF.SameCoordinates,Original*
G04 #@! TF.FileFunction,Legend,Top*
G04 #@! TF.FilePolarity,Positive*
%FSLAX46Y46*%
G04 Gerber Fmt 4.6, Leading zero omitted, Abs format (unit mm)*
G04 Created by KiCad (PCBNEW (5.1.5)-3) date 2020-09-15 07:30:15*
%MOMM*%
%LPD*%
G04 APERTURE LIST*
%ADD10C,0.254000*%
%ADD11C,0.149860*%
%ADD12C,0.120000*%
%ADD13C,0.150000*%
G04 APERTURE END LIST*
D10*
X160026047Y-112957428D02*
X160171190Y-113005809D01*
X160219571Y-113054190D01*
X160267952Y-113150952D01*
X160267952Y-113296095D01*
X160219571Y-113392857D01*
X160171190Y-113441238D01*
X160074428Y-113489619D01*
X159687380Y-113489619D01*
X159687380Y-112473619D01*
X160026047Y-112473619D01*
X160122809Y-112522000D01*
X160171190Y-112570380D01*
X160219571Y-112667142D01*
X160219571Y-112763904D01*
X160171190Y-112860666D01*
X160122809Y-112909047D01*
X160026047Y-112957428D01*
X159687380Y-112957428D01*
X160655000Y-113199333D02*
X161138809Y-113199333D01*
X160558238Y-113489619D02*
X160896904Y-112473619D01*
X161235571Y-113489619D01*
X161429095Y-112473619D02*
X162009666Y-112473619D01*
X161719380Y-113489619D02*
X161719380Y-112473619D01*
X162203190Y-112473619D02*
X162783761Y-112473619D01*
X162493476Y-113489619D02*
X162493476Y-112473619D01*
X160642904Y-117602000D02*
X160546142Y-117553619D01*
X160401000Y-117553619D01*
X160255857Y-117602000D01*
X160159095Y-117698761D01*
X160110714Y-117795523D01*
X160062333Y-117989047D01*
X160062333Y-118134190D01*
X160110714Y-118327714D01*
X160159095Y-118424476D01*
X160255857Y-118521238D01*
X160401000Y-118569619D01*
X160497761Y-118569619D01*
X160642904Y-118521238D01*
X160691285Y-118472857D01*
X160691285Y-118134190D01*
X160497761Y-118134190D01*
X161126714Y-118569619D02*
X161126714Y-117553619D01*
X161707285Y-118569619D01*
X161707285Y-117553619D01*
X162191095Y-118569619D02*
X162191095Y-117553619D01*
X162433000Y-117553619D01*
X162578142Y-117602000D01*
X162674904Y-117698761D01*
X162723285Y-117795523D01*
X162771666Y-117989047D01*
X162771666Y-118134190D01*
X162723285Y-118327714D01*
X162674904Y-118424476D01*
X162578142Y-118521238D01*
X162433000Y-118569619D01*
X162191095Y-118569619D01*
D11*
X142875000Y-99635854D02*
X143020142Y-99635854D01*
X143092714Y-99672140D01*
X143165285Y-99744711D01*
X143201571Y-99889854D01*
X143201571Y-100143854D01*
X143165285Y-100288997D01*
X143092714Y-100361568D01*
X143020142Y-100397854D01*
X142875000Y-100397854D01*
X142802428Y-100361568D01*
X142729857Y-100288997D01*
X142693571Y-100143854D01*
X142693571Y-99889854D01*
X142729857Y-99744711D01*
X142802428Y-99672140D01*
X142875000Y-99635854D01*
X143782142Y-99998711D02*
X143528142Y-99998711D01*
X143528142Y-100397854D02*
X143528142Y-99635854D01*
X143891000Y-99635854D01*
X144181285Y-100397854D02*
X144181285Y-99635854D01*
X144435285Y-100180140D01*
X144689285Y-99635854D01*
X144689285Y-100397854D01*
X145052142Y-100397854D02*
X145052142Y-99635854D01*
X146431000Y-100397854D02*
X146177000Y-100034997D01*
X145995571Y-100397854D02*
X145995571Y-99635854D01*
X146285857Y-99635854D01*
X146358428Y-99672140D01*
X146394714Y-99708425D01*
X146431000Y-99780997D01*
X146431000Y-99889854D01*
X146394714Y-99962425D01*
X146358428Y-99998711D01*
X146285857Y-100034997D01*
X145995571Y-100034997D01*
X147047857Y-100361568D02*
X146975285Y-100397854D01*
X146830142Y-100397854D01*
X146757571Y-100361568D01*
X146721285Y-100288997D01*
X146721285Y-99998711D01*
X146757571Y-99926140D01*
X146830142Y-99889854D01*
X146975285Y-99889854D01*
X147047857Y-99926140D01*
X147084142Y-99998711D01*
X147084142Y-100071282D01*
X146721285Y-100143854D01*
X147338142Y-99889854D02*
X147519571Y-100397854D01*
X147701000Y-99889854D01*
X147991285Y-100325282D02*
X148027571Y-100361568D01*
X147991285Y-100397854D01*
X147955000Y-100361568D01*
X147991285Y-100325282D01*
X147991285Y-100397854D01*
X149261285Y-99889854D02*
X149261285Y-100397854D01*
X149079857Y-99599568D02*
X148898428Y-100143854D01*
X149370142Y-100143854D01*
X149660428Y-100325282D02*
X149696714Y-100361568D01*
X149660428Y-100397854D01*
X149624142Y-100361568D01*
X149660428Y-100325282D01*
X149660428Y-100397854D01*
X150422428Y-100397854D02*
X149987000Y-100397854D01*
X150204714Y-100397854D02*
X150204714Y-99635854D01*
X150132142Y-99744711D01*
X150059571Y-99817282D01*
X149987000Y-99853568D01*
X140933714Y-101690714D02*
X140933714Y-100928714D01*
X141224000Y-100928714D01*
X141296571Y-100965000D01*
X141332857Y-101001285D01*
X141369142Y-101073857D01*
X141369142Y-101182714D01*
X141332857Y-101255285D01*
X141296571Y-101291571D01*
X141224000Y-101327857D01*
X140933714Y-101327857D01*
X141804571Y-101690714D02*
X141732000Y-101654428D01*
X141695714Y-101618142D01*
X141659428Y-101545571D01*
X141659428Y-101327857D01*
X141695714Y-101255285D01*
X141732000Y-101219000D01*
X141804571Y-101182714D01*
X141913428Y-101182714D01*
X141986000Y-101219000D01*
X142022285Y-101255285D01*
X142058571Y-101327857D01*
X142058571Y-101545571D01*
X142022285Y-101618142D01*
X141986000Y-101654428D01*
X141913428Y-101690714D01*
X141804571Y-101690714D01*
X142312571Y-101182714D02*
X142457714Y-101690714D01*
X142602857Y-101327857D01*
X142748000Y-101690714D01*
X142893142Y-101182714D01*
X143473714Y-101654428D02*
X143401142Y-101690714D01*
X143256000Y-101690714D01*
X143183428Y-101654428D01*
X143147142Y-101581857D01*
X143147142Y-101291571D01*
X143183428Y-101219000D01*
X143256000Y-101182714D01*
X143401142Y-101182714D01*
X143473714Y-101219000D01*
X143510000Y-101291571D01*
X143510000Y-101364142D01*
X143147142Y-101436714D01*
X143836571Y-101690714D02*
X143836571Y-101182714D01*
X143836571Y-101327857D02*
X143872857Y-101255285D01*
X143909142Y-101219000D01*
X143981714Y-101182714D01*
X144054285Y-101182714D01*
X144852571Y-101654428D02*
X144961428Y-101690714D01*
X145142857Y-101690714D01*
X145215428Y-101654428D01*
X145251714Y-101618142D01*
X145288000Y-101545571D01*
X145288000Y-101473000D01*
X145251714Y-101400428D01*
X145215428Y-101364142D01*
X145142857Y-101327857D01*
X144997714Y-101291571D01*
X144925142Y-101255285D01*
X144888857Y-101219000D01*
X144852571Y-101146428D01*
X144852571Y-101073857D01*
X144888857Y-101001285D01*
X144925142Y-100965000D01*
X144997714Y-100928714D01*
X145179142Y-100928714D01*
X145288000Y-100965000D01*
X145941142Y-101182714D02*
X145941142Y-101690714D01*
X145614571Y-101182714D02*
X145614571Y-101581857D01*
X145650857Y-101654428D01*
X145723428Y-101690714D01*
X145832285Y-101690714D01*
X145904857Y-101654428D01*
X145941142Y-101618142D01*
X146304000Y-101182714D02*
X146304000Y-101944714D01*
X146304000Y-101219000D02*
X146376571Y-101182714D01*
X146521714Y-101182714D01*
X146594285Y-101219000D01*
X146630571Y-101255285D01*
X146666857Y-101327857D01*
X146666857Y-101545571D01*
X146630571Y-101618142D01*
X146594285Y-101654428D01*
X146521714Y-101690714D01*
X146376571Y-101690714D01*
X146304000Y-101654428D01*
X146993428Y-101182714D02*
X146993428Y-101944714D01*
X146993428Y-101219000D02*
X147066000Y-101182714D01*
X147211142Y-101182714D01*
X147283714Y-101219000D01*
X147320000Y-101255285D01*
X147356285Y-101327857D01*
X147356285Y-101545571D01*
X147320000Y-101618142D01*
X147283714Y-101654428D01*
X147211142Y-101690714D01*
X147066000Y-101690714D01*
X146993428Y-101654428D01*
X147791714Y-101690714D02*
X147719142Y-101654428D01*
X147682857Y-101581857D01*
X147682857Y-100928714D01*
X148009428Y-101182714D02*
X148190857Y-101690714D01*
X148372285Y-101182714D02*
X148190857Y-101690714D01*
X148118285Y-101872142D01*
X148082000Y-101908428D01*
X148009428Y-101944714D01*
X149497142Y-101291571D02*
X149606000Y-101327857D01*
X149642285Y-101364142D01*
X149678571Y-101436714D01*
X149678571Y-101545571D01*
X149642285Y-101618142D01*
X149606000Y-101654428D01*
X149533428Y-101690714D01*
X149243142Y-101690714D01*
X149243142Y-100928714D01*
X149497142Y-100928714D01*
X149569714Y-100965000D01*
X149606000Y-101001285D01*
X149642285Y-101073857D01*
X149642285Y-101146428D01*
X149606000Y-101219000D01*
X149569714Y-101255285D01*
X149497142Y-101291571D01*
X149243142Y-101291571D01*
X150114000Y-101690714D02*
X150041428Y-101654428D01*
X150005142Y-101618142D01*
X149968857Y-101545571D01*
X149968857Y-101327857D01*
X150005142Y-101255285D01*
X150041428Y-101219000D01*
X150114000Y-101182714D01*
X150222857Y-101182714D01*
X150295428Y-101219000D01*
X150331714Y-101255285D01*
X150368000Y-101327857D01*
X150368000Y-101545571D01*
X150331714Y-101618142D01*
X150295428Y-101654428D01*
X150222857Y-101690714D01*
X150114000Y-101690714D01*
X151021142Y-101690714D02*
X151021142Y-101291571D01*
X150984857Y-101219000D01*
X150912285Y-101182714D01*
X150767142Y-101182714D01*
X150694571Y-101219000D01*
X151021142Y-101654428D02*
X150948571Y-101690714D01*
X150767142Y-101690714D01*
X150694571Y-101654428D01*
X150658285Y-101581857D01*
X150658285Y-101509285D01*
X150694571Y-101436714D01*
X150767142Y-101400428D01*
X150948571Y-101400428D01*
X151021142Y-101364142D01*
X151383999Y-101690714D02*
X151383999Y-101182714D01*
X151383999Y-101327857D02*
X151420285Y-101255285D01*
X151456571Y-101219000D01*
X151529142Y-101182714D01*
X151601714Y-101182714D01*
X152182285Y-101690714D02*
X152182285Y-100928714D01*
X152182285Y-101654428D02*
X152109714Y-101690714D01*
X151964571Y-101690714D01*
X151891999Y-101654428D01*
X151855714Y-101618142D01*
X151819428Y-101545571D01*
X151819428Y-101327857D01*
X151855714Y-101255285D01*
X151891999Y-101219000D01*
X151964571Y-101182714D01*
X152109714Y-101182714D01*
X152182285Y-101219000D01*
X141967857Y-102947288D02*
X142076714Y-102983574D01*
X142258142Y-102983574D01*
X142330714Y-102947288D01*
X142367000Y-102911002D01*
X142403285Y-102838431D01*
X142403285Y-102765860D01*
X142367000Y-102693288D01*
X142330714Y-102657002D01*
X142258142Y-102620717D01*
X142113000Y-102584431D01*
X142040428Y-102548145D01*
X142004142Y-102511860D01*
X141967857Y-102439288D01*
X141967857Y-102366717D01*
X142004142Y-102294145D01*
X142040428Y-102257860D01*
X142113000Y-102221574D01*
X142294428Y-102221574D01*
X142403285Y-102257860D01*
X143020142Y-102947288D02*
X142947571Y-102983574D01*
X142802428Y-102983574D01*
X142729857Y-102947288D01*
X142693571Y-102874717D01*
X142693571Y-102584431D01*
X142729857Y-102511860D01*
X142802428Y-102475574D01*
X142947571Y-102475574D01*
X143020142Y-102511860D01*
X143056428Y-102584431D01*
X143056428Y-102657002D01*
X142693571Y-102729574D01*
X143383000Y-102475574D02*
X143383000Y-103237574D01*
X143383000Y-102511860D02*
X143455571Y-102475574D01*
X143600714Y-102475574D01*
X143673285Y-102511860D01*
X143709571Y-102548145D01*
X143745857Y-102620717D01*
X143745857Y-102838431D01*
X143709571Y-102911002D01*
X143673285Y-102947288D01*
X143600714Y-102983574D01*
X143455571Y-102983574D01*
X143383000Y-102947288D01*
X143963571Y-102475574D02*
X144253857Y-102475574D01*
X144072428Y-102221574D02*
X144072428Y-102874717D01*
X144108714Y-102947288D01*
X144181285Y-102983574D01*
X144253857Y-102983574D01*
X144798142Y-102947288D02*
X144725571Y-102983574D01*
X144580428Y-102983574D01*
X144507857Y-102947288D01*
X144471571Y-102874717D01*
X144471571Y-102584431D01*
X144507857Y-102511860D01*
X144580428Y-102475574D01*
X144725571Y-102475574D01*
X144798142Y-102511860D01*
X144834428Y-102584431D01*
X144834428Y-102657002D01*
X144471571Y-102729574D01*
X145161000Y-102983574D02*
X145161000Y-102475574D01*
X145161000Y-102548145D02*
X145197285Y-102511860D01*
X145269857Y-102475574D01*
X145378714Y-102475574D01*
X145451285Y-102511860D01*
X145487571Y-102584431D01*
X145487571Y-102983574D01*
X145487571Y-102584431D02*
X145523857Y-102511860D01*
X145596428Y-102475574D01*
X145705285Y-102475574D01*
X145777857Y-102511860D01*
X145814142Y-102584431D01*
X145814142Y-102983574D01*
X146177000Y-102983574D02*
X146177000Y-102221574D01*
X146177000Y-102511860D02*
X146249571Y-102475574D01*
X146394714Y-102475574D01*
X146467285Y-102511860D01*
X146503571Y-102548145D01*
X146539857Y-102620717D01*
X146539857Y-102838431D01*
X146503571Y-102911002D01*
X146467285Y-102947288D01*
X146394714Y-102983574D01*
X146249571Y-102983574D01*
X146177000Y-102947288D01*
X147156714Y-102947288D02*
X147084142Y-102983574D01*
X146939000Y-102983574D01*
X146866428Y-102947288D01*
X146830142Y-102874717D01*
X146830142Y-102584431D01*
X146866428Y-102511860D01*
X146939000Y-102475574D01*
X147084142Y-102475574D01*
X147156714Y-102511860D01*
X147193000Y-102584431D01*
X147193000Y-102657002D01*
X146830142Y-102729574D01*
X147519571Y-102983574D02*
X147519571Y-102475574D01*
X147519571Y-102620717D02*
X147555857Y-102548145D01*
X147592142Y-102511860D01*
X147664714Y-102475574D01*
X147737285Y-102475574D01*
X148535571Y-102294145D02*
X148571857Y-102257860D01*
X148644428Y-102221574D01*
X148825857Y-102221574D01*
X148898428Y-102257860D01*
X148934714Y-102294145D01*
X148971000Y-102366717D01*
X148971000Y-102439288D01*
X148934714Y-102548145D01*
X148499285Y-102983574D01*
X148971000Y-102983574D01*
X149442714Y-102221574D02*
X149515285Y-102221574D01*
X149587857Y-102257860D01*
X149624142Y-102294145D01*
X149660428Y-102366717D01*
X149696714Y-102511860D01*
X149696714Y-102693288D01*
X149660428Y-102838431D01*
X149624142Y-102911002D01*
X149587857Y-102947288D01*
X149515285Y-102983574D01*
X149442714Y-102983574D01*
X149370142Y-102947288D01*
X149333857Y-102911002D01*
X149297571Y-102838431D01*
X149261285Y-102693288D01*
X149261285Y-102511860D01*
X149297571Y-102366717D01*
X149333857Y-102294145D01*
X149370142Y-102257860D01*
X149442714Y-102221574D01*
X149987000Y-102294145D02*
X150023285Y-102257860D01*
X150095857Y-102221574D01*
X150277285Y-102221574D01*
X150349857Y-102257860D01*
X150386142Y-102294145D01*
X150422428Y-102366717D01*
X150422428Y-102439288D01*
X150386142Y-102548145D01*
X149950714Y-102983574D01*
X150422428Y-102983574D01*
X150894142Y-102221574D02*
X150966714Y-102221574D01*
X151039285Y-102257860D01*
X151075571Y-102294145D01*
X151111857Y-102366717D01*
X151148142Y-102511860D01*
X151148142Y-102693288D01*
X151111857Y-102838431D01*
X151075571Y-102911002D01*
X151039285Y-102947288D01*
X150966714Y-102983574D01*
X150894142Y-102983574D01*
X150821571Y-102947288D01*
X150785285Y-102911002D01*
X150749000Y-102838431D01*
X150712714Y-102693288D01*
X150712714Y-102511860D01*
X150749000Y-102366717D01*
X150785285Y-102294145D01*
X150821571Y-102257860D01*
X150894142Y-102221574D01*
D12*
X132334000Y-129540000D02*
X131064000Y-129540000D01*
X132334000Y-128270000D02*
X132334000Y-129540000D01*
X130021071Y-102490000D02*
X129566929Y-102490000D01*
X130021071Y-103250000D02*
X129566929Y-103250000D01*
X127481071Y-102490000D02*
X127084000Y-102490000D01*
X127481071Y-103250000D02*
X127084000Y-103250000D01*
X118424000Y-102490000D02*
X124424000Y-102490000D01*
X118424000Y-103250000D02*
X118424000Y-102490000D01*
X124424000Y-103250000D02*
X118424000Y-103250000D01*
X127084000Y-104140000D02*
X124424000Y-104140000D01*
X130021071Y-105030000D02*
X129566929Y-105030000D01*
X130021071Y-105790000D02*
X129566929Y-105790000D01*
X127481071Y-105030000D02*
X127084000Y-105030000D01*
X127481071Y-105790000D02*
X127084000Y-105790000D01*
X118424000Y-105030000D02*
X124424000Y-105030000D01*
X118424000Y-105790000D02*
X118424000Y-105030000D01*
X124424000Y-105790000D02*
X118424000Y-105790000D01*
X127084000Y-106680000D02*
X124424000Y-106680000D01*
X130021071Y-107570000D02*
X129566929Y-107570000D01*
X130021071Y-108330000D02*
X129566929Y-108330000D01*
X127481071Y-107570000D02*
X127084000Y-107570000D01*
X127481071Y-108330000D02*
X127084000Y-108330000D01*
X118424000Y-107570000D02*
X124424000Y-107570000D01*
X118424000Y-108330000D02*
X118424000Y-107570000D01*
X124424000Y-108330000D02*
X118424000Y-108330000D01*
X127084000Y-109220000D02*
X124424000Y-109220000D01*
X130021071Y-110110000D02*
X129566929Y-110110000D01*
X130021071Y-110870000D02*
X129566929Y-110870000D01*
X127481071Y-110110000D02*
X127084000Y-110110000D01*
X127481071Y-110870000D02*
X127084000Y-110870000D01*
X118424000Y-110110000D02*
X124424000Y-110110000D01*
X118424000Y-110870000D02*
X118424000Y-110110000D01*
X124424000Y-110870000D02*
X118424000Y-110870000D01*
X127084000Y-111760000D02*
X124424000Y-111760000D01*
X130021071Y-112650000D02*
X129566929Y-112650000D01*
X130021071Y-113410000D02*
X129566929Y-113410000D01*
X127481071Y-112650000D02*
X127084000Y-112650000D01*
X127481071Y-113410000D02*
X127084000Y-113410000D01*
X118424000Y-112650000D02*
X124424000Y-112650000D01*
X118424000Y-113410000D02*
X118424000Y-112650000D01*
X124424000Y-113410000D02*
X118424000Y-113410000D01*
X127084000Y-114300000D02*
X124424000Y-114300000D01*
X130021071Y-115190000D02*
X129566929Y-115190000D01*
X130021071Y-115950000D02*
X129566929Y-115950000D01*
X127481071Y-115190000D02*
X127084000Y-115190000D01*
X127481071Y-115950000D02*
X127084000Y-115950000D01*
X118424000Y-115190000D02*
X124424000Y-115190000D01*
X118424000Y-115950000D02*
X118424000Y-115190000D01*
X124424000Y-115950000D02*
X118424000Y-115950000D01*
X127084000Y-116840000D02*
X124424000Y-116840000D01*
X130021071Y-117730000D02*
X129566929Y-117730000D01*
X130021071Y-118490000D02*
X129566929Y-118490000D01*
X127481071Y-117730000D02*
X127084000Y-117730000D01*
X127481071Y-118490000D02*
X127084000Y-118490000D01*
X118424000Y-117730000D02*
X124424000Y-117730000D01*
X118424000Y-118490000D02*
X118424000Y-117730000D01*
X124424000Y-118490000D02*
X118424000Y-118490000D01*
X127084000Y-119380000D02*
X124424000Y-119380000D01*
X130021071Y-120270000D02*
X129566929Y-120270000D01*
X130021071Y-121030000D02*
X129566929Y-121030000D01*
X127481071Y-120270000D02*
X127084000Y-120270000D01*
X127481071Y-121030000D02*
X127084000Y-121030000D01*
X118424000Y-120270000D02*
X124424000Y-120270000D01*
X118424000Y-121030000D02*
X118424000Y-120270000D01*
X124424000Y-121030000D02*
X118424000Y-121030000D01*
X127084000Y-121920000D02*
X124424000Y-121920000D01*
X130021071Y-122810000D02*
X129566929Y-122810000D01*
X130021071Y-123570000D02*
X129566929Y-123570000D01*
X127481071Y-122810000D02*
X127084000Y-122810000D01*
X127481071Y-123570000D02*
X127084000Y-123570000D01*
X118424000Y-122810000D02*
X124424000Y-122810000D01*
X118424000Y-123570000D02*
X118424000Y-122810000D01*
X124424000Y-123570000D02*
X118424000Y-123570000D01*
X127084000Y-124460000D02*
X124424000Y-124460000D01*
X130021071Y-125350000D02*
X129566929Y-125350000D01*
X130021071Y-126110000D02*
X129566929Y-126110000D01*
X127481071Y-125350000D02*
X127084000Y-125350000D01*
X127481071Y-126110000D02*
X127084000Y-126110000D01*
X118424000Y-125350000D02*
X124424000Y-125350000D01*
X118424000Y-126110000D02*
X118424000Y-125350000D01*
X124424000Y-126110000D02*
X118424000Y-126110000D01*
X127084000Y-127000000D02*
X124424000Y-127000000D01*
X129954000Y-127890000D02*
X129566929Y-127890000D01*
X129954000Y-128650000D02*
X129566929Y-128650000D01*
X127481071Y-127890000D02*
X127084000Y-127890000D01*
X127481071Y-128650000D02*
X127084000Y-128650000D01*
X124424000Y-127990000D02*
X118424000Y-127990000D01*
X124424000Y-128110000D02*
X118424000Y-128110000D01*
X124424000Y-128230000D02*
X118424000Y-128230000D01*
X124424000Y-128350000D02*
X118424000Y-128350000D01*
X124424000Y-128470000D02*
X118424000Y-128470000D01*
X124424000Y-128590000D02*
X118424000Y-128590000D01*
X118424000Y-127890000D02*
X124424000Y-127890000D01*
X118424000Y-128650000D02*
X118424000Y-127890000D01*
X124424000Y-128650000D02*
X118424000Y-128650000D01*
X124424000Y-129600000D02*
X127084000Y-129600000D01*
X124424000Y-101540000D02*
X124424000Y-129600000D01*
X127084000Y-101540000D02*
X124424000Y-101540000D01*
X127084000Y-129600000D02*
X127084000Y-101540000D01*
D13*
X158905000Y-108970000D02*
X158905000Y-122170000D01*
X158905000Y-122170000D02*
X149705000Y-122170000D01*
X149705000Y-122170000D02*
X149705000Y-108970000D01*
X149705000Y-108970000D02*
X158905000Y-108970000D01*
X126920666Y-130516380D02*
X126920666Y-131230666D01*
X126873047Y-131373523D01*
X126777809Y-131468761D01*
X126634952Y-131516380D01*
X126539714Y-131516380D01*
X127920666Y-131516380D02*
X127349238Y-131516380D01*
X127634952Y-131516380D02*
X127634952Y-130516380D01*
X127539714Y-130659238D01*
X127444476Y-130754476D01*
X127349238Y-130802095D01*
X147915380Y-122046904D02*
X148724904Y-122046904D01*
X148820142Y-121999285D01*
X148867761Y-121951666D01*
X148915380Y-121856428D01*
X148915380Y-121665952D01*
X148867761Y-121570714D01*
X148820142Y-121523095D01*
X148724904Y-121475476D01*
X147915380Y-121475476D01*
X148915380Y-120475476D02*
X148915380Y-121046904D01*
X148915380Y-120761190D02*
X147915380Y-120761190D01*
X148058238Y-120856428D01*
X148153476Y-120951666D01*
X148201095Y-121046904D01*
M02*
