G04 #@! TF.GenerationSoftware,KiCad,Pcbnew,(5.1.12)-1*
G04 #@! TF.CreationDate,2022-02-08T15:27:08-06:00*
G04 #@! TF.ProjectId,power_supply_board,706f7765-725f-4737-9570-706c795f626f,4.2*
G04 #@! TF.SameCoordinates,Original*
G04 #@! TF.FileFunction,Legend,Top*
G04 #@! TF.FilePolarity,Positive*
%FSLAX46Y46*%
G04 Gerber Fmt 4.6, Leading zero omitted, Abs format (unit mm)*
G04 Created by KiCad (PCBNEW (5.1.12)-1) date 2022-02-08 15:27:08*
%MOMM*%
%LPD*%
G01*
G04 APERTURE LIST*
%ADD10C,0.254000*%
%ADD11C,0.149860*%
%ADD12C,0.120000*%
%ADD13C,0.150000*%
G04 APERTURE END LIST*
D10*
X152279047Y-111687428D02*
X152424190Y-111735809D01*
X152472571Y-111784190D01*
X152520952Y-111880952D01*
X152520952Y-112026095D01*
X152472571Y-112122857D01*
X152424190Y-112171238D01*
X152327428Y-112219619D01*
X151940380Y-112219619D01*
X151940380Y-111203619D01*
X152279047Y-111203619D01*
X152375809Y-111252000D01*
X152424190Y-111300380D01*
X152472571Y-111397142D01*
X152472571Y-111493904D01*
X152424190Y-111590666D01*
X152375809Y-111639047D01*
X152279047Y-111687428D01*
X151940380Y-111687428D01*
X152908000Y-111929333D02*
X153391809Y-111929333D01*
X152811238Y-112219619D02*
X153149904Y-111203619D01*
X153488571Y-112219619D01*
X153682095Y-111203619D02*
X154262666Y-111203619D01*
X153972380Y-112219619D02*
X153972380Y-111203619D01*
X154456190Y-111203619D02*
X155036761Y-111203619D01*
X154746476Y-112219619D02*
X154746476Y-111203619D01*
X152895904Y-118872000D02*
X152799142Y-118823619D01*
X152654000Y-118823619D01*
X152508857Y-118872000D01*
X152412095Y-118968761D01*
X152363714Y-119065523D01*
X152315333Y-119259047D01*
X152315333Y-119404190D01*
X152363714Y-119597714D01*
X152412095Y-119694476D01*
X152508857Y-119791238D01*
X152654000Y-119839619D01*
X152750761Y-119839619D01*
X152895904Y-119791238D01*
X152944285Y-119742857D01*
X152944285Y-119404190D01*
X152750761Y-119404190D01*
X153379714Y-119839619D02*
X153379714Y-118823619D01*
X153960285Y-119839619D01*
X153960285Y-118823619D01*
X154444095Y-119839619D02*
X154444095Y-118823619D01*
X154686000Y-118823619D01*
X154831142Y-118872000D01*
X154927904Y-118968761D01*
X154976285Y-119065523D01*
X155024666Y-119259047D01*
X155024666Y-119404190D01*
X154976285Y-119597714D01*
X154927904Y-119694476D01*
X154831142Y-119791238D01*
X154686000Y-119839619D01*
X154444095Y-119839619D01*
D11*
X142875000Y-99635854D02*
X143020142Y-99635854D01*
X143092714Y-99672140D01*
X143165285Y-99744711D01*
X143201571Y-99889854D01*
X143201571Y-100143854D01*
X143165285Y-100288997D01*
X143092714Y-100361568D01*
X143020142Y-100397854D01*
X142875000Y-100397854D01*
X142802428Y-100361568D01*
X142729857Y-100288997D01*
X142693571Y-100143854D01*
X142693571Y-99889854D01*
X142729857Y-99744711D01*
X142802428Y-99672140D01*
X142875000Y-99635854D01*
X143782142Y-99998711D02*
X143528142Y-99998711D01*
X143528142Y-100397854D02*
X143528142Y-99635854D01*
X143891000Y-99635854D01*
X144181285Y-100397854D02*
X144181285Y-99635854D01*
X144435285Y-100180140D01*
X144689285Y-99635854D01*
X144689285Y-100397854D01*
X145052142Y-100397854D02*
X145052142Y-99635854D01*
X146431000Y-100397854D02*
X146177000Y-100034997D01*
X145995571Y-100397854D02*
X145995571Y-99635854D01*
X146285857Y-99635854D01*
X146358428Y-99672140D01*
X146394714Y-99708425D01*
X146431000Y-99780997D01*
X146431000Y-99889854D01*
X146394714Y-99962425D01*
X146358428Y-99998711D01*
X146285857Y-100034997D01*
X145995571Y-100034997D01*
X147047857Y-100361568D02*
X146975285Y-100397854D01*
X146830142Y-100397854D01*
X146757571Y-100361568D01*
X146721285Y-100288997D01*
X146721285Y-99998711D01*
X146757571Y-99926140D01*
X146830142Y-99889854D01*
X146975285Y-99889854D01*
X147047857Y-99926140D01*
X147084142Y-99998711D01*
X147084142Y-100071282D01*
X146721285Y-100143854D01*
X147338142Y-99889854D02*
X147519571Y-100397854D01*
X147701000Y-99889854D01*
X147991285Y-100325282D02*
X148027571Y-100361568D01*
X147991285Y-100397854D01*
X147955000Y-100361568D01*
X147991285Y-100325282D01*
X147991285Y-100397854D01*
X149261285Y-99889854D02*
X149261285Y-100397854D01*
X149079857Y-99599568D02*
X148898428Y-100143854D01*
X149370142Y-100143854D01*
X149660428Y-100325282D02*
X149696714Y-100361568D01*
X149660428Y-100397854D01*
X149624142Y-100361568D01*
X149660428Y-100325282D01*
X149660428Y-100397854D01*
X149987000Y-99708425D02*
X150023285Y-99672140D01*
X150095857Y-99635854D01*
X150277285Y-99635854D01*
X150349857Y-99672140D01*
X150386142Y-99708425D01*
X150422428Y-99780997D01*
X150422428Y-99853568D01*
X150386142Y-99962425D01*
X149950714Y-100397854D01*
X150422428Y-100397854D01*
X140933714Y-101690714D02*
X140933714Y-100928714D01*
X141224000Y-100928714D01*
X141296571Y-100965000D01*
X141332857Y-101001285D01*
X141369142Y-101073857D01*
X141369142Y-101182714D01*
X141332857Y-101255285D01*
X141296571Y-101291571D01*
X141224000Y-101327857D01*
X140933714Y-101327857D01*
X141804571Y-101690714D02*
X141732000Y-101654428D01*
X141695714Y-101618142D01*
X141659428Y-101545571D01*
X141659428Y-101327857D01*
X141695714Y-101255285D01*
X141732000Y-101219000D01*
X141804571Y-101182714D01*
X141913428Y-101182714D01*
X141986000Y-101219000D01*
X142022285Y-101255285D01*
X142058571Y-101327857D01*
X142058571Y-101545571D01*
X142022285Y-101618142D01*
X141986000Y-101654428D01*
X141913428Y-101690714D01*
X141804571Y-101690714D01*
X142312571Y-101182714D02*
X142457714Y-101690714D01*
X142602857Y-101327857D01*
X142748000Y-101690714D01*
X142893142Y-101182714D01*
X143473714Y-101654428D02*
X143401142Y-101690714D01*
X143256000Y-101690714D01*
X143183428Y-101654428D01*
X143147142Y-101581857D01*
X143147142Y-101291571D01*
X143183428Y-101219000D01*
X143256000Y-101182714D01*
X143401142Y-101182714D01*
X143473714Y-101219000D01*
X143510000Y-101291571D01*
X143510000Y-101364142D01*
X143147142Y-101436714D01*
X143836571Y-101690714D02*
X143836571Y-101182714D01*
X143836571Y-101327857D02*
X143872857Y-101255285D01*
X143909142Y-101219000D01*
X143981714Y-101182714D01*
X144054285Y-101182714D01*
X144852571Y-101654428D02*
X144961428Y-101690714D01*
X145142857Y-101690714D01*
X145215428Y-101654428D01*
X145251714Y-101618142D01*
X145288000Y-101545571D01*
X145288000Y-101473000D01*
X145251714Y-101400428D01*
X145215428Y-101364142D01*
X145142857Y-101327857D01*
X144997714Y-101291571D01*
X144925142Y-101255285D01*
X144888857Y-101219000D01*
X144852571Y-101146428D01*
X144852571Y-101073857D01*
X144888857Y-101001285D01*
X144925142Y-100965000D01*
X144997714Y-100928714D01*
X145179142Y-100928714D01*
X145288000Y-100965000D01*
X145941142Y-101182714D02*
X145941142Y-101690714D01*
X145614571Y-101182714D02*
X145614571Y-101581857D01*
X145650857Y-101654428D01*
X145723428Y-101690714D01*
X145832285Y-101690714D01*
X145904857Y-101654428D01*
X145941142Y-101618142D01*
X146304000Y-101182714D02*
X146304000Y-101944714D01*
X146304000Y-101219000D02*
X146376571Y-101182714D01*
X146521714Y-101182714D01*
X146594285Y-101219000D01*
X146630571Y-101255285D01*
X146666857Y-101327857D01*
X146666857Y-101545571D01*
X146630571Y-101618142D01*
X146594285Y-101654428D01*
X146521714Y-101690714D01*
X146376571Y-101690714D01*
X146304000Y-101654428D01*
X146993428Y-101182714D02*
X146993428Y-101944714D01*
X146993428Y-101219000D02*
X147066000Y-101182714D01*
X147211142Y-101182714D01*
X147283714Y-101219000D01*
X147320000Y-101255285D01*
X147356285Y-101327857D01*
X147356285Y-101545571D01*
X147320000Y-101618142D01*
X147283714Y-101654428D01*
X147211142Y-101690714D01*
X147066000Y-101690714D01*
X146993428Y-101654428D01*
X147791714Y-101690714D02*
X147719142Y-101654428D01*
X147682857Y-101581857D01*
X147682857Y-100928714D01*
X148009428Y-101182714D02*
X148190857Y-101690714D01*
X148372285Y-101182714D02*
X148190857Y-101690714D01*
X148118285Y-101872142D01*
X148082000Y-101908428D01*
X148009428Y-101944714D01*
X149497142Y-101291571D02*
X149606000Y-101327857D01*
X149642285Y-101364142D01*
X149678571Y-101436714D01*
X149678571Y-101545571D01*
X149642285Y-101618142D01*
X149606000Y-101654428D01*
X149533428Y-101690714D01*
X149243142Y-101690714D01*
X149243142Y-100928714D01*
X149497142Y-100928714D01*
X149569714Y-100965000D01*
X149606000Y-101001285D01*
X149642285Y-101073857D01*
X149642285Y-101146428D01*
X149606000Y-101219000D01*
X149569714Y-101255285D01*
X149497142Y-101291571D01*
X149243142Y-101291571D01*
X150114000Y-101690714D02*
X150041428Y-101654428D01*
X150005142Y-101618142D01*
X149968857Y-101545571D01*
X149968857Y-101327857D01*
X150005142Y-101255285D01*
X150041428Y-101219000D01*
X150114000Y-101182714D01*
X150222857Y-101182714D01*
X150295428Y-101219000D01*
X150331714Y-101255285D01*
X150368000Y-101327857D01*
X150368000Y-101545571D01*
X150331714Y-101618142D01*
X150295428Y-101654428D01*
X150222857Y-101690714D01*
X150114000Y-101690714D01*
X151021142Y-101690714D02*
X151021142Y-101291571D01*
X150984857Y-101219000D01*
X150912285Y-101182714D01*
X150767142Y-101182714D01*
X150694571Y-101219000D01*
X151021142Y-101654428D02*
X150948571Y-101690714D01*
X150767142Y-101690714D01*
X150694571Y-101654428D01*
X150658285Y-101581857D01*
X150658285Y-101509285D01*
X150694571Y-101436714D01*
X150767142Y-101400428D01*
X150948571Y-101400428D01*
X151021142Y-101364142D01*
X151383999Y-101690714D02*
X151383999Y-101182714D01*
X151383999Y-101327857D02*
X151420285Y-101255285D01*
X151456571Y-101219000D01*
X151529142Y-101182714D01*
X151601714Y-101182714D01*
X152182285Y-101690714D02*
X152182285Y-100928714D01*
X152182285Y-101654428D02*
X152109714Y-101690714D01*
X151964571Y-101690714D01*
X151891999Y-101654428D01*
X151855714Y-101618142D01*
X151819428Y-101545571D01*
X151819428Y-101327857D01*
X151855714Y-101255285D01*
X151891999Y-101219000D01*
X151964571Y-101182714D01*
X152109714Y-101182714D01*
X152182285Y-101219000D01*
X142802428Y-102584431D02*
X142548428Y-102584431D01*
X142548428Y-102983574D02*
X142548428Y-102221574D01*
X142911285Y-102221574D01*
X143491857Y-102947288D02*
X143419285Y-102983574D01*
X143274142Y-102983574D01*
X143201571Y-102947288D01*
X143165285Y-102874717D01*
X143165285Y-102584431D01*
X143201571Y-102511860D01*
X143274142Y-102475574D01*
X143419285Y-102475574D01*
X143491857Y-102511860D01*
X143528142Y-102584431D01*
X143528142Y-102657002D01*
X143165285Y-102729574D01*
X143854714Y-102983574D02*
X143854714Y-102221574D01*
X143854714Y-102511860D02*
X143927285Y-102475574D01*
X144072428Y-102475574D01*
X144145000Y-102511860D01*
X144181285Y-102548145D01*
X144217571Y-102620717D01*
X144217571Y-102838431D01*
X144181285Y-102911002D01*
X144145000Y-102947288D01*
X144072428Y-102983574D01*
X143927285Y-102983574D01*
X143854714Y-102947288D01*
X144544142Y-102983574D02*
X144544142Y-102475574D01*
X144544142Y-102620717D02*
X144580428Y-102548145D01*
X144616714Y-102511860D01*
X144689285Y-102475574D01*
X144761857Y-102475574D01*
X145342428Y-102475574D02*
X145342428Y-102983574D01*
X145015857Y-102475574D02*
X145015857Y-102874717D01*
X145052142Y-102947288D01*
X145124714Y-102983574D01*
X145233571Y-102983574D01*
X145306142Y-102947288D01*
X145342428Y-102911002D01*
X146031857Y-102983574D02*
X146031857Y-102584431D01*
X145995571Y-102511860D01*
X145923000Y-102475574D01*
X145777857Y-102475574D01*
X145705285Y-102511860D01*
X146031857Y-102947288D02*
X145959285Y-102983574D01*
X145777857Y-102983574D01*
X145705285Y-102947288D01*
X145669000Y-102874717D01*
X145669000Y-102802145D01*
X145705285Y-102729574D01*
X145777857Y-102693288D01*
X145959285Y-102693288D01*
X146031857Y-102657002D01*
X146394714Y-102983574D02*
X146394714Y-102475574D01*
X146394714Y-102620717D02*
X146431000Y-102548145D01*
X146467285Y-102511860D01*
X146539857Y-102475574D01*
X146612428Y-102475574D01*
X146793857Y-102475574D02*
X146975285Y-102983574D01*
X147156714Y-102475574D02*
X146975285Y-102983574D01*
X146902714Y-103165002D01*
X146866428Y-103201288D01*
X146793857Y-103237574D01*
X147991285Y-102294145D02*
X148027571Y-102257860D01*
X148100142Y-102221574D01*
X148281571Y-102221574D01*
X148354142Y-102257860D01*
X148390428Y-102294145D01*
X148426714Y-102366717D01*
X148426714Y-102439288D01*
X148390428Y-102548145D01*
X147955000Y-102983574D01*
X148426714Y-102983574D01*
X148898428Y-102221574D02*
X148971000Y-102221574D01*
X149043571Y-102257860D01*
X149079857Y-102294145D01*
X149116142Y-102366717D01*
X149152428Y-102511860D01*
X149152428Y-102693288D01*
X149116142Y-102838431D01*
X149079857Y-102911002D01*
X149043571Y-102947288D01*
X148971000Y-102983574D01*
X148898428Y-102983574D01*
X148825857Y-102947288D01*
X148789571Y-102911002D01*
X148753285Y-102838431D01*
X148717000Y-102693288D01*
X148717000Y-102511860D01*
X148753285Y-102366717D01*
X148789571Y-102294145D01*
X148825857Y-102257860D01*
X148898428Y-102221574D01*
X149442714Y-102294145D02*
X149479000Y-102257860D01*
X149551571Y-102221574D01*
X149733000Y-102221574D01*
X149805571Y-102257860D01*
X149841857Y-102294145D01*
X149878142Y-102366717D01*
X149878142Y-102439288D01*
X149841857Y-102548145D01*
X149406428Y-102983574D01*
X149878142Y-102983574D01*
X150168428Y-102294145D02*
X150204714Y-102257860D01*
X150277285Y-102221574D01*
X150458714Y-102221574D01*
X150531285Y-102257860D01*
X150567571Y-102294145D01*
X150603857Y-102366717D01*
X150603857Y-102439288D01*
X150567571Y-102548145D01*
X150132142Y-102983574D01*
X150603857Y-102983574D01*
D12*
X132334000Y-129540000D02*
X131064000Y-129540000D01*
X132334000Y-128270000D02*
X132334000Y-129540000D01*
X130021071Y-102490000D02*
X129566929Y-102490000D01*
X130021071Y-103250000D02*
X129566929Y-103250000D01*
X127481071Y-102490000D02*
X127084000Y-102490000D01*
X127481071Y-103250000D02*
X127084000Y-103250000D01*
X118424000Y-102490000D02*
X124424000Y-102490000D01*
X118424000Y-103250000D02*
X118424000Y-102490000D01*
X124424000Y-103250000D02*
X118424000Y-103250000D01*
X127084000Y-104140000D02*
X124424000Y-104140000D01*
X130021071Y-105030000D02*
X129566929Y-105030000D01*
X130021071Y-105790000D02*
X129566929Y-105790000D01*
X127481071Y-105030000D02*
X127084000Y-105030000D01*
X127481071Y-105790000D02*
X127084000Y-105790000D01*
X118424000Y-105030000D02*
X124424000Y-105030000D01*
X118424000Y-105790000D02*
X118424000Y-105030000D01*
X124424000Y-105790000D02*
X118424000Y-105790000D01*
X127084000Y-106680000D02*
X124424000Y-106680000D01*
X130021071Y-107570000D02*
X129566929Y-107570000D01*
X130021071Y-108330000D02*
X129566929Y-108330000D01*
X127481071Y-107570000D02*
X127084000Y-107570000D01*
X127481071Y-108330000D02*
X127084000Y-108330000D01*
X118424000Y-107570000D02*
X124424000Y-107570000D01*
X118424000Y-108330000D02*
X118424000Y-107570000D01*
X124424000Y-108330000D02*
X118424000Y-108330000D01*
X127084000Y-109220000D02*
X124424000Y-109220000D01*
X130021071Y-110110000D02*
X129566929Y-110110000D01*
X130021071Y-110870000D02*
X129566929Y-110870000D01*
X127481071Y-110110000D02*
X127084000Y-110110000D01*
X127481071Y-110870000D02*
X127084000Y-110870000D01*
X118424000Y-110110000D02*
X124424000Y-110110000D01*
X118424000Y-110870000D02*
X118424000Y-110110000D01*
X124424000Y-110870000D02*
X118424000Y-110870000D01*
X127084000Y-111760000D02*
X124424000Y-111760000D01*
X130021071Y-112650000D02*
X129566929Y-112650000D01*
X130021071Y-113410000D02*
X129566929Y-113410000D01*
X127481071Y-112650000D02*
X127084000Y-112650000D01*
X127481071Y-113410000D02*
X127084000Y-113410000D01*
X118424000Y-112650000D02*
X124424000Y-112650000D01*
X118424000Y-113410000D02*
X118424000Y-112650000D01*
X124424000Y-113410000D02*
X118424000Y-113410000D01*
X127084000Y-114300000D02*
X124424000Y-114300000D01*
X130021071Y-115190000D02*
X129566929Y-115190000D01*
X130021071Y-115950000D02*
X129566929Y-115950000D01*
X127481071Y-115190000D02*
X127084000Y-115190000D01*
X127481071Y-115950000D02*
X127084000Y-115950000D01*
X118424000Y-115190000D02*
X124424000Y-115190000D01*
X118424000Y-115950000D02*
X118424000Y-115190000D01*
X124424000Y-115950000D02*
X118424000Y-115950000D01*
X127084000Y-116840000D02*
X124424000Y-116840000D01*
X130021071Y-117730000D02*
X129566929Y-117730000D01*
X130021071Y-118490000D02*
X129566929Y-118490000D01*
X127481071Y-117730000D02*
X127084000Y-117730000D01*
X127481071Y-118490000D02*
X127084000Y-118490000D01*
X118424000Y-117730000D02*
X124424000Y-117730000D01*
X118424000Y-118490000D02*
X118424000Y-117730000D01*
X124424000Y-118490000D02*
X118424000Y-118490000D01*
X127084000Y-119380000D02*
X124424000Y-119380000D01*
X130021071Y-120270000D02*
X129566929Y-120270000D01*
X130021071Y-121030000D02*
X129566929Y-121030000D01*
X127481071Y-120270000D02*
X127084000Y-120270000D01*
X127481071Y-121030000D02*
X127084000Y-121030000D01*
X118424000Y-120270000D02*
X124424000Y-120270000D01*
X118424000Y-121030000D02*
X118424000Y-120270000D01*
X124424000Y-121030000D02*
X118424000Y-121030000D01*
X127084000Y-121920000D02*
X124424000Y-121920000D01*
X130021071Y-122810000D02*
X129566929Y-122810000D01*
X130021071Y-123570000D02*
X129566929Y-123570000D01*
X127481071Y-122810000D02*
X127084000Y-122810000D01*
X127481071Y-123570000D02*
X127084000Y-123570000D01*
X118424000Y-122810000D02*
X124424000Y-122810000D01*
X118424000Y-123570000D02*
X118424000Y-122810000D01*
X124424000Y-123570000D02*
X118424000Y-123570000D01*
X127084000Y-124460000D02*
X124424000Y-124460000D01*
X130021071Y-125350000D02*
X129566929Y-125350000D01*
X130021071Y-126110000D02*
X129566929Y-126110000D01*
X127481071Y-125350000D02*
X127084000Y-125350000D01*
X127481071Y-126110000D02*
X127084000Y-126110000D01*
X118424000Y-125350000D02*
X124424000Y-125350000D01*
X118424000Y-126110000D02*
X118424000Y-125350000D01*
X124424000Y-126110000D02*
X118424000Y-126110000D01*
X127084000Y-127000000D02*
X124424000Y-127000000D01*
X129954000Y-127890000D02*
X129566929Y-127890000D01*
X129954000Y-128650000D02*
X129566929Y-128650000D01*
X127481071Y-127890000D02*
X127084000Y-127890000D01*
X127481071Y-128650000D02*
X127084000Y-128650000D01*
X124424000Y-127990000D02*
X118424000Y-127990000D01*
X124424000Y-128110000D02*
X118424000Y-128110000D01*
X124424000Y-128230000D02*
X118424000Y-128230000D01*
X124424000Y-128350000D02*
X118424000Y-128350000D01*
X124424000Y-128470000D02*
X118424000Y-128470000D01*
X124424000Y-128590000D02*
X118424000Y-128590000D01*
X118424000Y-127890000D02*
X124424000Y-127890000D01*
X118424000Y-128650000D02*
X118424000Y-127890000D01*
X124424000Y-128650000D02*
X118424000Y-128650000D01*
X124424000Y-129600000D02*
X127084000Y-129600000D01*
X124424000Y-101540000D02*
X124424000Y-129600000D01*
X127084000Y-101540000D02*
X124424000Y-101540000D01*
X127084000Y-129600000D02*
X127084000Y-101540000D01*
D13*
X151285000Y-108970000D02*
X151285000Y-122170000D01*
X151285000Y-122170000D02*
X142085000Y-122170000D01*
X142085000Y-122170000D02*
X142085000Y-108970000D01*
X142085000Y-108970000D02*
X151285000Y-108970000D01*
X126920666Y-130516380D02*
X126920666Y-131230666D01*
X126873047Y-131373523D01*
X126777809Y-131468761D01*
X126634952Y-131516380D01*
X126539714Y-131516380D01*
X127920666Y-131516380D02*
X127349238Y-131516380D01*
X127634952Y-131516380D02*
X127634952Y-130516380D01*
X127539714Y-130659238D01*
X127444476Y-130754476D01*
X127349238Y-130802095D01*
X140295380Y-122046904D02*
X141104904Y-122046904D01*
X141200142Y-121999285D01*
X141247761Y-121951666D01*
X141295380Y-121856428D01*
X141295380Y-121665952D01*
X141247761Y-121570714D01*
X141200142Y-121523095D01*
X141104904Y-121475476D01*
X140295380Y-121475476D01*
X141295380Y-120475476D02*
X141295380Y-121046904D01*
X141295380Y-120761190D02*
X140295380Y-120761190D01*
X140438238Y-120856428D01*
X140533476Y-120951666D01*
X140581095Y-121046904D01*
M02*
