M48
; DRILL file {KiCad (5.1.12)-1} date 02/08/22 13:08:20
; FORMAT={-:-/ absolute / inch / decimal}
; #@! TF.CreationDate,2022-02-08T13:08:20-06:00
; #@! TF.GenerationSoftware,Kicad,Pcbnew,(5.1.12)-1
; #@! TF.FileFunction,Plated,1,2,PTH
FMAT,2
INCH
T1C0.0394
T2C0.0406
T3C0.0680
%
G90
G05
T1
X5.06Y-4.05
X5.06Y-4.15
X5.06Y-4.25
X5.06Y-4.35
X5.06Y-4.45
X5.06Y-4.55
X5.06Y-4.65
X5.06Y-4.75
X5.06Y-4.85
X5.06Y-4.95
X5.06Y-5.05
X5.16Y-4.05
X5.16Y-4.15
X5.16Y-4.25
X5.16Y-4.35
X5.16Y-4.45
X5.16Y-4.55
X5.16Y-4.65
X5.16Y-4.75
X5.16Y-4.85
X5.16Y-4.95
X5.16Y-5.05
T2
X5.6569Y-4.4502
X5.6569Y-4.6498
X5.7356Y-4.4502
X5.7356Y-4.6498
X5.8144Y-4.6498
X5.8931Y-4.4502
T3
X6.211Y-4.45
X6.211Y-4.65
T0
M30
