G04 #@! TF.GenerationSoftware,KiCad,Pcbnew,(5.1.2)-1*
G04 #@! TF.CreationDate,2019-11-05T15:10:58-06:00*
G04 #@! TF.ProjectId,power_supply_board,706f7765-725f-4737-9570-706c795f626f,rev?*
G04 #@! TF.SameCoordinates,Original*
G04 #@! TF.FileFunction,Copper,L1,Top*
G04 #@! TF.FilePolarity,Positive*
%FSLAX46Y46*%
G04 Gerber Fmt 4.6, Leading zero omitted, Abs format (unit mm)*
G04 Created by KiCad (PCBNEW (5.1.2)-1) date 2019-11-05 15:10:58*
%MOMM*%
%LPD*%
G04 APERTURE LIST*
%ADD10O,1.700000X1.700000*%
%ADD11R,1.700000X1.700000*%
%ADD12C,2.500000*%
%ADD13C,1.730000*%
%ADD14C,1.270000*%
%ADD15C,0.254000*%
G04 APERTURE END LIST*
D10*
X128270000Y-102870000D03*
X130810000Y-102870000D03*
X128270000Y-105410000D03*
X130810000Y-105410000D03*
X128270000Y-107950000D03*
X130810000Y-107950000D03*
X128270000Y-110490000D03*
X130810000Y-110490000D03*
X128270000Y-113030000D03*
X130810000Y-113030000D03*
X128270000Y-115570000D03*
X130810000Y-115570000D03*
X128270000Y-118110000D03*
X130810000Y-118110000D03*
X128270000Y-120650000D03*
X130810000Y-120650000D03*
X128270000Y-123190000D03*
X130810000Y-123190000D03*
X128270000Y-125730000D03*
X130810000Y-125730000D03*
X128270000Y-128270000D03*
D11*
X130810000Y-128270000D03*
D12*
X175920000Y-115570000D03*
X181420000Y-115570000D03*
D13*
X151760000Y-121460000D03*
X151760000Y-123460000D03*
X151760000Y-127460000D03*
X146690000Y-125460000D03*
X146690000Y-121460000D03*
X146690000Y-123460000D03*
X146690000Y-105045000D03*
X146690000Y-103045000D03*
X146690000Y-107045000D03*
X151760000Y-109045000D03*
X151760000Y-105045000D03*
X151760000Y-103045000D03*
D14*
X152983294Y-103045000D02*
X151760000Y-103045000D01*
X170662766Y-103045000D02*
X152983294Y-103045000D01*
X181420000Y-113802234D02*
X170662766Y-103045000D01*
X181420000Y-115570000D02*
X181420000Y-113802234D01*
X175530000Y-121460000D02*
X151760000Y-121460000D01*
X181420000Y-115570000D02*
X175530000Y-121460000D01*
D15*
G36*
X187554000Y-131674000D02*
G01*
X124866000Y-131674000D01*
X124866000Y-128270000D01*
X127033044Y-128270000D01*
X127056812Y-128511318D01*
X127127202Y-128743363D01*
X127241509Y-128957216D01*
X127395340Y-129144660D01*
X127582784Y-129298491D01*
X127796637Y-129412798D01*
X128028682Y-129483188D01*
X128209528Y-129501000D01*
X128330472Y-129501000D01*
X128511318Y-129483188D01*
X128743363Y-129412798D01*
X128957216Y-129298491D01*
X129144660Y-129144660D01*
X129164897Y-129120000D01*
X129577157Y-129120000D01*
X129584513Y-129194689D01*
X129606299Y-129266508D01*
X129641678Y-129332696D01*
X129689289Y-129390711D01*
X129747304Y-129438322D01*
X129813492Y-129473701D01*
X129885311Y-129495487D01*
X129960000Y-129502843D01*
X130702050Y-129501000D01*
X130797300Y-129405750D01*
X130797300Y-128282700D01*
X130822700Y-128282700D01*
X130822700Y-129405750D01*
X130917950Y-129501000D01*
X131660000Y-129502843D01*
X131734689Y-129495487D01*
X131806508Y-129473701D01*
X131872696Y-129438322D01*
X131930711Y-129390711D01*
X131978322Y-129332696D01*
X132013701Y-129266508D01*
X132035487Y-129194689D01*
X132042843Y-129120000D01*
X132041000Y-128377950D01*
X131945750Y-128282700D01*
X130822700Y-128282700D01*
X130797300Y-128282700D01*
X129674250Y-128282700D01*
X129579000Y-128377950D01*
X129577157Y-129120000D01*
X129164897Y-129120000D01*
X129298491Y-128957216D01*
X129412798Y-128743363D01*
X129483188Y-128511318D01*
X129506956Y-128270000D01*
X129483188Y-128028682D01*
X129412798Y-127796637D01*
X129298491Y-127582784D01*
X129164898Y-127420000D01*
X129577157Y-127420000D01*
X129579000Y-128162050D01*
X129674250Y-128257300D01*
X130797300Y-128257300D01*
X130797300Y-127134250D01*
X130822700Y-127134250D01*
X130822700Y-128257300D01*
X131945750Y-128257300D01*
X132041000Y-128162050D01*
X132041216Y-128074889D01*
X135179000Y-128074889D01*
X135179000Y-128465111D01*
X135255129Y-128847836D01*
X135404461Y-129208355D01*
X135621257Y-129532814D01*
X135897186Y-129808743D01*
X136221645Y-130025539D01*
X136582164Y-130174871D01*
X136964889Y-130251000D01*
X137355111Y-130251000D01*
X137737836Y-130174871D01*
X138098355Y-130025539D01*
X138422814Y-129808743D01*
X138698743Y-129532814D01*
X138915539Y-129208355D01*
X139064871Y-128847836D01*
X139141000Y-128465111D01*
X139141000Y-128074889D01*
X139064871Y-127692164D01*
X138917874Y-127337280D01*
X150514000Y-127337280D01*
X150514000Y-127582720D01*
X150561883Y-127823445D01*
X150655809Y-128050202D01*
X150792168Y-128254279D01*
X150965721Y-128427832D01*
X151169798Y-128564191D01*
X151396555Y-128658117D01*
X151637280Y-128706000D01*
X151882720Y-128706000D01*
X152123445Y-128658117D01*
X152350202Y-128564191D01*
X152554279Y-128427832D01*
X152727832Y-128254279D01*
X152847695Y-128074889D01*
X179629000Y-128074889D01*
X179629000Y-128465111D01*
X179705129Y-128847836D01*
X179854461Y-129208355D01*
X180071257Y-129532814D01*
X180347186Y-129808743D01*
X180671645Y-130025539D01*
X181032164Y-130174871D01*
X181414889Y-130251000D01*
X181805111Y-130251000D01*
X182187836Y-130174871D01*
X182548355Y-130025539D01*
X182872814Y-129808743D01*
X183148743Y-129532814D01*
X183365539Y-129208355D01*
X183514871Y-128847836D01*
X183591000Y-128465111D01*
X183591000Y-128074889D01*
X183514871Y-127692164D01*
X183365539Y-127331645D01*
X183148743Y-127007186D01*
X182872814Y-126731257D01*
X182548355Y-126514461D01*
X182187836Y-126365129D01*
X181805111Y-126289000D01*
X181414889Y-126289000D01*
X181032164Y-126365129D01*
X180671645Y-126514461D01*
X180347186Y-126731257D01*
X180071257Y-127007186D01*
X179854461Y-127331645D01*
X179705129Y-127692164D01*
X179629000Y-128074889D01*
X152847695Y-128074889D01*
X152864191Y-128050202D01*
X152958117Y-127823445D01*
X153006000Y-127582720D01*
X153006000Y-127337280D01*
X152958117Y-127096555D01*
X152864191Y-126869798D01*
X152727832Y-126665721D01*
X152554279Y-126492168D01*
X152350202Y-126355809D01*
X152123445Y-126261883D01*
X151882720Y-126214000D01*
X151637280Y-126214000D01*
X151396555Y-126261883D01*
X151169798Y-126355809D01*
X150965721Y-126492168D01*
X150792168Y-126665721D01*
X150655809Y-126869798D01*
X150561883Y-127096555D01*
X150514000Y-127337280D01*
X138917874Y-127337280D01*
X138915539Y-127331645D01*
X138698743Y-127007186D01*
X138422814Y-126731257D01*
X138098355Y-126514461D01*
X137737836Y-126365129D01*
X137355111Y-126289000D01*
X136964889Y-126289000D01*
X136582164Y-126365129D01*
X136221645Y-126514461D01*
X135897186Y-126731257D01*
X135621257Y-127007186D01*
X135404461Y-127331645D01*
X135255129Y-127692164D01*
X135179000Y-128074889D01*
X132041216Y-128074889D01*
X132042843Y-127420000D01*
X132035487Y-127345311D01*
X132013701Y-127273492D01*
X131978322Y-127207304D01*
X131930711Y-127149289D01*
X131872696Y-127101678D01*
X131806508Y-127066299D01*
X131734689Y-127044513D01*
X131660000Y-127037157D01*
X130917950Y-127039000D01*
X130822700Y-127134250D01*
X130797300Y-127134250D01*
X130702050Y-127039000D01*
X129960000Y-127037157D01*
X129885311Y-127044513D01*
X129813492Y-127066299D01*
X129747304Y-127101678D01*
X129689289Y-127149289D01*
X129641678Y-127207304D01*
X129606299Y-127273492D01*
X129584513Y-127345311D01*
X129577157Y-127420000D01*
X129164898Y-127420000D01*
X129144660Y-127395340D01*
X128957216Y-127241509D01*
X128743363Y-127127202D01*
X128511318Y-127056812D01*
X128330472Y-127039000D01*
X128209528Y-127039000D01*
X128028682Y-127056812D01*
X127796637Y-127127202D01*
X127582784Y-127241509D01*
X127395340Y-127395340D01*
X127241509Y-127582784D01*
X127127202Y-127796637D01*
X127056812Y-128028682D01*
X127033044Y-128270000D01*
X124866000Y-128270000D01*
X124866000Y-125730000D01*
X127033044Y-125730000D01*
X127056812Y-125971318D01*
X127127202Y-126203363D01*
X127241509Y-126417216D01*
X127395340Y-126604660D01*
X127582784Y-126758491D01*
X127796637Y-126872798D01*
X128028682Y-126943188D01*
X128209528Y-126961000D01*
X128330472Y-126961000D01*
X128511318Y-126943188D01*
X128743363Y-126872798D01*
X128957216Y-126758491D01*
X129144660Y-126604660D01*
X129298491Y-126417216D01*
X129412798Y-126203363D01*
X129483188Y-125971318D01*
X129506956Y-125730000D01*
X129573044Y-125730000D01*
X129596812Y-125971318D01*
X129667202Y-126203363D01*
X129781509Y-126417216D01*
X129935340Y-126604660D01*
X130122784Y-126758491D01*
X130336637Y-126872798D01*
X130568682Y-126943188D01*
X130749528Y-126961000D01*
X130870472Y-126961000D01*
X131051318Y-126943188D01*
X131283363Y-126872798D01*
X131497216Y-126758491D01*
X131684660Y-126604660D01*
X131838491Y-126417216D01*
X131952798Y-126203363D01*
X132023188Y-125971318D01*
X132046956Y-125730000D01*
X132023188Y-125488682D01*
X131977261Y-125337280D01*
X145444000Y-125337280D01*
X145444000Y-125582720D01*
X145491883Y-125823445D01*
X145585809Y-126050202D01*
X145722168Y-126254279D01*
X145895721Y-126427832D01*
X146099798Y-126564191D01*
X146326555Y-126658117D01*
X146567280Y-126706000D01*
X146812720Y-126706000D01*
X147053445Y-126658117D01*
X147280202Y-126564191D01*
X147484279Y-126427832D01*
X147657832Y-126254279D01*
X147794191Y-126050202D01*
X147888117Y-125823445D01*
X147936000Y-125582720D01*
X147936000Y-125337280D01*
X147888117Y-125096555D01*
X147794191Y-124869798D01*
X147657832Y-124665721D01*
X147484279Y-124492168D01*
X147426998Y-124453894D01*
X147498937Y-124286897D01*
X150951063Y-124286897D01*
X151034388Y-124480326D01*
X151247385Y-124602281D01*
X151480083Y-124680338D01*
X151723537Y-124711498D01*
X151968393Y-124694565D01*
X152205240Y-124630187D01*
X152424978Y-124520840D01*
X152485612Y-124480326D01*
X152568937Y-124286897D01*
X151760000Y-123477961D01*
X150951063Y-124286897D01*
X147498937Y-124286897D01*
X146690000Y-123477961D01*
X145881063Y-124286897D01*
X145953002Y-124453894D01*
X145895721Y-124492168D01*
X145722168Y-124665721D01*
X145585809Y-124869798D01*
X145491883Y-125096555D01*
X145444000Y-125337280D01*
X131977261Y-125337280D01*
X131952798Y-125256637D01*
X131838491Y-125042784D01*
X131684660Y-124855340D01*
X131497216Y-124701509D01*
X131283363Y-124587202D01*
X131051318Y-124516812D01*
X130870472Y-124499000D01*
X130749528Y-124499000D01*
X130568682Y-124516812D01*
X130336637Y-124587202D01*
X130122784Y-124701509D01*
X129935340Y-124855340D01*
X129781509Y-125042784D01*
X129667202Y-125256637D01*
X129596812Y-125488682D01*
X129573044Y-125730000D01*
X129506956Y-125730000D01*
X129483188Y-125488682D01*
X129412798Y-125256637D01*
X129298491Y-125042784D01*
X129144660Y-124855340D01*
X128957216Y-124701509D01*
X128743363Y-124587202D01*
X128511318Y-124516812D01*
X128330472Y-124499000D01*
X128209528Y-124499000D01*
X128028682Y-124516812D01*
X127796637Y-124587202D01*
X127582784Y-124701509D01*
X127395340Y-124855340D01*
X127241509Y-125042784D01*
X127127202Y-125256637D01*
X127056812Y-125488682D01*
X127033044Y-125730000D01*
X124866000Y-125730000D01*
X124866000Y-123190000D01*
X127033044Y-123190000D01*
X127056812Y-123431318D01*
X127127202Y-123663363D01*
X127241509Y-123877216D01*
X127395340Y-124064660D01*
X127582784Y-124218491D01*
X127796637Y-124332798D01*
X128028682Y-124403188D01*
X128209528Y-124421000D01*
X128330472Y-124421000D01*
X128511318Y-124403188D01*
X128743363Y-124332798D01*
X128957216Y-124218491D01*
X129144660Y-124064660D01*
X129298491Y-123877216D01*
X129412798Y-123663363D01*
X129483188Y-123431318D01*
X129506956Y-123190000D01*
X129573044Y-123190000D01*
X129596812Y-123431318D01*
X129667202Y-123663363D01*
X129781509Y-123877216D01*
X129935340Y-124064660D01*
X130122784Y-124218491D01*
X130336637Y-124332798D01*
X130568682Y-124403188D01*
X130749528Y-124421000D01*
X130870472Y-124421000D01*
X131051318Y-124403188D01*
X131283363Y-124332798D01*
X131497216Y-124218491D01*
X131684660Y-124064660D01*
X131838491Y-123877216D01*
X131952798Y-123663363D01*
X132023188Y-123431318D01*
X132023954Y-123423537D01*
X145438502Y-123423537D01*
X145455435Y-123668393D01*
X145519813Y-123905240D01*
X145629160Y-124124978D01*
X145669674Y-124185612D01*
X145863103Y-124268937D01*
X146672039Y-123460000D01*
X146707961Y-123460000D01*
X147516897Y-124268937D01*
X147710326Y-124185612D01*
X147832281Y-123972615D01*
X147910338Y-123739917D01*
X147941498Y-123496463D01*
X147936455Y-123423537D01*
X150508502Y-123423537D01*
X150525435Y-123668393D01*
X150589813Y-123905240D01*
X150699160Y-124124978D01*
X150739674Y-124185612D01*
X150933103Y-124268937D01*
X151742039Y-123460000D01*
X151777961Y-123460000D01*
X152586897Y-124268937D01*
X152780326Y-124185612D01*
X152902281Y-123972615D01*
X152980338Y-123739917D01*
X153011498Y-123496463D01*
X152994565Y-123251607D01*
X152930187Y-123014760D01*
X152820840Y-122795022D01*
X152780326Y-122734388D01*
X152586897Y-122651063D01*
X151777961Y-123460000D01*
X151742039Y-123460000D01*
X150933103Y-122651063D01*
X150739674Y-122734388D01*
X150617719Y-122947385D01*
X150539662Y-123180083D01*
X150508502Y-123423537D01*
X147936455Y-123423537D01*
X147924565Y-123251607D01*
X147860187Y-123014760D01*
X147750840Y-122795022D01*
X147710326Y-122734388D01*
X147516897Y-122651063D01*
X146707961Y-123460000D01*
X146672039Y-123460000D01*
X145863103Y-122651063D01*
X145669674Y-122734388D01*
X145547719Y-122947385D01*
X145469662Y-123180083D01*
X145438502Y-123423537D01*
X132023954Y-123423537D01*
X132046956Y-123190000D01*
X132023188Y-122948682D01*
X131952798Y-122716637D01*
X131838491Y-122502784D01*
X131684660Y-122315340D01*
X131497216Y-122161509D01*
X131283363Y-122047202D01*
X131051318Y-121976812D01*
X130870472Y-121959000D01*
X130749528Y-121959000D01*
X130568682Y-121976812D01*
X130336637Y-122047202D01*
X130122784Y-122161509D01*
X129935340Y-122315340D01*
X129781509Y-122502784D01*
X129667202Y-122716637D01*
X129596812Y-122948682D01*
X129573044Y-123190000D01*
X129506956Y-123190000D01*
X129483188Y-122948682D01*
X129412798Y-122716637D01*
X129298491Y-122502784D01*
X129144660Y-122315340D01*
X128957216Y-122161509D01*
X128743363Y-122047202D01*
X128511318Y-121976812D01*
X128330472Y-121959000D01*
X128209528Y-121959000D01*
X128028682Y-121976812D01*
X127796637Y-122047202D01*
X127582784Y-122161509D01*
X127395340Y-122315340D01*
X127241509Y-122502784D01*
X127127202Y-122716637D01*
X127056812Y-122948682D01*
X127033044Y-123190000D01*
X124866000Y-123190000D01*
X124866000Y-120650000D01*
X127033044Y-120650000D01*
X127056812Y-120891318D01*
X127127202Y-121123363D01*
X127241509Y-121337216D01*
X127395340Y-121524660D01*
X127582784Y-121678491D01*
X127796637Y-121792798D01*
X128028682Y-121863188D01*
X128209528Y-121881000D01*
X128330472Y-121881000D01*
X128511318Y-121863188D01*
X128743363Y-121792798D01*
X128957216Y-121678491D01*
X129144660Y-121524660D01*
X129298491Y-121337216D01*
X129412798Y-121123363D01*
X129483188Y-120891318D01*
X129506956Y-120650000D01*
X129573044Y-120650000D01*
X129596812Y-120891318D01*
X129667202Y-121123363D01*
X129781509Y-121337216D01*
X129935340Y-121524660D01*
X130122784Y-121678491D01*
X130336637Y-121792798D01*
X130568682Y-121863188D01*
X130749528Y-121881000D01*
X130870472Y-121881000D01*
X131051318Y-121863188D01*
X131283363Y-121792798D01*
X131497216Y-121678491D01*
X131684660Y-121524660D01*
X131838438Y-121337280D01*
X145444000Y-121337280D01*
X145444000Y-121582720D01*
X145491883Y-121823445D01*
X145585809Y-122050202D01*
X145722168Y-122254279D01*
X145895721Y-122427832D01*
X145953002Y-122466106D01*
X145881063Y-122633103D01*
X146690000Y-123442039D01*
X147498937Y-122633103D01*
X147426998Y-122466106D01*
X147484279Y-122427832D01*
X147657832Y-122254279D01*
X147794191Y-122050202D01*
X147888117Y-121823445D01*
X147936000Y-121582720D01*
X147936000Y-121337280D01*
X147888117Y-121096555D01*
X147794191Y-120869798D01*
X147657832Y-120665721D01*
X147484279Y-120492168D01*
X147280202Y-120355809D01*
X147053445Y-120261883D01*
X146812720Y-120214000D01*
X146567280Y-120214000D01*
X146326555Y-120261883D01*
X146099798Y-120355809D01*
X145895721Y-120492168D01*
X145722168Y-120665721D01*
X145585809Y-120869798D01*
X145491883Y-121096555D01*
X145444000Y-121337280D01*
X131838438Y-121337280D01*
X131838491Y-121337216D01*
X131952798Y-121123363D01*
X132023188Y-120891318D01*
X132046956Y-120650000D01*
X132023188Y-120408682D01*
X131952798Y-120176637D01*
X131838491Y-119962784D01*
X131684660Y-119775340D01*
X131497216Y-119621509D01*
X131283363Y-119507202D01*
X131051318Y-119436812D01*
X130870472Y-119419000D01*
X130749528Y-119419000D01*
X130568682Y-119436812D01*
X130336637Y-119507202D01*
X130122784Y-119621509D01*
X129935340Y-119775340D01*
X129781509Y-119962784D01*
X129667202Y-120176637D01*
X129596812Y-120408682D01*
X129573044Y-120650000D01*
X129506956Y-120650000D01*
X129483188Y-120408682D01*
X129412798Y-120176637D01*
X129298491Y-119962784D01*
X129144660Y-119775340D01*
X128957216Y-119621509D01*
X128743363Y-119507202D01*
X128511318Y-119436812D01*
X128330472Y-119419000D01*
X128209528Y-119419000D01*
X128028682Y-119436812D01*
X127796637Y-119507202D01*
X127582784Y-119621509D01*
X127395340Y-119775340D01*
X127241509Y-119962784D01*
X127127202Y-120176637D01*
X127056812Y-120408682D01*
X127033044Y-120650000D01*
X124866000Y-120650000D01*
X124866000Y-118110000D01*
X127033044Y-118110000D01*
X127056812Y-118351318D01*
X127127202Y-118583363D01*
X127241509Y-118797216D01*
X127395340Y-118984660D01*
X127582784Y-119138491D01*
X127796637Y-119252798D01*
X128028682Y-119323188D01*
X128209528Y-119341000D01*
X128330472Y-119341000D01*
X128511318Y-119323188D01*
X128743363Y-119252798D01*
X128957216Y-119138491D01*
X129144660Y-118984660D01*
X129298491Y-118797216D01*
X129412798Y-118583363D01*
X129483188Y-118351318D01*
X129506956Y-118110000D01*
X129573044Y-118110000D01*
X129596812Y-118351318D01*
X129667202Y-118583363D01*
X129781509Y-118797216D01*
X129935340Y-118984660D01*
X130122784Y-119138491D01*
X130336637Y-119252798D01*
X130568682Y-119323188D01*
X130749528Y-119341000D01*
X130870472Y-119341000D01*
X131051318Y-119323188D01*
X131283363Y-119252798D01*
X131497216Y-119138491D01*
X131684660Y-118984660D01*
X131838491Y-118797216D01*
X131952798Y-118583363D01*
X132023188Y-118351318D01*
X132046956Y-118110000D01*
X132023188Y-117868682D01*
X131952798Y-117636637D01*
X131838491Y-117422784D01*
X131684660Y-117235340D01*
X131497216Y-117081509D01*
X131283363Y-116967202D01*
X131051318Y-116896812D01*
X130870472Y-116879000D01*
X130749528Y-116879000D01*
X130568682Y-116896812D01*
X130336637Y-116967202D01*
X130122784Y-117081509D01*
X129935340Y-117235340D01*
X129781509Y-117422784D01*
X129667202Y-117636637D01*
X129596812Y-117868682D01*
X129573044Y-118110000D01*
X129506956Y-118110000D01*
X129483188Y-117868682D01*
X129412798Y-117636637D01*
X129298491Y-117422784D01*
X129144660Y-117235340D01*
X128957216Y-117081509D01*
X128743363Y-116967202D01*
X128511318Y-116896812D01*
X128330472Y-116879000D01*
X128209528Y-116879000D01*
X128028682Y-116896812D01*
X127796637Y-116967202D01*
X127582784Y-117081509D01*
X127395340Y-117235340D01*
X127241509Y-117422784D01*
X127127202Y-117636637D01*
X127056812Y-117868682D01*
X127033044Y-118110000D01*
X124866000Y-118110000D01*
X124866000Y-115570000D01*
X127033044Y-115570000D01*
X127056812Y-115811318D01*
X127127202Y-116043363D01*
X127241509Y-116257216D01*
X127395340Y-116444660D01*
X127582784Y-116598491D01*
X127796637Y-116712798D01*
X128028682Y-116783188D01*
X128209528Y-116801000D01*
X128330472Y-116801000D01*
X128511318Y-116783188D01*
X128743363Y-116712798D01*
X128957216Y-116598491D01*
X129144660Y-116444660D01*
X129298491Y-116257216D01*
X129412798Y-116043363D01*
X129483188Y-115811318D01*
X129506956Y-115570000D01*
X129573044Y-115570000D01*
X129596812Y-115811318D01*
X129667202Y-116043363D01*
X129781509Y-116257216D01*
X129935340Y-116444660D01*
X130122784Y-116598491D01*
X130336637Y-116712798D01*
X130568682Y-116783188D01*
X130749528Y-116801000D01*
X130870472Y-116801000D01*
X131051318Y-116783188D01*
X131283363Y-116712798D01*
X131497216Y-116598491D01*
X131684660Y-116444660D01*
X131838491Y-116257216D01*
X131952798Y-116043363D01*
X132023188Y-115811318D01*
X132046956Y-115570000D01*
X132028710Y-115384738D01*
X166739000Y-115384738D01*
X166739000Y-115755262D01*
X166811286Y-116118667D01*
X166953080Y-116460987D01*
X167158932Y-116769067D01*
X167420933Y-117031068D01*
X167729013Y-117236920D01*
X168071333Y-117378714D01*
X168434738Y-117451000D01*
X168805262Y-117451000D01*
X169168667Y-117378714D01*
X169510987Y-117236920D01*
X169819067Y-117031068D01*
X170081068Y-116769067D01*
X170146952Y-116670463D01*
X174837497Y-116670463D01*
X174966987Y-116903316D01*
X175245416Y-117063620D01*
X175549769Y-117166525D01*
X175868349Y-117208077D01*
X176188915Y-117186679D01*
X176499146Y-117103152D01*
X176787121Y-116960707D01*
X176873013Y-116903316D01*
X177002503Y-116670463D01*
X175920000Y-115587961D01*
X174837497Y-116670463D01*
X170146952Y-116670463D01*
X170286920Y-116460987D01*
X170428714Y-116118667D01*
X170501000Y-115755262D01*
X170501000Y-115518349D01*
X174281923Y-115518349D01*
X174303321Y-115838915D01*
X174386848Y-116149146D01*
X174529293Y-116437121D01*
X174586684Y-116523013D01*
X174819537Y-116652503D01*
X175902039Y-115570000D01*
X175937961Y-115570000D01*
X177020463Y-116652503D01*
X177253316Y-116523013D01*
X177413620Y-116244584D01*
X177516525Y-115940231D01*
X177558077Y-115621651D01*
X177536679Y-115301085D01*
X177453152Y-114990854D01*
X177310707Y-114702879D01*
X177253316Y-114616987D01*
X177020463Y-114487497D01*
X175937961Y-115570000D01*
X175902039Y-115570000D01*
X174819537Y-114487497D01*
X174586684Y-114616987D01*
X174426380Y-114895416D01*
X174323475Y-115199769D01*
X174281923Y-115518349D01*
X170501000Y-115518349D01*
X170501000Y-115384738D01*
X170428714Y-115021333D01*
X170286920Y-114679013D01*
X170146953Y-114469537D01*
X174837497Y-114469537D01*
X175920000Y-115552039D01*
X177002503Y-114469537D01*
X176873013Y-114236684D01*
X176594584Y-114076380D01*
X176290231Y-113973475D01*
X175971651Y-113931923D01*
X175651085Y-113953321D01*
X175340854Y-114036848D01*
X175052879Y-114179293D01*
X174966987Y-114236684D01*
X174837497Y-114469537D01*
X170146953Y-114469537D01*
X170081068Y-114370933D01*
X169819067Y-114108932D01*
X169510987Y-113903080D01*
X169168667Y-113761286D01*
X168805262Y-113689000D01*
X168434738Y-113689000D01*
X168071333Y-113761286D01*
X167729013Y-113903080D01*
X167420933Y-114108932D01*
X167158932Y-114370933D01*
X166953080Y-114679013D01*
X166811286Y-115021333D01*
X166739000Y-115384738D01*
X132028710Y-115384738D01*
X132023188Y-115328682D01*
X131952798Y-115096637D01*
X131838491Y-114882784D01*
X131684660Y-114695340D01*
X131497216Y-114541509D01*
X131283363Y-114427202D01*
X131051318Y-114356812D01*
X130870472Y-114339000D01*
X130749528Y-114339000D01*
X130568682Y-114356812D01*
X130336637Y-114427202D01*
X130122784Y-114541509D01*
X129935340Y-114695340D01*
X129781509Y-114882784D01*
X129667202Y-115096637D01*
X129596812Y-115328682D01*
X129573044Y-115570000D01*
X129506956Y-115570000D01*
X129483188Y-115328682D01*
X129412798Y-115096637D01*
X129298491Y-114882784D01*
X129144660Y-114695340D01*
X128957216Y-114541509D01*
X128743363Y-114427202D01*
X128511318Y-114356812D01*
X128330472Y-114339000D01*
X128209528Y-114339000D01*
X128028682Y-114356812D01*
X127796637Y-114427202D01*
X127582784Y-114541509D01*
X127395340Y-114695340D01*
X127241509Y-114882784D01*
X127127202Y-115096637D01*
X127056812Y-115328682D01*
X127033044Y-115570000D01*
X124866000Y-115570000D01*
X124866000Y-113030000D01*
X127033044Y-113030000D01*
X127056812Y-113271318D01*
X127127202Y-113503363D01*
X127241509Y-113717216D01*
X127395340Y-113904660D01*
X127582784Y-114058491D01*
X127796637Y-114172798D01*
X128028682Y-114243188D01*
X128209528Y-114261000D01*
X128330472Y-114261000D01*
X128511318Y-114243188D01*
X128743363Y-114172798D01*
X128957216Y-114058491D01*
X129144660Y-113904660D01*
X129298491Y-113717216D01*
X129412798Y-113503363D01*
X129483188Y-113271318D01*
X129506956Y-113030000D01*
X129573044Y-113030000D01*
X129596812Y-113271318D01*
X129667202Y-113503363D01*
X129781509Y-113717216D01*
X129935340Y-113904660D01*
X130122784Y-114058491D01*
X130336637Y-114172798D01*
X130568682Y-114243188D01*
X130749528Y-114261000D01*
X130870472Y-114261000D01*
X131051318Y-114243188D01*
X131283363Y-114172798D01*
X131497216Y-114058491D01*
X131684660Y-113904660D01*
X131838491Y-113717216D01*
X131952798Y-113503363D01*
X132023188Y-113271318D01*
X132046956Y-113030000D01*
X132023188Y-112788682D01*
X131952798Y-112556637D01*
X131838491Y-112342784D01*
X131684660Y-112155340D01*
X131497216Y-112001509D01*
X131283363Y-111887202D01*
X131051318Y-111816812D01*
X130870472Y-111799000D01*
X130749528Y-111799000D01*
X130568682Y-111816812D01*
X130336637Y-111887202D01*
X130122784Y-112001509D01*
X129935340Y-112155340D01*
X129781509Y-112342784D01*
X129667202Y-112556637D01*
X129596812Y-112788682D01*
X129573044Y-113030000D01*
X129506956Y-113030000D01*
X129483188Y-112788682D01*
X129412798Y-112556637D01*
X129298491Y-112342784D01*
X129144660Y-112155340D01*
X128957216Y-112001509D01*
X128743363Y-111887202D01*
X128511318Y-111816812D01*
X128330472Y-111799000D01*
X128209528Y-111799000D01*
X128028682Y-111816812D01*
X127796637Y-111887202D01*
X127582784Y-112001509D01*
X127395340Y-112155340D01*
X127241509Y-112342784D01*
X127127202Y-112556637D01*
X127056812Y-112788682D01*
X127033044Y-113030000D01*
X124866000Y-113030000D01*
X124866000Y-110490000D01*
X127033044Y-110490000D01*
X127056812Y-110731318D01*
X127127202Y-110963363D01*
X127241509Y-111177216D01*
X127395340Y-111364660D01*
X127582784Y-111518491D01*
X127796637Y-111632798D01*
X128028682Y-111703188D01*
X128209528Y-111721000D01*
X128330472Y-111721000D01*
X128511318Y-111703188D01*
X128743363Y-111632798D01*
X128957216Y-111518491D01*
X129144660Y-111364660D01*
X129298491Y-111177216D01*
X129412798Y-110963363D01*
X129483188Y-110731318D01*
X129506956Y-110490000D01*
X129573044Y-110490000D01*
X129596812Y-110731318D01*
X129667202Y-110963363D01*
X129781509Y-111177216D01*
X129935340Y-111364660D01*
X130122784Y-111518491D01*
X130336637Y-111632798D01*
X130568682Y-111703188D01*
X130749528Y-111721000D01*
X130870472Y-111721000D01*
X131051318Y-111703188D01*
X131283363Y-111632798D01*
X131497216Y-111518491D01*
X131684660Y-111364660D01*
X131838491Y-111177216D01*
X131952798Y-110963363D01*
X132023188Y-110731318D01*
X132046956Y-110490000D01*
X132023188Y-110248682D01*
X131952798Y-110016637D01*
X131838491Y-109802784D01*
X131684660Y-109615340D01*
X131497216Y-109461509D01*
X131283363Y-109347202D01*
X131051318Y-109276812D01*
X130870472Y-109259000D01*
X130749528Y-109259000D01*
X130568682Y-109276812D01*
X130336637Y-109347202D01*
X130122784Y-109461509D01*
X129935340Y-109615340D01*
X129781509Y-109802784D01*
X129667202Y-110016637D01*
X129596812Y-110248682D01*
X129573044Y-110490000D01*
X129506956Y-110490000D01*
X129483188Y-110248682D01*
X129412798Y-110016637D01*
X129298491Y-109802784D01*
X129144660Y-109615340D01*
X128957216Y-109461509D01*
X128743363Y-109347202D01*
X128511318Y-109276812D01*
X128330472Y-109259000D01*
X128209528Y-109259000D01*
X128028682Y-109276812D01*
X127796637Y-109347202D01*
X127582784Y-109461509D01*
X127395340Y-109615340D01*
X127241509Y-109802784D01*
X127127202Y-110016637D01*
X127056812Y-110248682D01*
X127033044Y-110490000D01*
X124866000Y-110490000D01*
X124866000Y-107950000D01*
X127033044Y-107950000D01*
X127056812Y-108191318D01*
X127127202Y-108423363D01*
X127241509Y-108637216D01*
X127395340Y-108824660D01*
X127582784Y-108978491D01*
X127796637Y-109092798D01*
X128028682Y-109163188D01*
X128209528Y-109181000D01*
X128330472Y-109181000D01*
X128511318Y-109163188D01*
X128743363Y-109092798D01*
X128957216Y-108978491D01*
X129144660Y-108824660D01*
X129298491Y-108637216D01*
X129412798Y-108423363D01*
X129483188Y-108191318D01*
X129506956Y-107950000D01*
X129573044Y-107950000D01*
X129596812Y-108191318D01*
X129667202Y-108423363D01*
X129781509Y-108637216D01*
X129935340Y-108824660D01*
X130122784Y-108978491D01*
X130336637Y-109092798D01*
X130568682Y-109163188D01*
X130749528Y-109181000D01*
X130870472Y-109181000D01*
X131051318Y-109163188D01*
X131283363Y-109092798D01*
X131497216Y-108978491D01*
X131565709Y-108922280D01*
X150514000Y-108922280D01*
X150514000Y-109167720D01*
X150561883Y-109408445D01*
X150655809Y-109635202D01*
X150792168Y-109839279D01*
X150965721Y-110012832D01*
X151169798Y-110149191D01*
X151396555Y-110243117D01*
X151637280Y-110291000D01*
X151882720Y-110291000D01*
X152123445Y-110243117D01*
X152350202Y-110149191D01*
X152554279Y-110012832D01*
X152727832Y-109839279D01*
X152864191Y-109635202D01*
X152958117Y-109408445D01*
X153006000Y-109167720D01*
X153006000Y-108922280D01*
X152958117Y-108681555D01*
X152864191Y-108454798D01*
X152727832Y-108250721D01*
X152554279Y-108077168D01*
X152350202Y-107940809D01*
X152123445Y-107846883D01*
X151882720Y-107799000D01*
X151637280Y-107799000D01*
X151396555Y-107846883D01*
X151169798Y-107940809D01*
X150965721Y-108077168D01*
X150792168Y-108250721D01*
X150655809Y-108454798D01*
X150561883Y-108681555D01*
X150514000Y-108922280D01*
X131565709Y-108922280D01*
X131684660Y-108824660D01*
X131838491Y-108637216D01*
X131952798Y-108423363D01*
X132023188Y-108191318D01*
X132046956Y-107950000D01*
X132023188Y-107708682D01*
X131952798Y-107476637D01*
X131838491Y-107262784D01*
X131684660Y-107075340D01*
X131498156Y-106922280D01*
X145444000Y-106922280D01*
X145444000Y-107167720D01*
X145491883Y-107408445D01*
X145585809Y-107635202D01*
X145722168Y-107839279D01*
X145895721Y-108012832D01*
X146099798Y-108149191D01*
X146326555Y-108243117D01*
X146567280Y-108291000D01*
X146812720Y-108291000D01*
X147053445Y-108243117D01*
X147280202Y-108149191D01*
X147484279Y-108012832D01*
X147657832Y-107839279D01*
X147794191Y-107635202D01*
X147888117Y-107408445D01*
X147936000Y-107167720D01*
X147936000Y-106922280D01*
X147888117Y-106681555D01*
X147794191Y-106454798D01*
X147657832Y-106250721D01*
X147484279Y-106077168D01*
X147426998Y-106038894D01*
X147498937Y-105871897D01*
X150951063Y-105871897D01*
X151034388Y-106065326D01*
X151247385Y-106187281D01*
X151480083Y-106265338D01*
X151723537Y-106296498D01*
X151968393Y-106279565D01*
X152205240Y-106215187D01*
X152424978Y-106105840D01*
X152485612Y-106065326D01*
X152568937Y-105871897D01*
X151760000Y-105062961D01*
X150951063Y-105871897D01*
X147498937Y-105871897D01*
X146690000Y-105062961D01*
X145881063Y-105871897D01*
X145953002Y-106038894D01*
X145895721Y-106077168D01*
X145722168Y-106250721D01*
X145585809Y-106454798D01*
X145491883Y-106681555D01*
X145444000Y-106922280D01*
X131498156Y-106922280D01*
X131497216Y-106921509D01*
X131283363Y-106807202D01*
X131051318Y-106736812D01*
X130870472Y-106719000D01*
X130749528Y-106719000D01*
X130568682Y-106736812D01*
X130336637Y-106807202D01*
X130122784Y-106921509D01*
X129935340Y-107075340D01*
X129781509Y-107262784D01*
X129667202Y-107476637D01*
X129596812Y-107708682D01*
X129573044Y-107950000D01*
X129506956Y-107950000D01*
X129483188Y-107708682D01*
X129412798Y-107476637D01*
X129298491Y-107262784D01*
X129144660Y-107075340D01*
X128957216Y-106921509D01*
X128743363Y-106807202D01*
X128511318Y-106736812D01*
X128330472Y-106719000D01*
X128209528Y-106719000D01*
X128028682Y-106736812D01*
X127796637Y-106807202D01*
X127582784Y-106921509D01*
X127395340Y-107075340D01*
X127241509Y-107262784D01*
X127127202Y-107476637D01*
X127056812Y-107708682D01*
X127033044Y-107950000D01*
X124866000Y-107950000D01*
X124866000Y-105410000D01*
X127033044Y-105410000D01*
X127056812Y-105651318D01*
X127127202Y-105883363D01*
X127241509Y-106097216D01*
X127395340Y-106284660D01*
X127582784Y-106438491D01*
X127796637Y-106552798D01*
X128028682Y-106623188D01*
X128209528Y-106641000D01*
X128330472Y-106641000D01*
X128511318Y-106623188D01*
X128743363Y-106552798D01*
X128957216Y-106438491D01*
X129144660Y-106284660D01*
X129298491Y-106097216D01*
X129412798Y-105883363D01*
X129483188Y-105651318D01*
X129506956Y-105410000D01*
X129573044Y-105410000D01*
X129596812Y-105651318D01*
X129667202Y-105883363D01*
X129781509Y-106097216D01*
X129935340Y-106284660D01*
X130122784Y-106438491D01*
X130336637Y-106552798D01*
X130568682Y-106623188D01*
X130749528Y-106641000D01*
X130870472Y-106641000D01*
X131051318Y-106623188D01*
X131283363Y-106552798D01*
X131497216Y-106438491D01*
X131684660Y-106284660D01*
X131838491Y-106097216D01*
X131952798Y-105883363D01*
X132023188Y-105651318D01*
X132046956Y-105410000D01*
X132023188Y-105168682D01*
X131974609Y-105008537D01*
X145438502Y-105008537D01*
X145455435Y-105253393D01*
X145519813Y-105490240D01*
X145629160Y-105709978D01*
X145669674Y-105770612D01*
X145863103Y-105853937D01*
X146672039Y-105045000D01*
X146707961Y-105045000D01*
X147516897Y-105853937D01*
X147710326Y-105770612D01*
X147832281Y-105557615D01*
X147910338Y-105324917D01*
X147941498Y-105081463D01*
X147936455Y-105008537D01*
X150508502Y-105008537D01*
X150525435Y-105253393D01*
X150589813Y-105490240D01*
X150699160Y-105709978D01*
X150739674Y-105770612D01*
X150933103Y-105853937D01*
X151742039Y-105045000D01*
X151777961Y-105045000D01*
X152586897Y-105853937D01*
X152780326Y-105770612D01*
X152902281Y-105557615D01*
X152980338Y-105324917D01*
X153011498Y-105081463D01*
X152994565Y-104836607D01*
X152930187Y-104599760D01*
X152820840Y-104380022D01*
X152780326Y-104319388D01*
X152586897Y-104236063D01*
X151777961Y-105045000D01*
X151742039Y-105045000D01*
X150933103Y-104236063D01*
X150739674Y-104319388D01*
X150617719Y-104532385D01*
X150539662Y-104765083D01*
X150508502Y-105008537D01*
X147936455Y-105008537D01*
X147924565Y-104836607D01*
X147860187Y-104599760D01*
X147750840Y-104380022D01*
X147710326Y-104319388D01*
X147516897Y-104236063D01*
X146707961Y-105045000D01*
X146672039Y-105045000D01*
X145863103Y-104236063D01*
X145669674Y-104319388D01*
X145547719Y-104532385D01*
X145469662Y-104765083D01*
X145438502Y-105008537D01*
X131974609Y-105008537D01*
X131952798Y-104936637D01*
X131838491Y-104722784D01*
X131684660Y-104535340D01*
X131497216Y-104381509D01*
X131283363Y-104267202D01*
X131051318Y-104196812D01*
X130870472Y-104179000D01*
X130749528Y-104179000D01*
X130568682Y-104196812D01*
X130336637Y-104267202D01*
X130122784Y-104381509D01*
X129935340Y-104535340D01*
X129781509Y-104722784D01*
X129667202Y-104936637D01*
X129596812Y-105168682D01*
X129573044Y-105410000D01*
X129506956Y-105410000D01*
X129483188Y-105168682D01*
X129412798Y-104936637D01*
X129298491Y-104722784D01*
X129144660Y-104535340D01*
X128957216Y-104381509D01*
X128743363Y-104267202D01*
X128511318Y-104196812D01*
X128330472Y-104179000D01*
X128209528Y-104179000D01*
X128028682Y-104196812D01*
X127796637Y-104267202D01*
X127582784Y-104381509D01*
X127395340Y-104535340D01*
X127241509Y-104722784D01*
X127127202Y-104936637D01*
X127056812Y-105168682D01*
X127033044Y-105410000D01*
X124866000Y-105410000D01*
X124866000Y-102870000D01*
X127033044Y-102870000D01*
X127056812Y-103111318D01*
X127127202Y-103343363D01*
X127241509Y-103557216D01*
X127395340Y-103744660D01*
X127582784Y-103898491D01*
X127796637Y-104012798D01*
X128028682Y-104083188D01*
X128209528Y-104101000D01*
X128330472Y-104101000D01*
X128511318Y-104083188D01*
X128743363Y-104012798D01*
X128957216Y-103898491D01*
X129144660Y-103744660D01*
X129298491Y-103557216D01*
X129412798Y-103343363D01*
X129483188Y-103111318D01*
X129506956Y-102870000D01*
X129573044Y-102870000D01*
X129596812Y-103111318D01*
X129667202Y-103343363D01*
X129781509Y-103557216D01*
X129935340Y-103744660D01*
X130122784Y-103898491D01*
X130336637Y-104012798D01*
X130568682Y-104083188D01*
X130749528Y-104101000D01*
X130870472Y-104101000D01*
X131051318Y-104083188D01*
X131283363Y-104012798D01*
X131497216Y-103898491D01*
X131684660Y-103744660D01*
X131838491Y-103557216D01*
X131952798Y-103343363D01*
X132023188Y-103111318D01*
X132046956Y-102870000D01*
X132027740Y-102674889D01*
X135179000Y-102674889D01*
X135179000Y-103065111D01*
X135255129Y-103447836D01*
X135404461Y-103808355D01*
X135621257Y-104132814D01*
X135897186Y-104408743D01*
X136221645Y-104625539D01*
X136582164Y-104774871D01*
X136964889Y-104851000D01*
X137355111Y-104851000D01*
X137737836Y-104774871D01*
X138098355Y-104625539D01*
X138422814Y-104408743D01*
X138698743Y-104132814D01*
X138915539Y-103808355D01*
X139064871Y-103447836D01*
X139141000Y-103065111D01*
X139141000Y-102922280D01*
X145444000Y-102922280D01*
X145444000Y-103167720D01*
X145491883Y-103408445D01*
X145585809Y-103635202D01*
X145722168Y-103839279D01*
X145895721Y-104012832D01*
X145953002Y-104051106D01*
X145881063Y-104218103D01*
X146690000Y-105027039D01*
X147498937Y-104218103D01*
X147426998Y-104051106D01*
X147484279Y-104012832D01*
X147657832Y-103839279D01*
X147794191Y-103635202D01*
X147888117Y-103408445D01*
X147936000Y-103167720D01*
X147936000Y-102922280D01*
X150514000Y-102922280D01*
X150514000Y-103167720D01*
X150561883Y-103408445D01*
X150655809Y-103635202D01*
X150792168Y-103839279D01*
X150965721Y-104012832D01*
X151023002Y-104051106D01*
X150951063Y-104218103D01*
X151760000Y-105027039D01*
X152568937Y-104218103D01*
X152501260Y-104061000D01*
X170241926Y-104061000D01*
X180404001Y-114223076D01*
X180404001Y-114287281D01*
X180380298Y-114303119D01*
X180153119Y-114530298D01*
X179974626Y-114797432D01*
X179851678Y-115094255D01*
X179789000Y-115409360D01*
X179789000Y-115730640D01*
X179794561Y-115758598D01*
X175109160Y-120444000D01*
X152482190Y-120444000D01*
X152350202Y-120355809D01*
X152123445Y-120261883D01*
X151882720Y-120214000D01*
X151637280Y-120214000D01*
X151396555Y-120261883D01*
X151169798Y-120355809D01*
X150965721Y-120492168D01*
X150792168Y-120665721D01*
X150655809Y-120869798D01*
X150561883Y-121096555D01*
X150514000Y-121337280D01*
X150514000Y-121582720D01*
X150561883Y-121823445D01*
X150655809Y-122050202D01*
X150792168Y-122254279D01*
X150965721Y-122427832D01*
X151023002Y-122466106D01*
X150951063Y-122633103D01*
X151760000Y-123442039D01*
X152568937Y-122633103D01*
X152501260Y-122476000D01*
X175480098Y-122476000D01*
X175530000Y-122480915D01*
X175579902Y-122476000D01*
X175729171Y-122461298D01*
X175920687Y-122403202D01*
X176097190Y-122308860D01*
X176251896Y-122181896D01*
X176283712Y-122143128D01*
X181231402Y-117195439D01*
X181259360Y-117201000D01*
X181580640Y-117201000D01*
X181895745Y-117138322D01*
X182192568Y-117015374D01*
X182459702Y-116836881D01*
X182686881Y-116609702D01*
X182865374Y-116342568D01*
X182988322Y-116045745D01*
X183051000Y-115730640D01*
X183051000Y-115409360D01*
X182988322Y-115094255D01*
X182865374Y-114797432D01*
X182686881Y-114530298D01*
X182459702Y-114303119D01*
X182436000Y-114287282D01*
X182436000Y-113852127D01*
X182440914Y-113802233D01*
X182436000Y-113752339D01*
X182436000Y-113752332D01*
X182421298Y-113603063D01*
X182363202Y-113411547D01*
X182268860Y-113235044D01*
X182141896Y-113080338D01*
X182103133Y-113048526D01*
X171729496Y-102674889D01*
X179629000Y-102674889D01*
X179629000Y-103065111D01*
X179705129Y-103447836D01*
X179854461Y-103808355D01*
X180071257Y-104132814D01*
X180347186Y-104408743D01*
X180671645Y-104625539D01*
X181032164Y-104774871D01*
X181414889Y-104851000D01*
X181805111Y-104851000D01*
X182187836Y-104774871D01*
X182548355Y-104625539D01*
X182872814Y-104408743D01*
X183148743Y-104132814D01*
X183365539Y-103808355D01*
X183514871Y-103447836D01*
X183591000Y-103065111D01*
X183591000Y-102674889D01*
X183514871Y-102292164D01*
X183365539Y-101931645D01*
X183148743Y-101607186D01*
X182872814Y-101331257D01*
X182548355Y-101114461D01*
X182187836Y-100965129D01*
X181805111Y-100889000D01*
X181414889Y-100889000D01*
X181032164Y-100965129D01*
X180671645Y-101114461D01*
X180347186Y-101331257D01*
X180071257Y-101607186D01*
X179854461Y-101931645D01*
X179705129Y-102292164D01*
X179629000Y-102674889D01*
X171729496Y-102674889D01*
X171416478Y-102361872D01*
X171384662Y-102323104D01*
X171229956Y-102196140D01*
X171053453Y-102101798D01*
X170861937Y-102043702D01*
X170712668Y-102029000D01*
X170662766Y-102024085D01*
X170612864Y-102029000D01*
X152482190Y-102029000D01*
X152350202Y-101940809D01*
X152123445Y-101846883D01*
X151882720Y-101799000D01*
X151637280Y-101799000D01*
X151396555Y-101846883D01*
X151169798Y-101940809D01*
X150965721Y-102077168D01*
X150792168Y-102250721D01*
X150655809Y-102454798D01*
X150561883Y-102681555D01*
X150514000Y-102922280D01*
X147936000Y-102922280D01*
X147888117Y-102681555D01*
X147794191Y-102454798D01*
X147657832Y-102250721D01*
X147484279Y-102077168D01*
X147280202Y-101940809D01*
X147053445Y-101846883D01*
X146812720Y-101799000D01*
X146567280Y-101799000D01*
X146326555Y-101846883D01*
X146099798Y-101940809D01*
X145895721Y-102077168D01*
X145722168Y-102250721D01*
X145585809Y-102454798D01*
X145491883Y-102681555D01*
X145444000Y-102922280D01*
X139141000Y-102922280D01*
X139141000Y-102674889D01*
X139064871Y-102292164D01*
X138915539Y-101931645D01*
X138698743Y-101607186D01*
X138422814Y-101331257D01*
X138098355Y-101114461D01*
X137737836Y-100965129D01*
X137355111Y-100889000D01*
X136964889Y-100889000D01*
X136582164Y-100965129D01*
X136221645Y-101114461D01*
X135897186Y-101331257D01*
X135621257Y-101607186D01*
X135404461Y-101931645D01*
X135255129Y-102292164D01*
X135179000Y-102674889D01*
X132027740Y-102674889D01*
X132023188Y-102628682D01*
X131952798Y-102396637D01*
X131838491Y-102182784D01*
X131684660Y-101995340D01*
X131497216Y-101841509D01*
X131283363Y-101727202D01*
X131051318Y-101656812D01*
X130870472Y-101639000D01*
X130749528Y-101639000D01*
X130568682Y-101656812D01*
X130336637Y-101727202D01*
X130122784Y-101841509D01*
X129935340Y-101995340D01*
X129781509Y-102182784D01*
X129667202Y-102396637D01*
X129596812Y-102628682D01*
X129573044Y-102870000D01*
X129506956Y-102870000D01*
X129483188Y-102628682D01*
X129412798Y-102396637D01*
X129298491Y-102182784D01*
X129144660Y-101995340D01*
X128957216Y-101841509D01*
X128743363Y-101727202D01*
X128511318Y-101656812D01*
X128330472Y-101639000D01*
X128209528Y-101639000D01*
X128028682Y-101656812D01*
X127796637Y-101727202D01*
X127582784Y-101841509D01*
X127395340Y-101995340D01*
X127241509Y-102182784D01*
X127127202Y-102396637D01*
X127056812Y-102628682D01*
X127033044Y-102870000D01*
X124866000Y-102870000D01*
X124866000Y-99466000D01*
X187554001Y-99466000D01*
X187554000Y-131674000D01*
X187554000Y-131674000D01*
G37*
X187554000Y-131674000D02*
X124866000Y-131674000D01*
X124866000Y-128270000D01*
X127033044Y-128270000D01*
X127056812Y-128511318D01*
X127127202Y-128743363D01*
X127241509Y-128957216D01*
X127395340Y-129144660D01*
X127582784Y-129298491D01*
X127796637Y-129412798D01*
X128028682Y-129483188D01*
X128209528Y-129501000D01*
X128330472Y-129501000D01*
X128511318Y-129483188D01*
X128743363Y-129412798D01*
X128957216Y-129298491D01*
X129144660Y-129144660D01*
X129164897Y-129120000D01*
X129577157Y-129120000D01*
X129584513Y-129194689D01*
X129606299Y-129266508D01*
X129641678Y-129332696D01*
X129689289Y-129390711D01*
X129747304Y-129438322D01*
X129813492Y-129473701D01*
X129885311Y-129495487D01*
X129960000Y-129502843D01*
X130702050Y-129501000D01*
X130797300Y-129405750D01*
X130797300Y-128282700D01*
X130822700Y-128282700D01*
X130822700Y-129405750D01*
X130917950Y-129501000D01*
X131660000Y-129502843D01*
X131734689Y-129495487D01*
X131806508Y-129473701D01*
X131872696Y-129438322D01*
X131930711Y-129390711D01*
X131978322Y-129332696D01*
X132013701Y-129266508D01*
X132035487Y-129194689D01*
X132042843Y-129120000D01*
X132041000Y-128377950D01*
X131945750Y-128282700D01*
X130822700Y-128282700D01*
X130797300Y-128282700D01*
X129674250Y-128282700D01*
X129579000Y-128377950D01*
X129577157Y-129120000D01*
X129164897Y-129120000D01*
X129298491Y-128957216D01*
X129412798Y-128743363D01*
X129483188Y-128511318D01*
X129506956Y-128270000D01*
X129483188Y-128028682D01*
X129412798Y-127796637D01*
X129298491Y-127582784D01*
X129164898Y-127420000D01*
X129577157Y-127420000D01*
X129579000Y-128162050D01*
X129674250Y-128257300D01*
X130797300Y-128257300D01*
X130797300Y-127134250D01*
X130822700Y-127134250D01*
X130822700Y-128257300D01*
X131945750Y-128257300D01*
X132041000Y-128162050D01*
X132041216Y-128074889D01*
X135179000Y-128074889D01*
X135179000Y-128465111D01*
X135255129Y-128847836D01*
X135404461Y-129208355D01*
X135621257Y-129532814D01*
X135897186Y-129808743D01*
X136221645Y-130025539D01*
X136582164Y-130174871D01*
X136964889Y-130251000D01*
X137355111Y-130251000D01*
X137737836Y-130174871D01*
X138098355Y-130025539D01*
X138422814Y-129808743D01*
X138698743Y-129532814D01*
X138915539Y-129208355D01*
X139064871Y-128847836D01*
X139141000Y-128465111D01*
X139141000Y-128074889D01*
X139064871Y-127692164D01*
X138917874Y-127337280D01*
X150514000Y-127337280D01*
X150514000Y-127582720D01*
X150561883Y-127823445D01*
X150655809Y-128050202D01*
X150792168Y-128254279D01*
X150965721Y-128427832D01*
X151169798Y-128564191D01*
X151396555Y-128658117D01*
X151637280Y-128706000D01*
X151882720Y-128706000D01*
X152123445Y-128658117D01*
X152350202Y-128564191D01*
X152554279Y-128427832D01*
X152727832Y-128254279D01*
X152847695Y-128074889D01*
X179629000Y-128074889D01*
X179629000Y-128465111D01*
X179705129Y-128847836D01*
X179854461Y-129208355D01*
X180071257Y-129532814D01*
X180347186Y-129808743D01*
X180671645Y-130025539D01*
X181032164Y-130174871D01*
X181414889Y-130251000D01*
X181805111Y-130251000D01*
X182187836Y-130174871D01*
X182548355Y-130025539D01*
X182872814Y-129808743D01*
X183148743Y-129532814D01*
X183365539Y-129208355D01*
X183514871Y-128847836D01*
X183591000Y-128465111D01*
X183591000Y-128074889D01*
X183514871Y-127692164D01*
X183365539Y-127331645D01*
X183148743Y-127007186D01*
X182872814Y-126731257D01*
X182548355Y-126514461D01*
X182187836Y-126365129D01*
X181805111Y-126289000D01*
X181414889Y-126289000D01*
X181032164Y-126365129D01*
X180671645Y-126514461D01*
X180347186Y-126731257D01*
X180071257Y-127007186D01*
X179854461Y-127331645D01*
X179705129Y-127692164D01*
X179629000Y-128074889D01*
X152847695Y-128074889D01*
X152864191Y-128050202D01*
X152958117Y-127823445D01*
X153006000Y-127582720D01*
X153006000Y-127337280D01*
X152958117Y-127096555D01*
X152864191Y-126869798D01*
X152727832Y-126665721D01*
X152554279Y-126492168D01*
X152350202Y-126355809D01*
X152123445Y-126261883D01*
X151882720Y-126214000D01*
X151637280Y-126214000D01*
X151396555Y-126261883D01*
X151169798Y-126355809D01*
X150965721Y-126492168D01*
X150792168Y-126665721D01*
X150655809Y-126869798D01*
X150561883Y-127096555D01*
X150514000Y-127337280D01*
X138917874Y-127337280D01*
X138915539Y-127331645D01*
X138698743Y-127007186D01*
X138422814Y-126731257D01*
X138098355Y-126514461D01*
X137737836Y-126365129D01*
X137355111Y-126289000D01*
X136964889Y-126289000D01*
X136582164Y-126365129D01*
X136221645Y-126514461D01*
X135897186Y-126731257D01*
X135621257Y-127007186D01*
X135404461Y-127331645D01*
X135255129Y-127692164D01*
X135179000Y-128074889D01*
X132041216Y-128074889D01*
X132042843Y-127420000D01*
X132035487Y-127345311D01*
X132013701Y-127273492D01*
X131978322Y-127207304D01*
X131930711Y-127149289D01*
X131872696Y-127101678D01*
X131806508Y-127066299D01*
X131734689Y-127044513D01*
X131660000Y-127037157D01*
X130917950Y-127039000D01*
X130822700Y-127134250D01*
X130797300Y-127134250D01*
X130702050Y-127039000D01*
X129960000Y-127037157D01*
X129885311Y-127044513D01*
X129813492Y-127066299D01*
X129747304Y-127101678D01*
X129689289Y-127149289D01*
X129641678Y-127207304D01*
X129606299Y-127273492D01*
X129584513Y-127345311D01*
X129577157Y-127420000D01*
X129164898Y-127420000D01*
X129144660Y-127395340D01*
X128957216Y-127241509D01*
X128743363Y-127127202D01*
X128511318Y-127056812D01*
X128330472Y-127039000D01*
X128209528Y-127039000D01*
X128028682Y-127056812D01*
X127796637Y-127127202D01*
X127582784Y-127241509D01*
X127395340Y-127395340D01*
X127241509Y-127582784D01*
X127127202Y-127796637D01*
X127056812Y-128028682D01*
X127033044Y-128270000D01*
X124866000Y-128270000D01*
X124866000Y-125730000D01*
X127033044Y-125730000D01*
X127056812Y-125971318D01*
X127127202Y-126203363D01*
X127241509Y-126417216D01*
X127395340Y-126604660D01*
X127582784Y-126758491D01*
X127796637Y-126872798D01*
X128028682Y-126943188D01*
X128209528Y-126961000D01*
X128330472Y-126961000D01*
X128511318Y-126943188D01*
X128743363Y-126872798D01*
X128957216Y-126758491D01*
X129144660Y-126604660D01*
X129298491Y-126417216D01*
X129412798Y-126203363D01*
X129483188Y-125971318D01*
X129506956Y-125730000D01*
X129573044Y-125730000D01*
X129596812Y-125971318D01*
X129667202Y-126203363D01*
X129781509Y-126417216D01*
X129935340Y-126604660D01*
X130122784Y-126758491D01*
X130336637Y-126872798D01*
X130568682Y-126943188D01*
X130749528Y-126961000D01*
X130870472Y-126961000D01*
X131051318Y-126943188D01*
X131283363Y-126872798D01*
X131497216Y-126758491D01*
X131684660Y-126604660D01*
X131838491Y-126417216D01*
X131952798Y-126203363D01*
X132023188Y-125971318D01*
X132046956Y-125730000D01*
X132023188Y-125488682D01*
X131977261Y-125337280D01*
X145444000Y-125337280D01*
X145444000Y-125582720D01*
X145491883Y-125823445D01*
X145585809Y-126050202D01*
X145722168Y-126254279D01*
X145895721Y-126427832D01*
X146099798Y-126564191D01*
X146326555Y-126658117D01*
X146567280Y-126706000D01*
X146812720Y-126706000D01*
X147053445Y-126658117D01*
X147280202Y-126564191D01*
X147484279Y-126427832D01*
X147657832Y-126254279D01*
X147794191Y-126050202D01*
X147888117Y-125823445D01*
X147936000Y-125582720D01*
X147936000Y-125337280D01*
X147888117Y-125096555D01*
X147794191Y-124869798D01*
X147657832Y-124665721D01*
X147484279Y-124492168D01*
X147426998Y-124453894D01*
X147498937Y-124286897D01*
X150951063Y-124286897D01*
X151034388Y-124480326D01*
X151247385Y-124602281D01*
X151480083Y-124680338D01*
X151723537Y-124711498D01*
X151968393Y-124694565D01*
X152205240Y-124630187D01*
X152424978Y-124520840D01*
X152485612Y-124480326D01*
X152568937Y-124286897D01*
X151760000Y-123477961D01*
X150951063Y-124286897D01*
X147498937Y-124286897D01*
X146690000Y-123477961D01*
X145881063Y-124286897D01*
X145953002Y-124453894D01*
X145895721Y-124492168D01*
X145722168Y-124665721D01*
X145585809Y-124869798D01*
X145491883Y-125096555D01*
X145444000Y-125337280D01*
X131977261Y-125337280D01*
X131952798Y-125256637D01*
X131838491Y-125042784D01*
X131684660Y-124855340D01*
X131497216Y-124701509D01*
X131283363Y-124587202D01*
X131051318Y-124516812D01*
X130870472Y-124499000D01*
X130749528Y-124499000D01*
X130568682Y-124516812D01*
X130336637Y-124587202D01*
X130122784Y-124701509D01*
X129935340Y-124855340D01*
X129781509Y-125042784D01*
X129667202Y-125256637D01*
X129596812Y-125488682D01*
X129573044Y-125730000D01*
X129506956Y-125730000D01*
X129483188Y-125488682D01*
X129412798Y-125256637D01*
X129298491Y-125042784D01*
X129144660Y-124855340D01*
X128957216Y-124701509D01*
X128743363Y-124587202D01*
X128511318Y-124516812D01*
X128330472Y-124499000D01*
X128209528Y-124499000D01*
X128028682Y-124516812D01*
X127796637Y-124587202D01*
X127582784Y-124701509D01*
X127395340Y-124855340D01*
X127241509Y-125042784D01*
X127127202Y-125256637D01*
X127056812Y-125488682D01*
X127033044Y-125730000D01*
X124866000Y-125730000D01*
X124866000Y-123190000D01*
X127033044Y-123190000D01*
X127056812Y-123431318D01*
X127127202Y-123663363D01*
X127241509Y-123877216D01*
X127395340Y-124064660D01*
X127582784Y-124218491D01*
X127796637Y-124332798D01*
X128028682Y-124403188D01*
X128209528Y-124421000D01*
X128330472Y-124421000D01*
X128511318Y-124403188D01*
X128743363Y-124332798D01*
X128957216Y-124218491D01*
X129144660Y-124064660D01*
X129298491Y-123877216D01*
X129412798Y-123663363D01*
X129483188Y-123431318D01*
X129506956Y-123190000D01*
X129573044Y-123190000D01*
X129596812Y-123431318D01*
X129667202Y-123663363D01*
X129781509Y-123877216D01*
X129935340Y-124064660D01*
X130122784Y-124218491D01*
X130336637Y-124332798D01*
X130568682Y-124403188D01*
X130749528Y-124421000D01*
X130870472Y-124421000D01*
X131051318Y-124403188D01*
X131283363Y-124332798D01*
X131497216Y-124218491D01*
X131684660Y-124064660D01*
X131838491Y-123877216D01*
X131952798Y-123663363D01*
X132023188Y-123431318D01*
X132023954Y-123423537D01*
X145438502Y-123423537D01*
X145455435Y-123668393D01*
X145519813Y-123905240D01*
X145629160Y-124124978D01*
X145669674Y-124185612D01*
X145863103Y-124268937D01*
X146672039Y-123460000D01*
X146707961Y-123460000D01*
X147516897Y-124268937D01*
X147710326Y-124185612D01*
X147832281Y-123972615D01*
X147910338Y-123739917D01*
X147941498Y-123496463D01*
X147936455Y-123423537D01*
X150508502Y-123423537D01*
X150525435Y-123668393D01*
X150589813Y-123905240D01*
X150699160Y-124124978D01*
X150739674Y-124185612D01*
X150933103Y-124268937D01*
X151742039Y-123460000D01*
X151777961Y-123460000D01*
X152586897Y-124268937D01*
X152780326Y-124185612D01*
X152902281Y-123972615D01*
X152980338Y-123739917D01*
X153011498Y-123496463D01*
X152994565Y-123251607D01*
X152930187Y-123014760D01*
X152820840Y-122795022D01*
X152780326Y-122734388D01*
X152586897Y-122651063D01*
X151777961Y-123460000D01*
X151742039Y-123460000D01*
X150933103Y-122651063D01*
X150739674Y-122734388D01*
X150617719Y-122947385D01*
X150539662Y-123180083D01*
X150508502Y-123423537D01*
X147936455Y-123423537D01*
X147924565Y-123251607D01*
X147860187Y-123014760D01*
X147750840Y-122795022D01*
X147710326Y-122734388D01*
X147516897Y-122651063D01*
X146707961Y-123460000D01*
X146672039Y-123460000D01*
X145863103Y-122651063D01*
X145669674Y-122734388D01*
X145547719Y-122947385D01*
X145469662Y-123180083D01*
X145438502Y-123423537D01*
X132023954Y-123423537D01*
X132046956Y-123190000D01*
X132023188Y-122948682D01*
X131952798Y-122716637D01*
X131838491Y-122502784D01*
X131684660Y-122315340D01*
X131497216Y-122161509D01*
X131283363Y-122047202D01*
X131051318Y-121976812D01*
X130870472Y-121959000D01*
X130749528Y-121959000D01*
X130568682Y-121976812D01*
X130336637Y-122047202D01*
X130122784Y-122161509D01*
X129935340Y-122315340D01*
X129781509Y-122502784D01*
X129667202Y-122716637D01*
X129596812Y-122948682D01*
X129573044Y-123190000D01*
X129506956Y-123190000D01*
X129483188Y-122948682D01*
X129412798Y-122716637D01*
X129298491Y-122502784D01*
X129144660Y-122315340D01*
X128957216Y-122161509D01*
X128743363Y-122047202D01*
X128511318Y-121976812D01*
X128330472Y-121959000D01*
X128209528Y-121959000D01*
X128028682Y-121976812D01*
X127796637Y-122047202D01*
X127582784Y-122161509D01*
X127395340Y-122315340D01*
X127241509Y-122502784D01*
X127127202Y-122716637D01*
X127056812Y-122948682D01*
X127033044Y-123190000D01*
X124866000Y-123190000D01*
X124866000Y-120650000D01*
X127033044Y-120650000D01*
X127056812Y-120891318D01*
X127127202Y-121123363D01*
X127241509Y-121337216D01*
X127395340Y-121524660D01*
X127582784Y-121678491D01*
X127796637Y-121792798D01*
X128028682Y-121863188D01*
X128209528Y-121881000D01*
X128330472Y-121881000D01*
X128511318Y-121863188D01*
X128743363Y-121792798D01*
X128957216Y-121678491D01*
X129144660Y-121524660D01*
X129298491Y-121337216D01*
X129412798Y-121123363D01*
X129483188Y-120891318D01*
X129506956Y-120650000D01*
X129573044Y-120650000D01*
X129596812Y-120891318D01*
X129667202Y-121123363D01*
X129781509Y-121337216D01*
X129935340Y-121524660D01*
X130122784Y-121678491D01*
X130336637Y-121792798D01*
X130568682Y-121863188D01*
X130749528Y-121881000D01*
X130870472Y-121881000D01*
X131051318Y-121863188D01*
X131283363Y-121792798D01*
X131497216Y-121678491D01*
X131684660Y-121524660D01*
X131838438Y-121337280D01*
X145444000Y-121337280D01*
X145444000Y-121582720D01*
X145491883Y-121823445D01*
X145585809Y-122050202D01*
X145722168Y-122254279D01*
X145895721Y-122427832D01*
X145953002Y-122466106D01*
X145881063Y-122633103D01*
X146690000Y-123442039D01*
X147498937Y-122633103D01*
X147426998Y-122466106D01*
X147484279Y-122427832D01*
X147657832Y-122254279D01*
X147794191Y-122050202D01*
X147888117Y-121823445D01*
X147936000Y-121582720D01*
X147936000Y-121337280D01*
X147888117Y-121096555D01*
X147794191Y-120869798D01*
X147657832Y-120665721D01*
X147484279Y-120492168D01*
X147280202Y-120355809D01*
X147053445Y-120261883D01*
X146812720Y-120214000D01*
X146567280Y-120214000D01*
X146326555Y-120261883D01*
X146099798Y-120355809D01*
X145895721Y-120492168D01*
X145722168Y-120665721D01*
X145585809Y-120869798D01*
X145491883Y-121096555D01*
X145444000Y-121337280D01*
X131838438Y-121337280D01*
X131838491Y-121337216D01*
X131952798Y-121123363D01*
X132023188Y-120891318D01*
X132046956Y-120650000D01*
X132023188Y-120408682D01*
X131952798Y-120176637D01*
X131838491Y-119962784D01*
X131684660Y-119775340D01*
X131497216Y-119621509D01*
X131283363Y-119507202D01*
X131051318Y-119436812D01*
X130870472Y-119419000D01*
X130749528Y-119419000D01*
X130568682Y-119436812D01*
X130336637Y-119507202D01*
X130122784Y-119621509D01*
X129935340Y-119775340D01*
X129781509Y-119962784D01*
X129667202Y-120176637D01*
X129596812Y-120408682D01*
X129573044Y-120650000D01*
X129506956Y-120650000D01*
X129483188Y-120408682D01*
X129412798Y-120176637D01*
X129298491Y-119962784D01*
X129144660Y-119775340D01*
X128957216Y-119621509D01*
X128743363Y-119507202D01*
X128511318Y-119436812D01*
X128330472Y-119419000D01*
X128209528Y-119419000D01*
X128028682Y-119436812D01*
X127796637Y-119507202D01*
X127582784Y-119621509D01*
X127395340Y-119775340D01*
X127241509Y-119962784D01*
X127127202Y-120176637D01*
X127056812Y-120408682D01*
X127033044Y-120650000D01*
X124866000Y-120650000D01*
X124866000Y-118110000D01*
X127033044Y-118110000D01*
X127056812Y-118351318D01*
X127127202Y-118583363D01*
X127241509Y-118797216D01*
X127395340Y-118984660D01*
X127582784Y-119138491D01*
X127796637Y-119252798D01*
X128028682Y-119323188D01*
X128209528Y-119341000D01*
X128330472Y-119341000D01*
X128511318Y-119323188D01*
X128743363Y-119252798D01*
X128957216Y-119138491D01*
X129144660Y-118984660D01*
X129298491Y-118797216D01*
X129412798Y-118583363D01*
X129483188Y-118351318D01*
X129506956Y-118110000D01*
X129573044Y-118110000D01*
X129596812Y-118351318D01*
X129667202Y-118583363D01*
X129781509Y-118797216D01*
X129935340Y-118984660D01*
X130122784Y-119138491D01*
X130336637Y-119252798D01*
X130568682Y-119323188D01*
X130749528Y-119341000D01*
X130870472Y-119341000D01*
X131051318Y-119323188D01*
X131283363Y-119252798D01*
X131497216Y-119138491D01*
X131684660Y-118984660D01*
X131838491Y-118797216D01*
X131952798Y-118583363D01*
X132023188Y-118351318D01*
X132046956Y-118110000D01*
X132023188Y-117868682D01*
X131952798Y-117636637D01*
X131838491Y-117422784D01*
X131684660Y-117235340D01*
X131497216Y-117081509D01*
X131283363Y-116967202D01*
X131051318Y-116896812D01*
X130870472Y-116879000D01*
X130749528Y-116879000D01*
X130568682Y-116896812D01*
X130336637Y-116967202D01*
X130122784Y-117081509D01*
X129935340Y-117235340D01*
X129781509Y-117422784D01*
X129667202Y-117636637D01*
X129596812Y-117868682D01*
X129573044Y-118110000D01*
X129506956Y-118110000D01*
X129483188Y-117868682D01*
X129412798Y-117636637D01*
X129298491Y-117422784D01*
X129144660Y-117235340D01*
X128957216Y-117081509D01*
X128743363Y-116967202D01*
X128511318Y-116896812D01*
X128330472Y-116879000D01*
X128209528Y-116879000D01*
X128028682Y-116896812D01*
X127796637Y-116967202D01*
X127582784Y-117081509D01*
X127395340Y-117235340D01*
X127241509Y-117422784D01*
X127127202Y-117636637D01*
X127056812Y-117868682D01*
X127033044Y-118110000D01*
X124866000Y-118110000D01*
X124866000Y-115570000D01*
X127033044Y-115570000D01*
X127056812Y-115811318D01*
X127127202Y-116043363D01*
X127241509Y-116257216D01*
X127395340Y-116444660D01*
X127582784Y-116598491D01*
X127796637Y-116712798D01*
X128028682Y-116783188D01*
X128209528Y-116801000D01*
X128330472Y-116801000D01*
X128511318Y-116783188D01*
X128743363Y-116712798D01*
X128957216Y-116598491D01*
X129144660Y-116444660D01*
X129298491Y-116257216D01*
X129412798Y-116043363D01*
X129483188Y-115811318D01*
X129506956Y-115570000D01*
X129573044Y-115570000D01*
X129596812Y-115811318D01*
X129667202Y-116043363D01*
X129781509Y-116257216D01*
X129935340Y-116444660D01*
X130122784Y-116598491D01*
X130336637Y-116712798D01*
X130568682Y-116783188D01*
X130749528Y-116801000D01*
X130870472Y-116801000D01*
X131051318Y-116783188D01*
X131283363Y-116712798D01*
X131497216Y-116598491D01*
X131684660Y-116444660D01*
X131838491Y-116257216D01*
X131952798Y-116043363D01*
X132023188Y-115811318D01*
X132046956Y-115570000D01*
X132028710Y-115384738D01*
X166739000Y-115384738D01*
X166739000Y-115755262D01*
X166811286Y-116118667D01*
X166953080Y-116460987D01*
X167158932Y-116769067D01*
X167420933Y-117031068D01*
X167729013Y-117236920D01*
X168071333Y-117378714D01*
X168434738Y-117451000D01*
X168805262Y-117451000D01*
X169168667Y-117378714D01*
X169510987Y-117236920D01*
X169819067Y-117031068D01*
X170081068Y-116769067D01*
X170146952Y-116670463D01*
X174837497Y-116670463D01*
X174966987Y-116903316D01*
X175245416Y-117063620D01*
X175549769Y-117166525D01*
X175868349Y-117208077D01*
X176188915Y-117186679D01*
X176499146Y-117103152D01*
X176787121Y-116960707D01*
X176873013Y-116903316D01*
X177002503Y-116670463D01*
X175920000Y-115587961D01*
X174837497Y-116670463D01*
X170146952Y-116670463D01*
X170286920Y-116460987D01*
X170428714Y-116118667D01*
X170501000Y-115755262D01*
X170501000Y-115518349D01*
X174281923Y-115518349D01*
X174303321Y-115838915D01*
X174386848Y-116149146D01*
X174529293Y-116437121D01*
X174586684Y-116523013D01*
X174819537Y-116652503D01*
X175902039Y-115570000D01*
X175937961Y-115570000D01*
X177020463Y-116652503D01*
X177253316Y-116523013D01*
X177413620Y-116244584D01*
X177516525Y-115940231D01*
X177558077Y-115621651D01*
X177536679Y-115301085D01*
X177453152Y-114990854D01*
X177310707Y-114702879D01*
X177253316Y-114616987D01*
X177020463Y-114487497D01*
X175937961Y-115570000D01*
X175902039Y-115570000D01*
X174819537Y-114487497D01*
X174586684Y-114616987D01*
X174426380Y-114895416D01*
X174323475Y-115199769D01*
X174281923Y-115518349D01*
X170501000Y-115518349D01*
X170501000Y-115384738D01*
X170428714Y-115021333D01*
X170286920Y-114679013D01*
X170146953Y-114469537D01*
X174837497Y-114469537D01*
X175920000Y-115552039D01*
X177002503Y-114469537D01*
X176873013Y-114236684D01*
X176594584Y-114076380D01*
X176290231Y-113973475D01*
X175971651Y-113931923D01*
X175651085Y-113953321D01*
X175340854Y-114036848D01*
X175052879Y-114179293D01*
X174966987Y-114236684D01*
X174837497Y-114469537D01*
X170146953Y-114469537D01*
X170081068Y-114370933D01*
X169819067Y-114108932D01*
X169510987Y-113903080D01*
X169168667Y-113761286D01*
X168805262Y-113689000D01*
X168434738Y-113689000D01*
X168071333Y-113761286D01*
X167729013Y-113903080D01*
X167420933Y-114108932D01*
X167158932Y-114370933D01*
X166953080Y-114679013D01*
X166811286Y-115021333D01*
X166739000Y-115384738D01*
X132028710Y-115384738D01*
X132023188Y-115328682D01*
X131952798Y-115096637D01*
X131838491Y-114882784D01*
X131684660Y-114695340D01*
X131497216Y-114541509D01*
X131283363Y-114427202D01*
X131051318Y-114356812D01*
X130870472Y-114339000D01*
X130749528Y-114339000D01*
X130568682Y-114356812D01*
X130336637Y-114427202D01*
X130122784Y-114541509D01*
X129935340Y-114695340D01*
X129781509Y-114882784D01*
X129667202Y-115096637D01*
X129596812Y-115328682D01*
X129573044Y-115570000D01*
X129506956Y-115570000D01*
X129483188Y-115328682D01*
X129412798Y-115096637D01*
X129298491Y-114882784D01*
X129144660Y-114695340D01*
X128957216Y-114541509D01*
X128743363Y-114427202D01*
X128511318Y-114356812D01*
X128330472Y-114339000D01*
X128209528Y-114339000D01*
X128028682Y-114356812D01*
X127796637Y-114427202D01*
X127582784Y-114541509D01*
X127395340Y-114695340D01*
X127241509Y-114882784D01*
X127127202Y-115096637D01*
X127056812Y-115328682D01*
X127033044Y-115570000D01*
X124866000Y-115570000D01*
X124866000Y-113030000D01*
X127033044Y-113030000D01*
X127056812Y-113271318D01*
X127127202Y-113503363D01*
X127241509Y-113717216D01*
X127395340Y-113904660D01*
X127582784Y-114058491D01*
X127796637Y-114172798D01*
X128028682Y-114243188D01*
X128209528Y-114261000D01*
X128330472Y-114261000D01*
X128511318Y-114243188D01*
X128743363Y-114172798D01*
X128957216Y-114058491D01*
X129144660Y-113904660D01*
X129298491Y-113717216D01*
X129412798Y-113503363D01*
X129483188Y-113271318D01*
X129506956Y-113030000D01*
X129573044Y-113030000D01*
X129596812Y-113271318D01*
X129667202Y-113503363D01*
X129781509Y-113717216D01*
X129935340Y-113904660D01*
X130122784Y-114058491D01*
X130336637Y-114172798D01*
X130568682Y-114243188D01*
X130749528Y-114261000D01*
X130870472Y-114261000D01*
X131051318Y-114243188D01*
X131283363Y-114172798D01*
X131497216Y-114058491D01*
X131684660Y-113904660D01*
X131838491Y-113717216D01*
X131952798Y-113503363D01*
X132023188Y-113271318D01*
X132046956Y-113030000D01*
X132023188Y-112788682D01*
X131952798Y-112556637D01*
X131838491Y-112342784D01*
X131684660Y-112155340D01*
X131497216Y-112001509D01*
X131283363Y-111887202D01*
X131051318Y-111816812D01*
X130870472Y-111799000D01*
X130749528Y-111799000D01*
X130568682Y-111816812D01*
X130336637Y-111887202D01*
X130122784Y-112001509D01*
X129935340Y-112155340D01*
X129781509Y-112342784D01*
X129667202Y-112556637D01*
X129596812Y-112788682D01*
X129573044Y-113030000D01*
X129506956Y-113030000D01*
X129483188Y-112788682D01*
X129412798Y-112556637D01*
X129298491Y-112342784D01*
X129144660Y-112155340D01*
X128957216Y-112001509D01*
X128743363Y-111887202D01*
X128511318Y-111816812D01*
X128330472Y-111799000D01*
X128209528Y-111799000D01*
X128028682Y-111816812D01*
X127796637Y-111887202D01*
X127582784Y-112001509D01*
X127395340Y-112155340D01*
X127241509Y-112342784D01*
X127127202Y-112556637D01*
X127056812Y-112788682D01*
X127033044Y-113030000D01*
X124866000Y-113030000D01*
X124866000Y-110490000D01*
X127033044Y-110490000D01*
X127056812Y-110731318D01*
X127127202Y-110963363D01*
X127241509Y-111177216D01*
X127395340Y-111364660D01*
X127582784Y-111518491D01*
X127796637Y-111632798D01*
X128028682Y-111703188D01*
X128209528Y-111721000D01*
X128330472Y-111721000D01*
X128511318Y-111703188D01*
X128743363Y-111632798D01*
X128957216Y-111518491D01*
X129144660Y-111364660D01*
X129298491Y-111177216D01*
X129412798Y-110963363D01*
X129483188Y-110731318D01*
X129506956Y-110490000D01*
X129573044Y-110490000D01*
X129596812Y-110731318D01*
X129667202Y-110963363D01*
X129781509Y-111177216D01*
X129935340Y-111364660D01*
X130122784Y-111518491D01*
X130336637Y-111632798D01*
X130568682Y-111703188D01*
X130749528Y-111721000D01*
X130870472Y-111721000D01*
X131051318Y-111703188D01*
X131283363Y-111632798D01*
X131497216Y-111518491D01*
X131684660Y-111364660D01*
X131838491Y-111177216D01*
X131952798Y-110963363D01*
X132023188Y-110731318D01*
X132046956Y-110490000D01*
X132023188Y-110248682D01*
X131952798Y-110016637D01*
X131838491Y-109802784D01*
X131684660Y-109615340D01*
X131497216Y-109461509D01*
X131283363Y-109347202D01*
X131051318Y-109276812D01*
X130870472Y-109259000D01*
X130749528Y-109259000D01*
X130568682Y-109276812D01*
X130336637Y-109347202D01*
X130122784Y-109461509D01*
X129935340Y-109615340D01*
X129781509Y-109802784D01*
X129667202Y-110016637D01*
X129596812Y-110248682D01*
X129573044Y-110490000D01*
X129506956Y-110490000D01*
X129483188Y-110248682D01*
X129412798Y-110016637D01*
X129298491Y-109802784D01*
X129144660Y-109615340D01*
X128957216Y-109461509D01*
X128743363Y-109347202D01*
X128511318Y-109276812D01*
X128330472Y-109259000D01*
X128209528Y-109259000D01*
X128028682Y-109276812D01*
X127796637Y-109347202D01*
X127582784Y-109461509D01*
X127395340Y-109615340D01*
X127241509Y-109802784D01*
X127127202Y-110016637D01*
X127056812Y-110248682D01*
X127033044Y-110490000D01*
X124866000Y-110490000D01*
X124866000Y-107950000D01*
X127033044Y-107950000D01*
X127056812Y-108191318D01*
X127127202Y-108423363D01*
X127241509Y-108637216D01*
X127395340Y-108824660D01*
X127582784Y-108978491D01*
X127796637Y-109092798D01*
X128028682Y-109163188D01*
X128209528Y-109181000D01*
X128330472Y-109181000D01*
X128511318Y-109163188D01*
X128743363Y-109092798D01*
X128957216Y-108978491D01*
X129144660Y-108824660D01*
X129298491Y-108637216D01*
X129412798Y-108423363D01*
X129483188Y-108191318D01*
X129506956Y-107950000D01*
X129573044Y-107950000D01*
X129596812Y-108191318D01*
X129667202Y-108423363D01*
X129781509Y-108637216D01*
X129935340Y-108824660D01*
X130122784Y-108978491D01*
X130336637Y-109092798D01*
X130568682Y-109163188D01*
X130749528Y-109181000D01*
X130870472Y-109181000D01*
X131051318Y-109163188D01*
X131283363Y-109092798D01*
X131497216Y-108978491D01*
X131565709Y-108922280D01*
X150514000Y-108922280D01*
X150514000Y-109167720D01*
X150561883Y-109408445D01*
X150655809Y-109635202D01*
X150792168Y-109839279D01*
X150965721Y-110012832D01*
X151169798Y-110149191D01*
X151396555Y-110243117D01*
X151637280Y-110291000D01*
X151882720Y-110291000D01*
X152123445Y-110243117D01*
X152350202Y-110149191D01*
X152554279Y-110012832D01*
X152727832Y-109839279D01*
X152864191Y-109635202D01*
X152958117Y-109408445D01*
X153006000Y-109167720D01*
X153006000Y-108922280D01*
X152958117Y-108681555D01*
X152864191Y-108454798D01*
X152727832Y-108250721D01*
X152554279Y-108077168D01*
X152350202Y-107940809D01*
X152123445Y-107846883D01*
X151882720Y-107799000D01*
X151637280Y-107799000D01*
X151396555Y-107846883D01*
X151169798Y-107940809D01*
X150965721Y-108077168D01*
X150792168Y-108250721D01*
X150655809Y-108454798D01*
X150561883Y-108681555D01*
X150514000Y-108922280D01*
X131565709Y-108922280D01*
X131684660Y-108824660D01*
X131838491Y-108637216D01*
X131952798Y-108423363D01*
X132023188Y-108191318D01*
X132046956Y-107950000D01*
X132023188Y-107708682D01*
X131952798Y-107476637D01*
X131838491Y-107262784D01*
X131684660Y-107075340D01*
X131498156Y-106922280D01*
X145444000Y-106922280D01*
X145444000Y-107167720D01*
X145491883Y-107408445D01*
X145585809Y-107635202D01*
X145722168Y-107839279D01*
X145895721Y-108012832D01*
X146099798Y-108149191D01*
X146326555Y-108243117D01*
X146567280Y-108291000D01*
X146812720Y-108291000D01*
X147053445Y-108243117D01*
X147280202Y-108149191D01*
X147484279Y-108012832D01*
X147657832Y-107839279D01*
X147794191Y-107635202D01*
X147888117Y-107408445D01*
X147936000Y-107167720D01*
X147936000Y-106922280D01*
X147888117Y-106681555D01*
X147794191Y-106454798D01*
X147657832Y-106250721D01*
X147484279Y-106077168D01*
X147426998Y-106038894D01*
X147498937Y-105871897D01*
X150951063Y-105871897D01*
X151034388Y-106065326D01*
X151247385Y-106187281D01*
X151480083Y-106265338D01*
X151723537Y-106296498D01*
X151968393Y-106279565D01*
X152205240Y-106215187D01*
X152424978Y-106105840D01*
X152485612Y-106065326D01*
X152568937Y-105871897D01*
X151760000Y-105062961D01*
X150951063Y-105871897D01*
X147498937Y-105871897D01*
X146690000Y-105062961D01*
X145881063Y-105871897D01*
X145953002Y-106038894D01*
X145895721Y-106077168D01*
X145722168Y-106250721D01*
X145585809Y-106454798D01*
X145491883Y-106681555D01*
X145444000Y-106922280D01*
X131498156Y-106922280D01*
X131497216Y-106921509D01*
X131283363Y-106807202D01*
X131051318Y-106736812D01*
X130870472Y-106719000D01*
X130749528Y-106719000D01*
X130568682Y-106736812D01*
X130336637Y-106807202D01*
X130122784Y-106921509D01*
X129935340Y-107075340D01*
X129781509Y-107262784D01*
X129667202Y-107476637D01*
X129596812Y-107708682D01*
X129573044Y-107950000D01*
X129506956Y-107950000D01*
X129483188Y-107708682D01*
X129412798Y-107476637D01*
X129298491Y-107262784D01*
X129144660Y-107075340D01*
X128957216Y-106921509D01*
X128743363Y-106807202D01*
X128511318Y-106736812D01*
X128330472Y-106719000D01*
X128209528Y-106719000D01*
X128028682Y-106736812D01*
X127796637Y-106807202D01*
X127582784Y-106921509D01*
X127395340Y-107075340D01*
X127241509Y-107262784D01*
X127127202Y-107476637D01*
X127056812Y-107708682D01*
X127033044Y-107950000D01*
X124866000Y-107950000D01*
X124866000Y-105410000D01*
X127033044Y-105410000D01*
X127056812Y-105651318D01*
X127127202Y-105883363D01*
X127241509Y-106097216D01*
X127395340Y-106284660D01*
X127582784Y-106438491D01*
X127796637Y-106552798D01*
X128028682Y-106623188D01*
X128209528Y-106641000D01*
X128330472Y-106641000D01*
X128511318Y-106623188D01*
X128743363Y-106552798D01*
X128957216Y-106438491D01*
X129144660Y-106284660D01*
X129298491Y-106097216D01*
X129412798Y-105883363D01*
X129483188Y-105651318D01*
X129506956Y-105410000D01*
X129573044Y-105410000D01*
X129596812Y-105651318D01*
X129667202Y-105883363D01*
X129781509Y-106097216D01*
X129935340Y-106284660D01*
X130122784Y-106438491D01*
X130336637Y-106552798D01*
X130568682Y-106623188D01*
X130749528Y-106641000D01*
X130870472Y-106641000D01*
X131051318Y-106623188D01*
X131283363Y-106552798D01*
X131497216Y-106438491D01*
X131684660Y-106284660D01*
X131838491Y-106097216D01*
X131952798Y-105883363D01*
X132023188Y-105651318D01*
X132046956Y-105410000D01*
X132023188Y-105168682D01*
X131974609Y-105008537D01*
X145438502Y-105008537D01*
X145455435Y-105253393D01*
X145519813Y-105490240D01*
X145629160Y-105709978D01*
X145669674Y-105770612D01*
X145863103Y-105853937D01*
X146672039Y-105045000D01*
X146707961Y-105045000D01*
X147516897Y-105853937D01*
X147710326Y-105770612D01*
X147832281Y-105557615D01*
X147910338Y-105324917D01*
X147941498Y-105081463D01*
X147936455Y-105008537D01*
X150508502Y-105008537D01*
X150525435Y-105253393D01*
X150589813Y-105490240D01*
X150699160Y-105709978D01*
X150739674Y-105770612D01*
X150933103Y-105853937D01*
X151742039Y-105045000D01*
X151777961Y-105045000D01*
X152586897Y-105853937D01*
X152780326Y-105770612D01*
X152902281Y-105557615D01*
X152980338Y-105324917D01*
X153011498Y-105081463D01*
X152994565Y-104836607D01*
X152930187Y-104599760D01*
X152820840Y-104380022D01*
X152780326Y-104319388D01*
X152586897Y-104236063D01*
X151777961Y-105045000D01*
X151742039Y-105045000D01*
X150933103Y-104236063D01*
X150739674Y-104319388D01*
X150617719Y-104532385D01*
X150539662Y-104765083D01*
X150508502Y-105008537D01*
X147936455Y-105008537D01*
X147924565Y-104836607D01*
X147860187Y-104599760D01*
X147750840Y-104380022D01*
X147710326Y-104319388D01*
X147516897Y-104236063D01*
X146707961Y-105045000D01*
X146672039Y-105045000D01*
X145863103Y-104236063D01*
X145669674Y-104319388D01*
X145547719Y-104532385D01*
X145469662Y-104765083D01*
X145438502Y-105008537D01*
X131974609Y-105008537D01*
X131952798Y-104936637D01*
X131838491Y-104722784D01*
X131684660Y-104535340D01*
X131497216Y-104381509D01*
X131283363Y-104267202D01*
X131051318Y-104196812D01*
X130870472Y-104179000D01*
X130749528Y-104179000D01*
X130568682Y-104196812D01*
X130336637Y-104267202D01*
X130122784Y-104381509D01*
X129935340Y-104535340D01*
X129781509Y-104722784D01*
X129667202Y-104936637D01*
X129596812Y-105168682D01*
X129573044Y-105410000D01*
X129506956Y-105410000D01*
X129483188Y-105168682D01*
X129412798Y-104936637D01*
X129298491Y-104722784D01*
X129144660Y-104535340D01*
X128957216Y-104381509D01*
X128743363Y-104267202D01*
X128511318Y-104196812D01*
X128330472Y-104179000D01*
X128209528Y-104179000D01*
X128028682Y-104196812D01*
X127796637Y-104267202D01*
X127582784Y-104381509D01*
X127395340Y-104535340D01*
X127241509Y-104722784D01*
X127127202Y-104936637D01*
X127056812Y-105168682D01*
X127033044Y-105410000D01*
X124866000Y-105410000D01*
X124866000Y-102870000D01*
X127033044Y-102870000D01*
X127056812Y-103111318D01*
X127127202Y-103343363D01*
X127241509Y-103557216D01*
X127395340Y-103744660D01*
X127582784Y-103898491D01*
X127796637Y-104012798D01*
X128028682Y-104083188D01*
X128209528Y-104101000D01*
X128330472Y-104101000D01*
X128511318Y-104083188D01*
X128743363Y-104012798D01*
X128957216Y-103898491D01*
X129144660Y-103744660D01*
X129298491Y-103557216D01*
X129412798Y-103343363D01*
X129483188Y-103111318D01*
X129506956Y-102870000D01*
X129573044Y-102870000D01*
X129596812Y-103111318D01*
X129667202Y-103343363D01*
X129781509Y-103557216D01*
X129935340Y-103744660D01*
X130122784Y-103898491D01*
X130336637Y-104012798D01*
X130568682Y-104083188D01*
X130749528Y-104101000D01*
X130870472Y-104101000D01*
X131051318Y-104083188D01*
X131283363Y-104012798D01*
X131497216Y-103898491D01*
X131684660Y-103744660D01*
X131838491Y-103557216D01*
X131952798Y-103343363D01*
X132023188Y-103111318D01*
X132046956Y-102870000D01*
X132027740Y-102674889D01*
X135179000Y-102674889D01*
X135179000Y-103065111D01*
X135255129Y-103447836D01*
X135404461Y-103808355D01*
X135621257Y-104132814D01*
X135897186Y-104408743D01*
X136221645Y-104625539D01*
X136582164Y-104774871D01*
X136964889Y-104851000D01*
X137355111Y-104851000D01*
X137737836Y-104774871D01*
X138098355Y-104625539D01*
X138422814Y-104408743D01*
X138698743Y-104132814D01*
X138915539Y-103808355D01*
X139064871Y-103447836D01*
X139141000Y-103065111D01*
X139141000Y-102922280D01*
X145444000Y-102922280D01*
X145444000Y-103167720D01*
X145491883Y-103408445D01*
X145585809Y-103635202D01*
X145722168Y-103839279D01*
X145895721Y-104012832D01*
X145953002Y-104051106D01*
X145881063Y-104218103D01*
X146690000Y-105027039D01*
X147498937Y-104218103D01*
X147426998Y-104051106D01*
X147484279Y-104012832D01*
X147657832Y-103839279D01*
X147794191Y-103635202D01*
X147888117Y-103408445D01*
X147936000Y-103167720D01*
X147936000Y-102922280D01*
X150514000Y-102922280D01*
X150514000Y-103167720D01*
X150561883Y-103408445D01*
X150655809Y-103635202D01*
X150792168Y-103839279D01*
X150965721Y-104012832D01*
X151023002Y-104051106D01*
X150951063Y-104218103D01*
X151760000Y-105027039D01*
X152568937Y-104218103D01*
X152501260Y-104061000D01*
X170241926Y-104061000D01*
X180404001Y-114223076D01*
X180404001Y-114287281D01*
X180380298Y-114303119D01*
X180153119Y-114530298D01*
X179974626Y-114797432D01*
X179851678Y-115094255D01*
X179789000Y-115409360D01*
X179789000Y-115730640D01*
X179794561Y-115758598D01*
X175109160Y-120444000D01*
X152482190Y-120444000D01*
X152350202Y-120355809D01*
X152123445Y-120261883D01*
X151882720Y-120214000D01*
X151637280Y-120214000D01*
X151396555Y-120261883D01*
X151169798Y-120355809D01*
X150965721Y-120492168D01*
X150792168Y-120665721D01*
X150655809Y-120869798D01*
X150561883Y-121096555D01*
X150514000Y-121337280D01*
X150514000Y-121582720D01*
X150561883Y-121823445D01*
X150655809Y-122050202D01*
X150792168Y-122254279D01*
X150965721Y-122427832D01*
X151023002Y-122466106D01*
X150951063Y-122633103D01*
X151760000Y-123442039D01*
X152568937Y-122633103D01*
X152501260Y-122476000D01*
X175480098Y-122476000D01*
X175530000Y-122480915D01*
X175579902Y-122476000D01*
X175729171Y-122461298D01*
X175920687Y-122403202D01*
X176097190Y-122308860D01*
X176251896Y-122181896D01*
X176283712Y-122143128D01*
X181231402Y-117195439D01*
X181259360Y-117201000D01*
X181580640Y-117201000D01*
X181895745Y-117138322D01*
X182192568Y-117015374D01*
X182459702Y-116836881D01*
X182686881Y-116609702D01*
X182865374Y-116342568D01*
X182988322Y-116045745D01*
X183051000Y-115730640D01*
X183051000Y-115409360D01*
X182988322Y-115094255D01*
X182865374Y-114797432D01*
X182686881Y-114530298D01*
X182459702Y-114303119D01*
X182436000Y-114287282D01*
X182436000Y-113852127D01*
X182440914Y-113802233D01*
X182436000Y-113752339D01*
X182436000Y-113752332D01*
X182421298Y-113603063D01*
X182363202Y-113411547D01*
X182268860Y-113235044D01*
X182141896Y-113080338D01*
X182103133Y-113048526D01*
X171729496Y-102674889D01*
X179629000Y-102674889D01*
X179629000Y-103065111D01*
X179705129Y-103447836D01*
X179854461Y-103808355D01*
X180071257Y-104132814D01*
X180347186Y-104408743D01*
X180671645Y-104625539D01*
X181032164Y-104774871D01*
X181414889Y-104851000D01*
X181805111Y-104851000D01*
X182187836Y-104774871D01*
X182548355Y-104625539D01*
X182872814Y-104408743D01*
X183148743Y-104132814D01*
X183365539Y-103808355D01*
X183514871Y-103447836D01*
X183591000Y-103065111D01*
X183591000Y-102674889D01*
X183514871Y-102292164D01*
X183365539Y-101931645D01*
X183148743Y-101607186D01*
X182872814Y-101331257D01*
X182548355Y-101114461D01*
X182187836Y-100965129D01*
X181805111Y-100889000D01*
X181414889Y-100889000D01*
X181032164Y-100965129D01*
X180671645Y-101114461D01*
X180347186Y-101331257D01*
X180071257Y-101607186D01*
X179854461Y-101931645D01*
X179705129Y-102292164D01*
X179629000Y-102674889D01*
X171729496Y-102674889D01*
X171416478Y-102361872D01*
X171384662Y-102323104D01*
X171229956Y-102196140D01*
X171053453Y-102101798D01*
X170861937Y-102043702D01*
X170712668Y-102029000D01*
X170662766Y-102024085D01*
X170612864Y-102029000D01*
X152482190Y-102029000D01*
X152350202Y-101940809D01*
X152123445Y-101846883D01*
X151882720Y-101799000D01*
X151637280Y-101799000D01*
X151396555Y-101846883D01*
X151169798Y-101940809D01*
X150965721Y-102077168D01*
X150792168Y-102250721D01*
X150655809Y-102454798D01*
X150561883Y-102681555D01*
X150514000Y-102922280D01*
X147936000Y-102922280D01*
X147888117Y-102681555D01*
X147794191Y-102454798D01*
X147657832Y-102250721D01*
X147484279Y-102077168D01*
X147280202Y-101940809D01*
X147053445Y-101846883D01*
X146812720Y-101799000D01*
X146567280Y-101799000D01*
X146326555Y-101846883D01*
X146099798Y-101940809D01*
X145895721Y-102077168D01*
X145722168Y-102250721D01*
X145585809Y-102454798D01*
X145491883Y-102681555D01*
X145444000Y-102922280D01*
X139141000Y-102922280D01*
X139141000Y-102674889D01*
X139064871Y-102292164D01*
X138915539Y-101931645D01*
X138698743Y-101607186D01*
X138422814Y-101331257D01*
X138098355Y-101114461D01*
X137737836Y-100965129D01*
X137355111Y-100889000D01*
X136964889Y-100889000D01*
X136582164Y-100965129D01*
X136221645Y-101114461D01*
X135897186Y-101331257D01*
X135621257Y-101607186D01*
X135404461Y-101931645D01*
X135255129Y-102292164D01*
X135179000Y-102674889D01*
X132027740Y-102674889D01*
X132023188Y-102628682D01*
X131952798Y-102396637D01*
X131838491Y-102182784D01*
X131684660Y-101995340D01*
X131497216Y-101841509D01*
X131283363Y-101727202D01*
X131051318Y-101656812D01*
X130870472Y-101639000D01*
X130749528Y-101639000D01*
X130568682Y-101656812D01*
X130336637Y-101727202D01*
X130122784Y-101841509D01*
X129935340Y-101995340D01*
X129781509Y-102182784D01*
X129667202Y-102396637D01*
X129596812Y-102628682D01*
X129573044Y-102870000D01*
X129506956Y-102870000D01*
X129483188Y-102628682D01*
X129412798Y-102396637D01*
X129298491Y-102182784D01*
X129144660Y-101995340D01*
X128957216Y-101841509D01*
X128743363Y-101727202D01*
X128511318Y-101656812D01*
X128330472Y-101639000D01*
X128209528Y-101639000D01*
X128028682Y-101656812D01*
X127796637Y-101727202D01*
X127582784Y-101841509D01*
X127395340Y-101995340D01*
X127241509Y-102182784D01*
X127127202Y-102396637D01*
X127056812Y-102628682D01*
X127033044Y-102870000D01*
X124866000Y-102870000D01*
X124866000Y-99466000D01*
X187554001Y-99466000D01*
X187554000Y-131674000D01*
M02*
