G04 #@! TF.GenerationSoftware,KiCad,Pcbnew,(5.1.12)-1*
G04 #@! TF.CreationDate,2022-02-08T13:08:19-06:00*
G04 #@! TF.ProjectId,power_supply_board,706f7765-725f-4737-9570-706c795f626f,4.2*
G04 #@! TF.SameCoordinates,Original*
G04 #@! TF.FileFunction,Legend,Bot*
G04 #@! TF.FilePolarity,Positive*
%FSLAX46Y46*%
G04 Gerber Fmt 4.6, Leading zero omitted, Abs format (unit mm)*
G04 Created by KiCad (PCBNEW (5.1.12)-1) date 2022-02-08 13:08:19*
%MOMM*%
%LPD*%
G01*
G04 APERTURE LIST*
%ADD10C,0.300000*%
%ADD11C,0.149860*%
G04 APERTURE END LIST*
D10*
X159399871Y-109900257D02*
X159185585Y-109971685D01*
X159114157Y-110043114D01*
X159042728Y-110185971D01*
X159042728Y-110400257D01*
X159114157Y-110543114D01*
X159185585Y-110614542D01*
X159328442Y-110685971D01*
X159899871Y-110685971D01*
X159899871Y-109185971D01*
X159399871Y-109185971D01*
X159257014Y-109257400D01*
X159185585Y-109328828D01*
X159114157Y-109471685D01*
X159114157Y-109614542D01*
X159185585Y-109757400D01*
X159257014Y-109828828D01*
X159399871Y-109900257D01*
X159899871Y-109900257D01*
X158471300Y-110257400D02*
X157757014Y-110257400D01*
X158614157Y-110685971D02*
X158114157Y-109185971D01*
X157614157Y-110685971D01*
X157328442Y-109185971D02*
X156471300Y-109185971D01*
X156899871Y-110685971D02*
X156899871Y-109185971D01*
X156185585Y-109185971D02*
X155328442Y-109185971D01*
X155757014Y-110685971D02*
X155757014Y-109185971D01*
X158914957Y-120395300D02*
X159057814Y-120323871D01*
X159272100Y-120323871D01*
X159486385Y-120395300D01*
X159629242Y-120538157D01*
X159700671Y-120681014D01*
X159772100Y-120966728D01*
X159772100Y-121181014D01*
X159700671Y-121466728D01*
X159629242Y-121609585D01*
X159486385Y-121752442D01*
X159272100Y-121823871D01*
X159129242Y-121823871D01*
X158914957Y-121752442D01*
X158843528Y-121681014D01*
X158843528Y-121181014D01*
X159129242Y-121181014D01*
X158200671Y-121823871D02*
X158200671Y-120323871D01*
X157343528Y-121823871D01*
X157343528Y-120323871D01*
X156629242Y-121823871D02*
X156629242Y-120323871D01*
X156272100Y-120323871D01*
X156057814Y-120395300D01*
X155914957Y-120538157D01*
X155843528Y-120681014D01*
X155772100Y-120966728D01*
X155772100Y-121181014D01*
X155843528Y-121466728D01*
X155914957Y-121609585D01*
X156057814Y-121752442D01*
X156272100Y-121823871D01*
X156629242Y-121823871D01*
D11*
X150319014Y-131078514D02*
X149847300Y-131078514D01*
X150101300Y-131368800D01*
X149992442Y-131368800D01*
X149919871Y-131405085D01*
X149883585Y-131441371D01*
X149847300Y-131513942D01*
X149847300Y-131695371D01*
X149883585Y-131767942D01*
X149919871Y-131804228D01*
X149992442Y-131840514D01*
X150210157Y-131840514D01*
X150282728Y-131804228D01*
X150319014Y-131767942D01*
X149520728Y-131550228D02*
X148940157Y-131550228D01*
X148432157Y-131078514D02*
X148359585Y-131078514D01*
X148287014Y-131114800D01*
X148250728Y-131151085D01*
X148214442Y-131223657D01*
X148178157Y-131368800D01*
X148178157Y-131550228D01*
X148214442Y-131695371D01*
X148250728Y-131767942D01*
X148287014Y-131804228D01*
X148359585Y-131840514D01*
X148432157Y-131840514D01*
X148504728Y-131804228D01*
X148541014Y-131767942D01*
X148577300Y-131695371D01*
X148613585Y-131550228D01*
X148613585Y-131368800D01*
X148577300Y-131223657D01*
X148541014Y-131151085D01*
X148504728Y-131114800D01*
X148432157Y-131078514D01*
X147706442Y-131078514D02*
X147633871Y-131078514D01*
X147561300Y-131114800D01*
X147525014Y-131151085D01*
X147488728Y-131223657D01*
X147452442Y-131368800D01*
X147452442Y-131550228D01*
X147488728Y-131695371D01*
X147525014Y-131767942D01*
X147561300Y-131804228D01*
X147633871Y-131840514D01*
X147706442Y-131840514D01*
X147779014Y-131804228D01*
X147815300Y-131767942D01*
X147851585Y-131695371D01*
X147887871Y-131550228D01*
X147887871Y-131368800D01*
X147851585Y-131223657D01*
X147815300Y-131151085D01*
X147779014Y-131114800D01*
X147706442Y-131078514D01*
X146980728Y-131078514D02*
X146908157Y-131078514D01*
X146835585Y-131114800D01*
X146799300Y-131151085D01*
X146763014Y-131223657D01*
X146726728Y-131368800D01*
X146726728Y-131550228D01*
X146763014Y-131695371D01*
X146799300Y-131767942D01*
X146835585Y-131804228D01*
X146908157Y-131840514D01*
X146980728Y-131840514D01*
X147053300Y-131804228D01*
X147089585Y-131767942D01*
X147125871Y-131695371D01*
X147162157Y-131550228D01*
X147162157Y-131368800D01*
X147125871Y-131223657D01*
X147089585Y-131151085D01*
X147053300Y-131114800D01*
X146980728Y-131078514D01*
X146255014Y-131078514D02*
X146182442Y-131078514D01*
X146109871Y-131114800D01*
X146073585Y-131151085D01*
X146037300Y-131223657D01*
X146001014Y-131368800D01*
X146001014Y-131550228D01*
X146037300Y-131695371D01*
X146073585Y-131767942D01*
X146109871Y-131804228D01*
X146182442Y-131840514D01*
X146255014Y-131840514D01*
X146327585Y-131804228D01*
X146363871Y-131767942D01*
X146400157Y-131695371D01*
X146436442Y-131550228D01*
X146436442Y-131368800D01*
X146400157Y-131223657D01*
X146363871Y-131151085D01*
X146327585Y-131114800D01*
X146255014Y-131078514D01*
X145275300Y-131840514D02*
X145710728Y-131840514D01*
X145493014Y-131840514D02*
X145493014Y-131078514D01*
X145565585Y-131187371D01*
X145638157Y-131259942D01*
X145710728Y-131296228D01*
X144985014Y-131151085D02*
X144948728Y-131114800D01*
X144876157Y-131078514D01*
X144694728Y-131078514D01*
X144622157Y-131114800D01*
X144585871Y-131151085D01*
X144549585Y-131223657D01*
X144549585Y-131296228D01*
X144585871Y-131405085D01*
X145021300Y-131840514D01*
X144549585Y-131840514D01*
X143896442Y-131332514D02*
X143896442Y-131840514D01*
X144077871Y-131042228D02*
X144259300Y-131586514D01*
X143787585Y-131586514D01*
M02*
