M48
; DRILL file {KiCad (5.1.2)-1} date 11/5/2019 3:11:00 PM
; FORMAT={-:-/ absolute / inch / decimal}
; #@! TF.CreationDate,2019-11-05T15:11:00-06:00
; #@! TF.GenerationSoftware,Kicad,Pcbnew,(5.1.2)-1
; #@! TF.FileFunction,Plated,1,4,PTH
FMAT,2
INCH
T1C0.0394
T2C0.0406
T3C0.0709
%
G90
G05
T1
X5.05Y-4.05
X5.05Y-4.15
X5.05Y-4.25
X5.05Y-4.35
X5.05Y-4.45
X5.05Y-4.55
X5.05Y-4.65
X5.05Y-4.75
X5.05Y-4.85
X5.05Y-4.95
X5.05Y-5.05
X5.15Y-4.05
X5.15Y-4.15
X5.15Y-4.25
X5.15Y-4.35
X5.15Y-4.45
X5.15Y-4.55
X5.15Y-4.65
X5.15Y-4.75
X5.15Y-4.85
X5.15Y-4.95
X5.15Y-5.05
T2
X5.7752Y-4.7819
X5.7752Y-4.8606
X5.7752Y-4.9394
X5.9748Y-4.7819
X5.9748Y-4.8606
X5.9748Y-5.0181
X5.7752Y-4.0569
X5.7752Y-4.1356
X5.7752Y-4.2144
X5.9748Y-4.0569
X5.9748Y-4.1356
X5.9748Y-4.2931
T3
X6.926Y-4.55
X7.1425Y-4.55
T0
M30
