M48
; DRILL file {KiCad (5.1.2)-1} date 11/5/2019 3:03:06 PM
; FORMAT={-:-/ absolute / inch / decimal}
; #@! TF.CreationDate,2019-11-05T15:03:06-06:00
; #@! TF.GenerationSoftware,Kicad,Pcbnew,(5.1.2)-1
; #@! TF.FileFunction,Plated,1,2,PTH
FMAT,2
INCH
T1C0.0100
T2C0.0394
T3C0.1260
%
G90
G05
T1
X5.1449Y-3.3778
X5.655Y-3.67
X5.6565Y-4.0
X5.681Y-3.67
X5.685Y-4.1
X5.71Y-4.2
X5.745Y-4.3
X6.05Y-3.8
X6.085Y-3.405
T2
X4.69Y-3.6
X4.69Y-4.4
X4.79Y-3.6
X4.79Y-4.4
X4.89Y-3.6
X4.89Y-4.4
X4.99Y-3.6
X4.99Y-4.4
X5.09Y-3.6
X5.09Y-4.4
X5.19Y-3.6
X5.19Y-4.4
X5.29Y-3.6
X5.29Y-4.4
X5.98Y-3.5
X5.98Y-3.6
X5.98Y-3.7
X5.98Y-3.8
X5.98Y-3.9
X5.98Y-4.0
X5.98Y-4.1
X5.98Y-4.2
X5.98Y-4.3
X5.98Y-4.4
X5.98Y-4.5
T3
X5.74Y-4.5
X5.74Y-3.5
T0
M30
