G04 #@! TF.GenerationSoftware,KiCad,Pcbnew,(5.1.2)-1*
G04 #@! TF.CreationDate,2019-10-29T15:19:47-05:00*
G04 #@! TF.ProjectId,laser_mount_board,6c617365-725f-46d6-9f75-6e745f626f61,rev?*
G04 #@! TF.SameCoordinates,Original*
G04 #@! TF.FileFunction,Legend,Top*
G04 #@! TF.FilePolarity,Positive*
%FSLAX46Y46*%
G04 Gerber Fmt 4.6, Leading zero omitted, Abs format (unit mm)*
G04 Created by KiCad (PCBNEW (5.1.2)-1) date 2019-10-29 15:19:47*
%MOMM*%
%LPD*%
G04 APERTURE LIST*
%ADD10C,0.150000*%
%ADD11C,0.120000*%
G04 APERTURE END LIST*
D10*
X118407071Y-113859714D02*
X118552214Y-113859714D01*
X118624785Y-113896000D01*
X118697357Y-113968571D01*
X118733642Y-114113714D01*
X118733642Y-114367714D01*
X118697357Y-114512857D01*
X118624785Y-114585428D01*
X118552214Y-114621714D01*
X118407071Y-114621714D01*
X118334500Y-114585428D01*
X118261928Y-114512857D01*
X118225642Y-114367714D01*
X118225642Y-114113714D01*
X118261928Y-113968571D01*
X118334500Y-113896000D01*
X118407071Y-113859714D01*
X119314214Y-114222571D02*
X119060214Y-114222571D01*
X119060214Y-114621714D02*
X119060214Y-113859714D01*
X119423071Y-113859714D01*
X119677071Y-114585428D02*
X119785928Y-114621714D01*
X119967357Y-114621714D01*
X120039928Y-114585428D01*
X120076214Y-114549142D01*
X120112500Y-114476571D01*
X120112500Y-114404000D01*
X120076214Y-114331428D01*
X120039928Y-114295142D01*
X119967357Y-114258857D01*
X119822214Y-114222571D01*
X119749642Y-114186285D01*
X119713357Y-114150000D01*
X119677071Y-114077428D01*
X119677071Y-114004857D01*
X119713357Y-113932285D01*
X119749642Y-113896000D01*
X119822214Y-113859714D01*
X120003642Y-113859714D01*
X120112500Y-113896000D01*
X120439071Y-114621714D02*
X120439071Y-113859714D01*
X121817928Y-114621714D02*
X121563928Y-114258857D01*
X121382500Y-114621714D02*
X121382500Y-113859714D01*
X121672785Y-113859714D01*
X121745357Y-113896000D01*
X121781642Y-113932285D01*
X121817928Y-114004857D01*
X121817928Y-114113714D01*
X121781642Y-114186285D01*
X121745357Y-114222571D01*
X121672785Y-114258857D01*
X121382500Y-114258857D01*
X122434785Y-114585428D02*
X122362214Y-114621714D01*
X122217071Y-114621714D01*
X122144500Y-114585428D01*
X122108214Y-114512857D01*
X122108214Y-114222571D01*
X122144500Y-114150000D01*
X122217071Y-114113714D01*
X122362214Y-114113714D01*
X122434785Y-114150000D01*
X122471071Y-114222571D01*
X122471071Y-114295142D01*
X122108214Y-114367714D01*
X122725071Y-114113714D02*
X122906500Y-114621714D01*
X123087928Y-114113714D01*
X123378214Y-114549142D02*
X123414500Y-114585428D01*
X123378214Y-114621714D01*
X123341928Y-114585428D01*
X123378214Y-114549142D01*
X123378214Y-114621714D01*
X124466785Y-113859714D02*
X124539357Y-113859714D01*
X124611928Y-113896000D01*
X124648214Y-113932285D01*
X124684500Y-114004857D01*
X124720785Y-114150000D01*
X124720785Y-114331428D01*
X124684500Y-114476571D01*
X124648214Y-114549142D01*
X124611928Y-114585428D01*
X124539357Y-114621714D01*
X124466785Y-114621714D01*
X124394214Y-114585428D01*
X124357928Y-114549142D01*
X124321642Y-114476571D01*
X124285357Y-114331428D01*
X124285357Y-114150000D01*
X124321642Y-114004857D01*
X124357928Y-113932285D01*
X124394214Y-113896000D01*
X124466785Y-113859714D01*
X125373928Y-114113714D02*
X125373928Y-114621714D01*
X125192500Y-113823428D02*
X125011071Y-114367714D01*
X125482785Y-114367714D01*
X118624785Y-115914714D02*
X118261928Y-115914714D01*
X118261928Y-115152714D01*
X119205357Y-115914714D02*
X119205357Y-115515571D01*
X119169071Y-115443000D01*
X119096500Y-115406714D01*
X118951357Y-115406714D01*
X118878785Y-115443000D01*
X119205357Y-115878428D02*
X119132785Y-115914714D01*
X118951357Y-115914714D01*
X118878785Y-115878428D01*
X118842500Y-115805857D01*
X118842500Y-115733285D01*
X118878785Y-115660714D01*
X118951357Y-115624428D01*
X119132785Y-115624428D01*
X119205357Y-115588142D01*
X119531928Y-115878428D02*
X119604500Y-115914714D01*
X119749642Y-115914714D01*
X119822214Y-115878428D01*
X119858500Y-115805857D01*
X119858500Y-115769571D01*
X119822214Y-115697000D01*
X119749642Y-115660714D01*
X119640785Y-115660714D01*
X119568214Y-115624428D01*
X119531928Y-115551857D01*
X119531928Y-115515571D01*
X119568214Y-115443000D01*
X119640785Y-115406714D01*
X119749642Y-115406714D01*
X119822214Y-115443000D01*
X120475357Y-115878428D02*
X120402785Y-115914714D01*
X120257642Y-115914714D01*
X120185071Y-115878428D01*
X120148785Y-115805857D01*
X120148785Y-115515571D01*
X120185071Y-115443000D01*
X120257642Y-115406714D01*
X120402785Y-115406714D01*
X120475357Y-115443000D01*
X120511642Y-115515571D01*
X120511642Y-115588142D01*
X120148785Y-115660714D01*
X120838214Y-115914714D02*
X120838214Y-115406714D01*
X120838214Y-115551857D02*
X120874500Y-115479285D01*
X120910785Y-115443000D01*
X120983357Y-115406714D01*
X121055928Y-115406714D01*
X121890500Y-115914714D02*
X121890500Y-115152714D01*
X122144500Y-115697000D01*
X122398500Y-115152714D01*
X122398500Y-115914714D01*
X122870214Y-115914714D02*
X122797642Y-115878428D01*
X122761357Y-115842142D01*
X122725071Y-115769571D01*
X122725071Y-115551857D01*
X122761357Y-115479285D01*
X122797642Y-115443000D01*
X122870214Y-115406714D01*
X122979071Y-115406714D01*
X123051642Y-115443000D01*
X123087928Y-115479285D01*
X123124214Y-115551857D01*
X123124214Y-115769571D01*
X123087928Y-115842142D01*
X123051642Y-115878428D01*
X122979071Y-115914714D01*
X122870214Y-115914714D01*
X123777357Y-115406714D02*
X123777357Y-115914714D01*
X123450785Y-115406714D02*
X123450785Y-115805857D01*
X123487071Y-115878428D01*
X123559642Y-115914714D01*
X123668500Y-115914714D01*
X123741071Y-115878428D01*
X123777357Y-115842142D01*
X124140214Y-115406714D02*
X124140214Y-115914714D01*
X124140214Y-115479285D02*
X124176500Y-115443000D01*
X124249071Y-115406714D01*
X124357928Y-115406714D01*
X124430500Y-115443000D01*
X124466785Y-115515571D01*
X124466785Y-115914714D01*
X124720785Y-115406714D02*
X125011071Y-115406714D01*
X124829642Y-115152714D02*
X124829642Y-115805857D01*
X124865928Y-115878428D01*
X124938500Y-115914714D01*
X125011071Y-115914714D01*
X126099642Y-115515571D02*
X126208500Y-115551857D01*
X126244785Y-115588142D01*
X126281071Y-115660714D01*
X126281071Y-115769571D01*
X126244785Y-115842142D01*
X126208500Y-115878428D01*
X126135928Y-115914714D01*
X125845642Y-115914714D01*
X125845642Y-115152714D01*
X126099642Y-115152714D01*
X126172214Y-115189000D01*
X126208500Y-115225285D01*
X126244785Y-115297857D01*
X126244785Y-115370428D01*
X126208500Y-115443000D01*
X126172214Y-115479285D01*
X126099642Y-115515571D01*
X125845642Y-115515571D01*
X126716500Y-115914714D02*
X126643928Y-115878428D01*
X126607642Y-115842142D01*
X126571357Y-115769571D01*
X126571357Y-115551857D01*
X126607642Y-115479285D01*
X126643928Y-115443000D01*
X126716500Y-115406714D01*
X126825357Y-115406714D01*
X126897928Y-115443000D01*
X126934214Y-115479285D01*
X126970500Y-115551857D01*
X126970500Y-115769571D01*
X126934214Y-115842142D01*
X126897928Y-115878428D01*
X126825357Y-115914714D01*
X126716500Y-115914714D01*
X127623642Y-115914714D02*
X127623642Y-115515571D01*
X127587357Y-115443000D01*
X127514785Y-115406714D01*
X127369642Y-115406714D01*
X127297071Y-115443000D01*
X127623642Y-115878428D02*
X127551071Y-115914714D01*
X127369642Y-115914714D01*
X127297071Y-115878428D01*
X127260785Y-115805857D01*
X127260785Y-115733285D01*
X127297071Y-115660714D01*
X127369642Y-115624428D01*
X127551071Y-115624428D01*
X127623642Y-115588142D01*
X127986500Y-115914714D02*
X127986500Y-115406714D01*
X127986500Y-115551857D02*
X128022785Y-115479285D01*
X128059071Y-115443000D01*
X128131642Y-115406714D01*
X128204214Y-115406714D01*
X128784785Y-115914714D02*
X128784785Y-115152714D01*
X128784785Y-115878428D02*
X128712214Y-115914714D01*
X128567071Y-115914714D01*
X128494500Y-115878428D01*
X128458214Y-115842142D01*
X128421928Y-115769571D01*
X128421928Y-115551857D01*
X128458214Y-115479285D01*
X128494500Y-115443000D01*
X128567071Y-115406714D01*
X128712214Y-115406714D01*
X128784785Y-115443000D01*
X118407071Y-116445714D02*
X118552214Y-116445714D01*
X118624785Y-116482000D01*
X118697357Y-116554571D01*
X118733642Y-116699714D01*
X118733642Y-116953714D01*
X118697357Y-117098857D01*
X118624785Y-117171428D01*
X118552214Y-117207714D01*
X118407071Y-117207714D01*
X118334500Y-117171428D01*
X118261928Y-117098857D01*
X118225642Y-116953714D01*
X118225642Y-116699714D01*
X118261928Y-116554571D01*
X118334500Y-116482000D01*
X118407071Y-116445714D01*
X119386785Y-117171428D02*
X119314214Y-117207714D01*
X119169071Y-117207714D01*
X119096500Y-117171428D01*
X119060214Y-117135142D01*
X119023928Y-117062571D01*
X119023928Y-116844857D01*
X119060214Y-116772285D01*
X119096500Y-116736000D01*
X119169071Y-116699714D01*
X119314214Y-116699714D01*
X119386785Y-116736000D01*
X119604500Y-116699714D02*
X119894785Y-116699714D01*
X119713357Y-116445714D02*
X119713357Y-117098857D01*
X119749642Y-117171428D01*
X119822214Y-117207714D01*
X119894785Y-117207714D01*
X120257642Y-117207714D02*
X120185071Y-117171428D01*
X120148785Y-117135142D01*
X120112500Y-117062571D01*
X120112500Y-116844857D01*
X120148785Y-116772285D01*
X120185071Y-116736000D01*
X120257642Y-116699714D01*
X120366500Y-116699714D01*
X120439071Y-116736000D01*
X120475357Y-116772285D01*
X120511642Y-116844857D01*
X120511642Y-117062571D01*
X120475357Y-117135142D01*
X120439071Y-117171428D01*
X120366500Y-117207714D01*
X120257642Y-117207714D01*
X120838214Y-117207714D02*
X120838214Y-116445714D01*
X120838214Y-116736000D02*
X120910785Y-116699714D01*
X121055928Y-116699714D01*
X121128500Y-116736000D01*
X121164785Y-116772285D01*
X121201071Y-116844857D01*
X121201071Y-117062571D01*
X121164785Y-117135142D01*
X121128500Y-117171428D01*
X121055928Y-117207714D01*
X120910785Y-117207714D01*
X120838214Y-117171428D01*
X121817928Y-117171428D02*
X121745357Y-117207714D01*
X121600214Y-117207714D01*
X121527642Y-117171428D01*
X121491357Y-117098857D01*
X121491357Y-116808571D01*
X121527642Y-116736000D01*
X121600214Y-116699714D01*
X121745357Y-116699714D01*
X121817928Y-116736000D01*
X121854214Y-116808571D01*
X121854214Y-116881142D01*
X121491357Y-116953714D01*
X122180785Y-117207714D02*
X122180785Y-116699714D01*
X122180785Y-116844857D02*
X122217071Y-116772285D01*
X122253357Y-116736000D01*
X122325928Y-116699714D01*
X122398500Y-116699714D01*
X123196785Y-116518285D02*
X123233071Y-116482000D01*
X123305642Y-116445714D01*
X123487071Y-116445714D01*
X123559642Y-116482000D01*
X123595928Y-116518285D01*
X123632214Y-116590857D01*
X123632214Y-116663428D01*
X123595928Y-116772285D01*
X123160500Y-117207714D01*
X123632214Y-117207714D01*
X124103928Y-116445714D02*
X124176500Y-116445714D01*
X124249071Y-116482000D01*
X124285357Y-116518285D01*
X124321642Y-116590857D01*
X124357928Y-116736000D01*
X124357928Y-116917428D01*
X124321642Y-117062571D01*
X124285357Y-117135142D01*
X124249071Y-117171428D01*
X124176500Y-117207714D01*
X124103928Y-117207714D01*
X124031357Y-117171428D01*
X123995071Y-117135142D01*
X123958785Y-117062571D01*
X123922500Y-116917428D01*
X123922500Y-116736000D01*
X123958785Y-116590857D01*
X123995071Y-116518285D01*
X124031357Y-116482000D01*
X124103928Y-116445714D01*
X125083642Y-117207714D02*
X124648214Y-117207714D01*
X124865928Y-117207714D02*
X124865928Y-116445714D01*
X124793357Y-116554571D01*
X124720785Y-116627142D01*
X124648214Y-116663428D01*
X125446500Y-117207714D02*
X125591642Y-117207714D01*
X125664214Y-117171428D01*
X125700500Y-117135142D01*
X125773071Y-117026285D01*
X125809357Y-116881142D01*
X125809357Y-116590857D01*
X125773071Y-116518285D01*
X125736785Y-116482000D01*
X125664214Y-116445714D01*
X125519071Y-116445714D01*
X125446500Y-116482000D01*
X125410214Y-116518285D01*
X125373928Y-116590857D01*
X125373928Y-116772285D01*
X125410214Y-116844857D01*
X125446500Y-116881142D01*
X125519071Y-116917428D01*
X125664214Y-116917428D01*
X125736785Y-116881142D01*
X125773071Y-116844857D01*
X125809357Y-116772285D01*
D11*
X150622000Y-87630000D02*
X151892000Y-87630000D01*
X150622000Y-88900000D02*
X150622000Y-87630000D01*
X152934929Y-114680000D02*
X153332000Y-114680000D01*
X152934929Y-113920000D02*
X153332000Y-113920000D01*
X161992000Y-114680000D02*
X155992000Y-114680000D01*
X161992000Y-113920000D02*
X161992000Y-114680000D01*
X155992000Y-113920000D02*
X161992000Y-113920000D01*
X153332000Y-113030000D02*
X155992000Y-113030000D01*
X152934929Y-112140000D02*
X153332000Y-112140000D01*
X152934929Y-111380000D02*
X153332000Y-111380000D01*
X161992000Y-112140000D02*
X155992000Y-112140000D01*
X161992000Y-111380000D02*
X161992000Y-112140000D01*
X155992000Y-111380000D02*
X161992000Y-111380000D01*
X153332000Y-110490000D02*
X155992000Y-110490000D01*
X152934929Y-109600000D02*
X153332000Y-109600000D01*
X152934929Y-108840000D02*
X153332000Y-108840000D01*
X161992000Y-109600000D02*
X155992000Y-109600000D01*
X161992000Y-108840000D02*
X161992000Y-109600000D01*
X155992000Y-108840000D02*
X161992000Y-108840000D01*
X153332000Y-107950000D02*
X155992000Y-107950000D01*
X152934929Y-107060000D02*
X153332000Y-107060000D01*
X152934929Y-106300000D02*
X153332000Y-106300000D01*
X161992000Y-107060000D02*
X155992000Y-107060000D01*
X161992000Y-106300000D02*
X161992000Y-107060000D01*
X155992000Y-106300000D02*
X161992000Y-106300000D01*
X153332000Y-105410000D02*
X155992000Y-105410000D01*
X152934929Y-104520000D02*
X153332000Y-104520000D01*
X152934929Y-103760000D02*
X153332000Y-103760000D01*
X161992000Y-104520000D02*
X155992000Y-104520000D01*
X161992000Y-103760000D02*
X161992000Y-104520000D01*
X155992000Y-103760000D02*
X161992000Y-103760000D01*
X153332000Y-102870000D02*
X155992000Y-102870000D01*
X152934929Y-101980000D02*
X153332000Y-101980000D01*
X152934929Y-101220000D02*
X153332000Y-101220000D01*
X161992000Y-101980000D02*
X155992000Y-101980000D01*
X161992000Y-101220000D02*
X161992000Y-101980000D01*
X155992000Y-101220000D02*
X161992000Y-101220000D01*
X153332000Y-100330000D02*
X155992000Y-100330000D01*
X152934929Y-99440000D02*
X153332000Y-99440000D01*
X152934929Y-98680000D02*
X153332000Y-98680000D01*
X161992000Y-99440000D02*
X155992000Y-99440000D01*
X161992000Y-98680000D02*
X161992000Y-99440000D01*
X155992000Y-98680000D02*
X161992000Y-98680000D01*
X153332000Y-97790000D02*
X155992000Y-97790000D01*
X152934929Y-96900000D02*
X153332000Y-96900000D01*
X152934929Y-96140000D02*
X153332000Y-96140000D01*
X161992000Y-96900000D02*
X155992000Y-96900000D01*
X161992000Y-96140000D02*
X161992000Y-96900000D01*
X155992000Y-96140000D02*
X161992000Y-96140000D01*
X153332000Y-95250000D02*
X155992000Y-95250000D01*
X152934929Y-94360000D02*
X153332000Y-94360000D01*
X152934929Y-93600000D02*
X153332000Y-93600000D01*
X161992000Y-94360000D02*
X155992000Y-94360000D01*
X161992000Y-93600000D02*
X161992000Y-94360000D01*
X155992000Y-93600000D02*
X161992000Y-93600000D01*
X153332000Y-92710000D02*
X155992000Y-92710000D01*
X152934929Y-91820000D02*
X153332000Y-91820000D01*
X152934929Y-91060000D02*
X153332000Y-91060000D01*
X161992000Y-91820000D02*
X155992000Y-91820000D01*
X161992000Y-91060000D02*
X161992000Y-91820000D01*
X155992000Y-91060000D02*
X161992000Y-91060000D01*
X153332000Y-90170000D02*
X155992000Y-90170000D01*
X153002000Y-89280000D02*
X153332000Y-89280000D01*
X153002000Y-88520000D02*
X153332000Y-88520000D01*
X155992000Y-89180000D02*
X161992000Y-89180000D01*
X155992000Y-89060000D02*
X161992000Y-89060000D01*
X155992000Y-88940000D02*
X161992000Y-88940000D01*
X155992000Y-88820000D02*
X161992000Y-88820000D01*
X155992000Y-88700000D02*
X161992000Y-88700000D01*
X155992000Y-88580000D02*
X161992000Y-88580000D01*
X161992000Y-89280000D02*
X155992000Y-89280000D01*
X161992000Y-88520000D02*
X161992000Y-89280000D01*
X155992000Y-88520000D02*
X161992000Y-88520000D01*
X155992000Y-87570000D02*
X153332000Y-87570000D01*
X155992000Y-115630000D02*
X155992000Y-87570000D01*
X153332000Y-115630000D02*
X155992000Y-115630000D01*
X153332000Y-87570000D02*
X153332000Y-115630000D01*
M02*
