G04 #@! TF.GenerationSoftware,KiCad,Pcbnew,(5.1.2)-1*
G04 #@! TF.CreationDate,2019-11-05T15:03:04-06:00*
G04 #@! TF.ProjectId,laser_mount_board,6c617365-725f-46d6-9f75-6e745f626f61,rev?*
G04 #@! TF.SameCoordinates,Original*
G04 #@! TF.FileFunction,Legend,Bot*
G04 #@! TF.FilePolarity,Positive*
%FSLAX46Y46*%
G04 Gerber Fmt 4.6, Leading zero omitted, Abs format (unit mm)*
G04 Created by KiCad (PCBNEW (5.1.2)-1) date 2019-11-05 15:03:04*
%MOMM*%
%LPD*%
G04 APERTURE LIST*
%ADD10C,0.120000*%
%ADD11C,0.158750*%
%ADD12C,0.150000*%
G04 APERTURE END LIST*
D10*
X155829000Y-90170000D02*
X150622000Y-90170000D01*
X155829000Y-92710000D02*
X150622000Y-92710000D01*
X155829000Y-95250000D02*
X150622000Y-95250000D01*
X155829000Y-97790000D02*
X150622000Y-97790000D01*
X155829000Y-100330000D02*
X150622000Y-100330000D01*
X155829000Y-102870000D02*
X150622000Y-102870000D01*
X155829000Y-105410000D02*
X150622000Y-105410000D01*
X155829000Y-107950000D02*
X150622000Y-107950000D01*
X150622000Y-110490000D02*
X155829000Y-110490000D01*
X155829000Y-113030000D02*
X150622000Y-113030000D01*
X155829000Y-87630000D02*
X150622000Y-87630000D01*
X155829000Y-115570000D02*
X155829000Y-87630000D01*
X150622000Y-115570000D02*
X155829000Y-115570000D01*
X150622000Y-87630000D02*
X150622000Y-115570000D01*
D11*
X155544383Y-114644714D02*
X155544383Y-113882714D01*
X155108955Y-114644714D01*
X155108955Y-113882714D01*
X154310669Y-114572142D02*
X154346955Y-114608428D01*
X154455812Y-114644714D01*
X154528383Y-114644714D01*
X154637241Y-114608428D01*
X154709812Y-114535857D01*
X154746098Y-114463285D01*
X154782383Y-114318142D01*
X154782383Y-114209285D01*
X154746098Y-114064142D01*
X154709812Y-113991571D01*
X154637241Y-113919000D01*
X154528383Y-113882714D01*
X154455812Y-113882714D01*
X154346955Y-113919000D01*
X154310669Y-113955285D01*
X155181526Y-91784714D02*
X155544383Y-91784714D01*
X155544383Y-91022714D01*
X154927526Y-91784714D02*
X154927526Y-91022714D01*
X154746098Y-91022714D01*
X154637241Y-91059000D01*
X154564669Y-91131571D01*
X154528383Y-91204142D01*
X154492098Y-91349285D01*
X154492098Y-91458142D01*
X154528383Y-91603285D01*
X154564669Y-91675857D01*
X154637241Y-91748428D01*
X154746098Y-91784714D01*
X154927526Y-91784714D01*
X154201812Y-91567000D02*
X153838955Y-91567000D01*
X154274383Y-91784714D02*
X154020383Y-91022714D01*
X153766383Y-91784714D01*
X155544383Y-112104714D02*
X155544383Y-111342714D01*
X155108955Y-112104714D01*
X155108955Y-111342714D01*
X154310669Y-112032142D02*
X154346955Y-112068428D01*
X154455812Y-112104714D01*
X154528383Y-112104714D01*
X154637241Y-112068428D01*
X154709812Y-111995857D01*
X154746098Y-111923285D01*
X154782383Y-111778142D01*
X154782383Y-111669285D01*
X154746098Y-111524142D01*
X154709812Y-111451571D01*
X154637241Y-111379000D01*
X154528383Y-111342714D01*
X154455812Y-111342714D01*
X154346955Y-111379000D01*
X154310669Y-111415285D01*
X155653241Y-108802714D02*
X155217812Y-108802714D01*
X155435526Y-109564714D02*
X155435526Y-108802714D01*
X154963812Y-109165571D02*
X154709812Y-109165571D01*
X154600955Y-109564714D02*
X154963812Y-109564714D01*
X154963812Y-108802714D01*
X154600955Y-108802714D01*
X153838955Y-109492142D02*
X153875241Y-109528428D01*
X153984098Y-109564714D01*
X154056669Y-109564714D01*
X154165526Y-109528428D01*
X154238098Y-109455857D01*
X154274383Y-109383285D01*
X154310669Y-109238142D01*
X154310669Y-109129285D01*
X154274383Y-108984142D01*
X154238098Y-108911571D01*
X154165526Y-108839000D01*
X154056669Y-108802714D01*
X153984098Y-108802714D01*
X153875241Y-108839000D01*
X153838955Y-108875285D01*
X153512383Y-109274428D02*
X152931812Y-109274428D01*
X155653241Y-106262714D02*
X155217812Y-106262714D01*
X155435526Y-107024714D02*
X155435526Y-106262714D01*
X154963812Y-106625571D02*
X154709812Y-106625571D01*
X154600955Y-107024714D02*
X154963812Y-107024714D01*
X154963812Y-106262714D01*
X154600955Y-106262714D01*
X153838955Y-106952142D02*
X153875241Y-106988428D01*
X153984098Y-107024714D01*
X154056669Y-107024714D01*
X154165526Y-106988428D01*
X154238098Y-106915857D01*
X154274383Y-106843285D01*
X154310669Y-106698142D01*
X154310669Y-106589285D01*
X154274383Y-106444142D01*
X154238098Y-106371571D01*
X154165526Y-106299000D01*
X154056669Y-106262714D01*
X153984098Y-106262714D01*
X153875241Y-106299000D01*
X153838955Y-106335285D01*
X153512383Y-106734428D02*
X152931812Y-106734428D01*
X153222098Y-107024714D02*
X153222098Y-106444142D01*
X155526241Y-103722714D02*
X155090812Y-103722714D01*
X155308526Y-104484714D02*
X155308526Y-103722714D01*
X154401383Y-104484714D02*
X154655383Y-104121857D01*
X154836812Y-104484714D02*
X154836812Y-103722714D01*
X154546526Y-103722714D01*
X154473955Y-103759000D01*
X154437669Y-103795285D01*
X154401383Y-103867857D01*
X154401383Y-103976714D01*
X154437669Y-104049285D01*
X154473955Y-104085571D01*
X154546526Y-104121857D01*
X154836812Y-104121857D01*
X154074812Y-104484714D02*
X154074812Y-103722714D01*
X153820812Y-104267000D01*
X153566812Y-103722714D01*
X153566812Y-104484714D01*
X155526241Y-101182714D02*
X155090812Y-101182714D01*
X155308526Y-101944714D02*
X155308526Y-101182714D01*
X154401383Y-101944714D02*
X154655383Y-101581857D01*
X154836812Y-101944714D02*
X154836812Y-101182714D01*
X154546526Y-101182714D01*
X154473955Y-101219000D01*
X154437669Y-101255285D01*
X154401383Y-101327857D01*
X154401383Y-101436714D01*
X154437669Y-101509285D01*
X154473955Y-101545571D01*
X154546526Y-101581857D01*
X154836812Y-101581857D01*
X154074812Y-101944714D02*
X154074812Y-101182714D01*
X153820812Y-101727000D01*
X153566812Y-101182714D01*
X153566812Y-101944714D01*
X155544383Y-99404714D02*
X155544383Y-98642714D01*
X155254098Y-98642714D01*
X155181526Y-98679000D01*
X155145241Y-98715285D01*
X155108955Y-98787857D01*
X155108955Y-98896714D01*
X155145241Y-98969285D01*
X155181526Y-99005571D01*
X155254098Y-99041857D01*
X155544383Y-99041857D01*
X154782383Y-99404714D02*
X154782383Y-98642714D01*
X154600955Y-98642714D01*
X154492098Y-98679000D01*
X154419526Y-98751571D01*
X154383241Y-98824142D01*
X154346955Y-98969285D01*
X154346955Y-99078142D01*
X154383241Y-99223285D01*
X154419526Y-99295857D01*
X154492098Y-99368428D01*
X154600955Y-99404714D01*
X154782383Y-99404714D01*
X153584955Y-99332142D02*
X153621241Y-99368428D01*
X153730098Y-99404714D01*
X153802669Y-99404714D01*
X153911526Y-99368428D01*
X153984098Y-99295857D01*
X154020383Y-99223285D01*
X154056669Y-99078142D01*
X154056669Y-98969285D01*
X154020383Y-98824142D01*
X153984098Y-98751571D01*
X153911526Y-98679000D01*
X153802669Y-98642714D01*
X153730098Y-98642714D01*
X153621241Y-98679000D01*
X153584955Y-98715285D01*
X155544383Y-96864714D02*
X155544383Y-96102714D01*
X155254098Y-96102714D01*
X155181526Y-96139000D01*
X155145241Y-96175285D01*
X155108955Y-96247857D01*
X155108955Y-96356714D01*
X155145241Y-96429285D01*
X155181526Y-96465571D01*
X155254098Y-96501857D01*
X155544383Y-96501857D01*
X154782383Y-96864714D02*
X154782383Y-96102714D01*
X154600955Y-96102714D01*
X154492098Y-96139000D01*
X154419526Y-96211571D01*
X154383241Y-96284142D01*
X154346955Y-96429285D01*
X154346955Y-96538142D01*
X154383241Y-96683285D01*
X154419526Y-96755857D01*
X154492098Y-96828428D01*
X154600955Y-96864714D01*
X154782383Y-96864714D01*
X154056669Y-96647000D02*
X153693812Y-96647000D01*
X154129241Y-96864714D02*
X153875241Y-96102714D01*
X153621241Y-96864714D01*
X155181526Y-94451714D02*
X155544383Y-94451714D01*
X155544383Y-93689714D01*
X154927526Y-94451714D02*
X154927526Y-93689714D01*
X154746098Y-93689714D01*
X154637241Y-93726000D01*
X154564669Y-93798571D01*
X154528383Y-93871142D01*
X154492098Y-94016285D01*
X154492098Y-94125142D01*
X154528383Y-94270285D01*
X154564669Y-94342857D01*
X154637241Y-94415428D01*
X154746098Y-94451714D01*
X154927526Y-94451714D01*
X153730098Y-94379142D02*
X153766383Y-94415428D01*
X153875241Y-94451714D01*
X153947812Y-94451714D01*
X154056669Y-94415428D01*
X154129241Y-94342857D01*
X154165526Y-94270285D01*
X154201812Y-94125142D01*
X154201812Y-94016285D01*
X154165526Y-93871142D01*
X154129241Y-93798571D01*
X154056669Y-93726000D01*
X153947812Y-93689714D01*
X153875241Y-93689714D01*
X153766383Y-93726000D01*
X153730098Y-93762285D01*
X155145241Y-88519000D02*
X155217812Y-88482714D01*
X155326669Y-88482714D01*
X155435526Y-88519000D01*
X155508098Y-88591571D01*
X155544383Y-88664142D01*
X155580669Y-88809285D01*
X155580669Y-88918142D01*
X155544383Y-89063285D01*
X155508098Y-89135857D01*
X155435526Y-89208428D01*
X155326669Y-89244714D01*
X155254098Y-89244714D01*
X155145241Y-89208428D01*
X155108955Y-89172142D01*
X155108955Y-88918142D01*
X155254098Y-88918142D01*
X154782383Y-89244714D02*
X154782383Y-88482714D01*
X154346955Y-89244714D01*
X154346955Y-88482714D01*
X153984098Y-89244714D02*
X153984098Y-88482714D01*
X153802669Y-88482714D01*
X153693812Y-88519000D01*
X153621241Y-88591571D01*
X153584955Y-88664142D01*
X153548669Y-88809285D01*
X153548669Y-88918142D01*
X153584955Y-89063285D01*
X153621241Y-89135857D01*
X153693812Y-89208428D01*
X153802669Y-89244714D01*
X153984098Y-89244714D01*
D12*
X126111000Y-117819714D02*
X126473857Y-117819714D01*
X126473857Y-117057714D01*
X125457857Y-117094000D02*
X125530428Y-117057714D01*
X125639285Y-117057714D01*
X125748142Y-117094000D01*
X125820714Y-117166571D01*
X125857000Y-117239142D01*
X125893285Y-117384285D01*
X125893285Y-117493142D01*
X125857000Y-117638285D01*
X125820714Y-117710857D01*
X125748142Y-117783428D01*
X125639285Y-117819714D01*
X125566714Y-117819714D01*
X125457857Y-117783428D01*
X125421571Y-117747142D01*
X125421571Y-117493142D01*
X125566714Y-117493142D01*
X124587000Y-117057714D02*
X124115285Y-117057714D01*
X124369285Y-117348000D01*
X124260428Y-117348000D01*
X124187857Y-117384285D01*
X124151571Y-117420571D01*
X124115285Y-117493142D01*
X124115285Y-117674571D01*
X124151571Y-117747142D01*
X124187857Y-117783428D01*
X124260428Y-117819714D01*
X124478142Y-117819714D01*
X124550714Y-117783428D01*
X124587000Y-117747142D01*
X123788714Y-117529428D02*
X123208142Y-117529428D01*
X122700142Y-117057714D02*
X122627571Y-117057714D01*
X122555000Y-117094000D01*
X122518714Y-117130285D01*
X122482428Y-117202857D01*
X122446142Y-117348000D01*
X122446142Y-117529428D01*
X122482428Y-117674571D01*
X122518714Y-117747142D01*
X122555000Y-117783428D01*
X122627571Y-117819714D01*
X122700142Y-117819714D01*
X122772714Y-117783428D01*
X122809000Y-117747142D01*
X122845285Y-117674571D01*
X122881571Y-117529428D01*
X122881571Y-117348000D01*
X122845285Y-117202857D01*
X122809000Y-117130285D01*
X122772714Y-117094000D01*
X122700142Y-117057714D01*
X121974428Y-117057714D02*
X121901857Y-117057714D01*
X121829285Y-117094000D01*
X121793000Y-117130285D01*
X121756714Y-117202857D01*
X121720428Y-117348000D01*
X121720428Y-117529428D01*
X121756714Y-117674571D01*
X121793000Y-117747142D01*
X121829285Y-117783428D01*
X121901857Y-117819714D01*
X121974428Y-117819714D01*
X122047000Y-117783428D01*
X122083285Y-117747142D01*
X122119571Y-117674571D01*
X122155857Y-117529428D01*
X122155857Y-117348000D01*
X122119571Y-117202857D01*
X122083285Y-117130285D01*
X122047000Y-117094000D01*
X121974428Y-117057714D01*
X121248714Y-117057714D02*
X121176142Y-117057714D01*
X121103571Y-117094000D01*
X121067285Y-117130285D01*
X121031000Y-117202857D01*
X120994714Y-117348000D01*
X120994714Y-117529428D01*
X121031000Y-117674571D01*
X121067285Y-117747142D01*
X121103571Y-117783428D01*
X121176142Y-117819714D01*
X121248714Y-117819714D01*
X121321285Y-117783428D01*
X121357571Y-117747142D01*
X121393857Y-117674571D01*
X121430142Y-117529428D01*
X121430142Y-117348000D01*
X121393857Y-117202857D01*
X121357571Y-117130285D01*
X121321285Y-117094000D01*
X121248714Y-117057714D01*
X120523000Y-117057714D02*
X120450428Y-117057714D01*
X120377857Y-117094000D01*
X120341571Y-117130285D01*
X120305285Y-117202857D01*
X120269000Y-117348000D01*
X120269000Y-117529428D01*
X120305285Y-117674571D01*
X120341571Y-117747142D01*
X120377857Y-117783428D01*
X120450428Y-117819714D01*
X120523000Y-117819714D01*
X120595571Y-117783428D01*
X120631857Y-117747142D01*
X120668142Y-117674571D01*
X120704428Y-117529428D01*
X120704428Y-117348000D01*
X120668142Y-117202857D01*
X120631857Y-117130285D01*
X120595571Y-117094000D01*
X120523000Y-117057714D01*
X119797285Y-117057714D02*
X119724714Y-117057714D01*
X119652142Y-117094000D01*
X119615857Y-117130285D01*
X119579571Y-117202857D01*
X119543285Y-117348000D01*
X119543285Y-117529428D01*
X119579571Y-117674571D01*
X119615857Y-117747142D01*
X119652142Y-117783428D01*
X119724714Y-117819714D01*
X119797285Y-117819714D01*
X119869857Y-117783428D01*
X119906142Y-117747142D01*
X119942428Y-117674571D01*
X119978714Y-117529428D01*
X119978714Y-117348000D01*
X119942428Y-117202857D01*
X119906142Y-117130285D01*
X119869857Y-117094000D01*
X119797285Y-117057714D01*
X118817571Y-117819714D02*
X119253000Y-117819714D01*
X119035285Y-117819714D02*
X119035285Y-117057714D01*
X119107857Y-117166571D01*
X119180428Y-117239142D01*
X119253000Y-117275428D01*
X118563571Y-117057714D02*
X118091857Y-117057714D01*
X118345857Y-117348000D01*
X118237000Y-117348000D01*
X118164428Y-117384285D01*
X118128142Y-117420571D01*
X118091857Y-117493142D01*
X118091857Y-117674571D01*
X118128142Y-117747142D01*
X118164428Y-117783428D01*
X118237000Y-117819714D01*
X118454714Y-117819714D01*
X118527285Y-117783428D01*
X118563571Y-117747142D01*
M02*
