G04 #@! TF.GenerationSoftware,KiCad,Pcbnew,(5.1.5)-3*
G04 #@! TF.CreationDate,2020-09-11T07:45:12-05:00*
G04 #@! TF.ProjectId,laser_mount_board,6c617365-725f-46d6-9f75-6e745f626f61,4.1*
G04 #@! TF.SameCoordinates,Original*
G04 #@! TF.FileFunction,Copper,L2,Bot*
G04 #@! TF.FilePolarity,Positive*
%FSLAX46Y46*%
G04 Gerber Fmt 4.6, Leading zero omitted, Abs format (unit mm)*
G04 Created by KiCad (PCBNEW (5.1.5)-3) date 2020-09-11 07:45:12*
%MOMM*%
%LPD*%
G04 APERTURE LIST*
%ADD10C,5.600000*%
%ADD11O,1.700000X1.700000*%
%ADD12R,1.700000X1.700000*%
%ADD13C,0.508000*%
%ADD14C,0.304800*%
%ADD15C,0.254000*%
G04 APERTURE END LIST*
D10*
X145796000Y-88900000D03*
X145796000Y-114300000D03*
D11*
X151892000Y-114300000D03*
X151892000Y-111760000D03*
X151892000Y-109220000D03*
X151892000Y-106680000D03*
X151892000Y-104140000D03*
X151892000Y-101600000D03*
X151892000Y-99060000D03*
X151892000Y-96520000D03*
X151892000Y-93980000D03*
X151892000Y-91440000D03*
D12*
X151892000Y-88900000D03*
D11*
X134366000Y-91440000D03*
X131826000Y-91440000D03*
X129286000Y-91440000D03*
X126746000Y-91440000D03*
X124206000Y-91440000D03*
X121666000Y-91440000D03*
X119126000Y-91440000D03*
X119126000Y-111760000D03*
X121666000Y-111760000D03*
X124206000Y-111760000D03*
X126746000Y-111760000D03*
X129286000Y-111760000D03*
X131826000Y-111760000D03*
X134366000Y-111760000D03*
D13*
X145923000Y-109220000D03*
X145034000Y-106680000D03*
X144297403Y-93218000D03*
X144399000Y-104140000D03*
X143637000Y-93218000D03*
X143675100Y-101600000D03*
X130681695Y-85795199D03*
X154559000Y-86487000D03*
X153670000Y-96520000D03*
D14*
X119975999Y-90590001D02*
X119126000Y-91440000D01*
X145923000Y-109220000D02*
X145923000Y-93369980D01*
X145923000Y-93369980D02*
X144424810Y-91871790D01*
X144424810Y-91871790D02*
X142048382Y-91871790D01*
X142048382Y-91871790D02*
X140004581Y-89827989D01*
X140004581Y-89827989D02*
X120738011Y-89827989D01*
X120738011Y-89827989D02*
X119975999Y-90590001D01*
X145034000Y-93127571D02*
X145034000Y-106680000D01*
X144235428Y-92329000D02*
X145034000Y-93127571D01*
X141859000Y-92329000D02*
X144235428Y-92329000D01*
X139815199Y-90285199D02*
X141859000Y-92329000D01*
X121666000Y-91440000D02*
X122820801Y-90285199D01*
X122820801Y-90285199D02*
X139815199Y-90285199D01*
X144297403Y-93218000D02*
X144297403Y-104038403D01*
X144297403Y-104038403D02*
X144399000Y-104140000D01*
X143637000Y-93218000D02*
X143637000Y-101561900D01*
X143637000Y-101561900D02*
X143675100Y-101600000D01*
X130681695Y-85795199D02*
X151200199Y-85795199D01*
X152741999Y-98210001D02*
X151892000Y-99060000D01*
X153046801Y-97905199D02*
X152741999Y-98210001D01*
X153046801Y-87641801D02*
X153046801Y-97905199D01*
X151200199Y-85795199D02*
X153046801Y-87641801D01*
X154559000Y-95631000D02*
X153670000Y-96520000D01*
X154559000Y-94488000D02*
X154559000Y-95631000D01*
X154559000Y-86487000D02*
X154559000Y-94488000D01*
D15*
G36*
X151703377Y-87411928D02*
G01*
X151042000Y-87411928D01*
X150917518Y-87424188D01*
X150797820Y-87460498D01*
X150687506Y-87519463D01*
X150590815Y-87598815D01*
X150511463Y-87695506D01*
X150452498Y-87805820D01*
X150416188Y-87925518D01*
X150403928Y-88050000D01*
X150403928Y-89750000D01*
X150416188Y-89874482D01*
X150452498Y-89994180D01*
X150511463Y-90104494D01*
X150590815Y-90201185D01*
X150687506Y-90280537D01*
X150797820Y-90339502D01*
X150878466Y-90363966D01*
X150794412Y-90439731D01*
X150620359Y-90673080D01*
X150495175Y-90935901D01*
X150450524Y-91083110D01*
X150571845Y-91313000D01*
X151765000Y-91313000D01*
X151765000Y-91293000D01*
X152019000Y-91293000D01*
X152019000Y-91313000D01*
X152039000Y-91313000D01*
X152039000Y-91567000D01*
X152019000Y-91567000D01*
X152019000Y-91587000D01*
X151765000Y-91587000D01*
X151765000Y-91567000D01*
X150571845Y-91567000D01*
X150450524Y-91796890D01*
X150495175Y-91944099D01*
X150620359Y-92206920D01*
X150794412Y-92440269D01*
X151010645Y-92635178D01*
X151127534Y-92704805D01*
X150945368Y-92826525D01*
X150738525Y-93033368D01*
X150576010Y-93276589D01*
X150464068Y-93546842D01*
X150407000Y-93833740D01*
X150407000Y-94126260D01*
X150464068Y-94413158D01*
X150576010Y-94683411D01*
X150738525Y-94926632D01*
X150945368Y-95133475D01*
X151119760Y-95250000D01*
X150945368Y-95366525D01*
X150738525Y-95573368D01*
X150576010Y-95816589D01*
X150464068Y-96086842D01*
X150407000Y-96373740D01*
X150407000Y-96666260D01*
X150464068Y-96953158D01*
X150576010Y-97223411D01*
X150738525Y-97466632D01*
X150945368Y-97673475D01*
X151119760Y-97790000D01*
X150945368Y-97906525D01*
X150738525Y-98113368D01*
X150576010Y-98356589D01*
X150464068Y-98626842D01*
X150407000Y-98913740D01*
X150407000Y-99206260D01*
X150464068Y-99493158D01*
X150576010Y-99763411D01*
X150738525Y-100006632D01*
X150945368Y-100213475D01*
X151119760Y-100330000D01*
X150945368Y-100446525D01*
X150738525Y-100653368D01*
X150576010Y-100896589D01*
X150464068Y-101166842D01*
X150407000Y-101453740D01*
X150407000Y-101746260D01*
X150464068Y-102033158D01*
X150576010Y-102303411D01*
X150738525Y-102546632D01*
X150945368Y-102753475D01*
X151119760Y-102870000D01*
X150945368Y-102986525D01*
X150738525Y-103193368D01*
X150576010Y-103436589D01*
X150464068Y-103706842D01*
X150407000Y-103993740D01*
X150407000Y-104286260D01*
X150464068Y-104573158D01*
X150576010Y-104843411D01*
X150738525Y-105086632D01*
X150945368Y-105293475D01*
X151119760Y-105410000D01*
X150945368Y-105526525D01*
X150738525Y-105733368D01*
X150576010Y-105976589D01*
X150464068Y-106246842D01*
X150407000Y-106533740D01*
X150407000Y-106826260D01*
X150464068Y-107113158D01*
X150576010Y-107383411D01*
X150738525Y-107626632D01*
X150945368Y-107833475D01*
X151119760Y-107950000D01*
X150945368Y-108066525D01*
X150738525Y-108273368D01*
X150576010Y-108516589D01*
X150464068Y-108786842D01*
X150407000Y-109073740D01*
X150407000Y-109366260D01*
X150464068Y-109653158D01*
X150576010Y-109923411D01*
X150738525Y-110166632D01*
X150945368Y-110373475D01*
X151119760Y-110490000D01*
X150945368Y-110606525D01*
X150738525Y-110813368D01*
X150576010Y-111056589D01*
X150464068Y-111326842D01*
X150407000Y-111613740D01*
X150407000Y-111906260D01*
X150464068Y-112193158D01*
X150576010Y-112463411D01*
X150738525Y-112706632D01*
X150945368Y-112913475D01*
X151119760Y-113030000D01*
X150945368Y-113146525D01*
X150738525Y-113353368D01*
X150576010Y-113596589D01*
X150464068Y-113866842D01*
X150407000Y-114153740D01*
X150407000Y-114446260D01*
X150464068Y-114733158D01*
X150576010Y-115003411D01*
X150738525Y-115246632D01*
X150945368Y-115453475D01*
X151188589Y-115615990D01*
X151458842Y-115727932D01*
X151745740Y-115785000D01*
X152038260Y-115785000D01*
X152325158Y-115727932D01*
X152595411Y-115615990D01*
X152838632Y-115453475D01*
X153045475Y-115246632D01*
X153207990Y-115003411D01*
X153319932Y-114733158D01*
X153377000Y-114446260D01*
X153377000Y-114153740D01*
X153319932Y-113866842D01*
X153207990Y-113596589D01*
X153045475Y-113353368D01*
X152838632Y-113146525D01*
X152664240Y-113030000D01*
X152838632Y-112913475D01*
X153045475Y-112706632D01*
X153207990Y-112463411D01*
X153319932Y-112193158D01*
X153377000Y-111906260D01*
X153377000Y-111613740D01*
X153319932Y-111326842D01*
X153207990Y-111056589D01*
X153045475Y-110813368D01*
X152838632Y-110606525D01*
X152664240Y-110490000D01*
X152838632Y-110373475D01*
X153045475Y-110166632D01*
X153207990Y-109923411D01*
X153319932Y-109653158D01*
X153377000Y-109366260D01*
X153377000Y-109073740D01*
X153319932Y-108786842D01*
X153207990Y-108516589D01*
X153045475Y-108273368D01*
X152838632Y-108066525D01*
X152664240Y-107950000D01*
X152838632Y-107833475D01*
X153045475Y-107626632D01*
X153207990Y-107383411D01*
X153319932Y-107113158D01*
X153377000Y-106826260D01*
X153377000Y-106533740D01*
X153319932Y-106246842D01*
X153207990Y-105976589D01*
X153045475Y-105733368D01*
X152838632Y-105526525D01*
X152664240Y-105410000D01*
X152838632Y-105293475D01*
X153045475Y-105086632D01*
X153207990Y-104843411D01*
X153319932Y-104573158D01*
X153377000Y-104286260D01*
X153377000Y-103993740D01*
X153319932Y-103706842D01*
X153207990Y-103436589D01*
X153045475Y-103193368D01*
X152838632Y-102986525D01*
X152664240Y-102870000D01*
X152838632Y-102753475D01*
X153045475Y-102546632D01*
X153207990Y-102303411D01*
X153319932Y-102033158D01*
X153377000Y-101746260D01*
X153377000Y-101453740D01*
X153319932Y-101166842D01*
X153207990Y-100896589D01*
X153045475Y-100653368D01*
X152838632Y-100446525D01*
X152664240Y-100330000D01*
X152838632Y-100213475D01*
X153045475Y-100006632D01*
X153207990Y-99763411D01*
X153319932Y-99493158D01*
X153377000Y-99206260D01*
X153377000Y-98913740D01*
X153339638Y-98725912D01*
X153576228Y-98489323D01*
X153606270Y-98464668D01*
X153704667Y-98344771D01*
X153777783Y-98207982D01*
X153822807Y-98059556D01*
X153834201Y-97943872D01*
X153834201Y-97943863D01*
X153838009Y-97905200D01*
X153834201Y-97866537D01*
X153834201Y-97393755D01*
X153929312Y-97374836D01*
X154091099Y-97307821D01*
X154236704Y-97210531D01*
X154360531Y-97086704D01*
X154457821Y-96941099D01*
X154524836Y-96779312D01*
X154524984Y-96778566D01*
X155088428Y-96215123D01*
X155118469Y-96190469D01*
X155203514Y-96086842D01*
X155216866Y-96070573D01*
X155289982Y-95933783D01*
X155308300Y-95873395D01*
X155308301Y-117462300D01*
X147137618Y-117462300D01*
X147423082Y-117344057D01*
X147985685Y-116968138D01*
X148464138Y-116489685D01*
X148840057Y-115927082D01*
X149098994Y-115301952D01*
X149231000Y-114638318D01*
X149231000Y-113961682D01*
X149098994Y-113298048D01*
X148840057Y-112672918D01*
X148464138Y-112110315D01*
X147985685Y-111631862D01*
X147423082Y-111255943D01*
X146797952Y-110997006D01*
X146134318Y-110865000D01*
X145457682Y-110865000D01*
X144794048Y-110997006D01*
X144168918Y-111255943D01*
X143606315Y-111631862D01*
X143127862Y-112110315D01*
X142751943Y-112672918D01*
X142493006Y-113298048D01*
X142361000Y-113961682D01*
X142361000Y-114638318D01*
X142493006Y-115301952D01*
X142751943Y-115927082D01*
X143127862Y-116489685D01*
X143606315Y-116968138D01*
X144168918Y-117344057D01*
X144454382Y-117462300D01*
X118503702Y-117462300D01*
X118503702Y-113109588D01*
X118692842Y-113187932D01*
X118979740Y-113245000D01*
X119272260Y-113245000D01*
X119559158Y-113187932D01*
X119829411Y-113075990D01*
X120072632Y-112913475D01*
X120279475Y-112706632D01*
X120396000Y-112532240D01*
X120512525Y-112706632D01*
X120719368Y-112913475D01*
X120962589Y-113075990D01*
X121232842Y-113187932D01*
X121519740Y-113245000D01*
X121812260Y-113245000D01*
X122099158Y-113187932D01*
X122369411Y-113075990D01*
X122612632Y-112913475D01*
X122819475Y-112706632D01*
X122936000Y-112532240D01*
X123052525Y-112706632D01*
X123259368Y-112913475D01*
X123502589Y-113075990D01*
X123772842Y-113187932D01*
X124059740Y-113245000D01*
X124352260Y-113245000D01*
X124639158Y-113187932D01*
X124909411Y-113075990D01*
X125152632Y-112913475D01*
X125359475Y-112706632D01*
X125481195Y-112524466D01*
X125550822Y-112641355D01*
X125745731Y-112857588D01*
X125979080Y-113031641D01*
X126241901Y-113156825D01*
X126389110Y-113201476D01*
X126619000Y-113080155D01*
X126619000Y-111887000D01*
X126599000Y-111887000D01*
X126599000Y-111633000D01*
X126619000Y-111633000D01*
X126619000Y-111613000D01*
X126873000Y-111613000D01*
X126873000Y-111633000D01*
X126893000Y-111633000D01*
X126893000Y-111887000D01*
X126873000Y-111887000D01*
X126873000Y-113080155D01*
X127102890Y-113201476D01*
X127250099Y-113156825D01*
X127512920Y-113031641D01*
X127746269Y-112857588D01*
X127941178Y-112641355D01*
X128010805Y-112524466D01*
X128132525Y-112706632D01*
X128339368Y-112913475D01*
X128582589Y-113075990D01*
X128852842Y-113187932D01*
X129139740Y-113245000D01*
X129432260Y-113245000D01*
X129719158Y-113187932D01*
X129989411Y-113075990D01*
X130232632Y-112913475D01*
X130439475Y-112706632D01*
X130561195Y-112524466D01*
X130630822Y-112641355D01*
X130825731Y-112857588D01*
X131059080Y-113031641D01*
X131321901Y-113156825D01*
X131469110Y-113201476D01*
X131699000Y-113080155D01*
X131699000Y-111887000D01*
X131679000Y-111887000D01*
X131679000Y-111633000D01*
X131699000Y-111633000D01*
X131699000Y-111613000D01*
X131953000Y-111613000D01*
X131953000Y-111633000D01*
X131973000Y-111633000D01*
X131973000Y-111887000D01*
X131953000Y-111887000D01*
X131953000Y-113080155D01*
X132182890Y-113201476D01*
X132330099Y-113156825D01*
X132592920Y-113031641D01*
X132826269Y-112857588D01*
X133021178Y-112641355D01*
X133090805Y-112524466D01*
X133212525Y-112706632D01*
X133419368Y-112913475D01*
X133662589Y-113075990D01*
X133932842Y-113187932D01*
X134219740Y-113245000D01*
X134512260Y-113245000D01*
X134799158Y-113187932D01*
X135069411Y-113075990D01*
X135312632Y-112913475D01*
X135519475Y-112706632D01*
X135681990Y-112463411D01*
X135793932Y-112193158D01*
X135851000Y-111906260D01*
X135851000Y-111613740D01*
X135793932Y-111326842D01*
X135715587Y-111137700D01*
X141763810Y-111137700D01*
X141791920Y-111134931D01*
X141801342Y-111134997D01*
X141810343Y-111134115D01*
X142106146Y-111103025D01*
X142163667Y-111091218D01*
X142221318Y-111080220D01*
X142229970Y-111077608D01*
X142229974Y-111077607D01*
X142229977Y-111077606D01*
X142514107Y-110989652D01*
X142568251Y-110966892D01*
X142622652Y-110944913D01*
X142630629Y-110940671D01*
X142630639Y-110940667D01*
X142630647Y-110940662D01*
X142892272Y-110799202D01*
X142940979Y-110766349D01*
X142990061Y-110734231D01*
X142997059Y-110728523D01*
X142997071Y-110728515D01*
X142997080Y-110728506D01*
X143226245Y-110538926D01*
X143267630Y-110497252D01*
X143309555Y-110456196D01*
X143315314Y-110449234D01*
X143315318Y-110449230D01*
X143315321Y-110449226D01*
X143503305Y-110218734D01*
X143535791Y-110169839D01*
X143568958Y-110121400D01*
X143573259Y-110113445D01*
X143712895Y-109850827D01*
X143735293Y-109796486D01*
X143758390Y-109742597D01*
X143761065Y-109733958D01*
X143847033Y-109449220D01*
X143858438Y-109391623D01*
X143870641Y-109334210D01*
X143871586Y-109325217D01*
X143900610Y-109029204D01*
X143900610Y-109029171D01*
X143903699Y-108997809D01*
X143903700Y-104878241D01*
X143977901Y-104927821D01*
X144139688Y-104994836D01*
X144246601Y-105016102D01*
X144246601Y-106258269D01*
X144246179Y-106258901D01*
X144179164Y-106420688D01*
X144145000Y-106592441D01*
X144145000Y-106767559D01*
X144179164Y-106939312D01*
X144246179Y-107101099D01*
X144343469Y-107246704D01*
X144467296Y-107370531D01*
X144612901Y-107467821D01*
X144774688Y-107534836D01*
X144946441Y-107569000D01*
X145121559Y-107569000D01*
X145135600Y-107566207D01*
X145135600Y-108798271D01*
X145135179Y-108798901D01*
X145068164Y-108960688D01*
X145034000Y-109132441D01*
X145034000Y-109307559D01*
X145068164Y-109479312D01*
X145135179Y-109641099D01*
X145232469Y-109786704D01*
X145356296Y-109910531D01*
X145501901Y-110007821D01*
X145663688Y-110074836D01*
X145835441Y-110109000D01*
X146010559Y-110109000D01*
X146182312Y-110074836D01*
X146344099Y-110007821D01*
X146489704Y-109910531D01*
X146613531Y-109786704D01*
X146710821Y-109641099D01*
X146777836Y-109479312D01*
X146812000Y-109307559D01*
X146812000Y-109132441D01*
X146777836Y-108960688D01*
X146710821Y-108798901D01*
X146710400Y-108798271D01*
X146710400Y-93408645D01*
X146714208Y-93369980D01*
X146710400Y-93331315D01*
X146710400Y-93331307D01*
X146699006Y-93215623D01*
X146653982Y-93067197D01*
X146580866Y-92930408D01*
X146553389Y-92896927D01*
X146507122Y-92840550D01*
X146507119Y-92840547D01*
X146482469Y-92810511D01*
X146452433Y-92785861D01*
X146001571Y-92335000D01*
X146134318Y-92335000D01*
X146797952Y-92202994D01*
X147423082Y-91944057D01*
X147985685Y-91568138D01*
X148464138Y-91089685D01*
X148840057Y-90527082D01*
X149098994Y-89901952D01*
X149231000Y-89238318D01*
X149231000Y-88561682D01*
X149098994Y-87898048D01*
X148840057Y-87272918D01*
X148464138Y-86710315D01*
X148336422Y-86582599D01*
X150874049Y-86582599D01*
X151703377Y-87411928D01*
G37*
X151703377Y-87411928D02*
X151042000Y-87411928D01*
X150917518Y-87424188D01*
X150797820Y-87460498D01*
X150687506Y-87519463D01*
X150590815Y-87598815D01*
X150511463Y-87695506D01*
X150452498Y-87805820D01*
X150416188Y-87925518D01*
X150403928Y-88050000D01*
X150403928Y-89750000D01*
X150416188Y-89874482D01*
X150452498Y-89994180D01*
X150511463Y-90104494D01*
X150590815Y-90201185D01*
X150687506Y-90280537D01*
X150797820Y-90339502D01*
X150878466Y-90363966D01*
X150794412Y-90439731D01*
X150620359Y-90673080D01*
X150495175Y-90935901D01*
X150450524Y-91083110D01*
X150571845Y-91313000D01*
X151765000Y-91313000D01*
X151765000Y-91293000D01*
X152019000Y-91293000D01*
X152019000Y-91313000D01*
X152039000Y-91313000D01*
X152039000Y-91567000D01*
X152019000Y-91567000D01*
X152019000Y-91587000D01*
X151765000Y-91587000D01*
X151765000Y-91567000D01*
X150571845Y-91567000D01*
X150450524Y-91796890D01*
X150495175Y-91944099D01*
X150620359Y-92206920D01*
X150794412Y-92440269D01*
X151010645Y-92635178D01*
X151127534Y-92704805D01*
X150945368Y-92826525D01*
X150738525Y-93033368D01*
X150576010Y-93276589D01*
X150464068Y-93546842D01*
X150407000Y-93833740D01*
X150407000Y-94126260D01*
X150464068Y-94413158D01*
X150576010Y-94683411D01*
X150738525Y-94926632D01*
X150945368Y-95133475D01*
X151119760Y-95250000D01*
X150945368Y-95366525D01*
X150738525Y-95573368D01*
X150576010Y-95816589D01*
X150464068Y-96086842D01*
X150407000Y-96373740D01*
X150407000Y-96666260D01*
X150464068Y-96953158D01*
X150576010Y-97223411D01*
X150738525Y-97466632D01*
X150945368Y-97673475D01*
X151119760Y-97790000D01*
X150945368Y-97906525D01*
X150738525Y-98113368D01*
X150576010Y-98356589D01*
X150464068Y-98626842D01*
X150407000Y-98913740D01*
X150407000Y-99206260D01*
X150464068Y-99493158D01*
X150576010Y-99763411D01*
X150738525Y-100006632D01*
X150945368Y-100213475D01*
X151119760Y-100330000D01*
X150945368Y-100446525D01*
X150738525Y-100653368D01*
X150576010Y-100896589D01*
X150464068Y-101166842D01*
X150407000Y-101453740D01*
X150407000Y-101746260D01*
X150464068Y-102033158D01*
X150576010Y-102303411D01*
X150738525Y-102546632D01*
X150945368Y-102753475D01*
X151119760Y-102870000D01*
X150945368Y-102986525D01*
X150738525Y-103193368D01*
X150576010Y-103436589D01*
X150464068Y-103706842D01*
X150407000Y-103993740D01*
X150407000Y-104286260D01*
X150464068Y-104573158D01*
X150576010Y-104843411D01*
X150738525Y-105086632D01*
X150945368Y-105293475D01*
X151119760Y-105410000D01*
X150945368Y-105526525D01*
X150738525Y-105733368D01*
X150576010Y-105976589D01*
X150464068Y-106246842D01*
X150407000Y-106533740D01*
X150407000Y-106826260D01*
X150464068Y-107113158D01*
X150576010Y-107383411D01*
X150738525Y-107626632D01*
X150945368Y-107833475D01*
X151119760Y-107950000D01*
X150945368Y-108066525D01*
X150738525Y-108273368D01*
X150576010Y-108516589D01*
X150464068Y-108786842D01*
X150407000Y-109073740D01*
X150407000Y-109366260D01*
X150464068Y-109653158D01*
X150576010Y-109923411D01*
X150738525Y-110166632D01*
X150945368Y-110373475D01*
X151119760Y-110490000D01*
X150945368Y-110606525D01*
X150738525Y-110813368D01*
X150576010Y-111056589D01*
X150464068Y-111326842D01*
X150407000Y-111613740D01*
X150407000Y-111906260D01*
X150464068Y-112193158D01*
X150576010Y-112463411D01*
X150738525Y-112706632D01*
X150945368Y-112913475D01*
X151119760Y-113030000D01*
X150945368Y-113146525D01*
X150738525Y-113353368D01*
X150576010Y-113596589D01*
X150464068Y-113866842D01*
X150407000Y-114153740D01*
X150407000Y-114446260D01*
X150464068Y-114733158D01*
X150576010Y-115003411D01*
X150738525Y-115246632D01*
X150945368Y-115453475D01*
X151188589Y-115615990D01*
X151458842Y-115727932D01*
X151745740Y-115785000D01*
X152038260Y-115785000D01*
X152325158Y-115727932D01*
X152595411Y-115615990D01*
X152838632Y-115453475D01*
X153045475Y-115246632D01*
X153207990Y-115003411D01*
X153319932Y-114733158D01*
X153377000Y-114446260D01*
X153377000Y-114153740D01*
X153319932Y-113866842D01*
X153207990Y-113596589D01*
X153045475Y-113353368D01*
X152838632Y-113146525D01*
X152664240Y-113030000D01*
X152838632Y-112913475D01*
X153045475Y-112706632D01*
X153207990Y-112463411D01*
X153319932Y-112193158D01*
X153377000Y-111906260D01*
X153377000Y-111613740D01*
X153319932Y-111326842D01*
X153207990Y-111056589D01*
X153045475Y-110813368D01*
X152838632Y-110606525D01*
X152664240Y-110490000D01*
X152838632Y-110373475D01*
X153045475Y-110166632D01*
X153207990Y-109923411D01*
X153319932Y-109653158D01*
X153377000Y-109366260D01*
X153377000Y-109073740D01*
X153319932Y-108786842D01*
X153207990Y-108516589D01*
X153045475Y-108273368D01*
X152838632Y-108066525D01*
X152664240Y-107950000D01*
X152838632Y-107833475D01*
X153045475Y-107626632D01*
X153207990Y-107383411D01*
X153319932Y-107113158D01*
X153377000Y-106826260D01*
X153377000Y-106533740D01*
X153319932Y-106246842D01*
X153207990Y-105976589D01*
X153045475Y-105733368D01*
X152838632Y-105526525D01*
X152664240Y-105410000D01*
X152838632Y-105293475D01*
X153045475Y-105086632D01*
X153207990Y-104843411D01*
X153319932Y-104573158D01*
X153377000Y-104286260D01*
X153377000Y-103993740D01*
X153319932Y-103706842D01*
X153207990Y-103436589D01*
X153045475Y-103193368D01*
X152838632Y-102986525D01*
X152664240Y-102870000D01*
X152838632Y-102753475D01*
X153045475Y-102546632D01*
X153207990Y-102303411D01*
X153319932Y-102033158D01*
X153377000Y-101746260D01*
X153377000Y-101453740D01*
X153319932Y-101166842D01*
X153207990Y-100896589D01*
X153045475Y-100653368D01*
X152838632Y-100446525D01*
X152664240Y-100330000D01*
X152838632Y-100213475D01*
X153045475Y-100006632D01*
X153207990Y-99763411D01*
X153319932Y-99493158D01*
X153377000Y-99206260D01*
X153377000Y-98913740D01*
X153339638Y-98725912D01*
X153576228Y-98489323D01*
X153606270Y-98464668D01*
X153704667Y-98344771D01*
X153777783Y-98207982D01*
X153822807Y-98059556D01*
X153834201Y-97943872D01*
X153834201Y-97943863D01*
X153838009Y-97905200D01*
X153834201Y-97866537D01*
X153834201Y-97393755D01*
X153929312Y-97374836D01*
X154091099Y-97307821D01*
X154236704Y-97210531D01*
X154360531Y-97086704D01*
X154457821Y-96941099D01*
X154524836Y-96779312D01*
X154524984Y-96778566D01*
X155088428Y-96215123D01*
X155118469Y-96190469D01*
X155203514Y-96086842D01*
X155216866Y-96070573D01*
X155289982Y-95933783D01*
X155308300Y-95873395D01*
X155308301Y-117462300D01*
X147137618Y-117462300D01*
X147423082Y-117344057D01*
X147985685Y-116968138D01*
X148464138Y-116489685D01*
X148840057Y-115927082D01*
X149098994Y-115301952D01*
X149231000Y-114638318D01*
X149231000Y-113961682D01*
X149098994Y-113298048D01*
X148840057Y-112672918D01*
X148464138Y-112110315D01*
X147985685Y-111631862D01*
X147423082Y-111255943D01*
X146797952Y-110997006D01*
X146134318Y-110865000D01*
X145457682Y-110865000D01*
X144794048Y-110997006D01*
X144168918Y-111255943D01*
X143606315Y-111631862D01*
X143127862Y-112110315D01*
X142751943Y-112672918D01*
X142493006Y-113298048D01*
X142361000Y-113961682D01*
X142361000Y-114638318D01*
X142493006Y-115301952D01*
X142751943Y-115927082D01*
X143127862Y-116489685D01*
X143606315Y-116968138D01*
X144168918Y-117344057D01*
X144454382Y-117462300D01*
X118503702Y-117462300D01*
X118503702Y-113109588D01*
X118692842Y-113187932D01*
X118979740Y-113245000D01*
X119272260Y-113245000D01*
X119559158Y-113187932D01*
X119829411Y-113075990D01*
X120072632Y-112913475D01*
X120279475Y-112706632D01*
X120396000Y-112532240D01*
X120512525Y-112706632D01*
X120719368Y-112913475D01*
X120962589Y-113075990D01*
X121232842Y-113187932D01*
X121519740Y-113245000D01*
X121812260Y-113245000D01*
X122099158Y-113187932D01*
X122369411Y-113075990D01*
X122612632Y-112913475D01*
X122819475Y-112706632D01*
X122936000Y-112532240D01*
X123052525Y-112706632D01*
X123259368Y-112913475D01*
X123502589Y-113075990D01*
X123772842Y-113187932D01*
X124059740Y-113245000D01*
X124352260Y-113245000D01*
X124639158Y-113187932D01*
X124909411Y-113075990D01*
X125152632Y-112913475D01*
X125359475Y-112706632D01*
X125481195Y-112524466D01*
X125550822Y-112641355D01*
X125745731Y-112857588D01*
X125979080Y-113031641D01*
X126241901Y-113156825D01*
X126389110Y-113201476D01*
X126619000Y-113080155D01*
X126619000Y-111887000D01*
X126599000Y-111887000D01*
X126599000Y-111633000D01*
X126619000Y-111633000D01*
X126619000Y-111613000D01*
X126873000Y-111613000D01*
X126873000Y-111633000D01*
X126893000Y-111633000D01*
X126893000Y-111887000D01*
X126873000Y-111887000D01*
X126873000Y-113080155D01*
X127102890Y-113201476D01*
X127250099Y-113156825D01*
X127512920Y-113031641D01*
X127746269Y-112857588D01*
X127941178Y-112641355D01*
X128010805Y-112524466D01*
X128132525Y-112706632D01*
X128339368Y-112913475D01*
X128582589Y-113075990D01*
X128852842Y-113187932D01*
X129139740Y-113245000D01*
X129432260Y-113245000D01*
X129719158Y-113187932D01*
X129989411Y-113075990D01*
X130232632Y-112913475D01*
X130439475Y-112706632D01*
X130561195Y-112524466D01*
X130630822Y-112641355D01*
X130825731Y-112857588D01*
X131059080Y-113031641D01*
X131321901Y-113156825D01*
X131469110Y-113201476D01*
X131699000Y-113080155D01*
X131699000Y-111887000D01*
X131679000Y-111887000D01*
X131679000Y-111633000D01*
X131699000Y-111633000D01*
X131699000Y-111613000D01*
X131953000Y-111613000D01*
X131953000Y-111633000D01*
X131973000Y-111633000D01*
X131973000Y-111887000D01*
X131953000Y-111887000D01*
X131953000Y-113080155D01*
X132182890Y-113201476D01*
X132330099Y-113156825D01*
X132592920Y-113031641D01*
X132826269Y-112857588D01*
X133021178Y-112641355D01*
X133090805Y-112524466D01*
X133212525Y-112706632D01*
X133419368Y-112913475D01*
X133662589Y-113075990D01*
X133932842Y-113187932D01*
X134219740Y-113245000D01*
X134512260Y-113245000D01*
X134799158Y-113187932D01*
X135069411Y-113075990D01*
X135312632Y-112913475D01*
X135519475Y-112706632D01*
X135681990Y-112463411D01*
X135793932Y-112193158D01*
X135851000Y-111906260D01*
X135851000Y-111613740D01*
X135793932Y-111326842D01*
X135715587Y-111137700D01*
X141763810Y-111137700D01*
X141791920Y-111134931D01*
X141801342Y-111134997D01*
X141810343Y-111134115D01*
X142106146Y-111103025D01*
X142163667Y-111091218D01*
X142221318Y-111080220D01*
X142229970Y-111077608D01*
X142229974Y-111077607D01*
X142229977Y-111077606D01*
X142514107Y-110989652D01*
X142568251Y-110966892D01*
X142622652Y-110944913D01*
X142630629Y-110940671D01*
X142630639Y-110940667D01*
X142630647Y-110940662D01*
X142892272Y-110799202D01*
X142940979Y-110766349D01*
X142990061Y-110734231D01*
X142997059Y-110728523D01*
X142997071Y-110728515D01*
X142997080Y-110728506D01*
X143226245Y-110538926D01*
X143267630Y-110497252D01*
X143309555Y-110456196D01*
X143315314Y-110449234D01*
X143315318Y-110449230D01*
X143315321Y-110449226D01*
X143503305Y-110218734D01*
X143535791Y-110169839D01*
X143568958Y-110121400D01*
X143573259Y-110113445D01*
X143712895Y-109850827D01*
X143735293Y-109796486D01*
X143758390Y-109742597D01*
X143761065Y-109733958D01*
X143847033Y-109449220D01*
X143858438Y-109391623D01*
X143870641Y-109334210D01*
X143871586Y-109325217D01*
X143900610Y-109029204D01*
X143900610Y-109029171D01*
X143903699Y-108997809D01*
X143903700Y-104878241D01*
X143977901Y-104927821D01*
X144139688Y-104994836D01*
X144246601Y-105016102D01*
X144246601Y-106258269D01*
X144246179Y-106258901D01*
X144179164Y-106420688D01*
X144145000Y-106592441D01*
X144145000Y-106767559D01*
X144179164Y-106939312D01*
X144246179Y-107101099D01*
X144343469Y-107246704D01*
X144467296Y-107370531D01*
X144612901Y-107467821D01*
X144774688Y-107534836D01*
X144946441Y-107569000D01*
X145121559Y-107569000D01*
X145135600Y-107566207D01*
X145135600Y-108798271D01*
X145135179Y-108798901D01*
X145068164Y-108960688D01*
X145034000Y-109132441D01*
X145034000Y-109307559D01*
X145068164Y-109479312D01*
X145135179Y-109641099D01*
X145232469Y-109786704D01*
X145356296Y-109910531D01*
X145501901Y-110007821D01*
X145663688Y-110074836D01*
X145835441Y-110109000D01*
X146010559Y-110109000D01*
X146182312Y-110074836D01*
X146344099Y-110007821D01*
X146489704Y-109910531D01*
X146613531Y-109786704D01*
X146710821Y-109641099D01*
X146777836Y-109479312D01*
X146812000Y-109307559D01*
X146812000Y-109132441D01*
X146777836Y-108960688D01*
X146710821Y-108798901D01*
X146710400Y-108798271D01*
X146710400Y-93408645D01*
X146714208Y-93369980D01*
X146710400Y-93331315D01*
X146710400Y-93331307D01*
X146699006Y-93215623D01*
X146653982Y-93067197D01*
X146580866Y-92930408D01*
X146553389Y-92896927D01*
X146507122Y-92840550D01*
X146507119Y-92840547D01*
X146482469Y-92810511D01*
X146452433Y-92785861D01*
X146001571Y-92335000D01*
X146134318Y-92335000D01*
X146797952Y-92202994D01*
X147423082Y-91944057D01*
X147985685Y-91568138D01*
X148464138Y-91089685D01*
X148840057Y-90527082D01*
X149098994Y-89901952D01*
X149231000Y-89238318D01*
X149231000Y-88561682D01*
X149098994Y-87898048D01*
X148840057Y-87272918D01*
X148464138Y-86710315D01*
X148336422Y-86582599D01*
X150874049Y-86582599D01*
X151703377Y-87411928D01*
M02*
