G04 #@! TF.GenerationSoftware,KiCad,Pcbnew,(5.1.2)-1*
G04 #@! TF.CreationDate,2019-10-29T15:19:47-05:00*
G04 #@! TF.ProjectId,laser_mount_board,6c617365-725f-46d6-9f75-6e745f626f61,rev?*
G04 #@! TF.SameCoordinates,Original*
G04 #@! TF.FileFunction,Copper,L2,Bot*
G04 #@! TF.FilePolarity,Positive*
%FSLAX46Y46*%
G04 Gerber Fmt 4.6, Leading zero omitted, Abs format (unit mm)*
G04 Created by KiCad (PCBNEW (5.1.2)-1) date 2019-10-29 15:19:47*
%MOMM*%
%LPD*%
G04 APERTURE LIST*
%ADD10C,5.600000*%
%ADD11O,1.700000X1.700000*%
%ADD12R,1.700000X1.700000*%
%ADD13C,0.508000*%
%ADD14C,0.304800*%
%ADD15C,0.254000*%
G04 APERTURE END LIST*
D10*
X145796000Y-88900000D03*
X145796000Y-114300000D03*
D11*
X151892000Y-114300000D03*
X151892000Y-111760000D03*
X151892000Y-109220000D03*
X151892000Y-106680000D03*
X151892000Y-104140000D03*
X151892000Y-101600000D03*
X151892000Y-99060000D03*
X151892000Y-96520000D03*
X151892000Y-93980000D03*
X151892000Y-91440000D03*
D12*
X151892000Y-88900000D03*
D11*
X134366000Y-91440000D03*
X131826000Y-91440000D03*
X129286000Y-91440000D03*
X126746000Y-91440000D03*
X124206000Y-91440000D03*
X121666000Y-91440000D03*
X119126000Y-91440000D03*
X119126000Y-111760000D03*
X121666000Y-111760000D03*
X124206000Y-111760000D03*
X126746000Y-111760000D03*
X129286000Y-111760000D03*
X131826000Y-111760000D03*
X134366000Y-111760000D03*
D13*
X145923000Y-109220000D03*
X145034000Y-106680000D03*
X144297403Y-93218000D03*
X144399000Y-104140000D03*
X143637000Y-93218000D03*
X143675100Y-101600000D03*
X130681695Y-85795199D03*
X154559000Y-86487000D03*
X153670000Y-96520000D03*
D14*
X119975999Y-90590001D02*
X119126000Y-91440000D01*
X145923000Y-109220000D02*
X145923000Y-93369980D01*
X145923000Y-93369980D02*
X144424810Y-91871790D01*
X144424810Y-91871790D02*
X142048382Y-91871790D01*
X142048382Y-91871790D02*
X140004581Y-89827989D01*
X140004581Y-89827989D02*
X120738011Y-89827989D01*
X120738011Y-89827989D02*
X119975999Y-90590001D01*
X145034000Y-93127571D02*
X145034000Y-106680000D01*
X144235428Y-92329000D02*
X145034000Y-93127571D01*
X141859000Y-92329000D02*
X144235428Y-92329000D01*
X139815199Y-90285199D02*
X141859000Y-92329000D01*
X121666000Y-91440000D02*
X122820801Y-90285199D01*
X122820801Y-90285199D02*
X139815199Y-90285199D01*
X144297403Y-93218000D02*
X144297403Y-104038403D01*
X144297403Y-104038403D02*
X144399000Y-104140000D01*
X143637000Y-93218000D02*
X143637000Y-101561900D01*
X143637000Y-101561900D02*
X143675100Y-101600000D01*
X130681695Y-85795199D02*
X151200199Y-85795199D01*
X152741999Y-98210001D02*
X151892000Y-99060000D01*
X153046801Y-97905199D02*
X152741999Y-98210001D01*
X153046801Y-87641801D02*
X153046801Y-97905199D01*
X151200199Y-85795199D02*
X153046801Y-87641801D01*
X154559000Y-95631000D02*
X153670000Y-96520000D01*
X154559000Y-94488000D02*
X154559000Y-95631000D01*
X154559000Y-86487000D02*
X154559000Y-94488000D01*
D15*
G36*
X151703377Y-87411928D02*
G01*
X151042000Y-87411928D01*
X150917518Y-87424188D01*
X150797820Y-87460498D01*
X150687506Y-87519463D01*
X150590815Y-87598815D01*
X150511463Y-87695506D01*
X150452498Y-87805820D01*
X150416188Y-87925518D01*
X150403928Y-88050000D01*
X150403928Y-89750000D01*
X150416188Y-89874482D01*
X150452498Y-89994180D01*
X150511463Y-90104494D01*
X150590815Y-90201185D01*
X150687506Y-90280537D01*
X150797820Y-90339502D01*
X150878466Y-90363966D01*
X150794412Y-90439731D01*
X150620359Y-90673080D01*
X150495175Y-90935901D01*
X150450524Y-91083110D01*
X150571845Y-91313000D01*
X151765000Y-91313000D01*
X151765000Y-91293000D01*
X152019000Y-91293000D01*
X152019000Y-91313000D01*
X152039000Y-91313000D01*
X152039000Y-91567000D01*
X152019000Y-91567000D01*
X152019000Y-91587000D01*
X151765000Y-91587000D01*
X151765000Y-91567000D01*
X150571845Y-91567000D01*
X150450524Y-91796890D01*
X150495175Y-91944099D01*
X150620359Y-92206920D01*
X150794412Y-92440269D01*
X151010645Y-92635178D01*
X151127523Y-92704799D01*
X151062986Y-92739294D01*
X150836866Y-92924866D01*
X150651294Y-93150986D01*
X150513401Y-93408966D01*
X150428487Y-93688889D01*
X150399815Y-93980000D01*
X150428487Y-94271111D01*
X150513401Y-94551034D01*
X150651294Y-94809014D01*
X150836866Y-95035134D01*
X151062986Y-95220706D01*
X151117791Y-95250000D01*
X151062986Y-95279294D01*
X150836866Y-95464866D01*
X150651294Y-95690986D01*
X150513401Y-95948966D01*
X150428487Y-96228889D01*
X150399815Y-96520000D01*
X150428487Y-96811111D01*
X150513401Y-97091034D01*
X150651294Y-97349014D01*
X150836866Y-97575134D01*
X151062986Y-97760706D01*
X151117791Y-97790000D01*
X151062986Y-97819294D01*
X150836866Y-98004866D01*
X150651294Y-98230986D01*
X150513401Y-98488966D01*
X150428487Y-98768889D01*
X150399815Y-99060000D01*
X150428487Y-99351111D01*
X150513401Y-99631034D01*
X150651294Y-99889014D01*
X150836866Y-100115134D01*
X151062986Y-100300706D01*
X151117791Y-100330000D01*
X151062986Y-100359294D01*
X150836866Y-100544866D01*
X150651294Y-100770986D01*
X150513401Y-101028966D01*
X150428487Y-101308889D01*
X150399815Y-101600000D01*
X150428487Y-101891111D01*
X150513401Y-102171034D01*
X150651294Y-102429014D01*
X150836866Y-102655134D01*
X151062986Y-102840706D01*
X151117791Y-102870000D01*
X151062986Y-102899294D01*
X150836866Y-103084866D01*
X150651294Y-103310986D01*
X150513401Y-103568966D01*
X150428487Y-103848889D01*
X150399815Y-104140000D01*
X150428487Y-104431111D01*
X150513401Y-104711034D01*
X150651294Y-104969014D01*
X150836866Y-105195134D01*
X151062986Y-105380706D01*
X151117791Y-105410000D01*
X151062986Y-105439294D01*
X150836866Y-105624866D01*
X150651294Y-105850986D01*
X150513401Y-106108966D01*
X150428487Y-106388889D01*
X150399815Y-106680000D01*
X150428487Y-106971111D01*
X150513401Y-107251034D01*
X150651294Y-107509014D01*
X150836866Y-107735134D01*
X151062986Y-107920706D01*
X151117791Y-107950000D01*
X151062986Y-107979294D01*
X150836866Y-108164866D01*
X150651294Y-108390986D01*
X150513401Y-108648966D01*
X150428487Y-108928889D01*
X150399815Y-109220000D01*
X150428487Y-109511111D01*
X150513401Y-109791034D01*
X150651294Y-110049014D01*
X150836866Y-110275134D01*
X151062986Y-110460706D01*
X151117791Y-110490000D01*
X151062986Y-110519294D01*
X150836866Y-110704866D01*
X150651294Y-110930986D01*
X150513401Y-111188966D01*
X150428487Y-111468889D01*
X150399815Y-111760000D01*
X150428487Y-112051111D01*
X150513401Y-112331034D01*
X150651294Y-112589014D01*
X150836866Y-112815134D01*
X151062986Y-113000706D01*
X151117791Y-113030000D01*
X151062986Y-113059294D01*
X150836866Y-113244866D01*
X150651294Y-113470986D01*
X150513401Y-113728966D01*
X150428487Y-114008889D01*
X150399815Y-114300000D01*
X150428487Y-114591111D01*
X150513401Y-114871034D01*
X150651294Y-115129014D01*
X150836866Y-115355134D01*
X151062986Y-115540706D01*
X151320966Y-115678599D01*
X151600889Y-115763513D01*
X151819050Y-115785000D01*
X151964950Y-115785000D01*
X152183111Y-115763513D01*
X152463034Y-115678599D01*
X152721014Y-115540706D01*
X152947134Y-115355134D01*
X153132706Y-115129014D01*
X153270599Y-114871034D01*
X153355513Y-114591111D01*
X153384185Y-114300000D01*
X153355513Y-114008889D01*
X153270599Y-113728966D01*
X153132706Y-113470986D01*
X152947134Y-113244866D01*
X152721014Y-113059294D01*
X152666209Y-113030000D01*
X152721014Y-113000706D01*
X152947134Y-112815134D01*
X153132706Y-112589014D01*
X153270599Y-112331034D01*
X153355513Y-112051111D01*
X153384185Y-111760000D01*
X153355513Y-111468889D01*
X153270599Y-111188966D01*
X153132706Y-110930986D01*
X152947134Y-110704866D01*
X152721014Y-110519294D01*
X152666209Y-110490000D01*
X152721014Y-110460706D01*
X152947134Y-110275134D01*
X153132706Y-110049014D01*
X153270599Y-109791034D01*
X153355513Y-109511111D01*
X153384185Y-109220000D01*
X153355513Y-108928889D01*
X153270599Y-108648966D01*
X153132706Y-108390986D01*
X152947134Y-108164866D01*
X152721014Y-107979294D01*
X152666209Y-107950000D01*
X152721014Y-107920706D01*
X152947134Y-107735134D01*
X153132706Y-107509014D01*
X153270599Y-107251034D01*
X153355513Y-106971111D01*
X153384185Y-106680000D01*
X153355513Y-106388889D01*
X153270599Y-106108966D01*
X153132706Y-105850986D01*
X152947134Y-105624866D01*
X152721014Y-105439294D01*
X152666209Y-105410000D01*
X152721014Y-105380706D01*
X152947134Y-105195134D01*
X153132706Y-104969014D01*
X153270599Y-104711034D01*
X153355513Y-104431111D01*
X153384185Y-104140000D01*
X153355513Y-103848889D01*
X153270599Y-103568966D01*
X153132706Y-103310986D01*
X152947134Y-103084866D01*
X152721014Y-102899294D01*
X152666209Y-102870000D01*
X152721014Y-102840706D01*
X152947134Y-102655134D01*
X153132706Y-102429014D01*
X153270599Y-102171034D01*
X153355513Y-101891111D01*
X153384185Y-101600000D01*
X153355513Y-101308889D01*
X153270599Y-101028966D01*
X153132706Y-100770986D01*
X152947134Y-100544866D01*
X152721014Y-100359294D01*
X152666209Y-100330000D01*
X152721014Y-100300706D01*
X152947134Y-100115134D01*
X153132706Y-99889014D01*
X153270599Y-99631034D01*
X153355513Y-99351111D01*
X153384185Y-99060000D01*
X153355513Y-98768889D01*
X153341816Y-98723735D01*
X153576228Y-98489323D01*
X153606270Y-98464668D01*
X153704667Y-98344771D01*
X153777783Y-98207982D01*
X153822807Y-98059556D01*
X153834201Y-97943872D01*
X153834201Y-97943863D01*
X153838009Y-97905200D01*
X153834201Y-97866537D01*
X153834201Y-97393755D01*
X153929312Y-97374836D01*
X154091099Y-97307821D01*
X154236704Y-97210531D01*
X154360531Y-97086704D01*
X154457821Y-96941099D01*
X154524836Y-96779312D01*
X154524984Y-96778566D01*
X155088428Y-96215123D01*
X155118469Y-96190469D01*
X155193617Y-96098901D01*
X155216866Y-96070573D01*
X155289982Y-95933783D01*
X155308300Y-95873395D01*
X155308301Y-117462300D01*
X147137618Y-117462300D01*
X147423082Y-117344057D01*
X147985685Y-116968138D01*
X148464138Y-116489685D01*
X148840057Y-115927082D01*
X149098994Y-115301952D01*
X149231000Y-114638318D01*
X149231000Y-113961682D01*
X149098994Y-113298048D01*
X148840057Y-112672918D01*
X148464138Y-112110315D01*
X147985685Y-111631862D01*
X147423082Y-111255943D01*
X146797952Y-110997006D01*
X146134318Y-110865000D01*
X145457682Y-110865000D01*
X144794048Y-110997006D01*
X144168918Y-111255943D01*
X143606315Y-111631862D01*
X143127862Y-112110315D01*
X142751943Y-112672918D01*
X142493006Y-113298048D01*
X142361000Y-113961682D01*
X142361000Y-114638318D01*
X142493006Y-115301952D01*
X142751943Y-115927082D01*
X143127862Y-116489685D01*
X143606315Y-116968138D01*
X144168918Y-117344057D01*
X144454382Y-117462300D01*
X118503702Y-117462300D01*
X118503702Y-113111198D01*
X118554966Y-113138599D01*
X118834889Y-113223513D01*
X119053050Y-113245000D01*
X119198950Y-113245000D01*
X119417111Y-113223513D01*
X119697034Y-113138599D01*
X119955014Y-113000706D01*
X120181134Y-112815134D01*
X120366706Y-112589014D01*
X120396000Y-112534209D01*
X120425294Y-112589014D01*
X120610866Y-112815134D01*
X120836986Y-113000706D01*
X121094966Y-113138599D01*
X121374889Y-113223513D01*
X121593050Y-113245000D01*
X121738950Y-113245000D01*
X121957111Y-113223513D01*
X122237034Y-113138599D01*
X122495014Y-113000706D01*
X122721134Y-112815134D01*
X122906706Y-112589014D01*
X122936000Y-112534209D01*
X122965294Y-112589014D01*
X123150866Y-112815134D01*
X123376986Y-113000706D01*
X123634966Y-113138599D01*
X123914889Y-113223513D01*
X124133050Y-113245000D01*
X124278950Y-113245000D01*
X124497111Y-113223513D01*
X124777034Y-113138599D01*
X125035014Y-113000706D01*
X125261134Y-112815134D01*
X125446706Y-112589014D01*
X125481201Y-112524477D01*
X125550822Y-112641355D01*
X125745731Y-112857588D01*
X125979080Y-113031641D01*
X126241901Y-113156825D01*
X126389110Y-113201476D01*
X126619000Y-113080155D01*
X126619000Y-111887000D01*
X126599000Y-111887000D01*
X126599000Y-111633000D01*
X126619000Y-111633000D01*
X126619000Y-111613000D01*
X126873000Y-111613000D01*
X126873000Y-111633000D01*
X126893000Y-111633000D01*
X126893000Y-111887000D01*
X126873000Y-111887000D01*
X126873000Y-113080155D01*
X127102890Y-113201476D01*
X127250099Y-113156825D01*
X127512920Y-113031641D01*
X127746269Y-112857588D01*
X127941178Y-112641355D01*
X128010799Y-112524477D01*
X128045294Y-112589014D01*
X128230866Y-112815134D01*
X128456986Y-113000706D01*
X128714966Y-113138599D01*
X128994889Y-113223513D01*
X129213050Y-113245000D01*
X129358950Y-113245000D01*
X129577111Y-113223513D01*
X129857034Y-113138599D01*
X130115014Y-113000706D01*
X130341134Y-112815134D01*
X130526706Y-112589014D01*
X130561201Y-112524477D01*
X130630822Y-112641355D01*
X130825731Y-112857588D01*
X131059080Y-113031641D01*
X131321901Y-113156825D01*
X131469110Y-113201476D01*
X131699000Y-113080155D01*
X131699000Y-111887000D01*
X131679000Y-111887000D01*
X131679000Y-111633000D01*
X131699000Y-111633000D01*
X131699000Y-111613000D01*
X131953000Y-111613000D01*
X131953000Y-111633000D01*
X131973000Y-111633000D01*
X131973000Y-111887000D01*
X131953000Y-111887000D01*
X131953000Y-113080155D01*
X132182890Y-113201476D01*
X132330099Y-113156825D01*
X132592920Y-113031641D01*
X132826269Y-112857588D01*
X133021178Y-112641355D01*
X133090799Y-112524477D01*
X133125294Y-112589014D01*
X133310866Y-112815134D01*
X133536986Y-113000706D01*
X133794966Y-113138599D01*
X134074889Y-113223513D01*
X134293050Y-113245000D01*
X134438950Y-113245000D01*
X134657111Y-113223513D01*
X134937034Y-113138599D01*
X135195014Y-113000706D01*
X135421134Y-112815134D01*
X135606706Y-112589014D01*
X135744599Y-112331034D01*
X135829513Y-112051111D01*
X135858185Y-111760000D01*
X135829513Y-111468889D01*
X135744599Y-111188966D01*
X135717197Y-111137700D01*
X141763810Y-111137700D01*
X141791920Y-111134931D01*
X141801342Y-111134997D01*
X141810343Y-111134115D01*
X142106146Y-111103025D01*
X142163667Y-111091218D01*
X142221318Y-111080220D01*
X142229970Y-111077608D01*
X142229974Y-111077607D01*
X142229977Y-111077606D01*
X142514107Y-110989652D01*
X142568251Y-110966892D01*
X142622652Y-110944913D01*
X142630629Y-110940671D01*
X142630639Y-110940667D01*
X142630647Y-110940662D01*
X142892272Y-110799202D01*
X142940979Y-110766349D01*
X142990061Y-110734231D01*
X142997059Y-110728523D01*
X142997071Y-110728515D01*
X142997080Y-110728506D01*
X143226245Y-110538926D01*
X143267630Y-110497252D01*
X143309555Y-110456196D01*
X143315314Y-110449234D01*
X143315318Y-110449230D01*
X143315321Y-110449226D01*
X143503305Y-110218734D01*
X143535791Y-110169839D01*
X143568958Y-110121400D01*
X143573259Y-110113445D01*
X143712895Y-109850827D01*
X143735293Y-109796486D01*
X143758390Y-109742597D01*
X143761065Y-109733958D01*
X143847033Y-109449220D01*
X143858438Y-109391623D01*
X143870641Y-109334210D01*
X143871586Y-109325217D01*
X143900610Y-109029204D01*
X143900610Y-109029171D01*
X143903699Y-108997809D01*
X143903700Y-104878241D01*
X143977901Y-104927821D01*
X144139688Y-104994836D01*
X144246601Y-105016102D01*
X144246601Y-106258269D01*
X144246179Y-106258901D01*
X144179164Y-106420688D01*
X144145000Y-106592441D01*
X144145000Y-106767559D01*
X144179164Y-106939312D01*
X144246179Y-107101099D01*
X144343469Y-107246704D01*
X144467296Y-107370531D01*
X144612901Y-107467821D01*
X144774688Y-107534836D01*
X144946441Y-107569000D01*
X145121559Y-107569000D01*
X145135600Y-107566207D01*
X145135600Y-108798271D01*
X145135179Y-108798901D01*
X145068164Y-108960688D01*
X145034000Y-109132441D01*
X145034000Y-109307559D01*
X145068164Y-109479312D01*
X145135179Y-109641099D01*
X145232469Y-109786704D01*
X145356296Y-109910531D01*
X145501901Y-110007821D01*
X145663688Y-110074836D01*
X145835441Y-110109000D01*
X146010559Y-110109000D01*
X146182312Y-110074836D01*
X146344099Y-110007821D01*
X146489704Y-109910531D01*
X146613531Y-109786704D01*
X146710821Y-109641099D01*
X146777836Y-109479312D01*
X146812000Y-109307559D01*
X146812000Y-109132441D01*
X146777836Y-108960688D01*
X146710821Y-108798901D01*
X146710400Y-108798271D01*
X146710400Y-93408645D01*
X146714208Y-93369980D01*
X146710400Y-93331315D01*
X146710400Y-93331307D01*
X146699006Y-93215623D01*
X146653982Y-93067197D01*
X146580866Y-92930408D01*
X146553389Y-92896927D01*
X146507122Y-92840550D01*
X146507119Y-92840547D01*
X146482469Y-92810511D01*
X146452433Y-92785861D01*
X146001571Y-92335000D01*
X146134318Y-92335000D01*
X146797952Y-92202994D01*
X147423082Y-91944057D01*
X147985685Y-91568138D01*
X148464138Y-91089685D01*
X148840057Y-90527082D01*
X149098994Y-89901952D01*
X149231000Y-89238318D01*
X149231000Y-88561682D01*
X149098994Y-87898048D01*
X148840057Y-87272918D01*
X148464138Y-86710315D01*
X148336422Y-86582599D01*
X150874049Y-86582599D01*
X151703377Y-87411928D01*
X151703377Y-87411928D01*
G37*
X151703377Y-87411928D02*
X151042000Y-87411928D01*
X150917518Y-87424188D01*
X150797820Y-87460498D01*
X150687506Y-87519463D01*
X150590815Y-87598815D01*
X150511463Y-87695506D01*
X150452498Y-87805820D01*
X150416188Y-87925518D01*
X150403928Y-88050000D01*
X150403928Y-89750000D01*
X150416188Y-89874482D01*
X150452498Y-89994180D01*
X150511463Y-90104494D01*
X150590815Y-90201185D01*
X150687506Y-90280537D01*
X150797820Y-90339502D01*
X150878466Y-90363966D01*
X150794412Y-90439731D01*
X150620359Y-90673080D01*
X150495175Y-90935901D01*
X150450524Y-91083110D01*
X150571845Y-91313000D01*
X151765000Y-91313000D01*
X151765000Y-91293000D01*
X152019000Y-91293000D01*
X152019000Y-91313000D01*
X152039000Y-91313000D01*
X152039000Y-91567000D01*
X152019000Y-91567000D01*
X152019000Y-91587000D01*
X151765000Y-91587000D01*
X151765000Y-91567000D01*
X150571845Y-91567000D01*
X150450524Y-91796890D01*
X150495175Y-91944099D01*
X150620359Y-92206920D01*
X150794412Y-92440269D01*
X151010645Y-92635178D01*
X151127523Y-92704799D01*
X151062986Y-92739294D01*
X150836866Y-92924866D01*
X150651294Y-93150986D01*
X150513401Y-93408966D01*
X150428487Y-93688889D01*
X150399815Y-93980000D01*
X150428487Y-94271111D01*
X150513401Y-94551034D01*
X150651294Y-94809014D01*
X150836866Y-95035134D01*
X151062986Y-95220706D01*
X151117791Y-95250000D01*
X151062986Y-95279294D01*
X150836866Y-95464866D01*
X150651294Y-95690986D01*
X150513401Y-95948966D01*
X150428487Y-96228889D01*
X150399815Y-96520000D01*
X150428487Y-96811111D01*
X150513401Y-97091034D01*
X150651294Y-97349014D01*
X150836866Y-97575134D01*
X151062986Y-97760706D01*
X151117791Y-97790000D01*
X151062986Y-97819294D01*
X150836866Y-98004866D01*
X150651294Y-98230986D01*
X150513401Y-98488966D01*
X150428487Y-98768889D01*
X150399815Y-99060000D01*
X150428487Y-99351111D01*
X150513401Y-99631034D01*
X150651294Y-99889014D01*
X150836866Y-100115134D01*
X151062986Y-100300706D01*
X151117791Y-100330000D01*
X151062986Y-100359294D01*
X150836866Y-100544866D01*
X150651294Y-100770986D01*
X150513401Y-101028966D01*
X150428487Y-101308889D01*
X150399815Y-101600000D01*
X150428487Y-101891111D01*
X150513401Y-102171034D01*
X150651294Y-102429014D01*
X150836866Y-102655134D01*
X151062986Y-102840706D01*
X151117791Y-102870000D01*
X151062986Y-102899294D01*
X150836866Y-103084866D01*
X150651294Y-103310986D01*
X150513401Y-103568966D01*
X150428487Y-103848889D01*
X150399815Y-104140000D01*
X150428487Y-104431111D01*
X150513401Y-104711034D01*
X150651294Y-104969014D01*
X150836866Y-105195134D01*
X151062986Y-105380706D01*
X151117791Y-105410000D01*
X151062986Y-105439294D01*
X150836866Y-105624866D01*
X150651294Y-105850986D01*
X150513401Y-106108966D01*
X150428487Y-106388889D01*
X150399815Y-106680000D01*
X150428487Y-106971111D01*
X150513401Y-107251034D01*
X150651294Y-107509014D01*
X150836866Y-107735134D01*
X151062986Y-107920706D01*
X151117791Y-107950000D01*
X151062986Y-107979294D01*
X150836866Y-108164866D01*
X150651294Y-108390986D01*
X150513401Y-108648966D01*
X150428487Y-108928889D01*
X150399815Y-109220000D01*
X150428487Y-109511111D01*
X150513401Y-109791034D01*
X150651294Y-110049014D01*
X150836866Y-110275134D01*
X151062986Y-110460706D01*
X151117791Y-110490000D01*
X151062986Y-110519294D01*
X150836866Y-110704866D01*
X150651294Y-110930986D01*
X150513401Y-111188966D01*
X150428487Y-111468889D01*
X150399815Y-111760000D01*
X150428487Y-112051111D01*
X150513401Y-112331034D01*
X150651294Y-112589014D01*
X150836866Y-112815134D01*
X151062986Y-113000706D01*
X151117791Y-113030000D01*
X151062986Y-113059294D01*
X150836866Y-113244866D01*
X150651294Y-113470986D01*
X150513401Y-113728966D01*
X150428487Y-114008889D01*
X150399815Y-114300000D01*
X150428487Y-114591111D01*
X150513401Y-114871034D01*
X150651294Y-115129014D01*
X150836866Y-115355134D01*
X151062986Y-115540706D01*
X151320966Y-115678599D01*
X151600889Y-115763513D01*
X151819050Y-115785000D01*
X151964950Y-115785000D01*
X152183111Y-115763513D01*
X152463034Y-115678599D01*
X152721014Y-115540706D01*
X152947134Y-115355134D01*
X153132706Y-115129014D01*
X153270599Y-114871034D01*
X153355513Y-114591111D01*
X153384185Y-114300000D01*
X153355513Y-114008889D01*
X153270599Y-113728966D01*
X153132706Y-113470986D01*
X152947134Y-113244866D01*
X152721014Y-113059294D01*
X152666209Y-113030000D01*
X152721014Y-113000706D01*
X152947134Y-112815134D01*
X153132706Y-112589014D01*
X153270599Y-112331034D01*
X153355513Y-112051111D01*
X153384185Y-111760000D01*
X153355513Y-111468889D01*
X153270599Y-111188966D01*
X153132706Y-110930986D01*
X152947134Y-110704866D01*
X152721014Y-110519294D01*
X152666209Y-110490000D01*
X152721014Y-110460706D01*
X152947134Y-110275134D01*
X153132706Y-110049014D01*
X153270599Y-109791034D01*
X153355513Y-109511111D01*
X153384185Y-109220000D01*
X153355513Y-108928889D01*
X153270599Y-108648966D01*
X153132706Y-108390986D01*
X152947134Y-108164866D01*
X152721014Y-107979294D01*
X152666209Y-107950000D01*
X152721014Y-107920706D01*
X152947134Y-107735134D01*
X153132706Y-107509014D01*
X153270599Y-107251034D01*
X153355513Y-106971111D01*
X153384185Y-106680000D01*
X153355513Y-106388889D01*
X153270599Y-106108966D01*
X153132706Y-105850986D01*
X152947134Y-105624866D01*
X152721014Y-105439294D01*
X152666209Y-105410000D01*
X152721014Y-105380706D01*
X152947134Y-105195134D01*
X153132706Y-104969014D01*
X153270599Y-104711034D01*
X153355513Y-104431111D01*
X153384185Y-104140000D01*
X153355513Y-103848889D01*
X153270599Y-103568966D01*
X153132706Y-103310986D01*
X152947134Y-103084866D01*
X152721014Y-102899294D01*
X152666209Y-102870000D01*
X152721014Y-102840706D01*
X152947134Y-102655134D01*
X153132706Y-102429014D01*
X153270599Y-102171034D01*
X153355513Y-101891111D01*
X153384185Y-101600000D01*
X153355513Y-101308889D01*
X153270599Y-101028966D01*
X153132706Y-100770986D01*
X152947134Y-100544866D01*
X152721014Y-100359294D01*
X152666209Y-100330000D01*
X152721014Y-100300706D01*
X152947134Y-100115134D01*
X153132706Y-99889014D01*
X153270599Y-99631034D01*
X153355513Y-99351111D01*
X153384185Y-99060000D01*
X153355513Y-98768889D01*
X153341816Y-98723735D01*
X153576228Y-98489323D01*
X153606270Y-98464668D01*
X153704667Y-98344771D01*
X153777783Y-98207982D01*
X153822807Y-98059556D01*
X153834201Y-97943872D01*
X153834201Y-97943863D01*
X153838009Y-97905200D01*
X153834201Y-97866537D01*
X153834201Y-97393755D01*
X153929312Y-97374836D01*
X154091099Y-97307821D01*
X154236704Y-97210531D01*
X154360531Y-97086704D01*
X154457821Y-96941099D01*
X154524836Y-96779312D01*
X154524984Y-96778566D01*
X155088428Y-96215123D01*
X155118469Y-96190469D01*
X155193617Y-96098901D01*
X155216866Y-96070573D01*
X155289982Y-95933783D01*
X155308300Y-95873395D01*
X155308301Y-117462300D01*
X147137618Y-117462300D01*
X147423082Y-117344057D01*
X147985685Y-116968138D01*
X148464138Y-116489685D01*
X148840057Y-115927082D01*
X149098994Y-115301952D01*
X149231000Y-114638318D01*
X149231000Y-113961682D01*
X149098994Y-113298048D01*
X148840057Y-112672918D01*
X148464138Y-112110315D01*
X147985685Y-111631862D01*
X147423082Y-111255943D01*
X146797952Y-110997006D01*
X146134318Y-110865000D01*
X145457682Y-110865000D01*
X144794048Y-110997006D01*
X144168918Y-111255943D01*
X143606315Y-111631862D01*
X143127862Y-112110315D01*
X142751943Y-112672918D01*
X142493006Y-113298048D01*
X142361000Y-113961682D01*
X142361000Y-114638318D01*
X142493006Y-115301952D01*
X142751943Y-115927082D01*
X143127862Y-116489685D01*
X143606315Y-116968138D01*
X144168918Y-117344057D01*
X144454382Y-117462300D01*
X118503702Y-117462300D01*
X118503702Y-113111198D01*
X118554966Y-113138599D01*
X118834889Y-113223513D01*
X119053050Y-113245000D01*
X119198950Y-113245000D01*
X119417111Y-113223513D01*
X119697034Y-113138599D01*
X119955014Y-113000706D01*
X120181134Y-112815134D01*
X120366706Y-112589014D01*
X120396000Y-112534209D01*
X120425294Y-112589014D01*
X120610866Y-112815134D01*
X120836986Y-113000706D01*
X121094966Y-113138599D01*
X121374889Y-113223513D01*
X121593050Y-113245000D01*
X121738950Y-113245000D01*
X121957111Y-113223513D01*
X122237034Y-113138599D01*
X122495014Y-113000706D01*
X122721134Y-112815134D01*
X122906706Y-112589014D01*
X122936000Y-112534209D01*
X122965294Y-112589014D01*
X123150866Y-112815134D01*
X123376986Y-113000706D01*
X123634966Y-113138599D01*
X123914889Y-113223513D01*
X124133050Y-113245000D01*
X124278950Y-113245000D01*
X124497111Y-113223513D01*
X124777034Y-113138599D01*
X125035014Y-113000706D01*
X125261134Y-112815134D01*
X125446706Y-112589014D01*
X125481201Y-112524477D01*
X125550822Y-112641355D01*
X125745731Y-112857588D01*
X125979080Y-113031641D01*
X126241901Y-113156825D01*
X126389110Y-113201476D01*
X126619000Y-113080155D01*
X126619000Y-111887000D01*
X126599000Y-111887000D01*
X126599000Y-111633000D01*
X126619000Y-111633000D01*
X126619000Y-111613000D01*
X126873000Y-111613000D01*
X126873000Y-111633000D01*
X126893000Y-111633000D01*
X126893000Y-111887000D01*
X126873000Y-111887000D01*
X126873000Y-113080155D01*
X127102890Y-113201476D01*
X127250099Y-113156825D01*
X127512920Y-113031641D01*
X127746269Y-112857588D01*
X127941178Y-112641355D01*
X128010799Y-112524477D01*
X128045294Y-112589014D01*
X128230866Y-112815134D01*
X128456986Y-113000706D01*
X128714966Y-113138599D01*
X128994889Y-113223513D01*
X129213050Y-113245000D01*
X129358950Y-113245000D01*
X129577111Y-113223513D01*
X129857034Y-113138599D01*
X130115014Y-113000706D01*
X130341134Y-112815134D01*
X130526706Y-112589014D01*
X130561201Y-112524477D01*
X130630822Y-112641355D01*
X130825731Y-112857588D01*
X131059080Y-113031641D01*
X131321901Y-113156825D01*
X131469110Y-113201476D01*
X131699000Y-113080155D01*
X131699000Y-111887000D01*
X131679000Y-111887000D01*
X131679000Y-111633000D01*
X131699000Y-111633000D01*
X131699000Y-111613000D01*
X131953000Y-111613000D01*
X131953000Y-111633000D01*
X131973000Y-111633000D01*
X131973000Y-111887000D01*
X131953000Y-111887000D01*
X131953000Y-113080155D01*
X132182890Y-113201476D01*
X132330099Y-113156825D01*
X132592920Y-113031641D01*
X132826269Y-112857588D01*
X133021178Y-112641355D01*
X133090799Y-112524477D01*
X133125294Y-112589014D01*
X133310866Y-112815134D01*
X133536986Y-113000706D01*
X133794966Y-113138599D01*
X134074889Y-113223513D01*
X134293050Y-113245000D01*
X134438950Y-113245000D01*
X134657111Y-113223513D01*
X134937034Y-113138599D01*
X135195014Y-113000706D01*
X135421134Y-112815134D01*
X135606706Y-112589014D01*
X135744599Y-112331034D01*
X135829513Y-112051111D01*
X135858185Y-111760000D01*
X135829513Y-111468889D01*
X135744599Y-111188966D01*
X135717197Y-111137700D01*
X141763810Y-111137700D01*
X141791920Y-111134931D01*
X141801342Y-111134997D01*
X141810343Y-111134115D01*
X142106146Y-111103025D01*
X142163667Y-111091218D01*
X142221318Y-111080220D01*
X142229970Y-111077608D01*
X142229974Y-111077607D01*
X142229977Y-111077606D01*
X142514107Y-110989652D01*
X142568251Y-110966892D01*
X142622652Y-110944913D01*
X142630629Y-110940671D01*
X142630639Y-110940667D01*
X142630647Y-110940662D01*
X142892272Y-110799202D01*
X142940979Y-110766349D01*
X142990061Y-110734231D01*
X142997059Y-110728523D01*
X142997071Y-110728515D01*
X142997080Y-110728506D01*
X143226245Y-110538926D01*
X143267630Y-110497252D01*
X143309555Y-110456196D01*
X143315314Y-110449234D01*
X143315318Y-110449230D01*
X143315321Y-110449226D01*
X143503305Y-110218734D01*
X143535791Y-110169839D01*
X143568958Y-110121400D01*
X143573259Y-110113445D01*
X143712895Y-109850827D01*
X143735293Y-109796486D01*
X143758390Y-109742597D01*
X143761065Y-109733958D01*
X143847033Y-109449220D01*
X143858438Y-109391623D01*
X143870641Y-109334210D01*
X143871586Y-109325217D01*
X143900610Y-109029204D01*
X143900610Y-109029171D01*
X143903699Y-108997809D01*
X143903700Y-104878241D01*
X143977901Y-104927821D01*
X144139688Y-104994836D01*
X144246601Y-105016102D01*
X144246601Y-106258269D01*
X144246179Y-106258901D01*
X144179164Y-106420688D01*
X144145000Y-106592441D01*
X144145000Y-106767559D01*
X144179164Y-106939312D01*
X144246179Y-107101099D01*
X144343469Y-107246704D01*
X144467296Y-107370531D01*
X144612901Y-107467821D01*
X144774688Y-107534836D01*
X144946441Y-107569000D01*
X145121559Y-107569000D01*
X145135600Y-107566207D01*
X145135600Y-108798271D01*
X145135179Y-108798901D01*
X145068164Y-108960688D01*
X145034000Y-109132441D01*
X145034000Y-109307559D01*
X145068164Y-109479312D01*
X145135179Y-109641099D01*
X145232469Y-109786704D01*
X145356296Y-109910531D01*
X145501901Y-110007821D01*
X145663688Y-110074836D01*
X145835441Y-110109000D01*
X146010559Y-110109000D01*
X146182312Y-110074836D01*
X146344099Y-110007821D01*
X146489704Y-109910531D01*
X146613531Y-109786704D01*
X146710821Y-109641099D01*
X146777836Y-109479312D01*
X146812000Y-109307559D01*
X146812000Y-109132441D01*
X146777836Y-108960688D01*
X146710821Y-108798901D01*
X146710400Y-108798271D01*
X146710400Y-93408645D01*
X146714208Y-93369980D01*
X146710400Y-93331315D01*
X146710400Y-93331307D01*
X146699006Y-93215623D01*
X146653982Y-93067197D01*
X146580866Y-92930408D01*
X146553389Y-92896927D01*
X146507122Y-92840550D01*
X146507119Y-92840547D01*
X146482469Y-92810511D01*
X146452433Y-92785861D01*
X146001571Y-92335000D01*
X146134318Y-92335000D01*
X146797952Y-92202994D01*
X147423082Y-91944057D01*
X147985685Y-91568138D01*
X148464138Y-91089685D01*
X148840057Y-90527082D01*
X149098994Y-89901952D01*
X149231000Y-89238318D01*
X149231000Y-88561682D01*
X149098994Y-87898048D01*
X148840057Y-87272918D01*
X148464138Y-86710315D01*
X148336422Y-86582599D01*
X150874049Y-86582599D01*
X151703377Y-87411928D01*
M02*
