G04 #@! TF.GenerationSoftware,KiCad,Pcbnew,(5.1.5)-3*
G04 #@! TF.CreationDate,2020-09-11T13:24:27-05:00*
G04 #@! TF.ProjectId,optical_digitizer,6f707469-6361-46c5-9f64-69676974697a,4.1*
G04 #@! TF.SameCoordinates,Original*
G04 #@! TF.FileFunction,Soldermask,Bot*
G04 #@! TF.FilePolarity,Negative*
%FSLAX46Y46*%
G04 Gerber Fmt 4.6, Leading zero omitted, Abs format (unit mm)*
G04 Created by KiCad (PCBNEW (5.1.5)-3) date 2020-09-11 13:24:27*
%MOMM*%
%LPD*%
G04 APERTURE LIST*
%ADD10C,0.100000*%
%ADD11C,1.741600*%
%ADD12C,1.586600*%
%ADD13C,1.701600*%
%ADD14O,1.301600X1.301600*%
%ADD15O,1.301600X1.701600*%
%ADD16C,2.201600*%
%ADD17C,3.301600*%
%ADD18O,1.801600X1.801600*%
%ADD19R,1.801600X1.801600*%
%ADD20C,1.541600*%
%ADD21C,2.701600*%
%ADD22O,1.701600X1.701600*%
%ADD23R,1.701600X1.701600*%
%ADD24R,2.501600X1.701600*%
%ADD25O,2.501600X1.701600*%
G04 APERTURE END LIST*
D10*
X181338500Y-123190000D02*
G75*
G03X181338500Y-123190000I-871000J0D01*
G01*
X178798500Y-123190000D02*
G75*
G03X178798500Y-123190000I-871000J0D01*
G01*
X181338500Y-125730000D02*
G75*
G03X181338500Y-125730000I-871000J0D01*
G01*
X178798500Y-125730000D02*
G75*
G03X178798500Y-125730000I-871000J0D01*
G01*
X181338500Y-128270000D02*
G75*
G03X181338500Y-128270000I-871000J0D01*
G01*
X178798500Y-128270000D02*
G75*
G03X178798500Y-128270000I-871000J0D01*
G01*
X181338500Y-130810000D02*
G75*
G03X181338500Y-130810000I-871000J0D01*
G01*
X178798500Y-130810000D02*
G75*
G03X178798500Y-130810000I-871000J0D01*
G01*
X181338500Y-133350000D02*
G75*
G03X181338500Y-133350000I-871000J0D01*
G01*
X178798500Y-133350000D02*
G75*
G03X178798500Y-133350000I-871000J0D01*
G01*
X181338500Y-135890000D02*
G75*
G03X181338500Y-135890000I-871000J0D01*
G01*
X178798500Y-135890000D02*
G75*
G03X178798500Y-135890000I-871000J0D01*
G01*
X181338500Y-138430000D02*
G75*
G03X181338500Y-138430000I-871000J0D01*
G01*
X178798500Y-138430000D02*
G75*
G03X178798500Y-138430000I-871000J0D01*
G01*
X181338500Y-140970000D02*
G75*
G03X181338500Y-140970000I-871000J0D01*
G01*
X178798500Y-140970000D02*
G75*
G03X178798500Y-140970000I-871000J0D01*
G01*
X181338500Y-143510000D02*
G75*
G03X181338500Y-143510000I-871000J0D01*
G01*
X178798500Y-143510000D02*
G75*
G03X178798500Y-143510000I-871000J0D01*
G01*
X181338500Y-146050000D02*
G75*
G03X181338500Y-146050000I-871000J0D01*
G01*
X178798500Y-146050000D02*
G75*
G03X178798500Y-146050000I-871000J0D01*
G01*
X181338500Y-148590000D02*
G75*
G03X181338500Y-148590000I-871000J0D01*
G01*
X178798500Y-148590000D02*
G75*
G03X178798500Y-148590000I-871000J0D01*
G01*
D11*
X180467500Y-123190000D03*
X177927500Y-123190000D03*
X180467500Y-125730000D03*
X177927500Y-125730000D03*
X180467500Y-128270000D03*
X177927500Y-128270000D03*
X180467500Y-130810000D03*
X177927500Y-130810000D03*
X180467500Y-133350000D03*
X177927500Y-133350000D03*
X180467500Y-135890000D03*
X177927500Y-135890000D03*
X180467500Y-138430000D03*
X177927500Y-138430000D03*
X180467500Y-140970000D03*
X177927500Y-140970000D03*
X180467500Y-143510000D03*
X177927500Y-143510000D03*
X180467500Y-146050000D03*
X177927500Y-146050000D03*
X180467500Y-148590000D03*
X177927500Y-148590000D03*
D12*
X115570000Y-133604000D03*
X113284000Y-133604000D03*
X113284000Y-129286000D03*
X116459000Y-129286000D03*
X113157000Y-147828000D03*
X115443000Y-147828000D03*
X116332000Y-143546001D03*
X113157000Y-143546001D03*
D13*
X115570000Y-125476000D03*
X115570000Y-122976000D03*
X115443000Y-137200000D03*
X115443000Y-139700000D03*
D12*
X103378000Y-148082000D03*
X101092000Y-148082000D03*
X103632000Y-143764000D03*
X100457000Y-143764000D03*
D14*
X165100000Y-127000000D03*
X166370000Y-125730000D03*
D15*
X165100000Y-124460000D03*
D16*
X154940000Y-121920000D03*
X154940000Y-129540000D03*
X154940000Y-149860000D03*
X154940000Y-142240000D03*
D15*
X165100000Y-144780000D03*
D14*
X166370000Y-146050000D03*
X165100000Y-147320000D03*
D17*
X95250000Y-123190000D03*
X171450000Y-123190000D03*
X171450000Y-148590000D03*
X95250000Y-148590000D03*
D18*
X80264000Y-123190000D03*
X82804000Y-123190000D03*
X80264000Y-125730000D03*
X82804000Y-125730000D03*
X80264000Y-128270000D03*
X82804000Y-128270000D03*
X80264000Y-130810000D03*
X82804000Y-130810000D03*
X80264000Y-133350000D03*
X82804000Y-133350000D03*
X80264000Y-135890000D03*
X82804000Y-135890000D03*
X80264000Y-138430000D03*
X82804000Y-138430000D03*
X80264000Y-140970000D03*
X82804000Y-140970000D03*
X80264000Y-143510000D03*
X82804000Y-143510000D03*
X80264000Y-146050000D03*
X82804000Y-146050000D03*
X80264000Y-148590000D03*
D19*
X82804000Y-148590000D03*
D20*
X130048000Y-127254000D03*
X132588000Y-129794000D03*
X130048000Y-132334000D03*
X130175000Y-144526000D03*
X132715000Y-141986000D03*
X130175000Y-139446000D03*
D21*
X108204000Y-123444000D03*
X108204000Y-148844000D03*
X108204000Y-143764000D03*
X108204000Y-128524000D03*
D22*
X98806000Y-139700000D03*
X106426000Y-132080000D03*
X98806000Y-137160000D03*
X106426000Y-134620000D03*
X98806000Y-134620000D03*
X106426000Y-137160000D03*
X98806000Y-132080000D03*
D23*
X106426000Y-139700000D03*
D24*
X127000000Y-133604000D03*
D25*
X119380000Y-125984000D03*
X127000000Y-131064000D03*
X119380000Y-128524000D03*
X127000000Y-128524000D03*
X119380000Y-131064000D03*
X127000000Y-125984000D03*
X119380000Y-133604000D03*
X119380000Y-145796000D03*
X127000000Y-138176000D03*
X119380000Y-143256000D03*
X127000000Y-140716000D03*
X119380000Y-140716000D03*
X127000000Y-143256000D03*
X119380000Y-138176000D03*
D24*
X127000000Y-145796000D03*
M02*
