G04 #@! TF.GenerationSoftware,KiCad,Pcbnew,(5.1.5)-3*
G04 #@! TF.CreationDate,2020-09-11T13:24:27-05:00*
G04 #@! TF.ProjectId,optical_digitizer,6f707469-6361-46c5-9f64-69676974697a,4.1*
G04 #@! TF.SameCoordinates,Original*
G04 #@! TF.FileFunction,Profile,NP*
%FSLAX46Y46*%
G04 Gerber Fmt 4.6, Leading zero omitted, Abs format (unit mm)*
G04 Created by KiCad (PCBNEW (5.1.5)-3) date 2020-09-11 13:24:27*
%MOMM*%
%LPD*%
G04 APERTURE LIST*
%ADD10C,0.025400*%
%ADD11C,0.050000*%
G04 APERTURE END LIST*
D10*
X190500000Y-152400000D02*
X76200000Y-152400000D01*
X190500000Y-119380000D02*
X190500000Y-152400000D01*
X76200000Y-119380000D02*
X190500000Y-119380000D01*
X76200000Y-152400000D02*
X76200000Y-119380000D01*
D11*
X177347119Y-137518571D02*
X177299500Y-137470952D01*
X177251880Y-137375714D01*
X177251880Y-137137619D01*
X177299500Y-137042380D01*
X177347119Y-136994761D01*
X177442357Y-136947142D01*
X177537595Y-136947142D01*
X177680452Y-136994761D01*
X178251880Y-137566190D01*
X178251880Y-136947142D01*
X177680452Y-136375714D02*
X177632833Y-136470952D01*
X177585214Y-136518571D01*
X177489976Y-136566190D01*
X177442357Y-136566190D01*
X177347119Y-136518571D01*
X177299500Y-136470952D01*
X177251880Y-136375714D01*
X177251880Y-136185238D01*
X177299500Y-136090000D01*
X177347119Y-136042380D01*
X177442357Y-135994761D01*
X177489976Y-135994761D01*
X177585214Y-136042380D01*
X177632833Y-136090000D01*
X177680452Y-136185238D01*
X177680452Y-136375714D01*
X177728071Y-136470952D01*
X177775690Y-136518571D01*
X177870928Y-136566190D01*
X178061404Y-136566190D01*
X178156642Y-136518571D01*
X178204261Y-136470952D01*
X178251880Y-136375714D01*
X178251880Y-136185238D01*
X178204261Y-136090000D01*
X178156642Y-136042380D01*
X178061404Y-135994761D01*
X177870928Y-135994761D01*
X177775690Y-136042380D01*
X177728071Y-136090000D01*
X177680452Y-136185238D01*
X178156642Y-135566190D02*
X178204261Y-135518571D01*
X178251880Y-135566190D01*
X178204261Y-135613809D01*
X178156642Y-135566190D01*
X178251880Y-135566190D01*
X177585214Y-134661428D02*
X178251880Y-134661428D01*
X177204261Y-134899523D02*
X177918547Y-135137619D01*
X177918547Y-134518571D01*
X177585214Y-133709047D02*
X178251880Y-133709047D01*
X177204261Y-133947142D02*
X177918547Y-134185238D01*
X177918547Y-133566190D01*
X177680452Y-133042380D02*
X177632833Y-133137619D01*
X177585214Y-133185238D01*
X177489976Y-133232857D01*
X177442357Y-133232857D01*
X177347119Y-133185238D01*
X177299500Y-133137619D01*
X177251880Y-133042380D01*
X177251880Y-132851904D01*
X177299500Y-132756666D01*
X177347119Y-132709047D01*
X177442357Y-132661428D01*
X177489976Y-132661428D01*
X177585214Y-132709047D01*
X177632833Y-132756666D01*
X177680452Y-132851904D01*
X177680452Y-133042380D01*
X177728071Y-133137619D01*
X177775690Y-133185238D01*
X177870928Y-133232857D01*
X178061404Y-133232857D01*
X178156642Y-133185238D01*
X178204261Y-133137619D01*
X178251880Y-133042380D01*
X178251880Y-132851904D01*
X178204261Y-132756666D01*
X178156642Y-132709047D01*
X178061404Y-132661428D01*
X177870928Y-132661428D01*
X177775690Y-132709047D01*
X177728071Y-132756666D01*
X177680452Y-132851904D01*
M02*
