G04 #@! TF.GenerationSoftware,KiCad,Pcbnew,(5.1.5)-3*
G04 #@! TF.CreationDate,2020-09-11T13:24:27-05:00*
G04 #@! TF.ProjectId,optical_digitizer,6f707469-6361-46c5-9f64-69676974697a,4.1*
G04 #@! TF.SameCoordinates,Original*
G04 #@! TF.FileFunction,Paste,Top*
G04 #@! TF.FilePolarity,Positive*
%FSLAX46Y46*%
G04 Gerber Fmt 4.6, Leading zero omitted, Abs format (unit mm)*
G04 Created by KiCad (PCBNEW (5.1.5)-3) date 2020-09-11 13:24:27*
%MOMM*%
%LPD*%
G04 APERTURE LIST*
%ADD10C,0.100000*%
G04 APERTURE END LIST*
D10*
G36*
X118578691Y-122843053D02*
G01*
X118599926Y-122846203D01*
X118620750Y-122851419D01*
X118640962Y-122858651D01*
X118660368Y-122867830D01*
X118678781Y-122878866D01*
X118696024Y-122891654D01*
X118711930Y-122906070D01*
X118726346Y-122921976D01*
X118739134Y-122939219D01*
X118750170Y-122957632D01*
X118759349Y-122977038D01*
X118766581Y-122997250D01*
X118771797Y-123018074D01*
X118774947Y-123039309D01*
X118776000Y-123060750D01*
X118776000Y-123573250D01*
X118774947Y-123594691D01*
X118771797Y-123615926D01*
X118766581Y-123636750D01*
X118759349Y-123656962D01*
X118750170Y-123676368D01*
X118739134Y-123694781D01*
X118726346Y-123712024D01*
X118711930Y-123727930D01*
X118696024Y-123742346D01*
X118678781Y-123755134D01*
X118660368Y-123766170D01*
X118640962Y-123775349D01*
X118620750Y-123782581D01*
X118599926Y-123787797D01*
X118578691Y-123790947D01*
X118557250Y-123792000D01*
X118119750Y-123792000D01*
X118098309Y-123790947D01*
X118077074Y-123787797D01*
X118056250Y-123782581D01*
X118036038Y-123775349D01*
X118016632Y-123766170D01*
X117998219Y-123755134D01*
X117980976Y-123742346D01*
X117965070Y-123727930D01*
X117950654Y-123712024D01*
X117937866Y-123694781D01*
X117926830Y-123676368D01*
X117917651Y-123656962D01*
X117910419Y-123636750D01*
X117905203Y-123615926D01*
X117902053Y-123594691D01*
X117901000Y-123573250D01*
X117901000Y-123060750D01*
X117902053Y-123039309D01*
X117905203Y-123018074D01*
X117910419Y-122997250D01*
X117917651Y-122977038D01*
X117926830Y-122957632D01*
X117937866Y-122939219D01*
X117950654Y-122921976D01*
X117965070Y-122906070D01*
X117980976Y-122891654D01*
X117998219Y-122878866D01*
X118016632Y-122867830D01*
X118036038Y-122858651D01*
X118056250Y-122851419D01*
X118077074Y-122846203D01*
X118098309Y-122843053D01*
X118119750Y-122842000D01*
X118557250Y-122842000D01*
X118578691Y-122843053D01*
G37*
G36*
X120153691Y-122843053D02*
G01*
X120174926Y-122846203D01*
X120195750Y-122851419D01*
X120215962Y-122858651D01*
X120235368Y-122867830D01*
X120253781Y-122878866D01*
X120271024Y-122891654D01*
X120286930Y-122906070D01*
X120301346Y-122921976D01*
X120314134Y-122939219D01*
X120325170Y-122957632D01*
X120334349Y-122977038D01*
X120341581Y-122997250D01*
X120346797Y-123018074D01*
X120349947Y-123039309D01*
X120351000Y-123060750D01*
X120351000Y-123573250D01*
X120349947Y-123594691D01*
X120346797Y-123615926D01*
X120341581Y-123636750D01*
X120334349Y-123656962D01*
X120325170Y-123676368D01*
X120314134Y-123694781D01*
X120301346Y-123712024D01*
X120286930Y-123727930D01*
X120271024Y-123742346D01*
X120253781Y-123755134D01*
X120235368Y-123766170D01*
X120215962Y-123775349D01*
X120195750Y-123782581D01*
X120174926Y-123787797D01*
X120153691Y-123790947D01*
X120132250Y-123792000D01*
X119694750Y-123792000D01*
X119673309Y-123790947D01*
X119652074Y-123787797D01*
X119631250Y-123782581D01*
X119611038Y-123775349D01*
X119591632Y-123766170D01*
X119573219Y-123755134D01*
X119555976Y-123742346D01*
X119540070Y-123727930D01*
X119525654Y-123712024D01*
X119512866Y-123694781D01*
X119501830Y-123676368D01*
X119492651Y-123656962D01*
X119485419Y-123636750D01*
X119480203Y-123615926D01*
X119477053Y-123594691D01*
X119476000Y-123573250D01*
X119476000Y-123060750D01*
X119477053Y-123039309D01*
X119480203Y-123018074D01*
X119485419Y-122997250D01*
X119492651Y-122977038D01*
X119501830Y-122957632D01*
X119512866Y-122939219D01*
X119525654Y-122921976D01*
X119540070Y-122906070D01*
X119555976Y-122891654D01*
X119573219Y-122878866D01*
X119591632Y-122867830D01*
X119611038Y-122858651D01*
X119631250Y-122851419D01*
X119652074Y-122846203D01*
X119673309Y-122843053D01*
X119694750Y-122842000D01*
X120132250Y-122842000D01*
X120153691Y-122843053D01*
G37*
G36*
X118578691Y-121192053D02*
G01*
X118599926Y-121195203D01*
X118620750Y-121200419D01*
X118640962Y-121207651D01*
X118660368Y-121216830D01*
X118678781Y-121227866D01*
X118696024Y-121240654D01*
X118711930Y-121255070D01*
X118726346Y-121270976D01*
X118739134Y-121288219D01*
X118750170Y-121306632D01*
X118759349Y-121326038D01*
X118766581Y-121346250D01*
X118771797Y-121367074D01*
X118774947Y-121388309D01*
X118776000Y-121409750D01*
X118776000Y-121922250D01*
X118774947Y-121943691D01*
X118771797Y-121964926D01*
X118766581Y-121985750D01*
X118759349Y-122005962D01*
X118750170Y-122025368D01*
X118739134Y-122043781D01*
X118726346Y-122061024D01*
X118711930Y-122076930D01*
X118696024Y-122091346D01*
X118678781Y-122104134D01*
X118660368Y-122115170D01*
X118640962Y-122124349D01*
X118620750Y-122131581D01*
X118599926Y-122136797D01*
X118578691Y-122139947D01*
X118557250Y-122141000D01*
X118119750Y-122141000D01*
X118098309Y-122139947D01*
X118077074Y-122136797D01*
X118056250Y-122131581D01*
X118036038Y-122124349D01*
X118016632Y-122115170D01*
X117998219Y-122104134D01*
X117980976Y-122091346D01*
X117965070Y-122076930D01*
X117950654Y-122061024D01*
X117937866Y-122043781D01*
X117926830Y-122025368D01*
X117917651Y-122005962D01*
X117910419Y-121985750D01*
X117905203Y-121964926D01*
X117902053Y-121943691D01*
X117901000Y-121922250D01*
X117901000Y-121409750D01*
X117902053Y-121388309D01*
X117905203Y-121367074D01*
X117910419Y-121346250D01*
X117917651Y-121326038D01*
X117926830Y-121306632D01*
X117937866Y-121288219D01*
X117950654Y-121270976D01*
X117965070Y-121255070D01*
X117980976Y-121240654D01*
X117998219Y-121227866D01*
X118016632Y-121216830D01*
X118036038Y-121207651D01*
X118056250Y-121200419D01*
X118077074Y-121195203D01*
X118098309Y-121192053D01*
X118119750Y-121191000D01*
X118557250Y-121191000D01*
X118578691Y-121192053D01*
G37*
G36*
X120153691Y-121192053D02*
G01*
X120174926Y-121195203D01*
X120195750Y-121200419D01*
X120215962Y-121207651D01*
X120235368Y-121216830D01*
X120253781Y-121227866D01*
X120271024Y-121240654D01*
X120286930Y-121255070D01*
X120301346Y-121270976D01*
X120314134Y-121288219D01*
X120325170Y-121306632D01*
X120334349Y-121326038D01*
X120341581Y-121346250D01*
X120346797Y-121367074D01*
X120349947Y-121388309D01*
X120351000Y-121409750D01*
X120351000Y-121922250D01*
X120349947Y-121943691D01*
X120346797Y-121964926D01*
X120341581Y-121985750D01*
X120334349Y-122005962D01*
X120325170Y-122025368D01*
X120314134Y-122043781D01*
X120301346Y-122061024D01*
X120286930Y-122076930D01*
X120271024Y-122091346D01*
X120253781Y-122104134D01*
X120235368Y-122115170D01*
X120215962Y-122124349D01*
X120195750Y-122131581D01*
X120174926Y-122136797D01*
X120153691Y-122139947D01*
X120132250Y-122141000D01*
X119694750Y-122141000D01*
X119673309Y-122139947D01*
X119652074Y-122136797D01*
X119631250Y-122131581D01*
X119611038Y-122124349D01*
X119591632Y-122115170D01*
X119573219Y-122104134D01*
X119555976Y-122091346D01*
X119540070Y-122076930D01*
X119525654Y-122061024D01*
X119512866Y-122043781D01*
X119501830Y-122025368D01*
X119492651Y-122005962D01*
X119485419Y-121985750D01*
X119480203Y-121964926D01*
X119477053Y-121943691D01*
X119476000Y-121922250D01*
X119476000Y-121409750D01*
X119477053Y-121388309D01*
X119480203Y-121367074D01*
X119485419Y-121346250D01*
X119492651Y-121326038D01*
X119501830Y-121306632D01*
X119512866Y-121288219D01*
X119525654Y-121270976D01*
X119540070Y-121255070D01*
X119555976Y-121240654D01*
X119573219Y-121227866D01*
X119591632Y-121216830D01*
X119611038Y-121207651D01*
X119631250Y-121200419D01*
X119652074Y-121195203D01*
X119673309Y-121192053D01*
X119694750Y-121191000D01*
X120132250Y-121191000D01*
X120153691Y-121192053D01*
G37*
G36*
X119086691Y-149132053D02*
G01*
X119107926Y-149135203D01*
X119128750Y-149140419D01*
X119148962Y-149147651D01*
X119168368Y-149156830D01*
X119186781Y-149167866D01*
X119204024Y-149180654D01*
X119219930Y-149195070D01*
X119234346Y-149210976D01*
X119247134Y-149228219D01*
X119258170Y-149246632D01*
X119267349Y-149266038D01*
X119274581Y-149286250D01*
X119279797Y-149307074D01*
X119282947Y-149328309D01*
X119284000Y-149349750D01*
X119284000Y-149862250D01*
X119282947Y-149883691D01*
X119279797Y-149904926D01*
X119274581Y-149925750D01*
X119267349Y-149945962D01*
X119258170Y-149965368D01*
X119247134Y-149983781D01*
X119234346Y-150001024D01*
X119219930Y-150016930D01*
X119204024Y-150031346D01*
X119186781Y-150044134D01*
X119168368Y-150055170D01*
X119148962Y-150064349D01*
X119128750Y-150071581D01*
X119107926Y-150076797D01*
X119086691Y-150079947D01*
X119065250Y-150081000D01*
X118627750Y-150081000D01*
X118606309Y-150079947D01*
X118585074Y-150076797D01*
X118564250Y-150071581D01*
X118544038Y-150064349D01*
X118524632Y-150055170D01*
X118506219Y-150044134D01*
X118488976Y-150031346D01*
X118473070Y-150016930D01*
X118458654Y-150001024D01*
X118445866Y-149983781D01*
X118434830Y-149965368D01*
X118425651Y-149945962D01*
X118418419Y-149925750D01*
X118413203Y-149904926D01*
X118410053Y-149883691D01*
X118409000Y-149862250D01*
X118409000Y-149349750D01*
X118410053Y-149328309D01*
X118413203Y-149307074D01*
X118418419Y-149286250D01*
X118425651Y-149266038D01*
X118434830Y-149246632D01*
X118445866Y-149228219D01*
X118458654Y-149210976D01*
X118473070Y-149195070D01*
X118488976Y-149180654D01*
X118506219Y-149167866D01*
X118524632Y-149156830D01*
X118544038Y-149147651D01*
X118564250Y-149140419D01*
X118585074Y-149135203D01*
X118606309Y-149132053D01*
X118627750Y-149131000D01*
X119065250Y-149131000D01*
X119086691Y-149132053D01*
G37*
G36*
X120661691Y-149132053D02*
G01*
X120682926Y-149135203D01*
X120703750Y-149140419D01*
X120723962Y-149147651D01*
X120743368Y-149156830D01*
X120761781Y-149167866D01*
X120779024Y-149180654D01*
X120794930Y-149195070D01*
X120809346Y-149210976D01*
X120822134Y-149228219D01*
X120833170Y-149246632D01*
X120842349Y-149266038D01*
X120849581Y-149286250D01*
X120854797Y-149307074D01*
X120857947Y-149328309D01*
X120859000Y-149349750D01*
X120859000Y-149862250D01*
X120857947Y-149883691D01*
X120854797Y-149904926D01*
X120849581Y-149925750D01*
X120842349Y-149945962D01*
X120833170Y-149965368D01*
X120822134Y-149983781D01*
X120809346Y-150001024D01*
X120794930Y-150016930D01*
X120779024Y-150031346D01*
X120761781Y-150044134D01*
X120743368Y-150055170D01*
X120723962Y-150064349D01*
X120703750Y-150071581D01*
X120682926Y-150076797D01*
X120661691Y-150079947D01*
X120640250Y-150081000D01*
X120202750Y-150081000D01*
X120181309Y-150079947D01*
X120160074Y-150076797D01*
X120139250Y-150071581D01*
X120119038Y-150064349D01*
X120099632Y-150055170D01*
X120081219Y-150044134D01*
X120063976Y-150031346D01*
X120048070Y-150016930D01*
X120033654Y-150001024D01*
X120020866Y-149983781D01*
X120009830Y-149965368D01*
X120000651Y-149945962D01*
X119993419Y-149925750D01*
X119988203Y-149904926D01*
X119985053Y-149883691D01*
X119984000Y-149862250D01*
X119984000Y-149349750D01*
X119985053Y-149328309D01*
X119988203Y-149307074D01*
X119993419Y-149286250D01*
X120000651Y-149266038D01*
X120009830Y-149246632D01*
X120020866Y-149228219D01*
X120033654Y-149210976D01*
X120048070Y-149195070D01*
X120063976Y-149180654D01*
X120081219Y-149167866D01*
X120099632Y-149156830D01*
X120119038Y-149147651D01*
X120139250Y-149140419D01*
X120160074Y-149135203D01*
X120181309Y-149132053D01*
X120202750Y-149131000D01*
X120640250Y-149131000D01*
X120661691Y-149132053D01*
G37*
G36*
X119086691Y-150910053D02*
G01*
X119107926Y-150913203D01*
X119128750Y-150918419D01*
X119148962Y-150925651D01*
X119168368Y-150934830D01*
X119186781Y-150945866D01*
X119204024Y-150958654D01*
X119219930Y-150973070D01*
X119234346Y-150988976D01*
X119247134Y-151006219D01*
X119258170Y-151024632D01*
X119267349Y-151044038D01*
X119274581Y-151064250D01*
X119279797Y-151085074D01*
X119282947Y-151106309D01*
X119284000Y-151127750D01*
X119284000Y-151640250D01*
X119282947Y-151661691D01*
X119279797Y-151682926D01*
X119274581Y-151703750D01*
X119267349Y-151723962D01*
X119258170Y-151743368D01*
X119247134Y-151761781D01*
X119234346Y-151779024D01*
X119219930Y-151794930D01*
X119204024Y-151809346D01*
X119186781Y-151822134D01*
X119168368Y-151833170D01*
X119148962Y-151842349D01*
X119128750Y-151849581D01*
X119107926Y-151854797D01*
X119086691Y-151857947D01*
X119065250Y-151859000D01*
X118627750Y-151859000D01*
X118606309Y-151857947D01*
X118585074Y-151854797D01*
X118564250Y-151849581D01*
X118544038Y-151842349D01*
X118524632Y-151833170D01*
X118506219Y-151822134D01*
X118488976Y-151809346D01*
X118473070Y-151794930D01*
X118458654Y-151779024D01*
X118445866Y-151761781D01*
X118434830Y-151743368D01*
X118425651Y-151723962D01*
X118418419Y-151703750D01*
X118413203Y-151682926D01*
X118410053Y-151661691D01*
X118409000Y-151640250D01*
X118409000Y-151127750D01*
X118410053Y-151106309D01*
X118413203Y-151085074D01*
X118418419Y-151064250D01*
X118425651Y-151044038D01*
X118434830Y-151024632D01*
X118445866Y-151006219D01*
X118458654Y-150988976D01*
X118473070Y-150973070D01*
X118488976Y-150958654D01*
X118506219Y-150945866D01*
X118524632Y-150934830D01*
X118544038Y-150925651D01*
X118564250Y-150918419D01*
X118585074Y-150913203D01*
X118606309Y-150910053D01*
X118627750Y-150909000D01*
X119065250Y-150909000D01*
X119086691Y-150910053D01*
G37*
G36*
X120661691Y-150910053D02*
G01*
X120682926Y-150913203D01*
X120703750Y-150918419D01*
X120723962Y-150925651D01*
X120743368Y-150934830D01*
X120761781Y-150945866D01*
X120779024Y-150958654D01*
X120794930Y-150973070D01*
X120809346Y-150988976D01*
X120822134Y-151006219D01*
X120833170Y-151024632D01*
X120842349Y-151044038D01*
X120849581Y-151064250D01*
X120854797Y-151085074D01*
X120857947Y-151106309D01*
X120859000Y-151127750D01*
X120859000Y-151640250D01*
X120857947Y-151661691D01*
X120854797Y-151682926D01*
X120849581Y-151703750D01*
X120842349Y-151723962D01*
X120833170Y-151743368D01*
X120822134Y-151761781D01*
X120809346Y-151779024D01*
X120794930Y-151794930D01*
X120779024Y-151809346D01*
X120761781Y-151822134D01*
X120743368Y-151833170D01*
X120723962Y-151842349D01*
X120703750Y-151849581D01*
X120682926Y-151854797D01*
X120661691Y-151857947D01*
X120640250Y-151859000D01*
X120202750Y-151859000D01*
X120181309Y-151857947D01*
X120160074Y-151854797D01*
X120139250Y-151849581D01*
X120119038Y-151842349D01*
X120099632Y-151833170D01*
X120081219Y-151822134D01*
X120063976Y-151809346D01*
X120048070Y-151794930D01*
X120033654Y-151779024D01*
X120020866Y-151761781D01*
X120009830Y-151743368D01*
X120000651Y-151723962D01*
X119993419Y-151703750D01*
X119988203Y-151682926D01*
X119985053Y-151661691D01*
X119984000Y-151640250D01*
X119984000Y-151127750D01*
X119985053Y-151106309D01*
X119988203Y-151085074D01*
X119993419Y-151064250D01*
X120000651Y-151044038D01*
X120009830Y-151024632D01*
X120020866Y-151006219D01*
X120033654Y-150988976D01*
X120048070Y-150973070D01*
X120063976Y-150958654D01*
X120081219Y-150945866D01*
X120099632Y-150934830D01*
X120119038Y-150925651D01*
X120139250Y-150918419D01*
X120160074Y-150913203D01*
X120181309Y-150910053D01*
X120202750Y-150909000D01*
X120640250Y-150909000D01*
X120661691Y-150910053D01*
G37*
M02*
