M48
; DRILL file {KiCad (5.1.2)-1} date 10/29/2019 3:21:56 PM
; FORMAT={-:-/ absolute / inch / decimal}
; #@! TF.CreationDate,2019-10-29T15:21:56-05:00
; #@! TF.GenerationSoftware,Kicad,Pcbnew,(5.1.2)-1
; #@! TF.FileFunction,Plated,1,4,PTH
FMAT,2
INCH
T1C0.0100
T2C0.0276
T3C0.0291
T4C0.0309
T5C0.0315
T6C0.0394
T7C0.0409
T8C0.0492
T9C0.0630
%
G90
G05
T1
X3.35Y-5.15
T2
X6.5Y-4.9
X6.5Y-5.0
X6.55Y-4.95
X6.5Y-5.7
X6.5Y-5.8
X6.55Y-5.75
T3
X5.12Y-5.01
X5.12Y-5.21
X5.22Y-5.11
X5.125Y-5.49
X5.125Y-5.69
X5.225Y-5.59
T4
X4.455Y-5.6514
X4.58Y-5.6514
X3.955Y-5.66
X4.08Y-5.66
X4.46Y-5.26
X4.55Y-5.26
X4.455Y-5.82
X4.545Y-5.82
X4.46Y-5.09
X4.585Y-5.09
X3.98Y-5.83
X4.07Y-5.83
T5
X4.7Y-4.96
X4.7Y-5.06
X4.7Y-5.16
X4.7Y-5.26
X5.0Y-4.96
X5.0Y-5.06
X5.0Y-5.16
X5.0Y-5.26
X3.89Y-5.2
X3.89Y-5.3
X3.89Y-5.4
X3.89Y-5.5
X4.19Y-5.2
X4.19Y-5.3
X4.19Y-5.4
X4.19Y-5.5
X4.545Y-5.4016
X4.545Y-5.5
X4.7Y-5.44
X4.7Y-5.54
X4.7Y-5.64
X4.7Y-5.74
X5.0Y-5.44
X5.0Y-5.54
X5.0Y-5.64
X5.0Y-5.74
X4.55Y-4.8416
X4.55Y-4.94
T6
X3.16Y-4.85
X3.16Y-4.95
X3.16Y-5.05
X3.16Y-5.15
X3.16Y-5.25
X3.16Y-5.35
X3.16Y-5.45
X3.16Y-5.55
X3.16Y-5.65
X3.16Y-5.75
X3.16Y-5.85
X3.26Y-4.85
X3.26Y-4.95
X3.26Y-5.05
X3.26Y-5.15
X3.26Y-5.25
X3.26Y-5.35
X3.26Y-5.45
X3.26Y-5.55
X3.26Y-5.65
X3.26Y-5.75
X3.26Y-5.85
T7
X7.0225Y-4.85
X7.0225Y-4.95
X7.0225Y-5.05
X7.0225Y-5.15
X7.0225Y-5.25
X7.0225Y-5.35
X7.0225Y-5.45
X7.0225Y-5.55
X7.0225Y-5.65
X7.0225Y-5.75
X7.0225Y-5.85
X7.1225Y-4.85
X7.1225Y-4.95
X7.1225Y-5.05
X7.1225Y-5.15
X7.1225Y-5.25
X7.1225Y-5.35
X7.1225Y-5.45
X7.1225Y-5.55
X7.1225Y-5.65
X7.1225Y-5.75
X7.1225Y-5.85
T8
X6.1Y-4.8
X6.1Y-5.1
X6.1Y-5.6
X6.1Y-5.9
T9
X4.26Y-5.86
X4.26Y-5.66
X4.26Y-5.06
X4.26Y-4.86
T0
M30
