M48
; DRILL file {KiCad (5.1.12)-1} date 02/08/22 15:15:28
; FORMAT={-:-/ absolute / inch / decimal}
; #@! TF.CreationDate,2022-02-08T15:15:28-06:00
; #@! TF.GenerationSoftware,Kicad,Pcbnew,(5.1.12)-1
; #@! TF.FileFunction,Plated,1,4,PTH
FMAT,2
INCH
T1C0.0100
T2C0.0276
T3C0.0394
T4C0.0409
T5C0.0492
T6C0.0630
%
G90
G05
T1
X3.44Y-5.15
X3.66Y-5.19
X3.67Y-5.48
X3.71Y-5.47
X3.88Y-5.18
X3.89Y-5.45
X4.12Y-5.59
X4.17Y-5.34
X4.17Y-5.49
X4.25Y-4.92
X4.25Y-4.98
X4.64Y-5.19
X4.7192Y-5.56
X4.7792Y-5.52
X4.94Y-5.33
X4.94Y-5.49
X5.0Y-5.17
T2
X5.0Y-4.9
X5.0Y-5.0
X5.0Y-5.7
X5.0Y-5.8
X5.05Y-4.95
X5.05Y-5.75
T3
X3.16Y-4.85
X3.16Y-4.95
X3.16Y-5.05
X3.16Y-5.15
X3.16Y-5.25
X3.16Y-5.35
X3.16Y-5.45
X3.16Y-5.55
X3.16Y-5.65
X3.16Y-5.75
X3.16Y-5.85
X3.26Y-4.85
X3.26Y-4.95
X3.26Y-5.05
X3.26Y-5.15
X3.26Y-5.25
X3.26Y-5.35
X3.26Y-5.45
X3.26Y-5.55
X3.26Y-5.65
X3.26Y-5.75
X3.26Y-5.85
T4
X5.505Y-4.85
X5.505Y-4.95
X5.505Y-5.05
X5.505Y-5.15
X5.505Y-5.25
X5.505Y-5.35
X5.505Y-5.45
X5.505Y-5.55
X5.505Y-5.65
X5.505Y-5.75
X5.505Y-5.85
X5.605Y-4.85
X5.605Y-4.95
X5.605Y-5.05
X5.605Y-5.15
X5.605Y-5.25
X5.605Y-5.35
X5.605Y-5.45
X5.605Y-5.55
X5.605Y-5.65
X5.605Y-5.75
X5.605Y-5.85
T5
X4.6Y-4.8
X4.6Y-5.1
X4.6Y-5.6
X4.6Y-5.9
T6
X4.12Y-5.92
X4.3Y-5.14
X4.3Y-5.55
X4.31Y-5.92
T0
M30
