G04 #@! TF.GenerationSoftware,KiCad,Pcbnew,(5.1.12)-1*
G04 #@! TF.CreationDate,2022-02-08T15:15:27-06:00*
G04 #@! TF.ProjectId,optical_digitizer,6f707469-6361-46c5-9f64-69676974697a,4.2*
G04 #@! TF.SameCoordinates,Original*
G04 #@! TF.FileFunction,Soldermask,Top*
G04 #@! TF.FilePolarity,Negative*
%FSLAX46Y46*%
G04 Gerber Fmt 4.6, Leading zero omitted, Abs format (unit mm)*
G04 Created by KiCad (PCBNEW (5.1.12)-1) date 2022-02-08 15:15:27*
%MOMM*%
%LPD*%
G01*
G04 APERTURE LIST*
%ADD10C,0.100000*%
%ADD11C,1.640000*%
%ADD12O,1.200000X1.200000*%
%ADD13O,1.200000X1.600000*%
%ADD14C,2.100000*%
%ADD15C,3.200000*%
%ADD16O,1.700000X1.700000*%
%ADD17R,1.700000X1.700000*%
%ADD18C,2.600000*%
%ADD19C,3.000000*%
%ADD20R,2.006600X1.549400*%
%ADD21R,1.270000X1.549400*%
G04 APERTURE END LIST*
D10*
X140698500Y-148590000D02*
G75*
G03*
X140698500Y-148590000I-871000J0D01*
G01*
X143238500Y-148590000D02*
G75*
G03*
X143238500Y-148590000I-871000J0D01*
G01*
X140698500Y-146050000D02*
G75*
G03*
X140698500Y-146050000I-871000J0D01*
G01*
X143238500Y-146050000D02*
G75*
G03*
X143238500Y-146050000I-871000J0D01*
G01*
X140698500Y-143510000D02*
G75*
G03*
X140698500Y-143510000I-871000J0D01*
G01*
X143238500Y-143510000D02*
G75*
G03*
X143238500Y-143510000I-871000J0D01*
G01*
X140698500Y-140970000D02*
G75*
G03*
X140698500Y-140970000I-871000J0D01*
G01*
X143238500Y-140970000D02*
G75*
G03*
X143238500Y-140970000I-871000J0D01*
G01*
X140698500Y-138430000D02*
G75*
G03*
X140698500Y-138430000I-871000J0D01*
G01*
X143238500Y-138430000D02*
G75*
G03*
X143238500Y-138430000I-871000J0D01*
G01*
X140698500Y-135890000D02*
G75*
G03*
X140698500Y-135890000I-871000J0D01*
G01*
X143238500Y-135890000D02*
G75*
G03*
X143238500Y-135890000I-871000J0D01*
G01*
X140698500Y-133350000D02*
G75*
G03*
X140698500Y-133350000I-871000J0D01*
G01*
X143238500Y-133350000D02*
G75*
G03*
X143238500Y-133350000I-871000J0D01*
G01*
X140698500Y-130810000D02*
G75*
G03*
X140698500Y-130810000I-871000J0D01*
G01*
X143238500Y-130810000D02*
G75*
G03*
X143238500Y-130810000I-871000J0D01*
G01*
X140698500Y-128270000D02*
G75*
G03*
X140698500Y-128270000I-871000J0D01*
G01*
X143238500Y-128270000D02*
G75*
G03*
X143238500Y-128270000I-871000J0D01*
G01*
X140698500Y-125730000D02*
G75*
G03*
X140698500Y-125730000I-871000J0D01*
G01*
X143238500Y-125730000D02*
G75*
G03*
X143238500Y-125730000I-871000J0D01*
G01*
X140698500Y-123190000D02*
G75*
G03*
X140698500Y-123190000I-871000J0D01*
G01*
X143238500Y-123190000D02*
G75*
G03*
X143238500Y-123190000I-871000J0D01*
G01*
D11*
X142367500Y-123190000D03*
X139827500Y-123190000D03*
X142367500Y-125730000D03*
X139827500Y-125730000D03*
X142367500Y-128270000D03*
X139827500Y-128270000D03*
X142367500Y-130810000D03*
X139827500Y-130810000D03*
X142367500Y-133350000D03*
X139827500Y-133350000D03*
X142367500Y-135890000D03*
X139827500Y-135890000D03*
X142367500Y-138430000D03*
X139827500Y-138430000D03*
X142367500Y-140970000D03*
X139827500Y-140970000D03*
X142367500Y-143510000D03*
X139827500Y-143510000D03*
X142367500Y-146050000D03*
X139827500Y-146050000D03*
X142367500Y-148590000D03*
X139827500Y-148590000D03*
D12*
X127000000Y-127000000D03*
X128270000Y-125730000D03*
D13*
X127000000Y-124460000D03*
D14*
X116840000Y-121920000D03*
X116840000Y-129540000D03*
X116840000Y-149860000D03*
X116840000Y-142240000D03*
D13*
X127000000Y-144780000D03*
D12*
X128270000Y-146050000D03*
X127000000Y-147320000D03*
D15*
X95250000Y-123190000D03*
X133350000Y-123190000D03*
X133350000Y-148590000D03*
X95250000Y-148590000D03*
D16*
X80264000Y-123190000D03*
X82804000Y-123190000D03*
X80264000Y-125730000D03*
X82804000Y-125730000D03*
X80264000Y-128270000D03*
X82804000Y-128270000D03*
X80264000Y-130810000D03*
X82804000Y-130810000D03*
X80264000Y-133350000D03*
X82804000Y-133350000D03*
X80264000Y-135890000D03*
X82804000Y-135890000D03*
X80264000Y-138430000D03*
X82804000Y-138430000D03*
X80264000Y-140970000D03*
X82804000Y-140970000D03*
X80264000Y-143510000D03*
X82804000Y-143510000D03*
X80264000Y-146050000D03*
X82804000Y-146050000D03*
X80264000Y-148590000D03*
D17*
X82804000Y-148590000D03*
D10*
G36*
X89520000Y-146799398D02*
G01*
X89495466Y-146799398D01*
X89446635Y-146794588D01*
X89398510Y-146785016D01*
X89351555Y-146770772D01*
X89306222Y-146751995D01*
X89262949Y-146728864D01*
X89222150Y-146701604D01*
X89184221Y-146670476D01*
X89149524Y-146635779D01*
X89118396Y-146597850D01*
X89091136Y-146557051D01*
X89068005Y-146513778D01*
X89049228Y-146468445D01*
X89034984Y-146421490D01*
X89025412Y-146373365D01*
X89020602Y-146324534D01*
X89020602Y-146300000D01*
X89020000Y-146300000D01*
X89020000Y-145800000D01*
X89020602Y-145800000D01*
X89020602Y-145775466D01*
X89025412Y-145726635D01*
X89034984Y-145678510D01*
X89049228Y-145631555D01*
X89068005Y-145586222D01*
X89091136Y-145542949D01*
X89118396Y-145502150D01*
X89149524Y-145464221D01*
X89184221Y-145429524D01*
X89222150Y-145398396D01*
X89262949Y-145371136D01*
X89306222Y-145348005D01*
X89351555Y-145329228D01*
X89398510Y-145314984D01*
X89446635Y-145305412D01*
X89495466Y-145300602D01*
X89520000Y-145300602D01*
X89520000Y-145300000D01*
X90020000Y-145300000D01*
X90020000Y-146800000D01*
X89520000Y-146800000D01*
X89520000Y-146799398D01*
G37*
G36*
X90320000Y-145300000D02*
G01*
X90820000Y-145300000D01*
X90820000Y-145300602D01*
X90844534Y-145300602D01*
X90893365Y-145305412D01*
X90941490Y-145314984D01*
X90988445Y-145329228D01*
X91033778Y-145348005D01*
X91077051Y-145371136D01*
X91117850Y-145398396D01*
X91155779Y-145429524D01*
X91190476Y-145464221D01*
X91221604Y-145502150D01*
X91248864Y-145542949D01*
X91271995Y-145586222D01*
X91290772Y-145631555D01*
X91305016Y-145678510D01*
X91314588Y-145726635D01*
X91319398Y-145775466D01*
X91319398Y-145800000D01*
X91320000Y-145800000D01*
X91320000Y-146300000D01*
X91319398Y-146300000D01*
X91319398Y-146324534D01*
X91314588Y-146373365D01*
X91305016Y-146421490D01*
X91290772Y-146468445D01*
X91271995Y-146513778D01*
X91248864Y-146557051D01*
X91221604Y-146597850D01*
X91190476Y-146635779D01*
X91155779Y-146670476D01*
X91117850Y-146701604D01*
X91077051Y-146728864D01*
X91033778Y-146751995D01*
X90988445Y-146770772D01*
X90941490Y-146785016D01*
X90893365Y-146794588D01*
X90844534Y-146799398D01*
X90820000Y-146799398D01*
X90820000Y-146800000D01*
X90320000Y-146800000D01*
X90320000Y-145300000D01*
G37*
G36*
X90320000Y-142760000D02*
G01*
X90820000Y-142760000D01*
X90820000Y-142760602D01*
X90844534Y-142760602D01*
X90893365Y-142765412D01*
X90941490Y-142774984D01*
X90988445Y-142789228D01*
X91033778Y-142808005D01*
X91077051Y-142831136D01*
X91117850Y-142858396D01*
X91155779Y-142889524D01*
X91190476Y-142924221D01*
X91221604Y-142962150D01*
X91248864Y-143002949D01*
X91271995Y-143046222D01*
X91290772Y-143091555D01*
X91305016Y-143138510D01*
X91314588Y-143186635D01*
X91319398Y-143235466D01*
X91319398Y-143260000D01*
X91320000Y-143260000D01*
X91320000Y-143760000D01*
X91319398Y-143760000D01*
X91319398Y-143784534D01*
X91314588Y-143833365D01*
X91305016Y-143881490D01*
X91290772Y-143928445D01*
X91271995Y-143973778D01*
X91248864Y-144017051D01*
X91221604Y-144057850D01*
X91190476Y-144095779D01*
X91155779Y-144130476D01*
X91117850Y-144161604D01*
X91077051Y-144188864D01*
X91033778Y-144211995D01*
X90988445Y-144230772D01*
X90941490Y-144245016D01*
X90893365Y-144254588D01*
X90844534Y-144259398D01*
X90820000Y-144259398D01*
X90820000Y-144260000D01*
X90320000Y-144260000D01*
X90320000Y-142760000D01*
G37*
G36*
X89520000Y-144259398D02*
G01*
X89495466Y-144259398D01*
X89446635Y-144254588D01*
X89398510Y-144245016D01*
X89351555Y-144230772D01*
X89306222Y-144211995D01*
X89262949Y-144188864D01*
X89222150Y-144161604D01*
X89184221Y-144130476D01*
X89149524Y-144095779D01*
X89118396Y-144057850D01*
X89091136Y-144017051D01*
X89068005Y-143973778D01*
X89049228Y-143928445D01*
X89034984Y-143881490D01*
X89025412Y-143833365D01*
X89020602Y-143784534D01*
X89020602Y-143760000D01*
X89020000Y-143760000D01*
X89020000Y-143260000D01*
X89020602Y-143260000D01*
X89020602Y-143235466D01*
X89025412Y-143186635D01*
X89034984Y-143138510D01*
X89049228Y-143091555D01*
X89068005Y-143046222D01*
X89091136Y-143002949D01*
X89118396Y-142962150D01*
X89149524Y-142924221D01*
X89184221Y-142889524D01*
X89222150Y-142858396D01*
X89262949Y-142831136D01*
X89306222Y-142808005D01*
X89351555Y-142789228D01*
X89398510Y-142774984D01*
X89446635Y-142765412D01*
X89495466Y-142760602D01*
X89520000Y-142760602D01*
X89520000Y-142760000D01*
X90020000Y-142760000D01*
X90020000Y-144260000D01*
X89520000Y-144260000D01*
X89520000Y-144259398D01*
G37*
G36*
X89520000Y-141719398D02*
G01*
X89495466Y-141719398D01*
X89446635Y-141714588D01*
X89398510Y-141705016D01*
X89351555Y-141690772D01*
X89306222Y-141671995D01*
X89262949Y-141648864D01*
X89222150Y-141621604D01*
X89184221Y-141590476D01*
X89149524Y-141555779D01*
X89118396Y-141517850D01*
X89091136Y-141477051D01*
X89068005Y-141433778D01*
X89049228Y-141388445D01*
X89034984Y-141341490D01*
X89025412Y-141293365D01*
X89020602Y-141244534D01*
X89020602Y-141220000D01*
X89020000Y-141220000D01*
X89020000Y-140720000D01*
X89020602Y-140720000D01*
X89020602Y-140695466D01*
X89025412Y-140646635D01*
X89034984Y-140598510D01*
X89049228Y-140551555D01*
X89068005Y-140506222D01*
X89091136Y-140462949D01*
X89118396Y-140422150D01*
X89149524Y-140384221D01*
X89184221Y-140349524D01*
X89222150Y-140318396D01*
X89262949Y-140291136D01*
X89306222Y-140268005D01*
X89351555Y-140249228D01*
X89398510Y-140234984D01*
X89446635Y-140225412D01*
X89495466Y-140220602D01*
X89520000Y-140220602D01*
X89520000Y-140220000D01*
X90020000Y-140220000D01*
X90020000Y-141720000D01*
X89520000Y-141720000D01*
X89520000Y-141719398D01*
G37*
G36*
X90320000Y-140220000D02*
G01*
X90820000Y-140220000D01*
X90820000Y-140220602D01*
X90844534Y-140220602D01*
X90893365Y-140225412D01*
X90941490Y-140234984D01*
X90988445Y-140249228D01*
X91033778Y-140268005D01*
X91077051Y-140291136D01*
X91117850Y-140318396D01*
X91155779Y-140349524D01*
X91190476Y-140384221D01*
X91221604Y-140422150D01*
X91248864Y-140462949D01*
X91271995Y-140506222D01*
X91290772Y-140551555D01*
X91305016Y-140598510D01*
X91314588Y-140646635D01*
X91319398Y-140695466D01*
X91319398Y-140720000D01*
X91320000Y-140720000D01*
X91320000Y-141220000D01*
X91319398Y-141220000D01*
X91319398Y-141244534D01*
X91314588Y-141293365D01*
X91305016Y-141341490D01*
X91290772Y-141388445D01*
X91271995Y-141433778D01*
X91248864Y-141477051D01*
X91221604Y-141517850D01*
X91190476Y-141555779D01*
X91155779Y-141590476D01*
X91117850Y-141621604D01*
X91077051Y-141648864D01*
X91033778Y-141671995D01*
X90988445Y-141690772D01*
X90941490Y-141705016D01*
X90893365Y-141714588D01*
X90844534Y-141719398D01*
X90820000Y-141719398D01*
X90820000Y-141720000D01*
X90320000Y-141720000D01*
X90320000Y-140220000D01*
G37*
G36*
X90320000Y-137680000D02*
G01*
X90820000Y-137680000D01*
X90820000Y-137680602D01*
X90844534Y-137680602D01*
X90893365Y-137685412D01*
X90941490Y-137694984D01*
X90988445Y-137709228D01*
X91033778Y-137728005D01*
X91077051Y-137751136D01*
X91117850Y-137778396D01*
X91155779Y-137809524D01*
X91190476Y-137844221D01*
X91221604Y-137882150D01*
X91248864Y-137922949D01*
X91271995Y-137966222D01*
X91290772Y-138011555D01*
X91305016Y-138058510D01*
X91314588Y-138106635D01*
X91319398Y-138155466D01*
X91319398Y-138180000D01*
X91320000Y-138180000D01*
X91320000Y-138680000D01*
X91319398Y-138680000D01*
X91319398Y-138704534D01*
X91314588Y-138753365D01*
X91305016Y-138801490D01*
X91290772Y-138848445D01*
X91271995Y-138893778D01*
X91248864Y-138937051D01*
X91221604Y-138977850D01*
X91190476Y-139015779D01*
X91155779Y-139050476D01*
X91117850Y-139081604D01*
X91077051Y-139108864D01*
X91033778Y-139131995D01*
X90988445Y-139150772D01*
X90941490Y-139165016D01*
X90893365Y-139174588D01*
X90844534Y-139179398D01*
X90820000Y-139179398D01*
X90820000Y-139180000D01*
X90320000Y-139180000D01*
X90320000Y-137680000D01*
G37*
G36*
X89520000Y-139179398D02*
G01*
X89495466Y-139179398D01*
X89446635Y-139174588D01*
X89398510Y-139165016D01*
X89351555Y-139150772D01*
X89306222Y-139131995D01*
X89262949Y-139108864D01*
X89222150Y-139081604D01*
X89184221Y-139050476D01*
X89149524Y-139015779D01*
X89118396Y-138977850D01*
X89091136Y-138937051D01*
X89068005Y-138893778D01*
X89049228Y-138848445D01*
X89034984Y-138801490D01*
X89025412Y-138753365D01*
X89020602Y-138704534D01*
X89020602Y-138680000D01*
X89020000Y-138680000D01*
X89020000Y-138180000D01*
X89020602Y-138180000D01*
X89020602Y-138155466D01*
X89025412Y-138106635D01*
X89034984Y-138058510D01*
X89049228Y-138011555D01*
X89068005Y-137966222D01*
X89091136Y-137922949D01*
X89118396Y-137882150D01*
X89149524Y-137844221D01*
X89184221Y-137809524D01*
X89222150Y-137778396D01*
X89262949Y-137751136D01*
X89306222Y-137728005D01*
X89351555Y-137709228D01*
X89398510Y-137694984D01*
X89446635Y-137685412D01*
X89495466Y-137680602D01*
X89520000Y-137680602D01*
X89520000Y-137680000D01*
X90020000Y-137680000D01*
X90020000Y-139180000D01*
X89520000Y-139180000D01*
X89520000Y-139179398D01*
G37*
G36*
X89520000Y-136639398D02*
G01*
X89495466Y-136639398D01*
X89446635Y-136634588D01*
X89398510Y-136625016D01*
X89351555Y-136610772D01*
X89306222Y-136591995D01*
X89262949Y-136568864D01*
X89222150Y-136541604D01*
X89184221Y-136510476D01*
X89149524Y-136475779D01*
X89118396Y-136437850D01*
X89091136Y-136397051D01*
X89068005Y-136353778D01*
X89049228Y-136308445D01*
X89034984Y-136261490D01*
X89025412Y-136213365D01*
X89020602Y-136164534D01*
X89020602Y-136140000D01*
X89020000Y-136140000D01*
X89020000Y-135640000D01*
X89020602Y-135640000D01*
X89020602Y-135615466D01*
X89025412Y-135566635D01*
X89034984Y-135518510D01*
X89049228Y-135471555D01*
X89068005Y-135426222D01*
X89091136Y-135382949D01*
X89118396Y-135342150D01*
X89149524Y-135304221D01*
X89184221Y-135269524D01*
X89222150Y-135238396D01*
X89262949Y-135211136D01*
X89306222Y-135188005D01*
X89351555Y-135169228D01*
X89398510Y-135154984D01*
X89446635Y-135145412D01*
X89495466Y-135140602D01*
X89520000Y-135140602D01*
X89520000Y-135140000D01*
X90020000Y-135140000D01*
X90020000Y-136640000D01*
X89520000Y-136640000D01*
X89520000Y-136639398D01*
G37*
G36*
X90320000Y-135140000D02*
G01*
X90820000Y-135140000D01*
X90820000Y-135140602D01*
X90844534Y-135140602D01*
X90893365Y-135145412D01*
X90941490Y-135154984D01*
X90988445Y-135169228D01*
X91033778Y-135188005D01*
X91077051Y-135211136D01*
X91117850Y-135238396D01*
X91155779Y-135269524D01*
X91190476Y-135304221D01*
X91221604Y-135342150D01*
X91248864Y-135382949D01*
X91271995Y-135426222D01*
X91290772Y-135471555D01*
X91305016Y-135518510D01*
X91314588Y-135566635D01*
X91319398Y-135615466D01*
X91319398Y-135640000D01*
X91320000Y-135640000D01*
X91320000Y-136140000D01*
X91319398Y-136140000D01*
X91319398Y-136164534D01*
X91314588Y-136213365D01*
X91305016Y-136261490D01*
X91290772Y-136308445D01*
X91271995Y-136353778D01*
X91248864Y-136397051D01*
X91221604Y-136437850D01*
X91190476Y-136475779D01*
X91155779Y-136510476D01*
X91117850Y-136541604D01*
X91077051Y-136568864D01*
X91033778Y-136591995D01*
X90988445Y-136610772D01*
X90941490Y-136625016D01*
X90893365Y-136634588D01*
X90844534Y-136639398D01*
X90820000Y-136639398D01*
X90820000Y-136640000D01*
X90320000Y-136640000D01*
X90320000Y-135140000D01*
G37*
G36*
X90320000Y-132600000D02*
G01*
X90820000Y-132600000D01*
X90820000Y-132600602D01*
X90844534Y-132600602D01*
X90893365Y-132605412D01*
X90941490Y-132614984D01*
X90988445Y-132629228D01*
X91033778Y-132648005D01*
X91077051Y-132671136D01*
X91117850Y-132698396D01*
X91155779Y-132729524D01*
X91190476Y-132764221D01*
X91221604Y-132802150D01*
X91248864Y-132842949D01*
X91271995Y-132886222D01*
X91290772Y-132931555D01*
X91305016Y-132978510D01*
X91314588Y-133026635D01*
X91319398Y-133075466D01*
X91319398Y-133100000D01*
X91320000Y-133100000D01*
X91320000Y-133600000D01*
X91319398Y-133600000D01*
X91319398Y-133624534D01*
X91314588Y-133673365D01*
X91305016Y-133721490D01*
X91290772Y-133768445D01*
X91271995Y-133813778D01*
X91248864Y-133857051D01*
X91221604Y-133897850D01*
X91190476Y-133935779D01*
X91155779Y-133970476D01*
X91117850Y-134001604D01*
X91077051Y-134028864D01*
X91033778Y-134051995D01*
X90988445Y-134070772D01*
X90941490Y-134085016D01*
X90893365Y-134094588D01*
X90844534Y-134099398D01*
X90820000Y-134099398D01*
X90820000Y-134100000D01*
X90320000Y-134100000D01*
X90320000Y-132600000D01*
G37*
G36*
X89520000Y-134099398D02*
G01*
X89495466Y-134099398D01*
X89446635Y-134094588D01*
X89398510Y-134085016D01*
X89351555Y-134070772D01*
X89306222Y-134051995D01*
X89262949Y-134028864D01*
X89222150Y-134001604D01*
X89184221Y-133970476D01*
X89149524Y-133935779D01*
X89118396Y-133897850D01*
X89091136Y-133857051D01*
X89068005Y-133813778D01*
X89049228Y-133768445D01*
X89034984Y-133721490D01*
X89025412Y-133673365D01*
X89020602Y-133624534D01*
X89020602Y-133600000D01*
X89020000Y-133600000D01*
X89020000Y-133100000D01*
X89020602Y-133100000D01*
X89020602Y-133075466D01*
X89025412Y-133026635D01*
X89034984Y-132978510D01*
X89049228Y-132931555D01*
X89068005Y-132886222D01*
X89091136Y-132842949D01*
X89118396Y-132802150D01*
X89149524Y-132764221D01*
X89184221Y-132729524D01*
X89222150Y-132698396D01*
X89262949Y-132671136D01*
X89306222Y-132648005D01*
X89351555Y-132629228D01*
X89398510Y-132614984D01*
X89446635Y-132605412D01*
X89495466Y-132600602D01*
X89520000Y-132600602D01*
X89520000Y-132600000D01*
X90020000Y-132600000D01*
X90020000Y-134100000D01*
X89520000Y-134100000D01*
X89520000Y-134099398D01*
G37*
G36*
X89520000Y-131559398D02*
G01*
X89495466Y-131559398D01*
X89446635Y-131554588D01*
X89398510Y-131545016D01*
X89351555Y-131530772D01*
X89306222Y-131511995D01*
X89262949Y-131488864D01*
X89222150Y-131461604D01*
X89184221Y-131430476D01*
X89149524Y-131395779D01*
X89118396Y-131357850D01*
X89091136Y-131317051D01*
X89068005Y-131273778D01*
X89049228Y-131228445D01*
X89034984Y-131181490D01*
X89025412Y-131133365D01*
X89020602Y-131084534D01*
X89020602Y-131060000D01*
X89020000Y-131060000D01*
X89020000Y-130560000D01*
X89020602Y-130560000D01*
X89020602Y-130535466D01*
X89025412Y-130486635D01*
X89034984Y-130438510D01*
X89049228Y-130391555D01*
X89068005Y-130346222D01*
X89091136Y-130302949D01*
X89118396Y-130262150D01*
X89149524Y-130224221D01*
X89184221Y-130189524D01*
X89222150Y-130158396D01*
X89262949Y-130131136D01*
X89306222Y-130108005D01*
X89351555Y-130089228D01*
X89398510Y-130074984D01*
X89446635Y-130065412D01*
X89495466Y-130060602D01*
X89520000Y-130060602D01*
X89520000Y-130060000D01*
X90020000Y-130060000D01*
X90020000Y-131560000D01*
X89520000Y-131560000D01*
X89520000Y-131559398D01*
G37*
G36*
X90320000Y-130060000D02*
G01*
X90820000Y-130060000D01*
X90820000Y-130060602D01*
X90844534Y-130060602D01*
X90893365Y-130065412D01*
X90941490Y-130074984D01*
X90988445Y-130089228D01*
X91033778Y-130108005D01*
X91077051Y-130131136D01*
X91117850Y-130158396D01*
X91155779Y-130189524D01*
X91190476Y-130224221D01*
X91221604Y-130262150D01*
X91248864Y-130302949D01*
X91271995Y-130346222D01*
X91290772Y-130391555D01*
X91305016Y-130438510D01*
X91314588Y-130486635D01*
X91319398Y-130535466D01*
X91319398Y-130560000D01*
X91320000Y-130560000D01*
X91320000Y-131060000D01*
X91319398Y-131060000D01*
X91319398Y-131084534D01*
X91314588Y-131133365D01*
X91305016Y-131181490D01*
X91290772Y-131228445D01*
X91271995Y-131273778D01*
X91248864Y-131317051D01*
X91221604Y-131357850D01*
X91190476Y-131395779D01*
X91155779Y-131430476D01*
X91117850Y-131461604D01*
X91077051Y-131488864D01*
X91033778Y-131511995D01*
X90988445Y-131530772D01*
X90941490Y-131545016D01*
X90893365Y-131554588D01*
X90844534Y-131559398D01*
X90820000Y-131559398D01*
X90820000Y-131560000D01*
X90320000Y-131560000D01*
X90320000Y-130060000D01*
G37*
G36*
X90320000Y-127520000D02*
G01*
X90820000Y-127520000D01*
X90820000Y-127520602D01*
X90844534Y-127520602D01*
X90893365Y-127525412D01*
X90941490Y-127534984D01*
X90988445Y-127549228D01*
X91033778Y-127568005D01*
X91077051Y-127591136D01*
X91117850Y-127618396D01*
X91155779Y-127649524D01*
X91190476Y-127684221D01*
X91221604Y-127722150D01*
X91248864Y-127762949D01*
X91271995Y-127806222D01*
X91290772Y-127851555D01*
X91305016Y-127898510D01*
X91314588Y-127946635D01*
X91319398Y-127995466D01*
X91319398Y-128020000D01*
X91320000Y-128020000D01*
X91320000Y-128520000D01*
X91319398Y-128520000D01*
X91319398Y-128544534D01*
X91314588Y-128593365D01*
X91305016Y-128641490D01*
X91290772Y-128688445D01*
X91271995Y-128733778D01*
X91248864Y-128777051D01*
X91221604Y-128817850D01*
X91190476Y-128855779D01*
X91155779Y-128890476D01*
X91117850Y-128921604D01*
X91077051Y-128948864D01*
X91033778Y-128971995D01*
X90988445Y-128990772D01*
X90941490Y-129005016D01*
X90893365Y-129014588D01*
X90844534Y-129019398D01*
X90820000Y-129019398D01*
X90820000Y-129020000D01*
X90320000Y-129020000D01*
X90320000Y-127520000D01*
G37*
G36*
X89520000Y-129019398D02*
G01*
X89495466Y-129019398D01*
X89446635Y-129014588D01*
X89398510Y-129005016D01*
X89351555Y-128990772D01*
X89306222Y-128971995D01*
X89262949Y-128948864D01*
X89222150Y-128921604D01*
X89184221Y-128890476D01*
X89149524Y-128855779D01*
X89118396Y-128817850D01*
X89091136Y-128777051D01*
X89068005Y-128733778D01*
X89049228Y-128688445D01*
X89034984Y-128641490D01*
X89025412Y-128593365D01*
X89020602Y-128544534D01*
X89020602Y-128520000D01*
X89020000Y-128520000D01*
X89020000Y-128020000D01*
X89020602Y-128020000D01*
X89020602Y-127995466D01*
X89025412Y-127946635D01*
X89034984Y-127898510D01*
X89049228Y-127851555D01*
X89068005Y-127806222D01*
X89091136Y-127762949D01*
X89118396Y-127722150D01*
X89149524Y-127684221D01*
X89184221Y-127649524D01*
X89222150Y-127618396D01*
X89262949Y-127591136D01*
X89306222Y-127568005D01*
X89351555Y-127549228D01*
X89398510Y-127534984D01*
X89446635Y-127525412D01*
X89495466Y-127520602D01*
X89520000Y-127520602D01*
X89520000Y-127520000D01*
X90020000Y-127520000D01*
X90020000Y-129020000D01*
X89520000Y-129020000D01*
X89520000Y-129019398D01*
G37*
G36*
X89520000Y-126479398D02*
G01*
X89495466Y-126479398D01*
X89446635Y-126474588D01*
X89398510Y-126465016D01*
X89351555Y-126450772D01*
X89306222Y-126431995D01*
X89262949Y-126408864D01*
X89222150Y-126381604D01*
X89184221Y-126350476D01*
X89149524Y-126315779D01*
X89118396Y-126277850D01*
X89091136Y-126237051D01*
X89068005Y-126193778D01*
X89049228Y-126148445D01*
X89034984Y-126101490D01*
X89025412Y-126053365D01*
X89020602Y-126004534D01*
X89020602Y-125980000D01*
X89020000Y-125980000D01*
X89020000Y-125480000D01*
X89020602Y-125480000D01*
X89020602Y-125455466D01*
X89025412Y-125406635D01*
X89034984Y-125358510D01*
X89049228Y-125311555D01*
X89068005Y-125266222D01*
X89091136Y-125222949D01*
X89118396Y-125182150D01*
X89149524Y-125144221D01*
X89184221Y-125109524D01*
X89222150Y-125078396D01*
X89262949Y-125051136D01*
X89306222Y-125028005D01*
X89351555Y-125009228D01*
X89398510Y-124994984D01*
X89446635Y-124985412D01*
X89495466Y-124980602D01*
X89520000Y-124980602D01*
X89520000Y-124980000D01*
X90020000Y-124980000D01*
X90020000Y-126480000D01*
X89520000Y-126480000D01*
X89520000Y-126479398D01*
G37*
G36*
X90320000Y-124980000D02*
G01*
X90820000Y-124980000D01*
X90820000Y-124980602D01*
X90844534Y-124980602D01*
X90893365Y-124985412D01*
X90941490Y-124994984D01*
X90988445Y-125009228D01*
X91033778Y-125028005D01*
X91077051Y-125051136D01*
X91117850Y-125078396D01*
X91155779Y-125109524D01*
X91190476Y-125144221D01*
X91221604Y-125182150D01*
X91248864Y-125222949D01*
X91271995Y-125266222D01*
X91290772Y-125311555D01*
X91305016Y-125358510D01*
X91314588Y-125406635D01*
X91319398Y-125455466D01*
X91319398Y-125480000D01*
X91320000Y-125480000D01*
X91320000Y-125980000D01*
X91319398Y-125980000D01*
X91319398Y-126004534D01*
X91314588Y-126053365D01*
X91305016Y-126101490D01*
X91290772Y-126148445D01*
X91271995Y-126193778D01*
X91248864Y-126237051D01*
X91221604Y-126277850D01*
X91190476Y-126315779D01*
X91155779Y-126350476D01*
X91117850Y-126381604D01*
X91077051Y-126408864D01*
X91033778Y-126431995D01*
X90988445Y-126450772D01*
X90941490Y-126465016D01*
X90893365Y-126474588D01*
X90844534Y-126479398D01*
X90820000Y-126479398D01*
X90820000Y-126480000D01*
X90320000Y-126480000D01*
X90320000Y-124980000D01*
G37*
D18*
X109474000Y-150368000D03*
X104648000Y-150368000D03*
X109220000Y-130556000D03*
X109220000Y-140970000D03*
D19*
X87503000Y-150368000D03*
X133350000Y-129286000D03*
D20*
X104394000Y-127584200D03*
D21*
X105664000Y-130479800D03*
X103124000Y-130479800D03*
X98044000Y-144195800D03*
X100584000Y-144195800D03*
D20*
X99314000Y-141300200D03*
G36*
G01*
X103913800Y-132440000D02*
X104213800Y-132440000D01*
G75*
G02*
X104363800Y-132590000I0J-150000D01*
G01*
X104363800Y-134240000D01*
G75*
G02*
X104213800Y-134390000I-150000J0D01*
G01*
X103913800Y-134390000D01*
G75*
G02*
X103763800Y-134240000I0J150000D01*
G01*
X103763800Y-132590000D01*
G75*
G02*
X103913800Y-132440000I150000J0D01*
G01*
G37*
G36*
G01*
X102643800Y-132440000D02*
X102943800Y-132440000D01*
G75*
G02*
X103093800Y-132590000I0J-150000D01*
G01*
X103093800Y-134240000D01*
G75*
G02*
X102943800Y-134390000I-150000J0D01*
G01*
X102643800Y-134390000D01*
G75*
G02*
X102493800Y-134240000I0J150000D01*
G01*
X102493800Y-132590000D01*
G75*
G02*
X102643800Y-132440000I150000J0D01*
G01*
G37*
G36*
G01*
X101373800Y-132440000D02*
X101673800Y-132440000D01*
G75*
G02*
X101823800Y-132590000I0J-150000D01*
G01*
X101823800Y-134240000D01*
G75*
G02*
X101673800Y-134390000I-150000J0D01*
G01*
X101373800Y-134390000D01*
G75*
G02*
X101223800Y-134240000I0J150000D01*
G01*
X101223800Y-132590000D01*
G75*
G02*
X101373800Y-132440000I150000J0D01*
G01*
G37*
G36*
G01*
X100103800Y-132440000D02*
X100403800Y-132440000D01*
G75*
G02*
X100553800Y-132590000I0J-150000D01*
G01*
X100553800Y-134240000D01*
G75*
G02*
X100403800Y-134390000I-150000J0D01*
G01*
X100103800Y-134390000D01*
G75*
G02*
X99953800Y-134240000I0J150000D01*
G01*
X99953800Y-132590000D01*
G75*
G02*
X100103800Y-132440000I150000J0D01*
G01*
G37*
G36*
G01*
X100103800Y-137390000D02*
X100403800Y-137390000D01*
G75*
G02*
X100553800Y-137540000I0J-150000D01*
G01*
X100553800Y-139190000D01*
G75*
G02*
X100403800Y-139340000I-150000J0D01*
G01*
X100103800Y-139340000D01*
G75*
G02*
X99953800Y-139190000I0J150000D01*
G01*
X99953800Y-137540000D01*
G75*
G02*
X100103800Y-137390000I150000J0D01*
G01*
G37*
G36*
G01*
X101373800Y-137390000D02*
X101673800Y-137390000D01*
G75*
G02*
X101823800Y-137540000I0J-150000D01*
G01*
X101823800Y-139190000D01*
G75*
G02*
X101673800Y-139340000I-150000J0D01*
G01*
X101373800Y-139340000D01*
G75*
G02*
X101223800Y-139190000I0J150000D01*
G01*
X101223800Y-137540000D01*
G75*
G02*
X101373800Y-137390000I150000J0D01*
G01*
G37*
G36*
G01*
X102643800Y-137390000D02*
X102943800Y-137390000D01*
G75*
G02*
X103093800Y-137540000I0J-150000D01*
G01*
X103093800Y-139190000D01*
G75*
G02*
X102943800Y-139340000I-150000J0D01*
G01*
X102643800Y-139340000D01*
G75*
G02*
X102493800Y-139190000I0J150000D01*
G01*
X102493800Y-137540000D01*
G75*
G02*
X102643800Y-137390000I150000J0D01*
G01*
G37*
G36*
G01*
X103913800Y-137390000D02*
X104213800Y-137390000D01*
G75*
G02*
X104363800Y-137540000I0J-150000D01*
G01*
X104363800Y-139190000D01*
G75*
G02*
X104213800Y-139340000I-150000J0D01*
G01*
X103913800Y-139340000D01*
G75*
G02*
X103763800Y-139190000I0J150000D01*
G01*
X103763800Y-137540000D01*
G75*
G02*
X103913800Y-137390000I150000J0D01*
G01*
G37*
G36*
G01*
X121643000Y-132440000D02*
X121943000Y-132440000D01*
G75*
G02*
X122093000Y-132590000I0J-150000D01*
G01*
X122093000Y-134240000D01*
G75*
G02*
X121943000Y-134390000I-150000J0D01*
G01*
X121643000Y-134390000D01*
G75*
G02*
X121493000Y-134240000I0J150000D01*
G01*
X121493000Y-132590000D01*
G75*
G02*
X121643000Y-132440000I150000J0D01*
G01*
G37*
G36*
G01*
X120373000Y-132440000D02*
X120673000Y-132440000D01*
G75*
G02*
X120823000Y-132590000I0J-150000D01*
G01*
X120823000Y-134240000D01*
G75*
G02*
X120673000Y-134390000I-150000J0D01*
G01*
X120373000Y-134390000D01*
G75*
G02*
X120223000Y-134240000I0J150000D01*
G01*
X120223000Y-132590000D01*
G75*
G02*
X120373000Y-132440000I150000J0D01*
G01*
G37*
G36*
G01*
X119103000Y-132440000D02*
X119403000Y-132440000D01*
G75*
G02*
X119553000Y-132590000I0J-150000D01*
G01*
X119553000Y-134240000D01*
G75*
G02*
X119403000Y-134390000I-150000J0D01*
G01*
X119103000Y-134390000D01*
G75*
G02*
X118953000Y-134240000I0J150000D01*
G01*
X118953000Y-132590000D01*
G75*
G02*
X119103000Y-132440000I150000J0D01*
G01*
G37*
G36*
G01*
X117833000Y-132440000D02*
X118133000Y-132440000D01*
G75*
G02*
X118283000Y-132590000I0J-150000D01*
G01*
X118283000Y-134240000D01*
G75*
G02*
X118133000Y-134390000I-150000J0D01*
G01*
X117833000Y-134390000D01*
G75*
G02*
X117683000Y-134240000I0J150000D01*
G01*
X117683000Y-132590000D01*
G75*
G02*
X117833000Y-132440000I150000J0D01*
G01*
G37*
G36*
G01*
X117833000Y-137390000D02*
X118133000Y-137390000D01*
G75*
G02*
X118283000Y-137540000I0J-150000D01*
G01*
X118283000Y-139190000D01*
G75*
G02*
X118133000Y-139340000I-150000J0D01*
G01*
X117833000Y-139340000D01*
G75*
G02*
X117683000Y-139190000I0J150000D01*
G01*
X117683000Y-137540000D01*
G75*
G02*
X117833000Y-137390000I150000J0D01*
G01*
G37*
G36*
G01*
X119103000Y-137390000D02*
X119403000Y-137390000D01*
G75*
G02*
X119553000Y-137540000I0J-150000D01*
G01*
X119553000Y-139190000D01*
G75*
G02*
X119403000Y-139340000I-150000J0D01*
G01*
X119103000Y-139340000D01*
G75*
G02*
X118953000Y-139190000I0J150000D01*
G01*
X118953000Y-137540000D01*
G75*
G02*
X119103000Y-137390000I150000J0D01*
G01*
G37*
G36*
G01*
X120373000Y-137390000D02*
X120673000Y-137390000D01*
G75*
G02*
X120823000Y-137540000I0J-150000D01*
G01*
X120823000Y-139190000D01*
G75*
G02*
X120673000Y-139340000I-150000J0D01*
G01*
X120373000Y-139340000D01*
G75*
G02*
X120223000Y-139190000I0J150000D01*
G01*
X120223000Y-137540000D01*
G75*
G02*
X120373000Y-137390000I150000J0D01*
G01*
G37*
G36*
G01*
X121643000Y-137390000D02*
X121943000Y-137390000D01*
G75*
G02*
X122093000Y-137540000I0J-150000D01*
G01*
X122093000Y-139190000D01*
G75*
G02*
X121943000Y-139340000I-150000J0D01*
G01*
X121643000Y-139340000D01*
G75*
G02*
X121493000Y-139190000I0J150000D01*
G01*
X121493000Y-137540000D01*
G75*
G02*
X121643000Y-137390000I150000J0D01*
G01*
G37*
G36*
G01*
X125219750Y-136189000D02*
X125732250Y-136189000D01*
G75*
G02*
X125951000Y-136407750I0J-218750D01*
G01*
X125951000Y-136845250D01*
G75*
G02*
X125732250Y-137064000I-218750J0D01*
G01*
X125219750Y-137064000D01*
G75*
G02*
X125001000Y-136845250I0J218750D01*
G01*
X125001000Y-136407750D01*
G75*
G02*
X125219750Y-136189000I218750J0D01*
G01*
G37*
G36*
G01*
X125219750Y-137764000D02*
X125732250Y-137764000D01*
G75*
G02*
X125951000Y-137982750I0J-218750D01*
G01*
X125951000Y-138420250D01*
G75*
G02*
X125732250Y-138639000I-218750J0D01*
G01*
X125219750Y-138639000D01*
G75*
G02*
X125001000Y-138420250I0J218750D01*
G01*
X125001000Y-137982750D01*
G75*
G02*
X125219750Y-137764000I218750J0D01*
G01*
G37*
G36*
G01*
X123441750Y-137764000D02*
X123954250Y-137764000D01*
G75*
G02*
X124173000Y-137982750I0J-218750D01*
G01*
X124173000Y-138420250D01*
G75*
G02*
X123954250Y-138639000I-218750J0D01*
G01*
X123441750Y-138639000D01*
G75*
G02*
X123223000Y-138420250I0J218750D01*
G01*
X123223000Y-137982750D01*
G75*
G02*
X123441750Y-137764000I218750J0D01*
G01*
G37*
G36*
G01*
X123441750Y-136189000D02*
X123954250Y-136189000D01*
G75*
G02*
X124173000Y-136407750I0J-218750D01*
G01*
X124173000Y-136845250D01*
G75*
G02*
X123954250Y-137064000I-218750J0D01*
G01*
X123441750Y-137064000D01*
G75*
G02*
X123223000Y-136845250I0J218750D01*
G01*
X123223000Y-136407750D01*
G75*
G02*
X123441750Y-136189000I218750J0D01*
G01*
G37*
G36*
G01*
X105661750Y-132633000D02*
X106174250Y-132633000D01*
G75*
G02*
X106393000Y-132851750I0J-218750D01*
G01*
X106393000Y-133289250D01*
G75*
G02*
X106174250Y-133508000I-218750J0D01*
G01*
X105661750Y-133508000D01*
G75*
G02*
X105443000Y-133289250I0J218750D01*
G01*
X105443000Y-132851750D01*
G75*
G02*
X105661750Y-132633000I218750J0D01*
G01*
G37*
G36*
G01*
X105661750Y-134208000D02*
X106174250Y-134208000D01*
G75*
G02*
X106393000Y-134426750I0J-218750D01*
G01*
X106393000Y-134864250D01*
G75*
G02*
X106174250Y-135083000I-218750J0D01*
G01*
X105661750Y-135083000D01*
G75*
G02*
X105443000Y-134864250I0J218750D01*
G01*
X105443000Y-134426750D01*
G75*
G02*
X105661750Y-134208000I218750J0D01*
G01*
G37*
G36*
G01*
X104236000Y-140972250D02*
X104236000Y-140459750D01*
G75*
G02*
X104454750Y-140241000I218750J0D01*
G01*
X104892250Y-140241000D01*
G75*
G02*
X105111000Y-140459750I0J-218750D01*
G01*
X105111000Y-140972250D01*
G75*
G02*
X104892250Y-141191000I-218750J0D01*
G01*
X104454750Y-141191000D01*
G75*
G02*
X104236000Y-140972250I0J218750D01*
G01*
G37*
G36*
G01*
X102661000Y-140972250D02*
X102661000Y-140459750D01*
G75*
G02*
X102879750Y-140241000I218750J0D01*
G01*
X103317250Y-140241000D01*
G75*
G02*
X103536000Y-140459750I0J-218750D01*
G01*
X103536000Y-140972250D01*
G75*
G02*
X103317250Y-141191000I-218750J0D01*
G01*
X102879750Y-141191000D01*
G75*
G02*
X102661000Y-140972250I0J218750D01*
G01*
G37*
G36*
G01*
X105661750Y-137764000D02*
X106174250Y-137764000D01*
G75*
G02*
X106393000Y-137982750I0J-218750D01*
G01*
X106393000Y-138420250D01*
G75*
G02*
X106174250Y-138639000I-218750J0D01*
G01*
X105661750Y-138639000D01*
G75*
G02*
X105443000Y-138420250I0J218750D01*
G01*
X105443000Y-137982750D01*
G75*
G02*
X105661750Y-137764000I218750J0D01*
G01*
G37*
G36*
G01*
X105661750Y-136189000D02*
X106174250Y-136189000D01*
G75*
G02*
X106393000Y-136407750I0J-218750D01*
G01*
X106393000Y-136845250D01*
G75*
G02*
X106174250Y-137064000I-218750J0D01*
G01*
X105661750Y-137064000D01*
G75*
G02*
X105443000Y-136845250I0J218750D01*
G01*
X105443000Y-136407750D01*
G75*
G02*
X105661750Y-136189000I218750J0D01*
G01*
G37*
G36*
G01*
X107439750Y-136189000D02*
X107952250Y-136189000D01*
G75*
G02*
X108171000Y-136407750I0J-218750D01*
G01*
X108171000Y-136845250D01*
G75*
G02*
X107952250Y-137064000I-218750J0D01*
G01*
X107439750Y-137064000D01*
G75*
G02*
X107221000Y-136845250I0J218750D01*
G01*
X107221000Y-136407750D01*
G75*
G02*
X107439750Y-136189000I218750J0D01*
G01*
G37*
G36*
G01*
X107439750Y-137764000D02*
X107952250Y-137764000D01*
G75*
G02*
X108171000Y-137982750I0J-218750D01*
G01*
X108171000Y-138420250D01*
G75*
G02*
X107952250Y-138639000I-218750J0D01*
G01*
X107439750Y-138639000D01*
G75*
G02*
X107221000Y-138420250I0J218750D01*
G01*
X107221000Y-137982750D01*
G75*
G02*
X107439750Y-137764000I218750J0D01*
G01*
G37*
M02*
