G04 #@! TF.GenerationSoftware,KiCad,Pcbnew,(5.1.2)-1*
G04 #@! TF.CreationDate,2019-10-29T15:21:54-05:00*
G04 #@! TF.ProjectId,optical_digitizer,6f707469-6361-46c5-9f64-69676974697a,rev?*
G04 #@! TF.SameCoordinates,Original*
G04 #@! TF.FileFunction,Copper,L4,Bot*
G04 #@! TF.FilePolarity,Positive*
%FSLAX46Y46*%
G04 Gerber Fmt 4.6, Leading zero omitted, Abs format (unit mm)*
G04 Created by KiCad (PCBNEW (5.1.2)-1) date 2019-10-29 15:21:54*
%MOMM*%
%LPD*%
G04 APERTURE LIST*
%ADD10C,1.485000*%
%ADD11C,1.600000*%
%ADD12O,1.200000X1.200000*%
%ADD13O,1.200000X1.600000*%
%ADD14C,2.100000*%
%ADD15O,1.700000X1.700000*%
%ADD16R,1.700000X1.700000*%
%ADD17C,1.440000*%
%ADD18C,2.600000*%
%ADD19O,1.600000X1.600000*%
%ADD20R,1.600000X1.600000*%
%ADD21C,1.640000*%
%ADD22C,0.508000*%
%ADD23C,0.304800*%
%ADD24C,0.152400*%
G04 APERTURE END LIST*
D10*
X115570000Y-133604000D03*
X113284000Y-133604000D03*
X113284000Y-129286000D03*
X116459000Y-129286000D03*
X113157000Y-147828000D03*
X115443000Y-147828000D03*
X116332000Y-143546001D03*
X113157000Y-143546001D03*
D11*
X115570000Y-125476000D03*
X115570000Y-122976000D03*
X115443000Y-137200000D03*
X115443000Y-139700000D03*
D10*
X103378000Y-148082000D03*
X101092000Y-148082000D03*
X103632000Y-143764000D03*
X100457000Y-143764000D03*
D12*
X165100000Y-127000000D03*
X166370000Y-125730000D03*
D13*
X165100000Y-124460000D03*
D14*
X154940000Y-121920000D03*
X154940000Y-129540000D03*
X154940000Y-149860000D03*
X154940000Y-142240000D03*
D13*
X165100000Y-144780000D03*
D12*
X166370000Y-146050000D03*
X165100000Y-147320000D03*
D15*
X80264000Y-123190000D03*
X82804000Y-123190000D03*
X80264000Y-125730000D03*
X82804000Y-125730000D03*
X80264000Y-128270000D03*
X82804000Y-128270000D03*
X80264000Y-130810000D03*
X82804000Y-130810000D03*
X80264000Y-133350000D03*
X82804000Y-133350000D03*
X80264000Y-135890000D03*
X82804000Y-135890000D03*
X80264000Y-138430000D03*
X82804000Y-138430000D03*
X80264000Y-140970000D03*
X82804000Y-140970000D03*
X80264000Y-143510000D03*
X82804000Y-143510000D03*
X80264000Y-146050000D03*
X82804000Y-146050000D03*
X80264000Y-148590000D03*
D16*
X82804000Y-148590000D03*
D17*
X130048000Y-127254000D03*
X132588000Y-129794000D03*
X130048000Y-132334000D03*
X130175000Y-144526000D03*
X132715000Y-141986000D03*
X130175000Y-139446000D03*
D18*
X108204000Y-123444000D03*
X108204000Y-148844000D03*
X108204000Y-143764000D03*
X108204000Y-128524000D03*
D19*
X119380000Y-133604000D03*
X127000000Y-125984000D03*
X119380000Y-131064000D03*
X127000000Y-128524000D03*
X119380000Y-128524000D03*
X127000000Y-131064000D03*
X119380000Y-125984000D03*
D20*
X127000000Y-133604000D03*
X127000000Y-145796000D03*
D19*
X119380000Y-138176000D03*
X127000000Y-143256000D03*
X119380000Y-140716000D03*
X127000000Y-140716000D03*
X119380000Y-143256000D03*
X127000000Y-138176000D03*
X119380000Y-145796000D03*
X98806000Y-139700000D03*
X106426000Y-132080000D03*
X98806000Y-137160000D03*
X106426000Y-134620000D03*
X98806000Y-134620000D03*
X106426000Y-137160000D03*
X98806000Y-132080000D03*
D20*
X106426000Y-139700000D03*
D21*
X180912000Y-123190000D03*
X178372000Y-123190000D03*
X180912000Y-125730000D03*
X178372000Y-125730000D03*
X180912000Y-128270000D03*
X178372000Y-128270000D03*
X180912000Y-130810000D03*
X178372000Y-130810000D03*
X180912000Y-133350000D03*
X178372000Y-133350000D03*
X180912000Y-135890000D03*
X178372000Y-135890000D03*
X180912000Y-138430000D03*
X178372000Y-138430000D03*
X180912000Y-140970000D03*
X178372000Y-140970000D03*
X180912000Y-143510000D03*
X178372000Y-143510000D03*
X180912000Y-146050000D03*
X178372000Y-146050000D03*
X180912000Y-148590000D03*
X178372000Y-148590000D03*
D22*
X85090000Y-130810000D03*
D23*
X111506000Y-139700000D02*
X106426000Y-134620000D01*
X115443000Y-139700000D02*
X111506000Y-139700000D01*
D24*
X180092001Y-127450001D02*
X180912000Y-128270000D01*
X179863399Y-127221399D02*
X180092001Y-127450001D01*
X177323399Y-127828601D02*
X177930601Y-127221399D01*
X164702271Y-127828601D02*
X177323399Y-127828601D01*
X127493729Y-127012601D02*
X128200931Y-126305399D01*
X118224527Y-127012601D02*
X127493729Y-127012601D01*
X118020527Y-126808601D02*
X118224527Y-127012601D01*
X177930601Y-127221399D02*
X179863399Y-127221399D01*
X82669069Y-126808601D02*
X118020527Y-126808601D01*
X81207670Y-128270000D02*
X82669069Y-126808601D01*
X80264000Y-128270000D02*
X81207670Y-128270000D01*
X161476601Y-126305399D02*
X161611399Y-126305399D01*
X128200931Y-126305399D02*
X161476601Y-126305399D01*
X163134601Y-127828601D02*
X164702271Y-127828601D01*
X161611399Y-126305399D02*
X163134601Y-127828601D01*
X164702271Y-127828601D02*
X164846000Y-127828601D01*
X179923930Y-130810000D02*
X180912000Y-130810000D01*
X155553729Y-130818601D02*
X156610931Y-129761399D01*
X128276931Y-130818601D02*
X155553729Y-130818601D01*
X156610931Y-129761399D02*
X178875329Y-129761399D01*
X117146831Y-130035399D02*
X127493729Y-130035399D01*
X116925129Y-130257101D02*
X117146831Y-130035399D01*
X80264000Y-130810000D02*
X81342601Y-129731399D01*
X81342601Y-129731399D02*
X83321729Y-129731399D01*
X127493729Y-130035399D02*
X128276931Y-130818601D01*
X83321729Y-129731399D02*
X85545128Y-127508000D01*
X178875329Y-129761399D02*
X179923930Y-130810000D01*
X85545128Y-127508000D02*
X97625798Y-127508000D01*
X97625798Y-127508000D02*
X100374899Y-130257101D01*
X100374899Y-130257101D02*
X116925129Y-130257101D01*
X177212345Y-130810000D02*
X178372000Y-130810000D01*
X176898934Y-131123411D02*
X177212345Y-130810000D01*
X129854659Y-131123411D02*
X176898934Y-131123411D01*
X82804000Y-130810000D02*
X85598000Y-128016000D01*
X128885469Y-132092601D02*
X129854659Y-131123411D01*
X85598000Y-128016000D02*
X97702732Y-128016000D01*
X100496732Y-130810000D02*
X117603670Y-130810000D01*
X97702732Y-128016000D02*
X100496732Y-130810000D01*
X117603670Y-130810000D02*
X118886271Y-132092601D01*
X118886271Y-132092601D02*
X128885469Y-132092601D01*
D23*
X98806000Y-134620000D02*
X86614000Y-134620000D01*
X86614000Y-134620000D02*
X82804000Y-130810000D01*
D24*
X127804893Y-132397411D02*
X109791411Y-132397411D01*
X128690083Y-133282601D02*
X127804893Y-132397411D01*
X130503329Y-133282601D02*
X128690083Y-133282601D01*
X131484531Y-132301399D02*
X130503329Y-133282601D01*
X180912000Y-133350000D02*
X179863399Y-132301399D01*
X179863399Y-132301399D02*
X131484531Y-132301399D01*
X101534919Y-133286589D02*
X99058330Y-130810000D01*
X108267411Y-133286589D02*
X101534919Y-133286589D01*
X109791411Y-132397411D02*
X109156589Y-132397411D01*
X109156589Y-132397411D02*
X108267411Y-133286589D01*
X99058330Y-130810000D02*
X85090000Y-130810000D01*
D23*
X83653999Y-134199999D02*
X82804000Y-133350000D01*
X85178801Y-135724801D02*
X83653999Y-134199999D01*
X99666703Y-135724801D02*
X85178801Y-135724801D01*
X99910801Y-135480703D02*
X99666703Y-135724801D01*
X99910801Y-133184801D02*
X99910801Y-135480703D01*
X98806000Y-132080000D02*
X99910801Y-133184801D01*
D24*
X177552001Y-134169999D02*
X178372000Y-133350000D01*
X177089399Y-134632601D02*
X177552001Y-134169999D01*
X112875371Y-134632601D02*
X177089399Y-134632601D01*
X111834169Y-133591399D02*
X112875371Y-134632601D01*
X101800105Y-133591399D02*
X111834169Y-133591399D01*
X99666703Y-135724801D02*
X101800105Y-133591399D01*
X81342601Y-134811399D02*
X83321729Y-134811399D01*
X80264000Y-135890000D02*
X81342601Y-134811399D01*
X83321729Y-134811399D02*
X84641729Y-136131399D01*
X84641729Y-136131399D02*
X100596601Y-136131399D01*
X100838000Y-135890000D02*
X107157172Y-135890000D01*
X100596601Y-136131399D02*
X100838000Y-135890000D01*
X107157172Y-135890000D02*
X107172586Y-135905414D01*
X177868671Y-134398601D02*
X179420601Y-134398601D01*
X180092001Y-135070001D02*
X180912000Y-135890000D01*
X177329862Y-134937410D02*
X177868671Y-134398601D01*
X111995773Y-140728601D02*
X115936729Y-140728601D01*
X107157172Y-135890000D02*
X111995773Y-140728601D01*
X115936729Y-140728601D02*
X116471601Y-140193729D01*
X116471601Y-140193729D02*
X116471601Y-135750399D01*
X116471601Y-135750399D02*
X117284590Y-134937410D01*
X179420601Y-134398601D02*
X180092001Y-135070001D01*
X117284590Y-134937410D02*
X177329862Y-134937410D01*
D23*
X84074000Y-137160000D02*
X82804000Y-135890000D01*
X98806000Y-137160000D02*
X84074000Y-137160000D01*
D24*
X99834601Y-138188601D02*
X99605999Y-137959999D01*
X108393667Y-138188601D02*
X99834601Y-138188601D01*
X111238477Y-141033411D02*
X108393667Y-138188601D01*
X116062985Y-141033411D02*
X111238477Y-141033411D01*
X116776410Y-140319986D02*
X116062985Y-141033411D01*
X116776411Y-139257259D02*
X116776410Y-140319986D01*
X120143670Y-135890000D02*
X116776411Y-139257259D01*
X99605999Y-137959999D02*
X98806000Y-137160000D01*
X178372000Y-135890000D02*
X120143670Y-135890000D01*
X179863399Y-137381399D02*
X180912000Y-138430000D01*
X130835671Y-137381399D02*
X179863399Y-137381399D01*
X119369069Y-139204601D02*
X129012469Y-139204601D01*
X117133879Y-141439791D02*
X119369069Y-139204601D01*
X111213791Y-141439791D02*
X117133879Y-141439791D01*
X80264000Y-138430000D02*
X81207670Y-138430000D01*
X83321729Y-137351399D02*
X84641729Y-138671399D01*
X129012469Y-139204601D02*
X130835671Y-137381399D01*
X81207670Y-138430000D02*
X82286271Y-137351399D01*
X84641729Y-138671399D02*
X108445399Y-138671399D01*
X82286271Y-137351399D02*
X83321729Y-137351399D01*
X108445399Y-138671399D02*
X111213791Y-141439791D01*
X81725399Y-139508601D02*
X92772601Y-139508601D01*
X80264000Y-140970000D02*
X81725399Y-139508601D01*
X180092001Y-140150001D02*
X180912000Y-140970000D01*
X179863399Y-139921399D02*
X180092001Y-140150001D01*
X133375671Y-139921399D02*
X179863399Y-139921399D01*
X131552469Y-141744601D02*
X133375671Y-139921399D01*
X95008601Y-141744601D02*
X131552469Y-141744601D01*
X92772601Y-139508601D02*
X95008601Y-141744601D01*
X179863399Y-142461399D02*
X180092001Y-142690001D01*
X177868671Y-142461399D02*
X179863399Y-142461399D01*
X176811469Y-143518601D02*
X177868671Y-142461399D01*
X180092001Y-142690001D02*
X180912000Y-143510000D01*
X132843671Y-143518601D02*
X176811469Y-143518601D01*
X131552469Y-142227399D02*
X132843671Y-143518601D01*
X81546601Y-142227399D02*
X131552469Y-142227399D01*
X80264000Y-143510000D02*
X81546601Y-142227399D01*
X180092001Y-145230001D02*
X180912000Y-146050000D01*
X170024003Y-146878601D02*
X171901205Y-145001399D01*
X179863399Y-145001399D02*
X180092001Y-145230001D01*
X165972271Y-146878601D02*
X170024003Y-146878601D01*
X165585069Y-146491399D02*
X165972271Y-146878601D01*
X129012469Y-144767399D02*
X130736469Y-146491399D01*
X118886271Y-144767399D02*
X129012469Y-144767399D01*
X118361069Y-145292601D02*
X118886271Y-144767399D01*
X171901205Y-145001399D02*
X179863399Y-145001399D01*
X106957670Y-144780000D02*
X107470271Y-145292601D01*
X107470271Y-145292601D02*
X118361069Y-145292601D01*
X81534000Y-144780000D02*
X106957670Y-144780000D01*
X130736469Y-146491399D02*
X165585069Y-146491399D01*
X80264000Y-146050000D02*
X81534000Y-144780000D01*
X180092001Y-147770001D02*
X180912000Y-148590000D01*
X179863399Y-147541399D02*
X180092001Y-147770001D01*
X178021399Y-147541399D02*
X179863399Y-147541399D01*
X170572271Y-146761399D02*
X177241399Y-146761399D01*
X169185069Y-148148601D02*
X170572271Y-146761399D01*
X120210271Y-148148601D02*
X169185069Y-148148601D01*
X94575670Y-146558000D02*
X118619670Y-146558000D01*
X94005069Y-147128601D02*
X94575670Y-146558000D01*
X118619670Y-146558000D02*
X120210271Y-148148601D01*
X81725399Y-147128601D02*
X94005069Y-147128601D01*
X177241399Y-146761399D02*
X178021399Y-147541399D01*
X80264000Y-148590000D02*
X81725399Y-147128601D01*
M02*
