G04 #@! TF.GenerationSoftware,KiCad,Pcbnew,(5.1.2)-1*
G04 #@! TF.CreationDate,2019-10-29T15:21:54-05:00*
G04 #@! TF.ProjectId,optical_digitizer,6f707469-6361-46c5-9f64-69676974697a,rev?*
G04 #@! TF.SameCoordinates,Original*
G04 #@! TF.FileFunction,Legend,Top*
G04 #@! TF.FilePolarity,Positive*
%FSLAX46Y46*%
G04 Gerber Fmt 4.6, Leading zero omitted, Abs format (unit mm)*
G04 Created by KiCad (PCBNEW (5.1.2)-1) date 2019-10-29 15:21:54*
%MOMM*%
%LPD*%
G04 APERTURE LIST*
%ADD10C,0.300000*%
%ADD11C,0.254000*%
%ADD12C,0.150000*%
%ADD13C,0.120000*%
%ADD14C,0.200000*%
%ADD15C,0.149860*%
G04 APERTURE END LIST*
D10*
X148190000Y-132518571D02*
X148475714Y-132518571D01*
X148618571Y-132590000D01*
X148761428Y-132732857D01*
X148832857Y-133018571D01*
X148832857Y-133518571D01*
X148761428Y-133804285D01*
X148618571Y-133947142D01*
X148475714Y-134018571D01*
X148190000Y-134018571D01*
X148047142Y-133947142D01*
X147904285Y-133804285D01*
X147832857Y-133518571D01*
X147832857Y-133018571D01*
X147904285Y-132732857D01*
X148047142Y-132590000D01*
X148190000Y-132518571D01*
X149975714Y-133232857D02*
X149475714Y-133232857D01*
X149475714Y-134018571D02*
X149475714Y-132518571D01*
X150190000Y-132518571D01*
X150690000Y-133947142D02*
X150904285Y-134018571D01*
X151261428Y-134018571D01*
X151404285Y-133947142D01*
X151475714Y-133875714D01*
X151547142Y-133732857D01*
X151547142Y-133590000D01*
X151475714Y-133447142D01*
X151404285Y-133375714D01*
X151261428Y-133304285D01*
X150975714Y-133232857D01*
X150832857Y-133161428D01*
X150761428Y-133090000D01*
X150690000Y-132947142D01*
X150690000Y-132804285D01*
X150761428Y-132661428D01*
X150832857Y-132590000D01*
X150975714Y-132518571D01*
X151332857Y-132518571D01*
X151547142Y-132590000D01*
X152190000Y-134018571D02*
X152190000Y-132518571D01*
X154904285Y-134018571D02*
X154404285Y-133304285D01*
X154047142Y-134018571D02*
X154047142Y-132518571D01*
X154618571Y-132518571D01*
X154761428Y-132590000D01*
X154832857Y-132661428D01*
X154904285Y-132804285D01*
X154904285Y-133018571D01*
X154832857Y-133161428D01*
X154761428Y-133232857D01*
X154618571Y-133304285D01*
X154047142Y-133304285D01*
X156118571Y-133947142D02*
X155975714Y-134018571D01*
X155690000Y-134018571D01*
X155547142Y-133947142D01*
X155475714Y-133804285D01*
X155475714Y-133232857D01*
X155547142Y-133090000D01*
X155690000Y-133018571D01*
X155975714Y-133018571D01*
X156118571Y-133090000D01*
X156190000Y-133232857D01*
X156190000Y-133375714D01*
X155475714Y-133518571D01*
X156690000Y-133018571D02*
X157047142Y-134018571D01*
X157404285Y-133018571D01*
X157975714Y-133875714D02*
X158047142Y-133947142D01*
X157975714Y-134018571D01*
X157904285Y-133947142D01*
X157975714Y-133875714D01*
X157975714Y-134018571D01*
X160118571Y-132518571D02*
X160261428Y-132518571D01*
X160404285Y-132590000D01*
X160475714Y-132661428D01*
X160547142Y-132804285D01*
X160618571Y-133090000D01*
X160618571Y-133447142D01*
X160547142Y-133732857D01*
X160475714Y-133875714D01*
X160404285Y-133947142D01*
X160261428Y-134018571D01*
X160118571Y-134018571D01*
X159975714Y-133947142D01*
X159904285Y-133875714D01*
X159832857Y-133732857D01*
X159761428Y-133447142D01*
X159761428Y-133090000D01*
X159832857Y-132804285D01*
X159904285Y-132661428D01*
X159975714Y-132590000D01*
X160118571Y-132518571D01*
X161904285Y-133018571D02*
X161904285Y-134018571D01*
X161547142Y-132447142D02*
X161190000Y-133518571D01*
X162118571Y-133518571D01*
X142582857Y-135068571D02*
X142868571Y-135068571D01*
X143011428Y-135140000D01*
X143154285Y-135282857D01*
X143225714Y-135568571D01*
X143225714Y-136068571D01*
X143154285Y-136354285D01*
X143011428Y-136497142D01*
X142868571Y-136568571D01*
X142582857Y-136568571D01*
X142440000Y-136497142D01*
X142297142Y-136354285D01*
X142225714Y-136068571D01*
X142225714Y-135568571D01*
X142297142Y-135282857D01*
X142440000Y-135140000D01*
X142582857Y-135068571D01*
X143868571Y-135568571D02*
X143868571Y-137068571D01*
X143868571Y-135640000D02*
X144011428Y-135568571D01*
X144297142Y-135568571D01*
X144440000Y-135640000D01*
X144511428Y-135711428D01*
X144582857Y-135854285D01*
X144582857Y-136282857D01*
X144511428Y-136425714D01*
X144440000Y-136497142D01*
X144297142Y-136568571D01*
X144011428Y-136568571D01*
X143868571Y-136497142D01*
X145011428Y-135568571D02*
X145582857Y-135568571D01*
X145225714Y-135068571D02*
X145225714Y-136354285D01*
X145297142Y-136497142D01*
X145440000Y-136568571D01*
X145582857Y-136568571D01*
X146082857Y-136568571D02*
X146082857Y-135568571D01*
X146082857Y-135068571D02*
X146011428Y-135140000D01*
X146082857Y-135211428D01*
X146154285Y-135140000D01*
X146082857Y-135068571D01*
X146082857Y-135211428D01*
X147440000Y-136497142D02*
X147297142Y-136568571D01*
X147011428Y-136568571D01*
X146868571Y-136497142D01*
X146797142Y-136425714D01*
X146725714Y-136282857D01*
X146725714Y-135854285D01*
X146797142Y-135711428D01*
X146868571Y-135640000D01*
X147011428Y-135568571D01*
X147297142Y-135568571D01*
X147440000Y-135640000D01*
X148725714Y-136568571D02*
X148725714Y-135782857D01*
X148654285Y-135640000D01*
X148511428Y-135568571D01*
X148225714Y-135568571D01*
X148082857Y-135640000D01*
X148725714Y-136497142D02*
X148582857Y-136568571D01*
X148225714Y-136568571D01*
X148082857Y-136497142D01*
X148011428Y-136354285D01*
X148011428Y-136211428D01*
X148082857Y-136068571D01*
X148225714Y-135997142D01*
X148582857Y-135997142D01*
X148725714Y-135925714D01*
X149654285Y-136568571D02*
X149511428Y-136497142D01*
X149440000Y-136354285D01*
X149440000Y-135068571D01*
X151368571Y-136568571D02*
X151368571Y-135068571D01*
X151725714Y-135068571D01*
X151940000Y-135140000D01*
X152082857Y-135282857D01*
X152154285Y-135425714D01*
X152225714Y-135711428D01*
X152225714Y-135925714D01*
X152154285Y-136211428D01*
X152082857Y-136354285D01*
X151940000Y-136497142D01*
X151725714Y-136568571D01*
X151368571Y-136568571D01*
X152868571Y-136568571D02*
X152868571Y-135568571D01*
X152868571Y-135068571D02*
X152797142Y-135140000D01*
X152868571Y-135211428D01*
X152940000Y-135140000D01*
X152868571Y-135068571D01*
X152868571Y-135211428D01*
X154225714Y-135568571D02*
X154225714Y-136782857D01*
X154154285Y-136925714D01*
X154082857Y-136997142D01*
X153940000Y-137068571D01*
X153725714Y-137068571D01*
X153582857Y-136997142D01*
X154225714Y-136497142D02*
X154082857Y-136568571D01*
X153797142Y-136568571D01*
X153654285Y-136497142D01*
X153582857Y-136425714D01*
X153511428Y-136282857D01*
X153511428Y-135854285D01*
X153582857Y-135711428D01*
X153654285Y-135640000D01*
X153797142Y-135568571D01*
X154082857Y-135568571D01*
X154225714Y-135640000D01*
X154940000Y-136568571D02*
X154940000Y-135568571D01*
X154940000Y-135068571D02*
X154868571Y-135140000D01*
X154940000Y-135211428D01*
X155011428Y-135140000D01*
X154940000Y-135068571D01*
X154940000Y-135211428D01*
X155440000Y-135568571D02*
X156011428Y-135568571D01*
X155654285Y-135068571D02*
X155654285Y-136354285D01*
X155725714Y-136497142D01*
X155868571Y-136568571D01*
X156011428Y-136568571D01*
X156511428Y-136568571D02*
X156511428Y-135568571D01*
X156511428Y-135068571D02*
X156440000Y-135140000D01*
X156511428Y-135211428D01*
X156582857Y-135140000D01*
X156511428Y-135068571D01*
X156511428Y-135211428D01*
X157082857Y-135568571D02*
X157868571Y-135568571D01*
X157082857Y-136568571D01*
X157868571Y-136568571D01*
X159011428Y-136497142D02*
X158868571Y-136568571D01*
X158582857Y-136568571D01*
X158440000Y-136497142D01*
X158368571Y-136354285D01*
X158368571Y-135782857D01*
X158440000Y-135640000D01*
X158582857Y-135568571D01*
X158868571Y-135568571D01*
X159011428Y-135640000D01*
X159082857Y-135782857D01*
X159082857Y-135925714D01*
X158368571Y-136068571D01*
X159725714Y-136568571D02*
X159725714Y-135568571D01*
X159725714Y-135854285D02*
X159797142Y-135711428D01*
X159868571Y-135640000D01*
X160011428Y-135568571D01*
X160154285Y-135568571D01*
X162297142Y-135782857D02*
X162511428Y-135854285D01*
X162582857Y-135925714D01*
X162654285Y-136068571D01*
X162654285Y-136282857D01*
X162582857Y-136425714D01*
X162511428Y-136497142D01*
X162368571Y-136568571D01*
X161797142Y-136568571D01*
X161797142Y-135068571D01*
X162297142Y-135068571D01*
X162440000Y-135140000D01*
X162511428Y-135211428D01*
X162582857Y-135354285D01*
X162582857Y-135497142D01*
X162511428Y-135640000D01*
X162440000Y-135711428D01*
X162297142Y-135782857D01*
X161797142Y-135782857D01*
X163511428Y-136568571D02*
X163368571Y-136497142D01*
X163297142Y-136425714D01*
X163225714Y-136282857D01*
X163225714Y-135854285D01*
X163297142Y-135711428D01*
X163368571Y-135640000D01*
X163511428Y-135568571D01*
X163725714Y-135568571D01*
X163868571Y-135640000D01*
X163940000Y-135711428D01*
X164011428Y-135854285D01*
X164011428Y-136282857D01*
X163940000Y-136425714D01*
X163868571Y-136497142D01*
X163725714Y-136568571D01*
X163511428Y-136568571D01*
X165297142Y-136568571D02*
X165297142Y-135782857D01*
X165225714Y-135640000D01*
X165082857Y-135568571D01*
X164797142Y-135568571D01*
X164654285Y-135640000D01*
X165297142Y-136497142D02*
X165154285Y-136568571D01*
X164797142Y-136568571D01*
X164654285Y-136497142D01*
X164582857Y-136354285D01*
X164582857Y-136211428D01*
X164654285Y-136068571D01*
X164797142Y-135997142D01*
X165154285Y-135997142D01*
X165297142Y-135925714D01*
X166011428Y-136568571D02*
X166011428Y-135568571D01*
X166011428Y-135854285D02*
X166082857Y-135711428D01*
X166154285Y-135640000D01*
X166297142Y-135568571D01*
X166440000Y-135568571D01*
X167582857Y-136568571D02*
X167582857Y-135068571D01*
X167582857Y-136497142D02*
X167440000Y-136568571D01*
X167154285Y-136568571D01*
X167011428Y-136497142D01*
X166940000Y-136425714D01*
X166868571Y-136282857D01*
X166868571Y-135854285D01*
X166940000Y-135711428D01*
X167011428Y-135640000D01*
X167154285Y-135568571D01*
X167440000Y-135568571D01*
X167582857Y-135640000D01*
X147832857Y-137618571D02*
X148118571Y-137618571D01*
X148261428Y-137690000D01*
X148404285Y-137832857D01*
X148475714Y-138118571D01*
X148475714Y-138618571D01*
X148404285Y-138904285D01*
X148261428Y-139047142D01*
X148118571Y-139118571D01*
X147832857Y-139118571D01*
X147690000Y-139047142D01*
X147547142Y-138904285D01*
X147475714Y-138618571D01*
X147475714Y-138118571D01*
X147547142Y-137832857D01*
X147690000Y-137690000D01*
X147832857Y-137618571D01*
X149761428Y-139047142D02*
X149618571Y-139118571D01*
X149332857Y-139118571D01*
X149190000Y-139047142D01*
X149118571Y-138975714D01*
X149047142Y-138832857D01*
X149047142Y-138404285D01*
X149118571Y-138261428D01*
X149190000Y-138190000D01*
X149332857Y-138118571D01*
X149618571Y-138118571D01*
X149761428Y-138190000D01*
X150190000Y-138118571D02*
X150761428Y-138118571D01*
X150404285Y-137618571D02*
X150404285Y-138904285D01*
X150475714Y-139047142D01*
X150618571Y-139118571D01*
X150761428Y-139118571D01*
X151475714Y-139118571D02*
X151332857Y-139047142D01*
X151261428Y-138975714D01*
X151190000Y-138832857D01*
X151190000Y-138404285D01*
X151261428Y-138261428D01*
X151332857Y-138190000D01*
X151475714Y-138118571D01*
X151690000Y-138118571D01*
X151832857Y-138190000D01*
X151904285Y-138261428D01*
X151975714Y-138404285D01*
X151975714Y-138832857D01*
X151904285Y-138975714D01*
X151832857Y-139047142D01*
X151690000Y-139118571D01*
X151475714Y-139118571D01*
X152618571Y-139118571D02*
X152618571Y-137618571D01*
X152618571Y-138190000D02*
X152761428Y-138118571D01*
X153047142Y-138118571D01*
X153190000Y-138190000D01*
X153261428Y-138261428D01*
X153332857Y-138404285D01*
X153332857Y-138832857D01*
X153261428Y-138975714D01*
X153190000Y-139047142D01*
X153047142Y-139118571D01*
X152761428Y-139118571D01*
X152618571Y-139047142D01*
X154547142Y-139047142D02*
X154404285Y-139118571D01*
X154118571Y-139118571D01*
X153975714Y-139047142D01*
X153904285Y-138904285D01*
X153904285Y-138332857D01*
X153975714Y-138190000D01*
X154118571Y-138118571D01*
X154404285Y-138118571D01*
X154547142Y-138190000D01*
X154618571Y-138332857D01*
X154618571Y-138475714D01*
X153904285Y-138618571D01*
X155261428Y-139118571D02*
X155261428Y-138118571D01*
X155261428Y-138404285D02*
X155332857Y-138261428D01*
X155404285Y-138190000D01*
X155547142Y-138118571D01*
X155690000Y-138118571D01*
X157261428Y-137761428D02*
X157332857Y-137690000D01*
X157475714Y-137618571D01*
X157832857Y-137618571D01*
X157975714Y-137690000D01*
X158047142Y-137761428D01*
X158118571Y-137904285D01*
X158118571Y-138047142D01*
X158047142Y-138261428D01*
X157190000Y-139118571D01*
X158118571Y-139118571D01*
X159047142Y-137618571D02*
X159190000Y-137618571D01*
X159332857Y-137690000D01*
X159404285Y-137761428D01*
X159475714Y-137904285D01*
X159547142Y-138190000D01*
X159547142Y-138547142D01*
X159475714Y-138832857D01*
X159404285Y-138975714D01*
X159332857Y-139047142D01*
X159190000Y-139118571D01*
X159047142Y-139118571D01*
X158904285Y-139047142D01*
X158832857Y-138975714D01*
X158761428Y-138832857D01*
X158690000Y-138547142D01*
X158690000Y-138190000D01*
X158761428Y-137904285D01*
X158832857Y-137761428D01*
X158904285Y-137690000D01*
X159047142Y-137618571D01*
X160975714Y-139118571D02*
X160118571Y-139118571D01*
X160547142Y-139118571D02*
X160547142Y-137618571D01*
X160404285Y-137832857D01*
X160261428Y-137975714D01*
X160118571Y-138047142D01*
X161690000Y-139118571D02*
X161975714Y-139118571D01*
X162118571Y-139047142D01*
X162190000Y-138975714D01*
X162332857Y-138761428D01*
X162404285Y-138475714D01*
X162404285Y-137904285D01*
X162332857Y-137761428D01*
X162261428Y-137690000D01*
X162118571Y-137618571D01*
X161832857Y-137618571D01*
X161690000Y-137690000D01*
X161618571Y-137761428D01*
X161547142Y-137904285D01*
X161547142Y-138261428D01*
X161618571Y-138404285D01*
X161690000Y-138475714D01*
X161832857Y-138547142D01*
X162118571Y-138547142D01*
X162261428Y-138475714D01*
X162332857Y-138404285D01*
X162404285Y-138261428D01*
D11*
X87158285Y-146509619D02*
X86577714Y-146509619D01*
X86868000Y-146509619D02*
X86868000Y-145493619D01*
X86771238Y-145638761D01*
X86674476Y-145735523D01*
X86577714Y-145783904D01*
X86577714Y-143050380D02*
X86626095Y-143002000D01*
X86722857Y-142953619D01*
X86964761Y-142953619D01*
X87061523Y-143002000D01*
X87109904Y-143050380D01*
X87158285Y-143147142D01*
X87158285Y-143243904D01*
X87109904Y-143389047D01*
X86529333Y-143969619D01*
X87158285Y-143969619D01*
X86529333Y-140413619D02*
X87158285Y-140413619D01*
X86819619Y-140800666D01*
X86964761Y-140800666D01*
X87061523Y-140849047D01*
X87109904Y-140897428D01*
X87158285Y-140994190D01*
X87158285Y-141236095D01*
X87109904Y-141332857D01*
X87061523Y-141381238D01*
X86964761Y-141429619D01*
X86674476Y-141429619D01*
X86577714Y-141381238D01*
X86529333Y-141332857D01*
X87061523Y-138212285D02*
X87061523Y-138889619D01*
X86819619Y-137825238D02*
X86577714Y-138550952D01*
X87206666Y-138550952D01*
X87109904Y-135333619D02*
X86626095Y-135333619D01*
X86577714Y-135817428D01*
X86626095Y-135769047D01*
X86722857Y-135720666D01*
X86964761Y-135720666D01*
X87061523Y-135769047D01*
X87109904Y-135817428D01*
X87158285Y-135914190D01*
X87158285Y-136156095D01*
X87109904Y-136252857D01*
X87061523Y-136301238D01*
X86964761Y-136349619D01*
X86722857Y-136349619D01*
X86626095Y-136301238D01*
X86577714Y-136252857D01*
X87061523Y-132793619D02*
X86868000Y-132793619D01*
X86771238Y-132842000D01*
X86722857Y-132890380D01*
X86626095Y-133035523D01*
X86577714Y-133229047D01*
X86577714Y-133616095D01*
X86626095Y-133712857D01*
X86674476Y-133761238D01*
X86771238Y-133809619D01*
X86964761Y-133809619D01*
X87061523Y-133761238D01*
X87109904Y-133712857D01*
X87158285Y-133616095D01*
X87158285Y-133374190D01*
X87109904Y-133277428D01*
X87061523Y-133229047D01*
X86964761Y-133180666D01*
X86771238Y-133180666D01*
X86674476Y-133229047D01*
X86626095Y-133277428D01*
X86577714Y-133374190D01*
X86529333Y-130253619D02*
X87206666Y-130253619D01*
X86771238Y-131269619D01*
X86771238Y-128149047D02*
X86674476Y-128100666D01*
X86626095Y-128052285D01*
X86577714Y-127955523D01*
X86577714Y-127907142D01*
X86626095Y-127810380D01*
X86674476Y-127762000D01*
X86771238Y-127713619D01*
X86964761Y-127713619D01*
X87061523Y-127762000D01*
X87109904Y-127810380D01*
X87158285Y-127907142D01*
X87158285Y-127955523D01*
X87109904Y-128052285D01*
X87061523Y-128100666D01*
X86964761Y-128149047D01*
X86771238Y-128149047D01*
X86674476Y-128197428D01*
X86626095Y-128245809D01*
X86577714Y-128342571D01*
X86577714Y-128536095D01*
X86626095Y-128632857D01*
X86674476Y-128681238D01*
X86771238Y-128729619D01*
X86964761Y-128729619D01*
X87061523Y-128681238D01*
X87109904Y-128632857D01*
X87158285Y-128536095D01*
X87158285Y-128342571D01*
X87109904Y-128245809D01*
X87061523Y-128197428D01*
X86964761Y-128149047D01*
X86674476Y-126189619D02*
X86868000Y-126189619D01*
X86964761Y-126141238D01*
X87013142Y-126092857D01*
X87109904Y-125947714D01*
X87158285Y-125754190D01*
X87158285Y-125367142D01*
X87109904Y-125270380D01*
X87061523Y-125222000D01*
X86964761Y-125173619D01*
X86771238Y-125173619D01*
X86674476Y-125222000D01*
X86626095Y-125270380D01*
X86577714Y-125367142D01*
X86577714Y-125609047D01*
X86626095Y-125705809D01*
X86674476Y-125754190D01*
X86771238Y-125802571D01*
X86964761Y-125802571D01*
X87061523Y-125754190D01*
X87109904Y-125705809D01*
X87158285Y-125609047D01*
D10*
X86618000Y-123217714D02*
X86546571Y-123289142D01*
X86332285Y-123360571D01*
X86189428Y-123360571D01*
X85975142Y-123289142D01*
X85832285Y-123146285D01*
X85760857Y-123003428D01*
X85689428Y-122717714D01*
X85689428Y-122503428D01*
X85760857Y-122217714D01*
X85832285Y-122074857D01*
X85975142Y-121932000D01*
X86189428Y-121860571D01*
X86332285Y-121860571D01*
X86546571Y-121932000D01*
X86618000Y-122003428D01*
X87189428Y-123289142D02*
X87403714Y-123360571D01*
X87760857Y-123360571D01*
X87903714Y-123289142D01*
X87975142Y-123217714D01*
X88046571Y-123074857D01*
X88046571Y-122932000D01*
X87975142Y-122789142D01*
X87903714Y-122717714D01*
X87760857Y-122646285D01*
X87475142Y-122574857D01*
X87332285Y-122503428D01*
X87260857Y-122432000D01*
X87189428Y-122289142D01*
X87189428Y-122146285D01*
X87260857Y-122003428D01*
X87332285Y-121932000D01*
X87475142Y-121860571D01*
X87832285Y-121860571D01*
X88046571Y-121932000D01*
D12*
X114554000Y-133604000D02*
G75*
G03X114554000Y-133604000I-1270000J0D01*
G01*
X115189000Y-129286000D02*
G75*
G03X115189000Y-129286000I-1905000J0D01*
G01*
X114427000Y-147828000D02*
G75*
G03X114427000Y-147828000I-1270000J0D01*
G01*
X115062000Y-143546001D02*
G75*
G03X115062000Y-143546001I-1905000J0D01*
G01*
D13*
X114260000Y-126286000D02*
X114260000Y-122166000D01*
X116880000Y-126286000D02*
X116880000Y-122166000D01*
X114260000Y-126286000D02*
X114820000Y-126286000D01*
X116320000Y-126286000D02*
X116880000Y-126286000D01*
X114260000Y-122166000D02*
X114820000Y-122166000D01*
X116320000Y-122166000D02*
X116880000Y-122166000D01*
X116193000Y-136390000D02*
X116753000Y-136390000D01*
X114133000Y-136390000D02*
X114693000Y-136390000D01*
X116193000Y-140510000D02*
X116753000Y-140510000D01*
X114133000Y-140510000D02*
X114693000Y-140510000D01*
X116753000Y-140510000D02*
X116753000Y-136390000D01*
X114133000Y-140510000D02*
X114133000Y-136390000D01*
D12*
X104648000Y-148082000D02*
G75*
G03X104648000Y-148082000I-1270000J0D01*
G01*
X105537000Y-143764000D02*
G75*
G03X105537000Y-143764000I-1905000J0D01*
G01*
D13*
X84074000Y-149860000D02*
X82804000Y-149860000D01*
X84074000Y-148590000D02*
X84074000Y-149860000D01*
X81761071Y-122810000D02*
X81306929Y-122810000D01*
X81761071Y-123570000D02*
X81306929Y-123570000D01*
X79221071Y-122810000D02*
X78824000Y-122810000D01*
X79221071Y-123570000D02*
X78824000Y-123570000D01*
X70164000Y-122810000D02*
X76164000Y-122810000D01*
X70164000Y-123570000D02*
X70164000Y-122810000D01*
X76164000Y-123570000D02*
X70164000Y-123570000D01*
X78824000Y-124460000D02*
X76164000Y-124460000D01*
X81761071Y-125350000D02*
X81306929Y-125350000D01*
X81761071Y-126110000D02*
X81306929Y-126110000D01*
X79221071Y-125350000D02*
X78824000Y-125350000D01*
X79221071Y-126110000D02*
X78824000Y-126110000D01*
X70164000Y-125350000D02*
X76164000Y-125350000D01*
X70164000Y-126110000D02*
X70164000Y-125350000D01*
X76164000Y-126110000D02*
X70164000Y-126110000D01*
X78824000Y-127000000D02*
X76164000Y-127000000D01*
X81761071Y-127890000D02*
X81306929Y-127890000D01*
X81761071Y-128650000D02*
X81306929Y-128650000D01*
X79221071Y-127890000D02*
X78824000Y-127890000D01*
X79221071Y-128650000D02*
X78824000Y-128650000D01*
X70164000Y-127890000D02*
X76164000Y-127890000D01*
X70164000Y-128650000D02*
X70164000Y-127890000D01*
X76164000Y-128650000D02*
X70164000Y-128650000D01*
X78824000Y-129540000D02*
X76164000Y-129540000D01*
X81761071Y-130430000D02*
X81306929Y-130430000D01*
X81761071Y-131190000D02*
X81306929Y-131190000D01*
X79221071Y-130430000D02*
X78824000Y-130430000D01*
X79221071Y-131190000D02*
X78824000Y-131190000D01*
X70164000Y-130430000D02*
X76164000Y-130430000D01*
X70164000Y-131190000D02*
X70164000Y-130430000D01*
X76164000Y-131190000D02*
X70164000Y-131190000D01*
X78824000Y-132080000D02*
X76164000Y-132080000D01*
X81761071Y-132970000D02*
X81306929Y-132970000D01*
X81761071Y-133730000D02*
X81306929Y-133730000D01*
X79221071Y-132970000D02*
X78824000Y-132970000D01*
X79221071Y-133730000D02*
X78824000Y-133730000D01*
X70164000Y-132970000D02*
X76164000Y-132970000D01*
X70164000Y-133730000D02*
X70164000Y-132970000D01*
X76164000Y-133730000D02*
X70164000Y-133730000D01*
X78824000Y-134620000D02*
X76164000Y-134620000D01*
X81761071Y-135510000D02*
X81306929Y-135510000D01*
X81761071Y-136270000D02*
X81306929Y-136270000D01*
X79221071Y-135510000D02*
X78824000Y-135510000D01*
X79221071Y-136270000D02*
X78824000Y-136270000D01*
X70164000Y-135510000D02*
X76164000Y-135510000D01*
X70164000Y-136270000D02*
X70164000Y-135510000D01*
X76164000Y-136270000D02*
X70164000Y-136270000D01*
X78824000Y-137160000D02*
X76164000Y-137160000D01*
X81761071Y-138050000D02*
X81306929Y-138050000D01*
X81761071Y-138810000D02*
X81306929Y-138810000D01*
X79221071Y-138050000D02*
X78824000Y-138050000D01*
X79221071Y-138810000D02*
X78824000Y-138810000D01*
X70164000Y-138050000D02*
X76164000Y-138050000D01*
X70164000Y-138810000D02*
X70164000Y-138050000D01*
X76164000Y-138810000D02*
X70164000Y-138810000D01*
X78824000Y-139700000D02*
X76164000Y-139700000D01*
X81761071Y-140590000D02*
X81306929Y-140590000D01*
X81761071Y-141350000D02*
X81306929Y-141350000D01*
X79221071Y-140590000D02*
X78824000Y-140590000D01*
X79221071Y-141350000D02*
X78824000Y-141350000D01*
X70164000Y-140590000D02*
X76164000Y-140590000D01*
X70164000Y-141350000D02*
X70164000Y-140590000D01*
X76164000Y-141350000D02*
X70164000Y-141350000D01*
X78824000Y-142240000D02*
X76164000Y-142240000D01*
X81761071Y-143130000D02*
X81306929Y-143130000D01*
X81761071Y-143890000D02*
X81306929Y-143890000D01*
X79221071Y-143130000D02*
X78824000Y-143130000D01*
X79221071Y-143890000D02*
X78824000Y-143890000D01*
X70164000Y-143130000D02*
X76164000Y-143130000D01*
X70164000Y-143890000D02*
X70164000Y-143130000D01*
X76164000Y-143890000D02*
X70164000Y-143890000D01*
X78824000Y-144780000D02*
X76164000Y-144780000D01*
X81761071Y-145670000D02*
X81306929Y-145670000D01*
X81761071Y-146430000D02*
X81306929Y-146430000D01*
X79221071Y-145670000D02*
X78824000Y-145670000D01*
X79221071Y-146430000D02*
X78824000Y-146430000D01*
X70164000Y-145670000D02*
X76164000Y-145670000D01*
X70164000Y-146430000D02*
X70164000Y-145670000D01*
X76164000Y-146430000D02*
X70164000Y-146430000D01*
X78824000Y-147320000D02*
X76164000Y-147320000D01*
X81694000Y-148210000D02*
X81306929Y-148210000D01*
X81694000Y-148970000D02*
X81306929Y-148970000D01*
X79221071Y-148210000D02*
X78824000Y-148210000D01*
X79221071Y-148970000D02*
X78824000Y-148970000D01*
X76164000Y-148310000D02*
X70164000Y-148310000D01*
X76164000Y-148430000D02*
X70164000Y-148430000D01*
X76164000Y-148550000D02*
X70164000Y-148550000D01*
X76164000Y-148670000D02*
X70164000Y-148670000D01*
X76164000Y-148790000D02*
X70164000Y-148790000D01*
X76164000Y-148910000D02*
X70164000Y-148910000D01*
X70164000Y-148210000D02*
X76164000Y-148210000D01*
X70164000Y-148970000D02*
X70164000Y-148210000D01*
X76164000Y-148970000D02*
X70164000Y-148970000D01*
X76164000Y-149920000D02*
X78824000Y-149920000D01*
X76164000Y-121860000D02*
X76164000Y-149920000D01*
X78824000Y-121860000D02*
X76164000Y-121860000D01*
X78824000Y-149920000D02*
X78824000Y-121860000D01*
X90870000Y-147050000D02*
X89470000Y-147050000D01*
X88770000Y-146350000D02*
X88770000Y-145750000D01*
X89470000Y-145050000D02*
X90870000Y-145050000D01*
X91570000Y-145750000D02*
X91570000Y-146350000D01*
X91570000Y-146350000D02*
G75*
G02X90870000Y-147050000I-700000J0D01*
G01*
X90870000Y-145050000D02*
G75*
G02X91570000Y-145750000I0J-700000D01*
G01*
X88770000Y-145750000D02*
G75*
G02X89470000Y-145050000I700000J0D01*
G01*
X89470000Y-147050000D02*
G75*
G02X88770000Y-146350000I0J700000D01*
G01*
X89470000Y-144510000D02*
G75*
G02X88770000Y-143810000I0J700000D01*
G01*
X88770000Y-143210000D02*
G75*
G02X89470000Y-142510000I700000J0D01*
G01*
X90870000Y-142510000D02*
G75*
G02X91570000Y-143210000I0J-700000D01*
G01*
X91570000Y-143810000D02*
G75*
G02X90870000Y-144510000I-700000J0D01*
G01*
X91570000Y-143210000D02*
X91570000Y-143810000D01*
X89470000Y-142510000D02*
X90870000Y-142510000D01*
X88770000Y-143810000D02*
X88770000Y-143210000D01*
X90870000Y-144510000D02*
X89470000Y-144510000D01*
X90870000Y-141970000D02*
X89470000Y-141970000D01*
X88770000Y-141270000D02*
X88770000Y-140670000D01*
X89470000Y-139970000D02*
X90870000Y-139970000D01*
X91570000Y-140670000D02*
X91570000Y-141270000D01*
X91570000Y-141270000D02*
G75*
G02X90870000Y-141970000I-700000J0D01*
G01*
X90870000Y-139970000D02*
G75*
G02X91570000Y-140670000I0J-700000D01*
G01*
X88770000Y-140670000D02*
G75*
G02X89470000Y-139970000I700000J0D01*
G01*
X89470000Y-141970000D02*
G75*
G02X88770000Y-141270000I0J700000D01*
G01*
X89470000Y-139430000D02*
G75*
G02X88770000Y-138730000I0J700000D01*
G01*
X88770000Y-138130000D02*
G75*
G02X89470000Y-137430000I700000J0D01*
G01*
X90870000Y-137430000D02*
G75*
G02X91570000Y-138130000I0J-700000D01*
G01*
X91570000Y-138730000D02*
G75*
G02X90870000Y-139430000I-700000J0D01*
G01*
X91570000Y-138130000D02*
X91570000Y-138730000D01*
X89470000Y-137430000D02*
X90870000Y-137430000D01*
X88770000Y-138730000D02*
X88770000Y-138130000D01*
X90870000Y-139430000D02*
X89470000Y-139430000D01*
X90870000Y-136890000D02*
X89470000Y-136890000D01*
X88770000Y-136190000D02*
X88770000Y-135590000D01*
X89470000Y-134890000D02*
X90870000Y-134890000D01*
X91570000Y-135590000D02*
X91570000Y-136190000D01*
X91570000Y-136190000D02*
G75*
G02X90870000Y-136890000I-700000J0D01*
G01*
X90870000Y-134890000D02*
G75*
G02X91570000Y-135590000I0J-700000D01*
G01*
X88770000Y-135590000D02*
G75*
G02X89470000Y-134890000I700000J0D01*
G01*
X89470000Y-136890000D02*
G75*
G02X88770000Y-136190000I0J700000D01*
G01*
X89470000Y-134350000D02*
G75*
G02X88770000Y-133650000I0J700000D01*
G01*
X88770000Y-133050000D02*
G75*
G02X89470000Y-132350000I700000J0D01*
G01*
X90870000Y-132350000D02*
G75*
G02X91570000Y-133050000I0J-700000D01*
G01*
X91570000Y-133650000D02*
G75*
G02X90870000Y-134350000I-700000J0D01*
G01*
X91570000Y-133050000D02*
X91570000Y-133650000D01*
X89470000Y-132350000D02*
X90870000Y-132350000D01*
X88770000Y-133650000D02*
X88770000Y-133050000D01*
X90870000Y-134350000D02*
X89470000Y-134350000D01*
X90870000Y-131810000D02*
X89470000Y-131810000D01*
X88770000Y-131110000D02*
X88770000Y-130510000D01*
X89470000Y-129810000D02*
X90870000Y-129810000D01*
X91570000Y-130510000D02*
X91570000Y-131110000D01*
X91570000Y-131110000D02*
G75*
G02X90870000Y-131810000I-700000J0D01*
G01*
X90870000Y-129810000D02*
G75*
G02X91570000Y-130510000I0J-700000D01*
G01*
X88770000Y-130510000D02*
G75*
G02X89470000Y-129810000I700000J0D01*
G01*
X89470000Y-131810000D02*
G75*
G02X88770000Y-131110000I0J700000D01*
G01*
X89470000Y-129270000D02*
G75*
G02X88770000Y-128570000I0J700000D01*
G01*
X88770000Y-127970000D02*
G75*
G02X89470000Y-127270000I700000J0D01*
G01*
X90870000Y-127270000D02*
G75*
G02X91570000Y-127970000I0J-700000D01*
G01*
X91570000Y-128570000D02*
G75*
G02X90870000Y-129270000I-700000J0D01*
G01*
X91570000Y-127970000D02*
X91570000Y-128570000D01*
X89470000Y-127270000D02*
X90870000Y-127270000D01*
X88770000Y-128570000D02*
X88770000Y-127970000D01*
X90870000Y-129270000D02*
X89470000Y-129270000D01*
X90870000Y-126730000D02*
X89470000Y-126730000D01*
X88770000Y-126030000D02*
X88770000Y-125430000D01*
X89470000Y-124730000D02*
X90870000Y-124730000D01*
X91570000Y-125430000D02*
X91570000Y-126030000D01*
X91570000Y-126030000D02*
G75*
G02X90870000Y-126730000I-700000J0D01*
G01*
X90870000Y-124730000D02*
G75*
G02X91570000Y-125430000I0J-700000D01*
G01*
X88770000Y-125430000D02*
G75*
G02X89470000Y-124730000I700000J0D01*
G01*
X89470000Y-126730000D02*
G75*
G02X88770000Y-126030000I0J700000D01*
G01*
D12*
X129068000Y-126444000D02*
X133568000Y-126444000D01*
X133568000Y-126444000D02*
X133568000Y-133144000D01*
X133568000Y-133144000D02*
X129068000Y-133144000D01*
X129068000Y-133144000D02*
X129068000Y-126444000D01*
X133188000Y-127664000D02*
G75*
G03X133188000Y-127664000I-890000J0D01*
G01*
X133315000Y-139856000D02*
G75*
G03X133315000Y-139856000I-890000J0D01*
G01*
X129195000Y-145336000D02*
X129195000Y-138636000D01*
X133695000Y-145336000D02*
X129195000Y-145336000D01*
X133695000Y-138636000D02*
X133695000Y-145336000D01*
X129195000Y-138636000D02*
X133695000Y-138636000D01*
X109794000Y-123444000D02*
G75*
G03X109794000Y-123444000I-1590000J0D01*
G01*
X109794000Y-148844000D02*
G75*
G03X109794000Y-148844000I-1590000J0D01*
G01*
X109794000Y-143764000D02*
G75*
G03X109794000Y-143764000I-1590000J0D01*
G01*
X109794000Y-128524000D02*
G75*
G03X109794000Y-128524000I-1590000J0D01*
G01*
D13*
X120540000Y-134934000D02*
X122190000Y-134934000D01*
X120540000Y-124654000D02*
X120540000Y-134934000D01*
X125840000Y-124654000D02*
X120540000Y-124654000D01*
X125840000Y-134934000D02*
X125840000Y-124654000D01*
X124190000Y-134934000D02*
X125840000Y-134934000D01*
X122190000Y-134934000D02*
G75*
G02X124190000Y-134934000I1000000J0D01*
G01*
X122190000Y-147126000D02*
G75*
G02X124190000Y-147126000I1000000J0D01*
G01*
X124190000Y-147126000D02*
X125840000Y-147126000D01*
X125840000Y-147126000D02*
X125840000Y-136846000D01*
X125840000Y-136846000D02*
X120540000Y-136846000D01*
X120540000Y-136846000D02*
X120540000Y-147126000D01*
X120540000Y-147126000D02*
X122190000Y-147126000D01*
X99966000Y-141030000D02*
X101616000Y-141030000D01*
X99966000Y-130750000D02*
X99966000Y-141030000D01*
X105266000Y-130750000D02*
X99966000Y-130750000D01*
X105266000Y-141030000D02*
X105266000Y-130750000D01*
X103616000Y-141030000D02*
X105266000Y-141030000D01*
X101616000Y-141030000D02*
G75*
G02X103616000Y-141030000I1000000J0D01*
G01*
D14*
X191395000Y-121216000D02*
X177100000Y-121216000D01*
X177100000Y-121216000D02*
X177100000Y-150564000D01*
X177100000Y-150564000D02*
X191395000Y-150564000D01*
X191395000Y-150564000D02*
X191395000Y-121216000D01*
D12*
X117705142Y-133770666D02*
X117752761Y-133818285D01*
X117800380Y-133961142D01*
X117800380Y-134056380D01*
X117752761Y-134199238D01*
X117657523Y-134294476D01*
X117562285Y-134342095D01*
X117371809Y-134389714D01*
X117228952Y-134389714D01*
X117038476Y-134342095D01*
X116943238Y-134294476D01*
X116848000Y-134199238D01*
X116800380Y-134056380D01*
X116800380Y-133961142D01*
X116848000Y-133818285D01*
X116895619Y-133770666D01*
X117800380Y-132818285D02*
X117800380Y-133389714D01*
X117800380Y-133104000D02*
X116800380Y-133104000D01*
X116943238Y-133199238D01*
X117038476Y-133294476D01*
X117086095Y-133389714D01*
X117705142Y-131738666D02*
X117752761Y-131786285D01*
X117800380Y-131929142D01*
X117800380Y-132024380D01*
X117752761Y-132167238D01*
X117657523Y-132262476D01*
X117562285Y-132310095D01*
X117371809Y-132357714D01*
X117228952Y-132357714D01*
X117038476Y-132310095D01*
X116943238Y-132262476D01*
X116848000Y-132167238D01*
X116800380Y-132024380D01*
X116800380Y-131929142D01*
X116848000Y-131786285D01*
X116895619Y-131738666D01*
X116895619Y-131357714D02*
X116848000Y-131310095D01*
X116800380Y-131214857D01*
X116800380Y-130976761D01*
X116848000Y-130881523D01*
X116895619Y-130833904D01*
X116990857Y-130786285D01*
X117086095Y-130786285D01*
X117228952Y-130833904D01*
X117800380Y-131405333D01*
X117800380Y-130786285D01*
X117705142Y-147994666D02*
X117752761Y-148042285D01*
X117800380Y-148185142D01*
X117800380Y-148280380D01*
X117752761Y-148423238D01*
X117657523Y-148518476D01*
X117562285Y-148566095D01*
X117371809Y-148613714D01*
X117228952Y-148613714D01*
X117038476Y-148566095D01*
X116943238Y-148518476D01*
X116848000Y-148423238D01*
X116800380Y-148280380D01*
X116800380Y-148185142D01*
X116848000Y-148042285D01*
X116895619Y-147994666D01*
X116800380Y-147661333D02*
X116800380Y-147042285D01*
X117181333Y-147375619D01*
X117181333Y-147232761D01*
X117228952Y-147137523D01*
X117276571Y-147089904D01*
X117371809Y-147042285D01*
X117609904Y-147042285D01*
X117705142Y-147089904D01*
X117752761Y-147137523D01*
X117800380Y-147232761D01*
X117800380Y-147518476D01*
X117752761Y-147613714D01*
X117705142Y-147661333D01*
X117705142Y-145708666D02*
X117752761Y-145756285D01*
X117800380Y-145899142D01*
X117800380Y-145994380D01*
X117752761Y-146137238D01*
X117657523Y-146232476D01*
X117562285Y-146280095D01*
X117371809Y-146327714D01*
X117228952Y-146327714D01*
X117038476Y-146280095D01*
X116943238Y-146232476D01*
X116848000Y-146137238D01*
X116800380Y-145994380D01*
X116800380Y-145899142D01*
X116848000Y-145756285D01*
X116895619Y-145708666D01*
X117133714Y-144851523D02*
X117800380Y-144851523D01*
X116752761Y-145089619D02*
X117467047Y-145327714D01*
X117467047Y-144708666D01*
X113367142Y-124392666D02*
X113414761Y-124440285D01*
X113462380Y-124583142D01*
X113462380Y-124678380D01*
X113414761Y-124821238D01*
X113319523Y-124916476D01*
X113224285Y-124964095D01*
X113033809Y-125011714D01*
X112890952Y-125011714D01*
X112700476Y-124964095D01*
X112605238Y-124916476D01*
X112510000Y-124821238D01*
X112462380Y-124678380D01*
X112462380Y-124583142D01*
X112510000Y-124440285D01*
X112557619Y-124392666D01*
X112462380Y-123487904D02*
X112462380Y-123964095D01*
X112938571Y-124011714D01*
X112890952Y-123964095D01*
X112843333Y-123868857D01*
X112843333Y-123630761D01*
X112890952Y-123535523D01*
X112938571Y-123487904D01*
X113033809Y-123440285D01*
X113271904Y-123440285D01*
X113367142Y-123487904D01*
X113414761Y-123535523D01*
X113462380Y-123630761D01*
X113462380Y-123868857D01*
X113414761Y-123964095D01*
X113367142Y-124011714D01*
X113240142Y-138616666D02*
X113287761Y-138664285D01*
X113335380Y-138807142D01*
X113335380Y-138902380D01*
X113287761Y-139045238D01*
X113192523Y-139140476D01*
X113097285Y-139188095D01*
X112906809Y-139235714D01*
X112763952Y-139235714D01*
X112573476Y-139188095D01*
X112478238Y-139140476D01*
X112383000Y-139045238D01*
X112335380Y-138902380D01*
X112335380Y-138807142D01*
X112383000Y-138664285D01*
X112430619Y-138616666D01*
X112335380Y-137759523D02*
X112335380Y-137950000D01*
X112383000Y-138045238D01*
X112430619Y-138092857D01*
X112573476Y-138188095D01*
X112763952Y-138235714D01*
X113144904Y-138235714D01*
X113240142Y-138188095D01*
X113287761Y-138140476D01*
X113335380Y-138045238D01*
X113335380Y-137854761D01*
X113287761Y-137759523D01*
X113240142Y-137711904D01*
X113144904Y-137664285D01*
X112906809Y-137664285D01*
X112811571Y-137711904D01*
X112763952Y-137759523D01*
X112716333Y-137854761D01*
X112716333Y-138045238D01*
X112763952Y-138140476D01*
X112811571Y-138188095D01*
X112906809Y-138235714D01*
X99671142Y-148248666D02*
X99718761Y-148296285D01*
X99766380Y-148439142D01*
X99766380Y-148534380D01*
X99718761Y-148677238D01*
X99623523Y-148772476D01*
X99528285Y-148820095D01*
X99337809Y-148867714D01*
X99194952Y-148867714D01*
X99004476Y-148820095D01*
X98909238Y-148772476D01*
X98814000Y-148677238D01*
X98766380Y-148534380D01*
X98766380Y-148439142D01*
X98814000Y-148296285D01*
X98861619Y-148248666D01*
X98766380Y-147915333D02*
X98766380Y-147248666D01*
X99766380Y-147677238D01*
X99163142Y-143930666D02*
X99210761Y-143978285D01*
X99258380Y-144121142D01*
X99258380Y-144216380D01*
X99210761Y-144359238D01*
X99115523Y-144454476D01*
X99020285Y-144502095D01*
X98829809Y-144549714D01*
X98686952Y-144549714D01*
X98496476Y-144502095D01*
X98401238Y-144454476D01*
X98306000Y-144359238D01*
X98258380Y-144216380D01*
X98258380Y-144121142D01*
X98306000Y-143978285D01*
X98353619Y-143930666D01*
X98686952Y-143359238D02*
X98639333Y-143454476D01*
X98591714Y-143502095D01*
X98496476Y-143549714D01*
X98448857Y-143549714D01*
X98353619Y-143502095D01*
X98306000Y-143454476D01*
X98258380Y-143359238D01*
X98258380Y-143168761D01*
X98306000Y-143073523D01*
X98353619Y-143025904D01*
X98448857Y-142978285D01*
X98496476Y-142978285D01*
X98591714Y-143025904D01*
X98639333Y-143073523D01*
X98686952Y-143168761D01*
X98686952Y-143359238D01*
X98734571Y-143454476D01*
X98782190Y-143502095D01*
X98877428Y-143549714D01*
X99067904Y-143549714D01*
X99163142Y-143502095D01*
X99210761Y-143454476D01*
X99258380Y-143359238D01*
X99258380Y-143168761D01*
X99210761Y-143073523D01*
X99163142Y-143025904D01*
X99067904Y-142978285D01*
X98877428Y-142978285D01*
X98782190Y-143025904D01*
X98734571Y-143073523D01*
X98686952Y-143168761D01*
X82470666Y-150836380D02*
X82470666Y-151550666D01*
X82423047Y-151693523D01*
X82327809Y-151788761D01*
X82184952Y-151836380D01*
X82089714Y-151836380D01*
X83470666Y-151836380D02*
X82899238Y-151836380D01*
X83184952Y-151836380D02*
X83184952Y-150836380D01*
X83089714Y-150979238D01*
X82994476Y-151074476D01*
X82899238Y-151122095D01*
X130722761Y-125928380D02*
X130389428Y-125452190D01*
X130151333Y-125928380D02*
X130151333Y-124928380D01*
X130532285Y-124928380D01*
X130627523Y-124976000D01*
X130675142Y-125023619D01*
X130722761Y-125118857D01*
X130722761Y-125261714D01*
X130675142Y-125356952D01*
X130627523Y-125404571D01*
X130532285Y-125452190D01*
X130151333Y-125452190D01*
X131008476Y-124928380D02*
X131341809Y-125928380D01*
X131675142Y-124928380D01*
X132532285Y-125928380D02*
X131960857Y-125928380D01*
X132246571Y-125928380D02*
X132246571Y-124928380D01*
X132151333Y-125071238D01*
X132056095Y-125166476D01*
X131960857Y-125214095D01*
X130976761Y-138120380D02*
X130643428Y-137644190D01*
X130405333Y-138120380D02*
X130405333Y-137120380D01*
X130786285Y-137120380D01*
X130881523Y-137168000D01*
X130929142Y-137215619D01*
X130976761Y-137310857D01*
X130976761Y-137453714D01*
X130929142Y-137548952D01*
X130881523Y-137596571D01*
X130786285Y-137644190D01*
X130405333Y-137644190D01*
X131262476Y-137120380D02*
X131595809Y-138120380D01*
X131929142Y-137120380D01*
X132214857Y-137215619D02*
X132262476Y-137168000D01*
X132357714Y-137120380D01*
X132595809Y-137120380D01*
X132691047Y-137168000D01*
X132738666Y-137215619D01*
X132786285Y-137310857D01*
X132786285Y-137406095D01*
X132738666Y-137548952D01*
X132167238Y-138120380D01*
X132786285Y-138120380D01*
X122428095Y-135386380D02*
X122428095Y-136195904D01*
X122475714Y-136291142D01*
X122523333Y-136338761D01*
X122618571Y-136386380D01*
X122809047Y-136386380D01*
X122904285Y-136338761D01*
X122951904Y-136291142D01*
X122999523Y-136195904D01*
X122999523Y-135386380D01*
X123999523Y-136386380D02*
X123428095Y-136386380D01*
X123713809Y-136386380D02*
X123713809Y-135386380D01*
X123618571Y-135529238D01*
X123523333Y-135624476D01*
X123428095Y-135672095D01*
X122428095Y-147578380D02*
X122428095Y-148387904D01*
X122475714Y-148483142D01*
X122523333Y-148530761D01*
X122618571Y-148578380D01*
X122809047Y-148578380D01*
X122904285Y-148530761D01*
X122951904Y-148483142D01*
X122999523Y-148387904D01*
X122999523Y-147578380D01*
X123428095Y-147673619D02*
X123475714Y-147626000D01*
X123570952Y-147578380D01*
X123809047Y-147578380D01*
X123904285Y-147626000D01*
X123951904Y-147673619D01*
X123999523Y-147768857D01*
X123999523Y-147864095D01*
X123951904Y-148006952D01*
X123380476Y-148578380D01*
X123999523Y-148578380D01*
X101854095Y-129246380D02*
X101854095Y-130055904D01*
X101901714Y-130151142D01*
X101949333Y-130198761D01*
X102044571Y-130246380D01*
X102235047Y-130246380D01*
X102330285Y-130198761D01*
X102377904Y-130151142D01*
X102425523Y-130055904D01*
X102425523Y-129246380D01*
X102806476Y-129246380D02*
X103425523Y-129246380D01*
X103092190Y-129627333D01*
X103235047Y-129627333D01*
X103330285Y-129674952D01*
X103377904Y-129722571D01*
X103425523Y-129817809D01*
X103425523Y-130055904D01*
X103377904Y-130151142D01*
X103330285Y-130198761D01*
X103235047Y-130246380D01*
X102949333Y-130246380D01*
X102854095Y-130198761D01*
X102806476Y-130151142D01*
D15*
X178011167Y-151090382D02*
X178011167Y-151804666D01*
X177963548Y-151947523D01*
X177868310Y-152042761D01*
X177725453Y-152090380D01*
X177630215Y-152090380D01*
X178439737Y-151185619D02*
X178487356Y-151138001D01*
X178582594Y-151090382D01*
X178820689Y-151090382D01*
X178915927Y-151138001D01*
X178963546Y-151185619D01*
X179011165Y-151280857D01*
X179011165Y-151376095D01*
X178963546Y-151518952D01*
X178392118Y-152090380D01*
X179011165Y-152090380D01*
M02*
