G04 #@! TF.GenerationSoftware,KiCad,Pcbnew,(5.1.2)-1*
G04 #@! TF.CreationDate,2019-10-29T15:21:54-05:00*
G04 #@! TF.ProjectId,optical_digitizer,6f707469-6361-46c5-9f64-69676974697a,rev?*
G04 #@! TF.SameCoordinates,Original*
G04 #@! TF.FileFunction,Copper,L1,Top*
G04 #@! TF.FilePolarity,Positive*
%FSLAX46Y46*%
G04 Gerber Fmt 4.6, Leading zero omitted, Abs format (unit mm)*
G04 Created by KiCad (PCBNEW (5.1.2)-1) date 2019-10-29 15:21:54*
%MOMM*%
%LPD*%
G04 APERTURE LIST*
%ADD10C,1.485000*%
%ADD11C,1.600000*%
%ADD12O,1.200000X1.200000*%
%ADD13O,1.200000X1.600000*%
%ADD14C,2.100000*%
%ADD15O,1.700000X1.700000*%
%ADD16R,1.700000X1.700000*%
%ADD17C,0.500000*%
%ADD18C,0.100000*%
%ADD19C,1.440000*%
%ADD20C,2.600000*%
%ADD21O,1.600000X1.600000*%
%ADD22R,1.600000X1.600000*%
%ADD23C,1.640000*%
%ADD24C,0.508000*%
%ADD25C,0.304800*%
%ADD26C,0.152400*%
G04 APERTURE END LIST*
D10*
X115570000Y-133604000D03*
X113284000Y-133604000D03*
X113284000Y-129286000D03*
X116459000Y-129286000D03*
X113157000Y-147828000D03*
X115443000Y-147828000D03*
X116332000Y-143546001D03*
X113157000Y-143546001D03*
D11*
X115570000Y-125476000D03*
X115570000Y-122976000D03*
X115443000Y-137200000D03*
X115443000Y-139700000D03*
D10*
X103378000Y-148082000D03*
X101092000Y-148082000D03*
X103632000Y-143764000D03*
X100457000Y-143764000D03*
D12*
X165100000Y-127000000D03*
X166370000Y-125730000D03*
D13*
X165100000Y-124460000D03*
D14*
X154940000Y-121920000D03*
X154940000Y-129540000D03*
X154940000Y-149860000D03*
X154940000Y-142240000D03*
D13*
X165100000Y-144780000D03*
D12*
X166370000Y-146050000D03*
X165100000Y-147320000D03*
D15*
X80264000Y-123190000D03*
X82804000Y-123190000D03*
X80264000Y-125730000D03*
X82804000Y-125730000D03*
X80264000Y-128270000D03*
X82804000Y-128270000D03*
X80264000Y-130810000D03*
X82804000Y-130810000D03*
X80264000Y-133350000D03*
X82804000Y-133350000D03*
X80264000Y-135890000D03*
X82804000Y-135890000D03*
X80264000Y-138430000D03*
X82804000Y-138430000D03*
X80264000Y-140970000D03*
X82804000Y-140970000D03*
X80264000Y-143510000D03*
X82804000Y-143510000D03*
X80264000Y-146050000D03*
X82804000Y-146050000D03*
X80264000Y-148590000D03*
D16*
X82804000Y-148590000D03*
D17*
X89520000Y-146050000D03*
D18*
G36*
X89520000Y-146799398D02*
G01*
X89495466Y-146799398D01*
X89446635Y-146794588D01*
X89398510Y-146785016D01*
X89351555Y-146770772D01*
X89306222Y-146751995D01*
X89262949Y-146728864D01*
X89222150Y-146701604D01*
X89184221Y-146670476D01*
X89149524Y-146635779D01*
X89118396Y-146597850D01*
X89091136Y-146557051D01*
X89068005Y-146513778D01*
X89049228Y-146468445D01*
X89034984Y-146421490D01*
X89025412Y-146373365D01*
X89020602Y-146324534D01*
X89020602Y-146300000D01*
X89020000Y-146300000D01*
X89020000Y-145800000D01*
X89020602Y-145800000D01*
X89020602Y-145775466D01*
X89025412Y-145726635D01*
X89034984Y-145678510D01*
X89049228Y-145631555D01*
X89068005Y-145586222D01*
X89091136Y-145542949D01*
X89118396Y-145502150D01*
X89149524Y-145464221D01*
X89184221Y-145429524D01*
X89222150Y-145398396D01*
X89262949Y-145371136D01*
X89306222Y-145348005D01*
X89351555Y-145329228D01*
X89398510Y-145314984D01*
X89446635Y-145305412D01*
X89495466Y-145300602D01*
X89520000Y-145300602D01*
X89520000Y-145300000D01*
X90020000Y-145300000D01*
X90020000Y-146800000D01*
X89520000Y-146800000D01*
X89520000Y-146799398D01*
X89520000Y-146799398D01*
G37*
D17*
X90820000Y-146050000D03*
D18*
G36*
X90320000Y-145300000D02*
G01*
X90820000Y-145300000D01*
X90820000Y-145300602D01*
X90844534Y-145300602D01*
X90893365Y-145305412D01*
X90941490Y-145314984D01*
X90988445Y-145329228D01*
X91033778Y-145348005D01*
X91077051Y-145371136D01*
X91117850Y-145398396D01*
X91155779Y-145429524D01*
X91190476Y-145464221D01*
X91221604Y-145502150D01*
X91248864Y-145542949D01*
X91271995Y-145586222D01*
X91290772Y-145631555D01*
X91305016Y-145678510D01*
X91314588Y-145726635D01*
X91319398Y-145775466D01*
X91319398Y-145800000D01*
X91320000Y-145800000D01*
X91320000Y-146300000D01*
X91319398Y-146300000D01*
X91319398Y-146324534D01*
X91314588Y-146373365D01*
X91305016Y-146421490D01*
X91290772Y-146468445D01*
X91271995Y-146513778D01*
X91248864Y-146557051D01*
X91221604Y-146597850D01*
X91190476Y-146635779D01*
X91155779Y-146670476D01*
X91117850Y-146701604D01*
X91077051Y-146728864D01*
X91033778Y-146751995D01*
X90988445Y-146770772D01*
X90941490Y-146785016D01*
X90893365Y-146794588D01*
X90844534Y-146799398D01*
X90820000Y-146799398D01*
X90820000Y-146800000D01*
X90320000Y-146800000D01*
X90320000Y-145300000D01*
X90320000Y-145300000D01*
G37*
D17*
X90820000Y-143510000D03*
D18*
G36*
X90320000Y-142760000D02*
G01*
X90820000Y-142760000D01*
X90820000Y-142760602D01*
X90844534Y-142760602D01*
X90893365Y-142765412D01*
X90941490Y-142774984D01*
X90988445Y-142789228D01*
X91033778Y-142808005D01*
X91077051Y-142831136D01*
X91117850Y-142858396D01*
X91155779Y-142889524D01*
X91190476Y-142924221D01*
X91221604Y-142962150D01*
X91248864Y-143002949D01*
X91271995Y-143046222D01*
X91290772Y-143091555D01*
X91305016Y-143138510D01*
X91314588Y-143186635D01*
X91319398Y-143235466D01*
X91319398Y-143260000D01*
X91320000Y-143260000D01*
X91320000Y-143760000D01*
X91319398Y-143760000D01*
X91319398Y-143784534D01*
X91314588Y-143833365D01*
X91305016Y-143881490D01*
X91290772Y-143928445D01*
X91271995Y-143973778D01*
X91248864Y-144017051D01*
X91221604Y-144057850D01*
X91190476Y-144095779D01*
X91155779Y-144130476D01*
X91117850Y-144161604D01*
X91077051Y-144188864D01*
X91033778Y-144211995D01*
X90988445Y-144230772D01*
X90941490Y-144245016D01*
X90893365Y-144254588D01*
X90844534Y-144259398D01*
X90820000Y-144259398D01*
X90820000Y-144260000D01*
X90320000Y-144260000D01*
X90320000Y-142760000D01*
X90320000Y-142760000D01*
G37*
D17*
X89520000Y-143510000D03*
D18*
G36*
X89520000Y-144259398D02*
G01*
X89495466Y-144259398D01*
X89446635Y-144254588D01*
X89398510Y-144245016D01*
X89351555Y-144230772D01*
X89306222Y-144211995D01*
X89262949Y-144188864D01*
X89222150Y-144161604D01*
X89184221Y-144130476D01*
X89149524Y-144095779D01*
X89118396Y-144057850D01*
X89091136Y-144017051D01*
X89068005Y-143973778D01*
X89049228Y-143928445D01*
X89034984Y-143881490D01*
X89025412Y-143833365D01*
X89020602Y-143784534D01*
X89020602Y-143760000D01*
X89020000Y-143760000D01*
X89020000Y-143260000D01*
X89020602Y-143260000D01*
X89020602Y-143235466D01*
X89025412Y-143186635D01*
X89034984Y-143138510D01*
X89049228Y-143091555D01*
X89068005Y-143046222D01*
X89091136Y-143002949D01*
X89118396Y-142962150D01*
X89149524Y-142924221D01*
X89184221Y-142889524D01*
X89222150Y-142858396D01*
X89262949Y-142831136D01*
X89306222Y-142808005D01*
X89351555Y-142789228D01*
X89398510Y-142774984D01*
X89446635Y-142765412D01*
X89495466Y-142760602D01*
X89520000Y-142760602D01*
X89520000Y-142760000D01*
X90020000Y-142760000D01*
X90020000Y-144260000D01*
X89520000Y-144260000D01*
X89520000Y-144259398D01*
X89520000Y-144259398D01*
G37*
D17*
X89520000Y-140970000D03*
D18*
G36*
X89520000Y-141719398D02*
G01*
X89495466Y-141719398D01*
X89446635Y-141714588D01*
X89398510Y-141705016D01*
X89351555Y-141690772D01*
X89306222Y-141671995D01*
X89262949Y-141648864D01*
X89222150Y-141621604D01*
X89184221Y-141590476D01*
X89149524Y-141555779D01*
X89118396Y-141517850D01*
X89091136Y-141477051D01*
X89068005Y-141433778D01*
X89049228Y-141388445D01*
X89034984Y-141341490D01*
X89025412Y-141293365D01*
X89020602Y-141244534D01*
X89020602Y-141220000D01*
X89020000Y-141220000D01*
X89020000Y-140720000D01*
X89020602Y-140720000D01*
X89020602Y-140695466D01*
X89025412Y-140646635D01*
X89034984Y-140598510D01*
X89049228Y-140551555D01*
X89068005Y-140506222D01*
X89091136Y-140462949D01*
X89118396Y-140422150D01*
X89149524Y-140384221D01*
X89184221Y-140349524D01*
X89222150Y-140318396D01*
X89262949Y-140291136D01*
X89306222Y-140268005D01*
X89351555Y-140249228D01*
X89398510Y-140234984D01*
X89446635Y-140225412D01*
X89495466Y-140220602D01*
X89520000Y-140220602D01*
X89520000Y-140220000D01*
X90020000Y-140220000D01*
X90020000Y-141720000D01*
X89520000Y-141720000D01*
X89520000Y-141719398D01*
X89520000Y-141719398D01*
G37*
D17*
X90820000Y-140970000D03*
D18*
G36*
X90320000Y-140220000D02*
G01*
X90820000Y-140220000D01*
X90820000Y-140220602D01*
X90844534Y-140220602D01*
X90893365Y-140225412D01*
X90941490Y-140234984D01*
X90988445Y-140249228D01*
X91033778Y-140268005D01*
X91077051Y-140291136D01*
X91117850Y-140318396D01*
X91155779Y-140349524D01*
X91190476Y-140384221D01*
X91221604Y-140422150D01*
X91248864Y-140462949D01*
X91271995Y-140506222D01*
X91290772Y-140551555D01*
X91305016Y-140598510D01*
X91314588Y-140646635D01*
X91319398Y-140695466D01*
X91319398Y-140720000D01*
X91320000Y-140720000D01*
X91320000Y-141220000D01*
X91319398Y-141220000D01*
X91319398Y-141244534D01*
X91314588Y-141293365D01*
X91305016Y-141341490D01*
X91290772Y-141388445D01*
X91271995Y-141433778D01*
X91248864Y-141477051D01*
X91221604Y-141517850D01*
X91190476Y-141555779D01*
X91155779Y-141590476D01*
X91117850Y-141621604D01*
X91077051Y-141648864D01*
X91033778Y-141671995D01*
X90988445Y-141690772D01*
X90941490Y-141705016D01*
X90893365Y-141714588D01*
X90844534Y-141719398D01*
X90820000Y-141719398D01*
X90820000Y-141720000D01*
X90320000Y-141720000D01*
X90320000Y-140220000D01*
X90320000Y-140220000D01*
G37*
D17*
X90820000Y-138430000D03*
D18*
G36*
X90320000Y-137680000D02*
G01*
X90820000Y-137680000D01*
X90820000Y-137680602D01*
X90844534Y-137680602D01*
X90893365Y-137685412D01*
X90941490Y-137694984D01*
X90988445Y-137709228D01*
X91033778Y-137728005D01*
X91077051Y-137751136D01*
X91117850Y-137778396D01*
X91155779Y-137809524D01*
X91190476Y-137844221D01*
X91221604Y-137882150D01*
X91248864Y-137922949D01*
X91271995Y-137966222D01*
X91290772Y-138011555D01*
X91305016Y-138058510D01*
X91314588Y-138106635D01*
X91319398Y-138155466D01*
X91319398Y-138180000D01*
X91320000Y-138180000D01*
X91320000Y-138680000D01*
X91319398Y-138680000D01*
X91319398Y-138704534D01*
X91314588Y-138753365D01*
X91305016Y-138801490D01*
X91290772Y-138848445D01*
X91271995Y-138893778D01*
X91248864Y-138937051D01*
X91221604Y-138977850D01*
X91190476Y-139015779D01*
X91155779Y-139050476D01*
X91117850Y-139081604D01*
X91077051Y-139108864D01*
X91033778Y-139131995D01*
X90988445Y-139150772D01*
X90941490Y-139165016D01*
X90893365Y-139174588D01*
X90844534Y-139179398D01*
X90820000Y-139179398D01*
X90820000Y-139180000D01*
X90320000Y-139180000D01*
X90320000Y-137680000D01*
X90320000Y-137680000D01*
G37*
D17*
X89520000Y-138430000D03*
D18*
G36*
X89520000Y-139179398D02*
G01*
X89495466Y-139179398D01*
X89446635Y-139174588D01*
X89398510Y-139165016D01*
X89351555Y-139150772D01*
X89306222Y-139131995D01*
X89262949Y-139108864D01*
X89222150Y-139081604D01*
X89184221Y-139050476D01*
X89149524Y-139015779D01*
X89118396Y-138977850D01*
X89091136Y-138937051D01*
X89068005Y-138893778D01*
X89049228Y-138848445D01*
X89034984Y-138801490D01*
X89025412Y-138753365D01*
X89020602Y-138704534D01*
X89020602Y-138680000D01*
X89020000Y-138680000D01*
X89020000Y-138180000D01*
X89020602Y-138180000D01*
X89020602Y-138155466D01*
X89025412Y-138106635D01*
X89034984Y-138058510D01*
X89049228Y-138011555D01*
X89068005Y-137966222D01*
X89091136Y-137922949D01*
X89118396Y-137882150D01*
X89149524Y-137844221D01*
X89184221Y-137809524D01*
X89222150Y-137778396D01*
X89262949Y-137751136D01*
X89306222Y-137728005D01*
X89351555Y-137709228D01*
X89398510Y-137694984D01*
X89446635Y-137685412D01*
X89495466Y-137680602D01*
X89520000Y-137680602D01*
X89520000Y-137680000D01*
X90020000Y-137680000D01*
X90020000Y-139180000D01*
X89520000Y-139180000D01*
X89520000Y-139179398D01*
X89520000Y-139179398D01*
G37*
D17*
X89520000Y-135890000D03*
D18*
G36*
X89520000Y-136639398D02*
G01*
X89495466Y-136639398D01*
X89446635Y-136634588D01*
X89398510Y-136625016D01*
X89351555Y-136610772D01*
X89306222Y-136591995D01*
X89262949Y-136568864D01*
X89222150Y-136541604D01*
X89184221Y-136510476D01*
X89149524Y-136475779D01*
X89118396Y-136437850D01*
X89091136Y-136397051D01*
X89068005Y-136353778D01*
X89049228Y-136308445D01*
X89034984Y-136261490D01*
X89025412Y-136213365D01*
X89020602Y-136164534D01*
X89020602Y-136140000D01*
X89020000Y-136140000D01*
X89020000Y-135640000D01*
X89020602Y-135640000D01*
X89020602Y-135615466D01*
X89025412Y-135566635D01*
X89034984Y-135518510D01*
X89049228Y-135471555D01*
X89068005Y-135426222D01*
X89091136Y-135382949D01*
X89118396Y-135342150D01*
X89149524Y-135304221D01*
X89184221Y-135269524D01*
X89222150Y-135238396D01*
X89262949Y-135211136D01*
X89306222Y-135188005D01*
X89351555Y-135169228D01*
X89398510Y-135154984D01*
X89446635Y-135145412D01*
X89495466Y-135140602D01*
X89520000Y-135140602D01*
X89520000Y-135140000D01*
X90020000Y-135140000D01*
X90020000Y-136640000D01*
X89520000Y-136640000D01*
X89520000Y-136639398D01*
X89520000Y-136639398D01*
G37*
D17*
X90820000Y-135890000D03*
D18*
G36*
X90320000Y-135140000D02*
G01*
X90820000Y-135140000D01*
X90820000Y-135140602D01*
X90844534Y-135140602D01*
X90893365Y-135145412D01*
X90941490Y-135154984D01*
X90988445Y-135169228D01*
X91033778Y-135188005D01*
X91077051Y-135211136D01*
X91117850Y-135238396D01*
X91155779Y-135269524D01*
X91190476Y-135304221D01*
X91221604Y-135342150D01*
X91248864Y-135382949D01*
X91271995Y-135426222D01*
X91290772Y-135471555D01*
X91305016Y-135518510D01*
X91314588Y-135566635D01*
X91319398Y-135615466D01*
X91319398Y-135640000D01*
X91320000Y-135640000D01*
X91320000Y-136140000D01*
X91319398Y-136140000D01*
X91319398Y-136164534D01*
X91314588Y-136213365D01*
X91305016Y-136261490D01*
X91290772Y-136308445D01*
X91271995Y-136353778D01*
X91248864Y-136397051D01*
X91221604Y-136437850D01*
X91190476Y-136475779D01*
X91155779Y-136510476D01*
X91117850Y-136541604D01*
X91077051Y-136568864D01*
X91033778Y-136591995D01*
X90988445Y-136610772D01*
X90941490Y-136625016D01*
X90893365Y-136634588D01*
X90844534Y-136639398D01*
X90820000Y-136639398D01*
X90820000Y-136640000D01*
X90320000Y-136640000D01*
X90320000Y-135140000D01*
X90320000Y-135140000D01*
G37*
D17*
X90820000Y-133350000D03*
D18*
G36*
X90320000Y-132600000D02*
G01*
X90820000Y-132600000D01*
X90820000Y-132600602D01*
X90844534Y-132600602D01*
X90893365Y-132605412D01*
X90941490Y-132614984D01*
X90988445Y-132629228D01*
X91033778Y-132648005D01*
X91077051Y-132671136D01*
X91117850Y-132698396D01*
X91155779Y-132729524D01*
X91190476Y-132764221D01*
X91221604Y-132802150D01*
X91248864Y-132842949D01*
X91271995Y-132886222D01*
X91290772Y-132931555D01*
X91305016Y-132978510D01*
X91314588Y-133026635D01*
X91319398Y-133075466D01*
X91319398Y-133100000D01*
X91320000Y-133100000D01*
X91320000Y-133600000D01*
X91319398Y-133600000D01*
X91319398Y-133624534D01*
X91314588Y-133673365D01*
X91305016Y-133721490D01*
X91290772Y-133768445D01*
X91271995Y-133813778D01*
X91248864Y-133857051D01*
X91221604Y-133897850D01*
X91190476Y-133935779D01*
X91155779Y-133970476D01*
X91117850Y-134001604D01*
X91077051Y-134028864D01*
X91033778Y-134051995D01*
X90988445Y-134070772D01*
X90941490Y-134085016D01*
X90893365Y-134094588D01*
X90844534Y-134099398D01*
X90820000Y-134099398D01*
X90820000Y-134100000D01*
X90320000Y-134100000D01*
X90320000Y-132600000D01*
X90320000Y-132600000D01*
G37*
D17*
X89520000Y-133350000D03*
D18*
G36*
X89520000Y-134099398D02*
G01*
X89495466Y-134099398D01*
X89446635Y-134094588D01*
X89398510Y-134085016D01*
X89351555Y-134070772D01*
X89306222Y-134051995D01*
X89262949Y-134028864D01*
X89222150Y-134001604D01*
X89184221Y-133970476D01*
X89149524Y-133935779D01*
X89118396Y-133897850D01*
X89091136Y-133857051D01*
X89068005Y-133813778D01*
X89049228Y-133768445D01*
X89034984Y-133721490D01*
X89025412Y-133673365D01*
X89020602Y-133624534D01*
X89020602Y-133600000D01*
X89020000Y-133600000D01*
X89020000Y-133100000D01*
X89020602Y-133100000D01*
X89020602Y-133075466D01*
X89025412Y-133026635D01*
X89034984Y-132978510D01*
X89049228Y-132931555D01*
X89068005Y-132886222D01*
X89091136Y-132842949D01*
X89118396Y-132802150D01*
X89149524Y-132764221D01*
X89184221Y-132729524D01*
X89222150Y-132698396D01*
X89262949Y-132671136D01*
X89306222Y-132648005D01*
X89351555Y-132629228D01*
X89398510Y-132614984D01*
X89446635Y-132605412D01*
X89495466Y-132600602D01*
X89520000Y-132600602D01*
X89520000Y-132600000D01*
X90020000Y-132600000D01*
X90020000Y-134100000D01*
X89520000Y-134100000D01*
X89520000Y-134099398D01*
X89520000Y-134099398D01*
G37*
D17*
X89520000Y-130810000D03*
D18*
G36*
X89520000Y-131559398D02*
G01*
X89495466Y-131559398D01*
X89446635Y-131554588D01*
X89398510Y-131545016D01*
X89351555Y-131530772D01*
X89306222Y-131511995D01*
X89262949Y-131488864D01*
X89222150Y-131461604D01*
X89184221Y-131430476D01*
X89149524Y-131395779D01*
X89118396Y-131357850D01*
X89091136Y-131317051D01*
X89068005Y-131273778D01*
X89049228Y-131228445D01*
X89034984Y-131181490D01*
X89025412Y-131133365D01*
X89020602Y-131084534D01*
X89020602Y-131060000D01*
X89020000Y-131060000D01*
X89020000Y-130560000D01*
X89020602Y-130560000D01*
X89020602Y-130535466D01*
X89025412Y-130486635D01*
X89034984Y-130438510D01*
X89049228Y-130391555D01*
X89068005Y-130346222D01*
X89091136Y-130302949D01*
X89118396Y-130262150D01*
X89149524Y-130224221D01*
X89184221Y-130189524D01*
X89222150Y-130158396D01*
X89262949Y-130131136D01*
X89306222Y-130108005D01*
X89351555Y-130089228D01*
X89398510Y-130074984D01*
X89446635Y-130065412D01*
X89495466Y-130060602D01*
X89520000Y-130060602D01*
X89520000Y-130060000D01*
X90020000Y-130060000D01*
X90020000Y-131560000D01*
X89520000Y-131560000D01*
X89520000Y-131559398D01*
X89520000Y-131559398D01*
G37*
D17*
X90820000Y-130810000D03*
D18*
G36*
X90320000Y-130060000D02*
G01*
X90820000Y-130060000D01*
X90820000Y-130060602D01*
X90844534Y-130060602D01*
X90893365Y-130065412D01*
X90941490Y-130074984D01*
X90988445Y-130089228D01*
X91033778Y-130108005D01*
X91077051Y-130131136D01*
X91117850Y-130158396D01*
X91155779Y-130189524D01*
X91190476Y-130224221D01*
X91221604Y-130262150D01*
X91248864Y-130302949D01*
X91271995Y-130346222D01*
X91290772Y-130391555D01*
X91305016Y-130438510D01*
X91314588Y-130486635D01*
X91319398Y-130535466D01*
X91319398Y-130560000D01*
X91320000Y-130560000D01*
X91320000Y-131060000D01*
X91319398Y-131060000D01*
X91319398Y-131084534D01*
X91314588Y-131133365D01*
X91305016Y-131181490D01*
X91290772Y-131228445D01*
X91271995Y-131273778D01*
X91248864Y-131317051D01*
X91221604Y-131357850D01*
X91190476Y-131395779D01*
X91155779Y-131430476D01*
X91117850Y-131461604D01*
X91077051Y-131488864D01*
X91033778Y-131511995D01*
X90988445Y-131530772D01*
X90941490Y-131545016D01*
X90893365Y-131554588D01*
X90844534Y-131559398D01*
X90820000Y-131559398D01*
X90820000Y-131560000D01*
X90320000Y-131560000D01*
X90320000Y-130060000D01*
X90320000Y-130060000D01*
G37*
D17*
X90820000Y-128270000D03*
D18*
G36*
X90320000Y-127520000D02*
G01*
X90820000Y-127520000D01*
X90820000Y-127520602D01*
X90844534Y-127520602D01*
X90893365Y-127525412D01*
X90941490Y-127534984D01*
X90988445Y-127549228D01*
X91033778Y-127568005D01*
X91077051Y-127591136D01*
X91117850Y-127618396D01*
X91155779Y-127649524D01*
X91190476Y-127684221D01*
X91221604Y-127722150D01*
X91248864Y-127762949D01*
X91271995Y-127806222D01*
X91290772Y-127851555D01*
X91305016Y-127898510D01*
X91314588Y-127946635D01*
X91319398Y-127995466D01*
X91319398Y-128020000D01*
X91320000Y-128020000D01*
X91320000Y-128520000D01*
X91319398Y-128520000D01*
X91319398Y-128544534D01*
X91314588Y-128593365D01*
X91305016Y-128641490D01*
X91290772Y-128688445D01*
X91271995Y-128733778D01*
X91248864Y-128777051D01*
X91221604Y-128817850D01*
X91190476Y-128855779D01*
X91155779Y-128890476D01*
X91117850Y-128921604D01*
X91077051Y-128948864D01*
X91033778Y-128971995D01*
X90988445Y-128990772D01*
X90941490Y-129005016D01*
X90893365Y-129014588D01*
X90844534Y-129019398D01*
X90820000Y-129019398D01*
X90820000Y-129020000D01*
X90320000Y-129020000D01*
X90320000Y-127520000D01*
X90320000Y-127520000D01*
G37*
D17*
X89520000Y-128270000D03*
D18*
G36*
X89520000Y-129019398D02*
G01*
X89495466Y-129019398D01*
X89446635Y-129014588D01*
X89398510Y-129005016D01*
X89351555Y-128990772D01*
X89306222Y-128971995D01*
X89262949Y-128948864D01*
X89222150Y-128921604D01*
X89184221Y-128890476D01*
X89149524Y-128855779D01*
X89118396Y-128817850D01*
X89091136Y-128777051D01*
X89068005Y-128733778D01*
X89049228Y-128688445D01*
X89034984Y-128641490D01*
X89025412Y-128593365D01*
X89020602Y-128544534D01*
X89020602Y-128520000D01*
X89020000Y-128520000D01*
X89020000Y-128020000D01*
X89020602Y-128020000D01*
X89020602Y-127995466D01*
X89025412Y-127946635D01*
X89034984Y-127898510D01*
X89049228Y-127851555D01*
X89068005Y-127806222D01*
X89091136Y-127762949D01*
X89118396Y-127722150D01*
X89149524Y-127684221D01*
X89184221Y-127649524D01*
X89222150Y-127618396D01*
X89262949Y-127591136D01*
X89306222Y-127568005D01*
X89351555Y-127549228D01*
X89398510Y-127534984D01*
X89446635Y-127525412D01*
X89495466Y-127520602D01*
X89520000Y-127520602D01*
X89520000Y-127520000D01*
X90020000Y-127520000D01*
X90020000Y-129020000D01*
X89520000Y-129020000D01*
X89520000Y-129019398D01*
X89520000Y-129019398D01*
G37*
D17*
X89520000Y-125730000D03*
D18*
G36*
X89520000Y-126479398D02*
G01*
X89495466Y-126479398D01*
X89446635Y-126474588D01*
X89398510Y-126465016D01*
X89351555Y-126450772D01*
X89306222Y-126431995D01*
X89262949Y-126408864D01*
X89222150Y-126381604D01*
X89184221Y-126350476D01*
X89149524Y-126315779D01*
X89118396Y-126277850D01*
X89091136Y-126237051D01*
X89068005Y-126193778D01*
X89049228Y-126148445D01*
X89034984Y-126101490D01*
X89025412Y-126053365D01*
X89020602Y-126004534D01*
X89020602Y-125980000D01*
X89020000Y-125980000D01*
X89020000Y-125480000D01*
X89020602Y-125480000D01*
X89020602Y-125455466D01*
X89025412Y-125406635D01*
X89034984Y-125358510D01*
X89049228Y-125311555D01*
X89068005Y-125266222D01*
X89091136Y-125222949D01*
X89118396Y-125182150D01*
X89149524Y-125144221D01*
X89184221Y-125109524D01*
X89222150Y-125078396D01*
X89262949Y-125051136D01*
X89306222Y-125028005D01*
X89351555Y-125009228D01*
X89398510Y-124994984D01*
X89446635Y-124985412D01*
X89495466Y-124980602D01*
X89520000Y-124980602D01*
X89520000Y-124980000D01*
X90020000Y-124980000D01*
X90020000Y-126480000D01*
X89520000Y-126480000D01*
X89520000Y-126479398D01*
X89520000Y-126479398D01*
G37*
D17*
X90820000Y-125730000D03*
D18*
G36*
X90320000Y-124980000D02*
G01*
X90820000Y-124980000D01*
X90820000Y-124980602D01*
X90844534Y-124980602D01*
X90893365Y-124985412D01*
X90941490Y-124994984D01*
X90988445Y-125009228D01*
X91033778Y-125028005D01*
X91077051Y-125051136D01*
X91117850Y-125078396D01*
X91155779Y-125109524D01*
X91190476Y-125144221D01*
X91221604Y-125182150D01*
X91248864Y-125222949D01*
X91271995Y-125266222D01*
X91290772Y-125311555D01*
X91305016Y-125358510D01*
X91314588Y-125406635D01*
X91319398Y-125455466D01*
X91319398Y-125480000D01*
X91320000Y-125480000D01*
X91320000Y-125980000D01*
X91319398Y-125980000D01*
X91319398Y-126004534D01*
X91314588Y-126053365D01*
X91305016Y-126101490D01*
X91290772Y-126148445D01*
X91271995Y-126193778D01*
X91248864Y-126237051D01*
X91221604Y-126277850D01*
X91190476Y-126315779D01*
X91155779Y-126350476D01*
X91117850Y-126381604D01*
X91077051Y-126408864D01*
X91033778Y-126431995D01*
X90988445Y-126450772D01*
X90941490Y-126465016D01*
X90893365Y-126474588D01*
X90844534Y-126479398D01*
X90820000Y-126479398D01*
X90820000Y-126480000D01*
X90320000Y-126480000D01*
X90320000Y-124980000D01*
X90320000Y-124980000D01*
G37*
D19*
X130048000Y-127254000D03*
X132588000Y-129794000D03*
X130048000Y-132334000D03*
X130175000Y-144526000D03*
X132715000Y-141986000D03*
X130175000Y-139446000D03*
D20*
X108204000Y-123444000D03*
X108204000Y-148844000D03*
X108204000Y-143764000D03*
X108204000Y-128524000D03*
D21*
X119380000Y-133604000D03*
X127000000Y-125984000D03*
X119380000Y-131064000D03*
X127000000Y-128524000D03*
X119380000Y-128524000D03*
X127000000Y-131064000D03*
X119380000Y-125984000D03*
D22*
X127000000Y-133604000D03*
X127000000Y-145796000D03*
D21*
X119380000Y-138176000D03*
X127000000Y-143256000D03*
X119380000Y-140716000D03*
X127000000Y-140716000D03*
X119380000Y-143256000D03*
X127000000Y-138176000D03*
X119380000Y-145796000D03*
X98806000Y-139700000D03*
X106426000Y-132080000D03*
X98806000Y-137160000D03*
X106426000Y-134620000D03*
X98806000Y-134620000D03*
X106426000Y-137160000D03*
X98806000Y-132080000D03*
D22*
X106426000Y-139700000D03*
D23*
X180912000Y-123190000D03*
X178372000Y-123190000D03*
X180912000Y-125730000D03*
X178372000Y-125730000D03*
X180912000Y-128270000D03*
X178372000Y-128270000D03*
X180912000Y-130810000D03*
X178372000Y-130810000D03*
X180912000Y-133350000D03*
X178372000Y-133350000D03*
X180912000Y-135890000D03*
X178372000Y-135890000D03*
X180912000Y-138430000D03*
X178372000Y-138430000D03*
X180912000Y-140970000D03*
X178372000Y-140970000D03*
X180912000Y-143510000D03*
X178372000Y-143510000D03*
X180912000Y-146050000D03*
X178372000Y-146050000D03*
X180912000Y-148590000D03*
X178372000Y-148590000D03*
D24*
X85090000Y-130810000D03*
D25*
X132588000Y-129794000D02*
X130048000Y-132334000D01*
X123190000Y-132334000D02*
X119380000Y-128524000D01*
X130048000Y-132334000D02*
X123190000Y-132334000D01*
X118618000Y-128524000D02*
X119380000Y-128524000D01*
X115570000Y-125476000D02*
X118618000Y-128524000D01*
X114438630Y-125476000D02*
X110744000Y-129170630D01*
X115570000Y-125476000D02*
X114438630Y-125476000D01*
X110744000Y-129170630D02*
X110744000Y-136144000D01*
X109728000Y-137160000D02*
X106426000Y-137160000D01*
X110744000Y-136144000D02*
X109728000Y-137160000D01*
X108204000Y-138938000D02*
X106426000Y-137160000D01*
X108204000Y-143764000D02*
X108204000Y-138938000D01*
X132715000Y-141986000D02*
X130175000Y-144526000D01*
X123190000Y-144526000D02*
X119380000Y-140716000D01*
X130175000Y-144526000D02*
X123190000Y-144526000D01*
X118364000Y-139700000D02*
X119380000Y-140716000D01*
X115443000Y-139700000D02*
X118364000Y-139700000D01*
X108204000Y-132842000D02*
X106426000Y-134620000D01*
X108204000Y-128524000D02*
X108204000Y-132842000D01*
X130048000Y-128016000D02*
X130048000Y-127254000D01*
X127000000Y-131064000D02*
X130048000Y-128016000D01*
X166370000Y-125730000D02*
X166370000Y-130810000D01*
X166370000Y-130810000D02*
X165100000Y-132080000D01*
X165100000Y-132080000D02*
X137160000Y-132080000D01*
X132334000Y-127254000D02*
X130048000Y-127254000D01*
X137160000Y-132080000D02*
X132334000Y-127254000D01*
X130175000Y-140081000D02*
X130175000Y-139446000D01*
X127000000Y-143256000D02*
X130175000Y-140081000D01*
X131193233Y-139446000D02*
X130175000Y-139446000D01*
X161245594Y-139446000D02*
X131193233Y-139446000D01*
X166370000Y-144570406D02*
X161245594Y-139446000D01*
X166370000Y-146050000D02*
X166370000Y-144570406D01*
D26*
X88995226Y-126254774D02*
X89520000Y-125730000D01*
X88441399Y-126808601D02*
X88995226Y-126254774D01*
X81725399Y-126808601D02*
X88441399Y-126808601D01*
X80264000Y-128270000D02*
X81725399Y-126808601D01*
X88995226Y-128794774D02*
X89520000Y-128270000D01*
X88441399Y-129348601D02*
X88995226Y-128794774D01*
X81725399Y-129348601D02*
X88441399Y-129348601D01*
X80264000Y-130810000D02*
X81725399Y-129348601D01*
X88995226Y-131334774D02*
X89520000Y-130810000D01*
X88441399Y-131888601D02*
X88995226Y-131334774D01*
X81725399Y-131888601D02*
X88441399Y-131888601D01*
X80264000Y-133350000D02*
X81725399Y-131888601D01*
X85090000Y-130810000D02*
X84074000Y-131826000D01*
X88995226Y-133874774D02*
X89520000Y-133350000D01*
X88441399Y-134428601D02*
X88995226Y-133874774D01*
X81725399Y-134428601D02*
X88441399Y-134428601D01*
X80264000Y-135890000D02*
X81725399Y-134428601D01*
X88995226Y-136414774D02*
X89520000Y-135890000D01*
X88441399Y-136968601D02*
X88995226Y-136414774D01*
X81725399Y-136968601D02*
X88441399Y-136968601D01*
X80264000Y-138430000D02*
X81725399Y-136968601D01*
X88995226Y-138954774D02*
X89520000Y-138430000D01*
X88441399Y-139508601D02*
X88995226Y-138954774D01*
X82669069Y-139508601D02*
X88441399Y-139508601D01*
X81207670Y-140970000D02*
X82669069Y-139508601D01*
X80264000Y-140970000D02*
X81207670Y-140970000D01*
X88995226Y-141494774D02*
X89520000Y-140970000D01*
X88441399Y-142048601D02*
X88995226Y-141494774D01*
X81725399Y-142048601D02*
X88441399Y-142048601D01*
X80264000Y-143510000D02*
X81725399Y-142048601D01*
X88995226Y-144034774D02*
X89520000Y-143510000D01*
X88058601Y-144971399D02*
X88995226Y-144034774D01*
X81342601Y-144971399D02*
X88058601Y-144971399D01*
X80264000Y-146050000D02*
X81342601Y-144971399D01*
X88995226Y-146574774D02*
X89520000Y-146050000D01*
X88441399Y-147128601D02*
X88995226Y-146574774D01*
X81725399Y-147128601D02*
X88441399Y-147128601D01*
X80264000Y-148590000D02*
X81725399Y-147128601D01*
D25*
X90820000Y-146050000D02*
X90820000Y-143510000D01*
X90820000Y-143510000D02*
X90820000Y-140970000D01*
X90820000Y-140970000D02*
X90820000Y-138430000D01*
X90820000Y-138430000D02*
X90820000Y-135890000D01*
X90820000Y-135890000D02*
X90820000Y-133350000D01*
X90820000Y-133350000D02*
X90820000Y-130810000D01*
X90820000Y-130810000D02*
X90820000Y-128270000D01*
X90820000Y-128270000D02*
X90820000Y-125730000D01*
X91420000Y-138430000D02*
X90820000Y-138430000D01*
X99171106Y-138430000D02*
X91420000Y-138430000D01*
X100441106Y-139700000D02*
X99171106Y-138430000D01*
X106426000Y-139700000D02*
X100441106Y-139700000D01*
M02*
