G04 #@! TF.GenerationSoftware,KiCad,Pcbnew,(5.1.12)-1*
G04 #@! TF.CreationDate,2022-02-08T15:15:27-06:00*
G04 #@! TF.ProjectId,optical_digitizer,6f707469-6361-46c5-9f64-69676974697a,4.2*
G04 #@! TF.SameCoordinates,Original*
G04 #@! TF.FileFunction,Copper,L3,Inr*
G04 #@! TF.FilePolarity,Positive*
%FSLAX46Y46*%
G04 Gerber Fmt 4.6, Leading zero omitted, Abs format (unit mm)*
G04 Created by KiCad (PCBNEW (5.1.12)-1) date 2022-02-08 15:15:27*
%MOMM*%
%LPD*%
G01*
G04 APERTURE LIST*
G04 #@! TA.AperFunction,ComponentPad*
%ADD10C,1.640000*%
G04 #@! TD*
G04 #@! TA.AperFunction,ComponentPad*
%ADD11O,1.200000X1.200000*%
G04 #@! TD*
G04 #@! TA.AperFunction,ComponentPad*
%ADD12O,1.200000X1.600000*%
G04 #@! TD*
G04 #@! TA.AperFunction,ComponentPad*
%ADD13C,2.100000*%
G04 #@! TD*
G04 #@! TA.AperFunction,ComponentPad*
%ADD14O,1.700000X1.700000*%
G04 #@! TD*
G04 #@! TA.AperFunction,ComponentPad*
%ADD15R,1.700000X1.700000*%
G04 #@! TD*
G04 #@! TA.AperFunction,ComponentPad*
%ADD16C,2.600000*%
G04 #@! TD*
G04 #@! TA.AperFunction,ViaPad*
%ADD17C,0.508000*%
G04 #@! TD*
G04 #@! TA.AperFunction,Conductor*
%ADD18C,0.304800*%
G04 #@! TD*
G04 #@! TA.AperFunction,Conductor*
%ADD19C,0.254000*%
G04 #@! TD*
G04 #@! TA.AperFunction,Conductor*
%ADD20C,0.100000*%
G04 #@! TD*
G04 APERTURE END LIST*
D10*
X142367500Y-123190000D03*
X139827500Y-123190000D03*
X142367500Y-125730000D03*
X139827500Y-125730000D03*
X142367500Y-128270000D03*
X139827500Y-128270000D03*
X142367500Y-130810000D03*
X139827500Y-130810000D03*
X142367500Y-133350000D03*
X139827500Y-133350000D03*
X142367500Y-135890000D03*
X139827500Y-135890000D03*
X142367500Y-138430000D03*
X139827500Y-138430000D03*
X142367500Y-140970000D03*
X139827500Y-140970000D03*
X142367500Y-143510000D03*
X139827500Y-143510000D03*
X142367500Y-146050000D03*
X139827500Y-146050000D03*
X142367500Y-148590000D03*
X139827500Y-148590000D03*
D11*
X127000000Y-127000000D03*
X128270000Y-125730000D03*
D12*
X127000000Y-124460000D03*
D13*
X116840000Y-121920000D03*
X116840000Y-129540000D03*
X116840000Y-149860000D03*
X116840000Y-142240000D03*
D12*
X127000000Y-144780000D03*
D11*
X128270000Y-146050000D03*
X127000000Y-147320000D03*
D14*
X80264000Y-123190000D03*
X82804000Y-123190000D03*
X80264000Y-125730000D03*
X82804000Y-125730000D03*
X80264000Y-128270000D03*
X82804000Y-128270000D03*
X80264000Y-130810000D03*
X82804000Y-130810000D03*
X80264000Y-133350000D03*
X82804000Y-133350000D03*
X80264000Y-135890000D03*
X82804000Y-135890000D03*
X80264000Y-138430000D03*
X82804000Y-138430000D03*
X80264000Y-140970000D03*
X82804000Y-140970000D03*
X80264000Y-143510000D03*
X82804000Y-143510000D03*
X80264000Y-146050000D03*
X82804000Y-146050000D03*
X80264000Y-148590000D03*
D15*
X82804000Y-148590000D03*
D16*
X109474000Y-150368000D03*
X104648000Y-150368000D03*
X109220000Y-130556000D03*
X109220000Y-140970000D03*
D17*
X125476000Y-139446000D03*
X105918000Y-139446000D03*
X104648000Y-141986000D03*
X98806000Y-138430000D03*
X98552000Y-131572000D03*
X105918000Y-135636000D03*
X125476000Y-135382000D03*
X117856000Y-131826000D03*
X107950000Y-126492000D03*
X107950000Y-124968000D03*
X119867000Y-141224000D03*
X93218000Y-139192000D03*
X92964000Y-131826000D03*
X121391000Y-140208000D03*
X94234000Y-138938000D03*
X87376000Y-130810000D03*
X127000000Y-131318000D03*
D18*
X91186000Y-135890000D02*
X94234000Y-138938000D01*
X82804000Y-135890000D02*
X91186000Y-135890000D01*
D19*
X151752301Y-151752300D02*
X110627936Y-151752300D01*
X110643619Y-151717224D01*
X109474000Y-150547605D01*
X108304381Y-151717224D01*
X108320064Y-151752300D01*
X106000204Y-151752300D01*
X106151013Y-151601491D01*
X106362775Y-151284566D01*
X106508639Y-150932419D01*
X106583000Y-150558581D01*
X106583000Y-150418729D01*
X107530299Y-150418729D01*
X107577543Y-150796951D01*
X107697667Y-151158690D01*
X107829688Y-151405683D01*
X108124776Y-151537619D01*
X109294395Y-150368000D01*
X109653605Y-150368000D01*
X110823224Y-151537619D01*
X111118312Y-151405683D01*
X111289159Y-151064955D01*
X111390250Y-150697443D01*
X111417701Y-150317271D01*
X111370457Y-149939049D01*
X111289097Y-149694042D01*
X115155000Y-149694042D01*
X115155000Y-150025958D01*
X115219754Y-150351496D01*
X115346772Y-150658147D01*
X115531175Y-150934125D01*
X115765875Y-151168825D01*
X116041853Y-151353228D01*
X116348504Y-151480246D01*
X116674042Y-151545000D01*
X117005958Y-151545000D01*
X117331496Y-151480246D01*
X117638147Y-151353228D01*
X117914125Y-151168825D01*
X118148825Y-150934125D01*
X118333228Y-150658147D01*
X118460246Y-150351496D01*
X118525000Y-150025958D01*
X118525000Y-149694042D01*
X118460246Y-149368504D01*
X118333228Y-149061853D01*
X118148825Y-148785875D01*
X117914125Y-148551175D01*
X117638147Y-148366772D01*
X117331496Y-148239754D01*
X117005958Y-148175000D01*
X116674042Y-148175000D01*
X116348504Y-148239754D01*
X116041853Y-148366772D01*
X115765875Y-148551175D01*
X115531175Y-148785875D01*
X115346772Y-149061853D01*
X115219754Y-149368504D01*
X115155000Y-149694042D01*
X111289097Y-149694042D01*
X111250333Y-149577310D01*
X111118312Y-149330317D01*
X110823224Y-149198381D01*
X109653605Y-150368000D01*
X109294395Y-150368000D01*
X108124776Y-149198381D01*
X107829688Y-149330317D01*
X107658841Y-149671045D01*
X107557750Y-150038557D01*
X107530299Y-150418729D01*
X106583000Y-150418729D01*
X106583000Y-150177419D01*
X106508639Y-149803581D01*
X106362775Y-149451434D01*
X106151013Y-149134509D01*
X106035280Y-149018776D01*
X108304381Y-149018776D01*
X109474000Y-150188395D01*
X110643619Y-149018776D01*
X110511683Y-148723688D01*
X110170955Y-148552841D01*
X109803443Y-148451750D01*
X109423271Y-148424299D01*
X109045049Y-148471543D01*
X108683310Y-148591667D01*
X108436317Y-148723688D01*
X108304381Y-149018776D01*
X106035280Y-149018776D01*
X105881491Y-148864987D01*
X105564566Y-148653225D01*
X105212419Y-148507361D01*
X104838581Y-148433000D01*
X104457419Y-148433000D01*
X104083581Y-148507361D01*
X103731434Y-148653225D01*
X103414509Y-148864987D01*
X103144987Y-149134509D01*
X102933225Y-149451434D01*
X102787361Y-149803581D01*
X102713000Y-150177419D01*
X102713000Y-150558581D01*
X102787361Y-150932419D01*
X102933225Y-151284566D01*
X103144987Y-151601491D01*
X103295796Y-151752300D01*
X76847700Y-151752300D01*
X76847700Y-123043740D01*
X78779000Y-123043740D01*
X78779000Y-123336260D01*
X78836068Y-123623158D01*
X78948010Y-123893411D01*
X79110525Y-124136632D01*
X79317368Y-124343475D01*
X79491760Y-124460000D01*
X79317368Y-124576525D01*
X79110525Y-124783368D01*
X78948010Y-125026589D01*
X78836068Y-125296842D01*
X78779000Y-125583740D01*
X78779000Y-125876260D01*
X78836068Y-126163158D01*
X78948010Y-126433411D01*
X79110525Y-126676632D01*
X79317368Y-126883475D01*
X79491760Y-127000000D01*
X79317368Y-127116525D01*
X79110525Y-127323368D01*
X78948010Y-127566589D01*
X78836068Y-127836842D01*
X78779000Y-128123740D01*
X78779000Y-128416260D01*
X78836068Y-128703158D01*
X78948010Y-128973411D01*
X79110525Y-129216632D01*
X79317368Y-129423475D01*
X79491760Y-129540000D01*
X79317368Y-129656525D01*
X79110525Y-129863368D01*
X78948010Y-130106589D01*
X78836068Y-130376842D01*
X78779000Y-130663740D01*
X78779000Y-130956260D01*
X78836068Y-131243158D01*
X78948010Y-131513411D01*
X79110525Y-131756632D01*
X79317368Y-131963475D01*
X79491760Y-132080000D01*
X79317368Y-132196525D01*
X79110525Y-132403368D01*
X78948010Y-132646589D01*
X78836068Y-132916842D01*
X78779000Y-133203740D01*
X78779000Y-133496260D01*
X78836068Y-133783158D01*
X78948010Y-134053411D01*
X79110525Y-134296632D01*
X79317368Y-134503475D01*
X79491760Y-134620000D01*
X79317368Y-134736525D01*
X79110525Y-134943368D01*
X78948010Y-135186589D01*
X78836068Y-135456842D01*
X78779000Y-135743740D01*
X78779000Y-136036260D01*
X78836068Y-136323158D01*
X78948010Y-136593411D01*
X79110525Y-136836632D01*
X79317368Y-137043475D01*
X79491760Y-137160000D01*
X79317368Y-137276525D01*
X79110525Y-137483368D01*
X78948010Y-137726589D01*
X78836068Y-137996842D01*
X78779000Y-138283740D01*
X78779000Y-138576260D01*
X78836068Y-138863158D01*
X78948010Y-139133411D01*
X79110525Y-139376632D01*
X79317368Y-139583475D01*
X79491760Y-139700000D01*
X79317368Y-139816525D01*
X79110525Y-140023368D01*
X78948010Y-140266589D01*
X78836068Y-140536842D01*
X78779000Y-140823740D01*
X78779000Y-141116260D01*
X78836068Y-141403158D01*
X78948010Y-141673411D01*
X79110525Y-141916632D01*
X79317368Y-142123475D01*
X79491760Y-142240000D01*
X79317368Y-142356525D01*
X79110525Y-142563368D01*
X78948010Y-142806589D01*
X78836068Y-143076842D01*
X78779000Y-143363740D01*
X78779000Y-143656260D01*
X78836068Y-143943158D01*
X78948010Y-144213411D01*
X79110525Y-144456632D01*
X79317368Y-144663475D01*
X79491760Y-144780000D01*
X79317368Y-144896525D01*
X79110525Y-145103368D01*
X78948010Y-145346589D01*
X78836068Y-145616842D01*
X78779000Y-145903740D01*
X78779000Y-146196260D01*
X78836068Y-146483158D01*
X78948010Y-146753411D01*
X79110525Y-146996632D01*
X79317368Y-147203475D01*
X79491760Y-147320000D01*
X79317368Y-147436525D01*
X79110525Y-147643368D01*
X78948010Y-147886589D01*
X78836068Y-148156842D01*
X78779000Y-148443740D01*
X78779000Y-148736260D01*
X78836068Y-149023158D01*
X78948010Y-149293411D01*
X79110525Y-149536632D01*
X79317368Y-149743475D01*
X79560589Y-149905990D01*
X79830842Y-150017932D01*
X80117740Y-150075000D01*
X80410260Y-150075000D01*
X80697158Y-150017932D01*
X80967411Y-149905990D01*
X81210632Y-149743475D01*
X81342487Y-149611620D01*
X81364498Y-149684180D01*
X81423463Y-149794494D01*
X81502815Y-149891185D01*
X81599506Y-149970537D01*
X81709820Y-150029502D01*
X81829518Y-150065812D01*
X81954000Y-150078072D01*
X83654000Y-150078072D01*
X83778482Y-150065812D01*
X83898180Y-150029502D01*
X84008494Y-149970537D01*
X84105185Y-149891185D01*
X84184537Y-149794494D01*
X84243502Y-149684180D01*
X84279812Y-149564482D01*
X84292072Y-149440000D01*
X84292072Y-148369872D01*
X93015000Y-148369872D01*
X93015000Y-148810128D01*
X93100890Y-149241925D01*
X93269369Y-149648669D01*
X93513962Y-150014729D01*
X93825271Y-150326038D01*
X94191331Y-150570631D01*
X94598075Y-150739110D01*
X95029872Y-150825000D01*
X95470128Y-150825000D01*
X95901925Y-150739110D01*
X96308669Y-150570631D01*
X96674729Y-150326038D01*
X96986038Y-150014729D01*
X97230631Y-149648669D01*
X97399110Y-149241925D01*
X97485000Y-148810128D01*
X97485000Y-148369872D01*
X97399110Y-147938075D01*
X97230631Y-147531331D01*
X96986038Y-147165271D01*
X96674729Y-146853962D01*
X96308669Y-146609369D01*
X95901925Y-146440890D01*
X95470128Y-146355000D01*
X95029872Y-146355000D01*
X94598075Y-146440890D01*
X94191331Y-146609369D01*
X93825271Y-146853962D01*
X93513962Y-147165271D01*
X93269369Y-147531331D01*
X93100890Y-147938075D01*
X93015000Y-148369872D01*
X84292072Y-148369872D01*
X84292072Y-147740000D01*
X84279812Y-147615518D01*
X84243502Y-147495820D01*
X84184537Y-147385506D01*
X84105185Y-147288815D01*
X84008494Y-147209463D01*
X83898180Y-147150498D01*
X83825620Y-147128487D01*
X83957475Y-146996632D01*
X84119990Y-146753411D01*
X84231932Y-146483158D01*
X84289000Y-146196260D01*
X84289000Y-145903740D01*
X84231932Y-145616842D01*
X84119990Y-145346589D01*
X83957475Y-145103368D01*
X83750632Y-144896525D01*
X83576240Y-144780000D01*
X83750632Y-144663475D01*
X83894772Y-144519335D01*
X125765000Y-144519335D01*
X125765000Y-145040664D01*
X125782870Y-145222101D01*
X125853489Y-145454900D01*
X125968167Y-145669448D01*
X126122498Y-145857502D01*
X126310551Y-146011833D01*
X126525099Y-146126511D01*
X126599580Y-146149105D01*
X126415008Y-146225557D01*
X126212733Y-146360713D01*
X126040713Y-146532733D01*
X125905557Y-146735008D01*
X125812460Y-146959764D01*
X125765000Y-147198363D01*
X125765000Y-147441637D01*
X125812460Y-147680236D01*
X125905557Y-147904992D01*
X126040713Y-148107267D01*
X126212733Y-148279287D01*
X126415008Y-148414443D01*
X126639764Y-148507540D01*
X126878363Y-148555000D01*
X127121637Y-148555000D01*
X127360236Y-148507540D01*
X127584992Y-148414443D01*
X127651697Y-148369872D01*
X131115000Y-148369872D01*
X131115000Y-148810128D01*
X131200890Y-149241925D01*
X131369369Y-149648669D01*
X131613962Y-150014729D01*
X131925271Y-150326038D01*
X132291331Y-150570631D01*
X132698075Y-150739110D01*
X133129872Y-150825000D01*
X133570128Y-150825000D01*
X134001925Y-150739110D01*
X134408669Y-150570631D01*
X134774729Y-150326038D01*
X135086038Y-150014729D01*
X135330631Y-149648669D01*
X135499110Y-149241925D01*
X135585000Y-148810128D01*
X135585000Y-148369872D01*
X135499110Y-147938075D01*
X135330631Y-147531331D01*
X135086038Y-147165271D01*
X134774729Y-146853962D01*
X134408669Y-146609369D01*
X134001925Y-146440890D01*
X133570128Y-146355000D01*
X133129872Y-146355000D01*
X132698075Y-146440890D01*
X132291331Y-146609369D01*
X131925271Y-146853962D01*
X131613962Y-147165271D01*
X131369369Y-147531331D01*
X131200890Y-147938075D01*
X131115000Y-148369872D01*
X127651697Y-148369872D01*
X127787267Y-148279287D01*
X127959287Y-148107267D01*
X128094443Y-147904992D01*
X128187540Y-147680236D01*
X128235000Y-147441637D01*
X128235000Y-147285000D01*
X128391637Y-147285000D01*
X128630236Y-147237540D01*
X128854992Y-147144443D01*
X129057267Y-147009287D01*
X129229287Y-146837267D01*
X129364443Y-146634992D01*
X129457540Y-146410236D01*
X129505000Y-146171637D01*
X129505000Y-145928363D01*
X129457540Y-145689764D01*
X129364443Y-145465008D01*
X129229287Y-145262733D01*
X129057267Y-145090713D01*
X128854992Y-144955557D01*
X128630236Y-144862460D01*
X128391637Y-144815000D01*
X128235000Y-144815000D01*
X128235000Y-144519336D01*
X128217130Y-144337899D01*
X128146511Y-144105100D01*
X128031833Y-143890551D01*
X127877502Y-143702498D01*
X127689449Y-143548167D01*
X127474901Y-143433489D01*
X127242102Y-143362870D01*
X127000000Y-143339025D01*
X126757899Y-143362870D01*
X126525100Y-143433489D01*
X126310552Y-143548167D01*
X126122499Y-143702498D01*
X125968168Y-143890551D01*
X125853489Y-144105099D01*
X125782870Y-144337898D01*
X125765000Y-144519335D01*
X83894772Y-144519335D01*
X83957475Y-144456632D01*
X84119990Y-144213411D01*
X84231932Y-143943158D01*
X84289000Y-143656260D01*
X84289000Y-143363740D01*
X84231932Y-143076842D01*
X84119990Y-142806589D01*
X83957475Y-142563368D01*
X83750632Y-142356525D01*
X83568466Y-142234805D01*
X83685355Y-142165178D01*
X83901588Y-141970269D01*
X83955163Y-141898441D01*
X103759000Y-141898441D01*
X103759000Y-142073559D01*
X103793164Y-142245312D01*
X103860179Y-142407099D01*
X103957469Y-142552704D01*
X104081296Y-142676531D01*
X104226901Y-142773821D01*
X104388688Y-142840836D01*
X104560441Y-142875000D01*
X104735559Y-142875000D01*
X104907312Y-142840836D01*
X105069099Y-142773821D01*
X105214704Y-142676531D01*
X105338531Y-142552704D01*
X105435821Y-142407099D01*
X105502836Y-142245312D01*
X105537000Y-142073559D01*
X105537000Y-141898441D01*
X105502836Y-141726688D01*
X105435821Y-141564901D01*
X105338531Y-141419296D01*
X105214704Y-141295469D01*
X105069099Y-141198179D01*
X104907312Y-141131164D01*
X104735559Y-141097000D01*
X104560441Y-141097000D01*
X104388688Y-141131164D01*
X104226901Y-141198179D01*
X104081296Y-141295469D01*
X103957469Y-141419296D01*
X103860179Y-141564901D01*
X103793164Y-141726688D01*
X103759000Y-141898441D01*
X83955163Y-141898441D01*
X84075641Y-141736920D01*
X84200825Y-141474099D01*
X84245476Y-141326890D01*
X84124155Y-141097000D01*
X82931000Y-141097000D01*
X82931000Y-141117000D01*
X82677000Y-141117000D01*
X82677000Y-141097000D01*
X82657000Y-141097000D01*
X82657000Y-140843000D01*
X82677000Y-140843000D01*
X82677000Y-140823000D01*
X82931000Y-140823000D01*
X82931000Y-140843000D01*
X84124155Y-140843000D01*
X84157708Y-140779419D01*
X107285000Y-140779419D01*
X107285000Y-141160581D01*
X107359361Y-141534419D01*
X107505225Y-141886566D01*
X107716987Y-142203491D01*
X107986509Y-142473013D01*
X108303434Y-142684775D01*
X108655581Y-142830639D01*
X109029419Y-142905000D01*
X109410581Y-142905000D01*
X109784419Y-142830639D01*
X110136566Y-142684775D01*
X110453491Y-142473013D01*
X110723013Y-142203491D01*
X110809507Y-142074042D01*
X115155000Y-142074042D01*
X115155000Y-142405958D01*
X115219754Y-142731496D01*
X115346772Y-143038147D01*
X115531175Y-143314125D01*
X115765875Y-143548825D01*
X116041853Y-143733228D01*
X116348504Y-143860246D01*
X116674042Y-143925000D01*
X117005958Y-143925000D01*
X117331496Y-143860246D01*
X117638147Y-143733228D01*
X117914125Y-143548825D01*
X118148825Y-143314125D01*
X118333228Y-143038147D01*
X118460246Y-142731496D01*
X118525000Y-142405958D01*
X118525000Y-142074042D01*
X118460246Y-141748504D01*
X118333228Y-141441853D01*
X118148825Y-141165875D01*
X118119391Y-141136441D01*
X118978000Y-141136441D01*
X118978000Y-141311559D01*
X119012164Y-141483312D01*
X119079179Y-141645099D01*
X119176469Y-141790704D01*
X119300296Y-141914531D01*
X119445901Y-142011821D01*
X119607688Y-142078836D01*
X119779441Y-142113000D01*
X119954559Y-142113000D01*
X120126312Y-142078836D01*
X120288099Y-142011821D01*
X120433704Y-141914531D01*
X120557531Y-141790704D01*
X120654821Y-141645099D01*
X120721836Y-141483312D01*
X120756000Y-141311559D01*
X120756000Y-141136441D01*
X120721836Y-140964688D01*
X120654821Y-140802901D01*
X120557531Y-140657296D01*
X120433704Y-140533469D01*
X120288099Y-140436179D01*
X120126312Y-140369164D01*
X119954559Y-140335000D01*
X119779441Y-140335000D01*
X119607688Y-140369164D01*
X119445901Y-140436179D01*
X119300296Y-140533469D01*
X119176469Y-140657296D01*
X119079179Y-140802901D01*
X119012164Y-140964688D01*
X118978000Y-141136441D01*
X118119391Y-141136441D01*
X117914125Y-140931175D01*
X117638147Y-140746772D01*
X117331496Y-140619754D01*
X117005958Y-140555000D01*
X116674042Y-140555000D01*
X116348504Y-140619754D01*
X116041853Y-140746772D01*
X115765875Y-140931175D01*
X115531175Y-141165875D01*
X115346772Y-141441853D01*
X115219754Y-141748504D01*
X115155000Y-142074042D01*
X110809507Y-142074042D01*
X110934775Y-141886566D01*
X111080639Y-141534419D01*
X111155000Y-141160581D01*
X111155000Y-140779419D01*
X111080639Y-140405581D01*
X110962531Y-140120441D01*
X120502000Y-140120441D01*
X120502000Y-140295559D01*
X120536164Y-140467312D01*
X120603179Y-140629099D01*
X120700469Y-140774704D01*
X120824296Y-140898531D01*
X120969901Y-140995821D01*
X121131688Y-141062836D01*
X121303441Y-141097000D01*
X121478559Y-141097000D01*
X121650312Y-141062836D01*
X121706120Y-141039719D01*
X138367124Y-141039719D01*
X138408786Y-141323285D01*
X138504968Y-141593275D01*
X138574507Y-141723373D01*
X138820518Y-141797376D01*
X139647895Y-140970000D01*
X138820518Y-140142624D01*
X138574507Y-140216627D01*
X138451607Y-140475550D01*
X138381583Y-140753474D01*
X138367124Y-141039719D01*
X121706120Y-141039719D01*
X121812099Y-140995821D01*
X121957704Y-140898531D01*
X122081531Y-140774704D01*
X122178821Y-140629099D01*
X122245836Y-140467312D01*
X122280000Y-140295559D01*
X122280000Y-140120441D01*
X122245836Y-139948688D01*
X122178821Y-139786901D01*
X122081531Y-139641296D01*
X121957704Y-139517469D01*
X121812099Y-139420179D01*
X121650312Y-139353164D01*
X121478559Y-139319000D01*
X121303441Y-139319000D01*
X121131688Y-139353164D01*
X120969901Y-139420179D01*
X120824296Y-139517469D01*
X120700469Y-139641296D01*
X120603179Y-139786901D01*
X120536164Y-139948688D01*
X120502000Y-140120441D01*
X110962531Y-140120441D01*
X110934775Y-140053434D01*
X110723013Y-139736509D01*
X110453491Y-139466987D01*
X110136566Y-139255225D01*
X109784419Y-139109361D01*
X109410581Y-139035000D01*
X109029419Y-139035000D01*
X108655581Y-139109361D01*
X108303434Y-139255225D01*
X107986509Y-139466987D01*
X107716987Y-139736509D01*
X107505225Y-140053434D01*
X107359361Y-140405581D01*
X107285000Y-140779419D01*
X84157708Y-140779419D01*
X84245476Y-140613110D01*
X84200825Y-140465901D01*
X84075641Y-140203080D01*
X83901588Y-139969731D01*
X83685355Y-139774822D01*
X83568466Y-139705195D01*
X83750632Y-139583475D01*
X83957475Y-139376632D01*
X84119990Y-139133411D01*
X84231932Y-138863158D01*
X84289000Y-138576260D01*
X84289000Y-138283740D01*
X84231932Y-137996842D01*
X84119990Y-137726589D01*
X83957475Y-137483368D01*
X83750632Y-137276525D01*
X83576240Y-137160000D01*
X83750632Y-137043475D01*
X83957475Y-136836632D01*
X84063870Y-136677400D01*
X90859850Y-136677400D01*
X92670852Y-138488402D01*
X92651296Y-138501469D01*
X92527469Y-138625296D01*
X92430179Y-138770901D01*
X92363164Y-138932688D01*
X92329000Y-139104441D01*
X92329000Y-139279559D01*
X92363164Y-139451312D01*
X92430179Y-139613099D01*
X92527469Y-139758704D01*
X92651296Y-139882531D01*
X92796901Y-139979821D01*
X92958688Y-140046836D01*
X93130441Y-140081000D01*
X93305559Y-140081000D01*
X93477312Y-140046836D01*
X93639099Y-139979821D01*
X93784704Y-139882531D01*
X93903773Y-139763462D01*
X93974688Y-139792836D01*
X94146441Y-139827000D01*
X94321559Y-139827000D01*
X94493312Y-139792836D01*
X94655099Y-139725821D01*
X94800704Y-139628531D01*
X94924531Y-139504704D01*
X95021821Y-139359099D01*
X95088836Y-139197312D01*
X95123000Y-139025559D01*
X95123000Y-138850441D01*
X95088836Y-138678688D01*
X95021821Y-138516901D01*
X94924531Y-138371296D01*
X94895676Y-138342441D01*
X97917000Y-138342441D01*
X97917000Y-138517559D01*
X97951164Y-138689312D01*
X98018179Y-138851099D01*
X98115469Y-138996704D01*
X98239296Y-139120531D01*
X98384901Y-139217821D01*
X98546688Y-139284836D01*
X98718441Y-139319000D01*
X98893559Y-139319000D01*
X99065312Y-139284836D01*
X99227099Y-139217821D01*
X99372704Y-139120531D01*
X99496531Y-138996704D01*
X99593821Y-138851099D01*
X99660836Y-138689312D01*
X99695000Y-138517559D01*
X99695000Y-138342441D01*
X99660836Y-138170688D01*
X99593821Y-138008901D01*
X99496531Y-137863296D01*
X99372704Y-137739469D01*
X99227099Y-137642179D01*
X99065312Y-137575164D01*
X98893559Y-137541000D01*
X98718441Y-137541000D01*
X98546688Y-137575164D01*
X98384901Y-137642179D01*
X98239296Y-137739469D01*
X98115469Y-137863296D01*
X98018179Y-138008901D01*
X97951164Y-138170688D01*
X97917000Y-138342441D01*
X94895676Y-138342441D01*
X94800704Y-138247469D01*
X94655099Y-138150179D01*
X94493312Y-138083164D01*
X94492567Y-138083016D01*
X91957992Y-135548441D01*
X105029000Y-135548441D01*
X105029000Y-135723559D01*
X105063164Y-135895312D01*
X105130179Y-136057099D01*
X105227469Y-136202704D01*
X105351296Y-136326531D01*
X105496901Y-136423821D01*
X105658688Y-136490836D01*
X105830441Y-136525000D01*
X106005559Y-136525000D01*
X106177312Y-136490836D01*
X106339099Y-136423821D01*
X106484704Y-136326531D01*
X106608531Y-136202704D01*
X106705821Y-136057099D01*
X106772836Y-135895312D01*
X106807000Y-135723559D01*
X106807000Y-135548441D01*
X106772836Y-135376688D01*
X106738768Y-135294441D01*
X124587000Y-135294441D01*
X124587000Y-135469559D01*
X124621164Y-135641312D01*
X124688179Y-135803099D01*
X124785469Y-135948704D01*
X124909296Y-136072531D01*
X125054901Y-136169821D01*
X125216688Y-136236836D01*
X125388441Y-136271000D01*
X125563559Y-136271000D01*
X125735312Y-136236836D01*
X125897099Y-136169821D01*
X126042704Y-136072531D01*
X126166531Y-135948704D01*
X126263821Y-135803099D01*
X126330836Y-135641312D01*
X126365000Y-135469559D01*
X126365000Y-135294441D01*
X126330836Y-135122688D01*
X126263821Y-134960901D01*
X126166531Y-134815296D01*
X126042704Y-134691469D01*
X125897099Y-134594179D01*
X125735312Y-134527164D01*
X125563559Y-134493000D01*
X125388441Y-134493000D01*
X125216688Y-134527164D01*
X125054901Y-134594179D01*
X124909296Y-134691469D01*
X124785469Y-134815296D01*
X124688179Y-134960901D01*
X124621164Y-135122688D01*
X124587000Y-135294441D01*
X106738768Y-135294441D01*
X106705821Y-135214901D01*
X106608531Y-135069296D01*
X106484704Y-134945469D01*
X106339099Y-134848179D01*
X106177312Y-134781164D01*
X106005559Y-134747000D01*
X105830441Y-134747000D01*
X105658688Y-134781164D01*
X105496901Y-134848179D01*
X105351296Y-134945469D01*
X105227469Y-135069296D01*
X105130179Y-135214901D01*
X105063164Y-135376688D01*
X105029000Y-135548441D01*
X91957992Y-135548441D01*
X91770128Y-135360578D01*
X91745469Y-135330531D01*
X91625572Y-135232134D01*
X91488783Y-135159018D01*
X91340357Y-135113994D01*
X91224673Y-135102600D01*
X91224663Y-135102600D01*
X91186000Y-135098792D01*
X91147337Y-135102600D01*
X84063870Y-135102600D01*
X83957475Y-134943368D01*
X83750632Y-134736525D01*
X83576240Y-134620000D01*
X83750632Y-134503475D01*
X83957475Y-134296632D01*
X84119990Y-134053411D01*
X84231932Y-133783158D01*
X84260905Y-133637500D01*
X136420452Y-133637500D01*
X136420452Y-136457500D01*
X138487686Y-136457500D01*
X138538096Y-136579201D01*
X138697328Y-136817508D01*
X138899992Y-137020172D01*
X139109259Y-137160000D01*
X138899992Y-137299828D01*
X138697328Y-137502492D01*
X138538096Y-137740799D01*
X138428415Y-138005592D01*
X138372500Y-138286695D01*
X138372500Y-138573305D01*
X138428415Y-138854408D01*
X138538096Y-139119201D01*
X138697328Y-139357508D01*
X138899992Y-139560172D01*
X139107786Y-139699016D01*
X139074127Y-139717007D01*
X139000124Y-139963018D01*
X139827500Y-140790395D01*
X140654876Y-139963018D01*
X140580873Y-139717007D01*
X140545451Y-139700194D01*
X140755008Y-139560172D01*
X140957672Y-139357508D01*
X141097500Y-139148241D01*
X141237328Y-139357508D01*
X141439992Y-139560172D01*
X141649259Y-139700000D01*
X141439992Y-139839828D01*
X141237328Y-140042492D01*
X141098484Y-140250286D01*
X141080493Y-140216627D01*
X140834482Y-140142624D01*
X140007105Y-140970000D01*
X140834482Y-141797376D01*
X141080493Y-141723373D01*
X141097306Y-141687951D01*
X141237328Y-141897508D01*
X141439992Y-142100172D01*
X141649259Y-142240000D01*
X141439992Y-142379828D01*
X141237328Y-142582492D01*
X141097500Y-142791759D01*
X140957672Y-142582492D01*
X140755008Y-142379828D01*
X140547214Y-142240984D01*
X140580873Y-142222993D01*
X140654876Y-141976982D01*
X139827500Y-141149605D01*
X139000124Y-141976982D01*
X139074127Y-142222993D01*
X139109549Y-142239806D01*
X138899992Y-142379828D01*
X138697328Y-142582492D01*
X138538096Y-142820799D01*
X138428415Y-143085592D01*
X138372500Y-143366695D01*
X138372500Y-143653305D01*
X138428415Y-143934408D01*
X138538096Y-144199201D01*
X138697328Y-144437508D01*
X138899992Y-144640172D01*
X139109259Y-144780000D01*
X138899992Y-144919828D01*
X138697328Y-145122492D01*
X138538096Y-145360799D01*
X138428415Y-145625592D01*
X138372500Y-145906695D01*
X138372500Y-146193305D01*
X138428415Y-146474408D01*
X138538096Y-146739201D01*
X138697328Y-146977508D01*
X138899992Y-147180172D01*
X139109259Y-147320000D01*
X138899992Y-147459828D01*
X138697328Y-147662492D01*
X138538096Y-147900799D01*
X138428415Y-148165592D01*
X138372500Y-148446695D01*
X138372500Y-148733305D01*
X138428415Y-149014408D01*
X138538096Y-149279201D01*
X138697328Y-149517508D01*
X138899992Y-149720172D01*
X139138299Y-149879404D01*
X139403092Y-149989085D01*
X139684195Y-150045000D01*
X139970805Y-150045000D01*
X140251908Y-149989085D01*
X140516701Y-149879404D01*
X140755008Y-149720172D01*
X140957672Y-149517508D01*
X141097500Y-149308241D01*
X141237328Y-149517508D01*
X141439992Y-149720172D01*
X141678299Y-149879404D01*
X141943092Y-149989085D01*
X142224195Y-150045000D01*
X142510805Y-150045000D01*
X142791908Y-149989085D01*
X143056701Y-149879404D01*
X143295008Y-149720172D01*
X143497672Y-149517508D01*
X143656904Y-149279201D01*
X143766585Y-149014408D01*
X143822500Y-148733305D01*
X143822500Y-148446695D01*
X143766585Y-148165592D01*
X143656904Y-147900799D01*
X143497672Y-147662492D01*
X143295008Y-147459828D01*
X143085741Y-147320000D01*
X143295008Y-147180172D01*
X143497672Y-146977508D01*
X143656904Y-146739201D01*
X143766585Y-146474408D01*
X143822500Y-146193305D01*
X143822500Y-145906695D01*
X143766585Y-145625592D01*
X143656904Y-145360799D01*
X143497672Y-145122492D01*
X143295008Y-144919828D01*
X143085741Y-144780000D01*
X143295008Y-144640172D01*
X143497672Y-144437508D01*
X143656904Y-144199201D01*
X143766585Y-143934408D01*
X143822500Y-143653305D01*
X143822500Y-143366695D01*
X143766585Y-143085592D01*
X143656904Y-142820799D01*
X143497672Y-142582492D01*
X143295008Y-142379828D01*
X143085741Y-142240000D01*
X143295008Y-142100172D01*
X143497672Y-141897508D01*
X143656904Y-141659201D01*
X143766585Y-141394408D01*
X143822500Y-141113305D01*
X143822500Y-140826695D01*
X143766585Y-140545592D01*
X143656904Y-140280799D01*
X143497672Y-140042492D01*
X143295008Y-139839828D01*
X143085741Y-139700000D01*
X143295008Y-139560172D01*
X143497672Y-139357508D01*
X143656904Y-139119201D01*
X143766585Y-138854408D01*
X143822500Y-138573305D01*
X143822500Y-138286695D01*
X143766585Y-138005592D01*
X143656904Y-137740799D01*
X143497672Y-137502492D01*
X143295008Y-137299828D01*
X143085741Y-137160000D01*
X143295008Y-137020172D01*
X143497672Y-136817508D01*
X143656904Y-136579201D01*
X143766585Y-136314408D01*
X143822500Y-136033305D01*
X143822500Y-135746695D01*
X143766585Y-135465592D01*
X143656904Y-135200799D01*
X143497672Y-134962492D01*
X143295008Y-134759828D01*
X143085741Y-134620000D01*
X143295008Y-134480172D01*
X143497672Y-134277508D01*
X143656904Y-134039201D01*
X143766585Y-133774408D01*
X143822500Y-133493305D01*
X143822500Y-133206695D01*
X143766585Y-132925592D01*
X143656904Y-132660799D01*
X143497672Y-132422492D01*
X143295008Y-132219828D01*
X143085741Y-132080000D01*
X143295008Y-131940172D01*
X143497672Y-131737508D01*
X143656904Y-131499201D01*
X143766585Y-131234408D01*
X143822500Y-130953305D01*
X143822500Y-130666695D01*
X143766585Y-130385592D01*
X143656904Y-130120799D01*
X143497672Y-129882492D01*
X143295008Y-129679828D01*
X143085741Y-129540000D01*
X143295008Y-129400172D01*
X143497672Y-129197508D01*
X143656904Y-128959201D01*
X143766585Y-128694408D01*
X143822500Y-128413305D01*
X143822500Y-128126695D01*
X143766585Y-127845592D01*
X143656904Y-127580799D01*
X143497672Y-127342492D01*
X143295008Y-127139828D01*
X143085741Y-127000000D01*
X143295008Y-126860172D01*
X143497672Y-126657508D01*
X143656904Y-126419201D01*
X143766585Y-126154408D01*
X143822500Y-125873305D01*
X143822500Y-125586695D01*
X143766585Y-125305592D01*
X143656904Y-125040799D01*
X143497672Y-124802492D01*
X143295008Y-124599828D01*
X143085741Y-124460000D01*
X143295008Y-124320172D01*
X143497672Y-124117508D01*
X143656904Y-123879201D01*
X143766585Y-123614408D01*
X143822500Y-123333305D01*
X143822500Y-123046695D01*
X143766585Y-122765592D01*
X143656904Y-122500799D01*
X143497672Y-122262492D01*
X143295008Y-122059828D01*
X143056701Y-121900596D01*
X142791908Y-121790915D01*
X142510805Y-121735000D01*
X142224195Y-121735000D01*
X141943092Y-121790915D01*
X141678299Y-121900596D01*
X141439992Y-122059828D01*
X141237328Y-122262492D01*
X141097500Y-122471759D01*
X140957672Y-122262492D01*
X140755008Y-122059828D01*
X140516701Y-121900596D01*
X140251908Y-121790915D01*
X139970805Y-121735000D01*
X139684195Y-121735000D01*
X139403092Y-121790915D01*
X139138299Y-121900596D01*
X138899992Y-122059828D01*
X138697328Y-122262492D01*
X138538096Y-122500799D01*
X138428415Y-122765592D01*
X138372500Y-123046695D01*
X138372500Y-123333305D01*
X138428415Y-123614408D01*
X138538096Y-123879201D01*
X138697328Y-124117508D01*
X138899992Y-124320172D01*
X139109259Y-124460000D01*
X138899992Y-124599828D01*
X138697328Y-124802492D01*
X138538096Y-125040799D01*
X138428415Y-125305592D01*
X138372500Y-125586695D01*
X138372500Y-125873305D01*
X138428415Y-126154408D01*
X138538096Y-126419201D01*
X138697328Y-126657508D01*
X138899992Y-126860172D01*
X139109259Y-127000000D01*
X138899992Y-127139828D01*
X138697328Y-127342492D01*
X138538096Y-127580799D01*
X138428415Y-127845592D01*
X138372500Y-128126695D01*
X138372500Y-128413305D01*
X138428415Y-128694408D01*
X138538096Y-128959201D01*
X138697328Y-129197508D01*
X138899992Y-129400172D01*
X139109259Y-129540000D01*
X138899992Y-129679828D01*
X138697328Y-129882492D01*
X138538096Y-130120799D01*
X138428415Y-130385592D01*
X138372500Y-130666695D01*
X138372500Y-130953305D01*
X138428415Y-131234408D01*
X138538096Y-131499201D01*
X138697328Y-131737508D01*
X138899992Y-131940172D01*
X139109259Y-132080000D01*
X138899992Y-132219828D01*
X138697328Y-132422492D01*
X138538096Y-132660799D01*
X138428415Y-132925592D01*
X138372500Y-133206695D01*
X138372500Y-133493305D01*
X138401182Y-133637500D01*
X136420452Y-133637500D01*
X84260905Y-133637500D01*
X84289000Y-133496260D01*
X84289000Y-133203740D01*
X84231932Y-132916842D01*
X84119990Y-132646589D01*
X83957475Y-132403368D01*
X83750632Y-132196525D01*
X83576240Y-132080000D01*
X83750632Y-131963475D01*
X83957475Y-131756632D01*
X83969629Y-131738441D01*
X92075000Y-131738441D01*
X92075000Y-131913559D01*
X92109164Y-132085312D01*
X92176179Y-132247099D01*
X92273469Y-132392704D01*
X92397296Y-132516531D01*
X92542901Y-132613821D01*
X92704688Y-132680836D01*
X92876441Y-132715000D01*
X93051559Y-132715000D01*
X93223312Y-132680836D01*
X93385099Y-132613821D01*
X93530704Y-132516531D01*
X93654531Y-132392704D01*
X93751821Y-132247099D01*
X93818836Y-132085312D01*
X93853000Y-131913559D01*
X93853000Y-131738441D01*
X93818836Y-131566688D01*
X93784768Y-131484441D01*
X97663000Y-131484441D01*
X97663000Y-131659559D01*
X97697164Y-131831312D01*
X97764179Y-131993099D01*
X97861469Y-132138704D01*
X97985296Y-132262531D01*
X98130901Y-132359821D01*
X98292688Y-132426836D01*
X98464441Y-132461000D01*
X98639559Y-132461000D01*
X98811312Y-132426836D01*
X98973099Y-132359821D01*
X99118704Y-132262531D01*
X99242531Y-132138704D01*
X99339821Y-131993099D01*
X99406836Y-131831312D01*
X99441000Y-131659559D01*
X99441000Y-131484441D01*
X99406836Y-131312688D01*
X99339821Y-131150901D01*
X99242531Y-131005296D01*
X99118704Y-130881469D01*
X98973099Y-130784179D01*
X98811312Y-130717164D01*
X98639559Y-130683000D01*
X98464441Y-130683000D01*
X98292688Y-130717164D01*
X98130901Y-130784179D01*
X97985296Y-130881469D01*
X97861469Y-131005296D01*
X97764179Y-131150901D01*
X97697164Y-131312688D01*
X97663000Y-131484441D01*
X93784768Y-131484441D01*
X93751821Y-131404901D01*
X93654531Y-131259296D01*
X93530704Y-131135469D01*
X93385099Y-131038179D01*
X93223312Y-130971164D01*
X93051559Y-130937000D01*
X92876441Y-130937000D01*
X92704688Y-130971164D01*
X92542901Y-131038179D01*
X92397296Y-131135469D01*
X92273469Y-131259296D01*
X92176179Y-131404901D01*
X92109164Y-131566688D01*
X92075000Y-131738441D01*
X83969629Y-131738441D01*
X84119990Y-131513411D01*
X84231932Y-131243158D01*
X84289000Y-130956260D01*
X84289000Y-130722441D01*
X86487000Y-130722441D01*
X86487000Y-130897559D01*
X86521164Y-131069312D01*
X86588179Y-131231099D01*
X86685469Y-131376704D01*
X86809296Y-131500531D01*
X86954901Y-131597821D01*
X87116688Y-131664836D01*
X87288441Y-131699000D01*
X87463559Y-131699000D01*
X87635312Y-131664836D01*
X87797099Y-131597821D01*
X87942704Y-131500531D01*
X88066531Y-131376704D01*
X88163821Y-131231099D01*
X88230836Y-131069312D01*
X88265000Y-130897559D01*
X88265000Y-130722441D01*
X88230836Y-130550688D01*
X88163821Y-130388901D01*
X88148131Y-130365419D01*
X107285000Y-130365419D01*
X107285000Y-130746581D01*
X107359361Y-131120419D01*
X107505225Y-131472566D01*
X107716987Y-131789491D01*
X107986509Y-132059013D01*
X108303434Y-132270775D01*
X108655581Y-132416639D01*
X109029419Y-132491000D01*
X109410581Y-132491000D01*
X109784419Y-132416639D01*
X110136566Y-132270775D01*
X110453491Y-132059013D01*
X110723013Y-131789491D01*
X110934775Y-131472566D01*
X111080639Y-131120419D01*
X111155000Y-130746581D01*
X111155000Y-130365419D01*
X111080639Y-129991581D01*
X110934775Y-129639434D01*
X110757447Y-129374042D01*
X115155000Y-129374042D01*
X115155000Y-129705958D01*
X115219754Y-130031496D01*
X115346772Y-130338147D01*
X115531175Y-130614125D01*
X115765875Y-130848825D01*
X116041853Y-131033228D01*
X116348504Y-131160246D01*
X116674042Y-131225000D01*
X117005958Y-131225000D01*
X117247888Y-131176877D01*
X117165469Y-131259296D01*
X117068179Y-131404901D01*
X117001164Y-131566688D01*
X116967000Y-131738441D01*
X116967000Y-131913559D01*
X117001164Y-132085312D01*
X117068179Y-132247099D01*
X117165469Y-132392704D01*
X117289296Y-132516531D01*
X117434901Y-132613821D01*
X117596688Y-132680836D01*
X117768441Y-132715000D01*
X117943559Y-132715000D01*
X118115312Y-132680836D01*
X118277099Y-132613821D01*
X118422704Y-132516531D01*
X118546531Y-132392704D01*
X118643821Y-132247099D01*
X118710836Y-132085312D01*
X118745000Y-131913559D01*
X118745000Y-131738441D01*
X118710836Y-131566688D01*
X118643821Y-131404901D01*
X118546531Y-131259296D01*
X118517676Y-131230441D01*
X126111000Y-131230441D01*
X126111000Y-131405559D01*
X126145164Y-131577312D01*
X126212179Y-131739099D01*
X126309469Y-131884704D01*
X126433296Y-132008531D01*
X126578901Y-132105821D01*
X126740688Y-132172836D01*
X126912441Y-132207000D01*
X127087559Y-132207000D01*
X127259312Y-132172836D01*
X127421099Y-132105821D01*
X127566704Y-132008531D01*
X127690531Y-131884704D01*
X127787821Y-131739099D01*
X127854836Y-131577312D01*
X127889000Y-131405559D01*
X127889000Y-131230441D01*
X127854836Y-131058688D01*
X127787821Y-130896901D01*
X127690531Y-130751296D01*
X127566704Y-130627469D01*
X127421099Y-130530179D01*
X127259312Y-130463164D01*
X127087559Y-130429000D01*
X126912441Y-130429000D01*
X126740688Y-130463164D01*
X126578901Y-130530179D01*
X126433296Y-130627469D01*
X126309469Y-130751296D01*
X126212179Y-130896901D01*
X126145164Y-131058688D01*
X126111000Y-131230441D01*
X118517676Y-131230441D01*
X118422704Y-131135469D01*
X118277099Y-131038179D01*
X118115312Y-130971164D01*
X117943559Y-130937000D01*
X117782162Y-130937000D01*
X117914125Y-130848825D01*
X118148825Y-130614125D01*
X118333228Y-130338147D01*
X118460246Y-130031496D01*
X118525000Y-129705958D01*
X118525000Y-129374042D01*
X118460246Y-129048504D01*
X118333228Y-128741853D01*
X118148825Y-128465875D01*
X117914125Y-128231175D01*
X117638147Y-128046772D01*
X117331496Y-127919754D01*
X117005958Y-127855000D01*
X116674042Y-127855000D01*
X116348504Y-127919754D01*
X116041853Y-128046772D01*
X115765875Y-128231175D01*
X115531175Y-128465875D01*
X115346772Y-128741853D01*
X115219754Y-129048504D01*
X115155000Y-129374042D01*
X110757447Y-129374042D01*
X110723013Y-129322509D01*
X110453491Y-129052987D01*
X110136566Y-128841225D01*
X109784419Y-128695361D01*
X109410581Y-128621000D01*
X109029419Y-128621000D01*
X108655581Y-128695361D01*
X108303434Y-128841225D01*
X107986509Y-129052987D01*
X107716987Y-129322509D01*
X107505225Y-129639434D01*
X107359361Y-129991581D01*
X107285000Y-130365419D01*
X88148131Y-130365419D01*
X88066531Y-130243296D01*
X87942704Y-130119469D01*
X87797099Y-130022179D01*
X87635312Y-129955164D01*
X87463559Y-129921000D01*
X87288441Y-129921000D01*
X87116688Y-129955164D01*
X86954901Y-130022179D01*
X86809296Y-130119469D01*
X86685469Y-130243296D01*
X86588179Y-130388901D01*
X86521164Y-130550688D01*
X86487000Y-130722441D01*
X84289000Y-130722441D01*
X84289000Y-130663740D01*
X84231932Y-130376842D01*
X84119990Y-130106589D01*
X83957475Y-129863368D01*
X83750632Y-129656525D01*
X83576240Y-129540000D01*
X83750632Y-129423475D01*
X83957475Y-129216632D01*
X84119990Y-128973411D01*
X84231932Y-128703158D01*
X84289000Y-128416260D01*
X84289000Y-128123740D01*
X84231932Y-127836842D01*
X84119990Y-127566589D01*
X83957475Y-127323368D01*
X83750632Y-127116525D01*
X83576240Y-127000000D01*
X83750632Y-126883475D01*
X83957475Y-126676632D01*
X84119990Y-126433411D01*
X84231932Y-126163158D01*
X84289000Y-125876260D01*
X84289000Y-125583740D01*
X84231932Y-125296842D01*
X84119990Y-125026589D01*
X83957475Y-124783368D01*
X83750632Y-124576525D01*
X83576240Y-124460000D01*
X83750632Y-124343475D01*
X83957475Y-124136632D01*
X84119990Y-123893411D01*
X84231932Y-123623158D01*
X84289000Y-123336260D01*
X84289000Y-123043740D01*
X84274307Y-122969872D01*
X93015000Y-122969872D01*
X93015000Y-123410128D01*
X93100890Y-123841925D01*
X93269369Y-124248669D01*
X93513962Y-124614729D01*
X93825271Y-124926038D01*
X94191331Y-125170631D01*
X94598075Y-125339110D01*
X95029872Y-125425000D01*
X95470128Y-125425000D01*
X95901925Y-125339110D01*
X96308669Y-125170631D01*
X96674729Y-124926038D01*
X96720326Y-124880441D01*
X107061000Y-124880441D01*
X107061000Y-125055559D01*
X107095164Y-125227312D01*
X107162179Y-125389099D01*
X107259469Y-125534704D01*
X107383296Y-125658531D01*
X107490257Y-125730000D01*
X107383296Y-125801469D01*
X107259469Y-125925296D01*
X107162179Y-126070901D01*
X107095164Y-126232688D01*
X107061000Y-126404441D01*
X107061000Y-126579559D01*
X107095164Y-126751312D01*
X107162179Y-126913099D01*
X107259469Y-127058704D01*
X107383296Y-127182531D01*
X107528901Y-127279821D01*
X107690688Y-127346836D01*
X107862441Y-127381000D01*
X108037559Y-127381000D01*
X108209312Y-127346836D01*
X108371099Y-127279821D01*
X108516704Y-127182531D01*
X108640531Y-127058704D01*
X108737821Y-126913099D01*
X108804836Y-126751312D01*
X108839000Y-126579559D01*
X108839000Y-126404441D01*
X108804836Y-126232688D01*
X108737821Y-126070901D01*
X108640531Y-125925296D01*
X108516704Y-125801469D01*
X108409743Y-125730000D01*
X108516704Y-125658531D01*
X108640531Y-125534704D01*
X108737821Y-125389099D01*
X108804836Y-125227312D01*
X108839000Y-125055559D01*
X108839000Y-124880441D01*
X108804836Y-124708688D01*
X108737821Y-124546901D01*
X108640531Y-124401296D01*
X108516704Y-124277469D01*
X108399769Y-124199335D01*
X125765000Y-124199335D01*
X125765000Y-124720664D01*
X125782870Y-124902101D01*
X125853489Y-125134900D01*
X125968167Y-125349448D01*
X126122498Y-125537502D01*
X126310551Y-125691833D01*
X126525099Y-125806511D01*
X126599580Y-125829105D01*
X126415008Y-125905557D01*
X126212733Y-126040713D01*
X126040713Y-126212733D01*
X125905557Y-126415008D01*
X125812460Y-126639764D01*
X125765000Y-126878363D01*
X125765000Y-127121637D01*
X125812460Y-127360236D01*
X125905557Y-127584992D01*
X126040713Y-127787267D01*
X126212733Y-127959287D01*
X126415008Y-128094443D01*
X126639764Y-128187540D01*
X126878363Y-128235000D01*
X127121637Y-128235000D01*
X127360236Y-128187540D01*
X127584992Y-128094443D01*
X127787267Y-127959287D01*
X127959287Y-127787267D01*
X128094443Y-127584992D01*
X128187540Y-127360236D01*
X128235000Y-127121637D01*
X128235000Y-126965000D01*
X128391637Y-126965000D01*
X128630236Y-126917540D01*
X128854992Y-126824443D01*
X129057267Y-126689287D01*
X129229287Y-126517267D01*
X129364443Y-126314992D01*
X129457540Y-126090236D01*
X129505000Y-125851637D01*
X129505000Y-125608363D01*
X129457540Y-125369764D01*
X129364443Y-125145008D01*
X129229287Y-124942733D01*
X129057267Y-124770713D01*
X128854992Y-124635557D01*
X128630236Y-124542460D01*
X128391637Y-124495000D01*
X128235000Y-124495000D01*
X128235000Y-124199336D01*
X128217130Y-124017899D01*
X128146511Y-123785100D01*
X128031833Y-123570551D01*
X127877502Y-123382498D01*
X127689449Y-123228167D01*
X127474901Y-123113489D01*
X127242102Y-123042870D01*
X127000000Y-123019025D01*
X126757899Y-123042870D01*
X126525100Y-123113489D01*
X126310552Y-123228167D01*
X126122499Y-123382498D01*
X125968168Y-123570551D01*
X125853489Y-123785099D01*
X125782870Y-124017898D01*
X125765000Y-124199335D01*
X108399769Y-124199335D01*
X108371099Y-124180179D01*
X108209312Y-124113164D01*
X108037559Y-124079000D01*
X107862441Y-124079000D01*
X107690688Y-124113164D01*
X107528901Y-124180179D01*
X107383296Y-124277469D01*
X107259469Y-124401296D01*
X107162179Y-124546901D01*
X107095164Y-124708688D01*
X107061000Y-124880441D01*
X96720326Y-124880441D01*
X96986038Y-124614729D01*
X97230631Y-124248669D01*
X97399110Y-123841925D01*
X97485000Y-123410128D01*
X97485000Y-122969872D01*
X97399110Y-122538075D01*
X97230631Y-122131331D01*
X96986038Y-121765271D01*
X96974809Y-121754042D01*
X115155000Y-121754042D01*
X115155000Y-122085958D01*
X115219754Y-122411496D01*
X115346772Y-122718147D01*
X115531175Y-122994125D01*
X115765875Y-123228825D01*
X116041853Y-123413228D01*
X116348504Y-123540246D01*
X116674042Y-123605000D01*
X117005958Y-123605000D01*
X117331496Y-123540246D01*
X117638147Y-123413228D01*
X117914125Y-123228825D01*
X118148825Y-122994125D01*
X118165030Y-122969872D01*
X131115000Y-122969872D01*
X131115000Y-123410128D01*
X131200890Y-123841925D01*
X131369369Y-124248669D01*
X131613962Y-124614729D01*
X131925271Y-124926038D01*
X132291331Y-125170631D01*
X132698075Y-125339110D01*
X133129872Y-125425000D01*
X133570128Y-125425000D01*
X134001925Y-125339110D01*
X134408669Y-125170631D01*
X134774729Y-124926038D01*
X135086038Y-124614729D01*
X135330631Y-124248669D01*
X135499110Y-123841925D01*
X135585000Y-123410128D01*
X135585000Y-122969872D01*
X135499110Y-122538075D01*
X135330631Y-122131331D01*
X135086038Y-121765271D01*
X134774729Y-121453962D01*
X134408669Y-121209369D01*
X134001925Y-121040890D01*
X133570128Y-120955000D01*
X133129872Y-120955000D01*
X132698075Y-121040890D01*
X132291331Y-121209369D01*
X131925271Y-121453962D01*
X131613962Y-121765271D01*
X131369369Y-122131331D01*
X131200890Y-122538075D01*
X131115000Y-122969872D01*
X118165030Y-122969872D01*
X118333228Y-122718147D01*
X118460246Y-122411496D01*
X118525000Y-122085958D01*
X118525000Y-121754042D01*
X118460246Y-121428504D01*
X118333228Y-121121853D01*
X118148825Y-120845875D01*
X117914125Y-120611175D01*
X117638147Y-120426772D01*
X117331496Y-120299754D01*
X117005958Y-120235000D01*
X116674042Y-120235000D01*
X116348504Y-120299754D01*
X116041853Y-120426772D01*
X115765875Y-120611175D01*
X115531175Y-120845875D01*
X115346772Y-121121853D01*
X115219754Y-121428504D01*
X115155000Y-121754042D01*
X96974809Y-121754042D01*
X96674729Y-121453962D01*
X96308669Y-121209369D01*
X95901925Y-121040890D01*
X95470128Y-120955000D01*
X95029872Y-120955000D01*
X94598075Y-121040890D01*
X94191331Y-121209369D01*
X93825271Y-121453962D01*
X93513962Y-121765271D01*
X93269369Y-122131331D01*
X93100890Y-122538075D01*
X93015000Y-122969872D01*
X84274307Y-122969872D01*
X84231932Y-122756842D01*
X84119990Y-122486589D01*
X83957475Y-122243368D01*
X83750632Y-122036525D01*
X83507411Y-121874010D01*
X83237158Y-121762068D01*
X82950260Y-121705000D01*
X82657740Y-121705000D01*
X82370842Y-121762068D01*
X82100589Y-121874010D01*
X81857368Y-122036525D01*
X81650525Y-122243368D01*
X81534000Y-122417760D01*
X81417475Y-122243368D01*
X81210632Y-122036525D01*
X80967411Y-121874010D01*
X80697158Y-121762068D01*
X80410260Y-121705000D01*
X80117740Y-121705000D01*
X79830842Y-121762068D01*
X79560589Y-121874010D01*
X79317368Y-122036525D01*
X79110525Y-122243368D01*
X78948010Y-122486589D01*
X78836068Y-122756842D01*
X78779000Y-123043740D01*
X76847700Y-123043740D01*
X76847700Y-120027700D01*
X151752300Y-120027700D01*
X151752301Y-151752300D01*
G04 #@! TA.AperFunction,Conductor*
D20*
G36*
X151752301Y-151752300D02*
G01*
X110627936Y-151752300D01*
X110643619Y-151717224D01*
X109474000Y-150547605D01*
X108304381Y-151717224D01*
X108320064Y-151752300D01*
X106000204Y-151752300D01*
X106151013Y-151601491D01*
X106362775Y-151284566D01*
X106508639Y-150932419D01*
X106583000Y-150558581D01*
X106583000Y-150418729D01*
X107530299Y-150418729D01*
X107577543Y-150796951D01*
X107697667Y-151158690D01*
X107829688Y-151405683D01*
X108124776Y-151537619D01*
X109294395Y-150368000D01*
X109653605Y-150368000D01*
X110823224Y-151537619D01*
X111118312Y-151405683D01*
X111289159Y-151064955D01*
X111390250Y-150697443D01*
X111417701Y-150317271D01*
X111370457Y-149939049D01*
X111289097Y-149694042D01*
X115155000Y-149694042D01*
X115155000Y-150025958D01*
X115219754Y-150351496D01*
X115346772Y-150658147D01*
X115531175Y-150934125D01*
X115765875Y-151168825D01*
X116041853Y-151353228D01*
X116348504Y-151480246D01*
X116674042Y-151545000D01*
X117005958Y-151545000D01*
X117331496Y-151480246D01*
X117638147Y-151353228D01*
X117914125Y-151168825D01*
X118148825Y-150934125D01*
X118333228Y-150658147D01*
X118460246Y-150351496D01*
X118525000Y-150025958D01*
X118525000Y-149694042D01*
X118460246Y-149368504D01*
X118333228Y-149061853D01*
X118148825Y-148785875D01*
X117914125Y-148551175D01*
X117638147Y-148366772D01*
X117331496Y-148239754D01*
X117005958Y-148175000D01*
X116674042Y-148175000D01*
X116348504Y-148239754D01*
X116041853Y-148366772D01*
X115765875Y-148551175D01*
X115531175Y-148785875D01*
X115346772Y-149061853D01*
X115219754Y-149368504D01*
X115155000Y-149694042D01*
X111289097Y-149694042D01*
X111250333Y-149577310D01*
X111118312Y-149330317D01*
X110823224Y-149198381D01*
X109653605Y-150368000D01*
X109294395Y-150368000D01*
X108124776Y-149198381D01*
X107829688Y-149330317D01*
X107658841Y-149671045D01*
X107557750Y-150038557D01*
X107530299Y-150418729D01*
X106583000Y-150418729D01*
X106583000Y-150177419D01*
X106508639Y-149803581D01*
X106362775Y-149451434D01*
X106151013Y-149134509D01*
X106035280Y-149018776D01*
X108304381Y-149018776D01*
X109474000Y-150188395D01*
X110643619Y-149018776D01*
X110511683Y-148723688D01*
X110170955Y-148552841D01*
X109803443Y-148451750D01*
X109423271Y-148424299D01*
X109045049Y-148471543D01*
X108683310Y-148591667D01*
X108436317Y-148723688D01*
X108304381Y-149018776D01*
X106035280Y-149018776D01*
X105881491Y-148864987D01*
X105564566Y-148653225D01*
X105212419Y-148507361D01*
X104838581Y-148433000D01*
X104457419Y-148433000D01*
X104083581Y-148507361D01*
X103731434Y-148653225D01*
X103414509Y-148864987D01*
X103144987Y-149134509D01*
X102933225Y-149451434D01*
X102787361Y-149803581D01*
X102713000Y-150177419D01*
X102713000Y-150558581D01*
X102787361Y-150932419D01*
X102933225Y-151284566D01*
X103144987Y-151601491D01*
X103295796Y-151752300D01*
X76847700Y-151752300D01*
X76847700Y-123043740D01*
X78779000Y-123043740D01*
X78779000Y-123336260D01*
X78836068Y-123623158D01*
X78948010Y-123893411D01*
X79110525Y-124136632D01*
X79317368Y-124343475D01*
X79491760Y-124460000D01*
X79317368Y-124576525D01*
X79110525Y-124783368D01*
X78948010Y-125026589D01*
X78836068Y-125296842D01*
X78779000Y-125583740D01*
X78779000Y-125876260D01*
X78836068Y-126163158D01*
X78948010Y-126433411D01*
X79110525Y-126676632D01*
X79317368Y-126883475D01*
X79491760Y-127000000D01*
X79317368Y-127116525D01*
X79110525Y-127323368D01*
X78948010Y-127566589D01*
X78836068Y-127836842D01*
X78779000Y-128123740D01*
X78779000Y-128416260D01*
X78836068Y-128703158D01*
X78948010Y-128973411D01*
X79110525Y-129216632D01*
X79317368Y-129423475D01*
X79491760Y-129540000D01*
X79317368Y-129656525D01*
X79110525Y-129863368D01*
X78948010Y-130106589D01*
X78836068Y-130376842D01*
X78779000Y-130663740D01*
X78779000Y-130956260D01*
X78836068Y-131243158D01*
X78948010Y-131513411D01*
X79110525Y-131756632D01*
X79317368Y-131963475D01*
X79491760Y-132080000D01*
X79317368Y-132196525D01*
X79110525Y-132403368D01*
X78948010Y-132646589D01*
X78836068Y-132916842D01*
X78779000Y-133203740D01*
X78779000Y-133496260D01*
X78836068Y-133783158D01*
X78948010Y-134053411D01*
X79110525Y-134296632D01*
X79317368Y-134503475D01*
X79491760Y-134620000D01*
X79317368Y-134736525D01*
X79110525Y-134943368D01*
X78948010Y-135186589D01*
X78836068Y-135456842D01*
X78779000Y-135743740D01*
X78779000Y-136036260D01*
X78836068Y-136323158D01*
X78948010Y-136593411D01*
X79110525Y-136836632D01*
X79317368Y-137043475D01*
X79491760Y-137160000D01*
X79317368Y-137276525D01*
X79110525Y-137483368D01*
X78948010Y-137726589D01*
X78836068Y-137996842D01*
X78779000Y-138283740D01*
X78779000Y-138576260D01*
X78836068Y-138863158D01*
X78948010Y-139133411D01*
X79110525Y-139376632D01*
X79317368Y-139583475D01*
X79491760Y-139700000D01*
X79317368Y-139816525D01*
X79110525Y-140023368D01*
X78948010Y-140266589D01*
X78836068Y-140536842D01*
X78779000Y-140823740D01*
X78779000Y-141116260D01*
X78836068Y-141403158D01*
X78948010Y-141673411D01*
X79110525Y-141916632D01*
X79317368Y-142123475D01*
X79491760Y-142240000D01*
X79317368Y-142356525D01*
X79110525Y-142563368D01*
X78948010Y-142806589D01*
X78836068Y-143076842D01*
X78779000Y-143363740D01*
X78779000Y-143656260D01*
X78836068Y-143943158D01*
X78948010Y-144213411D01*
X79110525Y-144456632D01*
X79317368Y-144663475D01*
X79491760Y-144780000D01*
X79317368Y-144896525D01*
X79110525Y-145103368D01*
X78948010Y-145346589D01*
X78836068Y-145616842D01*
X78779000Y-145903740D01*
X78779000Y-146196260D01*
X78836068Y-146483158D01*
X78948010Y-146753411D01*
X79110525Y-146996632D01*
X79317368Y-147203475D01*
X79491760Y-147320000D01*
X79317368Y-147436525D01*
X79110525Y-147643368D01*
X78948010Y-147886589D01*
X78836068Y-148156842D01*
X78779000Y-148443740D01*
X78779000Y-148736260D01*
X78836068Y-149023158D01*
X78948010Y-149293411D01*
X79110525Y-149536632D01*
X79317368Y-149743475D01*
X79560589Y-149905990D01*
X79830842Y-150017932D01*
X80117740Y-150075000D01*
X80410260Y-150075000D01*
X80697158Y-150017932D01*
X80967411Y-149905990D01*
X81210632Y-149743475D01*
X81342487Y-149611620D01*
X81364498Y-149684180D01*
X81423463Y-149794494D01*
X81502815Y-149891185D01*
X81599506Y-149970537D01*
X81709820Y-150029502D01*
X81829518Y-150065812D01*
X81954000Y-150078072D01*
X83654000Y-150078072D01*
X83778482Y-150065812D01*
X83898180Y-150029502D01*
X84008494Y-149970537D01*
X84105185Y-149891185D01*
X84184537Y-149794494D01*
X84243502Y-149684180D01*
X84279812Y-149564482D01*
X84292072Y-149440000D01*
X84292072Y-148369872D01*
X93015000Y-148369872D01*
X93015000Y-148810128D01*
X93100890Y-149241925D01*
X93269369Y-149648669D01*
X93513962Y-150014729D01*
X93825271Y-150326038D01*
X94191331Y-150570631D01*
X94598075Y-150739110D01*
X95029872Y-150825000D01*
X95470128Y-150825000D01*
X95901925Y-150739110D01*
X96308669Y-150570631D01*
X96674729Y-150326038D01*
X96986038Y-150014729D01*
X97230631Y-149648669D01*
X97399110Y-149241925D01*
X97485000Y-148810128D01*
X97485000Y-148369872D01*
X97399110Y-147938075D01*
X97230631Y-147531331D01*
X96986038Y-147165271D01*
X96674729Y-146853962D01*
X96308669Y-146609369D01*
X95901925Y-146440890D01*
X95470128Y-146355000D01*
X95029872Y-146355000D01*
X94598075Y-146440890D01*
X94191331Y-146609369D01*
X93825271Y-146853962D01*
X93513962Y-147165271D01*
X93269369Y-147531331D01*
X93100890Y-147938075D01*
X93015000Y-148369872D01*
X84292072Y-148369872D01*
X84292072Y-147740000D01*
X84279812Y-147615518D01*
X84243502Y-147495820D01*
X84184537Y-147385506D01*
X84105185Y-147288815D01*
X84008494Y-147209463D01*
X83898180Y-147150498D01*
X83825620Y-147128487D01*
X83957475Y-146996632D01*
X84119990Y-146753411D01*
X84231932Y-146483158D01*
X84289000Y-146196260D01*
X84289000Y-145903740D01*
X84231932Y-145616842D01*
X84119990Y-145346589D01*
X83957475Y-145103368D01*
X83750632Y-144896525D01*
X83576240Y-144780000D01*
X83750632Y-144663475D01*
X83894772Y-144519335D01*
X125765000Y-144519335D01*
X125765000Y-145040664D01*
X125782870Y-145222101D01*
X125853489Y-145454900D01*
X125968167Y-145669448D01*
X126122498Y-145857502D01*
X126310551Y-146011833D01*
X126525099Y-146126511D01*
X126599580Y-146149105D01*
X126415008Y-146225557D01*
X126212733Y-146360713D01*
X126040713Y-146532733D01*
X125905557Y-146735008D01*
X125812460Y-146959764D01*
X125765000Y-147198363D01*
X125765000Y-147441637D01*
X125812460Y-147680236D01*
X125905557Y-147904992D01*
X126040713Y-148107267D01*
X126212733Y-148279287D01*
X126415008Y-148414443D01*
X126639764Y-148507540D01*
X126878363Y-148555000D01*
X127121637Y-148555000D01*
X127360236Y-148507540D01*
X127584992Y-148414443D01*
X127651697Y-148369872D01*
X131115000Y-148369872D01*
X131115000Y-148810128D01*
X131200890Y-149241925D01*
X131369369Y-149648669D01*
X131613962Y-150014729D01*
X131925271Y-150326038D01*
X132291331Y-150570631D01*
X132698075Y-150739110D01*
X133129872Y-150825000D01*
X133570128Y-150825000D01*
X134001925Y-150739110D01*
X134408669Y-150570631D01*
X134774729Y-150326038D01*
X135086038Y-150014729D01*
X135330631Y-149648669D01*
X135499110Y-149241925D01*
X135585000Y-148810128D01*
X135585000Y-148369872D01*
X135499110Y-147938075D01*
X135330631Y-147531331D01*
X135086038Y-147165271D01*
X134774729Y-146853962D01*
X134408669Y-146609369D01*
X134001925Y-146440890D01*
X133570128Y-146355000D01*
X133129872Y-146355000D01*
X132698075Y-146440890D01*
X132291331Y-146609369D01*
X131925271Y-146853962D01*
X131613962Y-147165271D01*
X131369369Y-147531331D01*
X131200890Y-147938075D01*
X131115000Y-148369872D01*
X127651697Y-148369872D01*
X127787267Y-148279287D01*
X127959287Y-148107267D01*
X128094443Y-147904992D01*
X128187540Y-147680236D01*
X128235000Y-147441637D01*
X128235000Y-147285000D01*
X128391637Y-147285000D01*
X128630236Y-147237540D01*
X128854992Y-147144443D01*
X129057267Y-147009287D01*
X129229287Y-146837267D01*
X129364443Y-146634992D01*
X129457540Y-146410236D01*
X129505000Y-146171637D01*
X129505000Y-145928363D01*
X129457540Y-145689764D01*
X129364443Y-145465008D01*
X129229287Y-145262733D01*
X129057267Y-145090713D01*
X128854992Y-144955557D01*
X128630236Y-144862460D01*
X128391637Y-144815000D01*
X128235000Y-144815000D01*
X128235000Y-144519336D01*
X128217130Y-144337899D01*
X128146511Y-144105100D01*
X128031833Y-143890551D01*
X127877502Y-143702498D01*
X127689449Y-143548167D01*
X127474901Y-143433489D01*
X127242102Y-143362870D01*
X127000000Y-143339025D01*
X126757899Y-143362870D01*
X126525100Y-143433489D01*
X126310552Y-143548167D01*
X126122499Y-143702498D01*
X125968168Y-143890551D01*
X125853489Y-144105099D01*
X125782870Y-144337898D01*
X125765000Y-144519335D01*
X83894772Y-144519335D01*
X83957475Y-144456632D01*
X84119990Y-144213411D01*
X84231932Y-143943158D01*
X84289000Y-143656260D01*
X84289000Y-143363740D01*
X84231932Y-143076842D01*
X84119990Y-142806589D01*
X83957475Y-142563368D01*
X83750632Y-142356525D01*
X83568466Y-142234805D01*
X83685355Y-142165178D01*
X83901588Y-141970269D01*
X83955163Y-141898441D01*
X103759000Y-141898441D01*
X103759000Y-142073559D01*
X103793164Y-142245312D01*
X103860179Y-142407099D01*
X103957469Y-142552704D01*
X104081296Y-142676531D01*
X104226901Y-142773821D01*
X104388688Y-142840836D01*
X104560441Y-142875000D01*
X104735559Y-142875000D01*
X104907312Y-142840836D01*
X105069099Y-142773821D01*
X105214704Y-142676531D01*
X105338531Y-142552704D01*
X105435821Y-142407099D01*
X105502836Y-142245312D01*
X105537000Y-142073559D01*
X105537000Y-141898441D01*
X105502836Y-141726688D01*
X105435821Y-141564901D01*
X105338531Y-141419296D01*
X105214704Y-141295469D01*
X105069099Y-141198179D01*
X104907312Y-141131164D01*
X104735559Y-141097000D01*
X104560441Y-141097000D01*
X104388688Y-141131164D01*
X104226901Y-141198179D01*
X104081296Y-141295469D01*
X103957469Y-141419296D01*
X103860179Y-141564901D01*
X103793164Y-141726688D01*
X103759000Y-141898441D01*
X83955163Y-141898441D01*
X84075641Y-141736920D01*
X84200825Y-141474099D01*
X84245476Y-141326890D01*
X84124155Y-141097000D01*
X82931000Y-141097000D01*
X82931000Y-141117000D01*
X82677000Y-141117000D01*
X82677000Y-141097000D01*
X82657000Y-141097000D01*
X82657000Y-140843000D01*
X82677000Y-140843000D01*
X82677000Y-140823000D01*
X82931000Y-140823000D01*
X82931000Y-140843000D01*
X84124155Y-140843000D01*
X84157708Y-140779419D01*
X107285000Y-140779419D01*
X107285000Y-141160581D01*
X107359361Y-141534419D01*
X107505225Y-141886566D01*
X107716987Y-142203491D01*
X107986509Y-142473013D01*
X108303434Y-142684775D01*
X108655581Y-142830639D01*
X109029419Y-142905000D01*
X109410581Y-142905000D01*
X109784419Y-142830639D01*
X110136566Y-142684775D01*
X110453491Y-142473013D01*
X110723013Y-142203491D01*
X110809507Y-142074042D01*
X115155000Y-142074042D01*
X115155000Y-142405958D01*
X115219754Y-142731496D01*
X115346772Y-143038147D01*
X115531175Y-143314125D01*
X115765875Y-143548825D01*
X116041853Y-143733228D01*
X116348504Y-143860246D01*
X116674042Y-143925000D01*
X117005958Y-143925000D01*
X117331496Y-143860246D01*
X117638147Y-143733228D01*
X117914125Y-143548825D01*
X118148825Y-143314125D01*
X118333228Y-143038147D01*
X118460246Y-142731496D01*
X118525000Y-142405958D01*
X118525000Y-142074042D01*
X118460246Y-141748504D01*
X118333228Y-141441853D01*
X118148825Y-141165875D01*
X118119391Y-141136441D01*
X118978000Y-141136441D01*
X118978000Y-141311559D01*
X119012164Y-141483312D01*
X119079179Y-141645099D01*
X119176469Y-141790704D01*
X119300296Y-141914531D01*
X119445901Y-142011821D01*
X119607688Y-142078836D01*
X119779441Y-142113000D01*
X119954559Y-142113000D01*
X120126312Y-142078836D01*
X120288099Y-142011821D01*
X120433704Y-141914531D01*
X120557531Y-141790704D01*
X120654821Y-141645099D01*
X120721836Y-141483312D01*
X120756000Y-141311559D01*
X120756000Y-141136441D01*
X120721836Y-140964688D01*
X120654821Y-140802901D01*
X120557531Y-140657296D01*
X120433704Y-140533469D01*
X120288099Y-140436179D01*
X120126312Y-140369164D01*
X119954559Y-140335000D01*
X119779441Y-140335000D01*
X119607688Y-140369164D01*
X119445901Y-140436179D01*
X119300296Y-140533469D01*
X119176469Y-140657296D01*
X119079179Y-140802901D01*
X119012164Y-140964688D01*
X118978000Y-141136441D01*
X118119391Y-141136441D01*
X117914125Y-140931175D01*
X117638147Y-140746772D01*
X117331496Y-140619754D01*
X117005958Y-140555000D01*
X116674042Y-140555000D01*
X116348504Y-140619754D01*
X116041853Y-140746772D01*
X115765875Y-140931175D01*
X115531175Y-141165875D01*
X115346772Y-141441853D01*
X115219754Y-141748504D01*
X115155000Y-142074042D01*
X110809507Y-142074042D01*
X110934775Y-141886566D01*
X111080639Y-141534419D01*
X111155000Y-141160581D01*
X111155000Y-140779419D01*
X111080639Y-140405581D01*
X110962531Y-140120441D01*
X120502000Y-140120441D01*
X120502000Y-140295559D01*
X120536164Y-140467312D01*
X120603179Y-140629099D01*
X120700469Y-140774704D01*
X120824296Y-140898531D01*
X120969901Y-140995821D01*
X121131688Y-141062836D01*
X121303441Y-141097000D01*
X121478559Y-141097000D01*
X121650312Y-141062836D01*
X121706120Y-141039719D01*
X138367124Y-141039719D01*
X138408786Y-141323285D01*
X138504968Y-141593275D01*
X138574507Y-141723373D01*
X138820518Y-141797376D01*
X139647895Y-140970000D01*
X138820518Y-140142624D01*
X138574507Y-140216627D01*
X138451607Y-140475550D01*
X138381583Y-140753474D01*
X138367124Y-141039719D01*
X121706120Y-141039719D01*
X121812099Y-140995821D01*
X121957704Y-140898531D01*
X122081531Y-140774704D01*
X122178821Y-140629099D01*
X122245836Y-140467312D01*
X122280000Y-140295559D01*
X122280000Y-140120441D01*
X122245836Y-139948688D01*
X122178821Y-139786901D01*
X122081531Y-139641296D01*
X121957704Y-139517469D01*
X121812099Y-139420179D01*
X121650312Y-139353164D01*
X121478559Y-139319000D01*
X121303441Y-139319000D01*
X121131688Y-139353164D01*
X120969901Y-139420179D01*
X120824296Y-139517469D01*
X120700469Y-139641296D01*
X120603179Y-139786901D01*
X120536164Y-139948688D01*
X120502000Y-140120441D01*
X110962531Y-140120441D01*
X110934775Y-140053434D01*
X110723013Y-139736509D01*
X110453491Y-139466987D01*
X110136566Y-139255225D01*
X109784419Y-139109361D01*
X109410581Y-139035000D01*
X109029419Y-139035000D01*
X108655581Y-139109361D01*
X108303434Y-139255225D01*
X107986509Y-139466987D01*
X107716987Y-139736509D01*
X107505225Y-140053434D01*
X107359361Y-140405581D01*
X107285000Y-140779419D01*
X84157708Y-140779419D01*
X84245476Y-140613110D01*
X84200825Y-140465901D01*
X84075641Y-140203080D01*
X83901588Y-139969731D01*
X83685355Y-139774822D01*
X83568466Y-139705195D01*
X83750632Y-139583475D01*
X83957475Y-139376632D01*
X84119990Y-139133411D01*
X84231932Y-138863158D01*
X84289000Y-138576260D01*
X84289000Y-138283740D01*
X84231932Y-137996842D01*
X84119990Y-137726589D01*
X83957475Y-137483368D01*
X83750632Y-137276525D01*
X83576240Y-137160000D01*
X83750632Y-137043475D01*
X83957475Y-136836632D01*
X84063870Y-136677400D01*
X90859850Y-136677400D01*
X92670852Y-138488402D01*
X92651296Y-138501469D01*
X92527469Y-138625296D01*
X92430179Y-138770901D01*
X92363164Y-138932688D01*
X92329000Y-139104441D01*
X92329000Y-139279559D01*
X92363164Y-139451312D01*
X92430179Y-139613099D01*
X92527469Y-139758704D01*
X92651296Y-139882531D01*
X92796901Y-139979821D01*
X92958688Y-140046836D01*
X93130441Y-140081000D01*
X93305559Y-140081000D01*
X93477312Y-140046836D01*
X93639099Y-139979821D01*
X93784704Y-139882531D01*
X93903773Y-139763462D01*
X93974688Y-139792836D01*
X94146441Y-139827000D01*
X94321559Y-139827000D01*
X94493312Y-139792836D01*
X94655099Y-139725821D01*
X94800704Y-139628531D01*
X94924531Y-139504704D01*
X95021821Y-139359099D01*
X95088836Y-139197312D01*
X95123000Y-139025559D01*
X95123000Y-138850441D01*
X95088836Y-138678688D01*
X95021821Y-138516901D01*
X94924531Y-138371296D01*
X94895676Y-138342441D01*
X97917000Y-138342441D01*
X97917000Y-138517559D01*
X97951164Y-138689312D01*
X98018179Y-138851099D01*
X98115469Y-138996704D01*
X98239296Y-139120531D01*
X98384901Y-139217821D01*
X98546688Y-139284836D01*
X98718441Y-139319000D01*
X98893559Y-139319000D01*
X99065312Y-139284836D01*
X99227099Y-139217821D01*
X99372704Y-139120531D01*
X99496531Y-138996704D01*
X99593821Y-138851099D01*
X99660836Y-138689312D01*
X99695000Y-138517559D01*
X99695000Y-138342441D01*
X99660836Y-138170688D01*
X99593821Y-138008901D01*
X99496531Y-137863296D01*
X99372704Y-137739469D01*
X99227099Y-137642179D01*
X99065312Y-137575164D01*
X98893559Y-137541000D01*
X98718441Y-137541000D01*
X98546688Y-137575164D01*
X98384901Y-137642179D01*
X98239296Y-137739469D01*
X98115469Y-137863296D01*
X98018179Y-138008901D01*
X97951164Y-138170688D01*
X97917000Y-138342441D01*
X94895676Y-138342441D01*
X94800704Y-138247469D01*
X94655099Y-138150179D01*
X94493312Y-138083164D01*
X94492567Y-138083016D01*
X91957992Y-135548441D01*
X105029000Y-135548441D01*
X105029000Y-135723559D01*
X105063164Y-135895312D01*
X105130179Y-136057099D01*
X105227469Y-136202704D01*
X105351296Y-136326531D01*
X105496901Y-136423821D01*
X105658688Y-136490836D01*
X105830441Y-136525000D01*
X106005559Y-136525000D01*
X106177312Y-136490836D01*
X106339099Y-136423821D01*
X106484704Y-136326531D01*
X106608531Y-136202704D01*
X106705821Y-136057099D01*
X106772836Y-135895312D01*
X106807000Y-135723559D01*
X106807000Y-135548441D01*
X106772836Y-135376688D01*
X106738768Y-135294441D01*
X124587000Y-135294441D01*
X124587000Y-135469559D01*
X124621164Y-135641312D01*
X124688179Y-135803099D01*
X124785469Y-135948704D01*
X124909296Y-136072531D01*
X125054901Y-136169821D01*
X125216688Y-136236836D01*
X125388441Y-136271000D01*
X125563559Y-136271000D01*
X125735312Y-136236836D01*
X125897099Y-136169821D01*
X126042704Y-136072531D01*
X126166531Y-135948704D01*
X126263821Y-135803099D01*
X126330836Y-135641312D01*
X126365000Y-135469559D01*
X126365000Y-135294441D01*
X126330836Y-135122688D01*
X126263821Y-134960901D01*
X126166531Y-134815296D01*
X126042704Y-134691469D01*
X125897099Y-134594179D01*
X125735312Y-134527164D01*
X125563559Y-134493000D01*
X125388441Y-134493000D01*
X125216688Y-134527164D01*
X125054901Y-134594179D01*
X124909296Y-134691469D01*
X124785469Y-134815296D01*
X124688179Y-134960901D01*
X124621164Y-135122688D01*
X124587000Y-135294441D01*
X106738768Y-135294441D01*
X106705821Y-135214901D01*
X106608531Y-135069296D01*
X106484704Y-134945469D01*
X106339099Y-134848179D01*
X106177312Y-134781164D01*
X106005559Y-134747000D01*
X105830441Y-134747000D01*
X105658688Y-134781164D01*
X105496901Y-134848179D01*
X105351296Y-134945469D01*
X105227469Y-135069296D01*
X105130179Y-135214901D01*
X105063164Y-135376688D01*
X105029000Y-135548441D01*
X91957992Y-135548441D01*
X91770128Y-135360578D01*
X91745469Y-135330531D01*
X91625572Y-135232134D01*
X91488783Y-135159018D01*
X91340357Y-135113994D01*
X91224673Y-135102600D01*
X91224663Y-135102600D01*
X91186000Y-135098792D01*
X91147337Y-135102600D01*
X84063870Y-135102600D01*
X83957475Y-134943368D01*
X83750632Y-134736525D01*
X83576240Y-134620000D01*
X83750632Y-134503475D01*
X83957475Y-134296632D01*
X84119990Y-134053411D01*
X84231932Y-133783158D01*
X84260905Y-133637500D01*
X136420452Y-133637500D01*
X136420452Y-136457500D01*
X138487686Y-136457500D01*
X138538096Y-136579201D01*
X138697328Y-136817508D01*
X138899992Y-137020172D01*
X139109259Y-137160000D01*
X138899992Y-137299828D01*
X138697328Y-137502492D01*
X138538096Y-137740799D01*
X138428415Y-138005592D01*
X138372500Y-138286695D01*
X138372500Y-138573305D01*
X138428415Y-138854408D01*
X138538096Y-139119201D01*
X138697328Y-139357508D01*
X138899992Y-139560172D01*
X139107786Y-139699016D01*
X139074127Y-139717007D01*
X139000124Y-139963018D01*
X139827500Y-140790395D01*
X140654876Y-139963018D01*
X140580873Y-139717007D01*
X140545451Y-139700194D01*
X140755008Y-139560172D01*
X140957672Y-139357508D01*
X141097500Y-139148241D01*
X141237328Y-139357508D01*
X141439992Y-139560172D01*
X141649259Y-139700000D01*
X141439992Y-139839828D01*
X141237328Y-140042492D01*
X141098484Y-140250286D01*
X141080493Y-140216627D01*
X140834482Y-140142624D01*
X140007105Y-140970000D01*
X140834482Y-141797376D01*
X141080493Y-141723373D01*
X141097306Y-141687951D01*
X141237328Y-141897508D01*
X141439992Y-142100172D01*
X141649259Y-142240000D01*
X141439992Y-142379828D01*
X141237328Y-142582492D01*
X141097500Y-142791759D01*
X140957672Y-142582492D01*
X140755008Y-142379828D01*
X140547214Y-142240984D01*
X140580873Y-142222993D01*
X140654876Y-141976982D01*
X139827500Y-141149605D01*
X139000124Y-141976982D01*
X139074127Y-142222993D01*
X139109549Y-142239806D01*
X138899992Y-142379828D01*
X138697328Y-142582492D01*
X138538096Y-142820799D01*
X138428415Y-143085592D01*
X138372500Y-143366695D01*
X138372500Y-143653305D01*
X138428415Y-143934408D01*
X138538096Y-144199201D01*
X138697328Y-144437508D01*
X138899992Y-144640172D01*
X139109259Y-144780000D01*
X138899992Y-144919828D01*
X138697328Y-145122492D01*
X138538096Y-145360799D01*
X138428415Y-145625592D01*
X138372500Y-145906695D01*
X138372500Y-146193305D01*
X138428415Y-146474408D01*
X138538096Y-146739201D01*
X138697328Y-146977508D01*
X138899992Y-147180172D01*
X139109259Y-147320000D01*
X138899992Y-147459828D01*
X138697328Y-147662492D01*
X138538096Y-147900799D01*
X138428415Y-148165592D01*
X138372500Y-148446695D01*
X138372500Y-148733305D01*
X138428415Y-149014408D01*
X138538096Y-149279201D01*
X138697328Y-149517508D01*
X138899992Y-149720172D01*
X139138299Y-149879404D01*
X139403092Y-149989085D01*
X139684195Y-150045000D01*
X139970805Y-150045000D01*
X140251908Y-149989085D01*
X140516701Y-149879404D01*
X140755008Y-149720172D01*
X140957672Y-149517508D01*
X141097500Y-149308241D01*
X141237328Y-149517508D01*
X141439992Y-149720172D01*
X141678299Y-149879404D01*
X141943092Y-149989085D01*
X142224195Y-150045000D01*
X142510805Y-150045000D01*
X142791908Y-149989085D01*
X143056701Y-149879404D01*
X143295008Y-149720172D01*
X143497672Y-149517508D01*
X143656904Y-149279201D01*
X143766585Y-149014408D01*
X143822500Y-148733305D01*
X143822500Y-148446695D01*
X143766585Y-148165592D01*
X143656904Y-147900799D01*
X143497672Y-147662492D01*
X143295008Y-147459828D01*
X143085741Y-147320000D01*
X143295008Y-147180172D01*
X143497672Y-146977508D01*
X143656904Y-146739201D01*
X143766585Y-146474408D01*
X143822500Y-146193305D01*
X143822500Y-145906695D01*
X143766585Y-145625592D01*
X143656904Y-145360799D01*
X143497672Y-145122492D01*
X143295008Y-144919828D01*
X143085741Y-144780000D01*
X143295008Y-144640172D01*
X143497672Y-144437508D01*
X143656904Y-144199201D01*
X143766585Y-143934408D01*
X143822500Y-143653305D01*
X143822500Y-143366695D01*
X143766585Y-143085592D01*
X143656904Y-142820799D01*
X143497672Y-142582492D01*
X143295008Y-142379828D01*
X143085741Y-142240000D01*
X143295008Y-142100172D01*
X143497672Y-141897508D01*
X143656904Y-141659201D01*
X143766585Y-141394408D01*
X143822500Y-141113305D01*
X143822500Y-140826695D01*
X143766585Y-140545592D01*
X143656904Y-140280799D01*
X143497672Y-140042492D01*
X143295008Y-139839828D01*
X143085741Y-139700000D01*
X143295008Y-139560172D01*
X143497672Y-139357508D01*
X143656904Y-139119201D01*
X143766585Y-138854408D01*
X143822500Y-138573305D01*
X143822500Y-138286695D01*
X143766585Y-138005592D01*
X143656904Y-137740799D01*
X143497672Y-137502492D01*
X143295008Y-137299828D01*
X143085741Y-137160000D01*
X143295008Y-137020172D01*
X143497672Y-136817508D01*
X143656904Y-136579201D01*
X143766585Y-136314408D01*
X143822500Y-136033305D01*
X143822500Y-135746695D01*
X143766585Y-135465592D01*
X143656904Y-135200799D01*
X143497672Y-134962492D01*
X143295008Y-134759828D01*
X143085741Y-134620000D01*
X143295008Y-134480172D01*
X143497672Y-134277508D01*
X143656904Y-134039201D01*
X143766585Y-133774408D01*
X143822500Y-133493305D01*
X143822500Y-133206695D01*
X143766585Y-132925592D01*
X143656904Y-132660799D01*
X143497672Y-132422492D01*
X143295008Y-132219828D01*
X143085741Y-132080000D01*
X143295008Y-131940172D01*
X143497672Y-131737508D01*
X143656904Y-131499201D01*
X143766585Y-131234408D01*
X143822500Y-130953305D01*
X143822500Y-130666695D01*
X143766585Y-130385592D01*
X143656904Y-130120799D01*
X143497672Y-129882492D01*
X143295008Y-129679828D01*
X143085741Y-129540000D01*
X143295008Y-129400172D01*
X143497672Y-129197508D01*
X143656904Y-128959201D01*
X143766585Y-128694408D01*
X143822500Y-128413305D01*
X143822500Y-128126695D01*
X143766585Y-127845592D01*
X143656904Y-127580799D01*
X143497672Y-127342492D01*
X143295008Y-127139828D01*
X143085741Y-127000000D01*
X143295008Y-126860172D01*
X143497672Y-126657508D01*
X143656904Y-126419201D01*
X143766585Y-126154408D01*
X143822500Y-125873305D01*
X143822500Y-125586695D01*
X143766585Y-125305592D01*
X143656904Y-125040799D01*
X143497672Y-124802492D01*
X143295008Y-124599828D01*
X143085741Y-124460000D01*
X143295008Y-124320172D01*
X143497672Y-124117508D01*
X143656904Y-123879201D01*
X143766585Y-123614408D01*
X143822500Y-123333305D01*
X143822500Y-123046695D01*
X143766585Y-122765592D01*
X143656904Y-122500799D01*
X143497672Y-122262492D01*
X143295008Y-122059828D01*
X143056701Y-121900596D01*
X142791908Y-121790915D01*
X142510805Y-121735000D01*
X142224195Y-121735000D01*
X141943092Y-121790915D01*
X141678299Y-121900596D01*
X141439992Y-122059828D01*
X141237328Y-122262492D01*
X141097500Y-122471759D01*
X140957672Y-122262492D01*
X140755008Y-122059828D01*
X140516701Y-121900596D01*
X140251908Y-121790915D01*
X139970805Y-121735000D01*
X139684195Y-121735000D01*
X139403092Y-121790915D01*
X139138299Y-121900596D01*
X138899992Y-122059828D01*
X138697328Y-122262492D01*
X138538096Y-122500799D01*
X138428415Y-122765592D01*
X138372500Y-123046695D01*
X138372500Y-123333305D01*
X138428415Y-123614408D01*
X138538096Y-123879201D01*
X138697328Y-124117508D01*
X138899992Y-124320172D01*
X139109259Y-124460000D01*
X138899992Y-124599828D01*
X138697328Y-124802492D01*
X138538096Y-125040799D01*
X138428415Y-125305592D01*
X138372500Y-125586695D01*
X138372500Y-125873305D01*
X138428415Y-126154408D01*
X138538096Y-126419201D01*
X138697328Y-126657508D01*
X138899992Y-126860172D01*
X139109259Y-127000000D01*
X138899992Y-127139828D01*
X138697328Y-127342492D01*
X138538096Y-127580799D01*
X138428415Y-127845592D01*
X138372500Y-128126695D01*
X138372500Y-128413305D01*
X138428415Y-128694408D01*
X138538096Y-128959201D01*
X138697328Y-129197508D01*
X138899992Y-129400172D01*
X139109259Y-129540000D01*
X138899992Y-129679828D01*
X138697328Y-129882492D01*
X138538096Y-130120799D01*
X138428415Y-130385592D01*
X138372500Y-130666695D01*
X138372500Y-130953305D01*
X138428415Y-131234408D01*
X138538096Y-131499201D01*
X138697328Y-131737508D01*
X138899992Y-131940172D01*
X139109259Y-132080000D01*
X138899992Y-132219828D01*
X138697328Y-132422492D01*
X138538096Y-132660799D01*
X138428415Y-132925592D01*
X138372500Y-133206695D01*
X138372500Y-133493305D01*
X138401182Y-133637500D01*
X136420452Y-133637500D01*
X84260905Y-133637500D01*
X84289000Y-133496260D01*
X84289000Y-133203740D01*
X84231932Y-132916842D01*
X84119990Y-132646589D01*
X83957475Y-132403368D01*
X83750632Y-132196525D01*
X83576240Y-132080000D01*
X83750632Y-131963475D01*
X83957475Y-131756632D01*
X83969629Y-131738441D01*
X92075000Y-131738441D01*
X92075000Y-131913559D01*
X92109164Y-132085312D01*
X92176179Y-132247099D01*
X92273469Y-132392704D01*
X92397296Y-132516531D01*
X92542901Y-132613821D01*
X92704688Y-132680836D01*
X92876441Y-132715000D01*
X93051559Y-132715000D01*
X93223312Y-132680836D01*
X93385099Y-132613821D01*
X93530704Y-132516531D01*
X93654531Y-132392704D01*
X93751821Y-132247099D01*
X93818836Y-132085312D01*
X93853000Y-131913559D01*
X93853000Y-131738441D01*
X93818836Y-131566688D01*
X93784768Y-131484441D01*
X97663000Y-131484441D01*
X97663000Y-131659559D01*
X97697164Y-131831312D01*
X97764179Y-131993099D01*
X97861469Y-132138704D01*
X97985296Y-132262531D01*
X98130901Y-132359821D01*
X98292688Y-132426836D01*
X98464441Y-132461000D01*
X98639559Y-132461000D01*
X98811312Y-132426836D01*
X98973099Y-132359821D01*
X99118704Y-132262531D01*
X99242531Y-132138704D01*
X99339821Y-131993099D01*
X99406836Y-131831312D01*
X99441000Y-131659559D01*
X99441000Y-131484441D01*
X99406836Y-131312688D01*
X99339821Y-131150901D01*
X99242531Y-131005296D01*
X99118704Y-130881469D01*
X98973099Y-130784179D01*
X98811312Y-130717164D01*
X98639559Y-130683000D01*
X98464441Y-130683000D01*
X98292688Y-130717164D01*
X98130901Y-130784179D01*
X97985296Y-130881469D01*
X97861469Y-131005296D01*
X97764179Y-131150901D01*
X97697164Y-131312688D01*
X97663000Y-131484441D01*
X93784768Y-131484441D01*
X93751821Y-131404901D01*
X93654531Y-131259296D01*
X93530704Y-131135469D01*
X93385099Y-131038179D01*
X93223312Y-130971164D01*
X93051559Y-130937000D01*
X92876441Y-130937000D01*
X92704688Y-130971164D01*
X92542901Y-131038179D01*
X92397296Y-131135469D01*
X92273469Y-131259296D01*
X92176179Y-131404901D01*
X92109164Y-131566688D01*
X92075000Y-131738441D01*
X83969629Y-131738441D01*
X84119990Y-131513411D01*
X84231932Y-131243158D01*
X84289000Y-130956260D01*
X84289000Y-130722441D01*
X86487000Y-130722441D01*
X86487000Y-130897559D01*
X86521164Y-131069312D01*
X86588179Y-131231099D01*
X86685469Y-131376704D01*
X86809296Y-131500531D01*
X86954901Y-131597821D01*
X87116688Y-131664836D01*
X87288441Y-131699000D01*
X87463559Y-131699000D01*
X87635312Y-131664836D01*
X87797099Y-131597821D01*
X87942704Y-131500531D01*
X88066531Y-131376704D01*
X88163821Y-131231099D01*
X88230836Y-131069312D01*
X88265000Y-130897559D01*
X88265000Y-130722441D01*
X88230836Y-130550688D01*
X88163821Y-130388901D01*
X88148131Y-130365419D01*
X107285000Y-130365419D01*
X107285000Y-130746581D01*
X107359361Y-131120419D01*
X107505225Y-131472566D01*
X107716987Y-131789491D01*
X107986509Y-132059013D01*
X108303434Y-132270775D01*
X108655581Y-132416639D01*
X109029419Y-132491000D01*
X109410581Y-132491000D01*
X109784419Y-132416639D01*
X110136566Y-132270775D01*
X110453491Y-132059013D01*
X110723013Y-131789491D01*
X110934775Y-131472566D01*
X111080639Y-131120419D01*
X111155000Y-130746581D01*
X111155000Y-130365419D01*
X111080639Y-129991581D01*
X110934775Y-129639434D01*
X110757447Y-129374042D01*
X115155000Y-129374042D01*
X115155000Y-129705958D01*
X115219754Y-130031496D01*
X115346772Y-130338147D01*
X115531175Y-130614125D01*
X115765875Y-130848825D01*
X116041853Y-131033228D01*
X116348504Y-131160246D01*
X116674042Y-131225000D01*
X117005958Y-131225000D01*
X117247888Y-131176877D01*
X117165469Y-131259296D01*
X117068179Y-131404901D01*
X117001164Y-131566688D01*
X116967000Y-131738441D01*
X116967000Y-131913559D01*
X117001164Y-132085312D01*
X117068179Y-132247099D01*
X117165469Y-132392704D01*
X117289296Y-132516531D01*
X117434901Y-132613821D01*
X117596688Y-132680836D01*
X117768441Y-132715000D01*
X117943559Y-132715000D01*
X118115312Y-132680836D01*
X118277099Y-132613821D01*
X118422704Y-132516531D01*
X118546531Y-132392704D01*
X118643821Y-132247099D01*
X118710836Y-132085312D01*
X118745000Y-131913559D01*
X118745000Y-131738441D01*
X118710836Y-131566688D01*
X118643821Y-131404901D01*
X118546531Y-131259296D01*
X118517676Y-131230441D01*
X126111000Y-131230441D01*
X126111000Y-131405559D01*
X126145164Y-131577312D01*
X126212179Y-131739099D01*
X126309469Y-131884704D01*
X126433296Y-132008531D01*
X126578901Y-132105821D01*
X126740688Y-132172836D01*
X126912441Y-132207000D01*
X127087559Y-132207000D01*
X127259312Y-132172836D01*
X127421099Y-132105821D01*
X127566704Y-132008531D01*
X127690531Y-131884704D01*
X127787821Y-131739099D01*
X127854836Y-131577312D01*
X127889000Y-131405559D01*
X127889000Y-131230441D01*
X127854836Y-131058688D01*
X127787821Y-130896901D01*
X127690531Y-130751296D01*
X127566704Y-130627469D01*
X127421099Y-130530179D01*
X127259312Y-130463164D01*
X127087559Y-130429000D01*
X126912441Y-130429000D01*
X126740688Y-130463164D01*
X126578901Y-130530179D01*
X126433296Y-130627469D01*
X126309469Y-130751296D01*
X126212179Y-130896901D01*
X126145164Y-131058688D01*
X126111000Y-131230441D01*
X118517676Y-131230441D01*
X118422704Y-131135469D01*
X118277099Y-131038179D01*
X118115312Y-130971164D01*
X117943559Y-130937000D01*
X117782162Y-130937000D01*
X117914125Y-130848825D01*
X118148825Y-130614125D01*
X118333228Y-130338147D01*
X118460246Y-130031496D01*
X118525000Y-129705958D01*
X118525000Y-129374042D01*
X118460246Y-129048504D01*
X118333228Y-128741853D01*
X118148825Y-128465875D01*
X117914125Y-128231175D01*
X117638147Y-128046772D01*
X117331496Y-127919754D01*
X117005958Y-127855000D01*
X116674042Y-127855000D01*
X116348504Y-127919754D01*
X116041853Y-128046772D01*
X115765875Y-128231175D01*
X115531175Y-128465875D01*
X115346772Y-128741853D01*
X115219754Y-129048504D01*
X115155000Y-129374042D01*
X110757447Y-129374042D01*
X110723013Y-129322509D01*
X110453491Y-129052987D01*
X110136566Y-128841225D01*
X109784419Y-128695361D01*
X109410581Y-128621000D01*
X109029419Y-128621000D01*
X108655581Y-128695361D01*
X108303434Y-128841225D01*
X107986509Y-129052987D01*
X107716987Y-129322509D01*
X107505225Y-129639434D01*
X107359361Y-129991581D01*
X107285000Y-130365419D01*
X88148131Y-130365419D01*
X88066531Y-130243296D01*
X87942704Y-130119469D01*
X87797099Y-130022179D01*
X87635312Y-129955164D01*
X87463559Y-129921000D01*
X87288441Y-129921000D01*
X87116688Y-129955164D01*
X86954901Y-130022179D01*
X86809296Y-130119469D01*
X86685469Y-130243296D01*
X86588179Y-130388901D01*
X86521164Y-130550688D01*
X86487000Y-130722441D01*
X84289000Y-130722441D01*
X84289000Y-130663740D01*
X84231932Y-130376842D01*
X84119990Y-130106589D01*
X83957475Y-129863368D01*
X83750632Y-129656525D01*
X83576240Y-129540000D01*
X83750632Y-129423475D01*
X83957475Y-129216632D01*
X84119990Y-128973411D01*
X84231932Y-128703158D01*
X84289000Y-128416260D01*
X84289000Y-128123740D01*
X84231932Y-127836842D01*
X84119990Y-127566589D01*
X83957475Y-127323368D01*
X83750632Y-127116525D01*
X83576240Y-127000000D01*
X83750632Y-126883475D01*
X83957475Y-126676632D01*
X84119990Y-126433411D01*
X84231932Y-126163158D01*
X84289000Y-125876260D01*
X84289000Y-125583740D01*
X84231932Y-125296842D01*
X84119990Y-125026589D01*
X83957475Y-124783368D01*
X83750632Y-124576525D01*
X83576240Y-124460000D01*
X83750632Y-124343475D01*
X83957475Y-124136632D01*
X84119990Y-123893411D01*
X84231932Y-123623158D01*
X84289000Y-123336260D01*
X84289000Y-123043740D01*
X84274307Y-122969872D01*
X93015000Y-122969872D01*
X93015000Y-123410128D01*
X93100890Y-123841925D01*
X93269369Y-124248669D01*
X93513962Y-124614729D01*
X93825271Y-124926038D01*
X94191331Y-125170631D01*
X94598075Y-125339110D01*
X95029872Y-125425000D01*
X95470128Y-125425000D01*
X95901925Y-125339110D01*
X96308669Y-125170631D01*
X96674729Y-124926038D01*
X96720326Y-124880441D01*
X107061000Y-124880441D01*
X107061000Y-125055559D01*
X107095164Y-125227312D01*
X107162179Y-125389099D01*
X107259469Y-125534704D01*
X107383296Y-125658531D01*
X107490257Y-125730000D01*
X107383296Y-125801469D01*
X107259469Y-125925296D01*
X107162179Y-126070901D01*
X107095164Y-126232688D01*
X107061000Y-126404441D01*
X107061000Y-126579559D01*
X107095164Y-126751312D01*
X107162179Y-126913099D01*
X107259469Y-127058704D01*
X107383296Y-127182531D01*
X107528901Y-127279821D01*
X107690688Y-127346836D01*
X107862441Y-127381000D01*
X108037559Y-127381000D01*
X108209312Y-127346836D01*
X108371099Y-127279821D01*
X108516704Y-127182531D01*
X108640531Y-127058704D01*
X108737821Y-126913099D01*
X108804836Y-126751312D01*
X108839000Y-126579559D01*
X108839000Y-126404441D01*
X108804836Y-126232688D01*
X108737821Y-126070901D01*
X108640531Y-125925296D01*
X108516704Y-125801469D01*
X108409743Y-125730000D01*
X108516704Y-125658531D01*
X108640531Y-125534704D01*
X108737821Y-125389099D01*
X108804836Y-125227312D01*
X108839000Y-125055559D01*
X108839000Y-124880441D01*
X108804836Y-124708688D01*
X108737821Y-124546901D01*
X108640531Y-124401296D01*
X108516704Y-124277469D01*
X108399769Y-124199335D01*
X125765000Y-124199335D01*
X125765000Y-124720664D01*
X125782870Y-124902101D01*
X125853489Y-125134900D01*
X125968167Y-125349448D01*
X126122498Y-125537502D01*
X126310551Y-125691833D01*
X126525099Y-125806511D01*
X126599580Y-125829105D01*
X126415008Y-125905557D01*
X126212733Y-126040713D01*
X126040713Y-126212733D01*
X125905557Y-126415008D01*
X125812460Y-126639764D01*
X125765000Y-126878363D01*
X125765000Y-127121637D01*
X125812460Y-127360236D01*
X125905557Y-127584992D01*
X126040713Y-127787267D01*
X126212733Y-127959287D01*
X126415008Y-128094443D01*
X126639764Y-128187540D01*
X126878363Y-128235000D01*
X127121637Y-128235000D01*
X127360236Y-128187540D01*
X127584992Y-128094443D01*
X127787267Y-127959287D01*
X127959287Y-127787267D01*
X128094443Y-127584992D01*
X128187540Y-127360236D01*
X128235000Y-127121637D01*
X128235000Y-126965000D01*
X128391637Y-126965000D01*
X128630236Y-126917540D01*
X128854992Y-126824443D01*
X129057267Y-126689287D01*
X129229287Y-126517267D01*
X129364443Y-126314992D01*
X129457540Y-126090236D01*
X129505000Y-125851637D01*
X129505000Y-125608363D01*
X129457540Y-125369764D01*
X129364443Y-125145008D01*
X129229287Y-124942733D01*
X129057267Y-124770713D01*
X128854992Y-124635557D01*
X128630236Y-124542460D01*
X128391637Y-124495000D01*
X128235000Y-124495000D01*
X128235000Y-124199336D01*
X128217130Y-124017899D01*
X128146511Y-123785100D01*
X128031833Y-123570551D01*
X127877502Y-123382498D01*
X127689449Y-123228167D01*
X127474901Y-123113489D01*
X127242102Y-123042870D01*
X127000000Y-123019025D01*
X126757899Y-123042870D01*
X126525100Y-123113489D01*
X126310552Y-123228167D01*
X126122499Y-123382498D01*
X125968168Y-123570551D01*
X125853489Y-123785099D01*
X125782870Y-124017898D01*
X125765000Y-124199335D01*
X108399769Y-124199335D01*
X108371099Y-124180179D01*
X108209312Y-124113164D01*
X108037559Y-124079000D01*
X107862441Y-124079000D01*
X107690688Y-124113164D01*
X107528901Y-124180179D01*
X107383296Y-124277469D01*
X107259469Y-124401296D01*
X107162179Y-124546901D01*
X107095164Y-124708688D01*
X107061000Y-124880441D01*
X96720326Y-124880441D01*
X96986038Y-124614729D01*
X97230631Y-124248669D01*
X97399110Y-123841925D01*
X97485000Y-123410128D01*
X97485000Y-122969872D01*
X97399110Y-122538075D01*
X97230631Y-122131331D01*
X96986038Y-121765271D01*
X96974809Y-121754042D01*
X115155000Y-121754042D01*
X115155000Y-122085958D01*
X115219754Y-122411496D01*
X115346772Y-122718147D01*
X115531175Y-122994125D01*
X115765875Y-123228825D01*
X116041853Y-123413228D01*
X116348504Y-123540246D01*
X116674042Y-123605000D01*
X117005958Y-123605000D01*
X117331496Y-123540246D01*
X117638147Y-123413228D01*
X117914125Y-123228825D01*
X118148825Y-122994125D01*
X118165030Y-122969872D01*
X131115000Y-122969872D01*
X131115000Y-123410128D01*
X131200890Y-123841925D01*
X131369369Y-124248669D01*
X131613962Y-124614729D01*
X131925271Y-124926038D01*
X132291331Y-125170631D01*
X132698075Y-125339110D01*
X133129872Y-125425000D01*
X133570128Y-125425000D01*
X134001925Y-125339110D01*
X134408669Y-125170631D01*
X134774729Y-124926038D01*
X135086038Y-124614729D01*
X135330631Y-124248669D01*
X135499110Y-123841925D01*
X135585000Y-123410128D01*
X135585000Y-122969872D01*
X135499110Y-122538075D01*
X135330631Y-122131331D01*
X135086038Y-121765271D01*
X134774729Y-121453962D01*
X134408669Y-121209369D01*
X134001925Y-121040890D01*
X133570128Y-120955000D01*
X133129872Y-120955000D01*
X132698075Y-121040890D01*
X132291331Y-121209369D01*
X131925271Y-121453962D01*
X131613962Y-121765271D01*
X131369369Y-122131331D01*
X131200890Y-122538075D01*
X131115000Y-122969872D01*
X118165030Y-122969872D01*
X118333228Y-122718147D01*
X118460246Y-122411496D01*
X118525000Y-122085958D01*
X118525000Y-121754042D01*
X118460246Y-121428504D01*
X118333228Y-121121853D01*
X118148825Y-120845875D01*
X117914125Y-120611175D01*
X117638147Y-120426772D01*
X117331496Y-120299754D01*
X117005958Y-120235000D01*
X116674042Y-120235000D01*
X116348504Y-120299754D01*
X116041853Y-120426772D01*
X115765875Y-120611175D01*
X115531175Y-120845875D01*
X115346772Y-121121853D01*
X115219754Y-121428504D01*
X115155000Y-121754042D01*
X96974809Y-121754042D01*
X96674729Y-121453962D01*
X96308669Y-121209369D01*
X95901925Y-121040890D01*
X95470128Y-120955000D01*
X95029872Y-120955000D01*
X94598075Y-121040890D01*
X94191331Y-121209369D01*
X93825271Y-121453962D01*
X93513962Y-121765271D01*
X93269369Y-122131331D01*
X93100890Y-122538075D01*
X93015000Y-122969872D01*
X84274307Y-122969872D01*
X84231932Y-122756842D01*
X84119990Y-122486589D01*
X83957475Y-122243368D01*
X83750632Y-122036525D01*
X83507411Y-121874010D01*
X83237158Y-121762068D01*
X82950260Y-121705000D01*
X82657740Y-121705000D01*
X82370842Y-121762068D01*
X82100589Y-121874010D01*
X81857368Y-122036525D01*
X81650525Y-122243368D01*
X81534000Y-122417760D01*
X81417475Y-122243368D01*
X81210632Y-122036525D01*
X80967411Y-121874010D01*
X80697158Y-121762068D01*
X80410260Y-121705000D01*
X80117740Y-121705000D01*
X79830842Y-121762068D01*
X79560589Y-121874010D01*
X79317368Y-122036525D01*
X79110525Y-122243368D01*
X78948010Y-122486589D01*
X78836068Y-122756842D01*
X78779000Y-123043740D01*
X76847700Y-123043740D01*
X76847700Y-120027700D01*
X151752300Y-120027700D01*
X151752301Y-151752300D01*
G37*
G04 #@! TD.AperFunction*
M02*
