G04 #@! TF.GenerationSoftware,KiCad,Pcbnew,(5.1.2)-1*
G04 #@! TF.CreationDate,2019-10-29T15:21:54-05:00*
G04 #@! TF.ProjectId,optical_digitizer,6f707469-6361-46c5-9f64-69676974697a,rev?*
G04 #@! TF.SameCoordinates,Original*
G04 #@! TF.FileFunction,Legend,Bot*
G04 #@! TF.FilePolarity,Positive*
%FSLAX46Y46*%
G04 Gerber Fmt 4.6, Leading zero omitted, Abs format (unit mm)*
G04 Created by KiCad (PCBNEW (5.1.2)-1) date 2019-10-29 15:21:54*
%MOMM*%
%LPD*%
G04 APERTURE LIST*
%ADD10C,0.149860*%
%ADD11C,0.120000*%
%ADD12C,0.150000*%
G04 APERTURE END LIST*
D10*
X184748714Y-126074714D02*
X184748714Y-125312714D01*
X184313285Y-126074714D01*
X184313285Y-125312714D01*
X183515000Y-126002142D02*
X183551285Y-126038428D01*
X183660142Y-126074714D01*
X183732714Y-126074714D01*
X183841571Y-126038428D01*
X183914142Y-125965857D01*
X183950428Y-125893285D01*
X183986714Y-125748142D01*
X183986714Y-125639285D01*
X183950428Y-125494142D01*
X183914142Y-125421571D01*
X183841571Y-125349000D01*
X183732714Y-125312714D01*
X183660142Y-125312714D01*
X183551285Y-125349000D01*
X183515000Y-125385285D01*
X188449857Y-141242142D02*
X188486142Y-141278428D01*
X188595000Y-141314714D01*
X188667571Y-141314714D01*
X188776428Y-141278428D01*
X188849000Y-141205857D01*
X188885285Y-141133285D01*
X188921571Y-140988142D01*
X188921571Y-140879285D01*
X188885285Y-140734142D01*
X188849000Y-140661571D01*
X188776428Y-140589000D01*
X188667571Y-140552714D01*
X188595000Y-140552714D01*
X188486142Y-140589000D01*
X188449857Y-140625285D01*
X188159571Y-141278428D02*
X188050714Y-141314714D01*
X187869285Y-141314714D01*
X187796714Y-141278428D01*
X187760428Y-141242142D01*
X187724142Y-141169571D01*
X187724142Y-141097000D01*
X187760428Y-141024428D01*
X187796714Y-140988142D01*
X187869285Y-140951857D01*
X188014428Y-140915571D01*
X188087000Y-140879285D01*
X188123285Y-140843000D01*
X188159571Y-140770428D01*
X188159571Y-140697857D01*
X188123285Y-140625285D01*
X188087000Y-140589000D01*
X188014428Y-140552714D01*
X187833000Y-140552714D01*
X187724142Y-140589000D01*
X187071000Y-140806714D02*
X187071000Y-141314714D01*
X187252428Y-140516428D02*
X187433857Y-141060714D01*
X186962142Y-141060714D01*
X188558714Y-126074714D02*
X188558714Y-125312714D01*
X188123285Y-126074714D01*
X188123285Y-125312714D01*
X187325000Y-126002142D02*
X187361285Y-126038428D01*
X187470142Y-126074714D01*
X187542714Y-126074714D01*
X187651571Y-126038428D01*
X187724142Y-125965857D01*
X187760428Y-125893285D01*
X187796714Y-125748142D01*
X187796714Y-125639285D01*
X187760428Y-125494142D01*
X187724142Y-125421571D01*
X187651571Y-125349000D01*
X187542714Y-125312714D01*
X187470142Y-125312714D01*
X187361285Y-125349000D01*
X187325000Y-125385285D01*
X185093428Y-133694714D02*
X185093428Y-132932714D01*
X184839428Y-133477000D01*
X184585428Y-132932714D01*
X184585428Y-133694714D01*
X184077428Y-132932714D02*
X183932285Y-132932714D01*
X183859714Y-132969000D01*
X183787142Y-133041571D01*
X183750857Y-133186714D01*
X183750857Y-133440714D01*
X183787142Y-133585857D01*
X183859714Y-133658428D01*
X183932285Y-133694714D01*
X184077428Y-133694714D01*
X184150000Y-133658428D01*
X184222571Y-133585857D01*
X184258857Y-133440714D01*
X184258857Y-133186714D01*
X184222571Y-133041571D01*
X184150000Y-132969000D01*
X184077428Y-132932714D01*
X183460571Y-133658428D02*
X183351714Y-133694714D01*
X183170285Y-133694714D01*
X183097714Y-133658428D01*
X183061428Y-133622142D01*
X183025142Y-133549571D01*
X183025142Y-133477000D01*
X183061428Y-133404428D01*
X183097714Y-133368142D01*
X183170285Y-133331857D01*
X183315428Y-133295571D01*
X183388000Y-133259285D01*
X183424285Y-133223000D01*
X183460571Y-133150428D01*
X183460571Y-133077857D01*
X183424285Y-133005285D01*
X183388000Y-132969000D01*
X183315428Y-132932714D01*
X183134000Y-132932714D01*
X183025142Y-132969000D01*
X182698571Y-133694714D02*
X182698571Y-132932714D01*
X188558714Y-123534714D02*
X188558714Y-122772714D01*
X188123285Y-123534714D01*
X188123285Y-122772714D01*
X187325000Y-123462142D02*
X187361285Y-123498428D01*
X187470142Y-123534714D01*
X187542714Y-123534714D01*
X187651571Y-123498428D01*
X187724142Y-123425857D01*
X187760428Y-123353285D01*
X187796714Y-123208142D01*
X187796714Y-123099285D01*
X187760428Y-122954142D01*
X187724142Y-122881571D01*
X187651571Y-122809000D01*
X187542714Y-122772714D01*
X187470142Y-122772714D01*
X187361285Y-122809000D01*
X187325000Y-122845285D01*
X188449857Y-146322142D02*
X188486142Y-146358428D01*
X188595000Y-146394714D01*
X188667571Y-146394714D01*
X188776428Y-146358428D01*
X188849000Y-146285857D01*
X188885285Y-146213285D01*
X188921571Y-146068142D01*
X188921571Y-145959285D01*
X188885285Y-145814142D01*
X188849000Y-145741571D01*
X188776428Y-145669000D01*
X188667571Y-145632714D01*
X188595000Y-145632714D01*
X188486142Y-145669000D01*
X188449857Y-145705285D01*
X188159571Y-146358428D02*
X188050714Y-146394714D01*
X187869285Y-146394714D01*
X187796714Y-146358428D01*
X187760428Y-146322142D01*
X187724142Y-146249571D01*
X187724142Y-146177000D01*
X187760428Y-146104428D01*
X187796714Y-146068142D01*
X187869285Y-146031857D01*
X188014428Y-145995571D01*
X188087000Y-145959285D01*
X188123285Y-145923000D01*
X188159571Y-145850428D01*
X188159571Y-145777857D01*
X188123285Y-145705285D01*
X188087000Y-145669000D01*
X188014428Y-145632714D01*
X187833000Y-145632714D01*
X187724142Y-145669000D01*
X187433857Y-145705285D02*
X187397571Y-145669000D01*
X187325000Y-145632714D01*
X187143571Y-145632714D01*
X187071000Y-145669000D01*
X187034714Y-145705285D01*
X186998428Y-145777857D01*
X186998428Y-145850428D01*
X187034714Y-145959285D01*
X187470142Y-146394714D01*
X186998428Y-146394714D01*
X184748714Y-123534714D02*
X184748714Y-122772714D01*
X184313285Y-123534714D01*
X184313285Y-122772714D01*
X183515000Y-123462142D02*
X183551285Y-123498428D01*
X183660142Y-123534714D01*
X183732714Y-123534714D01*
X183841571Y-123498428D01*
X183914142Y-123425857D01*
X183950428Y-123353285D01*
X183986714Y-123208142D01*
X183986714Y-123099285D01*
X183950428Y-122954142D01*
X183914142Y-122881571D01*
X183841571Y-122809000D01*
X183732714Y-122772714D01*
X183660142Y-122772714D01*
X183551285Y-122809000D01*
X183515000Y-122845285D01*
X188449857Y-148862142D02*
X188486142Y-148898428D01*
X188595000Y-148934714D01*
X188667571Y-148934714D01*
X188776428Y-148898428D01*
X188849000Y-148825857D01*
X188885285Y-148753285D01*
X188921571Y-148608142D01*
X188921571Y-148499285D01*
X188885285Y-148354142D01*
X188849000Y-148281571D01*
X188776428Y-148209000D01*
X188667571Y-148172714D01*
X188595000Y-148172714D01*
X188486142Y-148209000D01*
X188449857Y-148245285D01*
X188159571Y-148898428D02*
X188050714Y-148934714D01*
X187869285Y-148934714D01*
X187796714Y-148898428D01*
X187760428Y-148862142D01*
X187724142Y-148789571D01*
X187724142Y-148717000D01*
X187760428Y-148644428D01*
X187796714Y-148608142D01*
X187869285Y-148571857D01*
X188014428Y-148535571D01*
X188087000Y-148499285D01*
X188123285Y-148463000D01*
X188159571Y-148390428D01*
X188159571Y-148317857D01*
X188123285Y-148245285D01*
X188087000Y-148209000D01*
X188014428Y-148172714D01*
X187833000Y-148172714D01*
X187724142Y-148209000D01*
X186998428Y-148934714D02*
X187433857Y-148934714D01*
X187216142Y-148934714D02*
X187216142Y-148172714D01*
X187288714Y-148281571D01*
X187361285Y-148354142D01*
X187433857Y-148390428D01*
X188449857Y-131082142D02*
X188486142Y-131118428D01*
X188595000Y-131154714D01*
X188667571Y-131154714D01*
X188776428Y-131118428D01*
X188849000Y-131045857D01*
X188885285Y-130973285D01*
X188921571Y-130828142D01*
X188921571Y-130719285D01*
X188885285Y-130574142D01*
X188849000Y-130501571D01*
X188776428Y-130429000D01*
X188667571Y-130392714D01*
X188595000Y-130392714D01*
X188486142Y-130429000D01*
X188449857Y-130465285D01*
X188159571Y-131118428D02*
X188050714Y-131154714D01*
X187869285Y-131154714D01*
X187796714Y-131118428D01*
X187760428Y-131082142D01*
X187724142Y-131009571D01*
X187724142Y-130937000D01*
X187760428Y-130864428D01*
X187796714Y-130828142D01*
X187869285Y-130791857D01*
X188014428Y-130755571D01*
X188087000Y-130719285D01*
X188123285Y-130683000D01*
X188159571Y-130610428D01*
X188159571Y-130537857D01*
X188123285Y-130465285D01*
X188087000Y-130429000D01*
X188014428Y-130392714D01*
X187833000Y-130392714D01*
X187724142Y-130429000D01*
X187288714Y-130719285D02*
X187361285Y-130683000D01*
X187397571Y-130646714D01*
X187433857Y-130574142D01*
X187433857Y-130537857D01*
X187397571Y-130465285D01*
X187361285Y-130429000D01*
X187288714Y-130392714D01*
X187143571Y-130392714D01*
X187071000Y-130429000D01*
X187034714Y-130465285D01*
X186998428Y-130537857D01*
X186998428Y-130574142D01*
X187034714Y-130646714D01*
X187071000Y-130683000D01*
X187143571Y-130719285D01*
X187288714Y-130719285D01*
X187361285Y-130755571D01*
X187397571Y-130791857D01*
X187433857Y-130864428D01*
X187433857Y-131009571D01*
X187397571Y-131082142D01*
X187361285Y-131118428D01*
X187288714Y-131154714D01*
X187143571Y-131154714D01*
X187071000Y-131118428D01*
X187034714Y-131082142D01*
X186998428Y-131009571D01*
X186998428Y-130864428D01*
X187034714Y-130791857D01*
X187071000Y-130755571D01*
X187143571Y-130719285D01*
X185238571Y-146104428D02*
X184658000Y-146104428D01*
X184948285Y-146394714D02*
X184948285Y-145814142D01*
X183896000Y-146394714D02*
X184331428Y-146394714D01*
X184113714Y-146394714D02*
X184113714Y-145632714D01*
X184186285Y-145741571D01*
X184258857Y-145814142D01*
X184331428Y-145850428D01*
X183605714Y-145705285D02*
X183569428Y-145669000D01*
X183496857Y-145632714D01*
X183315428Y-145632714D01*
X183242857Y-145669000D01*
X183206571Y-145705285D01*
X183170285Y-145777857D01*
X183170285Y-145850428D01*
X183206571Y-145959285D01*
X183642000Y-146394714D01*
X183170285Y-146394714D01*
X182952571Y-145632714D02*
X182698571Y-146394714D01*
X182444571Y-145632714D01*
X188449857Y-128542142D02*
X188486142Y-128578428D01*
X188595000Y-128614714D01*
X188667571Y-128614714D01*
X188776428Y-128578428D01*
X188849000Y-128505857D01*
X188885285Y-128433285D01*
X188921571Y-128288142D01*
X188921571Y-128179285D01*
X188885285Y-128034142D01*
X188849000Y-127961571D01*
X188776428Y-127889000D01*
X188667571Y-127852714D01*
X188595000Y-127852714D01*
X188486142Y-127889000D01*
X188449857Y-127925285D01*
X188159571Y-128578428D02*
X188050714Y-128614714D01*
X187869285Y-128614714D01*
X187796714Y-128578428D01*
X187760428Y-128542142D01*
X187724142Y-128469571D01*
X187724142Y-128397000D01*
X187760428Y-128324428D01*
X187796714Y-128288142D01*
X187869285Y-128251857D01*
X188014428Y-128215571D01*
X188087000Y-128179285D01*
X188123285Y-128143000D01*
X188159571Y-128070428D01*
X188159571Y-127997857D01*
X188123285Y-127925285D01*
X188087000Y-127889000D01*
X188014428Y-127852714D01*
X187833000Y-127852714D01*
X187724142Y-127889000D01*
X187361285Y-128614714D02*
X187216142Y-128614714D01*
X187143571Y-128578428D01*
X187107285Y-128542142D01*
X187034714Y-128433285D01*
X186998428Y-128288142D01*
X186998428Y-127997857D01*
X187034714Y-127925285D01*
X187071000Y-127889000D01*
X187143571Y-127852714D01*
X187288714Y-127852714D01*
X187361285Y-127889000D01*
X187397571Y-127925285D01*
X187433857Y-127997857D01*
X187433857Y-128179285D01*
X187397571Y-128251857D01*
X187361285Y-128288142D01*
X187288714Y-128324428D01*
X187143571Y-128324428D01*
X187071000Y-128288142D01*
X187034714Y-128251857D01*
X186998428Y-128179285D01*
X184476571Y-148209000D02*
X184549142Y-148172714D01*
X184658000Y-148172714D01*
X184766857Y-148209000D01*
X184839428Y-148281571D01*
X184875714Y-148354142D01*
X184912000Y-148499285D01*
X184912000Y-148608142D01*
X184875714Y-148753285D01*
X184839428Y-148825857D01*
X184766857Y-148898428D01*
X184658000Y-148934714D01*
X184585428Y-148934714D01*
X184476571Y-148898428D01*
X184440285Y-148862142D01*
X184440285Y-148608142D01*
X184585428Y-148608142D01*
X184113714Y-148934714D02*
X184113714Y-148172714D01*
X183678285Y-148934714D01*
X183678285Y-148172714D01*
X183315428Y-148934714D02*
X183315428Y-148172714D01*
X183134000Y-148172714D01*
X183025142Y-148209000D01*
X182952571Y-148281571D01*
X182916285Y-148354142D01*
X182880000Y-148499285D01*
X182880000Y-148608142D01*
X182916285Y-148753285D01*
X182952571Y-148825857D01*
X183025142Y-148898428D01*
X183134000Y-148934714D01*
X183315428Y-148934714D01*
X188449857Y-143782142D02*
X188486142Y-143818428D01*
X188595000Y-143854714D01*
X188667571Y-143854714D01*
X188776428Y-143818428D01*
X188849000Y-143745857D01*
X188885285Y-143673285D01*
X188921571Y-143528142D01*
X188921571Y-143419285D01*
X188885285Y-143274142D01*
X188849000Y-143201571D01*
X188776428Y-143129000D01*
X188667571Y-143092714D01*
X188595000Y-143092714D01*
X188486142Y-143129000D01*
X188449857Y-143165285D01*
X188159571Y-143818428D02*
X188050714Y-143854714D01*
X187869285Y-143854714D01*
X187796714Y-143818428D01*
X187760428Y-143782142D01*
X187724142Y-143709571D01*
X187724142Y-143637000D01*
X187760428Y-143564428D01*
X187796714Y-143528142D01*
X187869285Y-143491857D01*
X188014428Y-143455571D01*
X188087000Y-143419285D01*
X188123285Y-143383000D01*
X188159571Y-143310428D01*
X188159571Y-143237857D01*
X188123285Y-143165285D01*
X188087000Y-143129000D01*
X188014428Y-143092714D01*
X187833000Y-143092714D01*
X187724142Y-143129000D01*
X187470142Y-143092714D02*
X186998428Y-143092714D01*
X187252428Y-143383000D01*
X187143571Y-143383000D01*
X187071000Y-143419285D01*
X187034714Y-143455571D01*
X186998428Y-143528142D01*
X186998428Y-143709571D01*
X187034714Y-143782142D01*
X187071000Y-143818428D01*
X187143571Y-143854714D01*
X187361285Y-143854714D01*
X187433857Y-143818428D01*
X187470142Y-143782142D01*
X185184142Y-136198428D02*
X185075285Y-136234714D01*
X184893857Y-136234714D01*
X184821285Y-136198428D01*
X184785000Y-136162142D01*
X184748714Y-136089571D01*
X184748714Y-136017000D01*
X184785000Y-135944428D01*
X184821285Y-135908142D01*
X184893857Y-135871857D01*
X185039000Y-135835571D01*
X185111571Y-135799285D01*
X185147857Y-135763000D01*
X185184142Y-135690428D01*
X185184142Y-135617857D01*
X185147857Y-135545285D01*
X185111571Y-135509000D01*
X185039000Y-135472714D01*
X184857571Y-135472714D01*
X184748714Y-135509000D01*
X183986714Y-136162142D02*
X184023000Y-136198428D01*
X184131857Y-136234714D01*
X184204428Y-136234714D01*
X184313285Y-136198428D01*
X184385857Y-136125857D01*
X184422142Y-136053285D01*
X184458428Y-135908142D01*
X184458428Y-135799285D01*
X184422142Y-135654142D01*
X184385857Y-135581571D01*
X184313285Y-135509000D01*
X184204428Y-135472714D01*
X184131857Y-135472714D01*
X184023000Y-135509000D01*
X183986714Y-135545285D01*
X183297285Y-136234714D02*
X183660142Y-136234714D01*
X183660142Y-135472714D01*
X183043285Y-136234714D02*
X183043285Y-135472714D01*
X182607857Y-136234714D02*
X182934428Y-135799285D01*
X182607857Y-135472714D02*
X183043285Y-135908142D01*
X185238571Y-143564428D02*
X184658000Y-143564428D01*
X183896000Y-143854714D02*
X184331428Y-143854714D01*
X184113714Y-143854714D02*
X184113714Y-143092714D01*
X184186285Y-143201571D01*
X184258857Y-143274142D01*
X184331428Y-143310428D01*
X183605714Y-143165285D02*
X183569428Y-143129000D01*
X183496857Y-143092714D01*
X183315428Y-143092714D01*
X183242857Y-143129000D01*
X183206571Y-143165285D01*
X183170285Y-143237857D01*
X183170285Y-143310428D01*
X183206571Y-143419285D01*
X183642000Y-143854714D01*
X183170285Y-143854714D01*
X182952571Y-143092714D02*
X182698571Y-143854714D01*
X182444571Y-143092714D01*
X188449857Y-136162142D02*
X188486142Y-136198428D01*
X188595000Y-136234714D01*
X188667571Y-136234714D01*
X188776428Y-136198428D01*
X188849000Y-136125857D01*
X188885285Y-136053285D01*
X188921571Y-135908142D01*
X188921571Y-135799285D01*
X188885285Y-135654142D01*
X188849000Y-135581571D01*
X188776428Y-135509000D01*
X188667571Y-135472714D01*
X188595000Y-135472714D01*
X188486142Y-135509000D01*
X188449857Y-135545285D01*
X188159571Y-136198428D02*
X188050714Y-136234714D01*
X187869285Y-136234714D01*
X187796714Y-136198428D01*
X187760428Y-136162142D01*
X187724142Y-136089571D01*
X187724142Y-136017000D01*
X187760428Y-135944428D01*
X187796714Y-135908142D01*
X187869285Y-135871857D01*
X188014428Y-135835571D01*
X188087000Y-135799285D01*
X188123285Y-135763000D01*
X188159571Y-135690428D01*
X188159571Y-135617857D01*
X188123285Y-135545285D01*
X188087000Y-135509000D01*
X188014428Y-135472714D01*
X187833000Y-135472714D01*
X187724142Y-135509000D01*
X187071000Y-135472714D02*
X187216142Y-135472714D01*
X187288714Y-135509000D01*
X187325000Y-135545285D01*
X187397571Y-135654142D01*
X187433857Y-135799285D01*
X187433857Y-136089571D01*
X187397571Y-136162142D01*
X187361285Y-136198428D01*
X187288714Y-136234714D01*
X187143571Y-136234714D01*
X187071000Y-136198428D01*
X187034714Y-136162142D01*
X186998428Y-136089571D01*
X186998428Y-135908142D01*
X187034714Y-135835571D01*
X187071000Y-135799285D01*
X187143571Y-135763000D01*
X187288714Y-135763000D01*
X187361285Y-135799285D01*
X187397571Y-135835571D01*
X187433857Y-135908142D01*
X184875714Y-141024428D02*
X184295142Y-141024428D01*
X184585428Y-141314714D02*
X184585428Y-140734142D01*
X183569428Y-140552714D02*
X183932285Y-140552714D01*
X183968571Y-140915571D01*
X183932285Y-140879285D01*
X183859714Y-140843000D01*
X183678285Y-140843000D01*
X183605714Y-140879285D01*
X183569428Y-140915571D01*
X183533142Y-140988142D01*
X183533142Y-141169571D01*
X183569428Y-141242142D01*
X183605714Y-141278428D01*
X183678285Y-141314714D01*
X183859714Y-141314714D01*
X183932285Y-141278428D01*
X183968571Y-141242142D01*
X183315428Y-140552714D02*
X183061428Y-141314714D01*
X182807428Y-140552714D01*
X184748714Y-128614714D02*
X184748714Y-127852714D01*
X184313285Y-128614714D01*
X184313285Y-127852714D01*
X183515000Y-128542142D02*
X183551285Y-128578428D01*
X183660142Y-128614714D01*
X183732714Y-128614714D01*
X183841571Y-128578428D01*
X183914142Y-128505857D01*
X183950428Y-128433285D01*
X183986714Y-128288142D01*
X183986714Y-128179285D01*
X183950428Y-128034142D01*
X183914142Y-127961571D01*
X183841571Y-127889000D01*
X183732714Y-127852714D01*
X183660142Y-127852714D01*
X183551285Y-127889000D01*
X183515000Y-127925285D01*
X188449857Y-133622142D02*
X188486142Y-133658428D01*
X188595000Y-133694714D01*
X188667571Y-133694714D01*
X188776428Y-133658428D01*
X188849000Y-133585857D01*
X188885285Y-133513285D01*
X188921571Y-133368142D01*
X188921571Y-133259285D01*
X188885285Y-133114142D01*
X188849000Y-133041571D01*
X188776428Y-132969000D01*
X188667571Y-132932714D01*
X188595000Y-132932714D01*
X188486142Y-132969000D01*
X188449857Y-133005285D01*
X188159571Y-133658428D02*
X188050714Y-133694714D01*
X187869285Y-133694714D01*
X187796714Y-133658428D01*
X187760428Y-133622142D01*
X187724142Y-133549571D01*
X187724142Y-133477000D01*
X187760428Y-133404428D01*
X187796714Y-133368142D01*
X187869285Y-133331857D01*
X188014428Y-133295571D01*
X188087000Y-133259285D01*
X188123285Y-133223000D01*
X188159571Y-133150428D01*
X188159571Y-133077857D01*
X188123285Y-133005285D01*
X188087000Y-132969000D01*
X188014428Y-132932714D01*
X187833000Y-132932714D01*
X187724142Y-132969000D01*
X187470142Y-132932714D02*
X186962142Y-132932714D01*
X187288714Y-133694714D01*
X184494714Y-138774714D02*
X184494714Y-138012714D01*
X184059285Y-138774714D01*
X184059285Y-138012714D01*
X183261000Y-138702142D02*
X183297285Y-138738428D01*
X183406142Y-138774714D01*
X183478714Y-138774714D01*
X183587571Y-138738428D01*
X183660142Y-138665857D01*
X183696428Y-138593285D01*
X183732714Y-138448142D01*
X183732714Y-138339285D01*
X183696428Y-138194142D01*
X183660142Y-138121571D01*
X183587571Y-138049000D01*
X183478714Y-138012714D01*
X183406142Y-138012714D01*
X183297285Y-138049000D01*
X183261000Y-138085285D01*
X188449857Y-138702142D02*
X188486142Y-138738428D01*
X188595000Y-138774714D01*
X188667571Y-138774714D01*
X188776428Y-138738428D01*
X188849000Y-138665857D01*
X188885285Y-138593285D01*
X188921571Y-138448142D01*
X188921571Y-138339285D01*
X188885285Y-138194142D01*
X188849000Y-138121571D01*
X188776428Y-138049000D01*
X188667571Y-138012714D01*
X188595000Y-138012714D01*
X188486142Y-138049000D01*
X188449857Y-138085285D01*
X188159571Y-138738428D02*
X188050714Y-138774714D01*
X187869285Y-138774714D01*
X187796714Y-138738428D01*
X187760428Y-138702142D01*
X187724142Y-138629571D01*
X187724142Y-138557000D01*
X187760428Y-138484428D01*
X187796714Y-138448142D01*
X187869285Y-138411857D01*
X188014428Y-138375571D01*
X188087000Y-138339285D01*
X188123285Y-138303000D01*
X188159571Y-138230428D01*
X188159571Y-138157857D01*
X188123285Y-138085285D01*
X188087000Y-138049000D01*
X188014428Y-138012714D01*
X187833000Y-138012714D01*
X187724142Y-138049000D01*
X187034714Y-138012714D02*
X187397571Y-138012714D01*
X187433857Y-138375571D01*
X187397571Y-138339285D01*
X187325000Y-138303000D01*
X187143571Y-138303000D01*
X187071000Y-138339285D01*
X187034714Y-138375571D01*
X186998428Y-138448142D01*
X186998428Y-138629571D01*
X187034714Y-138702142D01*
X187071000Y-138738428D01*
X187143571Y-138774714D01*
X187325000Y-138774714D01*
X187397571Y-138738428D01*
X187433857Y-138702142D01*
X185093428Y-131154714D02*
X185093428Y-130392714D01*
X184839428Y-130937000D01*
X184585428Y-130392714D01*
X184585428Y-131154714D01*
X184222571Y-131154714D02*
X184222571Y-130392714D01*
X183896000Y-131118428D02*
X183787142Y-131154714D01*
X183605714Y-131154714D01*
X183533142Y-131118428D01*
X183496857Y-131082142D01*
X183460571Y-131009571D01*
X183460571Y-130937000D01*
X183496857Y-130864428D01*
X183533142Y-130828142D01*
X183605714Y-130791857D01*
X183750857Y-130755571D01*
X183823428Y-130719285D01*
X183859714Y-130683000D01*
X183896000Y-130610428D01*
X183896000Y-130537857D01*
X183859714Y-130465285D01*
X183823428Y-130429000D01*
X183750857Y-130392714D01*
X183569428Y-130392714D01*
X183460571Y-130429000D01*
X182988857Y-130392714D02*
X182843714Y-130392714D01*
X182771142Y-130429000D01*
X182698571Y-130501571D01*
X182662285Y-130646714D01*
X182662285Y-130900714D01*
X182698571Y-131045857D01*
X182771142Y-131118428D01*
X182843714Y-131154714D01*
X182988857Y-131154714D01*
X183061428Y-131118428D01*
X183134000Y-131045857D01*
X183170285Y-130900714D01*
X183170285Y-130646714D01*
X183134000Y-130501571D01*
X183061428Y-130429000D01*
X182988857Y-130392714D01*
D11*
X176530000Y-134620000D02*
X190246000Y-134620000D01*
X190246000Y-147320000D02*
X176530000Y-147320000D01*
X190246000Y-142240000D02*
X176530000Y-142240000D01*
X190246000Y-137160000D02*
X176530000Y-137160000D01*
X176530000Y-139700000D02*
X190246000Y-139700000D01*
X185674000Y-149860000D02*
X185674000Y-121920000D01*
X176530000Y-144780000D02*
X190246000Y-144780000D01*
X176530000Y-121920000D02*
X190246000Y-121920000D01*
X190246000Y-121920000D02*
X190246000Y-149860000D01*
X190246000Y-132080000D02*
X176530000Y-132080000D01*
X190246000Y-127000000D02*
X176530000Y-127000000D01*
X176530000Y-124460000D02*
X190246000Y-124460000D01*
X176530000Y-149860000D02*
X176530000Y-121920000D01*
X176530000Y-129540000D02*
X190246000Y-129540000D01*
X190246000Y-149860000D02*
X176530000Y-149860000D01*
X87884000Y-149860000D02*
X87884000Y-121920000D01*
X92456000Y-147320000D02*
X78740000Y-147320000D01*
X78740000Y-144780000D02*
X92456000Y-144780000D01*
X92456000Y-142240000D02*
X78740000Y-142240000D01*
X78740000Y-139700000D02*
X92456000Y-139700000D01*
X92456000Y-137160000D02*
X78740000Y-137160000D01*
X78740000Y-134620000D02*
X92456000Y-134620000D01*
X92456000Y-132080000D02*
X78740000Y-132080000D01*
X78740000Y-129540000D02*
X92456000Y-129540000D01*
X92456000Y-127000000D02*
X78740000Y-127000000D01*
X78740000Y-124460000D02*
X92456000Y-124460000D01*
X78740000Y-149860000D02*
X78740000Y-121920000D01*
X92456000Y-149860000D02*
X78740000Y-149860000D01*
X92456000Y-121920000D02*
X92456000Y-149860000D01*
X78740000Y-121920000D02*
X92456000Y-121920000D01*
D10*
X86595857Y-148862142D02*
X86632142Y-148898428D01*
X86741000Y-148934714D01*
X86813571Y-148934714D01*
X86922428Y-148898428D01*
X86995000Y-148825857D01*
X87031285Y-148753285D01*
X87067571Y-148608142D01*
X87067571Y-148499285D01*
X87031285Y-148354142D01*
X86995000Y-148281571D01*
X86922428Y-148209000D01*
X86813571Y-148172714D01*
X86741000Y-148172714D01*
X86632142Y-148209000D01*
X86595857Y-148245285D01*
X86305571Y-148898428D02*
X86196714Y-148934714D01*
X86015285Y-148934714D01*
X85942714Y-148898428D01*
X85906428Y-148862142D01*
X85870142Y-148789571D01*
X85870142Y-148717000D01*
X85906428Y-148644428D01*
X85942714Y-148608142D01*
X86015285Y-148571857D01*
X86160428Y-148535571D01*
X86233000Y-148499285D01*
X86269285Y-148463000D01*
X86305571Y-148390428D01*
X86305571Y-148317857D01*
X86269285Y-148245285D01*
X86233000Y-148209000D01*
X86160428Y-148172714D01*
X85979000Y-148172714D01*
X85870142Y-148209000D01*
X85144428Y-148934714D02*
X85579857Y-148934714D01*
X85362142Y-148934714D02*
X85362142Y-148172714D01*
X85434714Y-148281571D01*
X85507285Y-148354142D01*
X85579857Y-148390428D01*
X90496571Y-148209000D02*
X90569142Y-148172714D01*
X90678000Y-148172714D01*
X90786857Y-148209000D01*
X90859428Y-148281571D01*
X90895714Y-148354142D01*
X90932000Y-148499285D01*
X90932000Y-148608142D01*
X90895714Y-148753285D01*
X90859428Y-148825857D01*
X90786857Y-148898428D01*
X90678000Y-148934714D01*
X90605428Y-148934714D01*
X90496571Y-148898428D01*
X90460285Y-148862142D01*
X90460285Y-148608142D01*
X90605428Y-148608142D01*
X90133714Y-148934714D02*
X90133714Y-148172714D01*
X89698285Y-148934714D01*
X89698285Y-148172714D01*
X89335428Y-148934714D02*
X89335428Y-148172714D01*
X89154000Y-148172714D01*
X89045142Y-148209000D01*
X88972571Y-148281571D01*
X88936285Y-148354142D01*
X88900000Y-148499285D01*
X88900000Y-148608142D01*
X88936285Y-148753285D01*
X88972571Y-148825857D01*
X89045142Y-148898428D01*
X89154000Y-148934714D01*
X89335428Y-148934714D01*
X86595857Y-146322142D02*
X86632142Y-146358428D01*
X86741000Y-146394714D01*
X86813571Y-146394714D01*
X86922428Y-146358428D01*
X86995000Y-146285857D01*
X87031285Y-146213285D01*
X87067571Y-146068142D01*
X87067571Y-145959285D01*
X87031285Y-145814142D01*
X86995000Y-145741571D01*
X86922428Y-145669000D01*
X86813571Y-145632714D01*
X86741000Y-145632714D01*
X86632142Y-145669000D01*
X86595857Y-145705285D01*
X86305571Y-146358428D02*
X86196714Y-146394714D01*
X86015285Y-146394714D01*
X85942714Y-146358428D01*
X85906428Y-146322142D01*
X85870142Y-146249571D01*
X85870142Y-146177000D01*
X85906428Y-146104428D01*
X85942714Y-146068142D01*
X86015285Y-146031857D01*
X86160428Y-145995571D01*
X86233000Y-145959285D01*
X86269285Y-145923000D01*
X86305571Y-145850428D01*
X86305571Y-145777857D01*
X86269285Y-145705285D01*
X86233000Y-145669000D01*
X86160428Y-145632714D01*
X85979000Y-145632714D01*
X85870142Y-145669000D01*
X85579857Y-145705285D02*
X85543571Y-145669000D01*
X85471000Y-145632714D01*
X85289571Y-145632714D01*
X85217000Y-145669000D01*
X85180714Y-145705285D01*
X85144428Y-145777857D01*
X85144428Y-145850428D01*
X85180714Y-145959285D01*
X85616142Y-146394714D01*
X85144428Y-146394714D01*
X91258571Y-146104428D02*
X90678000Y-146104428D01*
X90968285Y-146394714D02*
X90968285Y-145814142D01*
X89916000Y-146394714D02*
X90351428Y-146394714D01*
X90133714Y-146394714D02*
X90133714Y-145632714D01*
X90206285Y-145741571D01*
X90278857Y-145814142D01*
X90351428Y-145850428D01*
X89625714Y-145705285D02*
X89589428Y-145669000D01*
X89516857Y-145632714D01*
X89335428Y-145632714D01*
X89262857Y-145669000D01*
X89226571Y-145705285D01*
X89190285Y-145777857D01*
X89190285Y-145850428D01*
X89226571Y-145959285D01*
X89662000Y-146394714D01*
X89190285Y-146394714D01*
X88972571Y-145632714D02*
X88718571Y-146394714D01*
X88464571Y-145632714D01*
X86595857Y-143782142D02*
X86632142Y-143818428D01*
X86741000Y-143854714D01*
X86813571Y-143854714D01*
X86922428Y-143818428D01*
X86995000Y-143745857D01*
X87031285Y-143673285D01*
X87067571Y-143528142D01*
X87067571Y-143419285D01*
X87031285Y-143274142D01*
X86995000Y-143201571D01*
X86922428Y-143129000D01*
X86813571Y-143092714D01*
X86741000Y-143092714D01*
X86632142Y-143129000D01*
X86595857Y-143165285D01*
X86305571Y-143818428D02*
X86196714Y-143854714D01*
X86015285Y-143854714D01*
X85942714Y-143818428D01*
X85906428Y-143782142D01*
X85870142Y-143709571D01*
X85870142Y-143637000D01*
X85906428Y-143564428D01*
X85942714Y-143528142D01*
X86015285Y-143491857D01*
X86160428Y-143455571D01*
X86233000Y-143419285D01*
X86269285Y-143383000D01*
X86305571Y-143310428D01*
X86305571Y-143237857D01*
X86269285Y-143165285D01*
X86233000Y-143129000D01*
X86160428Y-143092714D01*
X85979000Y-143092714D01*
X85870142Y-143129000D01*
X85616142Y-143092714D02*
X85144428Y-143092714D01*
X85398428Y-143383000D01*
X85289571Y-143383000D01*
X85217000Y-143419285D01*
X85180714Y-143455571D01*
X85144428Y-143528142D01*
X85144428Y-143709571D01*
X85180714Y-143782142D01*
X85217000Y-143818428D01*
X85289571Y-143854714D01*
X85507285Y-143854714D01*
X85579857Y-143818428D01*
X85616142Y-143782142D01*
X91258571Y-143564428D02*
X90678000Y-143564428D01*
X89916000Y-143854714D02*
X90351428Y-143854714D01*
X90133714Y-143854714D02*
X90133714Y-143092714D01*
X90206285Y-143201571D01*
X90278857Y-143274142D01*
X90351428Y-143310428D01*
X89625714Y-143165285D02*
X89589428Y-143129000D01*
X89516857Y-143092714D01*
X89335428Y-143092714D01*
X89262857Y-143129000D01*
X89226571Y-143165285D01*
X89190285Y-143237857D01*
X89190285Y-143310428D01*
X89226571Y-143419285D01*
X89662000Y-143854714D01*
X89190285Y-143854714D01*
X88972571Y-143092714D02*
X88718571Y-143854714D01*
X88464571Y-143092714D01*
X90895714Y-141024428D02*
X90315142Y-141024428D01*
X90605428Y-141314714D02*
X90605428Y-140734142D01*
X89589428Y-140552714D02*
X89952285Y-140552714D01*
X89988571Y-140915571D01*
X89952285Y-140879285D01*
X89879714Y-140843000D01*
X89698285Y-140843000D01*
X89625714Y-140879285D01*
X89589428Y-140915571D01*
X89553142Y-140988142D01*
X89553142Y-141169571D01*
X89589428Y-141242142D01*
X89625714Y-141278428D01*
X89698285Y-141314714D01*
X89879714Y-141314714D01*
X89952285Y-141278428D01*
X89988571Y-141242142D01*
X89335428Y-140552714D02*
X89081428Y-141314714D01*
X88827428Y-140552714D01*
X86595857Y-141242142D02*
X86632142Y-141278428D01*
X86741000Y-141314714D01*
X86813571Y-141314714D01*
X86922428Y-141278428D01*
X86995000Y-141205857D01*
X87031285Y-141133285D01*
X87067571Y-140988142D01*
X87067571Y-140879285D01*
X87031285Y-140734142D01*
X86995000Y-140661571D01*
X86922428Y-140589000D01*
X86813571Y-140552714D01*
X86741000Y-140552714D01*
X86632142Y-140589000D01*
X86595857Y-140625285D01*
X86305571Y-141278428D02*
X86196714Y-141314714D01*
X86015285Y-141314714D01*
X85942714Y-141278428D01*
X85906428Y-141242142D01*
X85870142Y-141169571D01*
X85870142Y-141097000D01*
X85906428Y-141024428D01*
X85942714Y-140988142D01*
X86015285Y-140951857D01*
X86160428Y-140915571D01*
X86233000Y-140879285D01*
X86269285Y-140843000D01*
X86305571Y-140770428D01*
X86305571Y-140697857D01*
X86269285Y-140625285D01*
X86233000Y-140589000D01*
X86160428Y-140552714D01*
X85979000Y-140552714D01*
X85870142Y-140589000D01*
X85217000Y-140806714D02*
X85217000Y-141314714D01*
X85398428Y-140516428D02*
X85579857Y-141060714D01*
X85108142Y-141060714D01*
X90514714Y-138774714D02*
X90514714Y-138012714D01*
X90079285Y-138774714D01*
X90079285Y-138012714D01*
X89281000Y-138702142D02*
X89317285Y-138738428D01*
X89426142Y-138774714D01*
X89498714Y-138774714D01*
X89607571Y-138738428D01*
X89680142Y-138665857D01*
X89716428Y-138593285D01*
X89752714Y-138448142D01*
X89752714Y-138339285D01*
X89716428Y-138194142D01*
X89680142Y-138121571D01*
X89607571Y-138049000D01*
X89498714Y-138012714D01*
X89426142Y-138012714D01*
X89317285Y-138049000D01*
X89281000Y-138085285D01*
X86595857Y-138702142D02*
X86632142Y-138738428D01*
X86741000Y-138774714D01*
X86813571Y-138774714D01*
X86922428Y-138738428D01*
X86995000Y-138665857D01*
X87031285Y-138593285D01*
X87067571Y-138448142D01*
X87067571Y-138339285D01*
X87031285Y-138194142D01*
X86995000Y-138121571D01*
X86922428Y-138049000D01*
X86813571Y-138012714D01*
X86741000Y-138012714D01*
X86632142Y-138049000D01*
X86595857Y-138085285D01*
X86305571Y-138738428D02*
X86196714Y-138774714D01*
X86015285Y-138774714D01*
X85942714Y-138738428D01*
X85906428Y-138702142D01*
X85870142Y-138629571D01*
X85870142Y-138557000D01*
X85906428Y-138484428D01*
X85942714Y-138448142D01*
X86015285Y-138411857D01*
X86160428Y-138375571D01*
X86233000Y-138339285D01*
X86269285Y-138303000D01*
X86305571Y-138230428D01*
X86305571Y-138157857D01*
X86269285Y-138085285D01*
X86233000Y-138049000D01*
X86160428Y-138012714D01*
X85979000Y-138012714D01*
X85870142Y-138049000D01*
X85180714Y-138012714D02*
X85543571Y-138012714D01*
X85579857Y-138375571D01*
X85543571Y-138339285D01*
X85471000Y-138303000D01*
X85289571Y-138303000D01*
X85217000Y-138339285D01*
X85180714Y-138375571D01*
X85144428Y-138448142D01*
X85144428Y-138629571D01*
X85180714Y-138702142D01*
X85217000Y-138738428D01*
X85289571Y-138774714D01*
X85471000Y-138774714D01*
X85543571Y-138738428D01*
X85579857Y-138702142D01*
X91204142Y-136198428D02*
X91095285Y-136234714D01*
X90913857Y-136234714D01*
X90841285Y-136198428D01*
X90805000Y-136162142D01*
X90768714Y-136089571D01*
X90768714Y-136017000D01*
X90805000Y-135944428D01*
X90841285Y-135908142D01*
X90913857Y-135871857D01*
X91059000Y-135835571D01*
X91131571Y-135799285D01*
X91167857Y-135763000D01*
X91204142Y-135690428D01*
X91204142Y-135617857D01*
X91167857Y-135545285D01*
X91131571Y-135509000D01*
X91059000Y-135472714D01*
X90877571Y-135472714D01*
X90768714Y-135509000D01*
X90006714Y-136162142D02*
X90043000Y-136198428D01*
X90151857Y-136234714D01*
X90224428Y-136234714D01*
X90333285Y-136198428D01*
X90405857Y-136125857D01*
X90442142Y-136053285D01*
X90478428Y-135908142D01*
X90478428Y-135799285D01*
X90442142Y-135654142D01*
X90405857Y-135581571D01*
X90333285Y-135509000D01*
X90224428Y-135472714D01*
X90151857Y-135472714D01*
X90043000Y-135509000D01*
X90006714Y-135545285D01*
X89317285Y-136234714D02*
X89680142Y-136234714D01*
X89680142Y-135472714D01*
X89063285Y-136234714D02*
X89063285Y-135472714D01*
X88627857Y-136234714D02*
X88954428Y-135799285D01*
X88627857Y-135472714D02*
X89063285Y-135908142D01*
X86595857Y-136162142D02*
X86632142Y-136198428D01*
X86741000Y-136234714D01*
X86813571Y-136234714D01*
X86922428Y-136198428D01*
X86995000Y-136125857D01*
X87031285Y-136053285D01*
X87067571Y-135908142D01*
X87067571Y-135799285D01*
X87031285Y-135654142D01*
X86995000Y-135581571D01*
X86922428Y-135509000D01*
X86813571Y-135472714D01*
X86741000Y-135472714D01*
X86632142Y-135509000D01*
X86595857Y-135545285D01*
X86305571Y-136198428D02*
X86196714Y-136234714D01*
X86015285Y-136234714D01*
X85942714Y-136198428D01*
X85906428Y-136162142D01*
X85870142Y-136089571D01*
X85870142Y-136017000D01*
X85906428Y-135944428D01*
X85942714Y-135908142D01*
X86015285Y-135871857D01*
X86160428Y-135835571D01*
X86233000Y-135799285D01*
X86269285Y-135763000D01*
X86305571Y-135690428D01*
X86305571Y-135617857D01*
X86269285Y-135545285D01*
X86233000Y-135509000D01*
X86160428Y-135472714D01*
X85979000Y-135472714D01*
X85870142Y-135509000D01*
X85217000Y-135472714D02*
X85362142Y-135472714D01*
X85434714Y-135509000D01*
X85471000Y-135545285D01*
X85543571Y-135654142D01*
X85579857Y-135799285D01*
X85579857Y-136089571D01*
X85543571Y-136162142D01*
X85507285Y-136198428D01*
X85434714Y-136234714D01*
X85289571Y-136234714D01*
X85217000Y-136198428D01*
X85180714Y-136162142D01*
X85144428Y-136089571D01*
X85144428Y-135908142D01*
X85180714Y-135835571D01*
X85217000Y-135799285D01*
X85289571Y-135763000D01*
X85434714Y-135763000D01*
X85507285Y-135799285D01*
X85543571Y-135835571D01*
X85579857Y-135908142D01*
X86958714Y-123534714D02*
X86958714Y-122772714D01*
X86523285Y-123534714D01*
X86523285Y-122772714D01*
X85725000Y-123462142D02*
X85761285Y-123498428D01*
X85870142Y-123534714D01*
X85942714Y-123534714D01*
X86051571Y-123498428D01*
X86124142Y-123425857D01*
X86160428Y-123353285D01*
X86196714Y-123208142D01*
X86196714Y-123099285D01*
X86160428Y-122954142D01*
X86124142Y-122881571D01*
X86051571Y-122809000D01*
X85942714Y-122772714D01*
X85870142Y-122772714D01*
X85761285Y-122809000D01*
X85725000Y-122845285D01*
X90768714Y-123534714D02*
X90768714Y-122772714D01*
X90333285Y-123534714D01*
X90333285Y-122772714D01*
X89535000Y-123462142D02*
X89571285Y-123498428D01*
X89680142Y-123534714D01*
X89752714Y-123534714D01*
X89861571Y-123498428D01*
X89934142Y-123425857D01*
X89970428Y-123353285D01*
X90006714Y-123208142D01*
X90006714Y-123099285D01*
X89970428Y-122954142D01*
X89934142Y-122881571D01*
X89861571Y-122809000D01*
X89752714Y-122772714D01*
X89680142Y-122772714D01*
X89571285Y-122809000D01*
X89535000Y-122845285D01*
X86958714Y-126074714D02*
X86958714Y-125312714D01*
X86523285Y-126074714D01*
X86523285Y-125312714D01*
X85725000Y-126002142D02*
X85761285Y-126038428D01*
X85870142Y-126074714D01*
X85942714Y-126074714D01*
X86051571Y-126038428D01*
X86124142Y-125965857D01*
X86160428Y-125893285D01*
X86196714Y-125748142D01*
X86196714Y-125639285D01*
X86160428Y-125494142D01*
X86124142Y-125421571D01*
X86051571Y-125349000D01*
X85942714Y-125312714D01*
X85870142Y-125312714D01*
X85761285Y-125349000D01*
X85725000Y-125385285D01*
X90768714Y-126074714D02*
X90768714Y-125312714D01*
X90333285Y-126074714D01*
X90333285Y-125312714D01*
X89535000Y-126002142D02*
X89571285Y-126038428D01*
X89680142Y-126074714D01*
X89752714Y-126074714D01*
X89861571Y-126038428D01*
X89934142Y-125965857D01*
X89970428Y-125893285D01*
X90006714Y-125748142D01*
X90006714Y-125639285D01*
X89970428Y-125494142D01*
X89934142Y-125421571D01*
X89861571Y-125349000D01*
X89752714Y-125312714D01*
X89680142Y-125312714D01*
X89571285Y-125349000D01*
X89535000Y-125385285D01*
X86849857Y-128542142D02*
X86886142Y-128578428D01*
X86995000Y-128614714D01*
X87067571Y-128614714D01*
X87176428Y-128578428D01*
X87249000Y-128505857D01*
X87285285Y-128433285D01*
X87321571Y-128288142D01*
X87321571Y-128179285D01*
X87285285Y-128034142D01*
X87249000Y-127961571D01*
X87176428Y-127889000D01*
X87067571Y-127852714D01*
X86995000Y-127852714D01*
X86886142Y-127889000D01*
X86849857Y-127925285D01*
X86559571Y-128578428D02*
X86450714Y-128614714D01*
X86269285Y-128614714D01*
X86196714Y-128578428D01*
X86160428Y-128542142D01*
X86124142Y-128469571D01*
X86124142Y-128397000D01*
X86160428Y-128324428D01*
X86196714Y-128288142D01*
X86269285Y-128251857D01*
X86414428Y-128215571D01*
X86487000Y-128179285D01*
X86523285Y-128143000D01*
X86559571Y-128070428D01*
X86559571Y-127997857D01*
X86523285Y-127925285D01*
X86487000Y-127889000D01*
X86414428Y-127852714D01*
X86233000Y-127852714D01*
X86124142Y-127889000D01*
X85761285Y-128614714D02*
X85616142Y-128614714D01*
X85543571Y-128578428D01*
X85507285Y-128542142D01*
X85434714Y-128433285D01*
X85398428Y-128288142D01*
X85398428Y-127997857D01*
X85434714Y-127925285D01*
X85471000Y-127889000D01*
X85543571Y-127852714D01*
X85688714Y-127852714D01*
X85761285Y-127889000D01*
X85797571Y-127925285D01*
X85833857Y-127997857D01*
X85833857Y-128179285D01*
X85797571Y-128251857D01*
X85761285Y-128288142D01*
X85688714Y-128324428D01*
X85543571Y-128324428D01*
X85471000Y-128288142D01*
X85434714Y-128251857D01*
X85398428Y-128179285D01*
X90768714Y-128614714D02*
X90768714Y-127852714D01*
X90333285Y-128614714D01*
X90333285Y-127852714D01*
X89535000Y-128542142D02*
X89571285Y-128578428D01*
X89680142Y-128614714D01*
X89752714Y-128614714D01*
X89861571Y-128578428D01*
X89934142Y-128505857D01*
X89970428Y-128433285D01*
X90006714Y-128288142D01*
X90006714Y-128179285D01*
X89970428Y-128034142D01*
X89934142Y-127961571D01*
X89861571Y-127889000D01*
X89752714Y-127852714D01*
X89680142Y-127852714D01*
X89571285Y-127889000D01*
X89535000Y-127925285D01*
X91113428Y-133694714D02*
X91113428Y-132932714D01*
X90859428Y-133477000D01*
X90605428Y-132932714D01*
X90605428Y-133694714D01*
X90097428Y-132932714D02*
X89952285Y-132932714D01*
X89879714Y-132969000D01*
X89807142Y-133041571D01*
X89770857Y-133186714D01*
X89770857Y-133440714D01*
X89807142Y-133585857D01*
X89879714Y-133658428D01*
X89952285Y-133694714D01*
X90097428Y-133694714D01*
X90170000Y-133658428D01*
X90242571Y-133585857D01*
X90278857Y-133440714D01*
X90278857Y-133186714D01*
X90242571Y-133041571D01*
X90170000Y-132969000D01*
X90097428Y-132932714D01*
X89480571Y-133658428D02*
X89371714Y-133694714D01*
X89190285Y-133694714D01*
X89117714Y-133658428D01*
X89081428Y-133622142D01*
X89045142Y-133549571D01*
X89045142Y-133477000D01*
X89081428Y-133404428D01*
X89117714Y-133368142D01*
X89190285Y-133331857D01*
X89335428Y-133295571D01*
X89408000Y-133259285D01*
X89444285Y-133223000D01*
X89480571Y-133150428D01*
X89480571Y-133077857D01*
X89444285Y-133005285D01*
X89408000Y-132969000D01*
X89335428Y-132932714D01*
X89154000Y-132932714D01*
X89045142Y-132969000D01*
X88718571Y-133694714D02*
X88718571Y-132932714D01*
X86595857Y-133622142D02*
X86632142Y-133658428D01*
X86741000Y-133694714D01*
X86813571Y-133694714D01*
X86922428Y-133658428D01*
X86995000Y-133585857D01*
X87031285Y-133513285D01*
X87067571Y-133368142D01*
X87067571Y-133259285D01*
X87031285Y-133114142D01*
X86995000Y-133041571D01*
X86922428Y-132969000D01*
X86813571Y-132932714D01*
X86741000Y-132932714D01*
X86632142Y-132969000D01*
X86595857Y-133005285D01*
X86305571Y-133658428D02*
X86196714Y-133694714D01*
X86015285Y-133694714D01*
X85942714Y-133658428D01*
X85906428Y-133622142D01*
X85870142Y-133549571D01*
X85870142Y-133477000D01*
X85906428Y-133404428D01*
X85942714Y-133368142D01*
X86015285Y-133331857D01*
X86160428Y-133295571D01*
X86233000Y-133259285D01*
X86269285Y-133223000D01*
X86305571Y-133150428D01*
X86305571Y-133077857D01*
X86269285Y-133005285D01*
X86233000Y-132969000D01*
X86160428Y-132932714D01*
X85979000Y-132932714D01*
X85870142Y-132969000D01*
X85616142Y-132932714D02*
X85108142Y-132932714D01*
X85434714Y-133694714D01*
X86595857Y-131082142D02*
X86632142Y-131118428D01*
X86741000Y-131154714D01*
X86813571Y-131154714D01*
X86922428Y-131118428D01*
X86995000Y-131045857D01*
X87031285Y-130973285D01*
X87067571Y-130828142D01*
X87067571Y-130719285D01*
X87031285Y-130574142D01*
X86995000Y-130501571D01*
X86922428Y-130429000D01*
X86813571Y-130392714D01*
X86741000Y-130392714D01*
X86632142Y-130429000D01*
X86595857Y-130465285D01*
X86305571Y-131118428D02*
X86196714Y-131154714D01*
X86015285Y-131154714D01*
X85942714Y-131118428D01*
X85906428Y-131082142D01*
X85870142Y-131009571D01*
X85870142Y-130937000D01*
X85906428Y-130864428D01*
X85942714Y-130828142D01*
X86015285Y-130791857D01*
X86160428Y-130755571D01*
X86233000Y-130719285D01*
X86269285Y-130683000D01*
X86305571Y-130610428D01*
X86305571Y-130537857D01*
X86269285Y-130465285D01*
X86233000Y-130429000D01*
X86160428Y-130392714D01*
X85979000Y-130392714D01*
X85870142Y-130429000D01*
X85434714Y-130719285D02*
X85507285Y-130683000D01*
X85543571Y-130646714D01*
X85579857Y-130574142D01*
X85579857Y-130537857D01*
X85543571Y-130465285D01*
X85507285Y-130429000D01*
X85434714Y-130392714D01*
X85289571Y-130392714D01*
X85217000Y-130429000D01*
X85180714Y-130465285D01*
X85144428Y-130537857D01*
X85144428Y-130574142D01*
X85180714Y-130646714D01*
X85217000Y-130683000D01*
X85289571Y-130719285D01*
X85434714Y-130719285D01*
X85507285Y-130755571D01*
X85543571Y-130791857D01*
X85579857Y-130864428D01*
X85579857Y-131009571D01*
X85543571Y-131082142D01*
X85507285Y-131118428D01*
X85434714Y-131154714D01*
X85289571Y-131154714D01*
X85217000Y-131118428D01*
X85180714Y-131082142D01*
X85144428Y-131009571D01*
X85144428Y-130864428D01*
X85180714Y-130791857D01*
X85217000Y-130755571D01*
X85289571Y-130719285D01*
X91113428Y-131154714D02*
X91113428Y-130392714D01*
X90859428Y-130937000D01*
X90605428Y-130392714D01*
X90605428Y-131154714D01*
X90242571Y-131154714D02*
X90242571Y-130392714D01*
X89916000Y-131118428D02*
X89807142Y-131154714D01*
X89625714Y-131154714D01*
X89553142Y-131118428D01*
X89516857Y-131082142D01*
X89480571Y-131009571D01*
X89480571Y-130937000D01*
X89516857Y-130864428D01*
X89553142Y-130828142D01*
X89625714Y-130791857D01*
X89770857Y-130755571D01*
X89843428Y-130719285D01*
X89879714Y-130683000D01*
X89916000Y-130610428D01*
X89916000Y-130537857D01*
X89879714Y-130465285D01*
X89843428Y-130429000D01*
X89770857Y-130392714D01*
X89589428Y-130392714D01*
X89480571Y-130429000D01*
X89008857Y-130392714D02*
X88863714Y-130392714D01*
X88791142Y-130429000D01*
X88718571Y-130501571D01*
X88682285Y-130646714D01*
X88682285Y-130900714D01*
X88718571Y-131045857D01*
X88791142Y-131118428D01*
X88863714Y-131154714D01*
X89008857Y-131154714D01*
X89081428Y-131118428D01*
X89154000Y-131045857D01*
X89190285Y-130900714D01*
X89190285Y-130646714D01*
X89154000Y-130501571D01*
X89081428Y-130429000D01*
X89008857Y-130392714D01*
X189701714Y-151982714D02*
X190064571Y-151982714D01*
X190064571Y-151220714D01*
X189048571Y-151257000D02*
X189121142Y-151220714D01*
X189230000Y-151220714D01*
X189338857Y-151257000D01*
X189411428Y-151329571D01*
X189447714Y-151402142D01*
X189484000Y-151547285D01*
X189484000Y-151656142D01*
X189447714Y-151801285D01*
X189411428Y-151873857D01*
X189338857Y-151946428D01*
X189230000Y-151982714D01*
X189157428Y-151982714D01*
X189048571Y-151946428D01*
X189012285Y-151910142D01*
X189012285Y-151656142D01*
X189157428Y-151656142D01*
X188758285Y-151220714D02*
X188286571Y-151220714D01*
X188540571Y-151511000D01*
X188431714Y-151511000D01*
X188359142Y-151547285D01*
X188322857Y-151583571D01*
X188286571Y-151656142D01*
X188286571Y-151837571D01*
X188322857Y-151910142D01*
X188359142Y-151946428D01*
X188431714Y-151982714D01*
X188649428Y-151982714D01*
X188722000Y-151946428D01*
X188758285Y-151910142D01*
X187960000Y-151692428D02*
X187379428Y-151692428D01*
X186871428Y-151220714D02*
X186798857Y-151220714D01*
X186726285Y-151257000D01*
X186690000Y-151293285D01*
X186653714Y-151365857D01*
X186617428Y-151511000D01*
X186617428Y-151692428D01*
X186653714Y-151837571D01*
X186690000Y-151910142D01*
X186726285Y-151946428D01*
X186798857Y-151982714D01*
X186871428Y-151982714D01*
X186944000Y-151946428D01*
X186980285Y-151910142D01*
X187016571Y-151837571D01*
X187052857Y-151692428D01*
X187052857Y-151511000D01*
X187016571Y-151365857D01*
X186980285Y-151293285D01*
X186944000Y-151257000D01*
X186871428Y-151220714D01*
X186145714Y-151220714D02*
X186073142Y-151220714D01*
X186000571Y-151257000D01*
X185964285Y-151293285D01*
X185928000Y-151365857D01*
X185891714Y-151511000D01*
X185891714Y-151692428D01*
X185928000Y-151837571D01*
X185964285Y-151910142D01*
X186000571Y-151946428D01*
X186073142Y-151982714D01*
X186145714Y-151982714D01*
X186218285Y-151946428D01*
X186254571Y-151910142D01*
X186290857Y-151837571D01*
X186327142Y-151692428D01*
X186327142Y-151511000D01*
X186290857Y-151365857D01*
X186254571Y-151293285D01*
X186218285Y-151257000D01*
X186145714Y-151220714D01*
X185420000Y-151220714D02*
X185347428Y-151220714D01*
X185274857Y-151257000D01*
X185238571Y-151293285D01*
X185202285Y-151365857D01*
X185166000Y-151511000D01*
X185166000Y-151692428D01*
X185202285Y-151837571D01*
X185238571Y-151910142D01*
X185274857Y-151946428D01*
X185347428Y-151982714D01*
X185420000Y-151982714D01*
X185492571Y-151946428D01*
X185528857Y-151910142D01*
X185565142Y-151837571D01*
X185601428Y-151692428D01*
X185601428Y-151511000D01*
X185565142Y-151365857D01*
X185528857Y-151293285D01*
X185492571Y-151257000D01*
X185420000Y-151220714D01*
X184694285Y-151220714D02*
X184621714Y-151220714D01*
X184549142Y-151257000D01*
X184512857Y-151293285D01*
X184476571Y-151365857D01*
X184440285Y-151511000D01*
X184440285Y-151692428D01*
X184476571Y-151837571D01*
X184512857Y-151910142D01*
X184549142Y-151946428D01*
X184621714Y-151982714D01*
X184694285Y-151982714D01*
X184766857Y-151946428D01*
X184803142Y-151910142D01*
X184839428Y-151837571D01*
X184875714Y-151692428D01*
X184875714Y-151511000D01*
X184839428Y-151365857D01*
X184803142Y-151293285D01*
X184766857Y-151257000D01*
X184694285Y-151220714D01*
X183968571Y-151220714D02*
X183896000Y-151220714D01*
X183823428Y-151257000D01*
X183787142Y-151293285D01*
X183750857Y-151365857D01*
X183714571Y-151511000D01*
X183714571Y-151692428D01*
X183750857Y-151837571D01*
X183787142Y-151910142D01*
X183823428Y-151946428D01*
X183896000Y-151982714D01*
X183968571Y-151982714D01*
X184041142Y-151946428D01*
X184077428Y-151910142D01*
X184113714Y-151837571D01*
X184150000Y-151692428D01*
X184150000Y-151511000D01*
X184113714Y-151365857D01*
X184077428Y-151293285D01*
X184041142Y-151257000D01*
X183968571Y-151220714D01*
X182988857Y-151982714D02*
X183424285Y-151982714D01*
X183206571Y-151982714D02*
X183206571Y-151220714D01*
X183279142Y-151329571D01*
X183351714Y-151402142D01*
X183424285Y-151438428D01*
X182335714Y-151474714D02*
X182335714Y-151982714D01*
X182517142Y-151184428D02*
X182698571Y-151728714D01*
X182226857Y-151728714D01*
D11*
X163517456Y-123157850D02*
G75*
G02X162527719Y-124147669I1582544J-2572150D01*
G01*
X162605501Y-122245552D02*
X163517669Y-123157719D01*
X161615552Y-123235501D02*
X162605501Y-122245552D01*
X162527719Y-124147669D02*
X161615552Y-123235501D01*
X159258000Y-123444000D02*
X159258000Y-128079500D01*
X159258000Y-123444000D02*
X151638000Y-123444000D01*
X151638000Y-128079500D02*
X159258000Y-128079500D01*
X151638000Y-123444000D02*
X140208000Y-123444000D01*
X140208000Y-128079500D02*
X151638000Y-128079500D01*
X135128000Y-124523500D02*
X135128000Y-127063500D01*
X135128000Y-124523500D02*
X140208000Y-123444000D01*
X140208000Y-128079500D02*
X135128000Y-127063500D01*
X140208000Y-148399500D02*
X135128000Y-147383500D01*
X135128000Y-144843500D02*
X140208000Y-143764000D01*
X135128000Y-144843500D02*
X135128000Y-147383500D01*
X140208000Y-148399500D02*
X151638000Y-148399500D01*
X151638000Y-143764000D02*
X140208000Y-143764000D01*
X151638000Y-148399500D02*
X159258000Y-148399500D01*
X159258000Y-143764000D02*
X151638000Y-143764000D01*
X159258000Y-143764000D02*
X159258000Y-148399500D01*
X162527719Y-144467669D02*
X161615552Y-143555501D01*
X161615552Y-143555501D02*
X162605501Y-142565552D01*
X162605501Y-142565552D02*
X163517669Y-143477719D01*
X163517456Y-143477850D02*
G75*
G02X162527719Y-144467669I1582544J-2572150D01*
G01*
D12*
X167965380Y-128801904D02*
X166965380Y-128801904D01*
X166965380Y-129040000D01*
X167013000Y-129182857D01*
X167108238Y-129278095D01*
X167203476Y-129325714D01*
X167393952Y-129373333D01*
X167536809Y-129373333D01*
X167727285Y-129325714D01*
X167822523Y-129278095D01*
X167917761Y-129182857D01*
X167965380Y-129040000D01*
X167965380Y-128801904D01*
X167965380Y-130325714D02*
X167965380Y-129754285D01*
X167965380Y-130040000D02*
X166965380Y-130040000D01*
X167108238Y-129944761D01*
X167203476Y-129849523D01*
X167251095Y-129754285D01*
X167838380Y-149121904D02*
X166838380Y-149121904D01*
X166838380Y-149360000D01*
X166886000Y-149502857D01*
X166981238Y-149598095D01*
X167076476Y-149645714D01*
X167266952Y-149693333D01*
X167409809Y-149693333D01*
X167600285Y-149645714D01*
X167695523Y-149598095D01*
X167790761Y-149502857D01*
X167838380Y-149360000D01*
X167838380Y-149121904D01*
X166933619Y-150074285D02*
X166886000Y-150121904D01*
X166838380Y-150217142D01*
X166838380Y-150455238D01*
X166886000Y-150550476D01*
X166933619Y-150598095D01*
X167028857Y-150645714D01*
X167124095Y-150645714D01*
X167266952Y-150598095D01*
X167838380Y-150026666D01*
X167838380Y-150645714D01*
M02*
