G04 #@! TF.GenerationSoftware,KiCad,Pcbnew,(5.1.12)-1*
G04 #@! TF.CreationDate,2022-02-08T15:15:27-06:00*
G04 #@! TF.ProjectId,optical_digitizer,6f707469-6361-46c5-9f64-69676974697a,4.2*
G04 #@! TF.SameCoordinates,Original*
G04 #@! TF.FileFunction,Soldermask,Bot*
G04 #@! TF.FilePolarity,Negative*
%FSLAX46Y46*%
G04 Gerber Fmt 4.6, Leading zero omitted, Abs format (unit mm)*
G04 Created by KiCad (PCBNEW (5.1.12)-1) date 2022-02-08 15:15:27*
%MOMM*%
%LPD*%
G01*
G04 APERTURE LIST*
%ADD10C,0.100000*%
%ADD11C,1.640000*%
%ADD12O,1.200000X1.200000*%
%ADD13O,1.200000X1.600000*%
%ADD14C,2.100000*%
%ADD15C,3.200000*%
%ADD16O,1.700000X1.700000*%
%ADD17R,1.700000X1.700000*%
%ADD18C,2.600000*%
G04 APERTURE END LIST*
D10*
X140698500Y-148590000D02*
G75*
G03*
X140698500Y-148590000I-871000J0D01*
G01*
X143238500Y-148590000D02*
G75*
G03*
X143238500Y-148590000I-871000J0D01*
G01*
X140698500Y-146050000D02*
G75*
G03*
X140698500Y-146050000I-871000J0D01*
G01*
X143238500Y-146050000D02*
G75*
G03*
X143238500Y-146050000I-871000J0D01*
G01*
X140698500Y-143510000D02*
G75*
G03*
X140698500Y-143510000I-871000J0D01*
G01*
X143238500Y-143510000D02*
G75*
G03*
X143238500Y-143510000I-871000J0D01*
G01*
X140698500Y-140970000D02*
G75*
G03*
X140698500Y-140970000I-871000J0D01*
G01*
X143238500Y-140970000D02*
G75*
G03*
X143238500Y-140970000I-871000J0D01*
G01*
X140698500Y-138430000D02*
G75*
G03*
X140698500Y-138430000I-871000J0D01*
G01*
X143238500Y-138430000D02*
G75*
G03*
X143238500Y-138430000I-871000J0D01*
G01*
X140698500Y-135890000D02*
G75*
G03*
X140698500Y-135890000I-871000J0D01*
G01*
X143238500Y-135890000D02*
G75*
G03*
X143238500Y-135890000I-871000J0D01*
G01*
X140698500Y-133350000D02*
G75*
G03*
X140698500Y-133350000I-871000J0D01*
G01*
X143238500Y-133350000D02*
G75*
G03*
X143238500Y-133350000I-871000J0D01*
G01*
X140698500Y-130810000D02*
G75*
G03*
X140698500Y-130810000I-871000J0D01*
G01*
X143238500Y-130810000D02*
G75*
G03*
X143238500Y-130810000I-871000J0D01*
G01*
X140698500Y-128270000D02*
G75*
G03*
X140698500Y-128270000I-871000J0D01*
G01*
X143238500Y-128270000D02*
G75*
G03*
X143238500Y-128270000I-871000J0D01*
G01*
X140698500Y-125730000D02*
G75*
G03*
X140698500Y-125730000I-871000J0D01*
G01*
X143238500Y-125730000D02*
G75*
G03*
X143238500Y-125730000I-871000J0D01*
G01*
X140698500Y-123190000D02*
G75*
G03*
X140698500Y-123190000I-871000J0D01*
G01*
X143238500Y-123190000D02*
G75*
G03*
X143238500Y-123190000I-871000J0D01*
G01*
D11*
X142367500Y-123190000D03*
X139827500Y-123190000D03*
X142367500Y-125730000D03*
X139827500Y-125730000D03*
X142367500Y-128270000D03*
X139827500Y-128270000D03*
X142367500Y-130810000D03*
X139827500Y-130810000D03*
X142367500Y-133350000D03*
X139827500Y-133350000D03*
X142367500Y-135890000D03*
X139827500Y-135890000D03*
X142367500Y-138430000D03*
X139827500Y-138430000D03*
X142367500Y-140970000D03*
X139827500Y-140970000D03*
X142367500Y-143510000D03*
X139827500Y-143510000D03*
X142367500Y-146050000D03*
X139827500Y-146050000D03*
X142367500Y-148590000D03*
X139827500Y-148590000D03*
D12*
X127000000Y-127000000D03*
X128270000Y-125730000D03*
D13*
X127000000Y-124460000D03*
D14*
X116840000Y-121920000D03*
X116840000Y-129540000D03*
X116840000Y-149860000D03*
X116840000Y-142240000D03*
D13*
X127000000Y-144780000D03*
D12*
X128270000Y-146050000D03*
X127000000Y-147320000D03*
D15*
X95250000Y-123190000D03*
X133350000Y-123190000D03*
X133350000Y-148590000D03*
X95250000Y-148590000D03*
D16*
X80264000Y-123190000D03*
X82804000Y-123190000D03*
X80264000Y-125730000D03*
X82804000Y-125730000D03*
X80264000Y-128270000D03*
X82804000Y-128270000D03*
X80264000Y-130810000D03*
X82804000Y-130810000D03*
X80264000Y-133350000D03*
X82804000Y-133350000D03*
X80264000Y-135890000D03*
X82804000Y-135890000D03*
X80264000Y-138430000D03*
X82804000Y-138430000D03*
X80264000Y-140970000D03*
X82804000Y-140970000D03*
X80264000Y-143510000D03*
X82804000Y-143510000D03*
X80264000Y-146050000D03*
X82804000Y-146050000D03*
X80264000Y-148590000D03*
D17*
X82804000Y-148590000D03*
D18*
X109474000Y-150368000D03*
X104648000Y-150368000D03*
X109220000Y-130556000D03*
X109220000Y-140970000D03*
M02*
