G04 #@! TF.GenerationSoftware,KiCad,Pcbnew,(5.1.5)-3*
G04 #@! TF.CreationDate,2020-09-11T13:24:27-05:00*
G04 #@! TF.ProjectId,optical_digitizer,6f707469-6361-46c5-9f64-69676974697a,4.1*
G04 #@! TF.SameCoordinates,Original*
G04 #@! TF.FileFunction,Copper,L4,Bot*
G04 #@! TF.FilePolarity,Positive*
%FSLAX46Y46*%
G04 Gerber Fmt 4.6, Leading zero omitted, Abs format (unit mm)*
G04 Created by KiCad (PCBNEW (5.1.5)-3) date 2020-09-11 13:24:27*
%MOMM*%
%LPD*%
G04 APERTURE LIST*
%ADD10C,1.640000*%
%ADD11C,1.485000*%
%ADD12C,1.600000*%
%ADD13O,1.200000X1.200000*%
%ADD14O,1.200000X1.600000*%
%ADD15C,2.100000*%
%ADD16O,1.700000X1.700000*%
%ADD17R,1.700000X1.700000*%
%ADD18C,1.440000*%
%ADD19C,2.600000*%
%ADD20O,1.600000X1.600000*%
%ADD21R,1.600000X1.600000*%
%ADD22R,2.400000X1.600000*%
%ADD23O,2.400000X1.600000*%
%ADD24C,0.508000*%
%ADD25C,0.304800*%
%ADD26C,0.152400*%
G04 APERTURE END LIST*
D10*
X180467500Y-123190000D03*
X177927500Y-123190000D03*
X180467500Y-125730000D03*
X177927500Y-125730000D03*
X180467500Y-128270000D03*
X177927500Y-128270000D03*
X180467500Y-130810000D03*
X177927500Y-130810000D03*
X180467500Y-133350000D03*
X177927500Y-133350000D03*
X180467500Y-135890000D03*
X177927500Y-135890000D03*
X180467500Y-138430000D03*
X177927500Y-138430000D03*
X180467500Y-140970000D03*
X177927500Y-140970000D03*
X180467500Y-143510000D03*
X177927500Y-143510000D03*
X180467500Y-146050000D03*
X177927500Y-146050000D03*
X180467500Y-148590000D03*
X177927500Y-148590000D03*
D11*
X115570000Y-133604000D03*
X113284000Y-133604000D03*
X113284000Y-129286000D03*
X116459000Y-129286000D03*
X113157000Y-147828000D03*
X115443000Y-147828000D03*
X116332000Y-143546001D03*
X113157000Y-143546001D03*
D12*
X115570000Y-125476000D03*
X115570000Y-122976000D03*
X115443000Y-137200000D03*
X115443000Y-139700000D03*
D11*
X103378000Y-148082000D03*
X101092000Y-148082000D03*
X103632000Y-143764000D03*
X100457000Y-143764000D03*
D13*
X165100000Y-127000000D03*
X166370000Y-125730000D03*
D14*
X165100000Y-124460000D03*
D15*
X154940000Y-121920000D03*
X154940000Y-129540000D03*
X154940000Y-149860000D03*
X154940000Y-142240000D03*
D14*
X165100000Y-144780000D03*
D13*
X166370000Y-146050000D03*
X165100000Y-147320000D03*
D16*
X80264000Y-123190000D03*
X82804000Y-123190000D03*
X80264000Y-125730000D03*
X82804000Y-125730000D03*
X80264000Y-128270000D03*
X82804000Y-128270000D03*
X80264000Y-130810000D03*
X82804000Y-130810000D03*
X80264000Y-133350000D03*
X82804000Y-133350000D03*
X80264000Y-135890000D03*
X82804000Y-135890000D03*
X80264000Y-138430000D03*
X82804000Y-138430000D03*
X80264000Y-140970000D03*
X82804000Y-140970000D03*
X80264000Y-143510000D03*
X82804000Y-143510000D03*
X80264000Y-146050000D03*
X82804000Y-146050000D03*
X80264000Y-148590000D03*
D17*
X82804000Y-148590000D03*
D18*
X130048000Y-127254000D03*
X132588000Y-129794000D03*
X130048000Y-132334000D03*
X130175000Y-144526000D03*
X132715000Y-141986000D03*
X130175000Y-139446000D03*
D19*
X108204000Y-123444000D03*
X108204000Y-148844000D03*
X108204000Y-143764000D03*
X108204000Y-128524000D03*
D20*
X98806000Y-139700000D03*
X106426000Y-132080000D03*
X98806000Y-137160000D03*
X106426000Y-134620000D03*
X98806000Y-134620000D03*
X106426000Y-137160000D03*
X98806000Y-132080000D03*
D21*
X106426000Y-139700000D03*
D22*
X127000000Y-133604000D03*
D23*
X119380000Y-125984000D03*
X127000000Y-131064000D03*
X119380000Y-128524000D03*
X127000000Y-128524000D03*
X119380000Y-131064000D03*
X127000000Y-125984000D03*
X119380000Y-133604000D03*
X119380000Y-145796000D03*
X127000000Y-138176000D03*
X119380000Y-143256000D03*
X127000000Y-140716000D03*
X119380000Y-140716000D03*
X127000000Y-143256000D03*
X119380000Y-138176000D03*
D22*
X127000000Y-145796000D03*
D24*
X117348000Y-123317000D03*
X117729000Y-149606000D03*
X117348000Y-121666000D03*
X92837000Y-129540000D03*
X103632000Y-130739701D03*
X85090000Y-130810000D03*
X124841000Y-143002000D03*
X124841000Y-145669000D03*
D25*
X111506000Y-139700000D02*
X106426000Y-134620000D01*
X115443000Y-139700000D02*
X111506000Y-139700000D01*
D26*
X164702271Y-127828601D02*
X164846000Y-127828601D01*
X163134601Y-127828601D02*
X164702271Y-127828601D01*
X128143000Y-127254000D02*
X129159000Y-126238000D01*
X161476601Y-126305399D02*
X161611399Y-126305399D01*
X80264000Y-128270000D02*
X81207670Y-128270000D01*
X117537601Y-126808601D02*
X117983000Y-127254000D01*
X81207670Y-128270000D02*
X82669069Y-126808601D01*
X82669069Y-126808601D02*
X117537601Y-126808601D01*
X129159000Y-126238000D02*
X161476601Y-126305399D01*
X117983000Y-127254000D02*
X128143000Y-127254000D01*
X179642000Y-127000000D02*
X180912000Y-128270000D01*
X177800000Y-127000000D02*
X179642000Y-127000000D01*
X177800000Y-127000000D02*
X169164000Y-127000000D01*
X163134601Y-127828601D02*
X161611399Y-126305399D01*
X168335399Y-127828601D02*
X163134601Y-127828601D01*
X169164000Y-127000000D02*
X168335399Y-127828601D01*
X179642000Y-129540000D02*
X180912000Y-130810000D01*
X176689601Y-129761399D02*
X176911000Y-129540000D01*
X156610931Y-129761399D02*
X176689601Y-129761399D01*
X155553729Y-130818601D02*
X156610931Y-129761399D01*
X176911000Y-129540000D02*
X179642000Y-129540000D01*
X128651000Y-129794000D02*
X129675601Y-130818601D01*
X85545128Y-127508000D02*
X99314000Y-127508000D01*
X99314000Y-127508000D02*
X102063100Y-130257100D01*
X83321729Y-129731399D02*
X85545128Y-127508000D01*
X102063100Y-130257100D02*
X109556100Y-130257100D01*
X109556100Y-130257100D02*
X109982000Y-130683000D01*
X81342601Y-129731399D02*
X83321729Y-129731399D01*
X129675601Y-130818601D02*
X155553729Y-130818601D01*
X80264000Y-130810000D02*
X81342601Y-129731399D01*
X109982000Y-130683000D02*
X116967000Y-130683000D01*
X116967000Y-130683000D02*
X117856000Y-129794000D01*
X117856000Y-129794000D02*
X128651000Y-129794000D01*
D25*
X84074000Y-129540000D02*
X82804000Y-130810000D01*
X92837000Y-129540000D02*
X84074000Y-129540000D01*
D26*
X177212345Y-130810000D02*
X176323345Y-131699000D01*
X178372000Y-130810000D02*
X177212345Y-130810000D01*
X146812000Y-131699000D02*
X146304000Y-131191000D01*
X176323345Y-131699000D02*
X146812000Y-131699000D01*
X146304000Y-131191000D02*
X130159468Y-131191000D01*
X127826064Y-132092610D02*
X109029410Y-132092610D01*
X109029410Y-132092610D02*
X108762800Y-131826000D01*
X130159468Y-131191000D02*
X128727674Y-131191000D01*
X128727674Y-131191000D02*
X127826064Y-132092610D01*
X108762800Y-131826000D02*
X107676501Y-130739701D01*
X107676501Y-130739701D02*
X103632000Y-130739701D01*
X101534919Y-133286589D02*
X108267411Y-133286589D01*
X108267411Y-133286589D02*
X109156589Y-132397411D01*
X175543614Y-132304386D02*
X176149025Y-132304386D01*
X85090000Y-130810000D02*
X99058330Y-130810000D01*
X132715000Y-132334000D02*
X175543614Y-132304386D01*
X176373411Y-132080000D02*
X179642000Y-132080000D01*
X99058330Y-130810000D02*
X101534919Y-133286589D01*
X176149025Y-132304386D02*
X176373411Y-132080000D01*
X128587589Y-132397411D02*
X129159000Y-132968822D01*
X109156589Y-132397411D02*
X128587589Y-132397411D01*
X129159000Y-132968822D02*
X129159000Y-132969000D01*
X179642000Y-132080000D02*
X180912000Y-133350000D01*
X129159000Y-132969000D02*
X129921000Y-133731000D01*
X129921000Y-133731000D02*
X131318000Y-133731000D01*
X131318000Y-133731000D02*
X132715000Y-132334000D01*
D25*
X83653999Y-134199999D02*
X82804000Y-133350000D01*
X85178801Y-135724801D02*
X83653999Y-134199999D01*
X99666703Y-135724801D02*
X85178801Y-135724801D01*
D26*
X177552001Y-134169999D02*
X178372000Y-133350000D01*
X177089399Y-134632601D02*
X177552001Y-134169999D01*
X112875371Y-134632601D02*
X177089399Y-134632601D01*
X111834169Y-133591399D02*
X112875371Y-134632601D01*
X101800105Y-133591399D02*
X111834169Y-133591399D01*
X99666703Y-135724801D02*
X101800105Y-133591399D01*
D25*
X97536000Y-133350000D02*
X98806000Y-132080000D01*
X82804000Y-133350000D02*
X97536000Y-133350000D01*
D26*
X81342601Y-134811399D02*
X83321729Y-134811399D01*
X80264000Y-135890000D02*
X81342601Y-134811399D01*
X83321729Y-134811399D02*
X84641729Y-136131399D01*
X84641729Y-136131399D02*
X100596601Y-136131399D01*
X100838000Y-135890000D02*
X107157172Y-135890000D01*
X100596601Y-136131399D02*
X100838000Y-135890000D01*
X107157172Y-135890000D02*
X107172586Y-135905414D01*
X180092001Y-135070001D02*
X180912000Y-135890000D01*
X111995773Y-140728601D02*
X115936729Y-140728601D01*
X107157172Y-135890000D02*
X111995773Y-140728601D01*
X115936729Y-140728601D02*
X116471601Y-140193729D01*
X116471601Y-140193729D02*
X116471601Y-135750399D01*
X116471601Y-135750399D02*
X117284590Y-134937410D01*
X117284590Y-134937410D02*
X177329862Y-134937410D01*
X179692136Y-134607136D02*
X179705000Y-134620000D01*
X177660136Y-134607136D02*
X179692136Y-134607136D01*
X177329862Y-134937410D02*
X177660136Y-134607136D01*
X179705000Y-134620000D02*
X180092001Y-135070001D01*
D25*
X84074000Y-137160000D02*
X82804000Y-135890000D01*
X98806000Y-137160000D02*
X84074000Y-137160000D01*
D26*
X120269000Y-135890000D02*
X178372000Y-135890000D01*
X116776411Y-137096589D02*
X117983000Y-135890000D01*
X116776411Y-139257259D02*
X116776411Y-137096589D01*
X117983000Y-135890000D02*
X120269000Y-135890000D01*
X98806000Y-137160000D02*
X99834601Y-138188601D01*
X111238477Y-141033411D02*
X116062985Y-141033411D01*
X99834601Y-138188601D02*
X108393667Y-138188601D01*
X116062985Y-141033411D02*
X116776410Y-140319986D01*
X116776410Y-140319986D02*
X116776411Y-139257259D01*
X108393667Y-138188601D02*
X111238477Y-141033411D01*
X82286271Y-137351399D02*
X81207670Y-138430000D01*
X83321729Y-137351399D02*
X82286271Y-137351399D01*
X84641729Y-138671399D02*
X83321729Y-137351399D01*
X176530000Y-137414000D02*
X130302000Y-137414000D01*
X111213791Y-141439791D02*
X108445399Y-138671399D01*
X108445399Y-138671399D02*
X84641729Y-138671399D01*
X130302000Y-137414000D02*
X128270000Y-139446000D01*
X179642000Y-137160000D02*
X176784000Y-137160000D01*
X81207670Y-138430000D02*
X80264000Y-138430000D01*
X116751209Y-140931791D02*
X116751209Y-141439791D01*
X176784000Y-137160000D02*
X176530000Y-137414000D01*
X180912000Y-138430000D02*
X179642000Y-137160000D01*
X118237000Y-139446000D02*
X116751209Y-140931791D01*
X128270000Y-139446000D02*
X118237000Y-139446000D01*
X116751209Y-141439791D02*
X111213791Y-141439791D01*
X81725399Y-139508601D02*
X92772601Y-139508601D01*
X80264000Y-140970000D02*
X81725399Y-139508601D01*
X180092001Y-140150001D02*
X180912000Y-140970000D01*
X179863399Y-139921399D02*
X180092001Y-140150001D01*
X133375671Y-139921399D02*
X179863399Y-139921399D01*
X131552469Y-141744601D02*
X133375671Y-139921399D01*
X95008601Y-141744601D02*
X131552469Y-141744601D01*
X92772601Y-139508601D02*
X95008601Y-141744601D01*
X131552469Y-142227399D02*
X132843671Y-143518601D01*
X81546601Y-142227399D02*
X131552469Y-142227399D01*
X80264000Y-143510000D02*
X81546601Y-142227399D01*
X175632399Y-143518601D02*
X175759399Y-143518601D01*
X132843671Y-143518601D02*
X175632399Y-143518601D01*
X175759399Y-143518601D02*
X177038000Y-142240000D01*
X179197500Y-142240000D02*
X180467500Y-143510000D01*
X177038000Y-142240000D02*
X179197500Y-142240000D01*
X180912000Y-146050000D02*
X179642000Y-144780000D01*
X179642000Y-144780000D02*
X170815000Y-144780000D01*
X165884931Y-146878601D02*
X165183330Y-146177000D01*
X170815000Y-144780000D02*
X168716399Y-146878601D01*
X168716399Y-146878601D02*
X165884931Y-146878601D01*
X129921000Y-146177000D02*
X128270000Y-147828000D01*
X165183330Y-146177000D02*
X129921000Y-146177000D01*
X118553936Y-144767390D02*
X121907390Y-144767390D01*
X80264000Y-146050000D02*
X81342601Y-144971399D01*
X118028725Y-145292601D02*
X118553936Y-144767390D01*
X81342601Y-144971399D02*
X107149069Y-144971399D01*
X107149069Y-144971399D02*
X107470271Y-145292601D01*
X107470271Y-145292601D02*
X118028725Y-145292601D01*
X124968000Y-147828000D02*
X128270000Y-147828000D01*
X121907390Y-144767390D02*
X124968000Y-147828000D01*
X94005069Y-147128601D02*
X94575670Y-146558000D01*
X81725399Y-147128601D02*
X94005069Y-147128601D01*
X80264000Y-148590000D02*
X81725399Y-147128601D01*
X116840000Y-146558000D02*
X118491000Y-148209000D01*
X94575670Y-146558000D02*
X116840000Y-146558000D01*
X165735000Y-148209000D02*
X166243000Y-148209000D01*
X118491000Y-148209000D02*
X165735000Y-148209000D01*
X166243000Y-148209000D02*
X169926000Y-151892000D01*
X177165500Y-151892000D02*
X180467500Y-148590000D01*
X169926000Y-151892000D02*
X177165500Y-151892000D01*
D25*
X124841000Y-143002000D02*
X124841000Y-145669000D01*
M02*
