G04 #@! TF.GenerationSoftware,KiCad,Pcbnew,(5.1.5)-3*
G04 #@! TF.CreationDate,2020-09-11T13:24:27-05:00*
G04 #@! TF.ProjectId,optical_digitizer,6f707469-6361-46c5-9f64-69676974697a,4.1*
G04 #@! TF.SameCoordinates,Original*
G04 #@! TF.FileFunction,Legend,Bot*
G04 #@! TF.FilePolarity,Positive*
%FSLAX46Y46*%
G04 Gerber Fmt 4.6, Leading zero omitted, Abs format (unit mm)*
G04 Created by KiCad (PCBNEW (5.1.5)-3) date 2020-09-11 13:24:27*
%MOMM*%
%LPD*%
G04 APERTURE LIST*
%ADD10C,0.149860*%
%ADD11C,0.120000*%
%ADD12C,0.150000*%
G04 APERTURE END LIST*
D10*
X184494714Y-146394714D02*
X184494714Y-145632714D01*
X184059285Y-146394714D01*
X184059285Y-145632714D01*
X183261000Y-146322142D02*
X183297285Y-146358428D01*
X183406142Y-146394714D01*
X183478714Y-146394714D01*
X183587571Y-146358428D01*
X183660142Y-146285857D01*
X183696428Y-146213285D01*
X183732714Y-146068142D01*
X183732714Y-145959285D01*
X183696428Y-145814142D01*
X183660142Y-145741571D01*
X183587571Y-145669000D01*
X183478714Y-145632714D01*
X183406142Y-145632714D01*
X183297285Y-145669000D01*
X183261000Y-145705285D01*
X184494714Y-143854714D02*
X184494714Y-143092714D01*
X184059285Y-143854714D01*
X184059285Y-143092714D01*
X183261000Y-143782142D02*
X183297285Y-143818428D01*
X183406142Y-143854714D01*
X183478714Y-143854714D01*
X183587571Y-143818428D01*
X183660142Y-143745857D01*
X183696428Y-143673285D01*
X183732714Y-143528142D01*
X183732714Y-143419285D01*
X183696428Y-143274142D01*
X183660142Y-143201571D01*
X183587571Y-143129000D01*
X183478714Y-143092714D01*
X183406142Y-143092714D01*
X183297285Y-143129000D01*
X183261000Y-143165285D01*
X90514714Y-146394714D02*
X90514714Y-145632714D01*
X90079285Y-146394714D01*
X90079285Y-145632714D01*
X89281000Y-146322142D02*
X89317285Y-146358428D01*
X89426142Y-146394714D01*
X89498714Y-146394714D01*
X89607571Y-146358428D01*
X89680142Y-146285857D01*
X89716428Y-146213285D01*
X89752714Y-146068142D01*
X89752714Y-145959285D01*
X89716428Y-145814142D01*
X89680142Y-145741571D01*
X89607571Y-145669000D01*
X89498714Y-145632714D01*
X89426142Y-145632714D01*
X89317285Y-145669000D01*
X89281000Y-145705285D01*
X90514714Y-143854714D02*
X90514714Y-143092714D01*
X90079285Y-143854714D01*
X90079285Y-143092714D01*
X89281000Y-143782142D02*
X89317285Y-143818428D01*
X89426142Y-143854714D01*
X89498714Y-143854714D01*
X89607571Y-143818428D01*
X89680142Y-143745857D01*
X89716428Y-143673285D01*
X89752714Y-143528142D01*
X89752714Y-143419285D01*
X89716428Y-143274142D01*
X89680142Y-143201571D01*
X89607571Y-143129000D01*
X89498714Y-143092714D01*
X89426142Y-143092714D01*
X89317285Y-143129000D01*
X89281000Y-143165285D01*
X184748714Y-126074714D02*
X184748714Y-125312714D01*
X184313285Y-126074714D01*
X184313285Y-125312714D01*
X183515000Y-126002142D02*
X183551285Y-126038428D01*
X183660142Y-126074714D01*
X183732714Y-126074714D01*
X183841571Y-126038428D01*
X183914142Y-125965857D01*
X183950428Y-125893285D01*
X183986714Y-125748142D01*
X183986714Y-125639285D01*
X183950428Y-125494142D01*
X183914142Y-125421571D01*
X183841571Y-125349000D01*
X183732714Y-125312714D01*
X183660142Y-125312714D01*
X183551285Y-125349000D01*
X183515000Y-125385285D01*
X189520285Y-141314714D02*
X189520285Y-140552714D01*
X189266285Y-141097000D01*
X189012285Y-140552714D01*
X189012285Y-141314714D01*
X188649428Y-141314714D02*
X188649428Y-140552714D01*
X188322857Y-141278428D02*
X188214000Y-141314714D01*
X188032571Y-141314714D01*
X187960000Y-141278428D01*
X187923714Y-141242142D01*
X187887428Y-141169571D01*
X187887428Y-141097000D01*
X187923714Y-141024428D01*
X187960000Y-140988142D01*
X188032571Y-140951857D01*
X188177714Y-140915571D01*
X188250285Y-140879285D01*
X188286571Y-140843000D01*
X188322857Y-140770428D01*
X188322857Y-140697857D01*
X188286571Y-140625285D01*
X188250285Y-140589000D01*
X188177714Y-140552714D01*
X187996285Y-140552714D01*
X187887428Y-140589000D01*
X187415714Y-140552714D02*
X187270571Y-140552714D01*
X187198000Y-140589000D01*
X187125428Y-140661571D01*
X187089142Y-140806714D01*
X187089142Y-141060714D01*
X187125428Y-141205857D01*
X187198000Y-141278428D01*
X187270571Y-141314714D01*
X187415714Y-141314714D01*
X187488285Y-141278428D01*
X187560857Y-141205857D01*
X187597142Y-141060714D01*
X187597142Y-140806714D01*
X187560857Y-140661571D01*
X187488285Y-140589000D01*
X187415714Y-140552714D01*
X186436000Y-140806714D02*
X186436000Y-141314714D01*
X186617428Y-140516428D02*
X186798857Y-141060714D01*
X186327142Y-141060714D01*
X188558714Y-126074714D02*
X188558714Y-125312714D01*
X188123285Y-126074714D01*
X188123285Y-125312714D01*
X187325000Y-126002142D02*
X187361285Y-126038428D01*
X187470142Y-126074714D01*
X187542714Y-126074714D01*
X187651571Y-126038428D01*
X187724142Y-125965857D01*
X187760428Y-125893285D01*
X187796714Y-125748142D01*
X187796714Y-125639285D01*
X187760428Y-125494142D01*
X187724142Y-125421571D01*
X187651571Y-125349000D01*
X187542714Y-125312714D01*
X187470142Y-125312714D01*
X187361285Y-125349000D01*
X187325000Y-125385285D01*
X185093428Y-133694714D02*
X185093428Y-132932714D01*
X184839428Y-133477000D01*
X184585428Y-132932714D01*
X184585428Y-133694714D01*
X184077428Y-132932714D02*
X183932285Y-132932714D01*
X183859714Y-132969000D01*
X183787142Y-133041571D01*
X183750857Y-133186714D01*
X183750857Y-133440714D01*
X183787142Y-133585857D01*
X183859714Y-133658428D01*
X183932285Y-133694714D01*
X184077428Y-133694714D01*
X184150000Y-133658428D01*
X184222571Y-133585857D01*
X184258857Y-133440714D01*
X184258857Y-133186714D01*
X184222571Y-133041571D01*
X184150000Y-132969000D01*
X184077428Y-132932714D01*
X183460571Y-133658428D02*
X183351714Y-133694714D01*
X183170285Y-133694714D01*
X183097714Y-133658428D01*
X183061428Y-133622142D01*
X183025142Y-133549571D01*
X183025142Y-133477000D01*
X183061428Y-133404428D01*
X183097714Y-133368142D01*
X183170285Y-133331857D01*
X183315428Y-133295571D01*
X183388000Y-133259285D01*
X183424285Y-133223000D01*
X183460571Y-133150428D01*
X183460571Y-133077857D01*
X183424285Y-133005285D01*
X183388000Y-132969000D01*
X183315428Y-132932714D01*
X183134000Y-132932714D01*
X183025142Y-132969000D01*
X182698571Y-133694714D02*
X182698571Y-132932714D01*
X188558714Y-123534714D02*
X188558714Y-122772714D01*
X188123285Y-123534714D01*
X188123285Y-122772714D01*
X187325000Y-123462142D02*
X187361285Y-123498428D01*
X187470142Y-123534714D01*
X187542714Y-123534714D01*
X187651571Y-123498428D01*
X187724142Y-123425857D01*
X187760428Y-123353285D01*
X187796714Y-123208142D01*
X187796714Y-123099285D01*
X187760428Y-122954142D01*
X187724142Y-122881571D01*
X187651571Y-122809000D01*
X187542714Y-122772714D01*
X187470142Y-122772714D01*
X187361285Y-122809000D01*
X187325000Y-122845285D01*
X189520285Y-146394714D02*
X189520285Y-145632714D01*
X189266285Y-146177000D01*
X189012285Y-145632714D01*
X189012285Y-146394714D01*
X188649428Y-146394714D02*
X188649428Y-145632714D01*
X188322857Y-146358428D02*
X188214000Y-146394714D01*
X188032571Y-146394714D01*
X187960000Y-146358428D01*
X187923714Y-146322142D01*
X187887428Y-146249571D01*
X187887428Y-146177000D01*
X187923714Y-146104428D01*
X187960000Y-146068142D01*
X188032571Y-146031857D01*
X188177714Y-145995571D01*
X188250285Y-145959285D01*
X188286571Y-145923000D01*
X188322857Y-145850428D01*
X188322857Y-145777857D01*
X188286571Y-145705285D01*
X188250285Y-145669000D01*
X188177714Y-145632714D01*
X187996285Y-145632714D01*
X187887428Y-145669000D01*
X187415714Y-145632714D02*
X187270571Y-145632714D01*
X187198000Y-145669000D01*
X187125428Y-145741571D01*
X187089142Y-145886714D01*
X187089142Y-146140714D01*
X187125428Y-146285857D01*
X187198000Y-146358428D01*
X187270571Y-146394714D01*
X187415714Y-146394714D01*
X187488285Y-146358428D01*
X187560857Y-146285857D01*
X187597142Y-146140714D01*
X187597142Y-145886714D01*
X187560857Y-145741571D01*
X187488285Y-145669000D01*
X187415714Y-145632714D01*
X186798857Y-145705285D02*
X186762571Y-145669000D01*
X186690000Y-145632714D01*
X186508571Y-145632714D01*
X186436000Y-145669000D01*
X186399714Y-145705285D01*
X186363428Y-145777857D01*
X186363428Y-145850428D01*
X186399714Y-145959285D01*
X186835142Y-146394714D01*
X186363428Y-146394714D01*
X184748714Y-123534714D02*
X184748714Y-122772714D01*
X184313285Y-123534714D01*
X184313285Y-122772714D01*
X183515000Y-123462142D02*
X183551285Y-123498428D01*
X183660142Y-123534714D01*
X183732714Y-123534714D01*
X183841571Y-123498428D01*
X183914142Y-123425857D01*
X183950428Y-123353285D01*
X183986714Y-123208142D01*
X183986714Y-123099285D01*
X183950428Y-122954142D01*
X183914142Y-122881571D01*
X183841571Y-122809000D01*
X183732714Y-122772714D01*
X183660142Y-122772714D01*
X183551285Y-122809000D01*
X183515000Y-122845285D01*
X189520285Y-148934714D02*
X189520285Y-148172714D01*
X189266285Y-148717000D01*
X189012285Y-148172714D01*
X189012285Y-148934714D01*
X188649428Y-148934714D02*
X188649428Y-148172714D01*
X188322857Y-148898428D02*
X188214000Y-148934714D01*
X188032571Y-148934714D01*
X187960000Y-148898428D01*
X187923714Y-148862142D01*
X187887428Y-148789571D01*
X187887428Y-148717000D01*
X187923714Y-148644428D01*
X187960000Y-148608142D01*
X188032571Y-148571857D01*
X188177714Y-148535571D01*
X188250285Y-148499285D01*
X188286571Y-148463000D01*
X188322857Y-148390428D01*
X188322857Y-148317857D01*
X188286571Y-148245285D01*
X188250285Y-148209000D01*
X188177714Y-148172714D01*
X187996285Y-148172714D01*
X187887428Y-148209000D01*
X187415714Y-148172714D02*
X187270571Y-148172714D01*
X187198000Y-148209000D01*
X187125428Y-148281571D01*
X187089142Y-148426714D01*
X187089142Y-148680714D01*
X187125428Y-148825857D01*
X187198000Y-148898428D01*
X187270571Y-148934714D01*
X187415714Y-148934714D01*
X187488285Y-148898428D01*
X187560857Y-148825857D01*
X187597142Y-148680714D01*
X187597142Y-148426714D01*
X187560857Y-148281571D01*
X187488285Y-148209000D01*
X187415714Y-148172714D01*
X186363428Y-148934714D02*
X186798857Y-148934714D01*
X186581142Y-148934714D02*
X186581142Y-148172714D01*
X186653714Y-148281571D01*
X186726285Y-148354142D01*
X186798857Y-148390428D01*
X189520285Y-131154714D02*
X189520285Y-130392714D01*
X189266285Y-130937000D01*
X189012285Y-130392714D01*
X189012285Y-131154714D01*
X188649428Y-131154714D02*
X188649428Y-130392714D01*
X188322857Y-131118428D02*
X188214000Y-131154714D01*
X188032571Y-131154714D01*
X187960000Y-131118428D01*
X187923714Y-131082142D01*
X187887428Y-131009571D01*
X187887428Y-130937000D01*
X187923714Y-130864428D01*
X187960000Y-130828142D01*
X188032571Y-130791857D01*
X188177714Y-130755571D01*
X188250285Y-130719285D01*
X188286571Y-130683000D01*
X188322857Y-130610428D01*
X188322857Y-130537857D01*
X188286571Y-130465285D01*
X188250285Y-130429000D01*
X188177714Y-130392714D01*
X187996285Y-130392714D01*
X187887428Y-130429000D01*
X187415714Y-130392714D02*
X187270571Y-130392714D01*
X187198000Y-130429000D01*
X187125428Y-130501571D01*
X187089142Y-130646714D01*
X187089142Y-130900714D01*
X187125428Y-131045857D01*
X187198000Y-131118428D01*
X187270571Y-131154714D01*
X187415714Y-131154714D01*
X187488285Y-131118428D01*
X187560857Y-131045857D01*
X187597142Y-130900714D01*
X187597142Y-130646714D01*
X187560857Y-130501571D01*
X187488285Y-130429000D01*
X187415714Y-130392714D01*
X186653714Y-130719285D02*
X186726285Y-130683000D01*
X186762571Y-130646714D01*
X186798857Y-130574142D01*
X186798857Y-130537857D01*
X186762571Y-130465285D01*
X186726285Y-130429000D01*
X186653714Y-130392714D01*
X186508571Y-130392714D01*
X186436000Y-130429000D01*
X186399714Y-130465285D01*
X186363428Y-130537857D01*
X186363428Y-130574142D01*
X186399714Y-130646714D01*
X186436000Y-130683000D01*
X186508571Y-130719285D01*
X186653714Y-130719285D01*
X186726285Y-130755571D01*
X186762571Y-130791857D01*
X186798857Y-130864428D01*
X186798857Y-131009571D01*
X186762571Y-131082142D01*
X186726285Y-131118428D01*
X186653714Y-131154714D01*
X186508571Y-131154714D01*
X186436000Y-131118428D01*
X186399714Y-131082142D01*
X186363428Y-131009571D01*
X186363428Y-130864428D01*
X186399714Y-130791857D01*
X186436000Y-130755571D01*
X186508571Y-130719285D01*
X189520285Y-128614714D02*
X189520285Y-127852714D01*
X189266285Y-128397000D01*
X189012285Y-127852714D01*
X189012285Y-128614714D01*
X188649428Y-128614714D02*
X188649428Y-127852714D01*
X188322857Y-128578428D02*
X188214000Y-128614714D01*
X188032571Y-128614714D01*
X187960000Y-128578428D01*
X187923714Y-128542142D01*
X187887428Y-128469571D01*
X187887428Y-128397000D01*
X187923714Y-128324428D01*
X187960000Y-128288142D01*
X188032571Y-128251857D01*
X188177714Y-128215571D01*
X188250285Y-128179285D01*
X188286571Y-128143000D01*
X188322857Y-128070428D01*
X188322857Y-127997857D01*
X188286571Y-127925285D01*
X188250285Y-127889000D01*
X188177714Y-127852714D01*
X187996285Y-127852714D01*
X187887428Y-127889000D01*
X187415714Y-127852714D02*
X187270571Y-127852714D01*
X187198000Y-127889000D01*
X187125428Y-127961571D01*
X187089142Y-128106714D01*
X187089142Y-128360714D01*
X187125428Y-128505857D01*
X187198000Y-128578428D01*
X187270571Y-128614714D01*
X187415714Y-128614714D01*
X187488285Y-128578428D01*
X187560857Y-128505857D01*
X187597142Y-128360714D01*
X187597142Y-128106714D01*
X187560857Y-127961571D01*
X187488285Y-127889000D01*
X187415714Y-127852714D01*
X186726285Y-128614714D02*
X186581142Y-128614714D01*
X186508571Y-128578428D01*
X186472285Y-128542142D01*
X186399714Y-128433285D01*
X186363428Y-128288142D01*
X186363428Y-127997857D01*
X186399714Y-127925285D01*
X186436000Y-127889000D01*
X186508571Y-127852714D01*
X186653714Y-127852714D01*
X186726285Y-127889000D01*
X186762571Y-127925285D01*
X186798857Y-127997857D01*
X186798857Y-128179285D01*
X186762571Y-128251857D01*
X186726285Y-128288142D01*
X186653714Y-128324428D01*
X186508571Y-128324428D01*
X186436000Y-128288142D01*
X186399714Y-128251857D01*
X186363428Y-128179285D01*
X184476571Y-148209000D02*
X184549142Y-148172714D01*
X184658000Y-148172714D01*
X184766857Y-148209000D01*
X184839428Y-148281571D01*
X184875714Y-148354142D01*
X184912000Y-148499285D01*
X184912000Y-148608142D01*
X184875714Y-148753285D01*
X184839428Y-148825857D01*
X184766857Y-148898428D01*
X184658000Y-148934714D01*
X184585428Y-148934714D01*
X184476571Y-148898428D01*
X184440285Y-148862142D01*
X184440285Y-148608142D01*
X184585428Y-148608142D01*
X184113714Y-148934714D02*
X184113714Y-148172714D01*
X183678285Y-148934714D01*
X183678285Y-148172714D01*
X183315428Y-148934714D02*
X183315428Y-148172714D01*
X183134000Y-148172714D01*
X183025142Y-148209000D01*
X182952571Y-148281571D01*
X182916285Y-148354142D01*
X182880000Y-148499285D01*
X182880000Y-148608142D01*
X182916285Y-148753285D01*
X182952571Y-148825857D01*
X183025142Y-148898428D01*
X183134000Y-148934714D01*
X183315428Y-148934714D01*
X189520285Y-143854714D02*
X189520285Y-143092714D01*
X189266285Y-143637000D01*
X189012285Y-143092714D01*
X189012285Y-143854714D01*
X188649428Y-143854714D02*
X188649428Y-143092714D01*
X188322857Y-143818428D02*
X188214000Y-143854714D01*
X188032571Y-143854714D01*
X187960000Y-143818428D01*
X187923714Y-143782142D01*
X187887428Y-143709571D01*
X187887428Y-143637000D01*
X187923714Y-143564428D01*
X187960000Y-143528142D01*
X188032571Y-143491857D01*
X188177714Y-143455571D01*
X188250285Y-143419285D01*
X188286571Y-143383000D01*
X188322857Y-143310428D01*
X188322857Y-143237857D01*
X188286571Y-143165285D01*
X188250285Y-143129000D01*
X188177714Y-143092714D01*
X187996285Y-143092714D01*
X187887428Y-143129000D01*
X187415714Y-143092714D02*
X187270571Y-143092714D01*
X187198000Y-143129000D01*
X187125428Y-143201571D01*
X187089142Y-143346714D01*
X187089142Y-143600714D01*
X187125428Y-143745857D01*
X187198000Y-143818428D01*
X187270571Y-143854714D01*
X187415714Y-143854714D01*
X187488285Y-143818428D01*
X187560857Y-143745857D01*
X187597142Y-143600714D01*
X187597142Y-143346714D01*
X187560857Y-143201571D01*
X187488285Y-143129000D01*
X187415714Y-143092714D01*
X186835142Y-143092714D02*
X186363428Y-143092714D01*
X186617428Y-143383000D01*
X186508571Y-143383000D01*
X186436000Y-143419285D01*
X186399714Y-143455571D01*
X186363428Y-143528142D01*
X186363428Y-143709571D01*
X186399714Y-143782142D01*
X186436000Y-143818428D01*
X186508571Y-143854714D01*
X186726285Y-143854714D01*
X186798857Y-143818428D01*
X186835142Y-143782142D01*
X185184142Y-136198428D02*
X185075285Y-136234714D01*
X184893857Y-136234714D01*
X184821285Y-136198428D01*
X184785000Y-136162142D01*
X184748714Y-136089571D01*
X184748714Y-136017000D01*
X184785000Y-135944428D01*
X184821285Y-135908142D01*
X184893857Y-135871857D01*
X185039000Y-135835571D01*
X185111571Y-135799285D01*
X185147857Y-135763000D01*
X185184142Y-135690428D01*
X185184142Y-135617857D01*
X185147857Y-135545285D01*
X185111571Y-135509000D01*
X185039000Y-135472714D01*
X184857571Y-135472714D01*
X184748714Y-135509000D01*
X183986714Y-136162142D02*
X184023000Y-136198428D01*
X184131857Y-136234714D01*
X184204428Y-136234714D01*
X184313285Y-136198428D01*
X184385857Y-136125857D01*
X184422142Y-136053285D01*
X184458428Y-135908142D01*
X184458428Y-135799285D01*
X184422142Y-135654142D01*
X184385857Y-135581571D01*
X184313285Y-135509000D01*
X184204428Y-135472714D01*
X184131857Y-135472714D01*
X184023000Y-135509000D01*
X183986714Y-135545285D01*
X183297285Y-136234714D02*
X183660142Y-136234714D01*
X183660142Y-135472714D01*
X183043285Y-136234714D02*
X183043285Y-135472714D01*
X182607857Y-136234714D02*
X182934428Y-135799285D01*
X182607857Y-135472714D02*
X183043285Y-135908142D01*
X189520285Y-136234714D02*
X189520285Y-135472714D01*
X189266285Y-136017000D01*
X189012285Y-135472714D01*
X189012285Y-136234714D01*
X188649428Y-136234714D02*
X188649428Y-135472714D01*
X188322857Y-136198428D02*
X188214000Y-136234714D01*
X188032571Y-136234714D01*
X187960000Y-136198428D01*
X187923714Y-136162142D01*
X187887428Y-136089571D01*
X187887428Y-136017000D01*
X187923714Y-135944428D01*
X187960000Y-135908142D01*
X188032571Y-135871857D01*
X188177714Y-135835571D01*
X188250285Y-135799285D01*
X188286571Y-135763000D01*
X188322857Y-135690428D01*
X188322857Y-135617857D01*
X188286571Y-135545285D01*
X188250285Y-135509000D01*
X188177714Y-135472714D01*
X187996285Y-135472714D01*
X187887428Y-135509000D01*
X187415714Y-135472714D02*
X187270571Y-135472714D01*
X187198000Y-135509000D01*
X187125428Y-135581571D01*
X187089142Y-135726714D01*
X187089142Y-135980714D01*
X187125428Y-136125857D01*
X187198000Y-136198428D01*
X187270571Y-136234714D01*
X187415714Y-136234714D01*
X187488285Y-136198428D01*
X187560857Y-136125857D01*
X187597142Y-135980714D01*
X187597142Y-135726714D01*
X187560857Y-135581571D01*
X187488285Y-135509000D01*
X187415714Y-135472714D01*
X186436000Y-135472714D02*
X186581142Y-135472714D01*
X186653714Y-135509000D01*
X186690000Y-135545285D01*
X186762571Y-135654142D01*
X186798857Y-135799285D01*
X186798857Y-136089571D01*
X186762571Y-136162142D01*
X186726285Y-136198428D01*
X186653714Y-136234714D01*
X186508571Y-136234714D01*
X186436000Y-136198428D01*
X186399714Y-136162142D01*
X186363428Y-136089571D01*
X186363428Y-135908142D01*
X186399714Y-135835571D01*
X186436000Y-135799285D01*
X186508571Y-135763000D01*
X186653714Y-135763000D01*
X186726285Y-135799285D01*
X186762571Y-135835571D01*
X186798857Y-135908142D01*
X184875714Y-141024428D02*
X184295142Y-141024428D01*
X184585428Y-141314714D02*
X184585428Y-140734142D01*
X183569428Y-140552714D02*
X183932285Y-140552714D01*
X183968571Y-140915571D01*
X183932285Y-140879285D01*
X183859714Y-140843000D01*
X183678285Y-140843000D01*
X183605714Y-140879285D01*
X183569428Y-140915571D01*
X183533142Y-140988142D01*
X183533142Y-141169571D01*
X183569428Y-141242142D01*
X183605714Y-141278428D01*
X183678285Y-141314714D01*
X183859714Y-141314714D01*
X183932285Y-141278428D01*
X183968571Y-141242142D01*
X183315428Y-140552714D02*
X183061428Y-141314714D01*
X182807428Y-140552714D01*
X184748714Y-128614714D02*
X184748714Y-127852714D01*
X184313285Y-128614714D01*
X184313285Y-127852714D01*
X183515000Y-128542142D02*
X183551285Y-128578428D01*
X183660142Y-128614714D01*
X183732714Y-128614714D01*
X183841571Y-128578428D01*
X183914142Y-128505857D01*
X183950428Y-128433285D01*
X183986714Y-128288142D01*
X183986714Y-128179285D01*
X183950428Y-128034142D01*
X183914142Y-127961571D01*
X183841571Y-127889000D01*
X183732714Y-127852714D01*
X183660142Y-127852714D01*
X183551285Y-127889000D01*
X183515000Y-127925285D01*
X189520285Y-133694714D02*
X189520285Y-132932714D01*
X189266285Y-133477000D01*
X189012285Y-132932714D01*
X189012285Y-133694714D01*
X188649428Y-133694714D02*
X188649428Y-132932714D01*
X188322857Y-133658428D02*
X188214000Y-133694714D01*
X188032571Y-133694714D01*
X187960000Y-133658428D01*
X187923714Y-133622142D01*
X187887428Y-133549571D01*
X187887428Y-133477000D01*
X187923714Y-133404428D01*
X187960000Y-133368142D01*
X188032571Y-133331857D01*
X188177714Y-133295571D01*
X188250285Y-133259285D01*
X188286571Y-133223000D01*
X188322857Y-133150428D01*
X188322857Y-133077857D01*
X188286571Y-133005285D01*
X188250285Y-132969000D01*
X188177714Y-132932714D01*
X187996285Y-132932714D01*
X187887428Y-132969000D01*
X187415714Y-132932714D02*
X187270571Y-132932714D01*
X187198000Y-132969000D01*
X187125428Y-133041571D01*
X187089142Y-133186714D01*
X187089142Y-133440714D01*
X187125428Y-133585857D01*
X187198000Y-133658428D01*
X187270571Y-133694714D01*
X187415714Y-133694714D01*
X187488285Y-133658428D01*
X187560857Y-133585857D01*
X187597142Y-133440714D01*
X187597142Y-133186714D01*
X187560857Y-133041571D01*
X187488285Y-132969000D01*
X187415714Y-132932714D01*
X186835142Y-132932714D02*
X186327142Y-132932714D01*
X186653714Y-133694714D01*
X184494714Y-138774714D02*
X184494714Y-138012714D01*
X184059285Y-138774714D01*
X184059285Y-138012714D01*
X183261000Y-138702142D02*
X183297285Y-138738428D01*
X183406142Y-138774714D01*
X183478714Y-138774714D01*
X183587571Y-138738428D01*
X183660142Y-138665857D01*
X183696428Y-138593285D01*
X183732714Y-138448142D01*
X183732714Y-138339285D01*
X183696428Y-138194142D01*
X183660142Y-138121571D01*
X183587571Y-138049000D01*
X183478714Y-138012714D01*
X183406142Y-138012714D01*
X183297285Y-138049000D01*
X183261000Y-138085285D01*
X189520285Y-138774714D02*
X189520285Y-138012714D01*
X189266285Y-138557000D01*
X189012285Y-138012714D01*
X189012285Y-138774714D01*
X188649428Y-138774714D02*
X188649428Y-138012714D01*
X188322857Y-138738428D02*
X188214000Y-138774714D01*
X188032571Y-138774714D01*
X187960000Y-138738428D01*
X187923714Y-138702142D01*
X187887428Y-138629571D01*
X187887428Y-138557000D01*
X187923714Y-138484428D01*
X187960000Y-138448142D01*
X188032571Y-138411857D01*
X188177714Y-138375571D01*
X188250285Y-138339285D01*
X188286571Y-138303000D01*
X188322857Y-138230428D01*
X188322857Y-138157857D01*
X188286571Y-138085285D01*
X188250285Y-138049000D01*
X188177714Y-138012714D01*
X187996285Y-138012714D01*
X187887428Y-138049000D01*
X187415714Y-138012714D02*
X187270571Y-138012714D01*
X187198000Y-138049000D01*
X187125428Y-138121571D01*
X187089142Y-138266714D01*
X187089142Y-138520714D01*
X187125428Y-138665857D01*
X187198000Y-138738428D01*
X187270571Y-138774714D01*
X187415714Y-138774714D01*
X187488285Y-138738428D01*
X187560857Y-138665857D01*
X187597142Y-138520714D01*
X187597142Y-138266714D01*
X187560857Y-138121571D01*
X187488285Y-138049000D01*
X187415714Y-138012714D01*
X186399714Y-138012714D02*
X186762571Y-138012714D01*
X186798857Y-138375571D01*
X186762571Y-138339285D01*
X186690000Y-138303000D01*
X186508571Y-138303000D01*
X186436000Y-138339285D01*
X186399714Y-138375571D01*
X186363428Y-138448142D01*
X186363428Y-138629571D01*
X186399714Y-138702142D01*
X186436000Y-138738428D01*
X186508571Y-138774714D01*
X186690000Y-138774714D01*
X186762571Y-138738428D01*
X186798857Y-138702142D01*
X184023000Y-131082142D02*
X184059285Y-131118428D01*
X184168142Y-131154714D01*
X184240714Y-131154714D01*
X184349571Y-131118428D01*
X184422142Y-131045857D01*
X184458428Y-130973285D01*
X184494714Y-130828142D01*
X184494714Y-130719285D01*
X184458428Y-130574142D01*
X184422142Y-130501571D01*
X184349571Y-130429000D01*
X184240714Y-130392714D01*
X184168142Y-130392714D01*
X184059285Y-130429000D01*
X184023000Y-130465285D01*
X183732714Y-131118428D02*
X183623857Y-131154714D01*
X183442428Y-131154714D01*
X183369857Y-131118428D01*
X183333571Y-131082142D01*
X183297285Y-131009571D01*
X183297285Y-130937000D01*
X183333571Y-130864428D01*
X183369857Y-130828142D01*
X183442428Y-130791857D01*
X183587571Y-130755571D01*
X183660142Y-130719285D01*
X183696428Y-130683000D01*
X183732714Y-130610428D01*
X183732714Y-130537857D01*
X183696428Y-130465285D01*
X183660142Y-130429000D01*
X183587571Y-130392714D01*
X183406142Y-130392714D01*
X183297285Y-130429000D01*
D11*
X176530000Y-134620000D02*
X190246000Y-134620000D01*
X190246000Y-147320000D02*
X176530000Y-147320000D01*
X190246000Y-142240000D02*
X176530000Y-142240000D01*
X190246000Y-137160000D02*
X176530000Y-137160000D01*
X176530000Y-139700000D02*
X190246000Y-139700000D01*
X185674000Y-149860000D02*
X185674000Y-121920000D01*
X176530000Y-144780000D02*
X190246000Y-144780000D01*
X176530000Y-121920000D02*
X190246000Y-121920000D01*
X190246000Y-121920000D02*
X190246000Y-149860000D01*
X190246000Y-132080000D02*
X176530000Y-132080000D01*
X190246000Y-127000000D02*
X176530000Y-127000000D01*
X176530000Y-124460000D02*
X190246000Y-124460000D01*
X176530000Y-149860000D02*
X176530000Y-121920000D01*
X176530000Y-129540000D02*
X190246000Y-129540000D01*
X190246000Y-149860000D02*
X176530000Y-149860000D01*
X87884000Y-149860000D02*
X87884000Y-121920000D01*
X92456000Y-147320000D02*
X78740000Y-147320000D01*
X78740000Y-144780000D02*
X92456000Y-144780000D01*
X92456000Y-142240000D02*
X78740000Y-142240000D01*
X78740000Y-139700000D02*
X92456000Y-139700000D01*
X92456000Y-137160000D02*
X78740000Y-137160000D01*
X78740000Y-134620000D02*
X92456000Y-134620000D01*
X92456000Y-132080000D02*
X78740000Y-132080000D01*
X78740000Y-129540000D02*
X92456000Y-129540000D01*
X92456000Y-127000000D02*
X78740000Y-127000000D01*
X78740000Y-124460000D02*
X92456000Y-124460000D01*
X78740000Y-149860000D02*
X78740000Y-121920000D01*
X92456000Y-149860000D02*
X78740000Y-149860000D01*
X92456000Y-121920000D02*
X92456000Y-149860000D01*
X78740000Y-121920000D02*
X92456000Y-121920000D01*
D10*
X87412285Y-148934714D02*
X87412285Y-148172714D01*
X87158285Y-148717000D01*
X86904285Y-148172714D01*
X86904285Y-148934714D01*
X86541428Y-148934714D02*
X86541428Y-148172714D01*
X86214857Y-148898428D02*
X86106000Y-148934714D01*
X85924571Y-148934714D01*
X85852000Y-148898428D01*
X85815714Y-148862142D01*
X85779428Y-148789571D01*
X85779428Y-148717000D01*
X85815714Y-148644428D01*
X85852000Y-148608142D01*
X85924571Y-148571857D01*
X86069714Y-148535571D01*
X86142285Y-148499285D01*
X86178571Y-148463000D01*
X86214857Y-148390428D01*
X86214857Y-148317857D01*
X86178571Y-148245285D01*
X86142285Y-148209000D01*
X86069714Y-148172714D01*
X85888285Y-148172714D01*
X85779428Y-148209000D01*
X85307714Y-148172714D02*
X85162571Y-148172714D01*
X85090000Y-148209000D01*
X85017428Y-148281571D01*
X84981142Y-148426714D01*
X84981142Y-148680714D01*
X85017428Y-148825857D01*
X85090000Y-148898428D01*
X85162571Y-148934714D01*
X85307714Y-148934714D01*
X85380285Y-148898428D01*
X85452857Y-148825857D01*
X85489142Y-148680714D01*
X85489142Y-148426714D01*
X85452857Y-148281571D01*
X85380285Y-148209000D01*
X85307714Y-148172714D01*
X84255428Y-148934714D02*
X84690857Y-148934714D01*
X84473142Y-148934714D02*
X84473142Y-148172714D01*
X84545714Y-148281571D01*
X84618285Y-148354142D01*
X84690857Y-148390428D01*
X90750571Y-148209000D02*
X90823142Y-148172714D01*
X90932000Y-148172714D01*
X91040857Y-148209000D01*
X91113428Y-148281571D01*
X91149714Y-148354142D01*
X91186000Y-148499285D01*
X91186000Y-148608142D01*
X91149714Y-148753285D01*
X91113428Y-148825857D01*
X91040857Y-148898428D01*
X90932000Y-148934714D01*
X90859428Y-148934714D01*
X90750571Y-148898428D01*
X90714285Y-148862142D01*
X90714285Y-148608142D01*
X90859428Y-148608142D01*
X90387714Y-148934714D02*
X90387714Y-148172714D01*
X89952285Y-148934714D01*
X89952285Y-148172714D01*
X89589428Y-148934714D02*
X89589428Y-148172714D01*
X89408000Y-148172714D01*
X89299142Y-148209000D01*
X89226571Y-148281571D01*
X89190285Y-148354142D01*
X89154000Y-148499285D01*
X89154000Y-148608142D01*
X89190285Y-148753285D01*
X89226571Y-148825857D01*
X89299142Y-148898428D01*
X89408000Y-148934714D01*
X89589428Y-148934714D01*
X87412285Y-146394714D02*
X87412285Y-145632714D01*
X87158285Y-146177000D01*
X86904285Y-145632714D01*
X86904285Y-146394714D01*
X86541428Y-146394714D02*
X86541428Y-145632714D01*
X86214857Y-146358428D02*
X86106000Y-146394714D01*
X85924571Y-146394714D01*
X85852000Y-146358428D01*
X85815714Y-146322142D01*
X85779428Y-146249571D01*
X85779428Y-146177000D01*
X85815714Y-146104428D01*
X85852000Y-146068142D01*
X85924571Y-146031857D01*
X86069714Y-145995571D01*
X86142285Y-145959285D01*
X86178571Y-145923000D01*
X86214857Y-145850428D01*
X86214857Y-145777857D01*
X86178571Y-145705285D01*
X86142285Y-145669000D01*
X86069714Y-145632714D01*
X85888285Y-145632714D01*
X85779428Y-145669000D01*
X85307714Y-145632714D02*
X85162571Y-145632714D01*
X85090000Y-145669000D01*
X85017428Y-145741571D01*
X84981142Y-145886714D01*
X84981142Y-146140714D01*
X85017428Y-146285857D01*
X85090000Y-146358428D01*
X85162571Y-146394714D01*
X85307714Y-146394714D01*
X85380285Y-146358428D01*
X85452857Y-146285857D01*
X85489142Y-146140714D01*
X85489142Y-145886714D01*
X85452857Y-145741571D01*
X85380285Y-145669000D01*
X85307714Y-145632714D01*
X84690857Y-145705285D02*
X84654571Y-145669000D01*
X84582000Y-145632714D01*
X84400571Y-145632714D01*
X84328000Y-145669000D01*
X84291714Y-145705285D01*
X84255428Y-145777857D01*
X84255428Y-145850428D01*
X84291714Y-145959285D01*
X84727142Y-146394714D01*
X84255428Y-146394714D01*
X87412285Y-143854714D02*
X87412285Y-143092714D01*
X87158285Y-143637000D01*
X86904285Y-143092714D01*
X86904285Y-143854714D01*
X86541428Y-143854714D02*
X86541428Y-143092714D01*
X86214857Y-143818428D02*
X86106000Y-143854714D01*
X85924571Y-143854714D01*
X85852000Y-143818428D01*
X85815714Y-143782142D01*
X85779428Y-143709571D01*
X85779428Y-143637000D01*
X85815714Y-143564428D01*
X85852000Y-143528142D01*
X85924571Y-143491857D01*
X86069714Y-143455571D01*
X86142285Y-143419285D01*
X86178571Y-143383000D01*
X86214857Y-143310428D01*
X86214857Y-143237857D01*
X86178571Y-143165285D01*
X86142285Y-143129000D01*
X86069714Y-143092714D01*
X85888285Y-143092714D01*
X85779428Y-143129000D01*
X85307714Y-143092714D02*
X85162571Y-143092714D01*
X85090000Y-143129000D01*
X85017428Y-143201571D01*
X84981142Y-143346714D01*
X84981142Y-143600714D01*
X85017428Y-143745857D01*
X85090000Y-143818428D01*
X85162571Y-143854714D01*
X85307714Y-143854714D01*
X85380285Y-143818428D01*
X85452857Y-143745857D01*
X85489142Y-143600714D01*
X85489142Y-143346714D01*
X85452857Y-143201571D01*
X85380285Y-143129000D01*
X85307714Y-143092714D01*
X84727142Y-143092714D02*
X84255428Y-143092714D01*
X84509428Y-143383000D01*
X84400571Y-143383000D01*
X84328000Y-143419285D01*
X84291714Y-143455571D01*
X84255428Y-143528142D01*
X84255428Y-143709571D01*
X84291714Y-143782142D01*
X84328000Y-143818428D01*
X84400571Y-143854714D01*
X84618285Y-143854714D01*
X84690857Y-143818428D01*
X84727142Y-143782142D01*
X91149714Y-141024428D02*
X90569142Y-141024428D01*
X90859428Y-141314714D02*
X90859428Y-140734142D01*
X89843428Y-140552714D02*
X90206285Y-140552714D01*
X90242571Y-140915571D01*
X90206285Y-140879285D01*
X90133714Y-140843000D01*
X89952285Y-140843000D01*
X89879714Y-140879285D01*
X89843428Y-140915571D01*
X89807142Y-140988142D01*
X89807142Y-141169571D01*
X89843428Y-141242142D01*
X89879714Y-141278428D01*
X89952285Y-141314714D01*
X90133714Y-141314714D01*
X90206285Y-141278428D01*
X90242571Y-141242142D01*
X89589428Y-140552714D02*
X89335428Y-141314714D01*
X89081428Y-140552714D01*
X87412285Y-141314714D02*
X87412285Y-140552714D01*
X87158285Y-141097000D01*
X86904285Y-140552714D01*
X86904285Y-141314714D01*
X86541428Y-141314714D02*
X86541428Y-140552714D01*
X86214857Y-141278428D02*
X86106000Y-141314714D01*
X85924571Y-141314714D01*
X85852000Y-141278428D01*
X85815714Y-141242142D01*
X85779428Y-141169571D01*
X85779428Y-141097000D01*
X85815714Y-141024428D01*
X85852000Y-140988142D01*
X85924571Y-140951857D01*
X86069714Y-140915571D01*
X86142285Y-140879285D01*
X86178571Y-140843000D01*
X86214857Y-140770428D01*
X86214857Y-140697857D01*
X86178571Y-140625285D01*
X86142285Y-140589000D01*
X86069714Y-140552714D01*
X85888285Y-140552714D01*
X85779428Y-140589000D01*
X85307714Y-140552714D02*
X85162571Y-140552714D01*
X85090000Y-140589000D01*
X85017428Y-140661571D01*
X84981142Y-140806714D01*
X84981142Y-141060714D01*
X85017428Y-141205857D01*
X85090000Y-141278428D01*
X85162571Y-141314714D01*
X85307714Y-141314714D01*
X85380285Y-141278428D01*
X85452857Y-141205857D01*
X85489142Y-141060714D01*
X85489142Y-140806714D01*
X85452857Y-140661571D01*
X85380285Y-140589000D01*
X85307714Y-140552714D01*
X84328000Y-140806714D02*
X84328000Y-141314714D01*
X84509428Y-140516428D02*
X84690857Y-141060714D01*
X84219142Y-141060714D01*
X90514714Y-138774714D02*
X90514714Y-138012714D01*
X90079285Y-138774714D01*
X90079285Y-138012714D01*
X89281000Y-138702142D02*
X89317285Y-138738428D01*
X89426142Y-138774714D01*
X89498714Y-138774714D01*
X89607571Y-138738428D01*
X89680142Y-138665857D01*
X89716428Y-138593285D01*
X89752714Y-138448142D01*
X89752714Y-138339285D01*
X89716428Y-138194142D01*
X89680142Y-138121571D01*
X89607571Y-138049000D01*
X89498714Y-138012714D01*
X89426142Y-138012714D01*
X89317285Y-138049000D01*
X89281000Y-138085285D01*
X87412285Y-138774714D02*
X87412285Y-138012714D01*
X87158285Y-138557000D01*
X86904285Y-138012714D01*
X86904285Y-138774714D01*
X86541428Y-138774714D02*
X86541428Y-138012714D01*
X86214857Y-138738428D02*
X86106000Y-138774714D01*
X85924571Y-138774714D01*
X85852000Y-138738428D01*
X85815714Y-138702142D01*
X85779428Y-138629571D01*
X85779428Y-138557000D01*
X85815714Y-138484428D01*
X85852000Y-138448142D01*
X85924571Y-138411857D01*
X86069714Y-138375571D01*
X86142285Y-138339285D01*
X86178571Y-138303000D01*
X86214857Y-138230428D01*
X86214857Y-138157857D01*
X86178571Y-138085285D01*
X86142285Y-138049000D01*
X86069714Y-138012714D01*
X85888285Y-138012714D01*
X85779428Y-138049000D01*
X85307714Y-138012714D02*
X85162571Y-138012714D01*
X85090000Y-138049000D01*
X85017428Y-138121571D01*
X84981142Y-138266714D01*
X84981142Y-138520714D01*
X85017428Y-138665857D01*
X85090000Y-138738428D01*
X85162571Y-138774714D01*
X85307714Y-138774714D01*
X85380285Y-138738428D01*
X85452857Y-138665857D01*
X85489142Y-138520714D01*
X85489142Y-138266714D01*
X85452857Y-138121571D01*
X85380285Y-138049000D01*
X85307714Y-138012714D01*
X84291714Y-138012714D02*
X84654571Y-138012714D01*
X84690857Y-138375571D01*
X84654571Y-138339285D01*
X84582000Y-138303000D01*
X84400571Y-138303000D01*
X84328000Y-138339285D01*
X84291714Y-138375571D01*
X84255428Y-138448142D01*
X84255428Y-138629571D01*
X84291714Y-138702142D01*
X84328000Y-138738428D01*
X84400571Y-138774714D01*
X84582000Y-138774714D01*
X84654571Y-138738428D01*
X84690857Y-138702142D01*
X91458142Y-136198428D02*
X91349285Y-136234714D01*
X91167857Y-136234714D01*
X91095285Y-136198428D01*
X91059000Y-136162142D01*
X91022714Y-136089571D01*
X91022714Y-136017000D01*
X91059000Y-135944428D01*
X91095285Y-135908142D01*
X91167857Y-135871857D01*
X91313000Y-135835571D01*
X91385571Y-135799285D01*
X91421857Y-135763000D01*
X91458142Y-135690428D01*
X91458142Y-135617857D01*
X91421857Y-135545285D01*
X91385571Y-135509000D01*
X91313000Y-135472714D01*
X91131571Y-135472714D01*
X91022714Y-135509000D01*
X90260714Y-136162142D02*
X90297000Y-136198428D01*
X90405857Y-136234714D01*
X90478428Y-136234714D01*
X90587285Y-136198428D01*
X90659857Y-136125857D01*
X90696142Y-136053285D01*
X90732428Y-135908142D01*
X90732428Y-135799285D01*
X90696142Y-135654142D01*
X90659857Y-135581571D01*
X90587285Y-135509000D01*
X90478428Y-135472714D01*
X90405857Y-135472714D01*
X90297000Y-135509000D01*
X90260714Y-135545285D01*
X89571285Y-136234714D02*
X89934142Y-136234714D01*
X89934142Y-135472714D01*
X89317285Y-136234714D02*
X89317285Y-135472714D01*
X88881857Y-136234714D02*
X89208428Y-135799285D01*
X88881857Y-135472714D02*
X89317285Y-135908142D01*
X87412285Y-136234714D02*
X87412285Y-135472714D01*
X87158285Y-136017000D01*
X86904285Y-135472714D01*
X86904285Y-136234714D01*
X86541428Y-136234714D02*
X86541428Y-135472714D01*
X86214857Y-136198428D02*
X86106000Y-136234714D01*
X85924571Y-136234714D01*
X85852000Y-136198428D01*
X85815714Y-136162142D01*
X85779428Y-136089571D01*
X85779428Y-136017000D01*
X85815714Y-135944428D01*
X85852000Y-135908142D01*
X85924571Y-135871857D01*
X86069714Y-135835571D01*
X86142285Y-135799285D01*
X86178571Y-135763000D01*
X86214857Y-135690428D01*
X86214857Y-135617857D01*
X86178571Y-135545285D01*
X86142285Y-135509000D01*
X86069714Y-135472714D01*
X85888285Y-135472714D01*
X85779428Y-135509000D01*
X85307714Y-135472714D02*
X85162571Y-135472714D01*
X85090000Y-135509000D01*
X85017428Y-135581571D01*
X84981142Y-135726714D01*
X84981142Y-135980714D01*
X85017428Y-136125857D01*
X85090000Y-136198428D01*
X85162571Y-136234714D01*
X85307714Y-136234714D01*
X85380285Y-136198428D01*
X85452857Y-136125857D01*
X85489142Y-135980714D01*
X85489142Y-135726714D01*
X85452857Y-135581571D01*
X85380285Y-135509000D01*
X85307714Y-135472714D01*
X84328000Y-135472714D02*
X84473142Y-135472714D01*
X84545714Y-135509000D01*
X84582000Y-135545285D01*
X84654571Y-135654142D01*
X84690857Y-135799285D01*
X84690857Y-136089571D01*
X84654571Y-136162142D01*
X84618285Y-136198428D01*
X84545714Y-136234714D01*
X84400571Y-136234714D01*
X84328000Y-136198428D01*
X84291714Y-136162142D01*
X84255428Y-136089571D01*
X84255428Y-135908142D01*
X84291714Y-135835571D01*
X84328000Y-135799285D01*
X84400571Y-135763000D01*
X84545714Y-135763000D01*
X84618285Y-135799285D01*
X84654571Y-135835571D01*
X84690857Y-135908142D01*
X86958714Y-123534714D02*
X86958714Y-122772714D01*
X86523285Y-123534714D01*
X86523285Y-122772714D01*
X85725000Y-123462142D02*
X85761285Y-123498428D01*
X85870142Y-123534714D01*
X85942714Y-123534714D01*
X86051571Y-123498428D01*
X86124142Y-123425857D01*
X86160428Y-123353285D01*
X86196714Y-123208142D01*
X86196714Y-123099285D01*
X86160428Y-122954142D01*
X86124142Y-122881571D01*
X86051571Y-122809000D01*
X85942714Y-122772714D01*
X85870142Y-122772714D01*
X85761285Y-122809000D01*
X85725000Y-122845285D01*
X90768714Y-123534714D02*
X90768714Y-122772714D01*
X90333285Y-123534714D01*
X90333285Y-122772714D01*
X89535000Y-123462142D02*
X89571285Y-123498428D01*
X89680142Y-123534714D01*
X89752714Y-123534714D01*
X89861571Y-123498428D01*
X89934142Y-123425857D01*
X89970428Y-123353285D01*
X90006714Y-123208142D01*
X90006714Y-123099285D01*
X89970428Y-122954142D01*
X89934142Y-122881571D01*
X89861571Y-122809000D01*
X89752714Y-122772714D01*
X89680142Y-122772714D01*
X89571285Y-122809000D01*
X89535000Y-122845285D01*
X86958714Y-126074714D02*
X86958714Y-125312714D01*
X86523285Y-126074714D01*
X86523285Y-125312714D01*
X85725000Y-126002142D02*
X85761285Y-126038428D01*
X85870142Y-126074714D01*
X85942714Y-126074714D01*
X86051571Y-126038428D01*
X86124142Y-125965857D01*
X86160428Y-125893285D01*
X86196714Y-125748142D01*
X86196714Y-125639285D01*
X86160428Y-125494142D01*
X86124142Y-125421571D01*
X86051571Y-125349000D01*
X85942714Y-125312714D01*
X85870142Y-125312714D01*
X85761285Y-125349000D01*
X85725000Y-125385285D01*
X90768714Y-126074714D02*
X90768714Y-125312714D01*
X90333285Y-126074714D01*
X90333285Y-125312714D01*
X89535000Y-126002142D02*
X89571285Y-126038428D01*
X89680142Y-126074714D01*
X89752714Y-126074714D01*
X89861571Y-126038428D01*
X89934142Y-125965857D01*
X89970428Y-125893285D01*
X90006714Y-125748142D01*
X90006714Y-125639285D01*
X89970428Y-125494142D01*
X89934142Y-125421571D01*
X89861571Y-125349000D01*
X89752714Y-125312714D01*
X89680142Y-125312714D01*
X89571285Y-125349000D01*
X89535000Y-125385285D01*
X87412285Y-128614714D02*
X87412285Y-127852714D01*
X87158285Y-128397000D01*
X86904285Y-127852714D01*
X86904285Y-128614714D01*
X86541428Y-128614714D02*
X86541428Y-127852714D01*
X86214857Y-128578428D02*
X86106000Y-128614714D01*
X85924571Y-128614714D01*
X85852000Y-128578428D01*
X85815714Y-128542142D01*
X85779428Y-128469571D01*
X85779428Y-128397000D01*
X85815714Y-128324428D01*
X85852000Y-128288142D01*
X85924571Y-128251857D01*
X86069714Y-128215571D01*
X86142285Y-128179285D01*
X86178571Y-128143000D01*
X86214857Y-128070428D01*
X86214857Y-127997857D01*
X86178571Y-127925285D01*
X86142285Y-127889000D01*
X86069714Y-127852714D01*
X85888285Y-127852714D01*
X85779428Y-127889000D01*
X85307714Y-127852714D02*
X85162571Y-127852714D01*
X85090000Y-127889000D01*
X85017428Y-127961571D01*
X84981142Y-128106714D01*
X84981142Y-128360714D01*
X85017428Y-128505857D01*
X85090000Y-128578428D01*
X85162571Y-128614714D01*
X85307714Y-128614714D01*
X85380285Y-128578428D01*
X85452857Y-128505857D01*
X85489142Y-128360714D01*
X85489142Y-128106714D01*
X85452857Y-127961571D01*
X85380285Y-127889000D01*
X85307714Y-127852714D01*
X84618285Y-128614714D02*
X84473142Y-128614714D01*
X84400571Y-128578428D01*
X84364285Y-128542142D01*
X84291714Y-128433285D01*
X84255428Y-128288142D01*
X84255428Y-127997857D01*
X84291714Y-127925285D01*
X84328000Y-127889000D01*
X84400571Y-127852714D01*
X84545714Y-127852714D01*
X84618285Y-127889000D01*
X84654571Y-127925285D01*
X84690857Y-127997857D01*
X84690857Y-128179285D01*
X84654571Y-128251857D01*
X84618285Y-128288142D01*
X84545714Y-128324428D01*
X84400571Y-128324428D01*
X84328000Y-128288142D01*
X84291714Y-128251857D01*
X84255428Y-128179285D01*
X90768714Y-128614714D02*
X90768714Y-127852714D01*
X90333285Y-128614714D01*
X90333285Y-127852714D01*
X89535000Y-128542142D02*
X89571285Y-128578428D01*
X89680142Y-128614714D01*
X89752714Y-128614714D01*
X89861571Y-128578428D01*
X89934142Y-128505857D01*
X89970428Y-128433285D01*
X90006714Y-128288142D01*
X90006714Y-128179285D01*
X89970428Y-128034142D01*
X89934142Y-127961571D01*
X89861571Y-127889000D01*
X89752714Y-127852714D01*
X89680142Y-127852714D01*
X89571285Y-127889000D01*
X89535000Y-127925285D01*
X91367428Y-133694714D02*
X91367428Y-132932714D01*
X91113428Y-133477000D01*
X90859428Y-132932714D01*
X90859428Y-133694714D01*
X90351428Y-132932714D02*
X90206285Y-132932714D01*
X90133714Y-132969000D01*
X90061142Y-133041571D01*
X90024857Y-133186714D01*
X90024857Y-133440714D01*
X90061142Y-133585857D01*
X90133714Y-133658428D01*
X90206285Y-133694714D01*
X90351428Y-133694714D01*
X90424000Y-133658428D01*
X90496571Y-133585857D01*
X90532857Y-133440714D01*
X90532857Y-133186714D01*
X90496571Y-133041571D01*
X90424000Y-132969000D01*
X90351428Y-132932714D01*
X89734571Y-133658428D02*
X89625714Y-133694714D01*
X89444285Y-133694714D01*
X89371714Y-133658428D01*
X89335428Y-133622142D01*
X89299142Y-133549571D01*
X89299142Y-133477000D01*
X89335428Y-133404428D01*
X89371714Y-133368142D01*
X89444285Y-133331857D01*
X89589428Y-133295571D01*
X89662000Y-133259285D01*
X89698285Y-133223000D01*
X89734571Y-133150428D01*
X89734571Y-133077857D01*
X89698285Y-133005285D01*
X89662000Y-132969000D01*
X89589428Y-132932714D01*
X89408000Y-132932714D01*
X89299142Y-132969000D01*
X88972571Y-133694714D02*
X88972571Y-132932714D01*
X87412285Y-133694714D02*
X87412285Y-132932714D01*
X87158285Y-133477000D01*
X86904285Y-132932714D01*
X86904285Y-133694714D01*
X86541428Y-133694714D02*
X86541428Y-132932714D01*
X86214857Y-133658428D02*
X86106000Y-133694714D01*
X85924571Y-133694714D01*
X85852000Y-133658428D01*
X85815714Y-133622142D01*
X85779428Y-133549571D01*
X85779428Y-133477000D01*
X85815714Y-133404428D01*
X85852000Y-133368142D01*
X85924571Y-133331857D01*
X86069714Y-133295571D01*
X86142285Y-133259285D01*
X86178571Y-133223000D01*
X86214857Y-133150428D01*
X86214857Y-133077857D01*
X86178571Y-133005285D01*
X86142285Y-132969000D01*
X86069714Y-132932714D01*
X85888285Y-132932714D01*
X85779428Y-132969000D01*
X85307714Y-132932714D02*
X85162571Y-132932714D01*
X85090000Y-132969000D01*
X85017428Y-133041571D01*
X84981142Y-133186714D01*
X84981142Y-133440714D01*
X85017428Y-133585857D01*
X85090000Y-133658428D01*
X85162571Y-133694714D01*
X85307714Y-133694714D01*
X85380285Y-133658428D01*
X85452857Y-133585857D01*
X85489142Y-133440714D01*
X85489142Y-133186714D01*
X85452857Y-133041571D01*
X85380285Y-132969000D01*
X85307714Y-132932714D01*
X84727142Y-132932714D02*
X84219142Y-132932714D01*
X84545714Y-133694714D01*
X87412285Y-131154714D02*
X87412285Y-130392714D01*
X87158285Y-130937000D01*
X86904285Y-130392714D01*
X86904285Y-131154714D01*
X86541428Y-131154714D02*
X86541428Y-130392714D01*
X86214857Y-131118428D02*
X86106000Y-131154714D01*
X85924571Y-131154714D01*
X85852000Y-131118428D01*
X85815714Y-131082142D01*
X85779428Y-131009571D01*
X85779428Y-130937000D01*
X85815714Y-130864428D01*
X85852000Y-130828142D01*
X85924571Y-130791857D01*
X86069714Y-130755571D01*
X86142285Y-130719285D01*
X86178571Y-130683000D01*
X86214857Y-130610428D01*
X86214857Y-130537857D01*
X86178571Y-130465285D01*
X86142285Y-130429000D01*
X86069714Y-130392714D01*
X85888285Y-130392714D01*
X85779428Y-130429000D01*
X85307714Y-130392714D02*
X85162571Y-130392714D01*
X85090000Y-130429000D01*
X85017428Y-130501571D01*
X84981142Y-130646714D01*
X84981142Y-130900714D01*
X85017428Y-131045857D01*
X85090000Y-131118428D01*
X85162571Y-131154714D01*
X85307714Y-131154714D01*
X85380285Y-131118428D01*
X85452857Y-131045857D01*
X85489142Y-130900714D01*
X85489142Y-130646714D01*
X85452857Y-130501571D01*
X85380285Y-130429000D01*
X85307714Y-130392714D01*
X84545714Y-130719285D02*
X84618285Y-130683000D01*
X84654571Y-130646714D01*
X84690857Y-130574142D01*
X84690857Y-130537857D01*
X84654571Y-130465285D01*
X84618285Y-130429000D01*
X84545714Y-130392714D01*
X84400571Y-130392714D01*
X84328000Y-130429000D01*
X84291714Y-130465285D01*
X84255428Y-130537857D01*
X84255428Y-130574142D01*
X84291714Y-130646714D01*
X84328000Y-130683000D01*
X84400571Y-130719285D01*
X84545714Y-130719285D01*
X84618285Y-130755571D01*
X84654571Y-130791857D01*
X84690857Y-130864428D01*
X84690857Y-131009571D01*
X84654571Y-131082142D01*
X84618285Y-131118428D01*
X84545714Y-131154714D01*
X84400571Y-131154714D01*
X84328000Y-131118428D01*
X84291714Y-131082142D01*
X84255428Y-131009571D01*
X84255428Y-130864428D01*
X84291714Y-130791857D01*
X84328000Y-130755571D01*
X84400571Y-130719285D01*
X90297000Y-131082142D02*
X90333285Y-131118428D01*
X90442142Y-131154714D01*
X90514714Y-131154714D01*
X90623571Y-131118428D01*
X90696142Y-131045857D01*
X90732428Y-130973285D01*
X90768714Y-130828142D01*
X90768714Y-130719285D01*
X90732428Y-130574142D01*
X90696142Y-130501571D01*
X90623571Y-130429000D01*
X90514714Y-130392714D01*
X90442142Y-130392714D01*
X90333285Y-130429000D01*
X90297000Y-130465285D01*
X90006714Y-131118428D02*
X89897857Y-131154714D01*
X89716428Y-131154714D01*
X89643857Y-131118428D01*
X89607571Y-131082142D01*
X89571285Y-131009571D01*
X89571285Y-130937000D01*
X89607571Y-130864428D01*
X89643857Y-130828142D01*
X89716428Y-130791857D01*
X89861571Y-130755571D01*
X89934142Y-130719285D01*
X89970428Y-130683000D01*
X90006714Y-130610428D01*
X90006714Y-130537857D01*
X89970428Y-130465285D01*
X89934142Y-130429000D01*
X89861571Y-130392714D01*
X89680142Y-130392714D01*
X89571285Y-130429000D01*
X189611000Y-151982714D02*
X189973857Y-151982714D01*
X189973857Y-151220714D01*
X188957857Y-151257000D02*
X189030428Y-151220714D01*
X189139285Y-151220714D01*
X189248142Y-151257000D01*
X189320714Y-151329571D01*
X189357000Y-151402142D01*
X189393285Y-151547285D01*
X189393285Y-151656142D01*
X189357000Y-151801285D01*
X189320714Y-151873857D01*
X189248142Y-151946428D01*
X189139285Y-151982714D01*
X189066714Y-151982714D01*
X188957857Y-151946428D01*
X188921571Y-151910142D01*
X188921571Y-151656142D01*
X189066714Y-151656142D01*
X188087000Y-151220714D02*
X187615285Y-151220714D01*
X187869285Y-151511000D01*
X187760428Y-151511000D01*
X187687857Y-151547285D01*
X187651571Y-151583571D01*
X187615285Y-151656142D01*
X187615285Y-151837571D01*
X187651571Y-151910142D01*
X187687857Y-151946428D01*
X187760428Y-151982714D01*
X187978142Y-151982714D01*
X188050714Y-151946428D01*
X188087000Y-151910142D01*
X187288714Y-151692428D02*
X186708142Y-151692428D01*
X186200142Y-151220714D02*
X186127571Y-151220714D01*
X186055000Y-151257000D01*
X186018714Y-151293285D01*
X185982428Y-151365857D01*
X185946142Y-151511000D01*
X185946142Y-151692428D01*
X185982428Y-151837571D01*
X186018714Y-151910142D01*
X186055000Y-151946428D01*
X186127571Y-151982714D01*
X186200142Y-151982714D01*
X186272714Y-151946428D01*
X186309000Y-151910142D01*
X186345285Y-151837571D01*
X186381571Y-151692428D01*
X186381571Y-151511000D01*
X186345285Y-151365857D01*
X186309000Y-151293285D01*
X186272714Y-151257000D01*
X186200142Y-151220714D01*
X185474428Y-151220714D02*
X185401857Y-151220714D01*
X185329285Y-151257000D01*
X185293000Y-151293285D01*
X185256714Y-151365857D01*
X185220428Y-151511000D01*
X185220428Y-151692428D01*
X185256714Y-151837571D01*
X185293000Y-151910142D01*
X185329285Y-151946428D01*
X185401857Y-151982714D01*
X185474428Y-151982714D01*
X185547000Y-151946428D01*
X185583285Y-151910142D01*
X185619571Y-151837571D01*
X185655857Y-151692428D01*
X185655857Y-151511000D01*
X185619571Y-151365857D01*
X185583285Y-151293285D01*
X185547000Y-151257000D01*
X185474428Y-151220714D01*
X184748714Y-151220714D02*
X184676142Y-151220714D01*
X184603571Y-151257000D01*
X184567285Y-151293285D01*
X184531000Y-151365857D01*
X184494714Y-151511000D01*
X184494714Y-151692428D01*
X184531000Y-151837571D01*
X184567285Y-151910142D01*
X184603571Y-151946428D01*
X184676142Y-151982714D01*
X184748714Y-151982714D01*
X184821285Y-151946428D01*
X184857571Y-151910142D01*
X184893857Y-151837571D01*
X184930142Y-151692428D01*
X184930142Y-151511000D01*
X184893857Y-151365857D01*
X184857571Y-151293285D01*
X184821285Y-151257000D01*
X184748714Y-151220714D01*
X184023000Y-151220714D02*
X183950428Y-151220714D01*
X183877857Y-151257000D01*
X183841571Y-151293285D01*
X183805285Y-151365857D01*
X183769000Y-151511000D01*
X183769000Y-151692428D01*
X183805285Y-151837571D01*
X183841571Y-151910142D01*
X183877857Y-151946428D01*
X183950428Y-151982714D01*
X184023000Y-151982714D01*
X184095571Y-151946428D01*
X184131857Y-151910142D01*
X184168142Y-151837571D01*
X184204428Y-151692428D01*
X184204428Y-151511000D01*
X184168142Y-151365857D01*
X184131857Y-151293285D01*
X184095571Y-151257000D01*
X184023000Y-151220714D01*
X183297285Y-151220714D02*
X183224714Y-151220714D01*
X183152142Y-151257000D01*
X183115857Y-151293285D01*
X183079571Y-151365857D01*
X183043285Y-151511000D01*
X183043285Y-151692428D01*
X183079571Y-151837571D01*
X183115857Y-151910142D01*
X183152142Y-151946428D01*
X183224714Y-151982714D01*
X183297285Y-151982714D01*
X183369857Y-151946428D01*
X183406142Y-151910142D01*
X183442428Y-151837571D01*
X183478714Y-151692428D01*
X183478714Y-151511000D01*
X183442428Y-151365857D01*
X183406142Y-151293285D01*
X183369857Y-151257000D01*
X183297285Y-151220714D01*
X182390142Y-151474714D02*
X182390142Y-151982714D01*
X182571571Y-151184428D02*
X182753000Y-151728714D01*
X182281285Y-151728714D01*
X181628142Y-151220714D02*
X181991000Y-151220714D01*
X182027285Y-151583571D01*
X181991000Y-151547285D01*
X181918428Y-151511000D01*
X181737000Y-151511000D01*
X181664428Y-151547285D01*
X181628142Y-151583571D01*
X181591857Y-151656142D01*
X181591857Y-151837571D01*
X181628142Y-151910142D01*
X181664428Y-151946428D01*
X181737000Y-151982714D01*
X181918428Y-151982714D01*
X181991000Y-151946428D01*
X182027285Y-151910142D01*
D11*
X163517456Y-123157850D02*
G75*
G02X162527719Y-124147669I1582544J-2572150D01*
G01*
X162605501Y-122245552D02*
X163517669Y-123157719D01*
X161615552Y-123235501D02*
X162605501Y-122245552D01*
X162527719Y-124147669D02*
X161615552Y-123235501D01*
X159258000Y-123444000D02*
X159258000Y-128079500D01*
X159258000Y-123444000D02*
X151638000Y-123444000D01*
X151638000Y-128079500D02*
X159258000Y-128079500D01*
X151638000Y-123444000D02*
X140208000Y-123444000D01*
X140208000Y-128079500D02*
X151638000Y-128079500D01*
X135128000Y-124523500D02*
X135128000Y-127063500D01*
X135128000Y-124523500D02*
X140208000Y-123444000D01*
X140208000Y-128079500D02*
X135128000Y-127063500D01*
X140208000Y-148399500D02*
X135128000Y-147383500D01*
X135128000Y-144843500D02*
X140208000Y-143764000D01*
X135128000Y-144843500D02*
X135128000Y-147383500D01*
X140208000Y-148399500D02*
X151638000Y-148399500D01*
X151638000Y-143764000D02*
X140208000Y-143764000D01*
X151638000Y-148399500D02*
X159258000Y-148399500D01*
X159258000Y-143764000D02*
X151638000Y-143764000D01*
X159258000Y-143764000D02*
X159258000Y-148399500D01*
X162527719Y-144467669D02*
X161615552Y-143555501D01*
X161615552Y-143555501D02*
X162605501Y-142565552D01*
X162605501Y-142565552D02*
X163517669Y-143477719D01*
X163517456Y-143477850D02*
G75*
G02X162527719Y-144467669I1582544J-2572150D01*
G01*
D12*
X167965380Y-128801904D02*
X166965380Y-128801904D01*
X166965380Y-129040000D01*
X167013000Y-129182857D01*
X167108238Y-129278095D01*
X167203476Y-129325714D01*
X167393952Y-129373333D01*
X167536809Y-129373333D01*
X167727285Y-129325714D01*
X167822523Y-129278095D01*
X167917761Y-129182857D01*
X167965380Y-129040000D01*
X167965380Y-128801904D01*
X167965380Y-130325714D02*
X167965380Y-129754285D01*
X167965380Y-130040000D02*
X166965380Y-130040000D01*
X167108238Y-129944761D01*
X167203476Y-129849523D01*
X167251095Y-129754285D01*
X167838380Y-149121904D02*
X166838380Y-149121904D01*
X166838380Y-149360000D01*
X166886000Y-149502857D01*
X166981238Y-149598095D01*
X167076476Y-149645714D01*
X167266952Y-149693333D01*
X167409809Y-149693333D01*
X167600285Y-149645714D01*
X167695523Y-149598095D01*
X167790761Y-149502857D01*
X167838380Y-149360000D01*
X167838380Y-149121904D01*
X166933619Y-150074285D02*
X166886000Y-150121904D01*
X166838380Y-150217142D01*
X166838380Y-150455238D01*
X166886000Y-150550476D01*
X166933619Y-150598095D01*
X167028857Y-150645714D01*
X167124095Y-150645714D01*
X167266952Y-150598095D01*
X167838380Y-150026666D01*
X167838380Y-150645714D01*
M02*
