G04 #@! TF.GenerationSoftware,KiCad,Pcbnew,(5.1.12)-1*
G04 #@! TF.CreationDate,2022-02-08T15:15:27-06:00*
G04 #@! TF.ProjectId,optical_digitizer,6f707469-6361-46c5-9f64-69676974697a,4.2*
G04 #@! TF.SameCoordinates,Original*
G04 #@! TF.FileFunction,Copper,L2,Inr*
G04 #@! TF.FilePolarity,Positive*
%FSLAX46Y46*%
G04 Gerber Fmt 4.6, Leading zero omitted, Abs format (unit mm)*
G04 Created by KiCad (PCBNEW (5.1.12)-1) date 2022-02-08 15:15:27*
%MOMM*%
%LPD*%
G01*
G04 APERTURE LIST*
G04 #@! TA.AperFunction,ComponentPad*
%ADD10C,1.640000*%
G04 #@! TD*
G04 #@! TA.AperFunction,ComponentPad*
%ADD11O,1.200000X1.200000*%
G04 #@! TD*
G04 #@! TA.AperFunction,ComponentPad*
%ADD12O,1.200000X1.600000*%
G04 #@! TD*
G04 #@! TA.AperFunction,ComponentPad*
%ADD13C,2.100000*%
G04 #@! TD*
G04 #@! TA.AperFunction,ComponentPad*
%ADD14O,1.700000X1.700000*%
G04 #@! TD*
G04 #@! TA.AperFunction,ComponentPad*
%ADD15R,1.700000X1.700000*%
G04 #@! TD*
G04 #@! TA.AperFunction,ComponentPad*
%ADD16C,2.600000*%
G04 #@! TD*
G04 #@! TA.AperFunction,ViaPad*
%ADD17C,0.508000*%
G04 #@! TD*
G04 #@! TA.AperFunction,Conductor*
%ADD18C,0.254000*%
G04 #@! TD*
G04 #@! TA.AperFunction,Conductor*
%ADD19C,0.100000*%
G04 #@! TD*
G04 APERTURE END LIST*
D10*
X142367500Y-123190000D03*
X139827500Y-123190000D03*
X142367500Y-125730000D03*
X139827500Y-125730000D03*
X142367500Y-128270000D03*
X139827500Y-128270000D03*
X142367500Y-130810000D03*
X139827500Y-130810000D03*
X142367500Y-133350000D03*
X139827500Y-133350000D03*
X142367500Y-135890000D03*
X139827500Y-135890000D03*
X142367500Y-138430000D03*
X139827500Y-138430000D03*
X142367500Y-140970000D03*
X139827500Y-140970000D03*
X142367500Y-143510000D03*
X139827500Y-143510000D03*
X142367500Y-146050000D03*
X139827500Y-146050000D03*
X142367500Y-148590000D03*
X139827500Y-148590000D03*
D11*
X127000000Y-127000000D03*
X128270000Y-125730000D03*
D12*
X127000000Y-124460000D03*
D13*
X116840000Y-121920000D03*
X116840000Y-129540000D03*
X116840000Y-149860000D03*
X116840000Y-142240000D03*
D12*
X127000000Y-144780000D03*
D11*
X128270000Y-146050000D03*
X127000000Y-147320000D03*
D14*
X80264000Y-123190000D03*
X82804000Y-123190000D03*
X80264000Y-125730000D03*
X82804000Y-125730000D03*
X80264000Y-128270000D03*
X82804000Y-128270000D03*
X80264000Y-130810000D03*
X82804000Y-130810000D03*
X80264000Y-133350000D03*
X82804000Y-133350000D03*
X80264000Y-135890000D03*
X82804000Y-135890000D03*
X80264000Y-138430000D03*
X82804000Y-138430000D03*
X80264000Y-140970000D03*
X82804000Y-140970000D03*
X80264000Y-143510000D03*
X82804000Y-143510000D03*
X80264000Y-146050000D03*
X82804000Y-146050000D03*
X80264000Y-148590000D03*
D15*
X82804000Y-148590000D03*
D16*
X109474000Y-150368000D03*
X104648000Y-150368000D03*
X109220000Y-130556000D03*
X109220000Y-140970000D03*
D17*
X125476000Y-139446000D03*
X105918000Y-139446000D03*
X104648000Y-141986000D03*
X98806000Y-138430000D03*
X98552000Y-131572000D03*
X105918000Y-135636000D03*
X125476000Y-135382000D03*
X117856000Y-131826000D03*
X107950000Y-126492000D03*
X107950000Y-124968000D03*
X119867000Y-141224000D03*
X93218000Y-139192000D03*
X92964000Y-131826000D03*
X121391000Y-140208000D03*
X94234000Y-138938000D03*
X87376000Y-130810000D03*
X127000000Y-131318000D03*
D18*
X151752301Y-151752300D02*
X110826204Y-151752300D01*
X110977013Y-151601491D01*
X111188775Y-151284566D01*
X111293778Y-151031066D01*
X115848539Y-151031066D01*
X115950339Y-151300579D01*
X116248477Y-151446463D01*
X116569346Y-151531380D01*
X116900617Y-151552066D01*
X117229557Y-151507728D01*
X117543527Y-151400069D01*
X117729661Y-151300579D01*
X117831461Y-151031066D01*
X116840000Y-150039605D01*
X115848539Y-151031066D01*
X111293778Y-151031066D01*
X111334639Y-150932419D01*
X111409000Y-150558581D01*
X111409000Y-150177419D01*
X111357919Y-149920617D01*
X115147934Y-149920617D01*
X115192272Y-150249557D01*
X115299931Y-150563527D01*
X115399421Y-150749661D01*
X115668934Y-150851461D01*
X116660395Y-149860000D01*
X117019605Y-149860000D01*
X118011066Y-150851461D01*
X118280579Y-150749661D01*
X118426463Y-150451523D01*
X118511380Y-150130654D01*
X118532066Y-149799383D01*
X118487728Y-149470443D01*
X118380069Y-149156473D01*
X118280579Y-148970339D01*
X118011066Y-148868539D01*
X117019605Y-149860000D01*
X116660395Y-149860000D01*
X115668934Y-148868539D01*
X115399421Y-148970339D01*
X115253537Y-149268477D01*
X115168620Y-149589346D01*
X115147934Y-149920617D01*
X111357919Y-149920617D01*
X111334639Y-149803581D01*
X111188775Y-149451434D01*
X110977013Y-149134509D01*
X110707491Y-148864987D01*
X110444009Y-148688934D01*
X115848539Y-148688934D01*
X116840000Y-149680395D01*
X117831461Y-148688934D01*
X117729661Y-148419421D01*
X117431523Y-148273537D01*
X117110654Y-148188620D01*
X116779383Y-148167934D01*
X116450443Y-148212272D01*
X116136473Y-148319931D01*
X115950339Y-148419421D01*
X115848539Y-148688934D01*
X110444009Y-148688934D01*
X110390566Y-148653225D01*
X110038419Y-148507361D01*
X109664581Y-148433000D01*
X109283419Y-148433000D01*
X108909581Y-148507361D01*
X108557434Y-148653225D01*
X108240509Y-148864987D01*
X107970987Y-149134509D01*
X107759225Y-149451434D01*
X107613361Y-149803581D01*
X107539000Y-150177419D01*
X107539000Y-150558581D01*
X107613361Y-150932419D01*
X107759225Y-151284566D01*
X107970987Y-151601491D01*
X108121796Y-151752300D01*
X105801936Y-151752300D01*
X105817619Y-151717224D01*
X104648000Y-150547605D01*
X103478381Y-151717224D01*
X103494064Y-151752300D01*
X76847700Y-151752300D01*
X76847700Y-123043740D01*
X78779000Y-123043740D01*
X78779000Y-123336260D01*
X78836068Y-123623158D01*
X78948010Y-123893411D01*
X79110525Y-124136632D01*
X79317368Y-124343475D01*
X79491760Y-124460000D01*
X79317368Y-124576525D01*
X79110525Y-124783368D01*
X78948010Y-125026589D01*
X78836068Y-125296842D01*
X78779000Y-125583740D01*
X78779000Y-125876260D01*
X78836068Y-126163158D01*
X78948010Y-126433411D01*
X79110525Y-126676632D01*
X79317368Y-126883475D01*
X79491760Y-127000000D01*
X79317368Y-127116525D01*
X79110525Y-127323368D01*
X78948010Y-127566589D01*
X78836068Y-127836842D01*
X78779000Y-128123740D01*
X78779000Y-128416260D01*
X78836068Y-128703158D01*
X78948010Y-128973411D01*
X79110525Y-129216632D01*
X79317368Y-129423475D01*
X79491760Y-129540000D01*
X79317368Y-129656525D01*
X79110525Y-129863368D01*
X78948010Y-130106589D01*
X78836068Y-130376842D01*
X78779000Y-130663740D01*
X78779000Y-130956260D01*
X78836068Y-131243158D01*
X78948010Y-131513411D01*
X79110525Y-131756632D01*
X79317368Y-131963475D01*
X79491760Y-132080000D01*
X79317368Y-132196525D01*
X79110525Y-132403368D01*
X78948010Y-132646589D01*
X78836068Y-132916842D01*
X78779000Y-133203740D01*
X78779000Y-133496260D01*
X78836068Y-133783158D01*
X78948010Y-134053411D01*
X79110525Y-134296632D01*
X79317368Y-134503475D01*
X79491760Y-134620000D01*
X79317368Y-134736525D01*
X79110525Y-134943368D01*
X78948010Y-135186589D01*
X78836068Y-135456842D01*
X78779000Y-135743740D01*
X78779000Y-136036260D01*
X78836068Y-136323158D01*
X78948010Y-136593411D01*
X79110525Y-136836632D01*
X79317368Y-137043475D01*
X79491760Y-137160000D01*
X79317368Y-137276525D01*
X79110525Y-137483368D01*
X78948010Y-137726589D01*
X78836068Y-137996842D01*
X78779000Y-138283740D01*
X78779000Y-138576260D01*
X78836068Y-138863158D01*
X78948010Y-139133411D01*
X79110525Y-139376632D01*
X79317368Y-139583475D01*
X79491760Y-139700000D01*
X79317368Y-139816525D01*
X79110525Y-140023368D01*
X78948010Y-140266589D01*
X78836068Y-140536842D01*
X78779000Y-140823740D01*
X78779000Y-141116260D01*
X78836068Y-141403158D01*
X78948010Y-141673411D01*
X79110525Y-141916632D01*
X79317368Y-142123475D01*
X79491760Y-142240000D01*
X79317368Y-142356525D01*
X79110525Y-142563368D01*
X78948010Y-142806589D01*
X78836068Y-143076842D01*
X78779000Y-143363740D01*
X78779000Y-143656260D01*
X78836068Y-143943158D01*
X78948010Y-144213411D01*
X79110525Y-144456632D01*
X79317368Y-144663475D01*
X79491760Y-144780000D01*
X79317368Y-144896525D01*
X79110525Y-145103368D01*
X78948010Y-145346589D01*
X78836068Y-145616842D01*
X78779000Y-145903740D01*
X78779000Y-146196260D01*
X78836068Y-146483158D01*
X78948010Y-146753411D01*
X79110525Y-146996632D01*
X79317368Y-147203475D01*
X79491760Y-147320000D01*
X79317368Y-147436525D01*
X79110525Y-147643368D01*
X78948010Y-147886589D01*
X78836068Y-148156842D01*
X78779000Y-148443740D01*
X78779000Y-148736260D01*
X78836068Y-149023158D01*
X78948010Y-149293411D01*
X79110525Y-149536632D01*
X79317368Y-149743475D01*
X79560589Y-149905990D01*
X79830842Y-150017932D01*
X80117740Y-150075000D01*
X80410260Y-150075000D01*
X80697158Y-150017932D01*
X80967411Y-149905990D01*
X81210632Y-149743475D01*
X81342487Y-149611620D01*
X81364498Y-149684180D01*
X81423463Y-149794494D01*
X81502815Y-149891185D01*
X81599506Y-149970537D01*
X81709820Y-150029502D01*
X81829518Y-150065812D01*
X81954000Y-150078072D01*
X82518250Y-150075000D01*
X82677000Y-149916250D01*
X82677000Y-148717000D01*
X82931000Y-148717000D01*
X82931000Y-149916250D01*
X83089750Y-150075000D01*
X83654000Y-150078072D01*
X83778482Y-150065812D01*
X83898180Y-150029502D01*
X84008494Y-149970537D01*
X84105185Y-149891185D01*
X84184537Y-149794494D01*
X84243502Y-149684180D01*
X84279812Y-149564482D01*
X84292072Y-149440000D01*
X84289000Y-148875750D01*
X84130250Y-148717000D01*
X82931000Y-148717000D01*
X82677000Y-148717000D01*
X82657000Y-148717000D01*
X82657000Y-148463000D01*
X82677000Y-148463000D01*
X82677000Y-148443000D01*
X82931000Y-148443000D01*
X82931000Y-148463000D01*
X84130250Y-148463000D01*
X84223378Y-148369872D01*
X93015000Y-148369872D01*
X93015000Y-148810128D01*
X93100890Y-149241925D01*
X93269369Y-149648669D01*
X93513962Y-150014729D01*
X93825271Y-150326038D01*
X94191331Y-150570631D01*
X94598075Y-150739110D01*
X95029872Y-150825000D01*
X95470128Y-150825000D01*
X95901925Y-150739110D01*
X96308669Y-150570631D01*
X96536006Y-150418729D01*
X102704299Y-150418729D01*
X102751543Y-150796951D01*
X102871667Y-151158690D01*
X103003688Y-151405683D01*
X103298776Y-151537619D01*
X104468395Y-150368000D01*
X104827605Y-150368000D01*
X105997224Y-151537619D01*
X106292312Y-151405683D01*
X106463159Y-151064955D01*
X106564250Y-150697443D01*
X106591701Y-150317271D01*
X106544457Y-149939049D01*
X106424333Y-149577310D01*
X106292312Y-149330317D01*
X105997224Y-149198381D01*
X104827605Y-150368000D01*
X104468395Y-150368000D01*
X103298776Y-149198381D01*
X103003688Y-149330317D01*
X102832841Y-149671045D01*
X102731750Y-150038557D01*
X102704299Y-150418729D01*
X96536006Y-150418729D01*
X96674729Y-150326038D01*
X96986038Y-150014729D01*
X97230631Y-149648669D01*
X97399110Y-149241925D01*
X97443497Y-149018776D01*
X103478381Y-149018776D01*
X104648000Y-150188395D01*
X105817619Y-149018776D01*
X105685683Y-148723688D01*
X105344955Y-148552841D01*
X104977443Y-148451750D01*
X104597271Y-148424299D01*
X104219049Y-148471543D01*
X103857310Y-148591667D01*
X103610317Y-148723688D01*
X103478381Y-149018776D01*
X97443497Y-149018776D01*
X97485000Y-148810128D01*
X97485000Y-148369872D01*
X97399110Y-147938075D01*
X97274654Y-147637610D01*
X125806533Y-147637610D01*
X125891428Y-147864341D01*
X126018925Y-148070153D01*
X126184124Y-148247137D01*
X126380676Y-148388492D01*
X126601029Y-148488785D01*
X126682391Y-148513462D01*
X126873000Y-148388731D01*
X126873000Y-147447000D01*
X127127000Y-147447000D01*
X127127000Y-148388731D01*
X127317609Y-148513462D01*
X127398971Y-148488785D01*
X127619324Y-148388492D01*
X127645214Y-148369872D01*
X131115000Y-148369872D01*
X131115000Y-148810128D01*
X131200890Y-149241925D01*
X131369369Y-149648669D01*
X131613962Y-150014729D01*
X131925271Y-150326038D01*
X132291331Y-150570631D01*
X132698075Y-150739110D01*
X133129872Y-150825000D01*
X133570128Y-150825000D01*
X134001925Y-150739110D01*
X134408669Y-150570631D01*
X134774729Y-150326038D01*
X135086038Y-150014729D01*
X135330631Y-149648669D01*
X135352040Y-149596982D01*
X139000124Y-149596982D01*
X139074127Y-149842993D01*
X139333050Y-149965893D01*
X139610974Y-150035917D01*
X139897219Y-150050376D01*
X140180785Y-150008714D01*
X140450775Y-149912532D01*
X140580873Y-149842993D01*
X140654876Y-149596982D01*
X139827500Y-148769605D01*
X139000124Y-149596982D01*
X135352040Y-149596982D01*
X135499110Y-149241925D01*
X135585000Y-148810128D01*
X135585000Y-148659719D01*
X138367124Y-148659719D01*
X138408786Y-148943285D01*
X138504968Y-149213275D01*
X138574507Y-149343373D01*
X138820518Y-149417376D01*
X139647895Y-148590000D01*
X138820518Y-147762624D01*
X138574507Y-147836627D01*
X138451607Y-148095550D01*
X138381583Y-148373474D01*
X138367124Y-148659719D01*
X135585000Y-148659719D01*
X135585000Y-148369872D01*
X135499110Y-147938075D01*
X135330631Y-147531331D01*
X135086038Y-147165271D01*
X134774729Y-146853962D01*
X134408669Y-146609369D01*
X134001925Y-146440890D01*
X133570128Y-146355000D01*
X133129872Y-146355000D01*
X132698075Y-146440890D01*
X132291331Y-146609369D01*
X131925271Y-146853962D01*
X131613962Y-147165271D01*
X131369369Y-147531331D01*
X131200890Y-147938075D01*
X131115000Y-148369872D01*
X127645214Y-148369872D01*
X127815876Y-148247137D01*
X127981075Y-148070153D01*
X128108572Y-147864341D01*
X128193467Y-147637610D01*
X128069709Y-147447000D01*
X127127000Y-147447000D01*
X126873000Y-147447000D01*
X125930291Y-147447000D01*
X125806533Y-147637610D01*
X97274654Y-147637610D01*
X97230631Y-147531331D01*
X96986038Y-147165271D01*
X96674729Y-146853962D01*
X96308669Y-146609369D01*
X95901925Y-146440890D01*
X95470128Y-146355000D01*
X95029872Y-146355000D01*
X94598075Y-146440890D01*
X94191331Y-146609369D01*
X93825271Y-146853962D01*
X93513962Y-147165271D01*
X93269369Y-147531331D01*
X93100890Y-147938075D01*
X93015000Y-148369872D01*
X84223378Y-148369872D01*
X84289000Y-148304250D01*
X84292072Y-147740000D01*
X84279812Y-147615518D01*
X84243502Y-147495820D01*
X84184537Y-147385506D01*
X84105185Y-147288815D01*
X84008494Y-147209463D01*
X83898180Y-147150498D01*
X83825620Y-147128487D01*
X83957475Y-146996632D01*
X84119990Y-146753411D01*
X84231932Y-146483158D01*
X84289000Y-146196260D01*
X84289000Y-145903740D01*
X84231932Y-145616842D01*
X84119990Y-145346589D01*
X83957475Y-145103368D01*
X83955788Y-145101681D01*
X125765087Y-145101681D01*
X125812554Y-145340263D01*
X125905654Y-145565000D01*
X126040809Y-145767256D01*
X126212826Y-145939258D01*
X126415093Y-146074396D01*
X126600812Y-146151314D01*
X126380676Y-146251508D01*
X126184124Y-146392863D01*
X126018925Y-146569847D01*
X125891428Y-146775659D01*
X125806533Y-147002390D01*
X125930291Y-147193000D01*
X126873000Y-147193000D01*
X126873000Y-146251269D01*
X126718245Y-146150000D01*
X126873000Y-146048731D01*
X126873000Y-145928363D01*
X127035000Y-145928363D01*
X127035000Y-146171637D01*
X127082460Y-146410236D01*
X127127000Y-146517765D01*
X127127000Y-147193000D01*
X127802235Y-147193000D01*
X127909764Y-147237540D01*
X128148363Y-147285000D01*
X128391637Y-147285000D01*
X128630236Y-147237540D01*
X128854992Y-147144443D01*
X129057267Y-147009287D01*
X129229287Y-146837267D01*
X129364443Y-146634992D01*
X129457540Y-146410236D01*
X129505000Y-146171637D01*
X129505000Y-145928363D01*
X129457540Y-145689764D01*
X129364443Y-145465008D01*
X129229287Y-145262733D01*
X129057267Y-145090713D01*
X128854992Y-144955557D01*
X128630236Y-144862460D01*
X128391637Y-144815000D01*
X128148363Y-144815000D01*
X127909764Y-144862460D01*
X127802235Y-144907000D01*
X127127000Y-144907000D01*
X127127000Y-145582235D01*
X127082460Y-145689764D01*
X127035000Y-145928363D01*
X126873000Y-145928363D01*
X126873000Y-144907000D01*
X125920006Y-144907000D01*
X125765087Y-145101681D01*
X83955788Y-145101681D01*
X83750632Y-144896525D01*
X83576240Y-144780000D01*
X83750632Y-144663475D01*
X83955788Y-144458319D01*
X125765087Y-144458319D01*
X125920006Y-144653000D01*
X126873000Y-144653000D01*
X126873000Y-143511269D01*
X127127000Y-143511269D01*
X127127000Y-144653000D01*
X128079994Y-144653000D01*
X128234913Y-144458319D01*
X128187446Y-144219737D01*
X128094346Y-143995000D01*
X127959191Y-143792744D01*
X127787174Y-143620742D01*
X127584907Y-143485604D01*
X127360162Y-143392523D01*
X127317609Y-143386538D01*
X127127000Y-143511269D01*
X126873000Y-143511269D01*
X126682391Y-143386538D01*
X126639838Y-143392523D01*
X126415093Y-143485604D01*
X126212826Y-143620742D01*
X126040809Y-143792744D01*
X125905654Y-143995000D01*
X125812554Y-144219737D01*
X125765087Y-144458319D01*
X83955788Y-144458319D01*
X83957475Y-144456632D01*
X84119990Y-144213411D01*
X84231932Y-143943158D01*
X84289000Y-143656260D01*
X84289000Y-143411066D01*
X115848539Y-143411066D01*
X115950339Y-143680579D01*
X116248477Y-143826463D01*
X116569346Y-143911380D01*
X116900617Y-143932066D01*
X117229557Y-143887728D01*
X117543527Y-143780069D01*
X117729661Y-143680579D01*
X117831461Y-143411066D01*
X116840000Y-142419605D01*
X115848539Y-143411066D01*
X84289000Y-143411066D01*
X84289000Y-143363740D01*
X84231932Y-143076842D01*
X84119990Y-142806589D01*
X83957475Y-142563368D01*
X83750632Y-142356525D01*
X83576240Y-142240000D01*
X83750632Y-142123475D01*
X83957475Y-141916632D01*
X84119990Y-141673411D01*
X84231932Y-141403158D01*
X84289000Y-141116260D01*
X84289000Y-140823740D01*
X84280184Y-140779419D01*
X107285000Y-140779419D01*
X107285000Y-141160581D01*
X107359361Y-141534419D01*
X107505225Y-141886566D01*
X107716987Y-142203491D01*
X107986509Y-142473013D01*
X108303434Y-142684775D01*
X108655581Y-142830639D01*
X109029419Y-142905000D01*
X109410581Y-142905000D01*
X109784419Y-142830639D01*
X110136566Y-142684775D01*
X110453491Y-142473013D01*
X110625887Y-142300617D01*
X115147934Y-142300617D01*
X115192272Y-142629557D01*
X115299931Y-142943527D01*
X115399421Y-143129661D01*
X115668934Y-143231461D01*
X116660395Y-142240000D01*
X117019605Y-142240000D01*
X118011066Y-143231461D01*
X118280579Y-143129661D01*
X118426463Y-142831523D01*
X118511380Y-142510654D01*
X118532066Y-142179383D01*
X118487728Y-141850443D01*
X118380069Y-141536473D01*
X118280579Y-141350339D01*
X118011066Y-141248539D01*
X117019605Y-142240000D01*
X116660395Y-142240000D01*
X115668934Y-141248539D01*
X115399421Y-141350339D01*
X115253537Y-141648477D01*
X115168620Y-141969346D01*
X115147934Y-142300617D01*
X110625887Y-142300617D01*
X110723013Y-142203491D01*
X110934775Y-141886566D01*
X111080639Y-141534419D01*
X111155000Y-141160581D01*
X111155000Y-141068934D01*
X115848539Y-141068934D01*
X116840000Y-142060395D01*
X117763954Y-141136441D01*
X118978000Y-141136441D01*
X118978000Y-141311559D01*
X119012164Y-141483312D01*
X119079179Y-141645099D01*
X119176469Y-141790704D01*
X119300296Y-141914531D01*
X119445901Y-142011821D01*
X119607688Y-142078836D01*
X119779441Y-142113000D01*
X119954559Y-142113000D01*
X120126312Y-142078836D01*
X120288099Y-142011821D01*
X120433704Y-141914531D01*
X120557531Y-141790704D01*
X120654821Y-141645099D01*
X120721836Y-141483312D01*
X120756000Y-141311559D01*
X120756000Y-141136441D01*
X120721836Y-140964688D01*
X120654821Y-140802901D01*
X120557531Y-140657296D01*
X120433704Y-140533469D01*
X120288099Y-140436179D01*
X120126312Y-140369164D01*
X119954559Y-140335000D01*
X119779441Y-140335000D01*
X119607688Y-140369164D01*
X119445901Y-140436179D01*
X119300296Y-140533469D01*
X119176469Y-140657296D01*
X119079179Y-140802901D01*
X119012164Y-140964688D01*
X118978000Y-141136441D01*
X117763954Y-141136441D01*
X117831461Y-141068934D01*
X117729661Y-140799421D01*
X117431523Y-140653537D01*
X117110654Y-140568620D01*
X116779383Y-140547934D01*
X116450443Y-140592272D01*
X116136473Y-140699931D01*
X115950339Y-140799421D01*
X115848539Y-141068934D01*
X111155000Y-141068934D01*
X111155000Y-140779419D01*
X111080639Y-140405581D01*
X110962531Y-140120441D01*
X120502000Y-140120441D01*
X120502000Y-140295559D01*
X120536164Y-140467312D01*
X120603179Y-140629099D01*
X120700469Y-140774704D01*
X120824296Y-140898531D01*
X120969901Y-140995821D01*
X121131688Y-141062836D01*
X121303441Y-141097000D01*
X121478559Y-141097000D01*
X121650312Y-141062836D01*
X121812099Y-140995821D01*
X121957704Y-140898531D01*
X122081531Y-140774704D01*
X122178821Y-140629099D01*
X122245836Y-140467312D01*
X122280000Y-140295559D01*
X122280000Y-140120441D01*
X122245836Y-139948688D01*
X122178821Y-139786901D01*
X122081531Y-139641296D01*
X121957704Y-139517469D01*
X121812099Y-139420179D01*
X121663052Y-139358441D01*
X124587000Y-139358441D01*
X124587000Y-139533559D01*
X124621164Y-139705312D01*
X124688179Y-139867099D01*
X124785469Y-140012704D01*
X124909296Y-140136531D01*
X125054901Y-140233821D01*
X125216688Y-140300836D01*
X125388441Y-140335000D01*
X125563559Y-140335000D01*
X125735312Y-140300836D01*
X125897099Y-140233821D01*
X126042704Y-140136531D01*
X126166531Y-140012704D01*
X126263821Y-139867099D01*
X126330836Y-139705312D01*
X126365000Y-139533559D01*
X126365000Y-139358441D01*
X126330836Y-139186688D01*
X126263821Y-139024901D01*
X126166531Y-138879296D01*
X126042704Y-138755469D01*
X125897099Y-138658179D01*
X125735312Y-138591164D01*
X125563559Y-138557000D01*
X125388441Y-138557000D01*
X125216688Y-138591164D01*
X125054901Y-138658179D01*
X124909296Y-138755469D01*
X124785469Y-138879296D01*
X124688179Y-139024901D01*
X124621164Y-139186688D01*
X124587000Y-139358441D01*
X121663052Y-139358441D01*
X121650312Y-139353164D01*
X121478559Y-139319000D01*
X121303441Y-139319000D01*
X121131688Y-139353164D01*
X120969901Y-139420179D01*
X120824296Y-139517469D01*
X120700469Y-139641296D01*
X120603179Y-139786901D01*
X120536164Y-139948688D01*
X120502000Y-140120441D01*
X110962531Y-140120441D01*
X110934775Y-140053434D01*
X110723013Y-139736509D01*
X110453491Y-139466987D01*
X110136566Y-139255225D01*
X109784419Y-139109361D01*
X109410581Y-139035000D01*
X109029419Y-139035000D01*
X108655581Y-139109361D01*
X108303434Y-139255225D01*
X107986509Y-139466987D01*
X107716987Y-139736509D01*
X107505225Y-140053434D01*
X107359361Y-140405581D01*
X107285000Y-140779419D01*
X84280184Y-140779419D01*
X84231932Y-140536842D01*
X84119990Y-140266589D01*
X83957475Y-140023368D01*
X83750632Y-139816525D01*
X83576240Y-139700000D01*
X83750632Y-139583475D01*
X83957475Y-139376632D01*
X84119990Y-139133411D01*
X84131989Y-139104441D01*
X92329000Y-139104441D01*
X92329000Y-139279559D01*
X92363164Y-139451312D01*
X92430179Y-139613099D01*
X92527469Y-139758704D01*
X92651296Y-139882531D01*
X92796901Y-139979821D01*
X92958688Y-140046836D01*
X93130441Y-140081000D01*
X93305559Y-140081000D01*
X93477312Y-140046836D01*
X93639099Y-139979821D01*
X93784704Y-139882531D01*
X93903773Y-139763462D01*
X93974688Y-139792836D01*
X94146441Y-139827000D01*
X94321559Y-139827000D01*
X94493312Y-139792836D01*
X94655099Y-139725821D01*
X94800704Y-139628531D01*
X94924531Y-139504704D01*
X95021821Y-139359099D01*
X95022093Y-139358441D01*
X105029000Y-139358441D01*
X105029000Y-139533559D01*
X105063164Y-139705312D01*
X105130179Y-139867099D01*
X105227469Y-140012704D01*
X105351296Y-140136531D01*
X105496901Y-140233821D01*
X105658688Y-140300836D01*
X105830441Y-140335000D01*
X106005559Y-140335000D01*
X106177312Y-140300836D01*
X106339099Y-140233821D01*
X106484704Y-140136531D01*
X106608531Y-140012704D01*
X106705821Y-139867099D01*
X106772836Y-139705312D01*
X106807000Y-139533559D01*
X106807000Y-139358441D01*
X106772836Y-139186688D01*
X106705821Y-139024901D01*
X106608531Y-138879296D01*
X106484704Y-138755469D01*
X106339099Y-138658179D01*
X106177312Y-138591164D01*
X106005559Y-138557000D01*
X105830441Y-138557000D01*
X105658688Y-138591164D01*
X105496901Y-138658179D01*
X105351296Y-138755469D01*
X105227469Y-138879296D01*
X105130179Y-139024901D01*
X105063164Y-139186688D01*
X105029000Y-139358441D01*
X95022093Y-139358441D01*
X95088836Y-139197312D01*
X95123000Y-139025559D01*
X95123000Y-138850441D01*
X95088836Y-138678688D01*
X95021821Y-138516901D01*
X94924531Y-138371296D01*
X94800704Y-138247469D01*
X94655099Y-138150179D01*
X94493312Y-138083164D01*
X94321559Y-138049000D01*
X94146441Y-138049000D01*
X93974688Y-138083164D01*
X93812901Y-138150179D01*
X93667296Y-138247469D01*
X93548227Y-138366538D01*
X93477312Y-138337164D01*
X93305559Y-138303000D01*
X93130441Y-138303000D01*
X92958688Y-138337164D01*
X92796901Y-138404179D01*
X92651296Y-138501469D01*
X92527469Y-138625296D01*
X92430179Y-138770901D01*
X92363164Y-138932688D01*
X92329000Y-139104441D01*
X84131989Y-139104441D01*
X84231932Y-138863158D01*
X84289000Y-138576260D01*
X84289000Y-138283740D01*
X84231932Y-137996842D01*
X84119990Y-137726589D01*
X83957475Y-137483368D01*
X83750632Y-137276525D01*
X83576240Y-137160000D01*
X83750632Y-137043475D01*
X83957475Y-136836632D01*
X84119990Y-136593411D01*
X84231932Y-136323158D01*
X84289000Y-136036260D01*
X84289000Y-135743740D01*
X84231932Y-135456842D01*
X84119990Y-135186589D01*
X83957475Y-134943368D01*
X83750632Y-134736525D01*
X83576240Y-134620000D01*
X83750632Y-134503475D01*
X83957475Y-134296632D01*
X84119990Y-134053411D01*
X84231932Y-133783158D01*
X84260905Y-133637500D01*
X136420452Y-133637500D01*
X136420452Y-136457500D01*
X138487686Y-136457500D01*
X138538096Y-136579201D01*
X138697328Y-136817508D01*
X138899992Y-137020172D01*
X139109259Y-137160000D01*
X138899992Y-137299828D01*
X138697328Y-137502492D01*
X138538096Y-137740799D01*
X138428415Y-138005592D01*
X138372500Y-138286695D01*
X138372500Y-138573305D01*
X138428415Y-138854408D01*
X138538096Y-139119201D01*
X138697328Y-139357508D01*
X138899992Y-139560172D01*
X139109259Y-139700000D01*
X138899992Y-139839828D01*
X138697328Y-140042492D01*
X138538096Y-140280799D01*
X138428415Y-140545592D01*
X138372500Y-140826695D01*
X138372500Y-141113305D01*
X138428415Y-141394408D01*
X138538096Y-141659201D01*
X138697328Y-141897508D01*
X138899992Y-142100172D01*
X139109259Y-142240000D01*
X138899992Y-142379828D01*
X138697328Y-142582492D01*
X138538096Y-142820799D01*
X138428415Y-143085592D01*
X138372500Y-143366695D01*
X138372500Y-143653305D01*
X138428415Y-143934408D01*
X138538096Y-144199201D01*
X138697328Y-144437508D01*
X138899992Y-144640172D01*
X139109259Y-144780000D01*
X138899992Y-144919828D01*
X138697328Y-145122492D01*
X138538096Y-145360799D01*
X138428415Y-145625592D01*
X138372500Y-145906695D01*
X138372500Y-146193305D01*
X138428415Y-146474408D01*
X138538096Y-146739201D01*
X138697328Y-146977508D01*
X138899992Y-147180172D01*
X139107786Y-147319016D01*
X139074127Y-147337007D01*
X139000124Y-147583018D01*
X139827500Y-148410395D01*
X140654876Y-147583018D01*
X140580873Y-147337007D01*
X140545451Y-147320194D01*
X140755008Y-147180172D01*
X140957672Y-146977508D01*
X141097500Y-146768241D01*
X141237328Y-146977508D01*
X141439992Y-147180172D01*
X141649259Y-147320000D01*
X141439992Y-147459828D01*
X141237328Y-147662492D01*
X141098484Y-147870286D01*
X141080493Y-147836627D01*
X140834482Y-147762624D01*
X140007105Y-148590000D01*
X140834482Y-149417376D01*
X141080493Y-149343373D01*
X141097306Y-149307951D01*
X141237328Y-149517508D01*
X141439992Y-149720172D01*
X141678299Y-149879404D01*
X141943092Y-149989085D01*
X142224195Y-150045000D01*
X142510805Y-150045000D01*
X142791908Y-149989085D01*
X143056701Y-149879404D01*
X143295008Y-149720172D01*
X143497672Y-149517508D01*
X143656904Y-149279201D01*
X143766585Y-149014408D01*
X143822500Y-148733305D01*
X143822500Y-148446695D01*
X143766585Y-148165592D01*
X143656904Y-147900799D01*
X143497672Y-147662492D01*
X143295008Y-147459828D01*
X143085741Y-147320000D01*
X143295008Y-147180172D01*
X143497672Y-146977508D01*
X143656904Y-146739201D01*
X143766585Y-146474408D01*
X143822500Y-146193305D01*
X143822500Y-145906695D01*
X143766585Y-145625592D01*
X143656904Y-145360799D01*
X143497672Y-145122492D01*
X143295008Y-144919828D01*
X143085741Y-144780000D01*
X143295008Y-144640172D01*
X143497672Y-144437508D01*
X143656904Y-144199201D01*
X143766585Y-143934408D01*
X143822500Y-143653305D01*
X143822500Y-143366695D01*
X143766585Y-143085592D01*
X143656904Y-142820799D01*
X143497672Y-142582492D01*
X143295008Y-142379828D01*
X143085741Y-142240000D01*
X143295008Y-142100172D01*
X143497672Y-141897508D01*
X143656904Y-141659201D01*
X143766585Y-141394408D01*
X143822500Y-141113305D01*
X143822500Y-140826695D01*
X143766585Y-140545592D01*
X143656904Y-140280799D01*
X143497672Y-140042492D01*
X143295008Y-139839828D01*
X143085741Y-139700000D01*
X143295008Y-139560172D01*
X143497672Y-139357508D01*
X143656904Y-139119201D01*
X143766585Y-138854408D01*
X143822500Y-138573305D01*
X143822500Y-138286695D01*
X143766585Y-138005592D01*
X143656904Y-137740799D01*
X143497672Y-137502492D01*
X143295008Y-137299828D01*
X143085741Y-137160000D01*
X143295008Y-137020172D01*
X143497672Y-136817508D01*
X143656904Y-136579201D01*
X143766585Y-136314408D01*
X143822500Y-136033305D01*
X143822500Y-135746695D01*
X143766585Y-135465592D01*
X143656904Y-135200799D01*
X143497672Y-134962492D01*
X143295008Y-134759828D01*
X143085741Y-134620000D01*
X143295008Y-134480172D01*
X143497672Y-134277508D01*
X143656904Y-134039201D01*
X143766585Y-133774408D01*
X143822500Y-133493305D01*
X143822500Y-133206695D01*
X143766585Y-132925592D01*
X143656904Y-132660799D01*
X143497672Y-132422492D01*
X143295008Y-132219828D01*
X143085741Y-132080000D01*
X143295008Y-131940172D01*
X143497672Y-131737508D01*
X143656904Y-131499201D01*
X143766585Y-131234408D01*
X143822500Y-130953305D01*
X143822500Y-130666695D01*
X143766585Y-130385592D01*
X143656904Y-130120799D01*
X143497672Y-129882492D01*
X143295008Y-129679828D01*
X143085741Y-129540000D01*
X143295008Y-129400172D01*
X143497672Y-129197508D01*
X143656904Y-128959201D01*
X143766585Y-128694408D01*
X143822500Y-128413305D01*
X143822500Y-128126695D01*
X143766585Y-127845592D01*
X143656904Y-127580799D01*
X143497672Y-127342492D01*
X143295008Y-127139828D01*
X143085741Y-127000000D01*
X143295008Y-126860172D01*
X143497672Y-126657508D01*
X143656904Y-126419201D01*
X143766585Y-126154408D01*
X143822500Y-125873305D01*
X143822500Y-125586695D01*
X143766585Y-125305592D01*
X143656904Y-125040799D01*
X143497672Y-124802492D01*
X143295008Y-124599828D01*
X143085741Y-124460000D01*
X143295008Y-124320172D01*
X143497672Y-124117508D01*
X143656904Y-123879201D01*
X143766585Y-123614408D01*
X143822500Y-123333305D01*
X143822500Y-123046695D01*
X143766585Y-122765592D01*
X143656904Y-122500799D01*
X143497672Y-122262492D01*
X143295008Y-122059828D01*
X143056701Y-121900596D01*
X142791908Y-121790915D01*
X142510805Y-121735000D01*
X142224195Y-121735000D01*
X141943092Y-121790915D01*
X141678299Y-121900596D01*
X141439992Y-122059828D01*
X141237328Y-122262492D01*
X141097500Y-122471759D01*
X140957672Y-122262492D01*
X140755008Y-122059828D01*
X140516701Y-121900596D01*
X140251908Y-121790915D01*
X139970805Y-121735000D01*
X139684195Y-121735000D01*
X139403092Y-121790915D01*
X139138299Y-121900596D01*
X138899992Y-122059828D01*
X138697328Y-122262492D01*
X138538096Y-122500799D01*
X138428415Y-122765592D01*
X138372500Y-123046695D01*
X138372500Y-123333305D01*
X138428415Y-123614408D01*
X138538096Y-123879201D01*
X138697328Y-124117508D01*
X138899992Y-124320172D01*
X139109259Y-124460000D01*
X138899992Y-124599828D01*
X138697328Y-124802492D01*
X138538096Y-125040799D01*
X138428415Y-125305592D01*
X138372500Y-125586695D01*
X138372500Y-125873305D01*
X138428415Y-126154408D01*
X138538096Y-126419201D01*
X138697328Y-126657508D01*
X138899992Y-126860172D01*
X139109259Y-127000000D01*
X138899992Y-127139828D01*
X138697328Y-127342492D01*
X138538096Y-127580799D01*
X138428415Y-127845592D01*
X138372500Y-128126695D01*
X138372500Y-128413305D01*
X138428415Y-128694408D01*
X138538096Y-128959201D01*
X138697328Y-129197508D01*
X138899992Y-129400172D01*
X139109259Y-129540000D01*
X138899992Y-129679828D01*
X138697328Y-129882492D01*
X138538096Y-130120799D01*
X138428415Y-130385592D01*
X138372500Y-130666695D01*
X138372500Y-130953305D01*
X138428415Y-131234408D01*
X138538096Y-131499201D01*
X138697328Y-131737508D01*
X138899992Y-131940172D01*
X139109259Y-132080000D01*
X138899992Y-132219828D01*
X138697328Y-132422492D01*
X138538096Y-132660799D01*
X138428415Y-132925592D01*
X138372500Y-133206695D01*
X138372500Y-133493305D01*
X138401182Y-133637500D01*
X136420452Y-133637500D01*
X84260905Y-133637500D01*
X84289000Y-133496260D01*
X84289000Y-133203740D01*
X84231932Y-132916842D01*
X84119990Y-132646589D01*
X83957475Y-132403368D01*
X83750632Y-132196525D01*
X83576240Y-132080000D01*
X83750632Y-131963475D01*
X83957475Y-131756632D01*
X83969629Y-131738441D01*
X92075000Y-131738441D01*
X92075000Y-131913559D01*
X92109164Y-132085312D01*
X92176179Y-132247099D01*
X92273469Y-132392704D01*
X92397296Y-132516531D01*
X92542901Y-132613821D01*
X92704688Y-132680836D01*
X92876441Y-132715000D01*
X93051559Y-132715000D01*
X93223312Y-132680836D01*
X93385099Y-132613821D01*
X93530704Y-132516531D01*
X93654531Y-132392704D01*
X93751821Y-132247099D01*
X93818836Y-132085312D01*
X93853000Y-131913559D01*
X93853000Y-131738441D01*
X93818836Y-131566688D01*
X93751821Y-131404901D01*
X93654531Y-131259296D01*
X93530704Y-131135469D01*
X93385099Y-131038179D01*
X93223312Y-130971164D01*
X93051559Y-130937000D01*
X92876441Y-130937000D01*
X92704688Y-130971164D01*
X92542901Y-131038179D01*
X92397296Y-131135469D01*
X92273469Y-131259296D01*
X92176179Y-131404901D01*
X92109164Y-131566688D01*
X92075000Y-131738441D01*
X83969629Y-131738441D01*
X84119990Y-131513411D01*
X84231932Y-131243158D01*
X84289000Y-130956260D01*
X84289000Y-130722441D01*
X86487000Y-130722441D01*
X86487000Y-130897559D01*
X86521164Y-131069312D01*
X86588179Y-131231099D01*
X86685469Y-131376704D01*
X86809296Y-131500531D01*
X86954901Y-131597821D01*
X87116688Y-131664836D01*
X87288441Y-131699000D01*
X87463559Y-131699000D01*
X87635312Y-131664836D01*
X87797099Y-131597821D01*
X87942704Y-131500531D01*
X88066531Y-131376704D01*
X88163821Y-131231099D01*
X88230836Y-131069312D01*
X88265000Y-130897559D01*
X88265000Y-130722441D01*
X88230836Y-130550688D01*
X88163821Y-130388901D01*
X88148131Y-130365419D01*
X107285000Y-130365419D01*
X107285000Y-130746581D01*
X107359361Y-131120419D01*
X107505225Y-131472566D01*
X107716987Y-131789491D01*
X107986509Y-132059013D01*
X108303434Y-132270775D01*
X108655581Y-132416639D01*
X109029419Y-132491000D01*
X109410581Y-132491000D01*
X109784419Y-132416639D01*
X110136566Y-132270775D01*
X110453491Y-132059013D01*
X110723013Y-131789491D01*
X110934775Y-131472566D01*
X111080639Y-131120419D01*
X111155000Y-130746581D01*
X111155000Y-130711066D01*
X115848539Y-130711066D01*
X115950339Y-130980579D01*
X116248477Y-131126463D01*
X116569346Y-131211380D01*
X116900617Y-131232066D01*
X116912672Y-131230441D01*
X126111000Y-131230441D01*
X126111000Y-131405559D01*
X126145164Y-131577312D01*
X126212179Y-131739099D01*
X126309469Y-131884704D01*
X126433296Y-132008531D01*
X126578901Y-132105821D01*
X126740688Y-132172836D01*
X126912441Y-132207000D01*
X127087559Y-132207000D01*
X127259312Y-132172836D01*
X127421099Y-132105821D01*
X127566704Y-132008531D01*
X127690531Y-131884704D01*
X127787821Y-131739099D01*
X127854836Y-131577312D01*
X127889000Y-131405559D01*
X127889000Y-131230441D01*
X127854836Y-131058688D01*
X127787821Y-130896901D01*
X127690531Y-130751296D01*
X127566704Y-130627469D01*
X127421099Y-130530179D01*
X127259312Y-130463164D01*
X127087559Y-130429000D01*
X126912441Y-130429000D01*
X126740688Y-130463164D01*
X126578901Y-130530179D01*
X126433296Y-130627469D01*
X126309469Y-130751296D01*
X126212179Y-130896901D01*
X126145164Y-131058688D01*
X126111000Y-131230441D01*
X116912672Y-131230441D01*
X117229557Y-131187728D01*
X117543527Y-131080069D01*
X117729661Y-130980579D01*
X117831461Y-130711066D01*
X116840000Y-129719605D01*
X115848539Y-130711066D01*
X111155000Y-130711066D01*
X111155000Y-130365419D01*
X111080639Y-129991581D01*
X110934775Y-129639434D01*
X110908839Y-129600617D01*
X115147934Y-129600617D01*
X115192272Y-129929557D01*
X115299931Y-130243527D01*
X115399421Y-130429661D01*
X115668934Y-130531461D01*
X116660395Y-129540000D01*
X117019605Y-129540000D01*
X118011066Y-130531461D01*
X118280579Y-130429661D01*
X118426463Y-130131523D01*
X118511380Y-129810654D01*
X118532066Y-129479383D01*
X118487728Y-129150443D01*
X118380069Y-128836473D01*
X118280579Y-128650339D01*
X118011066Y-128548539D01*
X117019605Y-129540000D01*
X116660395Y-129540000D01*
X115668934Y-128548539D01*
X115399421Y-128650339D01*
X115253537Y-128948477D01*
X115168620Y-129269346D01*
X115147934Y-129600617D01*
X110908839Y-129600617D01*
X110723013Y-129322509D01*
X110453491Y-129052987D01*
X110136566Y-128841225D01*
X109784419Y-128695361D01*
X109410581Y-128621000D01*
X109029419Y-128621000D01*
X108655581Y-128695361D01*
X108303434Y-128841225D01*
X107986509Y-129052987D01*
X107716987Y-129322509D01*
X107505225Y-129639434D01*
X107359361Y-129991581D01*
X107285000Y-130365419D01*
X88148131Y-130365419D01*
X88066531Y-130243296D01*
X87942704Y-130119469D01*
X87797099Y-130022179D01*
X87635312Y-129955164D01*
X87463559Y-129921000D01*
X87288441Y-129921000D01*
X87116688Y-129955164D01*
X86954901Y-130022179D01*
X86809296Y-130119469D01*
X86685469Y-130243296D01*
X86588179Y-130388901D01*
X86521164Y-130550688D01*
X86487000Y-130722441D01*
X84289000Y-130722441D01*
X84289000Y-130663740D01*
X84231932Y-130376842D01*
X84119990Y-130106589D01*
X83957475Y-129863368D01*
X83750632Y-129656525D01*
X83576240Y-129540000D01*
X83750632Y-129423475D01*
X83957475Y-129216632D01*
X84119990Y-128973411D01*
X84231932Y-128703158D01*
X84289000Y-128416260D01*
X84289000Y-128368934D01*
X115848539Y-128368934D01*
X116840000Y-129360395D01*
X117831461Y-128368934D01*
X117729661Y-128099421D01*
X117431523Y-127953537D01*
X117110654Y-127868620D01*
X116779383Y-127847934D01*
X116450443Y-127892272D01*
X116136473Y-127999931D01*
X115950339Y-128099421D01*
X115848539Y-128368934D01*
X84289000Y-128368934D01*
X84289000Y-128123740D01*
X84231932Y-127836842D01*
X84119990Y-127566589D01*
X83957475Y-127323368D01*
X83750632Y-127116525D01*
X83576240Y-127000000D01*
X83750632Y-126883475D01*
X83957475Y-126676632D01*
X84119990Y-126433411D01*
X84231932Y-126163158D01*
X84289000Y-125876260D01*
X84289000Y-125583740D01*
X84231932Y-125296842D01*
X84119990Y-125026589D01*
X83957475Y-124783368D01*
X83750632Y-124576525D01*
X83576240Y-124460000D01*
X83750632Y-124343475D01*
X83957475Y-124136632D01*
X84119990Y-123893411D01*
X84231932Y-123623158D01*
X84289000Y-123336260D01*
X84289000Y-123043740D01*
X84274307Y-122969872D01*
X93015000Y-122969872D01*
X93015000Y-123410128D01*
X93100890Y-123841925D01*
X93269369Y-124248669D01*
X93513962Y-124614729D01*
X93825271Y-124926038D01*
X94191331Y-125170631D01*
X94598075Y-125339110D01*
X95029872Y-125425000D01*
X95470128Y-125425000D01*
X95901925Y-125339110D01*
X96308669Y-125170631D01*
X96674729Y-124926038D01*
X96720326Y-124880441D01*
X107061000Y-124880441D01*
X107061000Y-125055559D01*
X107095164Y-125227312D01*
X107162179Y-125389099D01*
X107259469Y-125534704D01*
X107383296Y-125658531D01*
X107490257Y-125730000D01*
X107383296Y-125801469D01*
X107259469Y-125925296D01*
X107162179Y-126070901D01*
X107095164Y-126232688D01*
X107061000Y-126404441D01*
X107061000Y-126579559D01*
X107095164Y-126751312D01*
X107162179Y-126913099D01*
X107259469Y-127058704D01*
X107383296Y-127182531D01*
X107528901Y-127279821D01*
X107690688Y-127346836D01*
X107862441Y-127381000D01*
X108037559Y-127381000D01*
X108209312Y-127346836D01*
X108279869Y-127317610D01*
X125806533Y-127317610D01*
X125891428Y-127544341D01*
X126018925Y-127750153D01*
X126184124Y-127927137D01*
X126380676Y-128068492D01*
X126601029Y-128168785D01*
X126682391Y-128193462D01*
X126873000Y-128068731D01*
X126873000Y-127127000D01*
X127127000Y-127127000D01*
X127127000Y-128068731D01*
X127317609Y-128193462D01*
X127398971Y-128168785D01*
X127619324Y-128068492D01*
X127815876Y-127927137D01*
X127981075Y-127750153D01*
X128108572Y-127544341D01*
X128193467Y-127317610D01*
X128069709Y-127127000D01*
X127127000Y-127127000D01*
X126873000Y-127127000D01*
X125930291Y-127127000D01*
X125806533Y-127317610D01*
X108279869Y-127317610D01*
X108371099Y-127279821D01*
X108516704Y-127182531D01*
X108640531Y-127058704D01*
X108737821Y-126913099D01*
X108804836Y-126751312D01*
X108839000Y-126579559D01*
X108839000Y-126404441D01*
X108804836Y-126232688D01*
X108737821Y-126070901D01*
X108640531Y-125925296D01*
X108516704Y-125801469D01*
X108409743Y-125730000D01*
X108516704Y-125658531D01*
X108640531Y-125534704D01*
X108737821Y-125389099D01*
X108804836Y-125227312D01*
X108839000Y-125055559D01*
X108839000Y-124880441D01*
X108819356Y-124781681D01*
X125765087Y-124781681D01*
X125812554Y-125020263D01*
X125905654Y-125245000D01*
X126040809Y-125447256D01*
X126212826Y-125619258D01*
X126415093Y-125754396D01*
X126600812Y-125831314D01*
X126380676Y-125931508D01*
X126184124Y-126072863D01*
X126018925Y-126249847D01*
X125891428Y-126455659D01*
X125806533Y-126682390D01*
X125930291Y-126873000D01*
X126873000Y-126873000D01*
X126873000Y-125931269D01*
X126718245Y-125830000D01*
X126873000Y-125728731D01*
X126873000Y-125608363D01*
X127035000Y-125608363D01*
X127035000Y-125851637D01*
X127082460Y-126090236D01*
X127127000Y-126197765D01*
X127127000Y-126873000D01*
X127802235Y-126873000D01*
X127909764Y-126917540D01*
X128148363Y-126965000D01*
X128391637Y-126965000D01*
X128630236Y-126917540D01*
X128854992Y-126824443D01*
X129057267Y-126689287D01*
X129229287Y-126517267D01*
X129364443Y-126314992D01*
X129457540Y-126090236D01*
X129505000Y-125851637D01*
X129505000Y-125608363D01*
X129457540Y-125369764D01*
X129364443Y-125145008D01*
X129229287Y-124942733D01*
X129057267Y-124770713D01*
X128854992Y-124635557D01*
X128630236Y-124542460D01*
X128391637Y-124495000D01*
X128148363Y-124495000D01*
X127909764Y-124542460D01*
X127802235Y-124587000D01*
X127127000Y-124587000D01*
X127127000Y-125262235D01*
X127082460Y-125369764D01*
X127035000Y-125608363D01*
X126873000Y-125608363D01*
X126873000Y-124587000D01*
X125920006Y-124587000D01*
X125765087Y-124781681D01*
X108819356Y-124781681D01*
X108804836Y-124708688D01*
X108737821Y-124546901D01*
X108640531Y-124401296D01*
X108516704Y-124277469D01*
X108371099Y-124180179D01*
X108270041Y-124138319D01*
X125765087Y-124138319D01*
X125920006Y-124333000D01*
X126873000Y-124333000D01*
X126873000Y-123191269D01*
X127127000Y-123191269D01*
X127127000Y-124333000D01*
X128079994Y-124333000D01*
X128234913Y-124138319D01*
X128187446Y-123899737D01*
X128094346Y-123675000D01*
X127959191Y-123472744D01*
X127787174Y-123300742D01*
X127584907Y-123165604D01*
X127360162Y-123072523D01*
X127317609Y-123066538D01*
X127127000Y-123191269D01*
X126873000Y-123191269D01*
X126682391Y-123066538D01*
X126639838Y-123072523D01*
X126415093Y-123165604D01*
X126212826Y-123300742D01*
X126040809Y-123472744D01*
X125905654Y-123675000D01*
X125812554Y-123899737D01*
X125765087Y-124138319D01*
X108270041Y-124138319D01*
X108209312Y-124113164D01*
X108037559Y-124079000D01*
X107862441Y-124079000D01*
X107690688Y-124113164D01*
X107528901Y-124180179D01*
X107383296Y-124277469D01*
X107259469Y-124401296D01*
X107162179Y-124546901D01*
X107095164Y-124708688D01*
X107061000Y-124880441D01*
X96720326Y-124880441D01*
X96986038Y-124614729D01*
X97230631Y-124248669D01*
X97399110Y-123841925D01*
X97485000Y-123410128D01*
X97485000Y-123091066D01*
X115848539Y-123091066D01*
X115950339Y-123360579D01*
X116248477Y-123506463D01*
X116569346Y-123591380D01*
X116900617Y-123612066D01*
X117229557Y-123567728D01*
X117543527Y-123460069D01*
X117729661Y-123360579D01*
X117831461Y-123091066D01*
X117710267Y-122969872D01*
X131115000Y-122969872D01*
X131115000Y-123410128D01*
X131200890Y-123841925D01*
X131369369Y-124248669D01*
X131613962Y-124614729D01*
X131925271Y-124926038D01*
X132291331Y-125170631D01*
X132698075Y-125339110D01*
X133129872Y-125425000D01*
X133570128Y-125425000D01*
X134001925Y-125339110D01*
X134408669Y-125170631D01*
X134774729Y-124926038D01*
X135086038Y-124614729D01*
X135330631Y-124248669D01*
X135499110Y-123841925D01*
X135585000Y-123410128D01*
X135585000Y-122969872D01*
X135499110Y-122538075D01*
X135330631Y-122131331D01*
X135086038Y-121765271D01*
X134774729Y-121453962D01*
X134408669Y-121209369D01*
X134001925Y-121040890D01*
X133570128Y-120955000D01*
X133129872Y-120955000D01*
X132698075Y-121040890D01*
X132291331Y-121209369D01*
X131925271Y-121453962D01*
X131613962Y-121765271D01*
X131369369Y-122131331D01*
X131200890Y-122538075D01*
X131115000Y-122969872D01*
X117710267Y-122969872D01*
X116840000Y-122099605D01*
X115848539Y-123091066D01*
X97485000Y-123091066D01*
X97485000Y-122969872D01*
X97399110Y-122538075D01*
X97230631Y-122131331D01*
X97129928Y-121980617D01*
X115147934Y-121980617D01*
X115192272Y-122309557D01*
X115299931Y-122623527D01*
X115399421Y-122809661D01*
X115668934Y-122911461D01*
X116660395Y-121920000D01*
X117019605Y-121920000D01*
X118011066Y-122911461D01*
X118280579Y-122809661D01*
X118426463Y-122511523D01*
X118511380Y-122190654D01*
X118532066Y-121859383D01*
X118487728Y-121530443D01*
X118380069Y-121216473D01*
X118280579Y-121030339D01*
X118011066Y-120928539D01*
X117019605Y-121920000D01*
X116660395Y-121920000D01*
X115668934Y-120928539D01*
X115399421Y-121030339D01*
X115253537Y-121328477D01*
X115168620Y-121649346D01*
X115147934Y-121980617D01*
X97129928Y-121980617D01*
X96986038Y-121765271D01*
X96674729Y-121453962D01*
X96308669Y-121209369D01*
X95901925Y-121040890D01*
X95470128Y-120955000D01*
X95029872Y-120955000D01*
X94598075Y-121040890D01*
X94191331Y-121209369D01*
X93825271Y-121453962D01*
X93513962Y-121765271D01*
X93269369Y-122131331D01*
X93100890Y-122538075D01*
X93015000Y-122969872D01*
X84274307Y-122969872D01*
X84231932Y-122756842D01*
X84119990Y-122486589D01*
X83957475Y-122243368D01*
X83750632Y-122036525D01*
X83507411Y-121874010D01*
X83237158Y-121762068D01*
X82950260Y-121705000D01*
X82657740Y-121705000D01*
X82370842Y-121762068D01*
X82100589Y-121874010D01*
X81857368Y-122036525D01*
X81650525Y-122243368D01*
X81534000Y-122417760D01*
X81417475Y-122243368D01*
X81210632Y-122036525D01*
X80967411Y-121874010D01*
X80697158Y-121762068D01*
X80410260Y-121705000D01*
X80117740Y-121705000D01*
X79830842Y-121762068D01*
X79560589Y-121874010D01*
X79317368Y-122036525D01*
X79110525Y-122243368D01*
X78948010Y-122486589D01*
X78836068Y-122756842D01*
X78779000Y-123043740D01*
X76847700Y-123043740D01*
X76847700Y-120748934D01*
X115848539Y-120748934D01*
X116840000Y-121740395D01*
X117831461Y-120748934D01*
X117729661Y-120479421D01*
X117431523Y-120333537D01*
X117110654Y-120248620D01*
X116779383Y-120227934D01*
X116450443Y-120272272D01*
X116136473Y-120379931D01*
X115950339Y-120479421D01*
X115848539Y-120748934D01*
X76847700Y-120748934D01*
X76847700Y-120027700D01*
X151752300Y-120027700D01*
X151752301Y-151752300D01*
G04 #@! TA.AperFunction,Conductor*
D19*
G36*
X151752301Y-151752300D02*
G01*
X110826204Y-151752300D01*
X110977013Y-151601491D01*
X111188775Y-151284566D01*
X111293778Y-151031066D01*
X115848539Y-151031066D01*
X115950339Y-151300579D01*
X116248477Y-151446463D01*
X116569346Y-151531380D01*
X116900617Y-151552066D01*
X117229557Y-151507728D01*
X117543527Y-151400069D01*
X117729661Y-151300579D01*
X117831461Y-151031066D01*
X116840000Y-150039605D01*
X115848539Y-151031066D01*
X111293778Y-151031066D01*
X111334639Y-150932419D01*
X111409000Y-150558581D01*
X111409000Y-150177419D01*
X111357919Y-149920617D01*
X115147934Y-149920617D01*
X115192272Y-150249557D01*
X115299931Y-150563527D01*
X115399421Y-150749661D01*
X115668934Y-150851461D01*
X116660395Y-149860000D01*
X117019605Y-149860000D01*
X118011066Y-150851461D01*
X118280579Y-150749661D01*
X118426463Y-150451523D01*
X118511380Y-150130654D01*
X118532066Y-149799383D01*
X118487728Y-149470443D01*
X118380069Y-149156473D01*
X118280579Y-148970339D01*
X118011066Y-148868539D01*
X117019605Y-149860000D01*
X116660395Y-149860000D01*
X115668934Y-148868539D01*
X115399421Y-148970339D01*
X115253537Y-149268477D01*
X115168620Y-149589346D01*
X115147934Y-149920617D01*
X111357919Y-149920617D01*
X111334639Y-149803581D01*
X111188775Y-149451434D01*
X110977013Y-149134509D01*
X110707491Y-148864987D01*
X110444009Y-148688934D01*
X115848539Y-148688934D01*
X116840000Y-149680395D01*
X117831461Y-148688934D01*
X117729661Y-148419421D01*
X117431523Y-148273537D01*
X117110654Y-148188620D01*
X116779383Y-148167934D01*
X116450443Y-148212272D01*
X116136473Y-148319931D01*
X115950339Y-148419421D01*
X115848539Y-148688934D01*
X110444009Y-148688934D01*
X110390566Y-148653225D01*
X110038419Y-148507361D01*
X109664581Y-148433000D01*
X109283419Y-148433000D01*
X108909581Y-148507361D01*
X108557434Y-148653225D01*
X108240509Y-148864987D01*
X107970987Y-149134509D01*
X107759225Y-149451434D01*
X107613361Y-149803581D01*
X107539000Y-150177419D01*
X107539000Y-150558581D01*
X107613361Y-150932419D01*
X107759225Y-151284566D01*
X107970987Y-151601491D01*
X108121796Y-151752300D01*
X105801936Y-151752300D01*
X105817619Y-151717224D01*
X104648000Y-150547605D01*
X103478381Y-151717224D01*
X103494064Y-151752300D01*
X76847700Y-151752300D01*
X76847700Y-123043740D01*
X78779000Y-123043740D01*
X78779000Y-123336260D01*
X78836068Y-123623158D01*
X78948010Y-123893411D01*
X79110525Y-124136632D01*
X79317368Y-124343475D01*
X79491760Y-124460000D01*
X79317368Y-124576525D01*
X79110525Y-124783368D01*
X78948010Y-125026589D01*
X78836068Y-125296842D01*
X78779000Y-125583740D01*
X78779000Y-125876260D01*
X78836068Y-126163158D01*
X78948010Y-126433411D01*
X79110525Y-126676632D01*
X79317368Y-126883475D01*
X79491760Y-127000000D01*
X79317368Y-127116525D01*
X79110525Y-127323368D01*
X78948010Y-127566589D01*
X78836068Y-127836842D01*
X78779000Y-128123740D01*
X78779000Y-128416260D01*
X78836068Y-128703158D01*
X78948010Y-128973411D01*
X79110525Y-129216632D01*
X79317368Y-129423475D01*
X79491760Y-129540000D01*
X79317368Y-129656525D01*
X79110525Y-129863368D01*
X78948010Y-130106589D01*
X78836068Y-130376842D01*
X78779000Y-130663740D01*
X78779000Y-130956260D01*
X78836068Y-131243158D01*
X78948010Y-131513411D01*
X79110525Y-131756632D01*
X79317368Y-131963475D01*
X79491760Y-132080000D01*
X79317368Y-132196525D01*
X79110525Y-132403368D01*
X78948010Y-132646589D01*
X78836068Y-132916842D01*
X78779000Y-133203740D01*
X78779000Y-133496260D01*
X78836068Y-133783158D01*
X78948010Y-134053411D01*
X79110525Y-134296632D01*
X79317368Y-134503475D01*
X79491760Y-134620000D01*
X79317368Y-134736525D01*
X79110525Y-134943368D01*
X78948010Y-135186589D01*
X78836068Y-135456842D01*
X78779000Y-135743740D01*
X78779000Y-136036260D01*
X78836068Y-136323158D01*
X78948010Y-136593411D01*
X79110525Y-136836632D01*
X79317368Y-137043475D01*
X79491760Y-137160000D01*
X79317368Y-137276525D01*
X79110525Y-137483368D01*
X78948010Y-137726589D01*
X78836068Y-137996842D01*
X78779000Y-138283740D01*
X78779000Y-138576260D01*
X78836068Y-138863158D01*
X78948010Y-139133411D01*
X79110525Y-139376632D01*
X79317368Y-139583475D01*
X79491760Y-139700000D01*
X79317368Y-139816525D01*
X79110525Y-140023368D01*
X78948010Y-140266589D01*
X78836068Y-140536842D01*
X78779000Y-140823740D01*
X78779000Y-141116260D01*
X78836068Y-141403158D01*
X78948010Y-141673411D01*
X79110525Y-141916632D01*
X79317368Y-142123475D01*
X79491760Y-142240000D01*
X79317368Y-142356525D01*
X79110525Y-142563368D01*
X78948010Y-142806589D01*
X78836068Y-143076842D01*
X78779000Y-143363740D01*
X78779000Y-143656260D01*
X78836068Y-143943158D01*
X78948010Y-144213411D01*
X79110525Y-144456632D01*
X79317368Y-144663475D01*
X79491760Y-144780000D01*
X79317368Y-144896525D01*
X79110525Y-145103368D01*
X78948010Y-145346589D01*
X78836068Y-145616842D01*
X78779000Y-145903740D01*
X78779000Y-146196260D01*
X78836068Y-146483158D01*
X78948010Y-146753411D01*
X79110525Y-146996632D01*
X79317368Y-147203475D01*
X79491760Y-147320000D01*
X79317368Y-147436525D01*
X79110525Y-147643368D01*
X78948010Y-147886589D01*
X78836068Y-148156842D01*
X78779000Y-148443740D01*
X78779000Y-148736260D01*
X78836068Y-149023158D01*
X78948010Y-149293411D01*
X79110525Y-149536632D01*
X79317368Y-149743475D01*
X79560589Y-149905990D01*
X79830842Y-150017932D01*
X80117740Y-150075000D01*
X80410260Y-150075000D01*
X80697158Y-150017932D01*
X80967411Y-149905990D01*
X81210632Y-149743475D01*
X81342487Y-149611620D01*
X81364498Y-149684180D01*
X81423463Y-149794494D01*
X81502815Y-149891185D01*
X81599506Y-149970537D01*
X81709820Y-150029502D01*
X81829518Y-150065812D01*
X81954000Y-150078072D01*
X82518250Y-150075000D01*
X82677000Y-149916250D01*
X82677000Y-148717000D01*
X82931000Y-148717000D01*
X82931000Y-149916250D01*
X83089750Y-150075000D01*
X83654000Y-150078072D01*
X83778482Y-150065812D01*
X83898180Y-150029502D01*
X84008494Y-149970537D01*
X84105185Y-149891185D01*
X84184537Y-149794494D01*
X84243502Y-149684180D01*
X84279812Y-149564482D01*
X84292072Y-149440000D01*
X84289000Y-148875750D01*
X84130250Y-148717000D01*
X82931000Y-148717000D01*
X82677000Y-148717000D01*
X82657000Y-148717000D01*
X82657000Y-148463000D01*
X82677000Y-148463000D01*
X82677000Y-148443000D01*
X82931000Y-148443000D01*
X82931000Y-148463000D01*
X84130250Y-148463000D01*
X84223378Y-148369872D01*
X93015000Y-148369872D01*
X93015000Y-148810128D01*
X93100890Y-149241925D01*
X93269369Y-149648669D01*
X93513962Y-150014729D01*
X93825271Y-150326038D01*
X94191331Y-150570631D01*
X94598075Y-150739110D01*
X95029872Y-150825000D01*
X95470128Y-150825000D01*
X95901925Y-150739110D01*
X96308669Y-150570631D01*
X96536006Y-150418729D01*
X102704299Y-150418729D01*
X102751543Y-150796951D01*
X102871667Y-151158690D01*
X103003688Y-151405683D01*
X103298776Y-151537619D01*
X104468395Y-150368000D01*
X104827605Y-150368000D01*
X105997224Y-151537619D01*
X106292312Y-151405683D01*
X106463159Y-151064955D01*
X106564250Y-150697443D01*
X106591701Y-150317271D01*
X106544457Y-149939049D01*
X106424333Y-149577310D01*
X106292312Y-149330317D01*
X105997224Y-149198381D01*
X104827605Y-150368000D01*
X104468395Y-150368000D01*
X103298776Y-149198381D01*
X103003688Y-149330317D01*
X102832841Y-149671045D01*
X102731750Y-150038557D01*
X102704299Y-150418729D01*
X96536006Y-150418729D01*
X96674729Y-150326038D01*
X96986038Y-150014729D01*
X97230631Y-149648669D01*
X97399110Y-149241925D01*
X97443497Y-149018776D01*
X103478381Y-149018776D01*
X104648000Y-150188395D01*
X105817619Y-149018776D01*
X105685683Y-148723688D01*
X105344955Y-148552841D01*
X104977443Y-148451750D01*
X104597271Y-148424299D01*
X104219049Y-148471543D01*
X103857310Y-148591667D01*
X103610317Y-148723688D01*
X103478381Y-149018776D01*
X97443497Y-149018776D01*
X97485000Y-148810128D01*
X97485000Y-148369872D01*
X97399110Y-147938075D01*
X97274654Y-147637610D01*
X125806533Y-147637610D01*
X125891428Y-147864341D01*
X126018925Y-148070153D01*
X126184124Y-148247137D01*
X126380676Y-148388492D01*
X126601029Y-148488785D01*
X126682391Y-148513462D01*
X126873000Y-148388731D01*
X126873000Y-147447000D01*
X127127000Y-147447000D01*
X127127000Y-148388731D01*
X127317609Y-148513462D01*
X127398971Y-148488785D01*
X127619324Y-148388492D01*
X127645214Y-148369872D01*
X131115000Y-148369872D01*
X131115000Y-148810128D01*
X131200890Y-149241925D01*
X131369369Y-149648669D01*
X131613962Y-150014729D01*
X131925271Y-150326038D01*
X132291331Y-150570631D01*
X132698075Y-150739110D01*
X133129872Y-150825000D01*
X133570128Y-150825000D01*
X134001925Y-150739110D01*
X134408669Y-150570631D01*
X134774729Y-150326038D01*
X135086038Y-150014729D01*
X135330631Y-149648669D01*
X135352040Y-149596982D01*
X139000124Y-149596982D01*
X139074127Y-149842993D01*
X139333050Y-149965893D01*
X139610974Y-150035917D01*
X139897219Y-150050376D01*
X140180785Y-150008714D01*
X140450775Y-149912532D01*
X140580873Y-149842993D01*
X140654876Y-149596982D01*
X139827500Y-148769605D01*
X139000124Y-149596982D01*
X135352040Y-149596982D01*
X135499110Y-149241925D01*
X135585000Y-148810128D01*
X135585000Y-148659719D01*
X138367124Y-148659719D01*
X138408786Y-148943285D01*
X138504968Y-149213275D01*
X138574507Y-149343373D01*
X138820518Y-149417376D01*
X139647895Y-148590000D01*
X138820518Y-147762624D01*
X138574507Y-147836627D01*
X138451607Y-148095550D01*
X138381583Y-148373474D01*
X138367124Y-148659719D01*
X135585000Y-148659719D01*
X135585000Y-148369872D01*
X135499110Y-147938075D01*
X135330631Y-147531331D01*
X135086038Y-147165271D01*
X134774729Y-146853962D01*
X134408669Y-146609369D01*
X134001925Y-146440890D01*
X133570128Y-146355000D01*
X133129872Y-146355000D01*
X132698075Y-146440890D01*
X132291331Y-146609369D01*
X131925271Y-146853962D01*
X131613962Y-147165271D01*
X131369369Y-147531331D01*
X131200890Y-147938075D01*
X131115000Y-148369872D01*
X127645214Y-148369872D01*
X127815876Y-148247137D01*
X127981075Y-148070153D01*
X128108572Y-147864341D01*
X128193467Y-147637610D01*
X128069709Y-147447000D01*
X127127000Y-147447000D01*
X126873000Y-147447000D01*
X125930291Y-147447000D01*
X125806533Y-147637610D01*
X97274654Y-147637610D01*
X97230631Y-147531331D01*
X96986038Y-147165271D01*
X96674729Y-146853962D01*
X96308669Y-146609369D01*
X95901925Y-146440890D01*
X95470128Y-146355000D01*
X95029872Y-146355000D01*
X94598075Y-146440890D01*
X94191331Y-146609369D01*
X93825271Y-146853962D01*
X93513962Y-147165271D01*
X93269369Y-147531331D01*
X93100890Y-147938075D01*
X93015000Y-148369872D01*
X84223378Y-148369872D01*
X84289000Y-148304250D01*
X84292072Y-147740000D01*
X84279812Y-147615518D01*
X84243502Y-147495820D01*
X84184537Y-147385506D01*
X84105185Y-147288815D01*
X84008494Y-147209463D01*
X83898180Y-147150498D01*
X83825620Y-147128487D01*
X83957475Y-146996632D01*
X84119990Y-146753411D01*
X84231932Y-146483158D01*
X84289000Y-146196260D01*
X84289000Y-145903740D01*
X84231932Y-145616842D01*
X84119990Y-145346589D01*
X83957475Y-145103368D01*
X83955788Y-145101681D01*
X125765087Y-145101681D01*
X125812554Y-145340263D01*
X125905654Y-145565000D01*
X126040809Y-145767256D01*
X126212826Y-145939258D01*
X126415093Y-146074396D01*
X126600812Y-146151314D01*
X126380676Y-146251508D01*
X126184124Y-146392863D01*
X126018925Y-146569847D01*
X125891428Y-146775659D01*
X125806533Y-147002390D01*
X125930291Y-147193000D01*
X126873000Y-147193000D01*
X126873000Y-146251269D01*
X126718245Y-146150000D01*
X126873000Y-146048731D01*
X126873000Y-145928363D01*
X127035000Y-145928363D01*
X127035000Y-146171637D01*
X127082460Y-146410236D01*
X127127000Y-146517765D01*
X127127000Y-147193000D01*
X127802235Y-147193000D01*
X127909764Y-147237540D01*
X128148363Y-147285000D01*
X128391637Y-147285000D01*
X128630236Y-147237540D01*
X128854992Y-147144443D01*
X129057267Y-147009287D01*
X129229287Y-146837267D01*
X129364443Y-146634992D01*
X129457540Y-146410236D01*
X129505000Y-146171637D01*
X129505000Y-145928363D01*
X129457540Y-145689764D01*
X129364443Y-145465008D01*
X129229287Y-145262733D01*
X129057267Y-145090713D01*
X128854992Y-144955557D01*
X128630236Y-144862460D01*
X128391637Y-144815000D01*
X128148363Y-144815000D01*
X127909764Y-144862460D01*
X127802235Y-144907000D01*
X127127000Y-144907000D01*
X127127000Y-145582235D01*
X127082460Y-145689764D01*
X127035000Y-145928363D01*
X126873000Y-145928363D01*
X126873000Y-144907000D01*
X125920006Y-144907000D01*
X125765087Y-145101681D01*
X83955788Y-145101681D01*
X83750632Y-144896525D01*
X83576240Y-144780000D01*
X83750632Y-144663475D01*
X83955788Y-144458319D01*
X125765087Y-144458319D01*
X125920006Y-144653000D01*
X126873000Y-144653000D01*
X126873000Y-143511269D01*
X127127000Y-143511269D01*
X127127000Y-144653000D01*
X128079994Y-144653000D01*
X128234913Y-144458319D01*
X128187446Y-144219737D01*
X128094346Y-143995000D01*
X127959191Y-143792744D01*
X127787174Y-143620742D01*
X127584907Y-143485604D01*
X127360162Y-143392523D01*
X127317609Y-143386538D01*
X127127000Y-143511269D01*
X126873000Y-143511269D01*
X126682391Y-143386538D01*
X126639838Y-143392523D01*
X126415093Y-143485604D01*
X126212826Y-143620742D01*
X126040809Y-143792744D01*
X125905654Y-143995000D01*
X125812554Y-144219737D01*
X125765087Y-144458319D01*
X83955788Y-144458319D01*
X83957475Y-144456632D01*
X84119990Y-144213411D01*
X84231932Y-143943158D01*
X84289000Y-143656260D01*
X84289000Y-143411066D01*
X115848539Y-143411066D01*
X115950339Y-143680579D01*
X116248477Y-143826463D01*
X116569346Y-143911380D01*
X116900617Y-143932066D01*
X117229557Y-143887728D01*
X117543527Y-143780069D01*
X117729661Y-143680579D01*
X117831461Y-143411066D01*
X116840000Y-142419605D01*
X115848539Y-143411066D01*
X84289000Y-143411066D01*
X84289000Y-143363740D01*
X84231932Y-143076842D01*
X84119990Y-142806589D01*
X83957475Y-142563368D01*
X83750632Y-142356525D01*
X83576240Y-142240000D01*
X83750632Y-142123475D01*
X83957475Y-141916632D01*
X84119990Y-141673411D01*
X84231932Y-141403158D01*
X84289000Y-141116260D01*
X84289000Y-140823740D01*
X84280184Y-140779419D01*
X107285000Y-140779419D01*
X107285000Y-141160581D01*
X107359361Y-141534419D01*
X107505225Y-141886566D01*
X107716987Y-142203491D01*
X107986509Y-142473013D01*
X108303434Y-142684775D01*
X108655581Y-142830639D01*
X109029419Y-142905000D01*
X109410581Y-142905000D01*
X109784419Y-142830639D01*
X110136566Y-142684775D01*
X110453491Y-142473013D01*
X110625887Y-142300617D01*
X115147934Y-142300617D01*
X115192272Y-142629557D01*
X115299931Y-142943527D01*
X115399421Y-143129661D01*
X115668934Y-143231461D01*
X116660395Y-142240000D01*
X117019605Y-142240000D01*
X118011066Y-143231461D01*
X118280579Y-143129661D01*
X118426463Y-142831523D01*
X118511380Y-142510654D01*
X118532066Y-142179383D01*
X118487728Y-141850443D01*
X118380069Y-141536473D01*
X118280579Y-141350339D01*
X118011066Y-141248539D01*
X117019605Y-142240000D01*
X116660395Y-142240000D01*
X115668934Y-141248539D01*
X115399421Y-141350339D01*
X115253537Y-141648477D01*
X115168620Y-141969346D01*
X115147934Y-142300617D01*
X110625887Y-142300617D01*
X110723013Y-142203491D01*
X110934775Y-141886566D01*
X111080639Y-141534419D01*
X111155000Y-141160581D01*
X111155000Y-141068934D01*
X115848539Y-141068934D01*
X116840000Y-142060395D01*
X117763954Y-141136441D01*
X118978000Y-141136441D01*
X118978000Y-141311559D01*
X119012164Y-141483312D01*
X119079179Y-141645099D01*
X119176469Y-141790704D01*
X119300296Y-141914531D01*
X119445901Y-142011821D01*
X119607688Y-142078836D01*
X119779441Y-142113000D01*
X119954559Y-142113000D01*
X120126312Y-142078836D01*
X120288099Y-142011821D01*
X120433704Y-141914531D01*
X120557531Y-141790704D01*
X120654821Y-141645099D01*
X120721836Y-141483312D01*
X120756000Y-141311559D01*
X120756000Y-141136441D01*
X120721836Y-140964688D01*
X120654821Y-140802901D01*
X120557531Y-140657296D01*
X120433704Y-140533469D01*
X120288099Y-140436179D01*
X120126312Y-140369164D01*
X119954559Y-140335000D01*
X119779441Y-140335000D01*
X119607688Y-140369164D01*
X119445901Y-140436179D01*
X119300296Y-140533469D01*
X119176469Y-140657296D01*
X119079179Y-140802901D01*
X119012164Y-140964688D01*
X118978000Y-141136441D01*
X117763954Y-141136441D01*
X117831461Y-141068934D01*
X117729661Y-140799421D01*
X117431523Y-140653537D01*
X117110654Y-140568620D01*
X116779383Y-140547934D01*
X116450443Y-140592272D01*
X116136473Y-140699931D01*
X115950339Y-140799421D01*
X115848539Y-141068934D01*
X111155000Y-141068934D01*
X111155000Y-140779419D01*
X111080639Y-140405581D01*
X110962531Y-140120441D01*
X120502000Y-140120441D01*
X120502000Y-140295559D01*
X120536164Y-140467312D01*
X120603179Y-140629099D01*
X120700469Y-140774704D01*
X120824296Y-140898531D01*
X120969901Y-140995821D01*
X121131688Y-141062836D01*
X121303441Y-141097000D01*
X121478559Y-141097000D01*
X121650312Y-141062836D01*
X121812099Y-140995821D01*
X121957704Y-140898531D01*
X122081531Y-140774704D01*
X122178821Y-140629099D01*
X122245836Y-140467312D01*
X122280000Y-140295559D01*
X122280000Y-140120441D01*
X122245836Y-139948688D01*
X122178821Y-139786901D01*
X122081531Y-139641296D01*
X121957704Y-139517469D01*
X121812099Y-139420179D01*
X121663052Y-139358441D01*
X124587000Y-139358441D01*
X124587000Y-139533559D01*
X124621164Y-139705312D01*
X124688179Y-139867099D01*
X124785469Y-140012704D01*
X124909296Y-140136531D01*
X125054901Y-140233821D01*
X125216688Y-140300836D01*
X125388441Y-140335000D01*
X125563559Y-140335000D01*
X125735312Y-140300836D01*
X125897099Y-140233821D01*
X126042704Y-140136531D01*
X126166531Y-140012704D01*
X126263821Y-139867099D01*
X126330836Y-139705312D01*
X126365000Y-139533559D01*
X126365000Y-139358441D01*
X126330836Y-139186688D01*
X126263821Y-139024901D01*
X126166531Y-138879296D01*
X126042704Y-138755469D01*
X125897099Y-138658179D01*
X125735312Y-138591164D01*
X125563559Y-138557000D01*
X125388441Y-138557000D01*
X125216688Y-138591164D01*
X125054901Y-138658179D01*
X124909296Y-138755469D01*
X124785469Y-138879296D01*
X124688179Y-139024901D01*
X124621164Y-139186688D01*
X124587000Y-139358441D01*
X121663052Y-139358441D01*
X121650312Y-139353164D01*
X121478559Y-139319000D01*
X121303441Y-139319000D01*
X121131688Y-139353164D01*
X120969901Y-139420179D01*
X120824296Y-139517469D01*
X120700469Y-139641296D01*
X120603179Y-139786901D01*
X120536164Y-139948688D01*
X120502000Y-140120441D01*
X110962531Y-140120441D01*
X110934775Y-140053434D01*
X110723013Y-139736509D01*
X110453491Y-139466987D01*
X110136566Y-139255225D01*
X109784419Y-139109361D01*
X109410581Y-139035000D01*
X109029419Y-139035000D01*
X108655581Y-139109361D01*
X108303434Y-139255225D01*
X107986509Y-139466987D01*
X107716987Y-139736509D01*
X107505225Y-140053434D01*
X107359361Y-140405581D01*
X107285000Y-140779419D01*
X84280184Y-140779419D01*
X84231932Y-140536842D01*
X84119990Y-140266589D01*
X83957475Y-140023368D01*
X83750632Y-139816525D01*
X83576240Y-139700000D01*
X83750632Y-139583475D01*
X83957475Y-139376632D01*
X84119990Y-139133411D01*
X84131989Y-139104441D01*
X92329000Y-139104441D01*
X92329000Y-139279559D01*
X92363164Y-139451312D01*
X92430179Y-139613099D01*
X92527469Y-139758704D01*
X92651296Y-139882531D01*
X92796901Y-139979821D01*
X92958688Y-140046836D01*
X93130441Y-140081000D01*
X93305559Y-140081000D01*
X93477312Y-140046836D01*
X93639099Y-139979821D01*
X93784704Y-139882531D01*
X93903773Y-139763462D01*
X93974688Y-139792836D01*
X94146441Y-139827000D01*
X94321559Y-139827000D01*
X94493312Y-139792836D01*
X94655099Y-139725821D01*
X94800704Y-139628531D01*
X94924531Y-139504704D01*
X95021821Y-139359099D01*
X95022093Y-139358441D01*
X105029000Y-139358441D01*
X105029000Y-139533559D01*
X105063164Y-139705312D01*
X105130179Y-139867099D01*
X105227469Y-140012704D01*
X105351296Y-140136531D01*
X105496901Y-140233821D01*
X105658688Y-140300836D01*
X105830441Y-140335000D01*
X106005559Y-140335000D01*
X106177312Y-140300836D01*
X106339099Y-140233821D01*
X106484704Y-140136531D01*
X106608531Y-140012704D01*
X106705821Y-139867099D01*
X106772836Y-139705312D01*
X106807000Y-139533559D01*
X106807000Y-139358441D01*
X106772836Y-139186688D01*
X106705821Y-139024901D01*
X106608531Y-138879296D01*
X106484704Y-138755469D01*
X106339099Y-138658179D01*
X106177312Y-138591164D01*
X106005559Y-138557000D01*
X105830441Y-138557000D01*
X105658688Y-138591164D01*
X105496901Y-138658179D01*
X105351296Y-138755469D01*
X105227469Y-138879296D01*
X105130179Y-139024901D01*
X105063164Y-139186688D01*
X105029000Y-139358441D01*
X95022093Y-139358441D01*
X95088836Y-139197312D01*
X95123000Y-139025559D01*
X95123000Y-138850441D01*
X95088836Y-138678688D01*
X95021821Y-138516901D01*
X94924531Y-138371296D01*
X94800704Y-138247469D01*
X94655099Y-138150179D01*
X94493312Y-138083164D01*
X94321559Y-138049000D01*
X94146441Y-138049000D01*
X93974688Y-138083164D01*
X93812901Y-138150179D01*
X93667296Y-138247469D01*
X93548227Y-138366538D01*
X93477312Y-138337164D01*
X93305559Y-138303000D01*
X93130441Y-138303000D01*
X92958688Y-138337164D01*
X92796901Y-138404179D01*
X92651296Y-138501469D01*
X92527469Y-138625296D01*
X92430179Y-138770901D01*
X92363164Y-138932688D01*
X92329000Y-139104441D01*
X84131989Y-139104441D01*
X84231932Y-138863158D01*
X84289000Y-138576260D01*
X84289000Y-138283740D01*
X84231932Y-137996842D01*
X84119990Y-137726589D01*
X83957475Y-137483368D01*
X83750632Y-137276525D01*
X83576240Y-137160000D01*
X83750632Y-137043475D01*
X83957475Y-136836632D01*
X84119990Y-136593411D01*
X84231932Y-136323158D01*
X84289000Y-136036260D01*
X84289000Y-135743740D01*
X84231932Y-135456842D01*
X84119990Y-135186589D01*
X83957475Y-134943368D01*
X83750632Y-134736525D01*
X83576240Y-134620000D01*
X83750632Y-134503475D01*
X83957475Y-134296632D01*
X84119990Y-134053411D01*
X84231932Y-133783158D01*
X84260905Y-133637500D01*
X136420452Y-133637500D01*
X136420452Y-136457500D01*
X138487686Y-136457500D01*
X138538096Y-136579201D01*
X138697328Y-136817508D01*
X138899992Y-137020172D01*
X139109259Y-137160000D01*
X138899992Y-137299828D01*
X138697328Y-137502492D01*
X138538096Y-137740799D01*
X138428415Y-138005592D01*
X138372500Y-138286695D01*
X138372500Y-138573305D01*
X138428415Y-138854408D01*
X138538096Y-139119201D01*
X138697328Y-139357508D01*
X138899992Y-139560172D01*
X139109259Y-139700000D01*
X138899992Y-139839828D01*
X138697328Y-140042492D01*
X138538096Y-140280799D01*
X138428415Y-140545592D01*
X138372500Y-140826695D01*
X138372500Y-141113305D01*
X138428415Y-141394408D01*
X138538096Y-141659201D01*
X138697328Y-141897508D01*
X138899992Y-142100172D01*
X139109259Y-142240000D01*
X138899992Y-142379828D01*
X138697328Y-142582492D01*
X138538096Y-142820799D01*
X138428415Y-143085592D01*
X138372500Y-143366695D01*
X138372500Y-143653305D01*
X138428415Y-143934408D01*
X138538096Y-144199201D01*
X138697328Y-144437508D01*
X138899992Y-144640172D01*
X139109259Y-144780000D01*
X138899992Y-144919828D01*
X138697328Y-145122492D01*
X138538096Y-145360799D01*
X138428415Y-145625592D01*
X138372500Y-145906695D01*
X138372500Y-146193305D01*
X138428415Y-146474408D01*
X138538096Y-146739201D01*
X138697328Y-146977508D01*
X138899992Y-147180172D01*
X139107786Y-147319016D01*
X139074127Y-147337007D01*
X139000124Y-147583018D01*
X139827500Y-148410395D01*
X140654876Y-147583018D01*
X140580873Y-147337007D01*
X140545451Y-147320194D01*
X140755008Y-147180172D01*
X140957672Y-146977508D01*
X141097500Y-146768241D01*
X141237328Y-146977508D01*
X141439992Y-147180172D01*
X141649259Y-147320000D01*
X141439992Y-147459828D01*
X141237328Y-147662492D01*
X141098484Y-147870286D01*
X141080493Y-147836627D01*
X140834482Y-147762624D01*
X140007105Y-148590000D01*
X140834482Y-149417376D01*
X141080493Y-149343373D01*
X141097306Y-149307951D01*
X141237328Y-149517508D01*
X141439992Y-149720172D01*
X141678299Y-149879404D01*
X141943092Y-149989085D01*
X142224195Y-150045000D01*
X142510805Y-150045000D01*
X142791908Y-149989085D01*
X143056701Y-149879404D01*
X143295008Y-149720172D01*
X143497672Y-149517508D01*
X143656904Y-149279201D01*
X143766585Y-149014408D01*
X143822500Y-148733305D01*
X143822500Y-148446695D01*
X143766585Y-148165592D01*
X143656904Y-147900799D01*
X143497672Y-147662492D01*
X143295008Y-147459828D01*
X143085741Y-147320000D01*
X143295008Y-147180172D01*
X143497672Y-146977508D01*
X143656904Y-146739201D01*
X143766585Y-146474408D01*
X143822500Y-146193305D01*
X143822500Y-145906695D01*
X143766585Y-145625592D01*
X143656904Y-145360799D01*
X143497672Y-145122492D01*
X143295008Y-144919828D01*
X143085741Y-144780000D01*
X143295008Y-144640172D01*
X143497672Y-144437508D01*
X143656904Y-144199201D01*
X143766585Y-143934408D01*
X143822500Y-143653305D01*
X143822500Y-143366695D01*
X143766585Y-143085592D01*
X143656904Y-142820799D01*
X143497672Y-142582492D01*
X143295008Y-142379828D01*
X143085741Y-142240000D01*
X143295008Y-142100172D01*
X143497672Y-141897508D01*
X143656904Y-141659201D01*
X143766585Y-141394408D01*
X143822500Y-141113305D01*
X143822500Y-140826695D01*
X143766585Y-140545592D01*
X143656904Y-140280799D01*
X143497672Y-140042492D01*
X143295008Y-139839828D01*
X143085741Y-139700000D01*
X143295008Y-139560172D01*
X143497672Y-139357508D01*
X143656904Y-139119201D01*
X143766585Y-138854408D01*
X143822500Y-138573305D01*
X143822500Y-138286695D01*
X143766585Y-138005592D01*
X143656904Y-137740799D01*
X143497672Y-137502492D01*
X143295008Y-137299828D01*
X143085741Y-137160000D01*
X143295008Y-137020172D01*
X143497672Y-136817508D01*
X143656904Y-136579201D01*
X143766585Y-136314408D01*
X143822500Y-136033305D01*
X143822500Y-135746695D01*
X143766585Y-135465592D01*
X143656904Y-135200799D01*
X143497672Y-134962492D01*
X143295008Y-134759828D01*
X143085741Y-134620000D01*
X143295008Y-134480172D01*
X143497672Y-134277508D01*
X143656904Y-134039201D01*
X143766585Y-133774408D01*
X143822500Y-133493305D01*
X143822500Y-133206695D01*
X143766585Y-132925592D01*
X143656904Y-132660799D01*
X143497672Y-132422492D01*
X143295008Y-132219828D01*
X143085741Y-132080000D01*
X143295008Y-131940172D01*
X143497672Y-131737508D01*
X143656904Y-131499201D01*
X143766585Y-131234408D01*
X143822500Y-130953305D01*
X143822500Y-130666695D01*
X143766585Y-130385592D01*
X143656904Y-130120799D01*
X143497672Y-129882492D01*
X143295008Y-129679828D01*
X143085741Y-129540000D01*
X143295008Y-129400172D01*
X143497672Y-129197508D01*
X143656904Y-128959201D01*
X143766585Y-128694408D01*
X143822500Y-128413305D01*
X143822500Y-128126695D01*
X143766585Y-127845592D01*
X143656904Y-127580799D01*
X143497672Y-127342492D01*
X143295008Y-127139828D01*
X143085741Y-127000000D01*
X143295008Y-126860172D01*
X143497672Y-126657508D01*
X143656904Y-126419201D01*
X143766585Y-126154408D01*
X143822500Y-125873305D01*
X143822500Y-125586695D01*
X143766585Y-125305592D01*
X143656904Y-125040799D01*
X143497672Y-124802492D01*
X143295008Y-124599828D01*
X143085741Y-124460000D01*
X143295008Y-124320172D01*
X143497672Y-124117508D01*
X143656904Y-123879201D01*
X143766585Y-123614408D01*
X143822500Y-123333305D01*
X143822500Y-123046695D01*
X143766585Y-122765592D01*
X143656904Y-122500799D01*
X143497672Y-122262492D01*
X143295008Y-122059828D01*
X143056701Y-121900596D01*
X142791908Y-121790915D01*
X142510805Y-121735000D01*
X142224195Y-121735000D01*
X141943092Y-121790915D01*
X141678299Y-121900596D01*
X141439992Y-122059828D01*
X141237328Y-122262492D01*
X141097500Y-122471759D01*
X140957672Y-122262492D01*
X140755008Y-122059828D01*
X140516701Y-121900596D01*
X140251908Y-121790915D01*
X139970805Y-121735000D01*
X139684195Y-121735000D01*
X139403092Y-121790915D01*
X139138299Y-121900596D01*
X138899992Y-122059828D01*
X138697328Y-122262492D01*
X138538096Y-122500799D01*
X138428415Y-122765592D01*
X138372500Y-123046695D01*
X138372500Y-123333305D01*
X138428415Y-123614408D01*
X138538096Y-123879201D01*
X138697328Y-124117508D01*
X138899992Y-124320172D01*
X139109259Y-124460000D01*
X138899992Y-124599828D01*
X138697328Y-124802492D01*
X138538096Y-125040799D01*
X138428415Y-125305592D01*
X138372500Y-125586695D01*
X138372500Y-125873305D01*
X138428415Y-126154408D01*
X138538096Y-126419201D01*
X138697328Y-126657508D01*
X138899992Y-126860172D01*
X139109259Y-127000000D01*
X138899992Y-127139828D01*
X138697328Y-127342492D01*
X138538096Y-127580799D01*
X138428415Y-127845592D01*
X138372500Y-128126695D01*
X138372500Y-128413305D01*
X138428415Y-128694408D01*
X138538096Y-128959201D01*
X138697328Y-129197508D01*
X138899992Y-129400172D01*
X139109259Y-129540000D01*
X138899992Y-129679828D01*
X138697328Y-129882492D01*
X138538096Y-130120799D01*
X138428415Y-130385592D01*
X138372500Y-130666695D01*
X138372500Y-130953305D01*
X138428415Y-131234408D01*
X138538096Y-131499201D01*
X138697328Y-131737508D01*
X138899992Y-131940172D01*
X139109259Y-132080000D01*
X138899992Y-132219828D01*
X138697328Y-132422492D01*
X138538096Y-132660799D01*
X138428415Y-132925592D01*
X138372500Y-133206695D01*
X138372500Y-133493305D01*
X138401182Y-133637500D01*
X136420452Y-133637500D01*
X84260905Y-133637500D01*
X84289000Y-133496260D01*
X84289000Y-133203740D01*
X84231932Y-132916842D01*
X84119990Y-132646589D01*
X83957475Y-132403368D01*
X83750632Y-132196525D01*
X83576240Y-132080000D01*
X83750632Y-131963475D01*
X83957475Y-131756632D01*
X83969629Y-131738441D01*
X92075000Y-131738441D01*
X92075000Y-131913559D01*
X92109164Y-132085312D01*
X92176179Y-132247099D01*
X92273469Y-132392704D01*
X92397296Y-132516531D01*
X92542901Y-132613821D01*
X92704688Y-132680836D01*
X92876441Y-132715000D01*
X93051559Y-132715000D01*
X93223312Y-132680836D01*
X93385099Y-132613821D01*
X93530704Y-132516531D01*
X93654531Y-132392704D01*
X93751821Y-132247099D01*
X93818836Y-132085312D01*
X93853000Y-131913559D01*
X93853000Y-131738441D01*
X93818836Y-131566688D01*
X93751821Y-131404901D01*
X93654531Y-131259296D01*
X93530704Y-131135469D01*
X93385099Y-131038179D01*
X93223312Y-130971164D01*
X93051559Y-130937000D01*
X92876441Y-130937000D01*
X92704688Y-130971164D01*
X92542901Y-131038179D01*
X92397296Y-131135469D01*
X92273469Y-131259296D01*
X92176179Y-131404901D01*
X92109164Y-131566688D01*
X92075000Y-131738441D01*
X83969629Y-131738441D01*
X84119990Y-131513411D01*
X84231932Y-131243158D01*
X84289000Y-130956260D01*
X84289000Y-130722441D01*
X86487000Y-130722441D01*
X86487000Y-130897559D01*
X86521164Y-131069312D01*
X86588179Y-131231099D01*
X86685469Y-131376704D01*
X86809296Y-131500531D01*
X86954901Y-131597821D01*
X87116688Y-131664836D01*
X87288441Y-131699000D01*
X87463559Y-131699000D01*
X87635312Y-131664836D01*
X87797099Y-131597821D01*
X87942704Y-131500531D01*
X88066531Y-131376704D01*
X88163821Y-131231099D01*
X88230836Y-131069312D01*
X88265000Y-130897559D01*
X88265000Y-130722441D01*
X88230836Y-130550688D01*
X88163821Y-130388901D01*
X88148131Y-130365419D01*
X107285000Y-130365419D01*
X107285000Y-130746581D01*
X107359361Y-131120419D01*
X107505225Y-131472566D01*
X107716987Y-131789491D01*
X107986509Y-132059013D01*
X108303434Y-132270775D01*
X108655581Y-132416639D01*
X109029419Y-132491000D01*
X109410581Y-132491000D01*
X109784419Y-132416639D01*
X110136566Y-132270775D01*
X110453491Y-132059013D01*
X110723013Y-131789491D01*
X110934775Y-131472566D01*
X111080639Y-131120419D01*
X111155000Y-130746581D01*
X111155000Y-130711066D01*
X115848539Y-130711066D01*
X115950339Y-130980579D01*
X116248477Y-131126463D01*
X116569346Y-131211380D01*
X116900617Y-131232066D01*
X116912672Y-131230441D01*
X126111000Y-131230441D01*
X126111000Y-131405559D01*
X126145164Y-131577312D01*
X126212179Y-131739099D01*
X126309469Y-131884704D01*
X126433296Y-132008531D01*
X126578901Y-132105821D01*
X126740688Y-132172836D01*
X126912441Y-132207000D01*
X127087559Y-132207000D01*
X127259312Y-132172836D01*
X127421099Y-132105821D01*
X127566704Y-132008531D01*
X127690531Y-131884704D01*
X127787821Y-131739099D01*
X127854836Y-131577312D01*
X127889000Y-131405559D01*
X127889000Y-131230441D01*
X127854836Y-131058688D01*
X127787821Y-130896901D01*
X127690531Y-130751296D01*
X127566704Y-130627469D01*
X127421099Y-130530179D01*
X127259312Y-130463164D01*
X127087559Y-130429000D01*
X126912441Y-130429000D01*
X126740688Y-130463164D01*
X126578901Y-130530179D01*
X126433296Y-130627469D01*
X126309469Y-130751296D01*
X126212179Y-130896901D01*
X126145164Y-131058688D01*
X126111000Y-131230441D01*
X116912672Y-131230441D01*
X117229557Y-131187728D01*
X117543527Y-131080069D01*
X117729661Y-130980579D01*
X117831461Y-130711066D01*
X116840000Y-129719605D01*
X115848539Y-130711066D01*
X111155000Y-130711066D01*
X111155000Y-130365419D01*
X111080639Y-129991581D01*
X110934775Y-129639434D01*
X110908839Y-129600617D01*
X115147934Y-129600617D01*
X115192272Y-129929557D01*
X115299931Y-130243527D01*
X115399421Y-130429661D01*
X115668934Y-130531461D01*
X116660395Y-129540000D01*
X117019605Y-129540000D01*
X118011066Y-130531461D01*
X118280579Y-130429661D01*
X118426463Y-130131523D01*
X118511380Y-129810654D01*
X118532066Y-129479383D01*
X118487728Y-129150443D01*
X118380069Y-128836473D01*
X118280579Y-128650339D01*
X118011066Y-128548539D01*
X117019605Y-129540000D01*
X116660395Y-129540000D01*
X115668934Y-128548539D01*
X115399421Y-128650339D01*
X115253537Y-128948477D01*
X115168620Y-129269346D01*
X115147934Y-129600617D01*
X110908839Y-129600617D01*
X110723013Y-129322509D01*
X110453491Y-129052987D01*
X110136566Y-128841225D01*
X109784419Y-128695361D01*
X109410581Y-128621000D01*
X109029419Y-128621000D01*
X108655581Y-128695361D01*
X108303434Y-128841225D01*
X107986509Y-129052987D01*
X107716987Y-129322509D01*
X107505225Y-129639434D01*
X107359361Y-129991581D01*
X107285000Y-130365419D01*
X88148131Y-130365419D01*
X88066531Y-130243296D01*
X87942704Y-130119469D01*
X87797099Y-130022179D01*
X87635312Y-129955164D01*
X87463559Y-129921000D01*
X87288441Y-129921000D01*
X87116688Y-129955164D01*
X86954901Y-130022179D01*
X86809296Y-130119469D01*
X86685469Y-130243296D01*
X86588179Y-130388901D01*
X86521164Y-130550688D01*
X86487000Y-130722441D01*
X84289000Y-130722441D01*
X84289000Y-130663740D01*
X84231932Y-130376842D01*
X84119990Y-130106589D01*
X83957475Y-129863368D01*
X83750632Y-129656525D01*
X83576240Y-129540000D01*
X83750632Y-129423475D01*
X83957475Y-129216632D01*
X84119990Y-128973411D01*
X84231932Y-128703158D01*
X84289000Y-128416260D01*
X84289000Y-128368934D01*
X115848539Y-128368934D01*
X116840000Y-129360395D01*
X117831461Y-128368934D01*
X117729661Y-128099421D01*
X117431523Y-127953537D01*
X117110654Y-127868620D01*
X116779383Y-127847934D01*
X116450443Y-127892272D01*
X116136473Y-127999931D01*
X115950339Y-128099421D01*
X115848539Y-128368934D01*
X84289000Y-128368934D01*
X84289000Y-128123740D01*
X84231932Y-127836842D01*
X84119990Y-127566589D01*
X83957475Y-127323368D01*
X83750632Y-127116525D01*
X83576240Y-127000000D01*
X83750632Y-126883475D01*
X83957475Y-126676632D01*
X84119990Y-126433411D01*
X84231932Y-126163158D01*
X84289000Y-125876260D01*
X84289000Y-125583740D01*
X84231932Y-125296842D01*
X84119990Y-125026589D01*
X83957475Y-124783368D01*
X83750632Y-124576525D01*
X83576240Y-124460000D01*
X83750632Y-124343475D01*
X83957475Y-124136632D01*
X84119990Y-123893411D01*
X84231932Y-123623158D01*
X84289000Y-123336260D01*
X84289000Y-123043740D01*
X84274307Y-122969872D01*
X93015000Y-122969872D01*
X93015000Y-123410128D01*
X93100890Y-123841925D01*
X93269369Y-124248669D01*
X93513962Y-124614729D01*
X93825271Y-124926038D01*
X94191331Y-125170631D01*
X94598075Y-125339110D01*
X95029872Y-125425000D01*
X95470128Y-125425000D01*
X95901925Y-125339110D01*
X96308669Y-125170631D01*
X96674729Y-124926038D01*
X96720326Y-124880441D01*
X107061000Y-124880441D01*
X107061000Y-125055559D01*
X107095164Y-125227312D01*
X107162179Y-125389099D01*
X107259469Y-125534704D01*
X107383296Y-125658531D01*
X107490257Y-125730000D01*
X107383296Y-125801469D01*
X107259469Y-125925296D01*
X107162179Y-126070901D01*
X107095164Y-126232688D01*
X107061000Y-126404441D01*
X107061000Y-126579559D01*
X107095164Y-126751312D01*
X107162179Y-126913099D01*
X107259469Y-127058704D01*
X107383296Y-127182531D01*
X107528901Y-127279821D01*
X107690688Y-127346836D01*
X107862441Y-127381000D01*
X108037559Y-127381000D01*
X108209312Y-127346836D01*
X108279869Y-127317610D01*
X125806533Y-127317610D01*
X125891428Y-127544341D01*
X126018925Y-127750153D01*
X126184124Y-127927137D01*
X126380676Y-128068492D01*
X126601029Y-128168785D01*
X126682391Y-128193462D01*
X126873000Y-128068731D01*
X126873000Y-127127000D01*
X127127000Y-127127000D01*
X127127000Y-128068731D01*
X127317609Y-128193462D01*
X127398971Y-128168785D01*
X127619324Y-128068492D01*
X127815876Y-127927137D01*
X127981075Y-127750153D01*
X128108572Y-127544341D01*
X128193467Y-127317610D01*
X128069709Y-127127000D01*
X127127000Y-127127000D01*
X126873000Y-127127000D01*
X125930291Y-127127000D01*
X125806533Y-127317610D01*
X108279869Y-127317610D01*
X108371099Y-127279821D01*
X108516704Y-127182531D01*
X108640531Y-127058704D01*
X108737821Y-126913099D01*
X108804836Y-126751312D01*
X108839000Y-126579559D01*
X108839000Y-126404441D01*
X108804836Y-126232688D01*
X108737821Y-126070901D01*
X108640531Y-125925296D01*
X108516704Y-125801469D01*
X108409743Y-125730000D01*
X108516704Y-125658531D01*
X108640531Y-125534704D01*
X108737821Y-125389099D01*
X108804836Y-125227312D01*
X108839000Y-125055559D01*
X108839000Y-124880441D01*
X108819356Y-124781681D01*
X125765087Y-124781681D01*
X125812554Y-125020263D01*
X125905654Y-125245000D01*
X126040809Y-125447256D01*
X126212826Y-125619258D01*
X126415093Y-125754396D01*
X126600812Y-125831314D01*
X126380676Y-125931508D01*
X126184124Y-126072863D01*
X126018925Y-126249847D01*
X125891428Y-126455659D01*
X125806533Y-126682390D01*
X125930291Y-126873000D01*
X126873000Y-126873000D01*
X126873000Y-125931269D01*
X126718245Y-125830000D01*
X126873000Y-125728731D01*
X126873000Y-125608363D01*
X127035000Y-125608363D01*
X127035000Y-125851637D01*
X127082460Y-126090236D01*
X127127000Y-126197765D01*
X127127000Y-126873000D01*
X127802235Y-126873000D01*
X127909764Y-126917540D01*
X128148363Y-126965000D01*
X128391637Y-126965000D01*
X128630236Y-126917540D01*
X128854992Y-126824443D01*
X129057267Y-126689287D01*
X129229287Y-126517267D01*
X129364443Y-126314992D01*
X129457540Y-126090236D01*
X129505000Y-125851637D01*
X129505000Y-125608363D01*
X129457540Y-125369764D01*
X129364443Y-125145008D01*
X129229287Y-124942733D01*
X129057267Y-124770713D01*
X128854992Y-124635557D01*
X128630236Y-124542460D01*
X128391637Y-124495000D01*
X128148363Y-124495000D01*
X127909764Y-124542460D01*
X127802235Y-124587000D01*
X127127000Y-124587000D01*
X127127000Y-125262235D01*
X127082460Y-125369764D01*
X127035000Y-125608363D01*
X126873000Y-125608363D01*
X126873000Y-124587000D01*
X125920006Y-124587000D01*
X125765087Y-124781681D01*
X108819356Y-124781681D01*
X108804836Y-124708688D01*
X108737821Y-124546901D01*
X108640531Y-124401296D01*
X108516704Y-124277469D01*
X108371099Y-124180179D01*
X108270041Y-124138319D01*
X125765087Y-124138319D01*
X125920006Y-124333000D01*
X126873000Y-124333000D01*
X126873000Y-123191269D01*
X127127000Y-123191269D01*
X127127000Y-124333000D01*
X128079994Y-124333000D01*
X128234913Y-124138319D01*
X128187446Y-123899737D01*
X128094346Y-123675000D01*
X127959191Y-123472744D01*
X127787174Y-123300742D01*
X127584907Y-123165604D01*
X127360162Y-123072523D01*
X127317609Y-123066538D01*
X127127000Y-123191269D01*
X126873000Y-123191269D01*
X126682391Y-123066538D01*
X126639838Y-123072523D01*
X126415093Y-123165604D01*
X126212826Y-123300742D01*
X126040809Y-123472744D01*
X125905654Y-123675000D01*
X125812554Y-123899737D01*
X125765087Y-124138319D01*
X108270041Y-124138319D01*
X108209312Y-124113164D01*
X108037559Y-124079000D01*
X107862441Y-124079000D01*
X107690688Y-124113164D01*
X107528901Y-124180179D01*
X107383296Y-124277469D01*
X107259469Y-124401296D01*
X107162179Y-124546901D01*
X107095164Y-124708688D01*
X107061000Y-124880441D01*
X96720326Y-124880441D01*
X96986038Y-124614729D01*
X97230631Y-124248669D01*
X97399110Y-123841925D01*
X97485000Y-123410128D01*
X97485000Y-123091066D01*
X115848539Y-123091066D01*
X115950339Y-123360579D01*
X116248477Y-123506463D01*
X116569346Y-123591380D01*
X116900617Y-123612066D01*
X117229557Y-123567728D01*
X117543527Y-123460069D01*
X117729661Y-123360579D01*
X117831461Y-123091066D01*
X117710267Y-122969872D01*
X131115000Y-122969872D01*
X131115000Y-123410128D01*
X131200890Y-123841925D01*
X131369369Y-124248669D01*
X131613962Y-124614729D01*
X131925271Y-124926038D01*
X132291331Y-125170631D01*
X132698075Y-125339110D01*
X133129872Y-125425000D01*
X133570128Y-125425000D01*
X134001925Y-125339110D01*
X134408669Y-125170631D01*
X134774729Y-124926038D01*
X135086038Y-124614729D01*
X135330631Y-124248669D01*
X135499110Y-123841925D01*
X135585000Y-123410128D01*
X135585000Y-122969872D01*
X135499110Y-122538075D01*
X135330631Y-122131331D01*
X135086038Y-121765271D01*
X134774729Y-121453962D01*
X134408669Y-121209369D01*
X134001925Y-121040890D01*
X133570128Y-120955000D01*
X133129872Y-120955000D01*
X132698075Y-121040890D01*
X132291331Y-121209369D01*
X131925271Y-121453962D01*
X131613962Y-121765271D01*
X131369369Y-122131331D01*
X131200890Y-122538075D01*
X131115000Y-122969872D01*
X117710267Y-122969872D01*
X116840000Y-122099605D01*
X115848539Y-123091066D01*
X97485000Y-123091066D01*
X97485000Y-122969872D01*
X97399110Y-122538075D01*
X97230631Y-122131331D01*
X97129928Y-121980617D01*
X115147934Y-121980617D01*
X115192272Y-122309557D01*
X115299931Y-122623527D01*
X115399421Y-122809661D01*
X115668934Y-122911461D01*
X116660395Y-121920000D01*
X117019605Y-121920000D01*
X118011066Y-122911461D01*
X118280579Y-122809661D01*
X118426463Y-122511523D01*
X118511380Y-122190654D01*
X118532066Y-121859383D01*
X118487728Y-121530443D01*
X118380069Y-121216473D01*
X118280579Y-121030339D01*
X118011066Y-120928539D01*
X117019605Y-121920000D01*
X116660395Y-121920000D01*
X115668934Y-120928539D01*
X115399421Y-121030339D01*
X115253537Y-121328477D01*
X115168620Y-121649346D01*
X115147934Y-121980617D01*
X97129928Y-121980617D01*
X96986038Y-121765271D01*
X96674729Y-121453962D01*
X96308669Y-121209369D01*
X95901925Y-121040890D01*
X95470128Y-120955000D01*
X95029872Y-120955000D01*
X94598075Y-121040890D01*
X94191331Y-121209369D01*
X93825271Y-121453962D01*
X93513962Y-121765271D01*
X93269369Y-122131331D01*
X93100890Y-122538075D01*
X93015000Y-122969872D01*
X84274307Y-122969872D01*
X84231932Y-122756842D01*
X84119990Y-122486589D01*
X83957475Y-122243368D01*
X83750632Y-122036525D01*
X83507411Y-121874010D01*
X83237158Y-121762068D01*
X82950260Y-121705000D01*
X82657740Y-121705000D01*
X82370842Y-121762068D01*
X82100589Y-121874010D01*
X81857368Y-122036525D01*
X81650525Y-122243368D01*
X81534000Y-122417760D01*
X81417475Y-122243368D01*
X81210632Y-122036525D01*
X80967411Y-121874010D01*
X80697158Y-121762068D01*
X80410260Y-121705000D01*
X80117740Y-121705000D01*
X79830842Y-121762068D01*
X79560589Y-121874010D01*
X79317368Y-122036525D01*
X79110525Y-122243368D01*
X78948010Y-122486589D01*
X78836068Y-122756842D01*
X78779000Y-123043740D01*
X76847700Y-123043740D01*
X76847700Y-120748934D01*
X115848539Y-120748934D01*
X116840000Y-121740395D01*
X117831461Y-120748934D01*
X117729661Y-120479421D01*
X117431523Y-120333537D01*
X117110654Y-120248620D01*
X116779383Y-120227934D01*
X116450443Y-120272272D01*
X116136473Y-120379931D01*
X115950339Y-120479421D01*
X115848539Y-120748934D01*
X76847700Y-120748934D01*
X76847700Y-120027700D01*
X151752300Y-120027700D01*
X151752301Y-151752300D01*
G37*
G04 #@! TD.AperFunction*
M02*
