G04 #@! TF.GenerationSoftware,KiCad,Pcbnew,(5.1.2)-1*
G04 #@! TF.CreationDate,2019-11-05T14:52:24-06:00*
G04 #@! TF.ProjectId,computer_board,636f6d70-7574-4657-925f-626f6172642e,rev?*
G04 #@! TF.SameCoordinates,Original*
G04 #@! TF.FileFunction,Soldermask,Bot*
G04 #@! TF.FilePolarity,Negative*
%FSLAX46Y46*%
G04 Gerber Fmt 4.6, Leading zero omitted, Abs format (unit mm)*
G04 Created by KiCad (PCBNEW (5.1.2)-1) date 2019-11-05 14:52:24*
%MOMM*%
%LPD*%
G04 APERTURE LIST*
%ADD10C,0.100000*%
%ADD11C,3.301600*%
%ADD12C,1.741600*%
%ADD13O,1.801600X1.801600*%
%ADD14R,1.801600X1.801600*%
%ADD15C,2.851600*%
%ADD16R,0.901600X1.001600*%
%ADD17R,1.301600X1.001600*%
G04 APERTURE END LIST*
D10*
X185021000Y-59690000D02*
G75*
G03X185021000Y-59690000I-871000J0D01*
G01*
X182481000Y-59690000D02*
G75*
G03X182481000Y-59690000I-871000J0D01*
G01*
X185021000Y-62230000D02*
G75*
G03X185021000Y-62230000I-871000J0D01*
G01*
X182481000Y-62230000D02*
G75*
G03X182481000Y-62230000I-871000J0D01*
G01*
X185021000Y-64770000D02*
G75*
G03X185021000Y-64770000I-871000J0D01*
G01*
X182481000Y-64770000D02*
G75*
G03X182481000Y-64770000I-871000J0D01*
G01*
X185021000Y-67310000D02*
G75*
G03X185021000Y-67310000I-871000J0D01*
G01*
X182481000Y-67310000D02*
G75*
G03X182481000Y-67310000I-871000J0D01*
G01*
X185021000Y-69850000D02*
G75*
G03X185021000Y-69850000I-871000J0D01*
G01*
X182481000Y-69850000D02*
G75*
G03X182481000Y-69850000I-871000J0D01*
G01*
X185021000Y-72390000D02*
G75*
G03X185021000Y-72390000I-871000J0D01*
G01*
X182481000Y-72390000D02*
G75*
G03X182481000Y-72390000I-871000J0D01*
G01*
X185021000Y-74930000D02*
G75*
G03X185021000Y-74930000I-871000J0D01*
G01*
X182481000Y-74930000D02*
G75*
G03X182481000Y-74930000I-871000J0D01*
G01*
X185021000Y-77470000D02*
G75*
G03X185021000Y-77470000I-871000J0D01*
G01*
X182481000Y-77470000D02*
G75*
G03X182481000Y-77470000I-871000J0D01*
G01*
X185021000Y-80010000D02*
G75*
G03X185021000Y-80010000I-871000J0D01*
G01*
X182481000Y-80010000D02*
G75*
G03X182481000Y-80010000I-871000J0D01*
G01*
X185021000Y-82550000D02*
G75*
G03X185021000Y-82550000I-871000J0D01*
G01*
X182481000Y-82550000D02*
G75*
G03X182481000Y-82550000I-871000J0D01*
G01*
X185021000Y-85090000D02*
G75*
G03X185021000Y-85090000I-871000J0D01*
G01*
X182481000Y-85090000D02*
G75*
G03X182481000Y-85090000I-871000J0D01*
G01*
D11*
X100965000Y-59690000D03*
X173990000Y-59690000D03*
X100965000Y-85090000D03*
X173990000Y-85090000D03*
D12*
X184150000Y-59690000D03*
X181610000Y-59690000D03*
X184150000Y-62230000D03*
X181610000Y-62230000D03*
X184150000Y-64770000D03*
X181610000Y-64770000D03*
X184150000Y-67310000D03*
X181610000Y-67310000D03*
X184150000Y-69850000D03*
X181610000Y-69850000D03*
X184150000Y-72390000D03*
X181610000Y-72390000D03*
X184150000Y-74930000D03*
X181610000Y-74930000D03*
X184150000Y-77470000D03*
X181610000Y-77470000D03*
X184150000Y-80010000D03*
X181610000Y-80010000D03*
X184150000Y-82550000D03*
X181610000Y-82550000D03*
X184150000Y-85090000D03*
X181610000Y-85090000D03*
D13*
X95250000Y-59690000D03*
X95250000Y-62230000D03*
X95250000Y-64770000D03*
X95250000Y-67310000D03*
X95250000Y-69850000D03*
X95250000Y-72390000D03*
X95250000Y-74930000D03*
X95250000Y-77470000D03*
X95250000Y-80010000D03*
X95250000Y-82550000D03*
D14*
X95250000Y-85090000D03*
D13*
X113265000Y-61870000D03*
X113265000Y-59330000D03*
X115805000Y-61870000D03*
X115805000Y-59330000D03*
X118345000Y-61870000D03*
X118345000Y-59330000D03*
X120885000Y-61870000D03*
X120885000Y-59330000D03*
X123425000Y-61870000D03*
X123425000Y-59330000D03*
X125965000Y-61870000D03*
X125965000Y-59330000D03*
X128505000Y-61870000D03*
X128505000Y-59330000D03*
X131045000Y-61870000D03*
X131045000Y-59330000D03*
X133585000Y-61870000D03*
X133585000Y-59330000D03*
X136125000Y-61870000D03*
X136125000Y-59330000D03*
X138665000Y-61870000D03*
X138665000Y-59330000D03*
X141205000Y-61870000D03*
X141205000Y-59330000D03*
X143745000Y-61870000D03*
X143745000Y-59330000D03*
X146285000Y-61870000D03*
X146285000Y-59330000D03*
X148825000Y-61870000D03*
X148825000Y-59330000D03*
X151365000Y-61870000D03*
X151365000Y-59330000D03*
X153905000Y-61870000D03*
X153905000Y-59330000D03*
X156445000Y-61870000D03*
X156445000Y-59330000D03*
X158985000Y-61870000D03*
X158985000Y-59330000D03*
X161525000Y-61870000D03*
D14*
X161525000Y-59330000D03*
D15*
X108275000Y-60650000D03*
X166275000Y-83650000D03*
X166275000Y-60650000D03*
X108275000Y-83650000D03*
D16*
X117094000Y-68310000D03*
X118044000Y-66310000D03*
X116144000Y-66310000D03*
X167894000Y-68310000D03*
X168844000Y-66310000D03*
X166944000Y-66310000D03*
X162814000Y-68310000D03*
X163764000Y-66310000D03*
X161864000Y-66310000D03*
X151704000Y-66310000D03*
X153604000Y-66310000D03*
X152654000Y-68310000D03*
X146624000Y-66310000D03*
X148524000Y-66310000D03*
X147574000Y-68310000D03*
X141544000Y-66310000D03*
X143444000Y-66310000D03*
X142494000Y-68310000D03*
X137414000Y-68310000D03*
X138364000Y-66310000D03*
X136464000Y-66310000D03*
X112014000Y-68310000D03*
X112964000Y-66310000D03*
X111064000Y-66310000D03*
X157734000Y-68310000D03*
X158684000Y-66310000D03*
X156784000Y-66310000D03*
X126304000Y-66310000D03*
X128204000Y-66310000D03*
X127254000Y-68310000D03*
X131384000Y-66310000D03*
X133284000Y-66310000D03*
X132334000Y-68310000D03*
X121224000Y-66310000D03*
X123124000Y-66310000D03*
X122174000Y-68310000D03*
D17*
X115994000Y-64516000D03*
X118194000Y-64516000D03*
X166794000Y-64516000D03*
X168994000Y-64516000D03*
X161714000Y-64516000D03*
X163914000Y-64516000D03*
X151554000Y-64516000D03*
X153754000Y-64516000D03*
X115994000Y-70104000D03*
X118194000Y-70104000D03*
X166794000Y-70104000D03*
X168994000Y-70104000D03*
X161714000Y-70104000D03*
X163914000Y-70104000D03*
X151554000Y-70104000D03*
X153754000Y-70104000D03*
X146474000Y-64516000D03*
X148674000Y-64516000D03*
X143594000Y-64516000D03*
X141394000Y-64516000D03*
X138514000Y-64516000D03*
X136314000Y-64516000D03*
X110914000Y-64516000D03*
X113114000Y-64516000D03*
X146474000Y-70104000D03*
X148674000Y-70104000D03*
X143594000Y-70104000D03*
X141394000Y-70104000D03*
X138514000Y-70104000D03*
X136314000Y-70104000D03*
X113114000Y-70104000D03*
X110914000Y-70104000D03*
X156634000Y-64516000D03*
X158834000Y-64516000D03*
X128354000Y-64516000D03*
X126154000Y-64516000D03*
X133434000Y-64516000D03*
X131234000Y-64516000D03*
X123274000Y-64516000D03*
X121074000Y-64516000D03*
X156634000Y-70104000D03*
X158834000Y-70104000D03*
X128354000Y-70104000D03*
X126154000Y-70104000D03*
X131234000Y-70104000D03*
X133434000Y-70104000D03*
X123274000Y-70104000D03*
X121074000Y-70104000D03*
M02*
