G04 #@! TF.GenerationSoftware,KiCad,Pcbnew,(5.1.5)-3*
G04 #@! TF.CreationDate,2020-09-14T20:00:25-05:00*
G04 #@! TF.ProjectId,computer_board,636f6d70-7574-4657-925f-626f6172642e,4.1*
G04 #@! TF.SameCoordinates,Original*
G04 #@! TF.FileFunction,Copper,L4,Bot*
G04 #@! TF.FilePolarity,Positive*
%FSLAX46Y46*%
G04 Gerber Fmt 4.6, Leading zero omitted, Abs format (unit mm)*
G04 Created by KiCad (PCBNEW (5.1.5)-3) date 2020-09-14 20:00:25*
%MOMM*%
%LPD*%
G04 APERTURE LIST*
%ADD10C,1.640000*%
%ADD11R,1.700000X1.700000*%
%ADD12O,1.700000X1.700000*%
%ADD13R,0.800000X0.900000*%
%ADD14C,0.100000*%
%ADD15R,1.143000X2.032000*%
%ADD16C,1.000000*%
%ADD17C,0.508000*%
%ADD18C,0.304800*%
%ADD19C,0.152400*%
G04 APERTURE END LIST*
D10*
X180467000Y-85090000D03*
X183007000Y-85090000D03*
X180467000Y-82550000D03*
X183007000Y-82550000D03*
X180467000Y-80010000D03*
X183007000Y-80010000D03*
X180467000Y-77470000D03*
X183007000Y-77470000D03*
X180467000Y-74930000D03*
X183007000Y-74930000D03*
X180467000Y-72390000D03*
X183007000Y-72390000D03*
X180467000Y-69850000D03*
X183007000Y-69850000D03*
X180467000Y-67310000D03*
X183007000Y-67310000D03*
X180467000Y-64770000D03*
X183007000Y-64770000D03*
X180467000Y-62230000D03*
X183007000Y-62230000D03*
X180467000Y-59690000D03*
X183007000Y-59690000D03*
D11*
X113277600Y-61878800D03*
D12*
X113277600Y-59338800D03*
X115817600Y-61878800D03*
X115817600Y-59338800D03*
X118357600Y-61878800D03*
X118357600Y-59338800D03*
X120897600Y-61878800D03*
X120897600Y-59338800D03*
X123437600Y-61878800D03*
X123437600Y-59338800D03*
X125977600Y-61878800D03*
X125977600Y-59338800D03*
X128517600Y-61878800D03*
X128517600Y-59338800D03*
X131057600Y-61878800D03*
X131057600Y-59338800D03*
X133597600Y-61878800D03*
X133597600Y-59338800D03*
X136137600Y-61878800D03*
X136137600Y-59338800D03*
X138677600Y-61878800D03*
X138677600Y-59338800D03*
X141217600Y-61878800D03*
X141217600Y-59338800D03*
X143757600Y-61878800D03*
X143757600Y-59338800D03*
X146297600Y-61878800D03*
X146297600Y-59338800D03*
X148837600Y-61878800D03*
X148837600Y-59338800D03*
X151377600Y-61878800D03*
X151377600Y-59338800D03*
X153917600Y-61878800D03*
X153917600Y-59338800D03*
X156457600Y-61878800D03*
X156457600Y-59338800D03*
X158997600Y-61878800D03*
X158997600Y-59338800D03*
X161537600Y-61878800D03*
X161537600Y-59338800D03*
X95504000Y-59690000D03*
X95504000Y-62230000D03*
X95504000Y-64770000D03*
X95504000Y-67310000D03*
X95504000Y-69850000D03*
X95504000Y-72390000D03*
X95504000Y-74930000D03*
X95504000Y-77470000D03*
X95504000Y-80010000D03*
X95504000Y-82550000D03*
D11*
X95504000Y-85090000D03*
D13*
X143510000Y-76565000D03*
X144460000Y-74565000D03*
X142560000Y-74565000D03*
X148717000Y-76565000D03*
X149667000Y-74565000D03*
X147767000Y-74565000D03*
X153924000Y-76565000D03*
X154874000Y-74565000D03*
X152974000Y-74565000D03*
X158181000Y-74565000D03*
X160081000Y-74565000D03*
X159131000Y-76565000D03*
X163388000Y-66310000D03*
X165288000Y-66310000D03*
X164338000Y-68310000D03*
X158181000Y-66310000D03*
X160081000Y-66310000D03*
X159131000Y-68310000D03*
X153924000Y-68310000D03*
X154874000Y-66310000D03*
X152974000Y-66310000D03*
X133096000Y-68310000D03*
X134046000Y-66310000D03*
X132146000Y-66310000D03*
X127889000Y-68310000D03*
X128839000Y-66310000D03*
X126939000Y-66310000D03*
X137353000Y-66310000D03*
X139253000Y-66310000D03*
X138303000Y-68310000D03*
X147767000Y-66310000D03*
X149667000Y-66310000D03*
X148717000Y-68310000D03*
X142560000Y-66310000D03*
X144460000Y-66310000D03*
X143510000Y-68310000D03*
G04 #@! TA.AperFunction,SMDPad,CuDef*
D14*
G36*
X130308779Y-85314144D02*
G01*
X130331834Y-85317563D01*
X130354443Y-85323227D01*
X130376387Y-85331079D01*
X130397457Y-85341044D01*
X130417448Y-85353026D01*
X130436168Y-85366910D01*
X130453438Y-85382562D01*
X130469090Y-85399832D01*
X130482974Y-85418552D01*
X130494956Y-85438543D01*
X130504921Y-85459613D01*
X130512773Y-85481557D01*
X130518437Y-85504166D01*
X130521856Y-85527221D01*
X130523000Y-85550500D01*
X130523000Y-86125500D01*
X130521856Y-86148779D01*
X130518437Y-86171834D01*
X130512773Y-86194443D01*
X130504921Y-86216387D01*
X130494956Y-86237457D01*
X130482974Y-86257448D01*
X130469090Y-86276168D01*
X130453438Y-86293438D01*
X130436168Y-86309090D01*
X130417448Y-86322974D01*
X130397457Y-86334956D01*
X130376387Y-86344921D01*
X130354443Y-86352773D01*
X130331834Y-86358437D01*
X130308779Y-86361856D01*
X130285500Y-86363000D01*
X129810500Y-86363000D01*
X129787221Y-86361856D01*
X129764166Y-86358437D01*
X129741557Y-86352773D01*
X129719613Y-86344921D01*
X129698543Y-86334956D01*
X129678552Y-86322974D01*
X129659832Y-86309090D01*
X129642562Y-86293438D01*
X129626910Y-86276168D01*
X129613026Y-86257448D01*
X129601044Y-86237457D01*
X129591079Y-86216387D01*
X129583227Y-86194443D01*
X129577563Y-86171834D01*
X129574144Y-86148779D01*
X129573000Y-86125500D01*
X129573000Y-85550500D01*
X129574144Y-85527221D01*
X129577563Y-85504166D01*
X129583227Y-85481557D01*
X129591079Y-85459613D01*
X129601044Y-85438543D01*
X129613026Y-85418552D01*
X129626910Y-85399832D01*
X129642562Y-85382562D01*
X129659832Y-85366910D01*
X129678552Y-85353026D01*
X129698543Y-85341044D01*
X129719613Y-85331079D01*
X129741557Y-85323227D01*
X129764166Y-85317563D01*
X129787221Y-85314144D01*
X129810500Y-85313000D01*
X130285500Y-85313000D01*
X130308779Y-85314144D01*
G37*
G04 #@! TD.AperFunction*
G04 #@! TA.AperFunction,SMDPad,CuDef*
G36*
X130308779Y-83564144D02*
G01*
X130331834Y-83567563D01*
X130354443Y-83573227D01*
X130376387Y-83581079D01*
X130397457Y-83591044D01*
X130417448Y-83603026D01*
X130436168Y-83616910D01*
X130453438Y-83632562D01*
X130469090Y-83649832D01*
X130482974Y-83668552D01*
X130494956Y-83688543D01*
X130504921Y-83709613D01*
X130512773Y-83731557D01*
X130518437Y-83754166D01*
X130521856Y-83777221D01*
X130523000Y-83800500D01*
X130523000Y-84375500D01*
X130521856Y-84398779D01*
X130518437Y-84421834D01*
X130512773Y-84444443D01*
X130504921Y-84466387D01*
X130494956Y-84487457D01*
X130482974Y-84507448D01*
X130469090Y-84526168D01*
X130453438Y-84543438D01*
X130436168Y-84559090D01*
X130417448Y-84572974D01*
X130397457Y-84584956D01*
X130376387Y-84594921D01*
X130354443Y-84602773D01*
X130331834Y-84608437D01*
X130308779Y-84611856D01*
X130285500Y-84613000D01*
X129810500Y-84613000D01*
X129787221Y-84611856D01*
X129764166Y-84608437D01*
X129741557Y-84602773D01*
X129719613Y-84594921D01*
X129698543Y-84584956D01*
X129678552Y-84572974D01*
X129659832Y-84559090D01*
X129642562Y-84543438D01*
X129626910Y-84526168D01*
X129613026Y-84507448D01*
X129601044Y-84487457D01*
X129591079Y-84466387D01*
X129583227Y-84444443D01*
X129577563Y-84421834D01*
X129574144Y-84398779D01*
X129573000Y-84375500D01*
X129573000Y-83800500D01*
X129574144Y-83777221D01*
X129577563Y-83754166D01*
X129583227Y-83731557D01*
X129591079Y-83709613D01*
X129601044Y-83688543D01*
X129613026Y-83668552D01*
X129626910Y-83649832D01*
X129642562Y-83632562D01*
X129659832Y-83616910D01*
X129678552Y-83603026D01*
X129698543Y-83591044D01*
X129719613Y-83581079D01*
X129741557Y-83573227D01*
X129764166Y-83567563D01*
X129787221Y-83564144D01*
X129810500Y-83563000D01*
X130285500Y-83563000D01*
X130308779Y-83564144D01*
G37*
G04 #@! TD.AperFunction*
G04 #@! TA.AperFunction,SMDPad,CuDef*
G36*
X114723779Y-64550144D02*
G01*
X114746834Y-64553563D01*
X114769443Y-64559227D01*
X114791387Y-64567079D01*
X114812457Y-64577044D01*
X114832448Y-64589026D01*
X114851168Y-64602910D01*
X114868438Y-64618562D01*
X114884090Y-64635832D01*
X114897974Y-64654552D01*
X114909956Y-64674543D01*
X114919921Y-64695613D01*
X114927773Y-64717557D01*
X114933437Y-64740166D01*
X114936856Y-64763221D01*
X114938000Y-64786500D01*
X114938000Y-65261500D01*
X114936856Y-65284779D01*
X114933437Y-65307834D01*
X114927773Y-65330443D01*
X114919921Y-65352387D01*
X114909956Y-65373457D01*
X114897974Y-65393448D01*
X114884090Y-65412168D01*
X114868438Y-65429438D01*
X114851168Y-65445090D01*
X114832448Y-65458974D01*
X114812457Y-65470956D01*
X114791387Y-65480921D01*
X114769443Y-65488773D01*
X114746834Y-65494437D01*
X114723779Y-65497856D01*
X114700500Y-65499000D01*
X114125500Y-65499000D01*
X114102221Y-65497856D01*
X114079166Y-65494437D01*
X114056557Y-65488773D01*
X114034613Y-65480921D01*
X114013543Y-65470956D01*
X113993552Y-65458974D01*
X113974832Y-65445090D01*
X113957562Y-65429438D01*
X113941910Y-65412168D01*
X113928026Y-65393448D01*
X113916044Y-65373457D01*
X113906079Y-65352387D01*
X113898227Y-65330443D01*
X113892563Y-65307834D01*
X113889144Y-65284779D01*
X113888000Y-65261500D01*
X113888000Y-64786500D01*
X113889144Y-64763221D01*
X113892563Y-64740166D01*
X113898227Y-64717557D01*
X113906079Y-64695613D01*
X113916044Y-64674543D01*
X113928026Y-64654552D01*
X113941910Y-64635832D01*
X113957562Y-64618562D01*
X113974832Y-64602910D01*
X113993552Y-64589026D01*
X114013543Y-64577044D01*
X114034613Y-64567079D01*
X114056557Y-64559227D01*
X114079166Y-64553563D01*
X114102221Y-64550144D01*
X114125500Y-64549000D01*
X114700500Y-64549000D01*
X114723779Y-64550144D01*
G37*
G04 #@! TD.AperFunction*
G04 #@! TA.AperFunction,SMDPad,CuDef*
G36*
X112973779Y-64550144D02*
G01*
X112996834Y-64553563D01*
X113019443Y-64559227D01*
X113041387Y-64567079D01*
X113062457Y-64577044D01*
X113082448Y-64589026D01*
X113101168Y-64602910D01*
X113118438Y-64618562D01*
X113134090Y-64635832D01*
X113147974Y-64654552D01*
X113159956Y-64674543D01*
X113169921Y-64695613D01*
X113177773Y-64717557D01*
X113183437Y-64740166D01*
X113186856Y-64763221D01*
X113188000Y-64786500D01*
X113188000Y-65261500D01*
X113186856Y-65284779D01*
X113183437Y-65307834D01*
X113177773Y-65330443D01*
X113169921Y-65352387D01*
X113159956Y-65373457D01*
X113147974Y-65393448D01*
X113134090Y-65412168D01*
X113118438Y-65429438D01*
X113101168Y-65445090D01*
X113082448Y-65458974D01*
X113062457Y-65470956D01*
X113041387Y-65480921D01*
X113019443Y-65488773D01*
X112996834Y-65494437D01*
X112973779Y-65497856D01*
X112950500Y-65499000D01*
X112375500Y-65499000D01*
X112352221Y-65497856D01*
X112329166Y-65494437D01*
X112306557Y-65488773D01*
X112284613Y-65480921D01*
X112263543Y-65470956D01*
X112243552Y-65458974D01*
X112224832Y-65445090D01*
X112207562Y-65429438D01*
X112191910Y-65412168D01*
X112178026Y-65393448D01*
X112166044Y-65373457D01*
X112156079Y-65352387D01*
X112148227Y-65330443D01*
X112142563Y-65307834D01*
X112139144Y-65284779D01*
X112138000Y-65261500D01*
X112138000Y-64786500D01*
X112139144Y-64763221D01*
X112142563Y-64740166D01*
X112148227Y-64717557D01*
X112156079Y-64695613D01*
X112166044Y-64674543D01*
X112178026Y-64654552D01*
X112191910Y-64635832D01*
X112207562Y-64618562D01*
X112224832Y-64602910D01*
X112243552Y-64589026D01*
X112263543Y-64577044D01*
X112284613Y-64567079D01*
X112306557Y-64559227D01*
X112329166Y-64553563D01*
X112352221Y-64550144D01*
X112375500Y-64549000D01*
X112950500Y-64549000D01*
X112973779Y-64550144D01*
G37*
G04 #@! TD.AperFunction*
G04 #@! TA.AperFunction,SMDPad,CuDef*
G36*
X112973779Y-66455144D02*
G01*
X112996834Y-66458563D01*
X113019443Y-66464227D01*
X113041387Y-66472079D01*
X113062457Y-66482044D01*
X113082448Y-66494026D01*
X113101168Y-66507910D01*
X113118438Y-66523562D01*
X113134090Y-66540832D01*
X113147974Y-66559552D01*
X113159956Y-66579543D01*
X113169921Y-66600613D01*
X113177773Y-66622557D01*
X113183437Y-66645166D01*
X113186856Y-66668221D01*
X113188000Y-66691500D01*
X113188000Y-67166500D01*
X113186856Y-67189779D01*
X113183437Y-67212834D01*
X113177773Y-67235443D01*
X113169921Y-67257387D01*
X113159956Y-67278457D01*
X113147974Y-67298448D01*
X113134090Y-67317168D01*
X113118438Y-67334438D01*
X113101168Y-67350090D01*
X113082448Y-67363974D01*
X113062457Y-67375956D01*
X113041387Y-67385921D01*
X113019443Y-67393773D01*
X112996834Y-67399437D01*
X112973779Y-67402856D01*
X112950500Y-67404000D01*
X112375500Y-67404000D01*
X112352221Y-67402856D01*
X112329166Y-67399437D01*
X112306557Y-67393773D01*
X112284613Y-67385921D01*
X112263543Y-67375956D01*
X112243552Y-67363974D01*
X112224832Y-67350090D01*
X112207562Y-67334438D01*
X112191910Y-67317168D01*
X112178026Y-67298448D01*
X112166044Y-67278457D01*
X112156079Y-67257387D01*
X112148227Y-67235443D01*
X112142563Y-67212834D01*
X112139144Y-67189779D01*
X112138000Y-67166500D01*
X112138000Y-66691500D01*
X112139144Y-66668221D01*
X112142563Y-66645166D01*
X112148227Y-66622557D01*
X112156079Y-66600613D01*
X112166044Y-66579543D01*
X112178026Y-66559552D01*
X112191910Y-66540832D01*
X112207562Y-66523562D01*
X112224832Y-66507910D01*
X112243552Y-66494026D01*
X112263543Y-66482044D01*
X112284613Y-66472079D01*
X112306557Y-66464227D01*
X112329166Y-66458563D01*
X112352221Y-66455144D01*
X112375500Y-66454000D01*
X112950500Y-66454000D01*
X112973779Y-66455144D01*
G37*
G04 #@! TD.AperFunction*
G04 #@! TA.AperFunction,SMDPad,CuDef*
G36*
X114723779Y-66455144D02*
G01*
X114746834Y-66458563D01*
X114769443Y-66464227D01*
X114791387Y-66472079D01*
X114812457Y-66482044D01*
X114832448Y-66494026D01*
X114851168Y-66507910D01*
X114868438Y-66523562D01*
X114884090Y-66540832D01*
X114897974Y-66559552D01*
X114909956Y-66579543D01*
X114919921Y-66600613D01*
X114927773Y-66622557D01*
X114933437Y-66645166D01*
X114936856Y-66668221D01*
X114938000Y-66691500D01*
X114938000Y-67166500D01*
X114936856Y-67189779D01*
X114933437Y-67212834D01*
X114927773Y-67235443D01*
X114919921Y-67257387D01*
X114909956Y-67278457D01*
X114897974Y-67298448D01*
X114884090Y-67317168D01*
X114868438Y-67334438D01*
X114851168Y-67350090D01*
X114832448Y-67363974D01*
X114812457Y-67375956D01*
X114791387Y-67385921D01*
X114769443Y-67393773D01*
X114746834Y-67399437D01*
X114723779Y-67402856D01*
X114700500Y-67404000D01*
X114125500Y-67404000D01*
X114102221Y-67402856D01*
X114079166Y-67399437D01*
X114056557Y-67393773D01*
X114034613Y-67385921D01*
X114013543Y-67375956D01*
X113993552Y-67363974D01*
X113974832Y-67350090D01*
X113957562Y-67334438D01*
X113941910Y-67317168D01*
X113928026Y-67298448D01*
X113916044Y-67278457D01*
X113906079Y-67257387D01*
X113898227Y-67235443D01*
X113892563Y-67212834D01*
X113889144Y-67189779D01*
X113888000Y-67166500D01*
X113888000Y-66691500D01*
X113889144Y-66668221D01*
X113892563Y-66645166D01*
X113898227Y-66622557D01*
X113906079Y-66600613D01*
X113916044Y-66579543D01*
X113928026Y-66559552D01*
X113941910Y-66540832D01*
X113957562Y-66523562D01*
X113974832Y-66507910D01*
X113993552Y-66494026D01*
X114013543Y-66482044D01*
X114034613Y-66472079D01*
X114056557Y-66464227D01*
X114079166Y-66458563D01*
X114102221Y-66455144D01*
X114125500Y-66454000D01*
X114700500Y-66454000D01*
X114723779Y-66455144D01*
G37*
G04 #@! TD.AperFunction*
D15*
X126365000Y-84455000D03*
X123825000Y-84455000D03*
X121285000Y-84455000D03*
X118745000Y-84455000D03*
X118745000Y-73025000D03*
X121285000Y-73025000D03*
X123825000Y-73025000D03*
X126365000Y-73025000D03*
D16*
X100965000Y-78740000D03*
X173990000Y-64770000D03*
G04 #@! TA.AperFunction,SMDPad,CuDef*
D14*
G36*
X142945779Y-72297144D02*
G01*
X142968834Y-72300563D01*
X142991443Y-72306227D01*
X143013387Y-72314079D01*
X143034457Y-72324044D01*
X143054448Y-72336026D01*
X143073168Y-72349910D01*
X143090438Y-72365562D01*
X143106090Y-72382832D01*
X143119974Y-72401552D01*
X143131956Y-72421543D01*
X143141921Y-72442613D01*
X143149773Y-72464557D01*
X143155437Y-72487166D01*
X143158856Y-72510221D01*
X143160000Y-72533500D01*
X143160000Y-73008500D01*
X143158856Y-73031779D01*
X143155437Y-73054834D01*
X143149773Y-73077443D01*
X143141921Y-73099387D01*
X143131956Y-73120457D01*
X143119974Y-73140448D01*
X143106090Y-73159168D01*
X143090438Y-73176438D01*
X143073168Y-73192090D01*
X143054448Y-73205974D01*
X143034457Y-73217956D01*
X143013387Y-73227921D01*
X142991443Y-73235773D01*
X142968834Y-73241437D01*
X142945779Y-73244856D01*
X142922500Y-73246000D01*
X142347500Y-73246000D01*
X142324221Y-73244856D01*
X142301166Y-73241437D01*
X142278557Y-73235773D01*
X142256613Y-73227921D01*
X142235543Y-73217956D01*
X142215552Y-73205974D01*
X142196832Y-73192090D01*
X142179562Y-73176438D01*
X142163910Y-73159168D01*
X142150026Y-73140448D01*
X142138044Y-73120457D01*
X142128079Y-73099387D01*
X142120227Y-73077443D01*
X142114563Y-73054834D01*
X142111144Y-73031779D01*
X142110000Y-73008500D01*
X142110000Y-72533500D01*
X142111144Y-72510221D01*
X142114563Y-72487166D01*
X142120227Y-72464557D01*
X142128079Y-72442613D01*
X142138044Y-72421543D01*
X142150026Y-72401552D01*
X142163910Y-72382832D01*
X142179562Y-72365562D01*
X142196832Y-72349910D01*
X142215552Y-72336026D01*
X142235543Y-72324044D01*
X142256613Y-72314079D01*
X142278557Y-72306227D01*
X142301166Y-72300563D01*
X142324221Y-72297144D01*
X142347500Y-72296000D01*
X142922500Y-72296000D01*
X142945779Y-72297144D01*
G37*
G04 #@! TD.AperFunction*
G04 #@! TA.AperFunction,SMDPad,CuDef*
G36*
X144695779Y-72297144D02*
G01*
X144718834Y-72300563D01*
X144741443Y-72306227D01*
X144763387Y-72314079D01*
X144784457Y-72324044D01*
X144804448Y-72336026D01*
X144823168Y-72349910D01*
X144840438Y-72365562D01*
X144856090Y-72382832D01*
X144869974Y-72401552D01*
X144881956Y-72421543D01*
X144891921Y-72442613D01*
X144899773Y-72464557D01*
X144905437Y-72487166D01*
X144908856Y-72510221D01*
X144910000Y-72533500D01*
X144910000Y-73008500D01*
X144908856Y-73031779D01*
X144905437Y-73054834D01*
X144899773Y-73077443D01*
X144891921Y-73099387D01*
X144881956Y-73120457D01*
X144869974Y-73140448D01*
X144856090Y-73159168D01*
X144840438Y-73176438D01*
X144823168Y-73192090D01*
X144804448Y-73205974D01*
X144784457Y-73217956D01*
X144763387Y-73227921D01*
X144741443Y-73235773D01*
X144718834Y-73241437D01*
X144695779Y-73244856D01*
X144672500Y-73246000D01*
X144097500Y-73246000D01*
X144074221Y-73244856D01*
X144051166Y-73241437D01*
X144028557Y-73235773D01*
X144006613Y-73227921D01*
X143985543Y-73217956D01*
X143965552Y-73205974D01*
X143946832Y-73192090D01*
X143929562Y-73176438D01*
X143913910Y-73159168D01*
X143900026Y-73140448D01*
X143888044Y-73120457D01*
X143878079Y-73099387D01*
X143870227Y-73077443D01*
X143864563Y-73054834D01*
X143861144Y-73031779D01*
X143860000Y-73008500D01*
X143860000Y-72533500D01*
X143861144Y-72510221D01*
X143864563Y-72487166D01*
X143870227Y-72464557D01*
X143878079Y-72442613D01*
X143888044Y-72421543D01*
X143900026Y-72401552D01*
X143913910Y-72382832D01*
X143929562Y-72365562D01*
X143946832Y-72349910D01*
X143965552Y-72336026D01*
X143985543Y-72324044D01*
X144006613Y-72314079D01*
X144028557Y-72306227D01*
X144051166Y-72300563D01*
X144074221Y-72297144D01*
X144097500Y-72296000D01*
X144672500Y-72296000D01*
X144695779Y-72297144D01*
G37*
G04 #@! TD.AperFunction*
G04 #@! TA.AperFunction,SMDPad,CuDef*
G36*
X148152779Y-72297144D02*
G01*
X148175834Y-72300563D01*
X148198443Y-72306227D01*
X148220387Y-72314079D01*
X148241457Y-72324044D01*
X148261448Y-72336026D01*
X148280168Y-72349910D01*
X148297438Y-72365562D01*
X148313090Y-72382832D01*
X148326974Y-72401552D01*
X148338956Y-72421543D01*
X148348921Y-72442613D01*
X148356773Y-72464557D01*
X148362437Y-72487166D01*
X148365856Y-72510221D01*
X148367000Y-72533500D01*
X148367000Y-73008500D01*
X148365856Y-73031779D01*
X148362437Y-73054834D01*
X148356773Y-73077443D01*
X148348921Y-73099387D01*
X148338956Y-73120457D01*
X148326974Y-73140448D01*
X148313090Y-73159168D01*
X148297438Y-73176438D01*
X148280168Y-73192090D01*
X148261448Y-73205974D01*
X148241457Y-73217956D01*
X148220387Y-73227921D01*
X148198443Y-73235773D01*
X148175834Y-73241437D01*
X148152779Y-73244856D01*
X148129500Y-73246000D01*
X147554500Y-73246000D01*
X147531221Y-73244856D01*
X147508166Y-73241437D01*
X147485557Y-73235773D01*
X147463613Y-73227921D01*
X147442543Y-73217956D01*
X147422552Y-73205974D01*
X147403832Y-73192090D01*
X147386562Y-73176438D01*
X147370910Y-73159168D01*
X147357026Y-73140448D01*
X147345044Y-73120457D01*
X147335079Y-73099387D01*
X147327227Y-73077443D01*
X147321563Y-73054834D01*
X147318144Y-73031779D01*
X147317000Y-73008500D01*
X147317000Y-72533500D01*
X147318144Y-72510221D01*
X147321563Y-72487166D01*
X147327227Y-72464557D01*
X147335079Y-72442613D01*
X147345044Y-72421543D01*
X147357026Y-72401552D01*
X147370910Y-72382832D01*
X147386562Y-72365562D01*
X147403832Y-72349910D01*
X147422552Y-72336026D01*
X147442543Y-72324044D01*
X147463613Y-72314079D01*
X147485557Y-72306227D01*
X147508166Y-72300563D01*
X147531221Y-72297144D01*
X147554500Y-72296000D01*
X148129500Y-72296000D01*
X148152779Y-72297144D01*
G37*
G04 #@! TD.AperFunction*
G04 #@! TA.AperFunction,SMDPad,CuDef*
G36*
X149902779Y-72297144D02*
G01*
X149925834Y-72300563D01*
X149948443Y-72306227D01*
X149970387Y-72314079D01*
X149991457Y-72324044D01*
X150011448Y-72336026D01*
X150030168Y-72349910D01*
X150047438Y-72365562D01*
X150063090Y-72382832D01*
X150076974Y-72401552D01*
X150088956Y-72421543D01*
X150098921Y-72442613D01*
X150106773Y-72464557D01*
X150112437Y-72487166D01*
X150115856Y-72510221D01*
X150117000Y-72533500D01*
X150117000Y-73008500D01*
X150115856Y-73031779D01*
X150112437Y-73054834D01*
X150106773Y-73077443D01*
X150098921Y-73099387D01*
X150088956Y-73120457D01*
X150076974Y-73140448D01*
X150063090Y-73159168D01*
X150047438Y-73176438D01*
X150030168Y-73192090D01*
X150011448Y-73205974D01*
X149991457Y-73217956D01*
X149970387Y-73227921D01*
X149948443Y-73235773D01*
X149925834Y-73241437D01*
X149902779Y-73244856D01*
X149879500Y-73246000D01*
X149304500Y-73246000D01*
X149281221Y-73244856D01*
X149258166Y-73241437D01*
X149235557Y-73235773D01*
X149213613Y-73227921D01*
X149192543Y-73217956D01*
X149172552Y-73205974D01*
X149153832Y-73192090D01*
X149136562Y-73176438D01*
X149120910Y-73159168D01*
X149107026Y-73140448D01*
X149095044Y-73120457D01*
X149085079Y-73099387D01*
X149077227Y-73077443D01*
X149071563Y-73054834D01*
X149068144Y-73031779D01*
X149067000Y-73008500D01*
X149067000Y-72533500D01*
X149068144Y-72510221D01*
X149071563Y-72487166D01*
X149077227Y-72464557D01*
X149085079Y-72442613D01*
X149095044Y-72421543D01*
X149107026Y-72401552D01*
X149120910Y-72382832D01*
X149136562Y-72365562D01*
X149153832Y-72349910D01*
X149172552Y-72336026D01*
X149192543Y-72324044D01*
X149213613Y-72314079D01*
X149235557Y-72306227D01*
X149258166Y-72300563D01*
X149281221Y-72297144D01*
X149304500Y-72296000D01*
X149879500Y-72296000D01*
X149902779Y-72297144D01*
G37*
G04 #@! TD.AperFunction*
G04 #@! TA.AperFunction,SMDPad,CuDef*
G36*
X153359779Y-72297144D02*
G01*
X153382834Y-72300563D01*
X153405443Y-72306227D01*
X153427387Y-72314079D01*
X153448457Y-72324044D01*
X153468448Y-72336026D01*
X153487168Y-72349910D01*
X153504438Y-72365562D01*
X153520090Y-72382832D01*
X153533974Y-72401552D01*
X153545956Y-72421543D01*
X153555921Y-72442613D01*
X153563773Y-72464557D01*
X153569437Y-72487166D01*
X153572856Y-72510221D01*
X153574000Y-72533500D01*
X153574000Y-73008500D01*
X153572856Y-73031779D01*
X153569437Y-73054834D01*
X153563773Y-73077443D01*
X153555921Y-73099387D01*
X153545956Y-73120457D01*
X153533974Y-73140448D01*
X153520090Y-73159168D01*
X153504438Y-73176438D01*
X153487168Y-73192090D01*
X153468448Y-73205974D01*
X153448457Y-73217956D01*
X153427387Y-73227921D01*
X153405443Y-73235773D01*
X153382834Y-73241437D01*
X153359779Y-73244856D01*
X153336500Y-73246000D01*
X152761500Y-73246000D01*
X152738221Y-73244856D01*
X152715166Y-73241437D01*
X152692557Y-73235773D01*
X152670613Y-73227921D01*
X152649543Y-73217956D01*
X152629552Y-73205974D01*
X152610832Y-73192090D01*
X152593562Y-73176438D01*
X152577910Y-73159168D01*
X152564026Y-73140448D01*
X152552044Y-73120457D01*
X152542079Y-73099387D01*
X152534227Y-73077443D01*
X152528563Y-73054834D01*
X152525144Y-73031779D01*
X152524000Y-73008500D01*
X152524000Y-72533500D01*
X152525144Y-72510221D01*
X152528563Y-72487166D01*
X152534227Y-72464557D01*
X152542079Y-72442613D01*
X152552044Y-72421543D01*
X152564026Y-72401552D01*
X152577910Y-72382832D01*
X152593562Y-72365562D01*
X152610832Y-72349910D01*
X152629552Y-72336026D01*
X152649543Y-72324044D01*
X152670613Y-72314079D01*
X152692557Y-72306227D01*
X152715166Y-72300563D01*
X152738221Y-72297144D01*
X152761500Y-72296000D01*
X153336500Y-72296000D01*
X153359779Y-72297144D01*
G37*
G04 #@! TD.AperFunction*
G04 #@! TA.AperFunction,SMDPad,CuDef*
G36*
X155109779Y-72297144D02*
G01*
X155132834Y-72300563D01*
X155155443Y-72306227D01*
X155177387Y-72314079D01*
X155198457Y-72324044D01*
X155218448Y-72336026D01*
X155237168Y-72349910D01*
X155254438Y-72365562D01*
X155270090Y-72382832D01*
X155283974Y-72401552D01*
X155295956Y-72421543D01*
X155305921Y-72442613D01*
X155313773Y-72464557D01*
X155319437Y-72487166D01*
X155322856Y-72510221D01*
X155324000Y-72533500D01*
X155324000Y-73008500D01*
X155322856Y-73031779D01*
X155319437Y-73054834D01*
X155313773Y-73077443D01*
X155305921Y-73099387D01*
X155295956Y-73120457D01*
X155283974Y-73140448D01*
X155270090Y-73159168D01*
X155254438Y-73176438D01*
X155237168Y-73192090D01*
X155218448Y-73205974D01*
X155198457Y-73217956D01*
X155177387Y-73227921D01*
X155155443Y-73235773D01*
X155132834Y-73241437D01*
X155109779Y-73244856D01*
X155086500Y-73246000D01*
X154511500Y-73246000D01*
X154488221Y-73244856D01*
X154465166Y-73241437D01*
X154442557Y-73235773D01*
X154420613Y-73227921D01*
X154399543Y-73217956D01*
X154379552Y-73205974D01*
X154360832Y-73192090D01*
X154343562Y-73176438D01*
X154327910Y-73159168D01*
X154314026Y-73140448D01*
X154302044Y-73120457D01*
X154292079Y-73099387D01*
X154284227Y-73077443D01*
X154278563Y-73054834D01*
X154275144Y-73031779D01*
X154274000Y-73008500D01*
X154274000Y-72533500D01*
X154275144Y-72510221D01*
X154278563Y-72487166D01*
X154284227Y-72464557D01*
X154292079Y-72442613D01*
X154302044Y-72421543D01*
X154314026Y-72401552D01*
X154327910Y-72382832D01*
X154343562Y-72365562D01*
X154360832Y-72349910D01*
X154379552Y-72336026D01*
X154399543Y-72324044D01*
X154420613Y-72314079D01*
X154442557Y-72306227D01*
X154465166Y-72300563D01*
X154488221Y-72297144D01*
X154511500Y-72296000D01*
X155086500Y-72296000D01*
X155109779Y-72297144D01*
G37*
G04 #@! TD.AperFunction*
G04 #@! TA.AperFunction,SMDPad,CuDef*
G36*
X158566779Y-72297144D02*
G01*
X158589834Y-72300563D01*
X158612443Y-72306227D01*
X158634387Y-72314079D01*
X158655457Y-72324044D01*
X158675448Y-72336026D01*
X158694168Y-72349910D01*
X158711438Y-72365562D01*
X158727090Y-72382832D01*
X158740974Y-72401552D01*
X158752956Y-72421543D01*
X158762921Y-72442613D01*
X158770773Y-72464557D01*
X158776437Y-72487166D01*
X158779856Y-72510221D01*
X158781000Y-72533500D01*
X158781000Y-73008500D01*
X158779856Y-73031779D01*
X158776437Y-73054834D01*
X158770773Y-73077443D01*
X158762921Y-73099387D01*
X158752956Y-73120457D01*
X158740974Y-73140448D01*
X158727090Y-73159168D01*
X158711438Y-73176438D01*
X158694168Y-73192090D01*
X158675448Y-73205974D01*
X158655457Y-73217956D01*
X158634387Y-73227921D01*
X158612443Y-73235773D01*
X158589834Y-73241437D01*
X158566779Y-73244856D01*
X158543500Y-73246000D01*
X157968500Y-73246000D01*
X157945221Y-73244856D01*
X157922166Y-73241437D01*
X157899557Y-73235773D01*
X157877613Y-73227921D01*
X157856543Y-73217956D01*
X157836552Y-73205974D01*
X157817832Y-73192090D01*
X157800562Y-73176438D01*
X157784910Y-73159168D01*
X157771026Y-73140448D01*
X157759044Y-73120457D01*
X157749079Y-73099387D01*
X157741227Y-73077443D01*
X157735563Y-73054834D01*
X157732144Y-73031779D01*
X157731000Y-73008500D01*
X157731000Y-72533500D01*
X157732144Y-72510221D01*
X157735563Y-72487166D01*
X157741227Y-72464557D01*
X157749079Y-72442613D01*
X157759044Y-72421543D01*
X157771026Y-72401552D01*
X157784910Y-72382832D01*
X157800562Y-72365562D01*
X157817832Y-72349910D01*
X157836552Y-72336026D01*
X157856543Y-72324044D01*
X157877613Y-72314079D01*
X157899557Y-72306227D01*
X157922166Y-72300563D01*
X157945221Y-72297144D01*
X157968500Y-72296000D01*
X158543500Y-72296000D01*
X158566779Y-72297144D01*
G37*
G04 #@! TD.AperFunction*
G04 #@! TA.AperFunction,SMDPad,CuDef*
G36*
X160316779Y-72297144D02*
G01*
X160339834Y-72300563D01*
X160362443Y-72306227D01*
X160384387Y-72314079D01*
X160405457Y-72324044D01*
X160425448Y-72336026D01*
X160444168Y-72349910D01*
X160461438Y-72365562D01*
X160477090Y-72382832D01*
X160490974Y-72401552D01*
X160502956Y-72421543D01*
X160512921Y-72442613D01*
X160520773Y-72464557D01*
X160526437Y-72487166D01*
X160529856Y-72510221D01*
X160531000Y-72533500D01*
X160531000Y-73008500D01*
X160529856Y-73031779D01*
X160526437Y-73054834D01*
X160520773Y-73077443D01*
X160512921Y-73099387D01*
X160502956Y-73120457D01*
X160490974Y-73140448D01*
X160477090Y-73159168D01*
X160461438Y-73176438D01*
X160444168Y-73192090D01*
X160425448Y-73205974D01*
X160405457Y-73217956D01*
X160384387Y-73227921D01*
X160362443Y-73235773D01*
X160339834Y-73241437D01*
X160316779Y-73244856D01*
X160293500Y-73246000D01*
X159718500Y-73246000D01*
X159695221Y-73244856D01*
X159672166Y-73241437D01*
X159649557Y-73235773D01*
X159627613Y-73227921D01*
X159606543Y-73217956D01*
X159586552Y-73205974D01*
X159567832Y-73192090D01*
X159550562Y-73176438D01*
X159534910Y-73159168D01*
X159521026Y-73140448D01*
X159509044Y-73120457D01*
X159499079Y-73099387D01*
X159491227Y-73077443D01*
X159485563Y-73054834D01*
X159482144Y-73031779D01*
X159481000Y-73008500D01*
X159481000Y-72533500D01*
X159482144Y-72510221D01*
X159485563Y-72487166D01*
X159491227Y-72464557D01*
X159499079Y-72442613D01*
X159509044Y-72421543D01*
X159521026Y-72401552D01*
X159534910Y-72382832D01*
X159550562Y-72365562D01*
X159567832Y-72349910D01*
X159586552Y-72336026D01*
X159606543Y-72324044D01*
X159627613Y-72314079D01*
X159649557Y-72306227D01*
X159672166Y-72300563D01*
X159695221Y-72297144D01*
X159718500Y-72296000D01*
X160293500Y-72296000D01*
X160316779Y-72297144D01*
G37*
G04 #@! TD.AperFunction*
G04 #@! TA.AperFunction,SMDPad,CuDef*
G36*
X142945779Y-77885144D02*
G01*
X142968834Y-77888563D01*
X142991443Y-77894227D01*
X143013387Y-77902079D01*
X143034457Y-77912044D01*
X143054448Y-77924026D01*
X143073168Y-77937910D01*
X143090438Y-77953562D01*
X143106090Y-77970832D01*
X143119974Y-77989552D01*
X143131956Y-78009543D01*
X143141921Y-78030613D01*
X143149773Y-78052557D01*
X143155437Y-78075166D01*
X143158856Y-78098221D01*
X143160000Y-78121500D01*
X143160000Y-78596500D01*
X143158856Y-78619779D01*
X143155437Y-78642834D01*
X143149773Y-78665443D01*
X143141921Y-78687387D01*
X143131956Y-78708457D01*
X143119974Y-78728448D01*
X143106090Y-78747168D01*
X143090438Y-78764438D01*
X143073168Y-78780090D01*
X143054448Y-78793974D01*
X143034457Y-78805956D01*
X143013387Y-78815921D01*
X142991443Y-78823773D01*
X142968834Y-78829437D01*
X142945779Y-78832856D01*
X142922500Y-78834000D01*
X142347500Y-78834000D01*
X142324221Y-78832856D01*
X142301166Y-78829437D01*
X142278557Y-78823773D01*
X142256613Y-78815921D01*
X142235543Y-78805956D01*
X142215552Y-78793974D01*
X142196832Y-78780090D01*
X142179562Y-78764438D01*
X142163910Y-78747168D01*
X142150026Y-78728448D01*
X142138044Y-78708457D01*
X142128079Y-78687387D01*
X142120227Y-78665443D01*
X142114563Y-78642834D01*
X142111144Y-78619779D01*
X142110000Y-78596500D01*
X142110000Y-78121500D01*
X142111144Y-78098221D01*
X142114563Y-78075166D01*
X142120227Y-78052557D01*
X142128079Y-78030613D01*
X142138044Y-78009543D01*
X142150026Y-77989552D01*
X142163910Y-77970832D01*
X142179562Y-77953562D01*
X142196832Y-77937910D01*
X142215552Y-77924026D01*
X142235543Y-77912044D01*
X142256613Y-77902079D01*
X142278557Y-77894227D01*
X142301166Y-77888563D01*
X142324221Y-77885144D01*
X142347500Y-77884000D01*
X142922500Y-77884000D01*
X142945779Y-77885144D01*
G37*
G04 #@! TD.AperFunction*
G04 #@! TA.AperFunction,SMDPad,CuDef*
G36*
X144695779Y-77885144D02*
G01*
X144718834Y-77888563D01*
X144741443Y-77894227D01*
X144763387Y-77902079D01*
X144784457Y-77912044D01*
X144804448Y-77924026D01*
X144823168Y-77937910D01*
X144840438Y-77953562D01*
X144856090Y-77970832D01*
X144869974Y-77989552D01*
X144881956Y-78009543D01*
X144891921Y-78030613D01*
X144899773Y-78052557D01*
X144905437Y-78075166D01*
X144908856Y-78098221D01*
X144910000Y-78121500D01*
X144910000Y-78596500D01*
X144908856Y-78619779D01*
X144905437Y-78642834D01*
X144899773Y-78665443D01*
X144891921Y-78687387D01*
X144881956Y-78708457D01*
X144869974Y-78728448D01*
X144856090Y-78747168D01*
X144840438Y-78764438D01*
X144823168Y-78780090D01*
X144804448Y-78793974D01*
X144784457Y-78805956D01*
X144763387Y-78815921D01*
X144741443Y-78823773D01*
X144718834Y-78829437D01*
X144695779Y-78832856D01*
X144672500Y-78834000D01*
X144097500Y-78834000D01*
X144074221Y-78832856D01*
X144051166Y-78829437D01*
X144028557Y-78823773D01*
X144006613Y-78815921D01*
X143985543Y-78805956D01*
X143965552Y-78793974D01*
X143946832Y-78780090D01*
X143929562Y-78764438D01*
X143913910Y-78747168D01*
X143900026Y-78728448D01*
X143888044Y-78708457D01*
X143878079Y-78687387D01*
X143870227Y-78665443D01*
X143864563Y-78642834D01*
X143861144Y-78619779D01*
X143860000Y-78596500D01*
X143860000Y-78121500D01*
X143861144Y-78098221D01*
X143864563Y-78075166D01*
X143870227Y-78052557D01*
X143878079Y-78030613D01*
X143888044Y-78009543D01*
X143900026Y-77989552D01*
X143913910Y-77970832D01*
X143929562Y-77953562D01*
X143946832Y-77937910D01*
X143965552Y-77924026D01*
X143985543Y-77912044D01*
X144006613Y-77902079D01*
X144028557Y-77894227D01*
X144051166Y-77888563D01*
X144074221Y-77885144D01*
X144097500Y-77884000D01*
X144672500Y-77884000D01*
X144695779Y-77885144D01*
G37*
G04 #@! TD.AperFunction*
G04 #@! TA.AperFunction,SMDPad,CuDef*
G36*
X148152779Y-77885144D02*
G01*
X148175834Y-77888563D01*
X148198443Y-77894227D01*
X148220387Y-77902079D01*
X148241457Y-77912044D01*
X148261448Y-77924026D01*
X148280168Y-77937910D01*
X148297438Y-77953562D01*
X148313090Y-77970832D01*
X148326974Y-77989552D01*
X148338956Y-78009543D01*
X148348921Y-78030613D01*
X148356773Y-78052557D01*
X148362437Y-78075166D01*
X148365856Y-78098221D01*
X148367000Y-78121500D01*
X148367000Y-78596500D01*
X148365856Y-78619779D01*
X148362437Y-78642834D01*
X148356773Y-78665443D01*
X148348921Y-78687387D01*
X148338956Y-78708457D01*
X148326974Y-78728448D01*
X148313090Y-78747168D01*
X148297438Y-78764438D01*
X148280168Y-78780090D01*
X148261448Y-78793974D01*
X148241457Y-78805956D01*
X148220387Y-78815921D01*
X148198443Y-78823773D01*
X148175834Y-78829437D01*
X148152779Y-78832856D01*
X148129500Y-78834000D01*
X147554500Y-78834000D01*
X147531221Y-78832856D01*
X147508166Y-78829437D01*
X147485557Y-78823773D01*
X147463613Y-78815921D01*
X147442543Y-78805956D01*
X147422552Y-78793974D01*
X147403832Y-78780090D01*
X147386562Y-78764438D01*
X147370910Y-78747168D01*
X147357026Y-78728448D01*
X147345044Y-78708457D01*
X147335079Y-78687387D01*
X147327227Y-78665443D01*
X147321563Y-78642834D01*
X147318144Y-78619779D01*
X147317000Y-78596500D01*
X147317000Y-78121500D01*
X147318144Y-78098221D01*
X147321563Y-78075166D01*
X147327227Y-78052557D01*
X147335079Y-78030613D01*
X147345044Y-78009543D01*
X147357026Y-77989552D01*
X147370910Y-77970832D01*
X147386562Y-77953562D01*
X147403832Y-77937910D01*
X147422552Y-77924026D01*
X147442543Y-77912044D01*
X147463613Y-77902079D01*
X147485557Y-77894227D01*
X147508166Y-77888563D01*
X147531221Y-77885144D01*
X147554500Y-77884000D01*
X148129500Y-77884000D01*
X148152779Y-77885144D01*
G37*
G04 #@! TD.AperFunction*
G04 #@! TA.AperFunction,SMDPad,CuDef*
G36*
X149902779Y-77885144D02*
G01*
X149925834Y-77888563D01*
X149948443Y-77894227D01*
X149970387Y-77902079D01*
X149991457Y-77912044D01*
X150011448Y-77924026D01*
X150030168Y-77937910D01*
X150047438Y-77953562D01*
X150063090Y-77970832D01*
X150076974Y-77989552D01*
X150088956Y-78009543D01*
X150098921Y-78030613D01*
X150106773Y-78052557D01*
X150112437Y-78075166D01*
X150115856Y-78098221D01*
X150117000Y-78121500D01*
X150117000Y-78596500D01*
X150115856Y-78619779D01*
X150112437Y-78642834D01*
X150106773Y-78665443D01*
X150098921Y-78687387D01*
X150088956Y-78708457D01*
X150076974Y-78728448D01*
X150063090Y-78747168D01*
X150047438Y-78764438D01*
X150030168Y-78780090D01*
X150011448Y-78793974D01*
X149991457Y-78805956D01*
X149970387Y-78815921D01*
X149948443Y-78823773D01*
X149925834Y-78829437D01*
X149902779Y-78832856D01*
X149879500Y-78834000D01*
X149304500Y-78834000D01*
X149281221Y-78832856D01*
X149258166Y-78829437D01*
X149235557Y-78823773D01*
X149213613Y-78815921D01*
X149192543Y-78805956D01*
X149172552Y-78793974D01*
X149153832Y-78780090D01*
X149136562Y-78764438D01*
X149120910Y-78747168D01*
X149107026Y-78728448D01*
X149095044Y-78708457D01*
X149085079Y-78687387D01*
X149077227Y-78665443D01*
X149071563Y-78642834D01*
X149068144Y-78619779D01*
X149067000Y-78596500D01*
X149067000Y-78121500D01*
X149068144Y-78098221D01*
X149071563Y-78075166D01*
X149077227Y-78052557D01*
X149085079Y-78030613D01*
X149095044Y-78009543D01*
X149107026Y-77989552D01*
X149120910Y-77970832D01*
X149136562Y-77953562D01*
X149153832Y-77937910D01*
X149172552Y-77924026D01*
X149192543Y-77912044D01*
X149213613Y-77902079D01*
X149235557Y-77894227D01*
X149258166Y-77888563D01*
X149281221Y-77885144D01*
X149304500Y-77884000D01*
X149879500Y-77884000D01*
X149902779Y-77885144D01*
G37*
G04 #@! TD.AperFunction*
G04 #@! TA.AperFunction,SMDPad,CuDef*
G36*
X153359779Y-77885144D02*
G01*
X153382834Y-77888563D01*
X153405443Y-77894227D01*
X153427387Y-77902079D01*
X153448457Y-77912044D01*
X153468448Y-77924026D01*
X153487168Y-77937910D01*
X153504438Y-77953562D01*
X153520090Y-77970832D01*
X153533974Y-77989552D01*
X153545956Y-78009543D01*
X153555921Y-78030613D01*
X153563773Y-78052557D01*
X153569437Y-78075166D01*
X153572856Y-78098221D01*
X153574000Y-78121500D01*
X153574000Y-78596500D01*
X153572856Y-78619779D01*
X153569437Y-78642834D01*
X153563773Y-78665443D01*
X153555921Y-78687387D01*
X153545956Y-78708457D01*
X153533974Y-78728448D01*
X153520090Y-78747168D01*
X153504438Y-78764438D01*
X153487168Y-78780090D01*
X153468448Y-78793974D01*
X153448457Y-78805956D01*
X153427387Y-78815921D01*
X153405443Y-78823773D01*
X153382834Y-78829437D01*
X153359779Y-78832856D01*
X153336500Y-78834000D01*
X152761500Y-78834000D01*
X152738221Y-78832856D01*
X152715166Y-78829437D01*
X152692557Y-78823773D01*
X152670613Y-78815921D01*
X152649543Y-78805956D01*
X152629552Y-78793974D01*
X152610832Y-78780090D01*
X152593562Y-78764438D01*
X152577910Y-78747168D01*
X152564026Y-78728448D01*
X152552044Y-78708457D01*
X152542079Y-78687387D01*
X152534227Y-78665443D01*
X152528563Y-78642834D01*
X152525144Y-78619779D01*
X152524000Y-78596500D01*
X152524000Y-78121500D01*
X152525144Y-78098221D01*
X152528563Y-78075166D01*
X152534227Y-78052557D01*
X152542079Y-78030613D01*
X152552044Y-78009543D01*
X152564026Y-77989552D01*
X152577910Y-77970832D01*
X152593562Y-77953562D01*
X152610832Y-77937910D01*
X152629552Y-77924026D01*
X152649543Y-77912044D01*
X152670613Y-77902079D01*
X152692557Y-77894227D01*
X152715166Y-77888563D01*
X152738221Y-77885144D01*
X152761500Y-77884000D01*
X153336500Y-77884000D01*
X153359779Y-77885144D01*
G37*
G04 #@! TD.AperFunction*
G04 #@! TA.AperFunction,SMDPad,CuDef*
G36*
X155109779Y-77885144D02*
G01*
X155132834Y-77888563D01*
X155155443Y-77894227D01*
X155177387Y-77902079D01*
X155198457Y-77912044D01*
X155218448Y-77924026D01*
X155237168Y-77937910D01*
X155254438Y-77953562D01*
X155270090Y-77970832D01*
X155283974Y-77989552D01*
X155295956Y-78009543D01*
X155305921Y-78030613D01*
X155313773Y-78052557D01*
X155319437Y-78075166D01*
X155322856Y-78098221D01*
X155324000Y-78121500D01*
X155324000Y-78596500D01*
X155322856Y-78619779D01*
X155319437Y-78642834D01*
X155313773Y-78665443D01*
X155305921Y-78687387D01*
X155295956Y-78708457D01*
X155283974Y-78728448D01*
X155270090Y-78747168D01*
X155254438Y-78764438D01*
X155237168Y-78780090D01*
X155218448Y-78793974D01*
X155198457Y-78805956D01*
X155177387Y-78815921D01*
X155155443Y-78823773D01*
X155132834Y-78829437D01*
X155109779Y-78832856D01*
X155086500Y-78834000D01*
X154511500Y-78834000D01*
X154488221Y-78832856D01*
X154465166Y-78829437D01*
X154442557Y-78823773D01*
X154420613Y-78815921D01*
X154399543Y-78805956D01*
X154379552Y-78793974D01*
X154360832Y-78780090D01*
X154343562Y-78764438D01*
X154327910Y-78747168D01*
X154314026Y-78728448D01*
X154302044Y-78708457D01*
X154292079Y-78687387D01*
X154284227Y-78665443D01*
X154278563Y-78642834D01*
X154275144Y-78619779D01*
X154274000Y-78596500D01*
X154274000Y-78121500D01*
X154275144Y-78098221D01*
X154278563Y-78075166D01*
X154284227Y-78052557D01*
X154292079Y-78030613D01*
X154302044Y-78009543D01*
X154314026Y-77989552D01*
X154327910Y-77970832D01*
X154343562Y-77953562D01*
X154360832Y-77937910D01*
X154379552Y-77924026D01*
X154399543Y-77912044D01*
X154420613Y-77902079D01*
X154442557Y-77894227D01*
X154465166Y-77888563D01*
X154488221Y-77885144D01*
X154511500Y-77884000D01*
X155086500Y-77884000D01*
X155109779Y-77885144D01*
G37*
G04 #@! TD.AperFunction*
G04 #@! TA.AperFunction,SMDPad,CuDef*
G36*
X160316779Y-77885144D02*
G01*
X160339834Y-77888563D01*
X160362443Y-77894227D01*
X160384387Y-77902079D01*
X160405457Y-77912044D01*
X160425448Y-77924026D01*
X160444168Y-77937910D01*
X160461438Y-77953562D01*
X160477090Y-77970832D01*
X160490974Y-77989552D01*
X160502956Y-78009543D01*
X160512921Y-78030613D01*
X160520773Y-78052557D01*
X160526437Y-78075166D01*
X160529856Y-78098221D01*
X160531000Y-78121500D01*
X160531000Y-78596500D01*
X160529856Y-78619779D01*
X160526437Y-78642834D01*
X160520773Y-78665443D01*
X160512921Y-78687387D01*
X160502956Y-78708457D01*
X160490974Y-78728448D01*
X160477090Y-78747168D01*
X160461438Y-78764438D01*
X160444168Y-78780090D01*
X160425448Y-78793974D01*
X160405457Y-78805956D01*
X160384387Y-78815921D01*
X160362443Y-78823773D01*
X160339834Y-78829437D01*
X160316779Y-78832856D01*
X160293500Y-78834000D01*
X159718500Y-78834000D01*
X159695221Y-78832856D01*
X159672166Y-78829437D01*
X159649557Y-78823773D01*
X159627613Y-78815921D01*
X159606543Y-78805956D01*
X159586552Y-78793974D01*
X159567832Y-78780090D01*
X159550562Y-78764438D01*
X159534910Y-78747168D01*
X159521026Y-78728448D01*
X159509044Y-78708457D01*
X159499079Y-78687387D01*
X159491227Y-78665443D01*
X159485563Y-78642834D01*
X159482144Y-78619779D01*
X159481000Y-78596500D01*
X159481000Y-78121500D01*
X159482144Y-78098221D01*
X159485563Y-78075166D01*
X159491227Y-78052557D01*
X159499079Y-78030613D01*
X159509044Y-78009543D01*
X159521026Y-77989552D01*
X159534910Y-77970832D01*
X159550562Y-77953562D01*
X159567832Y-77937910D01*
X159586552Y-77924026D01*
X159606543Y-77912044D01*
X159627613Y-77902079D01*
X159649557Y-77894227D01*
X159672166Y-77888563D01*
X159695221Y-77885144D01*
X159718500Y-77884000D01*
X160293500Y-77884000D01*
X160316779Y-77885144D01*
G37*
G04 #@! TD.AperFunction*
G04 #@! TA.AperFunction,SMDPad,CuDef*
G36*
X158566779Y-77885144D02*
G01*
X158589834Y-77888563D01*
X158612443Y-77894227D01*
X158634387Y-77902079D01*
X158655457Y-77912044D01*
X158675448Y-77924026D01*
X158694168Y-77937910D01*
X158711438Y-77953562D01*
X158727090Y-77970832D01*
X158740974Y-77989552D01*
X158752956Y-78009543D01*
X158762921Y-78030613D01*
X158770773Y-78052557D01*
X158776437Y-78075166D01*
X158779856Y-78098221D01*
X158781000Y-78121500D01*
X158781000Y-78596500D01*
X158779856Y-78619779D01*
X158776437Y-78642834D01*
X158770773Y-78665443D01*
X158762921Y-78687387D01*
X158752956Y-78708457D01*
X158740974Y-78728448D01*
X158727090Y-78747168D01*
X158711438Y-78764438D01*
X158694168Y-78780090D01*
X158675448Y-78793974D01*
X158655457Y-78805956D01*
X158634387Y-78815921D01*
X158612443Y-78823773D01*
X158589834Y-78829437D01*
X158566779Y-78832856D01*
X158543500Y-78834000D01*
X157968500Y-78834000D01*
X157945221Y-78832856D01*
X157922166Y-78829437D01*
X157899557Y-78823773D01*
X157877613Y-78815921D01*
X157856543Y-78805956D01*
X157836552Y-78793974D01*
X157817832Y-78780090D01*
X157800562Y-78764438D01*
X157784910Y-78747168D01*
X157771026Y-78728448D01*
X157759044Y-78708457D01*
X157749079Y-78687387D01*
X157741227Y-78665443D01*
X157735563Y-78642834D01*
X157732144Y-78619779D01*
X157731000Y-78596500D01*
X157731000Y-78121500D01*
X157732144Y-78098221D01*
X157735563Y-78075166D01*
X157741227Y-78052557D01*
X157749079Y-78030613D01*
X157759044Y-78009543D01*
X157771026Y-77989552D01*
X157784910Y-77970832D01*
X157800562Y-77953562D01*
X157817832Y-77937910D01*
X157836552Y-77924026D01*
X157856543Y-77912044D01*
X157877613Y-77902079D01*
X157899557Y-77894227D01*
X157922166Y-77888563D01*
X157945221Y-77885144D01*
X157968500Y-77884000D01*
X158543500Y-77884000D01*
X158566779Y-77885144D01*
G37*
G04 #@! TD.AperFunction*
G04 #@! TA.AperFunction,SMDPad,CuDef*
G36*
X165523779Y-64042144D02*
G01*
X165546834Y-64045563D01*
X165569443Y-64051227D01*
X165591387Y-64059079D01*
X165612457Y-64069044D01*
X165632448Y-64081026D01*
X165651168Y-64094910D01*
X165668438Y-64110562D01*
X165684090Y-64127832D01*
X165697974Y-64146552D01*
X165709956Y-64166543D01*
X165719921Y-64187613D01*
X165727773Y-64209557D01*
X165733437Y-64232166D01*
X165736856Y-64255221D01*
X165738000Y-64278500D01*
X165738000Y-64753500D01*
X165736856Y-64776779D01*
X165733437Y-64799834D01*
X165727773Y-64822443D01*
X165719921Y-64844387D01*
X165709956Y-64865457D01*
X165697974Y-64885448D01*
X165684090Y-64904168D01*
X165668438Y-64921438D01*
X165651168Y-64937090D01*
X165632448Y-64950974D01*
X165612457Y-64962956D01*
X165591387Y-64972921D01*
X165569443Y-64980773D01*
X165546834Y-64986437D01*
X165523779Y-64989856D01*
X165500500Y-64991000D01*
X164925500Y-64991000D01*
X164902221Y-64989856D01*
X164879166Y-64986437D01*
X164856557Y-64980773D01*
X164834613Y-64972921D01*
X164813543Y-64962956D01*
X164793552Y-64950974D01*
X164774832Y-64937090D01*
X164757562Y-64921438D01*
X164741910Y-64904168D01*
X164728026Y-64885448D01*
X164716044Y-64865457D01*
X164706079Y-64844387D01*
X164698227Y-64822443D01*
X164692563Y-64799834D01*
X164689144Y-64776779D01*
X164688000Y-64753500D01*
X164688000Y-64278500D01*
X164689144Y-64255221D01*
X164692563Y-64232166D01*
X164698227Y-64209557D01*
X164706079Y-64187613D01*
X164716044Y-64166543D01*
X164728026Y-64146552D01*
X164741910Y-64127832D01*
X164757562Y-64110562D01*
X164774832Y-64094910D01*
X164793552Y-64081026D01*
X164813543Y-64069044D01*
X164834613Y-64059079D01*
X164856557Y-64051227D01*
X164879166Y-64045563D01*
X164902221Y-64042144D01*
X164925500Y-64041000D01*
X165500500Y-64041000D01*
X165523779Y-64042144D01*
G37*
G04 #@! TD.AperFunction*
G04 #@! TA.AperFunction,SMDPad,CuDef*
G36*
X163773779Y-64042144D02*
G01*
X163796834Y-64045563D01*
X163819443Y-64051227D01*
X163841387Y-64059079D01*
X163862457Y-64069044D01*
X163882448Y-64081026D01*
X163901168Y-64094910D01*
X163918438Y-64110562D01*
X163934090Y-64127832D01*
X163947974Y-64146552D01*
X163959956Y-64166543D01*
X163969921Y-64187613D01*
X163977773Y-64209557D01*
X163983437Y-64232166D01*
X163986856Y-64255221D01*
X163988000Y-64278500D01*
X163988000Y-64753500D01*
X163986856Y-64776779D01*
X163983437Y-64799834D01*
X163977773Y-64822443D01*
X163969921Y-64844387D01*
X163959956Y-64865457D01*
X163947974Y-64885448D01*
X163934090Y-64904168D01*
X163918438Y-64921438D01*
X163901168Y-64937090D01*
X163882448Y-64950974D01*
X163862457Y-64962956D01*
X163841387Y-64972921D01*
X163819443Y-64980773D01*
X163796834Y-64986437D01*
X163773779Y-64989856D01*
X163750500Y-64991000D01*
X163175500Y-64991000D01*
X163152221Y-64989856D01*
X163129166Y-64986437D01*
X163106557Y-64980773D01*
X163084613Y-64972921D01*
X163063543Y-64962956D01*
X163043552Y-64950974D01*
X163024832Y-64937090D01*
X163007562Y-64921438D01*
X162991910Y-64904168D01*
X162978026Y-64885448D01*
X162966044Y-64865457D01*
X162956079Y-64844387D01*
X162948227Y-64822443D01*
X162942563Y-64799834D01*
X162939144Y-64776779D01*
X162938000Y-64753500D01*
X162938000Y-64278500D01*
X162939144Y-64255221D01*
X162942563Y-64232166D01*
X162948227Y-64209557D01*
X162956079Y-64187613D01*
X162966044Y-64166543D01*
X162978026Y-64146552D01*
X162991910Y-64127832D01*
X163007562Y-64110562D01*
X163024832Y-64094910D01*
X163043552Y-64081026D01*
X163063543Y-64069044D01*
X163084613Y-64059079D01*
X163106557Y-64051227D01*
X163129166Y-64045563D01*
X163152221Y-64042144D01*
X163175500Y-64041000D01*
X163750500Y-64041000D01*
X163773779Y-64042144D01*
G37*
G04 #@! TD.AperFunction*
G04 #@! TA.AperFunction,SMDPad,CuDef*
G36*
X160316779Y-64042144D02*
G01*
X160339834Y-64045563D01*
X160362443Y-64051227D01*
X160384387Y-64059079D01*
X160405457Y-64069044D01*
X160425448Y-64081026D01*
X160444168Y-64094910D01*
X160461438Y-64110562D01*
X160477090Y-64127832D01*
X160490974Y-64146552D01*
X160502956Y-64166543D01*
X160512921Y-64187613D01*
X160520773Y-64209557D01*
X160526437Y-64232166D01*
X160529856Y-64255221D01*
X160531000Y-64278500D01*
X160531000Y-64753500D01*
X160529856Y-64776779D01*
X160526437Y-64799834D01*
X160520773Y-64822443D01*
X160512921Y-64844387D01*
X160502956Y-64865457D01*
X160490974Y-64885448D01*
X160477090Y-64904168D01*
X160461438Y-64921438D01*
X160444168Y-64937090D01*
X160425448Y-64950974D01*
X160405457Y-64962956D01*
X160384387Y-64972921D01*
X160362443Y-64980773D01*
X160339834Y-64986437D01*
X160316779Y-64989856D01*
X160293500Y-64991000D01*
X159718500Y-64991000D01*
X159695221Y-64989856D01*
X159672166Y-64986437D01*
X159649557Y-64980773D01*
X159627613Y-64972921D01*
X159606543Y-64962956D01*
X159586552Y-64950974D01*
X159567832Y-64937090D01*
X159550562Y-64921438D01*
X159534910Y-64904168D01*
X159521026Y-64885448D01*
X159509044Y-64865457D01*
X159499079Y-64844387D01*
X159491227Y-64822443D01*
X159485563Y-64799834D01*
X159482144Y-64776779D01*
X159481000Y-64753500D01*
X159481000Y-64278500D01*
X159482144Y-64255221D01*
X159485563Y-64232166D01*
X159491227Y-64209557D01*
X159499079Y-64187613D01*
X159509044Y-64166543D01*
X159521026Y-64146552D01*
X159534910Y-64127832D01*
X159550562Y-64110562D01*
X159567832Y-64094910D01*
X159586552Y-64081026D01*
X159606543Y-64069044D01*
X159627613Y-64059079D01*
X159649557Y-64051227D01*
X159672166Y-64045563D01*
X159695221Y-64042144D01*
X159718500Y-64041000D01*
X160293500Y-64041000D01*
X160316779Y-64042144D01*
G37*
G04 #@! TD.AperFunction*
G04 #@! TA.AperFunction,SMDPad,CuDef*
G36*
X158566779Y-64042144D02*
G01*
X158589834Y-64045563D01*
X158612443Y-64051227D01*
X158634387Y-64059079D01*
X158655457Y-64069044D01*
X158675448Y-64081026D01*
X158694168Y-64094910D01*
X158711438Y-64110562D01*
X158727090Y-64127832D01*
X158740974Y-64146552D01*
X158752956Y-64166543D01*
X158762921Y-64187613D01*
X158770773Y-64209557D01*
X158776437Y-64232166D01*
X158779856Y-64255221D01*
X158781000Y-64278500D01*
X158781000Y-64753500D01*
X158779856Y-64776779D01*
X158776437Y-64799834D01*
X158770773Y-64822443D01*
X158762921Y-64844387D01*
X158752956Y-64865457D01*
X158740974Y-64885448D01*
X158727090Y-64904168D01*
X158711438Y-64921438D01*
X158694168Y-64937090D01*
X158675448Y-64950974D01*
X158655457Y-64962956D01*
X158634387Y-64972921D01*
X158612443Y-64980773D01*
X158589834Y-64986437D01*
X158566779Y-64989856D01*
X158543500Y-64991000D01*
X157968500Y-64991000D01*
X157945221Y-64989856D01*
X157922166Y-64986437D01*
X157899557Y-64980773D01*
X157877613Y-64972921D01*
X157856543Y-64962956D01*
X157836552Y-64950974D01*
X157817832Y-64937090D01*
X157800562Y-64921438D01*
X157784910Y-64904168D01*
X157771026Y-64885448D01*
X157759044Y-64865457D01*
X157749079Y-64844387D01*
X157741227Y-64822443D01*
X157735563Y-64799834D01*
X157732144Y-64776779D01*
X157731000Y-64753500D01*
X157731000Y-64278500D01*
X157732144Y-64255221D01*
X157735563Y-64232166D01*
X157741227Y-64209557D01*
X157749079Y-64187613D01*
X157759044Y-64166543D01*
X157771026Y-64146552D01*
X157784910Y-64127832D01*
X157800562Y-64110562D01*
X157817832Y-64094910D01*
X157836552Y-64081026D01*
X157856543Y-64069044D01*
X157877613Y-64059079D01*
X157899557Y-64051227D01*
X157922166Y-64045563D01*
X157945221Y-64042144D01*
X157968500Y-64041000D01*
X158543500Y-64041000D01*
X158566779Y-64042144D01*
G37*
G04 #@! TD.AperFunction*
G04 #@! TA.AperFunction,SMDPad,CuDef*
G36*
X153359779Y-64042144D02*
G01*
X153382834Y-64045563D01*
X153405443Y-64051227D01*
X153427387Y-64059079D01*
X153448457Y-64069044D01*
X153468448Y-64081026D01*
X153487168Y-64094910D01*
X153504438Y-64110562D01*
X153520090Y-64127832D01*
X153533974Y-64146552D01*
X153545956Y-64166543D01*
X153555921Y-64187613D01*
X153563773Y-64209557D01*
X153569437Y-64232166D01*
X153572856Y-64255221D01*
X153574000Y-64278500D01*
X153574000Y-64753500D01*
X153572856Y-64776779D01*
X153569437Y-64799834D01*
X153563773Y-64822443D01*
X153555921Y-64844387D01*
X153545956Y-64865457D01*
X153533974Y-64885448D01*
X153520090Y-64904168D01*
X153504438Y-64921438D01*
X153487168Y-64937090D01*
X153468448Y-64950974D01*
X153448457Y-64962956D01*
X153427387Y-64972921D01*
X153405443Y-64980773D01*
X153382834Y-64986437D01*
X153359779Y-64989856D01*
X153336500Y-64991000D01*
X152761500Y-64991000D01*
X152738221Y-64989856D01*
X152715166Y-64986437D01*
X152692557Y-64980773D01*
X152670613Y-64972921D01*
X152649543Y-64962956D01*
X152629552Y-64950974D01*
X152610832Y-64937090D01*
X152593562Y-64921438D01*
X152577910Y-64904168D01*
X152564026Y-64885448D01*
X152552044Y-64865457D01*
X152542079Y-64844387D01*
X152534227Y-64822443D01*
X152528563Y-64799834D01*
X152525144Y-64776779D01*
X152524000Y-64753500D01*
X152524000Y-64278500D01*
X152525144Y-64255221D01*
X152528563Y-64232166D01*
X152534227Y-64209557D01*
X152542079Y-64187613D01*
X152552044Y-64166543D01*
X152564026Y-64146552D01*
X152577910Y-64127832D01*
X152593562Y-64110562D01*
X152610832Y-64094910D01*
X152629552Y-64081026D01*
X152649543Y-64069044D01*
X152670613Y-64059079D01*
X152692557Y-64051227D01*
X152715166Y-64045563D01*
X152738221Y-64042144D01*
X152761500Y-64041000D01*
X153336500Y-64041000D01*
X153359779Y-64042144D01*
G37*
G04 #@! TD.AperFunction*
G04 #@! TA.AperFunction,SMDPad,CuDef*
G36*
X155109779Y-64042144D02*
G01*
X155132834Y-64045563D01*
X155155443Y-64051227D01*
X155177387Y-64059079D01*
X155198457Y-64069044D01*
X155218448Y-64081026D01*
X155237168Y-64094910D01*
X155254438Y-64110562D01*
X155270090Y-64127832D01*
X155283974Y-64146552D01*
X155295956Y-64166543D01*
X155305921Y-64187613D01*
X155313773Y-64209557D01*
X155319437Y-64232166D01*
X155322856Y-64255221D01*
X155324000Y-64278500D01*
X155324000Y-64753500D01*
X155322856Y-64776779D01*
X155319437Y-64799834D01*
X155313773Y-64822443D01*
X155305921Y-64844387D01*
X155295956Y-64865457D01*
X155283974Y-64885448D01*
X155270090Y-64904168D01*
X155254438Y-64921438D01*
X155237168Y-64937090D01*
X155218448Y-64950974D01*
X155198457Y-64962956D01*
X155177387Y-64972921D01*
X155155443Y-64980773D01*
X155132834Y-64986437D01*
X155109779Y-64989856D01*
X155086500Y-64991000D01*
X154511500Y-64991000D01*
X154488221Y-64989856D01*
X154465166Y-64986437D01*
X154442557Y-64980773D01*
X154420613Y-64972921D01*
X154399543Y-64962956D01*
X154379552Y-64950974D01*
X154360832Y-64937090D01*
X154343562Y-64921438D01*
X154327910Y-64904168D01*
X154314026Y-64885448D01*
X154302044Y-64865457D01*
X154292079Y-64844387D01*
X154284227Y-64822443D01*
X154278563Y-64799834D01*
X154275144Y-64776779D01*
X154274000Y-64753500D01*
X154274000Y-64278500D01*
X154275144Y-64255221D01*
X154278563Y-64232166D01*
X154284227Y-64209557D01*
X154292079Y-64187613D01*
X154302044Y-64166543D01*
X154314026Y-64146552D01*
X154327910Y-64127832D01*
X154343562Y-64110562D01*
X154360832Y-64094910D01*
X154379552Y-64081026D01*
X154399543Y-64069044D01*
X154420613Y-64059079D01*
X154442557Y-64051227D01*
X154465166Y-64045563D01*
X154488221Y-64042144D01*
X154511500Y-64041000D01*
X155086500Y-64041000D01*
X155109779Y-64042144D01*
G37*
G04 #@! TD.AperFunction*
G04 #@! TA.AperFunction,SMDPad,CuDef*
G36*
X132531779Y-64042144D02*
G01*
X132554834Y-64045563D01*
X132577443Y-64051227D01*
X132599387Y-64059079D01*
X132620457Y-64069044D01*
X132640448Y-64081026D01*
X132659168Y-64094910D01*
X132676438Y-64110562D01*
X132692090Y-64127832D01*
X132705974Y-64146552D01*
X132717956Y-64166543D01*
X132727921Y-64187613D01*
X132735773Y-64209557D01*
X132741437Y-64232166D01*
X132744856Y-64255221D01*
X132746000Y-64278500D01*
X132746000Y-64753500D01*
X132744856Y-64776779D01*
X132741437Y-64799834D01*
X132735773Y-64822443D01*
X132727921Y-64844387D01*
X132717956Y-64865457D01*
X132705974Y-64885448D01*
X132692090Y-64904168D01*
X132676438Y-64921438D01*
X132659168Y-64937090D01*
X132640448Y-64950974D01*
X132620457Y-64962956D01*
X132599387Y-64972921D01*
X132577443Y-64980773D01*
X132554834Y-64986437D01*
X132531779Y-64989856D01*
X132508500Y-64991000D01*
X131933500Y-64991000D01*
X131910221Y-64989856D01*
X131887166Y-64986437D01*
X131864557Y-64980773D01*
X131842613Y-64972921D01*
X131821543Y-64962956D01*
X131801552Y-64950974D01*
X131782832Y-64937090D01*
X131765562Y-64921438D01*
X131749910Y-64904168D01*
X131736026Y-64885448D01*
X131724044Y-64865457D01*
X131714079Y-64844387D01*
X131706227Y-64822443D01*
X131700563Y-64799834D01*
X131697144Y-64776779D01*
X131696000Y-64753500D01*
X131696000Y-64278500D01*
X131697144Y-64255221D01*
X131700563Y-64232166D01*
X131706227Y-64209557D01*
X131714079Y-64187613D01*
X131724044Y-64166543D01*
X131736026Y-64146552D01*
X131749910Y-64127832D01*
X131765562Y-64110562D01*
X131782832Y-64094910D01*
X131801552Y-64081026D01*
X131821543Y-64069044D01*
X131842613Y-64059079D01*
X131864557Y-64051227D01*
X131887166Y-64045563D01*
X131910221Y-64042144D01*
X131933500Y-64041000D01*
X132508500Y-64041000D01*
X132531779Y-64042144D01*
G37*
G04 #@! TD.AperFunction*
G04 #@! TA.AperFunction,SMDPad,CuDef*
G36*
X134281779Y-64042144D02*
G01*
X134304834Y-64045563D01*
X134327443Y-64051227D01*
X134349387Y-64059079D01*
X134370457Y-64069044D01*
X134390448Y-64081026D01*
X134409168Y-64094910D01*
X134426438Y-64110562D01*
X134442090Y-64127832D01*
X134455974Y-64146552D01*
X134467956Y-64166543D01*
X134477921Y-64187613D01*
X134485773Y-64209557D01*
X134491437Y-64232166D01*
X134494856Y-64255221D01*
X134496000Y-64278500D01*
X134496000Y-64753500D01*
X134494856Y-64776779D01*
X134491437Y-64799834D01*
X134485773Y-64822443D01*
X134477921Y-64844387D01*
X134467956Y-64865457D01*
X134455974Y-64885448D01*
X134442090Y-64904168D01*
X134426438Y-64921438D01*
X134409168Y-64937090D01*
X134390448Y-64950974D01*
X134370457Y-64962956D01*
X134349387Y-64972921D01*
X134327443Y-64980773D01*
X134304834Y-64986437D01*
X134281779Y-64989856D01*
X134258500Y-64991000D01*
X133683500Y-64991000D01*
X133660221Y-64989856D01*
X133637166Y-64986437D01*
X133614557Y-64980773D01*
X133592613Y-64972921D01*
X133571543Y-64962956D01*
X133551552Y-64950974D01*
X133532832Y-64937090D01*
X133515562Y-64921438D01*
X133499910Y-64904168D01*
X133486026Y-64885448D01*
X133474044Y-64865457D01*
X133464079Y-64844387D01*
X133456227Y-64822443D01*
X133450563Y-64799834D01*
X133447144Y-64776779D01*
X133446000Y-64753500D01*
X133446000Y-64278500D01*
X133447144Y-64255221D01*
X133450563Y-64232166D01*
X133456227Y-64209557D01*
X133464079Y-64187613D01*
X133474044Y-64166543D01*
X133486026Y-64146552D01*
X133499910Y-64127832D01*
X133515562Y-64110562D01*
X133532832Y-64094910D01*
X133551552Y-64081026D01*
X133571543Y-64069044D01*
X133592613Y-64059079D01*
X133614557Y-64051227D01*
X133637166Y-64045563D01*
X133660221Y-64042144D01*
X133683500Y-64041000D01*
X134258500Y-64041000D01*
X134281779Y-64042144D01*
G37*
G04 #@! TD.AperFunction*
G04 #@! TA.AperFunction,SMDPad,CuDef*
G36*
X165523779Y-69630144D02*
G01*
X165546834Y-69633563D01*
X165569443Y-69639227D01*
X165591387Y-69647079D01*
X165612457Y-69657044D01*
X165632448Y-69669026D01*
X165651168Y-69682910D01*
X165668438Y-69698562D01*
X165684090Y-69715832D01*
X165697974Y-69734552D01*
X165709956Y-69754543D01*
X165719921Y-69775613D01*
X165727773Y-69797557D01*
X165733437Y-69820166D01*
X165736856Y-69843221D01*
X165738000Y-69866500D01*
X165738000Y-70341500D01*
X165736856Y-70364779D01*
X165733437Y-70387834D01*
X165727773Y-70410443D01*
X165719921Y-70432387D01*
X165709956Y-70453457D01*
X165697974Y-70473448D01*
X165684090Y-70492168D01*
X165668438Y-70509438D01*
X165651168Y-70525090D01*
X165632448Y-70538974D01*
X165612457Y-70550956D01*
X165591387Y-70560921D01*
X165569443Y-70568773D01*
X165546834Y-70574437D01*
X165523779Y-70577856D01*
X165500500Y-70579000D01*
X164925500Y-70579000D01*
X164902221Y-70577856D01*
X164879166Y-70574437D01*
X164856557Y-70568773D01*
X164834613Y-70560921D01*
X164813543Y-70550956D01*
X164793552Y-70538974D01*
X164774832Y-70525090D01*
X164757562Y-70509438D01*
X164741910Y-70492168D01*
X164728026Y-70473448D01*
X164716044Y-70453457D01*
X164706079Y-70432387D01*
X164698227Y-70410443D01*
X164692563Y-70387834D01*
X164689144Y-70364779D01*
X164688000Y-70341500D01*
X164688000Y-69866500D01*
X164689144Y-69843221D01*
X164692563Y-69820166D01*
X164698227Y-69797557D01*
X164706079Y-69775613D01*
X164716044Y-69754543D01*
X164728026Y-69734552D01*
X164741910Y-69715832D01*
X164757562Y-69698562D01*
X164774832Y-69682910D01*
X164793552Y-69669026D01*
X164813543Y-69657044D01*
X164834613Y-69647079D01*
X164856557Y-69639227D01*
X164879166Y-69633563D01*
X164902221Y-69630144D01*
X164925500Y-69629000D01*
X165500500Y-69629000D01*
X165523779Y-69630144D01*
G37*
G04 #@! TD.AperFunction*
G04 #@! TA.AperFunction,SMDPad,CuDef*
G36*
X163773779Y-69630144D02*
G01*
X163796834Y-69633563D01*
X163819443Y-69639227D01*
X163841387Y-69647079D01*
X163862457Y-69657044D01*
X163882448Y-69669026D01*
X163901168Y-69682910D01*
X163918438Y-69698562D01*
X163934090Y-69715832D01*
X163947974Y-69734552D01*
X163959956Y-69754543D01*
X163969921Y-69775613D01*
X163977773Y-69797557D01*
X163983437Y-69820166D01*
X163986856Y-69843221D01*
X163988000Y-69866500D01*
X163988000Y-70341500D01*
X163986856Y-70364779D01*
X163983437Y-70387834D01*
X163977773Y-70410443D01*
X163969921Y-70432387D01*
X163959956Y-70453457D01*
X163947974Y-70473448D01*
X163934090Y-70492168D01*
X163918438Y-70509438D01*
X163901168Y-70525090D01*
X163882448Y-70538974D01*
X163862457Y-70550956D01*
X163841387Y-70560921D01*
X163819443Y-70568773D01*
X163796834Y-70574437D01*
X163773779Y-70577856D01*
X163750500Y-70579000D01*
X163175500Y-70579000D01*
X163152221Y-70577856D01*
X163129166Y-70574437D01*
X163106557Y-70568773D01*
X163084613Y-70560921D01*
X163063543Y-70550956D01*
X163043552Y-70538974D01*
X163024832Y-70525090D01*
X163007562Y-70509438D01*
X162991910Y-70492168D01*
X162978026Y-70473448D01*
X162966044Y-70453457D01*
X162956079Y-70432387D01*
X162948227Y-70410443D01*
X162942563Y-70387834D01*
X162939144Y-70364779D01*
X162938000Y-70341500D01*
X162938000Y-69866500D01*
X162939144Y-69843221D01*
X162942563Y-69820166D01*
X162948227Y-69797557D01*
X162956079Y-69775613D01*
X162966044Y-69754543D01*
X162978026Y-69734552D01*
X162991910Y-69715832D01*
X163007562Y-69698562D01*
X163024832Y-69682910D01*
X163043552Y-69669026D01*
X163063543Y-69657044D01*
X163084613Y-69647079D01*
X163106557Y-69639227D01*
X163129166Y-69633563D01*
X163152221Y-69630144D01*
X163175500Y-69629000D01*
X163750500Y-69629000D01*
X163773779Y-69630144D01*
G37*
G04 #@! TD.AperFunction*
G04 #@! TA.AperFunction,SMDPad,CuDef*
G36*
X160316779Y-69630144D02*
G01*
X160339834Y-69633563D01*
X160362443Y-69639227D01*
X160384387Y-69647079D01*
X160405457Y-69657044D01*
X160425448Y-69669026D01*
X160444168Y-69682910D01*
X160461438Y-69698562D01*
X160477090Y-69715832D01*
X160490974Y-69734552D01*
X160502956Y-69754543D01*
X160512921Y-69775613D01*
X160520773Y-69797557D01*
X160526437Y-69820166D01*
X160529856Y-69843221D01*
X160531000Y-69866500D01*
X160531000Y-70341500D01*
X160529856Y-70364779D01*
X160526437Y-70387834D01*
X160520773Y-70410443D01*
X160512921Y-70432387D01*
X160502956Y-70453457D01*
X160490974Y-70473448D01*
X160477090Y-70492168D01*
X160461438Y-70509438D01*
X160444168Y-70525090D01*
X160425448Y-70538974D01*
X160405457Y-70550956D01*
X160384387Y-70560921D01*
X160362443Y-70568773D01*
X160339834Y-70574437D01*
X160316779Y-70577856D01*
X160293500Y-70579000D01*
X159718500Y-70579000D01*
X159695221Y-70577856D01*
X159672166Y-70574437D01*
X159649557Y-70568773D01*
X159627613Y-70560921D01*
X159606543Y-70550956D01*
X159586552Y-70538974D01*
X159567832Y-70525090D01*
X159550562Y-70509438D01*
X159534910Y-70492168D01*
X159521026Y-70473448D01*
X159509044Y-70453457D01*
X159499079Y-70432387D01*
X159491227Y-70410443D01*
X159485563Y-70387834D01*
X159482144Y-70364779D01*
X159481000Y-70341500D01*
X159481000Y-69866500D01*
X159482144Y-69843221D01*
X159485563Y-69820166D01*
X159491227Y-69797557D01*
X159499079Y-69775613D01*
X159509044Y-69754543D01*
X159521026Y-69734552D01*
X159534910Y-69715832D01*
X159550562Y-69698562D01*
X159567832Y-69682910D01*
X159586552Y-69669026D01*
X159606543Y-69657044D01*
X159627613Y-69647079D01*
X159649557Y-69639227D01*
X159672166Y-69633563D01*
X159695221Y-69630144D01*
X159718500Y-69629000D01*
X160293500Y-69629000D01*
X160316779Y-69630144D01*
G37*
G04 #@! TD.AperFunction*
G04 #@! TA.AperFunction,SMDPad,CuDef*
G36*
X158566779Y-69630144D02*
G01*
X158589834Y-69633563D01*
X158612443Y-69639227D01*
X158634387Y-69647079D01*
X158655457Y-69657044D01*
X158675448Y-69669026D01*
X158694168Y-69682910D01*
X158711438Y-69698562D01*
X158727090Y-69715832D01*
X158740974Y-69734552D01*
X158752956Y-69754543D01*
X158762921Y-69775613D01*
X158770773Y-69797557D01*
X158776437Y-69820166D01*
X158779856Y-69843221D01*
X158781000Y-69866500D01*
X158781000Y-70341500D01*
X158779856Y-70364779D01*
X158776437Y-70387834D01*
X158770773Y-70410443D01*
X158762921Y-70432387D01*
X158752956Y-70453457D01*
X158740974Y-70473448D01*
X158727090Y-70492168D01*
X158711438Y-70509438D01*
X158694168Y-70525090D01*
X158675448Y-70538974D01*
X158655457Y-70550956D01*
X158634387Y-70560921D01*
X158612443Y-70568773D01*
X158589834Y-70574437D01*
X158566779Y-70577856D01*
X158543500Y-70579000D01*
X157968500Y-70579000D01*
X157945221Y-70577856D01*
X157922166Y-70574437D01*
X157899557Y-70568773D01*
X157877613Y-70560921D01*
X157856543Y-70550956D01*
X157836552Y-70538974D01*
X157817832Y-70525090D01*
X157800562Y-70509438D01*
X157784910Y-70492168D01*
X157771026Y-70473448D01*
X157759044Y-70453457D01*
X157749079Y-70432387D01*
X157741227Y-70410443D01*
X157735563Y-70387834D01*
X157732144Y-70364779D01*
X157731000Y-70341500D01*
X157731000Y-69866500D01*
X157732144Y-69843221D01*
X157735563Y-69820166D01*
X157741227Y-69797557D01*
X157749079Y-69775613D01*
X157759044Y-69754543D01*
X157771026Y-69734552D01*
X157784910Y-69715832D01*
X157800562Y-69698562D01*
X157817832Y-69682910D01*
X157836552Y-69669026D01*
X157856543Y-69657044D01*
X157877613Y-69647079D01*
X157899557Y-69639227D01*
X157922166Y-69633563D01*
X157945221Y-69630144D01*
X157968500Y-69629000D01*
X158543500Y-69629000D01*
X158566779Y-69630144D01*
G37*
G04 #@! TD.AperFunction*
G04 #@! TA.AperFunction,SMDPad,CuDef*
G36*
X153359779Y-69630144D02*
G01*
X153382834Y-69633563D01*
X153405443Y-69639227D01*
X153427387Y-69647079D01*
X153448457Y-69657044D01*
X153468448Y-69669026D01*
X153487168Y-69682910D01*
X153504438Y-69698562D01*
X153520090Y-69715832D01*
X153533974Y-69734552D01*
X153545956Y-69754543D01*
X153555921Y-69775613D01*
X153563773Y-69797557D01*
X153569437Y-69820166D01*
X153572856Y-69843221D01*
X153574000Y-69866500D01*
X153574000Y-70341500D01*
X153572856Y-70364779D01*
X153569437Y-70387834D01*
X153563773Y-70410443D01*
X153555921Y-70432387D01*
X153545956Y-70453457D01*
X153533974Y-70473448D01*
X153520090Y-70492168D01*
X153504438Y-70509438D01*
X153487168Y-70525090D01*
X153468448Y-70538974D01*
X153448457Y-70550956D01*
X153427387Y-70560921D01*
X153405443Y-70568773D01*
X153382834Y-70574437D01*
X153359779Y-70577856D01*
X153336500Y-70579000D01*
X152761500Y-70579000D01*
X152738221Y-70577856D01*
X152715166Y-70574437D01*
X152692557Y-70568773D01*
X152670613Y-70560921D01*
X152649543Y-70550956D01*
X152629552Y-70538974D01*
X152610832Y-70525090D01*
X152593562Y-70509438D01*
X152577910Y-70492168D01*
X152564026Y-70473448D01*
X152552044Y-70453457D01*
X152542079Y-70432387D01*
X152534227Y-70410443D01*
X152528563Y-70387834D01*
X152525144Y-70364779D01*
X152524000Y-70341500D01*
X152524000Y-69866500D01*
X152525144Y-69843221D01*
X152528563Y-69820166D01*
X152534227Y-69797557D01*
X152542079Y-69775613D01*
X152552044Y-69754543D01*
X152564026Y-69734552D01*
X152577910Y-69715832D01*
X152593562Y-69698562D01*
X152610832Y-69682910D01*
X152629552Y-69669026D01*
X152649543Y-69657044D01*
X152670613Y-69647079D01*
X152692557Y-69639227D01*
X152715166Y-69633563D01*
X152738221Y-69630144D01*
X152761500Y-69629000D01*
X153336500Y-69629000D01*
X153359779Y-69630144D01*
G37*
G04 #@! TD.AperFunction*
G04 #@! TA.AperFunction,SMDPad,CuDef*
G36*
X155109779Y-69630144D02*
G01*
X155132834Y-69633563D01*
X155155443Y-69639227D01*
X155177387Y-69647079D01*
X155198457Y-69657044D01*
X155218448Y-69669026D01*
X155237168Y-69682910D01*
X155254438Y-69698562D01*
X155270090Y-69715832D01*
X155283974Y-69734552D01*
X155295956Y-69754543D01*
X155305921Y-69775613D01*
X155313773Y-69797557D01*
X155319437Y-69820166D01*
X155322856Y-69843221D01*
X155324000Y-69866500D01*
X155324000Y-70341500D01*
X155322856Y-70364779D01*
X155319437Y-70387834D01*
X155313773Y-70410443D01*
X155305921Y-70432387D01*
X155295956Y-70453457D01*
X155283974Y-70473448D01*
X155270090Y-70492168D01*
X155254438Y-70509438D01*
X155237168Y-70525090D01*
X155218448Y-70538974D01*
X155198457Y-70550956D01*
X155177387Y-70560921D01*
X155155443Y-70568773D01*
X155132834Y-70574437D01*
X155109779Y-70577856D01*
X155086500Y-70579000D01*
X154511500Y-70579000D01*
X154488221Y-70577856D01*
X154465166Y-70574437D01*
X154442557Y-70568773D01*
X154420613Y-70560921D01*
X154399543Y-70550956D01*
X154379552Y-70538974D01*
X154360832Y-70525090D01*
X154343562Y-70509438D01*
X154327910Y-70492168D01*
X154314026Y-70473448D01*
X154302044Y-70453457D01*
X154292079Y-70432387D01*
X154284227Y-70410443D01*
X154278563Y-70387834D01*
X154275144Y-70364779D01*
X154274000Y-70341500D01*
X154274000Y-69866500D01*
X154275144Y-69843221D01*
X154278563Y-69820166D01*
X154284227Y-69797557D01*
X154292079Y-69775613D01*
X154302044Y-69754543D01*
X154314026Y-69734552D01*
X154327910Y-69715832D01*
X154343562Y-69698562D01*
X154360832Y-69682910D01*
X154379552Y-69669026D01*
X154399543Y-69657044D01*
X154420613Y-69647079D01*
X154442557Y-69639227D01*
X154465166Y-69633563D01*
X154488221Y-69630144D01*
X154511500Y-69629000D01*
X155086500Y-69629000D01*
X155109779Y-69630144D01*
G37*
G04 #@! TD.AperFunction*
G04 #@! TA.AperFunction,SMDPad,CuDef*
G36*
X132531779Y-69630144D02*
G01*
X132554834Y-69633563D01*
X132577443Y-69639227D01*
X132599387Y-69647079D01*
X132620457Y-69657044D01*
X132640448Y-69669026D01*
X132659168Y-69682910D01*
X132676438Y-69698562D01*
X132692090Y-69715832D01*
X132705974Y-69734552D01*
X132717956Y-69754543D01*
X132727921Y-69775613D01*
X132735773Y-69797557D01*
X132741437Y-69820166D01*
X132744856Y-69843221D01*
X132746000Y-69866500D01*
X132746000Y-70341500D01*
X132744856Y-70364779D01*
X132741437Y-70387834D01*
X132735773Y-70410443D01*
X132727921Y-70432387D01*
X132717956Y-70453457D01*
X132705974Y-70473448D01*
X132692090Y-70492168D01*
X132676438Y-70509438D01*
X132659168Y-70525090D01*
X132640448Y-70538974D01*
X132620457Y-70550956D01*
X132599387Y-70560921D01*
X132577443Y-70568773D01*
X132554834Y-70574437D01*
X132531779Y-70577856D01*
X132508500Y-70579000D01*
X131933500Y-70579000D01*
X131910221Y-70577856D01*
X131887166Y-70574437D01*
X131864557Y-70568773D01*
X131842613Y-70560921D01*
X131821543Y-70550956D01*
X131801552Y-70538974D01*
X131782832Y-70525090D01*
X131765562Y-70509438D01*
X131749910Y-70492168D01*
X131736026Y-70473448D01*
X131724044Y-70453457D01*
X131714079Y-70432387D01*
X131706227Y-70410443D01*
X131700563Y-70387834D01*
X131697144Y-70364779D01*
X131696000Y-70341500D01*
X131696000Y-69866500D01*
X131697144Y-69843221D01*
X131700563Y-69820166D01*
X131706227Y-69797557D01*
X131714079Y-69775613D01*
X131724044Y-69754543D01*
X131736026Y-69734552D01*
X131749910Y-69715832D01*
X131765562Y-69698562D01*
X131782832Y-69682910D01*
X131801552Y-69669026D01*
X131821543Y-69657044D01*
X131842613Y-69647079D01*
X131864557Y-69639227D01*
X131887166Y-69633563D01*
X131910221Y-69630144D01*
X131933500Y-69629000D01*
X132508500Y-69629000D01*
X132531779Y-69630144D01*
G37*
G04 #@! TD.AperFunction*
G04 #@! TA.AperFunction,SMDPad,CuDef*
G36*
X134281779Y-69630144D02*
G01*
X134304834Y-69633563D01*
X134327443Y-69639227D01*
X134349387Y-69647079D01*
X134370457Y-69657044D01*
X134390448Y-69669026D01*
X134409168Y-69682910D01*
X134426438Y-69698562D01*
X134442090Y-69715832D01*
X134455974Y-69734552D01*
X134467956Y-69754543D01*
X134477921Y-69775613D01*
X134485773Y-69797557D01*
X134491437Y-69820166D01*
X134494856Y-69843221D01*
X134496000Y-69866500D01*
X134496000Y-70341500D01*
X134494856Y-70364779D01*
X134491437Y-70387834D01*
X134485773Y-70410443D01*
X134477921Y-70432387D01*
X134467956Y-70453457D01*
X134455974Y-70473448D01*
X134442090Y-70492168D01*
X134426438Y-70509438D01*
X134409168Y-70525090D01*
X134390448Y-70538974D01*
X134370457Y-70550956D01*
X134349387Y-70560921D01*
X134327443Y-70568773D01*
X134304834Y-70574437D01*
X134281779Y-70577856D01*
X134258500Y-70579000D01*
X133683500Y-70579000D01*
X133660221Y-70577856D01*
X133637166Y-70574437D01*
X133614557Y-70568773D01*
X133592613Y-70560921D01*
X133571543Y-70550956D01*
X133551552Y-70538974D01*
X133532832Y-70525090D01*
X133515562Y-70509438D01*
X133499910Y-70492168D01*
X133486026Y-70473448D01*
X133474044Y-70453457D01*
X133464079Y-70432387D01*
X133456227Y-70410443D01*
X133450563Y-70387834D01*
X133447144Y-70364779D01*
X133446000Y-70341500D01*
X133446000Y-69866500D01*
X133447144Y-69843221D01*
X133450563Y-69820166D01*
X133456227Y-69797557D01*
X133464079Y-69775613D01*
X133474044Y-69754543D01*
X133486026Y-69734552D01*
X133499910Y-69715832D01*
X133515562Y-69698562D01*
X133532832Y-69682910D01*
X133551552Y-69669026D01*
X133571543Y-69657044D01*
X133592613Y-69647079D01*
X133614557Y-69639227D01*
X133637166Y-69633563D01*
X133660221Y-69630144D01*
X133683500Y-69629000D01*
X134258500Y-69629000D01*
X134281779Y-69630144D01*
G37*
G04 #@! TD.AperFunction*
G04 #@! TA.AperFunction,SMDPad,CuDef*
G36*
X129074779Y-64042144D02*
G01*
X129097834Y-64045563D01*
X129120443Y-64051227D01*
X129142387Y-64059079D01*
X129163457Y-64069044D01*
X129183448Y-64081026D01*
X129202168Y-64094910D01*
X129219438Y-64110562D01*
X129235090Y-64127832D01*
X129248974Y-64146552D01*
X129260956Y-64166543D01*
X129270921Y-64187613D01*
X129278773Y-64209557D01*
X129284437Y-64232166D01*
X129287856Y-64255221D01*
X129289000Y-64278500D01*
X129289000Y-64753500D01*
X129287856Y-64776779D01*
X129284437Y-64799834D01*
X129278773Y-64822443D01*
X129270921Y-64844387D01*
X129260956Y-64865457D01*
X129248974Y-64885448D01*
X129235090Y-64904168D01*
X129219438Y-64921438D01*
X129202168Y-64937090D01*
X129183448Y-64950974D01*
X129163457Y-64962956D01*
X129142387Y-64972921D01*
X129120443Y-64980773D01*
X129097834Y-64986437D01*
X129074779Y-64989856D01*
X129051500Y-64991000D01*
X128476500Y-64991000D01*
X128453221Y-64989856D01*
X128430166Y-64986437D01*
X128407557Y-64980773D01*
X128385613Y-64972921D01*
X128364543Y-64962956D01*
X128344552Y-64950974D01*
X128325832Y-64937090D01*
X128308562Y-64921438D01*
X128292910Y-64904168D01*
X128279026Y-64885448D01*
X128267044Y-64865457D01*
X128257079Y-64844387D01*
X128249227Y-64822443D01*
X128243563Y-64799834D01*
X128240144Y-64776779D01*
X128239000Y-64753500D01*
X128239000Y-64278500D01*
X128240144Y-64255221D01*
X128243563Y-64232166D01*
X128249227Y-64209557D01*
X128257079Y-64187613D01*
X128267044Y-64166543D01*
X128279026Y-64146552D01*
X128292910Y-64127832D01*
X128308562Y-64110562D01*
X128325832Y-64094910D01*
X128344552Y-64081026D01*
X128364543Y-64069044D01*
X128385613Y-64059079D01*
X128407557Y-64051227D01*
X128430166Y-64045563D01*
X128453221Y-64042144D01*
X128476500Y-64041000D01*
X129051500Y-64041000D01*
X129074779Y-64042144D01*
G37*
G04 #@! TD.AperFunction*
G04 #@! TA.AperFunction,SMDPad,CuDef*
G36*
X127324779Y-64042144D02*
G01*
X127347834Y-64045563D01*
X127370443Y-64051227D01*
X127392387Y-64059079D01*
X127413457Y-64069044D01*
X127433448Y-64081026D01*
X127452168Y-64094910D01*
X127469438Y-64110562D01*
X127485090Y-64127832D01*
X127498974Y-64146552D01*
X127510956Y-64166543D01*
X127520921Y-64187613D01*
X127528773Y-64209557D01*
X127534437Y-64232166D01*
X127537856Y-64255221D01*
X127539000Y-64278500D01*
X127539000Y-64753500D01*
X127537856Y-64776779D01*
X127534437Y-64799834D01*
X127528773Y-64822443D01*
X127520921Y-64844387D01*
X127510956Y-64865457D01*
X127498974Y-64885448D01*
X127485090Y-64904168D01*
X127469438Y-64921438D01*
X127452168Y-64937090D01*
X127433448Y-64950974D01*
X127413457Y-64962956D01*
X127392387Y-64972921D01*
X127370443Y-64980773D01*
X127347834Y-64986437D01*
X127324779Y-64989856D01*
X127301500Y-64991000D01*
X126726500Y-64991000D01*
X126703221Y-64989856D01*
X126680166Y-64986437D01*
X126657557Y-64980773D01*
X126635613Y-64972921D01*
X126614543Y-64962956D01*
X126594552Y-64950974D01*
X126575832Y-64937090D01*
X126558562Y-64921438D01*
X126542910Y-64904168D01*
X126529026Y-64885448D01*
X126517044Y-64865457D01*
X126507079Y-64844387D01*
X126499227Y-64822443D01*
X126493563Y-64799834D01*
X126490144Y-64776779D01*
X126489000Y-64753500D01*
X126489000Y-64278500D01*
X126490144Y-64255221D01*
X126493563Y-64232166D01*
X126499227Y-64209557D01*
X126507079Y-64187613D01*
X126517044Y-64166543D01*
X126529026Y-64146552D01*
X126542910Y-64127832D01*
X126558562Y-64110562D01*
X126575832Y-64094910D01*
X126594552Y-64081026D01*
X126614543Y-64069044D01*
X126635613Y-64059079D01*
X126657557Y-64051227D01*
X126680166Y-64045563D01*
X126703221Y-64042144D01*
X126726500Y-64041000D01*
X127301500Y-64041000D01*
X127324779Y-64042144D01*
G37*
G04 #@! TD.AperFunction*
G04 #@! TA.AperFunction,SMDPad,CuDef*
G36*
X137738779Y-64042144D02*
G01*
X137761834Y-64045563D01*
X137784443Y-64051227D01*
X137806387Y-64059079D01*
X137827457Y-64069044D01*
X137847448Y-64081026D01*
X137866168Y-64094910D01*
X137883438Y-64110562D01*
X137899090Y-64127832D01*
X137912974Y-64146552D01*
X137924956Y-64166543D01*
X137934921Y-64187613D01*
X137942773Y-64209557D01*
X137948437Y-64232166D01*
X137951856Y-64255221D01*
X137953000Y-64278500D01*
X137953000Y-64753500D01*
X137951856Y-64776779D01*
X137948437Y-64799834D01*
X137942773Y-64822443D01*
X137934921Y-64844387D01*
X137924956Y-64865457D01*
X137912974Y-64885448D01*
X137899090Y-64904168D01*
X137883438Y-64921438D01*
X137866168Y-64937090D01*
X137847448Y-64950974D01*
X137827457Y-64962956D01*
X137806387Y-64972921D01*
X137784443Y-64980773D01*
X137761834Y-64986437D01*
X137738779Y-64989856D01*
X137715500Y-64991000D01*
X137140500Y-64991000D01*
X137117221Y-64989856D01*
X137094166Y-64986437D01*
X137071557Y-64980773D01*
X137049613Y-64972921D01*
X137028543Y-64962956D01*
X137008552Y-64950974D01*
X136989832Y-64937090D01*
X136972562Y-64921438D01*
X136956910Y-64904168D01*
X136943026Y-64885448D01*
X136931044Y-64865457D01*
X136921079Y-64844387D01*
X136913227Y-64822443D01*
X136907563Y-64799834D01*
X136904144Y-64776779D01*
X136903000Y-64753500D01*
X136903000Y-64278500D01*
X136904144Y-64255221D01*
X136907563Y-64232166D01*
X136913227Y-64209557D01*
X136921079Y-64187613D01*
X136931044Y-64166543D01*
X136943026Y-64146552D01*
X136956910Y-64127832D01*
X136972562Y-64110562D01*
X136989832Y-64094910D01*
X137008552Y-64081026D01*
X137028543Y-64069044D01*
X137049613Y-64059079D01*
X137071557Y-64051227D01*
X137094166Y-64045563D01*
X137117221Y-64042144D01*
X137140500Y-64041000D01*
X137715500Y-64041000D01*
X137738779Y-64042144D01*
G37*
G04 #@! TD.AperFunction*
G04 #@! TA.AperFunction,SMDPad,CuDef*
G36*
X139488779Y-64042144D02*
G01*
X139511834Y-64045563D01*
X139534443Y-64051227D01*
X139556387Y-64059079D01*
X139577457Y-64069044D01*
X139597448Y-64081026D01*
X139616168Y-64094910D01*
X139633438Y-64110562D01*
X139649090Y-64127832D01*
X139662974Y-64146552D01*
X139674956Y-64166543D01*
X139684921Y-64187613D01*
X139692773Y-64209557D01*
X139698437Y-64232166D01*
X139701856Y-64255221D01*
X139703000Y-64278500D01*
X139703000Y-64753500D01*
X139701856Y-64776779D01*
X139698437Y-64799834D01*
X139692773Y-64822443D01*
X139684921Y-64844387D01*
X139674956Y-64865457D01*
X139662974Y-64885448D01*
X139649090Y-64904168D01*
X139633438Y-64921438D01*
X139616168Y-64937090D01*
X139597448Y-64950974D01*
X139577457Y-64962956D01*
X139556387Y-64972921D01*
X139534443Y-64980773D01*
X139511834Y-64986437D01*
X139488779Y-64989856D01*
X139465500Y-64991000D01*
X138890500Y-64991000D01*
X138867221Y-64989856D01*
X138844166Y-64986437D01*
X138821557Y-64980773D01*
X138799613Y-64972921D01*
X138778543Y-64962956D01*
X138758552Y-64950974D01*
X138739832Y-64937090D01*
X138722562Y-64921438D01*
X138706910Y-64904168D01*
X138693026Y-64885448D01*
X138681044Y-64865457D01*
X138671079Y-64844387D01*
X138663227Y-64822443D01*
X138657563Y-64799834D01*
X138654144Y-64776779D01*
X138653000Y-64753500D01*
X138653000Y-64278500D01*
X138654144Y-64255221D01*
X138657563Y-64232166D01*
X138663227Y-64209557D01*
X138671079Y-64187613D01*
X138681044Y-64166543D01*
X138693026Y-64146552D01*
X138706910Y-64127832D01*
X138722562Y-64110562D01*
X138739832Y-64094910D01*
X138758552Y-64081026D01*
X138778543Y-64069044D01*
X138799613Y-64059079D01*
X138821557Y-64051227D01*
X138844166Y-64045563D01*
X138867221Y-64042144D01*
X138890500Y-64041000D01*
X139465500Y-64041000D01*
X139488779Y-64042144D01*
G37*
G04 #@! TD.AperFunction*
G04 #@! TA.AperFunction,SMDPad,CuDef*
G36*
X148152779Y-64042144D02*
G01*
X148175834Y-64045563D01*
X148198443Y-64051227D01*
X148220387Y-64059079D01*
X148241457Y-64069044D01*
X148261448Y-64081026D01*
X148280168Y-64094910D01*
X148297438Y-64110562D01*
X148313090Y-64127832D01*
X148326974Y-64146552D01*
X148338956Y-64166543D01*
X148348921Y-64187613D01*
X148356773Y-64209557D01*
X148362437Y-64232166D01*
X148365856Y-64255221D01*
X148367000Y-64278500D01*
X148367000Y-64753500D01*
X148365856Y-64776779D01*
X148362437Y-64799834D01*
X148356773Y-64822443D01*
X148348921Y-64844387D01*
X148338956Y-64865457D01*
X148326974Y-64885448D01*
X148313090Y-64904168D01*
X148297438Y-64921438D01*
X148280168Y-64937090D01*
X148261448Y-64950974D01*
X148241457Y-64962956D01*
X148220387Y-64972921D01*
X148198443Y-64980773D01*
X148175834Y-64986437D01*
X148152779Y-64989856D01*
X148129500Y-64991000D01*
X147554500Y-64991000D01*
X147531221Y-64989856D01*
X147508166Y-64986437D01*
X147485557Y-64980773D01*
X147463613Y-64972921D01*
X147442543Y-64962956D01*
X147422552Y-64950974D01*
X147403832Y-64937090D01*
X147386562Y-64921438D01*
X147370910Y-64904168D01*
X147357026Y-64885448D01*
X147345044Y-64865457D01*
X147335079Y-64844387D01*
X147327227Y-64822443D01*
X147321563Y-64799834D01*
X147318144Y-64776779D01*
X147317000Y-64753500D01*
X147317000Y-64278500D01*
X147318144Y-64255221D01*
X147321563Y-64232166D01*
X147327227Y-64209557D01*
X147335079Y-64187613D01*
X147345044Y-64166543D01*
X147357026Y-64146552D01*
X147370910Y-64127832D01*
X147386562Y-64110562D01*
X147403832Y-64094910D01*
X147422552Y-64081026D01*
X147442543Y-64069044D01*
X147463613Y-64059079D01*
X147485557Y-64051227D01*
X147508166Y-64045563D01*
X147531221Y-64042144D01*
X147554500Y-64041000D01*
X148129500Y-64041000D01*
X148152779Y-64042144D01*
G37*
G04 #@! TD.AperFunction*
G04 #@! TA.AperFunction,SMDPad,CuDef*
G36*
X149902779Y-64042144D02*
G01*
X149925834Y-64045563D01*
X149948443Y-64051227D01*
X149970387Y-64059079D01*
X149991457Y-64069044D01*
X150011448Y-64081026D01*
X150030168Y-64094910D01*
X150047438Y-64110562D01*
X150063090Y-64127832D01*
X150076974Y-64146552D01*
X150088956Y-64166543D01*
X150098921Y-64187613D01*
X150106773Y-64209557D01*
X150112437Y-64232166D01*
X150115856Y-64255221D01*
X150117000Y-64278500D01*
X150117000Y-64753500D01*
X150115856Y-64776779D01*
X150112437Y-64799834D01*
X150106773Y-64822443D01*
X150098921Y-64844387D01*
X150088956Y-64865457D01*
X150076974Y-64885448D01*
X150063090Y-64904168D01*
X150047438Y-64921438D01*
X150030168Y-64937090D01*
X150011448Y-64950974D01*
X149991457Y-64962956D01*
X149970387Y-64972921D01*
X149948443Y-64980773D01*
X149925834Y-64986437D01*
X149902779Y-64989856D01*
X149879500Y-64991000D01*
X149304500Y-64991000D01*
X149281221Y-64989856D01*
X149258166Y-64986437D01*
X149235557Y-64980773D01*
X149213613Y-64972921D01*
X149192543Y-64962956D01*
X149172552Y-64950974D01*
X149153832Y-64937090D01*
X149136562Y-64921438D01*
X149120910Y-64904168D01*
X149107026Y-64885448D01*
X149095044Y-64865457D01*
X149085079Y-64844387D01*
X149077227Y-64822443D01*
X149071563Y-64799834D01*
X149068144Y-64776779D01*
X149067000Y-64753500D01*
X149067000Y-64278500D01*
X149068144Y-64255221D01*
X149071563Y-64232166D01*
X149077227Y-64209557D01*
X149085079Y-64187613D01*
X149095044Y-64166543D01*
X149107026Y-64146552D01*
X149120910Y-64127832D01*
X149136562Y-64110562D01*
X149153832Y-64094910D01*
X149172552Y-64081026D01*
X149192543Y-64069044D01*
X149213613Y-64059079D01*
X149235557Y-64051227D01*
X149258166Y-64045563D01*
X149281221Y-64042144D01*
X149304500Y-64041000D01*
X149879500Y-64041000D01*
X149902779Y-64042144D01*
G37*
G04 #@! TD.AperFunction*
G04 #@! TA.AperFunction,SMDPad,CuDef*
G36*
X142945779Y-64042144D02*
G01*
X142968834Y-64045563D01*
X142991443Y-64051227D01*
X143013387Y-64059079D01*
X143034457Y-64069044D01*
X143054448Y-64081026D01*
X143073168Y-64094910D01*
X143090438Y-64110562D01*
X143106090Y-64127832D01*
X143119974Y-64146552D01*
X143131956Y-64166543D01*
X143141921Y-64187613D01*
X143149773Y-64209557D01*
X143155437Y-64232166D01*
X143158856Y-64255221D01*
X143160000Y-64278500D01*
X143160000Y-64753500D01*
X143158856Y-64776779D01*
X143155437Y-64799834D01*
X143149773Y-64822443D01*
X143141921Y-64844387D01*
X143131956Y-64865457D01*
X143119974Y-64885448D01*
X143106090Y-64904168D01*
X143090438Y-64921438D01*
X143073168Y-64937090D01*
X143054448Y-64950974D01*
X143034457Y-64962956D01*
X143013387Y-64972921D01*
X142991443Y-64980773D01*
X142968834Y-64986437D01*
X142945779Y-64989856D01*
X142922500Y-64991000D01*
X142347500Y-64991000D01*
X142324221Y-64989856D01*
X142301166Y-64986437D01*
X142278557Y-64980773D01*
X142256613Y-64972921D01*
X142235543Y-64962956D01*
X142215552Y-64950974D01*
X142196832Y-64937090D01*
X142179562Y-64921438D01*
X142163910Y-64904168D01*
X142150026Y-64885448D01*
X142138044Y-64865457D01*
X142128079Y-64844387D01*
X142120227Y-64822443D01*
X142114563Y-64799834D01*
X142111144Y-64776779D01*
X142110000Y-64753500D01*
X142110000Y-64278500D01*
X142111144Y-64255221D01*
X142114563Y-64232166D01*
X142120227Y-64209557D01*
X142128079Y-64187613D01*
X142138044Y-64166543D01*
X142150026Y-64146552D01*
X142163910Y-64127832D01*
X142179562Y-64110562D01*
X142196832Y-64094910D01*
X142215552Y-64081026D01*
X142235543Y-64069044D01*
X142256613Y-64059079D01*
X142278557Y-64051227D01*
X142301166Y-64045563D01*
X142324221Y-64042144D01*
X142347500Y-64041000D01*
X142922500Y-64041000D01*
X142945779Y-64042144D01*
G37*
G04 #@! TD.AperFunction*
G04 #@! TA.AperFunction,SMDPad,CuDef*
G36*
X144695779Y-64042144D02*
G01*
X144718834Y-64045563D01*
X144741443Y-64051227D01*
X144763387Y-64059079D01*
X144784457Y-64069044D01*
X144804448Y-64081026D01*
X144823168Y-64094910D01*
X144840438Y-64110562D01*
X144856090Y-64127832D01*
X144869974Y-64146552D01*
X144881956Y-64166543D01*
X144891921Y-64187613D01*
X144899773Y-64209557D01*
X144905437Y-64232166D01*
X144908856Y-64255221D01*
X144910000Y-64278500D01*
X144910000Y-64753500D01*
X144908856Y-64776779D01*
X144905437Y-64799834D01*
X144899773Y-64822443D01*
X144891921Y-64844387D01*
X144881956Y-64865457D01*
X144869974Y-64885448D01*
X144856090Y-64904168D01*
X144840438Y-64921438D01*
X144823168Y-64937090D01*
X144804448Y-64950974D01*
X144784457Y-64962956D01*
X144763387Y-64972921D01*
X144741443Y-64980773D01*
X144718834Y-64986437D01*
X144695779Y-64989856D01*
X144672500Y-64991000D01*
X144097500Y-64991000D01*
X144074221Y-64989856D01*
X144051166Y-64986437D01*
X144028557Y-64980773D01*
X144006613Y-64972921D01*
X143985543Y-64962956D01*
X143965552Y-64950974D01*
X143946832Y-64937090D01*
X143929562Y-64921438D01*
X143913910Y-64904168D01*
X143900026Y-64885448D01*
X143888044Y-64865457D01*
X143878079Y-64844387D01*
X143870227Y-64822443D01*
X143864563Y-64799834D01*
X143861144Y-64776779D01*
X143860000Y-64753500D01*
X143860000Y-64278500D01*
X143861144Y-64255221D01*
X143864563Y-64232166D01*
X143870227Y-64209557D01*
X143878079Y-64187613D01*
X143888044Y-64166543D01*
X143900026Y-64146552D01*
X143913910Y-64127832D01*
X143929562Y-64110562D01*
X143946832Y-64094910D01*
X143965552Y-64081026D01*
X143985543Y-64069044D01*
X144006613Y-64059079D01*
X144028557Y-64051227D01*
X144051166Y-64045563D01*
X144074221Y-64042144D01*
X144097500Y-64041000D01*
X144672500Y-64041000D01*
X144695779Y-64042144D01*
G37*
G04 #@! TD.AperFunction*
G04 #@! TA.AperFunction,SMDPad,CuDef*
G36*
X127324779Y-69630144D02*
G01*
X127347834Y-69633563D01*
X127370443Y-69639227D01*
X127392387Y-69647079D01*
X127413457Y-69657044D01*
X127433448Y-69669026D01*
X127452168Y-69682910D01*
X127469438Y-69698562D01*
X127485090Y-69715832D01*
X127498974Y-69734552D01*
X127510956Y-69754543D01*
X127520921Y-69775613D01*
X127528773Y-69797557D01*
X127534437Y-69820166D01*
X127537856Y-69843221D01*
X127539000Y-69866500D01*
X127539000Y-70341500D01*
X127537856Y-70364779D01*
X127534437Y-70387834D01*
X127528773Y-70410443D01*
X127520921Y-70432387D01*
X127510956Y-70453457D01*
X127498974Y-70473448D01*
X127485090Y-70492168D01*
X127469438Y-70509438D01*
X127452168Y-70525090D01*
X127433448Y-70538974D01*
X127413457Y-70550956D01*
X127392387Y-70560921D01*
X127370443Y-70568773D01*
X127347834Y-70574437D01*
X127324779Y-70577856D01*
X127301500Y-70579000D01*
X126726500Y-70579000D01*
X126703221Y-70577856D01*
X126680166Y-70574437D01*
X126657557Y-70568773D01*
X126635613Y-70560921D01*
X126614543Y-70550956D01*
X126594552Y-70538974D01*
X126575832Y-70525090D01*
X126558562Y-70509438D01*
X126542910Y-70492168D01*
X126529026Y-70473448D01*
X126517044Y-70453457D01*
X126507079Y-70432387D01*
X126499227Y-70410443D01*
X126493563Y-70387834D01*
X126490144Y-70364779D01*
X126489000Y-70341500D01*
X126489000Y-69866500D01*
X126490144Y-69843221D01*
X126493563Y-69820166D01*
X126499227Y-69797557D01*
X126507079Y-69775613D01*
X126517044Y-69754543D01*
X126529026Y-69734552D01*
X126542910Y-69715832D01*
X126558562Y-69698562D01*
X126575832Y-69682910D01*
X126594552Y-69669026D01*
X126614543Y-69657044D01*
X126635613Y-69647079D01*
X126657557Y-69639227D01*
X126680166Y-69633563D01*
X126703221Y-69630144D01*
X126726500Y-69629000D01*
X127301500Y-69629000D01*
X127324779Y-69630144D01*
G37*
G04 #@! TD.AperFunction*
G04 #@! TA.AperFunction,SMDPad,CuDef*
G36*
X129074779Y-69630144D02*
G01*
X129097834Y-69633563D01*
X129120443Y-69639227D01*
X129142387Y-69647079D01*
X129163457Y-69657044D01*
X129183448Y-69669026D01*
X129202168Y-69682910D01*
X129219438Y-69698562D01*
X129235090Y-69715832D01*
X129248974Y-69734552D01*
X129260956Y-69754543D01*
X129270921Y-69775613D01*
X129278773Y-69797557D01*
X129284437Y-69820166D01*
X129287856Y-69843221D01*
X129289000Y-69866500D01*
X129289000Y-70341500D01*
X129287856Y-70364779D01*
X129284437Y-70387834D01*
X129278773Y-70410443D01*
X129270921Y-70432387D01*
X129260956Y-70453457D01*
X129248974Y-70473448D01*
X129235090Y-70492168D01*
X129219438Y-70509438D01*
X129202168Y-70525090D01*
X129183448Y-70538974D01*
X129163457Y-70550956D01*
X129142387Y-70560921D01*
X129120443Y-70568773D01*
X129097834Y-70574437D01*
X129074779Y-70577856D01*
X129051500Y-70579000D01*
X128476500Y-70579000D01*
X128453221Y-70577856D01*
X128430166Y-70574437D01*
X128407557Y-70568773D01*
X128385613Y-70560921D01*
X128364543Y-70550956D01*
X128344552Y-70538974D01*
X128325832Y-70525090D01*
X128308562Y-70509438D01*
X128292910Y-70492168D01*
X128279026Y-70473448D01*
X128267044Y-70453457D01*
X128257079Y-70432387D01*
X128249227Y-70410443D01*
X128243563Y-70387834D01*
X128240144Y-70364779D01*
X128239000Y-70341500D01*
X128239000Y-69866500D01*
X128240144Y-69843221D01*
X128243563Y-69820166D01*
X128249227Y-69797557D01*
X128257079Y-69775613D01*
X128267044Y-69754543D01*
X128279026Y-69734552D01*
X128292910Y-69715832D01*
X128308562Y-69698562D01*
X128325832Y-69682910D01*
X128344552Y-69669026D01*
X128364543Y-69657044D01*
X128385613Y-69647079D01*
X128407557Y-69639227D01*
X128430166Y-69633563D01*
X128453221Y-69630144D01*
X128476500Y-69629000D01*
X129051500Y-69629000D01*
X129074779Y-69630144D01*
G37*
G04 #@! TD.AperFunction*
G04 #@! TA.AperFunction,SMDPad,CuDef*
G36*
X137738779Y-69630144D02*
G01*
X137761834Y-69633563D01*
X137784443Y-69639227D01*
X137806387Y-69647079D01*
X137827457Y-69657044D01*
X137847448Y-69669026D01*
X137866168Y-69682910D01*
X137883438Y-69698562D01*
X137899090Y-69715832D01*
X137912974Y-69734552D01*
X137924956Y-69754543D01*
X137934921Y-69775613D01*
X137942773Y-69797557D01*
X137948437Y-69820166D01*
X137951856Y-69843221D01*
X137953000Y-69866500D01*
X137953000Y-70341500D01*
X137951856Y-70364779D01*
X137948437Y-70387834D01*
X137942773Y-70410443D01*
X137934921Y-70432387D01*
X137924956Y-70453457D01*
X137912974Y-70473448D01*
X137899090Y-70492168D01*
X137883438Y-70509438D01*
X137866168Y-70525090D01*
X137847448Y-70538974D01*
X137827457Y-70550956D01*
X137806387Y-70560921D01*
X137784443Y-70568773D01*
X137761834Y-70574437D01*
X137738779Y-70577856D01*
X137715500Y-70579000D01*
X137140500Y-70579000D01*
X137117221Y-70577856D01*
X137094166Y-70574437D01*
X137071557Y-70568773D01*
X137049613Y-70560921D01*
X137028543Y-70550956D01*
X137008552Y-70538974D01*
X136989832Y-70525090D01*
X136972562Y-70509438D01*
X136956910Y-70492168D01*
X136943026Y-70473448D01*
X136931044Y-70453457D01*
X136921079Y-70432387D01*
X136913227Y-70410443D01*
X136907563Y-70387834D01*
X136904144Y-70364779D01*
X136903000Y-70341500D01*
X136903000Y-69866500D01*
X136904144Y-69843221D01*
X136907563Y-69820166D01*
X136913227Y-69797557D01*
X136921079Y-69775613D01*
X136931044Y-69754543D01*
X136943026Y-69734552D01*
X136956910Y-69715832D01*
X136972562Y-69698562D01*
X136989832Y-69682910D01*
X137008552Y-69669026D01*
X137028543Y-69657044D01*
X137049613Y-69647079D01*
X137071557Y-69639227D01*
X137094166Y-69633563D01*
X137117221Y-69630144D01*
X137140500Y-69629000D01*
X137715500Y-69629000D01*
X137738779Y-69630144D01*
G37*
G04 #@! TD.AperFunction*
G04 #@! TA.AperFunction,SMDPad,CuDef*
G36*
X139488779Y-69630144D02*
G01*
X139511834Y-69633563D01*
X139534443Y-69639227D01*
X139556387Y-69647079D01*
X139577457Y-69657044D01*
X139597448Y-69669026D01*
X139616168Y-69682910D01*
X139633438Y-69698562D01*
X139649090Y-69715832D01*
X139662974Y-69734552D01*
X139674956Y-69754543D01*
X139684921Y-69775613D01*
X139692773Y-69797557D01*
X139698437Y-69820166D01*
X139701856Y-69843221D01*
X139703000Y-69866500D01*
X139703000Y-70341500D01*
X139701856Y-70364779D01*
X139698437Y-70387834D01*
X139692773Y-70410443D01*
X139684921Y-70432387D01*
X139674956Y-70453457D01*
X139662974Y-70473448D01*
X139649090Y-70492168D01*
X139633438Y-70509438D01*
X139616168Y-70525090D01*
X139597448Y-70538974D01*
X139577457Y-70550956D01*
X139556387Y-70560921D01*
X139534443Y-70568773D01*
X139511834Y-70574437D01*
X139488779Y-70577856D01*
X139465500Y-70579000D01*
X138890500Y-70579000D01*
X138867221Y-70577856D01*
X138844166Y-70574437D01*
X138821557Y-70568773D01*
X138799613Y-70560921D01*
X138778543Y-70550956D01*
X138758552Y-70538974D01*
X138739832Y-70525090D01*
X138722562Y-70509438D01*
X138706910Y-70492168D01*
X138693026Y-70473448D01*
X138681044Y-70453457D01*
X138671079Y-70432387D01*
X138663227Y-70410443D01*
X138657563Y-70387834D01*
X138654144Y-70364779D01*
X138653000Y-70341500D01*
X138653000Y-69866500D01*
X138654144Y-69843221D01*
X138657563Y-69820166D01*
X138663227Y-69797557D01*
X138671079Y-69775613D01*
X138681044Y-69754543D01*
X138693026Y-69734552D01*
X138706910Y-69715832D01*
X138722562Y-69698562D01*
X138739832Y-69682910D01*
X138758552Y-69669026D01*
X138778543Y-69657044D01*
X138799613Y-69647079D01*
X138821557Y-69639227D01*
X138844166Y-69633563D01*
X138867221Y-69630144D01*
X138890500Y-69629000D01*
X139465500Y-69629000D01*
X139488779Y-69630144D01*
G37*
G04 #@! TD.AperFunction*
G04 #@! TA.AperFunction,SMDPad,CuDef*
G36*
X148152779Y-69630144D02*
G01*
X148175834Y-69633563D01*
X148198443Y-69639227D01*
X148220387Y-69647079D01*
X148241457Y-69657044D01*
X148261448Y-69669026D01*
X148280168Y-69682910D01*
X148297438Y-69698562D01*
X148313090Y-69715832D01*
X148326974Y-69734552D01*
X148338956Y-69754543D01*
X148348921Y-69775613D01*
X148356773Y-69797557D01*
X148362437Y-69820166D01*
X148365856Y-69843221D01*
X148367000Y-69866500D01*
X148367000Y-70341500D01*
X148365856Y-70364779D01*
X148362437Y-70387834D01*
X148356773Y-70410443D01*
X148348921Y-70432387D01*
X148338956Y-70453457D01*
X148326974Y-70473448D01*
X148313090Y-70492168D01*
X148297438Y-70509438D01*
X148280168Y-70525090D01*
X148261448Y-70538974D01*
X148241457Y-70550956D01*
X148220387Y-70560921D01*
X148198443Y-70568773D01*
X148175834Y-70574437D01*
X148152779Y-70577856D01*
X148129500Y-70579000D01*
X147554500Y-70579000D01*
X147531221Y-70577856D01*
X147508166Y-70574437D01*
X147485557Y-70568773D01*
X147463613Y-70560921D01*
X147442543Y-70550956D01*
X147422552Y-70538974D01*
X147403832Y-70525090D01*
X147386562Y-70509438D01*
X147370910Y-70492168D01*
X147357026Y-70473448D01*
X147345044Y-70453457D01*
X147335079Y-70432387D01*
X147327227Y-70410443D01*
X147321563Y-70387834D01*
X147318144Y-70364779D01*
X147317000Y-70341500D01*
X147317000Y-69866500D01*
X147318144Y-69843221D01*
X147321563Y-69820166D01*
X147327227Y-69797557D01*
X147335079Y-69775613D01*
X147345044Y-69754543D01*
X147357026Y-69734552D01*
X147370910Y-69715832D01*
X147386562Y-69698562D01*
X147403832Y-69682910D01*
X147422552Y-69669026D01*
X147442543Y-69657044D01*
X147463613Y-69647079D01*
X147485557Y-69639227D01*
X147508166Y-69633563D01*
X147531221Y-69630144D01*
X147554500Y-69629000D01*
X148129500Y-69629000D01*
X148152779Y-69630144D01*
G37*
G04 #@! TD.AperFunction*
G04 #@! TA.AperFunction,SMDPad,CuDef*
G36*
X149902779Y-69630144D02*
G01*
X149925834Y-69633563D01*
X149948443Y-69639227D01*
X149970387Y-69647079D01*
X149991457Y-69657044D01*
X150011448Y-69669026D01*
X150030168Y-69682910D01*
X150047438Y-69698562D01*
X150063090Y-69715832D01*
X150076974Y-69734552D01*
X150088956Y-69754543D01*
X150098921Y-69775613D01*
X150106773Y-69797557D01*
X150112437Y-69820166D01*
X150115856Y-69843221D01*
X150117000Y-69866500D01*
X150117000Y-70341500D01*
X150115856Y-70364779D01*
X150112437Y-70387834D01*
X150106773Y-70410443D01*
X150098921Y-70432387D01*
X150088956Y-70453457D01*
X150076974Y-70473448D01*
X150063090Y-70492168D01*
X150047438Y-70509438D01*
X150030168Y-70525090D01*
X150011448Y-70538974D01*
X149991457Y-70550956D01*
X149970387Y-70560921D01*
X149948443Y-70568773D01*
X149925834Y-70574437D01*
X149902779Y-70577856D01*
X149879500Y-70579000D01*
X149304500Y-70579000D01*
X149281221Y-70577856D01*
X149258166Y-70574437D01*
X149235557Y-70568773D01*
X149213613Y-70560921D01*
X149192543Y-70550956D01*
X149172552Y-70538974D01*
X149153832Y-70525090D01*
X149136562Y-70509438D01*
X149120910Y-70492168D01*
X149107026Y-70473448D01*
X149095044Y-70453457D01*
X149085079Y-70432387D01*
X149077227Y-70410443D01*
X149071563Y-70387834D01*
X149068144Y-70364779D01*
X149067000Y-70341500D01*
X149067000Y-69866500D01*
X149068144Y-69843221D01*
X149071563Y-69820166D01*
X149077227Y-69797557D01*
X149085079Y-69775613D01*
X149095044Y-69754543D01*
X149107026Y-69734552D01*
X149120910Y-69715832D01*
X149136562Y-69698562D01*
X149153832Y-69682910D01*
X149172552Y-69669026D01*
X149192543Y-69657044D01*
X149213613Y-69647079D01*
X149235557Y-69639227D01*
X149258166Y-69633563D01*
X149281221Y-69630144D01*
X149304500Y-69629000D01*
X149879500Y-69629000D01*
X149902779Y-69630144D01*
G37*
G04 #@! TD.AperFunction*
G04 #@! TA.AperFunction,SMDPad,CuDef*
G36*
X142945779Y-69630144D02*
G01*
X142968834Y-69633563D01*
X142991443Y-69639227D01*
X143013387Y-69647079D01*
X143034457Y-69657044D01*
X143054448Y-69669026D01*
X143073168Y-69682910D01*
X143090438Y-69698562D01*
X143106090Y-69715832D01*
X143119974Y-69734552D01*
X143131956Y-69754543D01*
X143141921Y-69775613D01*
X143149773Y-69797557D01*
X143155437Y-69820166D01*
X143158856Y-69843221D01*
X143160000Y-69866500D01*
X143160000Y-70341500D01*
X143158856Y-70364779D01*
X143155437Y-70387834D01*
X143149773Y-70410443D01*
X143141921Y-70432387D01*
X143131956Y-70453457D01*
X143119974Y-70473448D01*
X143106090Y-70492168D01*
X143090438Y-70509438D01*
X143073168Y-70525090D01*
X143054448Y-70538974D01*
X143034457Y-70550956D01*
X143013387Y-70560921D01*
X142991443Y-70568773D01*
X142968834Y-70574437D01*
X142945779Y-70577856D01*
X142922500Y-70579000D01*
X142347500Y-70579000D01*
X142324221Y-70577856D01*
X142301166Y-70574437D01*
X142278557Y-70568773D01*
X142256613Y-70560921D01*
X142235543Y-70550956D01*
X142215552Y-70538974D01*
X142196832Y-70525090D01*
X142179562Y-70509438D01*
X142163910Y-70492168D01*
X142150026Y-70473448D01*
X142138044Y-70453457D01*
X142128079Y-70432387D01*
X142120227Y-70410443D01*
X142114563Y-70387834D01*
X142111144Y-70364779D01*
X142110000Y-70341500D01*
X142110000Y-69866500D01*
X142111144Y-69843221D01*
X142114563Y-69820166D01*
X142120227Y-69797557D01*
X142128079Y-69775613D01*
X142138044Y-69754543D01*
X142150026Y-69734552D01*
X142163910Y-69715832D01*
X142179562Y-69698562D01*
X142196832Y-69682910D01*
X142215552Y-69669026D01*
X142235543Y-69657044D01*
X142256613Y-69647079D01*
X142278557Y-69639227D01*
X142301166Y-69633563D01*
X142324221Y-69630144D01*
X142347500Y-69629000D01*
X142922500Y-69629000D01*
X142945779Y-69630144D01*
G37*
G04 #@! TD.AperFunction*
G04 #@! TA.AperFunction,SMDPad,CuDef*
G36*
X144695779Y-69630144D02*
G01*
X144718834Y-69633563D01*
X144741443Y-69639227D01*
X144763387Y-69647079D01*
X144784457Y-69657044D01*
X144804448Y-69669026D01*
X144823168Y-69682910D01*
X144840438Y-69698562D01*
X144856090Y-69715832D01*
X144869974Y-69734552D01*
X144881956Y-69754543D01*
X144891921Y-69775613D01*
X144899773Y-69797557D01*
X144905437Y-69820166D01*
X144908856Y-69843221D01*
X144910000Y-69866500D01*
X144910000Y-70341500D01*
X144908856Y-70364779D01*
X144905437Y-70387834D01*
X144899773Y-70410443D01*
X144891921Y-70432387D01*
X144881956Y-70453457D01*
X144869974Y-70473448D01*
X144856090Y-70492168D01*
X144840438Y-70509438D01*
X144823168Y-70525090D01*
X144804448Y-70538974D01*
X144784457Y-70550956D01*
X144763387Y-70560921D01*
X144741443Y-70568773D01*
X144718834Y-70574437D01*
X144695779Y-70577856D01*
X144672500Y-70579000D01*
X144097500Y-70579000D01*
X144074221Y-70577856D01*
X144051166Y-70574437D01*
X144028557Y-70568773D01*
X144006613Y-70560921D01*
X143985543Y-70550956D01*
X143965552Y-70538974D01*
X143946832Y-70525090D01*
X143929562Y-70509438D01*
X143913910Y-70492168D01*
X143900026Y-70473448D01*
X143888044Y-70453457D01*
X143878079Y-70432387D01*
X143870227Y-70410443D01*
X143864563Y-70387834D01*
X143861144Y-70364779D01*
X143860000Y-70341500D01*
X143860000Y-69866500D01*
X143861144Y-69843221D01*
X143864563Y-69820166D01*
X143870227Y-69797557D01*
X143878079Y-69775613D01*
X143888044Y-69754543D01*
X143900026Y-69734552D01*
X143913910Y-69715832D01*
X143929562Y-69698562D01*
X143946832Y-69682910D01*
X143965552Y-69669026D01*
X143985543Y-69657044D01*
X144006613Y-69647079D01*
X144028557Y-69639227D01*
X144051166Y-69633563D01*
X144074221Y-69630144D01*
X144097500Y-69629000D01*
X144672500Y-69629000D01*
X144695779Y-69630144D01*
G37*
G04 #@! TD.AperFunction*
D17*
X128397000Y-84074000D03*
X153924000Y-67310000D03*
X138303000Y-67056000D03*
X159131000Y-67310000D03*
X133096000Y-67310000D03*
X153924000Y-75565000D03*
X148717000Y-67310000D03*
X164338000Y-67310000D03*
X143510000Y-67310000D03*
X159131000Y-75565000D03*
X143510000Y-75565000D03*
X148717000Y-75565000D03*
X127889000Y-67310000D03*
X126873000Y-87122000D03*
X154940000Y-69088000D03*
X129159000Y-68834000D03*
X139573000Y-69088000D03*
X160401000Y-68834000D03*
X134620000Y-68834000D03*
X155194000Y-77089000D03*
X149987000Y-68834000D03*
X165608000Y-68834000D03*
X144780000Y-68834000D03*
X160401000Y-77089000D03*
X144780000Y-77089000D03*
X149987000Y-77089000D03*
X146050000Y-70104000D03*
X142367000Y-71501000D03*
X142367000Y-81661000D03*
X147574000Y-81153000D03*
X152781000Y-79756000D03*
X161290000Y-76200000D03*
X163195000Y-73660000D03*
X157988000Y-71374000D03*
X151739600Y-68834000D03*
X135763000Y-68072000D03*
X130810000Y-66040000D03*
X125222000Y-65659000D03*
X117094000Y-69085000D03*
D18*
X126732000Y-84088000D02*
X126365000Y-84455000D01*
X128383000Y-84088000D02*
X128397000Y-84074000D01*
X128383000Y-84088000D02*
X126732000Y-84088000D01*
X130048000Y-84088000D02*
X128383000Y-84088000D01*
X144460000Y-64666000D02*
X144610000Y-64516000D01*
X144460000Y-66310000D02*
X144460000Y-64666000D01*
D19*
X144610000Y-63913600D02*
X145277600Y-63246000D01*
X144610000Y-64516000D02*
X144610000Y-63913600D01*
X147470400Y-63246000D02*
X148837600Y-61878800D01*
X145277600Y-63246000D02*
X147470400Y-63246000D01*
D18*
X149667000Y-64666000D02*
X149817000Y-64516000D01*
X149667000Y-66310000D02*
X149667000Y-64666000D01*
D19*
X151377600Y-59338800D02*
X150114000Y-60602400D01*
X149817000Y-63913600D02*
X149817000Y-64516000D01*
X150114000Y-63616600D02*
X149817000Y-63913600D01*
X150114000Y-60602400D02*
X150114000Y-63616600D01*
D18*
X152974000Y-64666000D02*
X152824000Y-64516000D01*
X152974000Y-66310000D02*
X152974000Y-64666000D01*
X152974000Y-66310000D02*
X152974000Y-66360000D01*
X152974000Y-66360000D02*
X153924000Y-67310000D01*
X126939000Y-64666000D02*
X126789000Y-64516000D01*
X126939000Y-66310000D02*
X126939000Y-64666000D01*
X137353000Y-64666000D02*
X137203000Y-64516000D01*
X137353000Y-66310000D02*
X137353000Y-64666000D01*
X137353000Y-66310000D02*
X137557000Y-66310000D01*
X137557000Y-66310000D02*
X138303000Y-67056000D01*
X158031000Y-66160000D02*
X158181000Y-66310000D01*
X158031000Y-64516000D02*
X158031000Y-66160000D01*
X158181000Y-66310000D02*
X158181000Y-66360000D01*
X158181000Y-66360000D02*
X159131000Y-67310000D01*
X132146000Y-64666000D02*
X131996000Y-64516000D01*
X132146000Y-66310000D02*
X132146000Y-64666000D01*
X132146000Y-66310000D02*
X132146000Y-66360000D01*
X132146000Y-66360000D02*
X133096000Y-67310000D01*
X152974000Y-72921000D02*
X152824000Y-72771000D01*
X152974000Y-74565000D02*
X152974000Y-72921000D01*
X152974000Y-74565000D02*
X152974000Y-74615000D01*
X152974000Y-74615000D02*
X153924000Y-75565000D01*
X147767000Y-64666000D02*
X147617000Y-64516000D01*
X147767000Y-66310000D02*
X147767000Y-64666000D01*
X147767000Y-66310000D02*
X147767000Y-66360000D01*
X147767000Y-66360000D02*
X148717000Y-67310000D01*
X163388000Y-64666000D02*
X163238000Y-64516000D01*
X163388000Y-66310000D02*
X163388000Y-64666000D01*
X163388000Y-66310000D02*
X163388000Y-66360000D01*
X163388000Y-66360000D02*
X164338000Y-67310000D01*
X142560000Y-64666000D02*
X142410000Y-64516000D01*
X142560000Y-66310000D02*
X142560000Y-64666000D01*
X142560000Y-66310000D02*
X142560000Y-66360000D01*
X142560000Y-66360000D02*
X143510000Y-67310000D01*
X158181000Y-72921000D02*
X158031000Y-72771000D01*
X158181000Y-74565000D02*
X158181000Y-72921000D01*
X158181000Y-74565000D02*
X158181000Y-74615000D01*
X158181000Y-74615000D02*
X159131000Y-75565000D01*
X142560000Y-72921000D02*
X142410000Y-72771000D01*
X142560000Y-74565000D02*
X142560000Y-72921000D01*
X142560000Y-74565000D02*
X142560000Y-74615000D01*
X142560000Y-74615000D02*
X143510000Y-75565000D01*
X147767000Y-72921000D02*
X147617000Y-72771000D01*
X147767000Y-74565000D02*
X147767000Y-72921000D01*
X147767000Y-74565000D02*
X147767000Y-74615000D01*
X147767000Y-74615000D02*
X148717000Y-75565000D01*
X126939000Y-66310000D02*
X126939000Y-66360000D01*
X126939000Y-66360000D02*
X127889000Y-67310000D01*
X148717000Y-75565000D02*
X153924000Y-75565000D01*
X153924000Y-75565000D02*
X159131000Y-75565000D01*
X112663000Y-66929000D02*
X112663000Y-65024000D01*
X112663000Y-62493400D02*
X113277600Y-61878800D01*
X112663000Y-65024000D02*
X112663000Y-62493400D01*
X125171200Y-87122000D02*
X126873000Y-87122000D01*
X123825000Y-84455000D02*
X123825000Y-85775800D01*
X123825000Y-85775800D02*
X125171200Y-87122000D01*
X130048000Y-86363000D02*
X130048000Y-85838000D01*
X129289000Y-87122000D02*
X130048000Y-86363000D01*
X126873000Y-87122000D02*
X129289000Y-87122000D01*
X155024000Y-70104000D02*
X155024000Y-69172000D01*
X155024000Y-69172000D02*
X154940000Y-69088000D01*
X128989000Y-70104000D02*
X128989000Y-69004000D01*
X128989000Y-69004000D02*
X129159000Y-68834000D01*
X139403000Y-70104000D02*
X139403000Y-69258000D01*
X139403000Y-69258000D02*
X139573000Y-69088000D01*
X160231000Y-70104000D02*
X160231000Y-69004000D01*
X160231000Y-69004000D02*
X160401000Y-68834000D01*
X134196000Y-70104000D02*
X134196000Y-69258000D01*
X134196000Y-69258000D02*
X134620000Y-68834000D01*
X155024000Y-78359000D02*
X155024000Y-77259000D01*
X155024000Y-77259000D02*
X155194000Y-77089000D01*
X149817000Y-70104000D02*
X149817000Y-69004000D01*
X149817000Y-69004000D02*
X149987000Y-68834000D01*
X165438000Y-70104000D02*
X165438000Y-69004000D01*
X165438000Y-69004000D02*
X165608000Y-68834000D01*
X144610000Y-70104000D02*
X144610000Y-69004000D01*
X144610000Y-69004000D02*
X144780000Y-68834000D01*
X160231000Y-78359000D02*
X160231000Y-77259000D01*
X160231000Y-77259000D02*
X160401000Y-77089000D01*
X144610000Y-78359000D02*
X144610000Y-77259000D01*
X144610000Y-77259000D02*
X144780000Y-77089000D01*
X149817000Y-78359000D02*
X149817000Y-77259000D01*
X149817000Y-77259000D02*
X149987000Y-77089000D01*
X148717000Y-69004000D02*
X147617000Y-70104000D01*
X148717000Y-68310000D02*
X148717000Y-69004000D01*
D19*
X146409210Y-70104000D02*
X147617000Y-70104000D01*
X146050000Y-70104000D02*
X146409210Y-70104000D01*
D18*
X143510000Y-69004000D02*
X142410000Y-70104000D01*
X143510000Y-68310000D02*
X143510000Y-69004000D01*
D19*
X142367000Y-70147000D02*
X142410000Y-70104000D01*
X142367000Y-71501000D02*
X142367000Y-70147000D01*
D18*
X143510000Y-77259000D02*
X142410000Y-78359000D01*
X143510000Y-76565000D02*
X143510000Y-77259000D01*
D19*
X142367000Y-78402000D02*
X142410000Y-78359000D01*
X142367000Y-81661000D02*
X142367000Y-78402000D01*
D18*
X148717000Y-77259000D02*
X147617000Y-78359000D01*
X148717000Y-76565000D02*
X148717000Y-77259000D01*
D19*
X147574000Y-78402000D02*
X147617000Y-78359000D01*
X147574000Y-81153000D02*
X147574000Y-78402000D01*
D18*
X153924000Y-77259000D02*
X152824000Y-78359000D01*
X153924000Y-76565000D02*
X153924000Y-77259000D01*
D19*
X152781000Y-78402000D02*
X152824000Y-78359000D01*
X152781000Y-79756000D02*
X152781000Y-78402000D01*
D18*
X159131000Y-77259000D02*
X158031000Y-78359000D01*
X159131000Y-76565000D02*
X159131000Y-77259000D01*
D19*
X159496000Y-76200000D02*
X159131000Y-76565000D01*
X161290000Y-76200000D02*
X159496000Y-76200000D01*
D18*
X164338000Y-69004000D02*
X163238000Y-70104000D01*
X164338000Y-68310000D02*
X164338000Y-69004000D01*
D19*
X163195000Y-70147000D02*
X163238000Y-70104000D01*
X163195000Y-73660000D02*
X163195000Y-70147000D01*
D18*
X159131000Y-69004000D02*
X158031000Y-70104000D01*
X159131000Y-68310000D02*
X159131000Y-69004000D01*
D19*
X158031000Y-70104000D02*
X158031000Y-71331000D01*
X158031000Y-71331000D02*
X157988000Y-71374000D01*
D18*
X153924000Y-69004000D02*
X152824000Y-70104000D01*
X153924000Y-68310000D02*
X153924000Y-69004000D01*
D19*
X152824000Y-69918400D02*
X152824000Y-70104000D01*
X151739600Y-68834000D02*
X152824000Y-69918400D01*
D18*
X138303000Y-69004000D02*
X137203000Y-70104000D01*
X138303000Y-68310000D02*
X138303000Y-69004000D01*
D19*
X136450600Y-70104000D02*
X137203000Y-70104000D01*
X135763000Y-69416400D02*
X136450600Y-70104000D01*
X135763000Y-68072000D02*
X135763000Y-69416400D01*
D18*
X133096000Y-69004000D02*
X131996000Y-70104000D01*
X133096000Y-68310000D02*
X133096000Y-69004000D01*
D19*
X131243600Y-70104000D02*
X131996000Y-70104000D01*
X130810000Y-69670400D02*
X131243600Y-70104000D01*
X130810000Y-66040000D02*
X130810000Y-69670400D01*
D18*
X127889000Y-69004000D02*
X126789000Y-70104000D01*
X127889000Y-68310000D02*
X127889000Y-69004000D01*
D19*
X126036600Y-70104000D02*
X126789000Y-70104000D01*
X125222000Y-69289400D02*
X126036600Y-70104000D01*
X125222000Y-65659000D02*
X125222000Y-69289400D01*
D18*
X165288000Y-64666000D02*
X165438000Y-64516000D01*
X165288000Y-66310000D02*
X165288000Y-64666000D01*
D19*
X165438000Y-63239200D02*
X165438000Y-64516000D01*
X161537600Y-59338800D02*
X165438000Y-63239200D01*
D18*
X160081000Y-64666000D02*
X160231000Y-64516000D01*
X160081000Y-66310000D02*
X160081000Y-64666000D01*
D19*
X160231000Y-60572200D02*
X160231000Y-64516000D01*
X158997600Y-59338800D02*
X160231000Y-60572200D01*
D18*
X160081000Y-72921000D02*
X160231000Y-72771000D01*
X160081000Y-74565000D02*
X160081000Y-72921000D01*
D19*
X160231000Y-72771000D02*
X160983400Y-72771000D01*
X160983400Y-72771000D02*
X161417000Y-72337400D01*
X158997600Y-63080881D02*
X159131000Y-63214281D01*
X158997600Y-61878800D02*
X158997600Y-63080881D01*
X159131000Y-66595750D02*
X160226250Y-67691000D01*
X159131000Y-63214281D02*
X159131000Y-66595750D01*
X161417000Y-72337400D02*
X161417000Y-68199000D01*
X160909000Y-67691000D02*
X161417000Y-68199000D01*
X160226250Y-67691000D02*
X160909000Y-67691000D01*
D18*
X154874000Y-64666000D02*
X155024000Y-64516000D01*
X154874000Y-66310000D02*
X154874000Y-64666000D01*
D19*
X156457600Y-59338800D02*
X155194000Y-60602400D01*
X155194000Y-60602400D02*
X155194000Y-62738000D01*
X155024000Y-62908000D02*
X155024000Y-64516000D01*
X155194000Y-62738000D02*
X155024000Y-62908000D01*
D18*
X154874000Y-72921000D02*
X155024000Y-72771000D01*
X154874000Y-74565000D02*
X154874000Y-72921000D01*
D19*
X156457600Y-63080881D02*
X156457600Y-61878800D01*
X156457600Y-70735000D02*
X156457600Y-63080881D01*
X155024000Y-72168600D02*
X156457600Y-70735000D01*
X155024000Y-72771000D02*
X155024000Y-72168600D01*
D18*
X149667000Y-72921000D02*
X149817000Y-72771000D01*
X149667000Y-73472000D02*
X149667000Y-72921000D01*
X149667000Y-74565000D02*
X149667000Y-73472000D01*
D19*
X152423400Y-63373000D02*
X153917600Y-61878800D01*
X151765000Y-63373000D02*
X152423400Y-63373000D01*
X151257000Y-63881000D02*
X151765000Y-63373000D01*
X151257000Y-72083400D02*
X150569400Y-72771000D01*
X151257000Y-70739000D02*
X151257000Y-72083400D01*
X151257000Y-70739000D02*
X151257000Y-63881000D01*
X150569400Y-72771000D02*
X149817000Y-72771000D01*
D18*
X144460000Y-72921000D02*
X144610000Y-72771000D01*
X144460000Y-74565000D02*
X144460000Y-72921000D01*
D19*
X146214200Y-71919200D02*
X145362400Y-72771000D01*
X150952190Y-63506291D02*
X150952190Y-71424810D01*
X145362400Y-72771000D02*
X144610000Y-72771000D01*
X151377600Y-63080881D02*
X150952190Y-63506291D01*
X150495000Y-71882000D02*
X146214200Y-71919200D01*
X150952190Y-71424810D02*
X150495000Y-71882000D01*
X151377600Y-61878800D02*
X151377600Y-63080881D01*
D18*
X139253000Y-64666000D02*
X139403000Y-64516000D01*
X139253000Y-66310000D02*
X139253000Y-64666000D01*
D19*
X139403000Y-63913600D02*
X139403000Y-64516000D01*
X139954000Y-63362600D02*
X139403000Y-63913600D01*
X138677600Y-59338800D02*
X139954000Y-60615200D01*
X139954000Y-60615200D02*
X139954000Y-63362600D01*
X134196000Y-63913600D02*
X134196000Y-64516000D01*
X134196000Y-63913600D02*
X134874000Y-63235600D01*
X134447599Y-60279599D02*
X134874000Y-60706000D01*
X134447599Y-60188799D02*
X134447599Y-60279599D01*
X133597600Y-59338800D02*
X134447599Y-60188799D01*
X134874000Y-63235600D02*
X134874000Y-60706000D01*
D18*
X134046000Y-64666000D02*
X134196000Y-64516000D01*
X134046000Y-66310000D02*
X134046000Y-64666000D01*
X128839000Y-64666000D02*
X128989000Y-64516000D01*
X128839000Y-66310000D02*
X128839000Y-64666000D01*
D19*
X129769535Y-63133065D02*
X128989000Y-63913600D01*
X129769535Y-61570535D02*
X129769535Y-63133065D01*
X128989000Y-63913600D02*
X128989000Y-64516000D01*
X131057600Y-60282470D02*
X129769535Y-61570535D01*
X131057600Y-59338800D02*
X131057600Y-60282470D01*
D18*
X118414801Y-68500801D02*
X114938000Y-65024000D01*
X121285000Y-84455000D02*
X121285000Y-84010500D01*
X114938000Y-65024000D02*
X114413000Y-65024000D01*
X115817600Y-64144400D02*
X114938000Y-65024000D01*
X115817600Y-61878800D02*
X115817600Y-64144400D01*
X120408700Y-84455000D02*
X120015000Y-84061300D01*
X121285000Y-84455000D02*
X120408700Y-84455000D01*
X120015000Y-70101000D02*
X118414801Y-68500801D01*
X120015000Y-84061300D02*
X120015000Y-70101000D01*
X114938000Y-66929000D02*
X114413000Y-66929000D01*
X117094000Y-69085000D02*
X114938000Y-66929000D01*
X117094000Y-69444210D02*
X117094000Y-69085000D01*
X117094000Y-83680300D02*
X117094000Y-69444210D01*
X117868700Y-84455000D02*
X117094000Y-83680300D01*
X118745000Y-84455000D02*
X117868700Y-84455000D01*
M02*
