G04 #@! TF.GenerationSoftware,KiCad,Pcbnew,(5.1.5)-3*
G04 #@! TF.CreationDate,2020-09-14T20:00:25-05:00*
G04 #@! TF.ProjectId,computer_board,636f6d70-7574-4657-925f-626f6172642e,4.1*
G04 #@! TF.SameCoordinates,Original*
G04 #@! TF.FileFunction,Copper,L3,Inr*
G04 #@! TF.FilePolarity,Positive*
%FSLAX46Y46*%
G04 Gerber Fmt 4.6, Leading zero omitted, Abs format (unit mm)*
G04 Created by KiCad (PCBNEW (5.1.5)-3) date 2020-09-14 20:00:25*
%MOMM*%
%LPD*%
G04 APERTURE LIST*
%ADD10C,1.640000*%
%ADD11R,1.700000X1.700000*%
%ADD12O,1.700000X1.700000*%
%ADD13C,0.508000*%
%ADD14C,0.254000*%
G04 APERTURE END LIST*
D10*
X180467000Y-85090000D03*
X183007000Y-85090000D03*
X180467000Y-82550000D03*
X183007000Y-82550000D03*
X180467000Y-80010000D03*
X183007000Y-80010000D03*
X180467000Y-77470000D03*
X183007000Y-77470000D03*
X180467000Y-74930000D03*
X183007000Y-74930000D03*
X180467000Y-72390000D03*
X183007000Y-72390000D03*
X180467000Y-69850000D03*
X183007000Y-69850000D03*
X180467000Y-67310000D03*
X183007000Y-67310000D03*
X180467000Y-64770000D03*
X183007000Y-64770000D03*
X180467000Y-62230000D03*
X183007000Y-62230000D03*
X180467000Y-59690000D03*
X183007000Y-59690000D03*
D11*
X113277600Y-61878800D03*
D12*
X113277600Y-59338800D03*
X115817600Y-61878800D03*
X115817600Y-59338800D03*
X118357600Y-61878800D03*
X118357600Y-59338800D03*
X120897600Y-61878800D03*
X120897600Y-59338800D03*
X123437600Y-61878800D03*
X123437600Y-59338800D03*
X125977600Y-61878800D03*
X125977600Y-59338800D03*
X128517600Y-61878800D03*
X128517600Y-59338800D03*
X131057600Y-61878800D03*
X131057600Y-59338800D03*
X133597600Y-61878800D03*
X133597600Y-59338800D03*
X136137600Y-61878800D03*
X136137600Y-59338800D03*
X138677600Y-61878800D03*
X138677600Y-59338800D03*
X141217600Y-61878800D03*
X141217600Y-59338800D03*
X143757600Y-61878800D03*
X143757600Y-59338800D03*
X146297600Y-61878800D03*
X146297600Y-59338800D03*
X148837600Y-61878800D03*
X148837600Y-59338800D03*
X151377600Y-61878800D03*
X151377600Y-59338800D03*
X153917600Y-61878800D03*
X153917600Y-59338800D03*
X156457600Y-61878800D03*
X156457600Y-59338800D03*
X158997600Y-61878800D03*
X158997600Y-59338800D03*
X161537600Y-61878800D03*
X161537600Y-59338800D03*
X95504000Y-59690000D03*
X95504000Y-62230000D03*
X95504000Y-64770000D03*
X95504000Y-67310000D03*
X95504000Y-69850000D03*
X95504000Y-72390000D03*
X95504000Y-74930000D03*
X95504000Y-77470000D03*
X95504000Y-80010000D03*
X95504000Y-82550000D03*
D11*
X95504000Y-85090000D03*
D13*
X128397000Y-84074000D03*
X153924000Y-67310000D03*
X138303000Y-67056000D03*
X159131000Y-67310000D03*
X133096000Y-67310000D03*
X153924000Y-75565000D03*
X148717000Y-67310000D03*
X164338000Y-67310000D03*
X143510000Y-67310000D03*
X159131000Y-75565000D03*
X143510000Y-75565000D03*
X148717000Y-75565000D03*
X127889000Y-67310000D03*
X126873000Y-87122000D03*
X154940000Y-69088000D03*
X129159000Y-68834000D03*
X139573000Y-69088000D03*
X160401000Y-68834000D03*
X134620000Y-68834000D03*
X155194000Y-77089000D03*
X149987000Y-68834000D03*
X165608000Y-68834000D03*
X144780000Y-68834000D03*
X160401000Y-77089000D03*
X144780000Y-77089000D03*
X149987000Y-77089000D03*
X146050000Y-70104000D03*
X142367000Y-71501000D03*
X142367000Y-81661000D03*
X147574000Y-81153000D03*
X152781000Y-79756000D03*
X161290000Y-76200000D03*
X163195000Y-73660000D03*
X157988000Y-71374000D03*
X151739600Y-68834000D03*
X135763000Y-68072000D03*
X130810000Y-66040000D03*
X125222000Y-65659000D03*
X117094000Y-69085000D03*
D14*
G36*
X192380000Y-88240000D02*
G01*
X92100000Y-88240000D01*
X92100000Y-84240000D01*
X94015928Y-84240000D01*
X94015928Y-85940000D01*
X94028188Y-86064482D01*
X94064498Y-86184180D01*
X94123463Y-86294494D01*
X94202815Y-86391185D01*
X94299506Y-86470537D01*
X94409820Y-86529502D01*
X94529518Y-86565812D01*
X94654000Y-86578072D01*
X96354000Y-86578072D01*
X96478482Y-86565812D01*
X96598180Y-86529502D01*
X96708494Y-86470537D01*
X96805185Y-86391185D01*
X96884537Y-86294494D01*
X96943502Y-86184180D01*
X96979812Y-86064482D01*
X96992072Y-85940000D01*
X96992072Y-84869872D01*
X98730000Y-84869872D01*
X98730000Y-85310128D01*
X98815890Y-85741925D01*
X98984369Y-86148669D01*
X99228962Y-86514729D01*
X99540271Y-86826038D01*
X99906331Y-87070631D01*
X100313075Y-87239110D01*
X100744872Y-87325000D01*
X101185128Y-87325000D01*
X101616925Y-87239110D01*
X102023669Y-87070631D01*
X102077831Y-87034441D01*
X125984000Y-87034441D01*
X125984000Y-87209559D01*
X126018164Y-87381312D01*
X126085179Y-87543099D01*
X126182469Y-87688704D01*
X126306296Y-87812531D01*
X126451901Y-87909821D01*
X126613688Y-87976836D01*
X126785441Y-88011000D01*
X126960559Y-88011000D01*
X127132312Y-87976836D01*
X127294099Y-87909821D01*
X127439704Y-87812531D01*
X127563531Y-87688704D01*
X127660821Y-87543099D01*
X127727836Y-87381312D01*
X127762000Y-87209559D01*
X127762000Y-87034441D01*
X127727836Y-86862688D01*
X127660821Y-86700901D01*
X127563531Y-86555296D01*
X127439704Y-86431469D01*
X127294099Y-86334179D01*
X127132312Y-86267164D01*
X126960559Y-86233000D01*
X126785441Y-86233000D01*
X126613688Y-86267164D01*
X126451901Y-86334179D01*
X126306296Y-86431469D01*
X126182469Y-86555296D01*
X126085179Y-86700901D01*
X126018164Y-86862688D01*
X125984000Y-87034441D01*
X102077831Y-87034441D01*
X102389729Y-86826038D01*
X102701038Y-86514729D01*
X102945631Y-86148669D01*
X103114110Y-85741925D01*
X103200000Y-85310128D01*
X103200000Y-84869872D01*
X103114110Y-84438075D01*
X102945631Y-84031331D01*
X102701038Y-83665271D01*
X102487799Y-83452032D01*
X106265000Y-83452032D01*
X106265000Y-83847968D01*
X106342243Y-84236296D01*
X106493761Y-84602092D01*
X106713731Y-84931301D01*
X106993699Y-85211269D01*
X107322908Y-85431239D01*
X107688704Y-85582757D01*
X108077032Y-85660000D01*
X108472968Y-85660000D01*
X108861296Y-85582757D01*
X109227092Y-85431239D01*
X109556301Y-85211269D01*
X109836269Y-84931301D01*
X110056239Y-84602092D01*
X110207757Y-84236296D01*
X110257456Y-83986441D01*
X127508000Y-83986441D01*
X127508000Y-84161559D01*
X127542164Y-84333312D01*
X127609179Y-84495099D01*
X127706469Y-84640704D01*
X127830296Y-84764531D01*
X127975901Y-84861821D01*
X128137688Y-84928836D01*
X128309441Y-84963000D01*
X128484559Y-84963000D01*
X128656312Y-84928836D01*
X128818099Y-84861821D01*
X128963704Y-84764531D01*
X129087531Y-84640704D01*
X129184821Y-84495099D01*
X129251836Y-84333312D01*
X129286000Y-84161559D01*
X129286000Y-83986441D01*
X129251836Y-83814688D01*
X129184821Y-83652901D01*
X129087531Y-83507296D01*
X129032267Y-83452032D01*
X164265000Y-83452032D01*
X164265000Y-83847968D01*
X164342243Y-84236296D01*
X164493761Y-84602092D01*
X164713731Y-84931301D01*
X164993699Y-85211269D01*
X165322908Y-85431239D01*
X165688704Y-85582757D01*
X166077032Y-85660000D01*
X166472968Y-85660000D01*
X166861296Y-85582757D01*
X167227092Y-85431239D01*
X167556301Y-85211269D01*
X167836269Y-84931301D01*
X167877314Y-84869872D01*
X171755000Y-84869872D01*
X171755000Y-85310128D01*
X171840890Y-85741925D01*
X172009369Y-86148669D01*
X172253962Y-86514729D01*
X172565271Y-86826038D01*
X172931331Y-87070631D01*
X173338075Y-87239110D01*
X173769872Y-87325000D01*
X174210128Y-87325000D01*
X174641925Y-87239110D01*
X175048669Y-87070631D01*
X175414729Y-86826038D01*
X175726038Y-86514729D01*
X175970631Y-86148669D01*
X176139110Y-85741925D01*
X176225000Y-85310128D01*
X176225000Y-84869872D01*
X176139110Y-84438075D01*
X175970631Y-84031331D01*
X175726038Y-83665271D01*
X175414729Y-83353962D01*
X175048669Y-83109369D01*
X174641925Y-82940890D01*
X174210128Y-82855000D01*
X173769872Y-82855000D01*
X173338075Y-82940890D01*
X172931331Y-83109369D01*
X172565271Y-83353962D01*
X172253962Y-83665271D01*
X172009369Y-84031331D01*
X171840890Y-84438075D01*
X171755000Y-84869872D01*
X167877314Y-84869872D01*
X168056239Y-84602092D01*
X168207757Y-84236296D01*
X168285000Y-83847968D01*
X168285000Y-83452032D01*
X168207757Y-83063704D01*
X168056239Y-82697908D01*
X167836269Y-82368699D01*
X167556301Y-82088731D01*
X167227092Y-81868761D01*
X166861296Y-81717243D01*
X166472968Y-81640000D01*
X166077032Y-81640000D01*
X165688704Y-81717243D01*
X165322908Y-81868761D01*
X164993699Y-82088731D01*
X164713731Y-82368699D01*
X164493761Y-82697908D01*
X164342243Y-83063704D01*
X164265000Y-83452032D01*
X129032267Y-83452032D01*
X128963704Y-83383469D01*
X128818099Y-83286179D01*
X128656312Y-83219164D01*
X128484559Y-83185000D01*
X128309441Y-83185000D01*
X128137688Y-83219164D01*
X127975901Y-83286179D01*
X127830296Y-83383469D01*
X127706469Y-83507296D01*
X127609179Y-83652901D01*
X127542164Y-83814688D01*
X127508000Y-83986441D01*
X110257456Y-83986441D01*
X110285000Y-83847968D01*
X110285000Y-83452032D01*
X110207757Y-83063704D01*
X110056239Y-82697908D01*
X109836269Y-82368699D01*
X109556301Y-82088731D01*
X109227092Y-81868761D01*
X108861296Y-81717243D01*
X108472968Y-81640000D01*
X108077032Y-81640000D01*
X107688704Y-81717243D01*
X107322908Y-81868761D01*
X106993699Y-82088731D01*
X106713731Y-82368699D01*
X106493761Y-82697908D01*
X106342243Y-83063704D01*
X106265000Y-83452032D01*
X102487799Y-83452032D01*
X102389729Y-83353962D01*
X102023669Y-83109369D01*
X101616925Y-82940890D01*
X101185128Y-82855000D01*
X100744872Y-82855000D01*
X100313075Y-82940890D01*
X99906331Y-83109369D01*
X99540271Y-83353962D01*
X99228962Y-83665271D01*
X98984369Y-84031331D01*
X98815890Y-84438075D01*
X98730000Y-84869872D01*
X96992072Y-84869872D01*
X96992072Y-84240000D01*
X96979812Y-84115518D01*
X96943502Y-83995820D01*
X96884537Y-83885506D01*
X96805185Y-83788815D01*
X96708494Y-83709463D01*
X96598180Y-83650498D01*
X96525620Y-83628487D01*
X96657475Y-83496632D01*
X96819990Y-83253411D01*
X96931932Y-82983158D01*
X96989000Y-82696260D01*
X96989000Y-82403740D01*
X96931932Y-82116842D01*
X96819990Y-81846589D01*
X96657475Y-81603368D01*
X96627548Y-81573441D01*
X141478000Y-81573441D01*
X141478000Y-81748559D01*
X141512164Y-81920312D01*
X141579179Y-82082099D01*
X141676469Y-82227704D01*
X141800296Y-82351531D01*
X141945901Y-82448821D01*
X142107688Y-82515836D01*
X142279441Y-82550000D01*
X142454559Y-82550000D01*
X142626312Y-82515836D01*
X142788099Y-82448821D01*
X142933704Y-82351531D01*
X143057531Y-82227704D01*
X143154821Y-82082099D01*
X143221836Y-81920312D01*
X143256000Y-81748559D01*
X143256000Y-81573441D01*
X143221836Y-81401688D01*
X143154821Y-81239901D01*
X143057531Y-81094296D01*
X143028676Y-81065441D01*
X146685000Y-81065441D01*
X146685000Y-81240559D01*
X146719164Y-81412312D01*
X146786179Y-81574099D01*
X146883469Y-81719704D01*
X147007296Y-81843531D01*
X147152901Y-81940821D01*
X147314688Y-82007836D01*
X147486441Y-82042000D01*
X147661559Y-82042000D01*
X147833312Y-82007836D01*
X147995099Y-81940821D01*
X148140704Y-81843531D01*
X148264531Y-81719704D01*
X148361821Y-81574099D01*
X148428836Y-81412312D01*
X148463000Y-81240559D01*
X148463000Y-81065441D01*
X148428836Y-80893688D01*
X148361821Y-80731901D01*
X148264531Y-80586296D01*
X148140704Y-80462469D01*
X147995099Y-80365179D01*
X147833312Y-80298164D01*
X147661559Y-80264000D01*
X147486441Y-80264000D01*
X147314688Y-80298164D01*
X147152901Y-80365179D01*
X147007296Y-80462469D01*
X146883469Y-80586296D01*
X146786179Y-80731901D01*
X146719164Y-80893688D01*
X146685000Y-81065441D01*
X143028676Y-81065441D01*
X142933704Y-80970469D01*
X142788099Y-80873179D01*
X142626312Y-80806164D01*
X142454559Y-80772000D01*
X142279441Y-80772000D01*
X142107688Y-80806164D01*
X141945901Y-80873179D01*
X141800296Y-80970469D01*
X141676469Y-81094296D01*
X141579179Y-81239901D01*
X141512164Y-81401688D01*
X141478000Y-81573441D01*
X96627548Y-81573441D01*
X96450632Y-81396525D01*
X96276240Y-81280000D01*
X96450632Y-81163475D01*
X96657475Y-80956632D01*
X96819990Y-80713411D01*
X96931932Y-80443158D01*
X96989000Y-80156260D01*
X96989000Y-79863740D01*
X96950153Y-79668441D01*
X151892000Y-79668441D01*
X151892000Y-79843559D01*
X151926164Y-80015312D01*
X151993179Y-80177099D01*
X152090469Y-80322704D01*
X152214296Y-80446531D01*
X152359901Y-80543821D01*
X152521688Y-80610836D01*
X152693441Y-80645000D01*
X152868559Y-80645000D01*
X153040312Y-80610836D01*
X153202099Y-80543821D01*
X153347704Y-80446531D01*
X153471531Y-80322704D01*
X153568821Y-80177099D01*
X153635836Y-80015312D01*
X153670000Y-79843559D01*
X153670000Y-79668441D01*
X153635836Y-79496688D01*
X153568821Y-79334901D01*
X153471531Y-79189296D01*
X153347704Y-79065469D01*
X153202099Y-78968179D01*
X153040312Y-78901164D01*
X152868559Y-78867000D01*
X152693441Y-78867000D01*
X152521688Y-78901164D01*
X152359901Y-78968179D01*
X152214296Y-79065469D01*
X152090469Y-79189296D01*
X151993179Y-79334901D01*
X151926164Y-79496688D01*
X151892000Y-79668441D01*
X96950153Y-79668441D01*
X96931932Y-79576842D01*
X96819990Y-79306589D01*
X96657475Y-79063368D01*
X96450632Y-78856525D01*
X96268466Y-78734805D01*
X96385355Y-78665178D01*
X96601588Y-78470269D01*
X96775641Y-78236920D01*
X96900825Y-77974099D01*
X96945476Y-77826890D01*
X96824155Y-77597000D01*
X95631000Y-77597000D01*
X95631000Y-77617000D01*
X95377000Y-77617000D01*
X95377000Y-77597000D01*
X94183845Y-77597000D01*
X94062524Y-77826890D01*
X94107175Y-77974099D01*
X94232359Y-78236920D01*
X94406412Y-78470269D01*
X94622645Y-78665178D01*
X94739534Y-78734805D01*
X94557368Y-78856525D01*
X94350525Y-79063368D01*
X94188010Y-79306589D01*
X94076068Y-79576842D01*
X94019000Y-79863740D01*
X94019000Y-80156260D01*
X94076068Y-80443158D01*
X94188010Y-80713411D01*
X94350525Y-80956632D01*
X94557368Y-81163475D01*
X94731760Y-81280000D01*
X94557368Y-81396525D01*
X94350525Y-81603368D01*
X94188010Y-81846589D01*
X94076068Y-82116842D01*
X94019000Y-82403740D01*
X94019000Y-82696260D01*
X94076068Y-82983158D01*
X94188010Y-83253411D01*
X94350525Y-83496632D01*
X94482380Y-83628487D01*
X94409820Y-83650498D01*
X94299506Y-83709463D01*
X94202815Y-83788815D01*
X94123463Y-83885506D01*
X94064498Y-83995820D01*
X94028188Y-84115518D01*
X94015928Y-84240000D01*
X92100000Y-84240000D01*
X92100000Y-77539719D01*
X179006624Y-77539719D01*
X179048286Y-77823285D01*
X179144468Y-78093275D01*
X179214007Y-78223373D01*
X179460018Y-78297376D01*
X180287395Y-77470000D01*
X179460018Y-76642624D01*
X179214007Y-76716627D01*
X179091107Y-76975550D01*
X179021083Y-77253474D01*
X179006624Y-77539719D01*
X92100000Y-77539719D01*
X92100000Y-59543740D01*
X94019000Y-59543740D01*
X94019000Y-59836260D01*
X94076068Y-60123158D01*
X94188010Y-60393411D01*
X94350525Y-60636632D01*
X94557368Y-60843475D01*
X94731760Y-60960000D01*
X94557368Y-61076525D01*
X94350525Y-61283368D01*
X94188010Y-61526589D01*
X94076068Y-61796842D01*
X94019000Y-62083740D01*
X94019000Y-62376260D01*
X94076068Y-62663158D01*
X94188010Y-62933411D01*
X94350525Y-63176632D01*
X94557368Y-63383475D01*
X94731760Y-63500000D01*
X94557368Y-63616525D01*
X94350525Y-63823368D01*
X94188010Y-64066589D01*
X94076068Y-64336842D01*
X94019000Y-64623740D01*
X94019000Y-64916260D01*
X94076068Y-65203158D01*
X94188010Y-65473411D01*
X94350525Y-65716632D01*
X94557368Y-65923475D01*
X94731760Y-66040000D01*
X94557368Y-66156525D01*
X94350525Y-66363368D01*
X94188010Y-66606589D01*
X94076068Y-66876842D01*
X94019000Y-67163740D01*
X94019000Y-67456260D01*
X94076068Y-67743158D01*
X94188010Y-68013411D01*
X94350525Y-68256632D01*
X94557368Y-68463475D01*
X94731760Y-68580000D01*
X94557368Y-68696525D01*
X94350525Y-68903368D01*
X94188010Y-69146589D01*
X94076068Y-69416842D01*
X94019000Y-69703740D01*
X94019000Y-69996260D01*
X94076068Y-70283158D01*
X94188010Y-70553411D01*
X94350525Y-70796632D01*
X94557368Y-71003475D01*
X94731760Y-71120000D01*
X94557368Y-71236525D01*
X94350525Y-71443368D01*
X94188010Y-71686589D01*
X94076068Y-71956842D01*
X94019000Y-72243740D01*
X94019000Y-72536260D01*
X94076068Y-72823158D01*
X94188010Y-73093411D01*
X94350525Y-73336632D01*
X94557368Y-73543475D01*
X94731760Y-73660000D01*
X94557368Y-73776525D01*
X94350525Y-73983368D01*
X94188010Y-74226589D01*
X94076068Y-74496842D01*
X94019000Y-74783740D01*
X94019000Y-75076260D01*
X94076068Y-75363158D01*
X94188010Y-75633411D01*
X94350525Y-75876632D01*
X94557368Y-76083475D01*
X94739534Y-76205195D01*
X94622645Y-76274822D01*
X94406412Y-76469731D01*
X94232359Y-76703080D01*
X94107175Y-76965901D01*
X94062524Y-77113110D01*
X94183845Y-77343000D01*
X95377000Y-77343000D01*
X95377000Y-77323000D01*
X95631000Y-77323000D01*
X95631000Y-77343000D01*
X96824155Y-77343000D01*
X96945476Y-77113110D01*
X96900825Y-76965901D01*
X96775641Y-76703080D01*
X96601588Y-76469731D01*
X96385355Y-76274822D01*
X96268466Y-76205195D01*
X96450632Y-76083475D01*
X96657475Y-75876632D01*
X96819990Y-75633411D01*
X96884594Y-75477441D01*
X142621000Y-75477441D01*
X142621000Y-75652559D01*
X142655164Y-75824312D01*
X142722179Y-75986099D01*
X142819469Y-76131704D01*
X142943296Y-76255531D01*
X143088901Y-76352821D01*
X143250688Y-76419836D01*
X143422441Y-76454000D01*
X143597559Y-76454000D01*
X143769312Y-76419836D01*
X143931099Y-76352821D01*
X144076704Y-76255531D01*
X144200531Y-76131704D01*
X144297821Y-75986099D01*
X144364836Y-75824312D01*
X144399000Y-75652559D01*
X144399000Y-75477441D01*
X147828000Y-75477441D01*
X147828000Y-75652559D01*
X147862164Y-75824312D01*
X147929179Y-75986099D01*
X148026469Y-76131704D01*
X148150296Y-76255531D01*
X148295901Y-76352821D01*
X148457688Y-76419836D01*
X148629441Y-76454000D01*
X148804559Y-76454000D01*
X148976312Y-76419836D01*
X149138099Y-76352821D01*
X149283704Y-76255531D01*
X149407531Y-76131704D01*
X149504821Y-75986099D01*
X149571836Y-75824312D01*
X149606000Y-75652559D01*
X149606000Y-75477441D01*
X153035000Y-75477441D01*
X153035000Y-75652559D01*
X153069164Y-75824312D01*
X153136179Y-75986099D01*
X153233469Y-76131704D01*
X153357296Y-76255531D01*
X153502901Y-76352821D01*
X153664688Y-76419836D01*
X153836441Y-76454000D01*
X154011559Y-76454000D01*
X154183312Y-76419836D01*
X154345099Y-76352821D01*
X154490704Y-76255531D01*
X154614531Y-76131704D01*
X154711821Y-75986099D01*
X154778836Y-75824312D01*
X154813000Y-75652559D01*
X154813000Y-75477441D01*
X158242000Y-75477441D01*
X158242000Y-75652559D01*
X158276164Y-75824312D01*
X158343179Y-75986099D01*
X158440469Y-76131704D01*
X158564296Y-76255531D01*
X158709901Y-76352821D01*
X158871688Y-76419836D01*
X159043441Y-76454000D01*
X159218559Y-76454000D01*
X159390312Y-76419836D01*
X159552099Y-76352821D01*
X159697704Y-76255531D01*
X159821531Y-76131704D01*
X159834402Y-76112441D01*
X160401000Y-76112441D01*
X160401000Y-76287559D01*
X160435164Y-76459312D01*
X160502179Y-76621099D01*
X160599469Y-76766704D01*
X160723296Y-76890531D01*
X160868901Y-76987821D01*
X161030688Y-77054836D01*
X161202441Y-77089000D01*
X161377559Y-77089000D01*
X161549312Y-77054836D01*
X161711099Y-76987821D01*
X161856704Y-76890531D01*
X161980531Y-76766704D01*
X162077821Y-76621099D01*
X162144836Y-76459312D01*
X162179000Y-76287559D01*
X162179000Y-76112441D01*
X162144836Y-75940688D01*
X162077821Y-75778901D01*
X161980531Y-75633296D01*
X161856704Y-75509469D01*
X161711099Y-75412179D01*
X161549312Y-75345164D01*
X161377559Y-75311000D01*
X161202441Y-75311000D01*
X161030688Y-75345164D01*
X160868901Y-75412179D01*
X160723296Y-75509469D01*
X160599469Y-75633296D01*
X160502179Y-75778901D01*
X160435164Y-75940688D01*
X160401000Y-76112441D01*
X159834402Y-76112441D01*
X159918821Y-75986099D01*
X159985836Y-75824312D01*
X160020000Y-75652559D01*
X160020000Y-75477441D01*
X159985836Y-75305688D01*
X159918821Y-75143901D01*
X159821531Y-74998296D01*
X159697704Y-74874469D01*
X159552099Y-74777179D01*
X159390312Y-74710164D01*
X159218559Y-74676000D01*
X159043441Y-74676000D01*
X158871688Y-74710164D01*
X158709901Y-74777179D01*
X158564296Y-74874469D01*
X158440469Y-74998296D01*
X158343179Y-75143901D01*
X158276164Y-75305688D01*
X158242000Y-75477441D01*
X154813000Y-75477441D01*
X154778836Y-75305688D01*
X154711821Y-75143901D01*
X154614531Y-74998296D01*
X154490704Y-74874469D01*
X154345099Y-74777179D01*
X154183312Y-74710164D01*
X154011559Y-74676000D01*
X153836441Y-74676000D01*
X153664688Y-74710164D01*
X153502901Y-74777179D01*
X153357296Y-74874469D01*
X153233469Y-74998296D01*
X153136179Y-75143901D01*
X153069164Y-75305688D01*
X153035000Y-75477441D01*
X149606000Y-75477441D01*
X149571836Y-75305688D01*
X149504821Y-75143901D01*
X149407531Y-74998296D01*
X149283704Y-74874469D01*
X149138099Y-74777179D01*
X148976312Y-74710164D01*
X148804559Y-74676000D01*
X148629441Y-74676000D01*
X148457688Y-74710164D01*
X148295901Y-74777179D01*
X148150296Y-74874469D01*
X148026469Y-74998296D01*
X147929179Y-75143901D01*
X147862164Y-75305688D01*
X147828000Y-75477441D01*
X144399000Y-75477441D01*
X144364836Y-75305688D01*
X144297821Y-75143901D01*
X144200531Y-74998296D01*
X144076704Y-74874469D01*
X143931099Y-74777179D01*
X143769312Y-74710164D01*
X143597559Y-74676000D01*
X143422441Y-74676000D01*
X143250688Y-74710164D01*
X143088901Y-74777179D01*
X142943296Y-74874469D01*
X142819469Y-74998296D01*
X142722179Y-75143901D01*
X142655164Y-75305688D01*
X142621000Y-75477441D01*
X96884594Y-75477441D01*
X96931932Y-75363158D01*
X96989000Y-75076260D01*
X96989000Y-74783740D01*
X96931932Y-74496842D01*
X96819990Y-74226589D01*
X96657475Y-73983368D01*
X96450632Y-73776525D01*
X96276240Y-73660000D01*
X96407281Y-73572441D01*
X162306000Y-73572441D01*
X162306000Y-73747559D01*
X162340164Y-73919312D01*
X162407179Y-74081099D01*
X162504469Y-74226704D01*
X162628296Y-74350531D01*
X162773901Y-74447821D01*
X162935688Y-74514836D01*
X163107441Y-74549000D01*
X163282559Y-74549000D01*
X163454312Y-74514836D01*
X163616099Y-74447821D01*
X163761704Y-74350531D01*
X163885531Y-74226704D01*
X163982821Y-74081099D01*
X164049836Y-73919312D01*
X164084000Y-73747559D01*
X164084000Y-73572441D01*
X164049836Y-73400688D01*
X163982821Y-73238901D01*
X163885531Y-73093296D01*
X163761704Y-72969469D01*
X163616099Y-72872179D01*
X163454312Y-72805164D01*
X163282559Y-72771000D01*
X163107441Y-72771000D01*
X162935688Y-72805164D01*
X162773901Y-72872179D01*
X162628296Y-72969469D01*
X162504469Y-73093296D01*
X162407179Y-73238901D01*
X162340164Y-73400688D01*
X162306000Y-73572441D01*
X96407281Y-73572441D01*
X96450632Y-73543475D01*
X96657475Y-73336632D01*
X96819990Y-73093411D01*
X96931932Y-72823158D01*
X96989000Y-72536260D01*
X96989000Y-72243740D01*
X96931932Y-71956842D01*
X96819990Y-71686589D01*
X96657475Y-71443368D01*
X96627548Y-71413441D01*
X141478000Y-71413441D01*
X141478000Y-71588559D01*
X141512164Y-71760312D01*
X141579179Y-71922099D01*
X141676469Y-72067704D01*
X141800296Y-72191531D01*
X141945901Y-72288821D01*
X142107688Y-72355836D01*
X142279441Y-72390000D01*
X142454559Y-72390000D01*
X142626312Y-72355836D01*
X142788099Y-72288821D01*
X142933704Y-72191531D01*
X143057531Y-72067704D01*
X143154821Y-71922099D01*
X143221836Y-71760312D01*
X143256000Y-71588559D01*
X143256000Y-71413441D01*
X143230738Y-71286441D01*
X157099000Y-71286441D01*
X157099000Y-71461559D01*
X157133164Y-71633312D01*
X157200179Y-71795099D01*
X157297469Y-71940704D01*
X157421296Y-72064531D01*
X157566901Y-72161821D01*
X157728688Y-72228836D01*
X157900441Y-72263000D01*
X158075559Y-72263000D01*
X158247312Y-72228836D01*
X158409099Y-72161821D01*
X158554704Y-72064531D01*
X158678531Y-71940704D01*
X158775821Y-71795099D01*
X158842836Y-71633312D01*
X158877000Y-71461559D01*
X158877000Y-71286441D01*
X158842836Y-71114688D01*
X158775821Y-70952901D01*
X158678531Y-70807296D01*
X158554704Y-70683469D01*
X158409099Y-70586179D01*
X158247312Y-70519164D01*
X158075559Y-70485000D01*
X157900441Y-70485000D01*
X157728688Y-70519164D01*
X157566901Y-70586179D01*
X157421296Y-70683469D01*
X157297469Y-70807296D01*
X157200179Y-70952901D01*
X157133164Y-71114688D01*
X157099000Y-71286441D01*
X143230738Y-71286441D01*
X143221836Y-71241688D01*
X143154821Y-71079901D01*
X143057531Y-70934296D01*
X142933704Y-70810469D01*
X142788099Y-70713179D01*
X142626312Y-70646164D01*
X142454559Y-70612000D01*
X142279441Y-70612000D01*
X142107688Y-70646164D01*
X141945901Y-70713179D01*
X141800296Y-70810469D01*
X141676469Y-70934296D01*
X141579179Y-71079901D01*
X141512164Y-71241688D01*
X141478000Y-71413441D01*
X96627548Y-71413441D01*
X96450632Y-71236525D01*
X96276240Y-71120000D01*
X96450632Y-71003475D01*
X96657475Y-70796632D01*
X96819990Y-70553411D01*
X96931932Y-70283158D01*
X96984985Y-70016441D01*
X145161000Y-70016441D01*
X145161000Y-70191559D01*
X145195164Y-70363312D01*
X145262179Y-70525099D01*
X145359469Y-70670704D01*
X145483296Y-70794531D01*
X145628901Y-70891821D01*
X145790688Y-70958836D01*
X145962441Y-70993000D01*
X146137559Y-70993000D01*
X146309312Y-70958836D01*
X146471099Y-70891821D01*
X146616704Y-70794531D01*
X146740531Y-70670704D01*
X146837821Y-70525099D01*
X146904836Y-70363312D01*
X146939000Y-70191559D01*
X146939000Y-70137500D01*
X177059952Y-70137500D01*
X177059952Y-72957500D01*
X179127186Y-72957500D01*
X179177596Y-73079201D01*
X179336828Y-73317508D01*
X179539492Y-73520172D01*
X179748759Y-73660000D01*
X179539492Y-73799828D01*
X179336828Y-74002492D01*
X179177596Y-74240799D01*
X179067915Y-74505592D01*
X179012000Y-74786695D01*
X179012000Y-75073305D01*
X179067915Y-75354408D01*
X179177596Y-75619201D01*
X179336828Y-75857508D01*
X179539492Y-76060172D01*
X179747286Y-76199016D01*
X179713627Y-76217007D01*
X179639624Y-76463018D01*
X180467000Y-77290395D01*
X181294376Y-76463018D01*
X181220373Y-76217007D01*
X181184951Y-76200194D01*
X181394508Y-76060172D01*
X181597172Y-75857508D01*
X181737000Y-75648241D01*
X181876828Y-75857508D01*
X182079492Y-76060172D01*
X182288759Y-76200000D01*
X182079492Y-76339828D01*
X181876828Y-76542492D01*
X181737984Y-76750286D01*
X181719993Y-76716627D01*
X181473982Y-76642624D01*
X180646605Y-77470000D01*
X181473982Y-78297376D01*
X181719993Y-78223373D01*
X181736806Y-78187951D01*
X181876828Y-78397508D01*
X182079492Y-78600172D01*
X182288759Y-78740000D01*
X182079492Y-78879828D01*
X181876828Y-79082492D01*
X181737000Y-79291759D01*
X181597172Y-79082492D01*
X181394508Y-78879828D01*
X181186714Y-78740984D01*
X181220373Y-78722993D01*
X181294376Y-78476982D01*
X180467000Y-77649605D01*
X179639624Y-78476982D01*
X179713627Y-78722993D01*
X179749049Y-78739806D01*
X179539492Y-78879828D01*
X179336828Y-79082492D01*
X179177596Y-79320799D01*
X179067915Y-79585592D01*
X179012000Y-79866695D01*
X179012000Y-80153305D01*
X179067915Y-80434408D01*
X179177596Y-80699201D01*
X179336828Y-80937508D01*
X179539492Y-81140172D01*
X179748759Y-81280000D01*
X179539492Y-81419828D01*
X179336828Y-81622492D01*
X179177596Y-81860799D01*
X179067915Y-82125592D01*
X179012000Y-82406695D01*
X179012000Y-82693305D01*
X179067915Y-82974408D01*
X179177596Y-83239201D01*
X179336828Y-83477508D01*
X179539492Y-83680172D01*
X179748759Y-83820000D01*
X179539492Y-83959828D01*
X179336828Y-84162492D01*
X179177596Y-84400799D01*
X179067915Y-84665592D01*
X179012000Y-84946695D01*
X179012000Y-85233305D01*
X179067915Y-85514408D01*
X179177596Y-85779201D01*
X179336828Y-86017508D01*
X179539492Y-86220172D01*
X179777799Y-86379404D01*
X180042592Y-86489085D01*
X180323695Y-86545000D01*
X180610305Y-86545000D01*
X180891408Y-86489085D01*
X181156201Y-86379404D01*
X181394508Y-86220172D01*
X181597172Y-86017508D01*
X181737000Y-85808241D01*
X181876828Y-86017508D01*
X182079492Y-86220172D01*
X182317799Y-86379404D01*
X182582592Y-86489085D01*
X182863695Y-86545000D01*
X183150305Y-86545000D01*
X183431408Y-86489085D01*
X183696201Y-86379404D01*
X183934508Y-86220172D01*
X184137172Y-86017508D01*
X184296404Y-85779201D01*
X184406085Y-85514408D01*
X184462000Y-85233305D01*
X184462000Y-84946695D01*
X184406085Y-84665592D01*
X184296404Y-84400799D01*
X184137172Y-84162492D01*
X183934508Y-83959828D01*
X183725241Y-83820000D01*
X183934508Y-83680172D01*
X184137172Y-83477508D01*
X184296404Y-83239201D01*
X184406085Y-82974408D01*
X184462000Y-82693305D01*
X184462000Y-82406695D01*
X184406085Y-82125592D01*
X184296404Y-81860799D01*
X184137172Y-81622492D01*
X183934508Y-81419828D01*
X183725241Y-81280000D01*
X183934508Y-81140172D01*
X184137172Y-80937508D01*
X184296404Y-80699201D01*
X184406085Y-80434408D01*
X184462000Y-80153305D01*
X184462000Y-79866695D01*
X184406085Y-79585592D01*
X184296404Y-79320799D01*
X184137172Y-79082492D01*
X183934508Y-78879828D01*
X183725241Y-78740000D01*
X183934508Y-78600172D01*
X184137172Y-78397508D01*
X184296404Y-78159201D01*
X184406085Y-77894408D01*
X184462000Y-77613305D01*
X184462000Y-77326695D01*
X184406085Y-77045592D01*
X184296404Y-76780799D01*
X184137172Y-76542492D01*
X183934508Y-76339828D01*
X183725241Y-76200000D01*
X183934508Y-76060172D01*
X184137172Y-75857508D01*
X184296404Y-75619201D01*
X184406085Y-75354408D01*
X184462000Y-75073305D01*
X184462000Y-74786695D01*
X184406085Y-74505592D01*
X184296404Y-74240799D01*
X184137172Y-74002492D01*
X183934508Y-73799828D01*
X183725241Y-73660000D01*
X183934508Y-73520172D01*
X184137172Y-73317508D01*
X184296404Y-73079201D01*
X184406085Y-72814408D01*
X184462000Y-72533305D01*
X184462000Y-72246695D01*
X184406085Y-71965592D01*
X184296404Y-71700799D01*
X184137172Y-71462492D01*
X183934508Y-71259828D01*
X183725241Y-71120000D01*
X183934508Y-70980172D01*
X184137172Y-70777508D01*
X184296404Y-70539201D01*
X184406085Y-70274408D01*
X184462000Y-69993305D01*
X184462000Y-69706695D01*
X184406085Y-69425592D01*
X184296404Y-69160799D01*
X184137172Y-68922492D01*
X183934508Y-68719828D01*
X183725241Y-68580000D01*
X183934508Y-68440172D01*
X184137172Y-68237508D01*
X184296404Y-67999201D01*
X184406085Y-67734408D01*
X184462000Y-67453305D01*
X184462000Y-67166695D01*
X184406085Y-66885592D01*
X184296404Y-66620799D01*
X184137172Y-66382492D01*
X183934508Y-66179828D01*
X183725241Y-66040000D01*
X183934508Y-65900172D01*
X184137172Y-65697508D01*
X184296404Y-65459201D01*
X184406085Y-65194408D01*
X184462000Y-64913305D01*
X184462000Y-64626695D01*
X184406085Y-64345592D01*
X184296404Y-64080799D01*
X184137172Y-63842492D01*
X183934508Y-63639828D01*
X183725241Y-63500000D01*
X183934508Y-63360172D01*
X184137172Y-63157508D01*
X184296404Y-62919201D01*
X184406085Y-62654408D01*
X184462000Y-62373305D01*
X184462000Y-62086695D01*
X184406085Y-61805592D01*
X184296404Y-61540799D01*
X184137172Y-61302492D01*
X183934508Y-61099828D01*
X183725241Y-60960000D01*
X183934508Y-60820172D01*
X184137172Y-60617508D01*
X184296404Y-60379201D01*
X184406085Y-60114408D01*
X184462000Y-59833305D01*
X184462000Y-59546695D01*
X184406085Y-59265592D01*
X184296404Y-59000799D01*
X184137172Y-58762492D01*
X183934508Y-58559828D01*
X183696201Y-58400596D01*
X183431408Y-58290915D01*
X183150305Y-58235000D01*
X182863695Y-58235000D01*
X182582592Y-58290915D01*
X182317799Y-58400596D01*
X182079492Y-58559828D01*
X181876828Y-58762492D01*
X181737000Y-58971759D01*
X181597172Y-58762492D01*
X181394508Y-58559828D01*
X181156201Y-58400596D01*
X180891408Y-58290915D01*
X180610305Y-58235000D01*
X180323695Y-58235000D01*
X180042592Y-58290915D01*
X179777799Y-58400596D01*
X179539492Y-58559828D01*
X179336828Y-58762492D01*
X179177596Y-59000799D01*
X179067915Y-59265592D01*
X179012000Y-59546695D01*
X179012000Y-59833305D01*
X179067915Y-60114408D01*
X179177596Y-60379201D01*
X179336828Y-60617508D01*
X179539492Y-60820172D01*
X179748759Y-60960000D01*
X179539492Y-61099828D01*
X179336828Y-61302492D01*
X179177596Y-61540799D01*
X179067915Y-61805592D01*
X179012000Y-62086695D01*
X179012000Y-62373305D01*
X179067915Y-62654408D01*
X179177596Y-62919201D01*
X179336828Y-63157508D01*
X179539492Y-63360172D01*
X179748759Y-63500000D01*
X179539492Y-63639828D01*
X179336828Y-63842492D01*
X179177596Y-64080799D01*
X179067915Y-64345592D01*
X179012000Y-64626695D01*
X179012000Y-64913305D01*
X179067915Y-65194408D01*
X179177596Y-65459201D01*
X179336828Y-65697508D01*
X179539492Y-65900172D01*
X179748759Y-66040000D01*
X179539492Y-66179828D01*
X179336828Y-66382492D01*
X179177596Y-66620799D01*
X179067915Y-66885592D01*
X179012000Y-67166695D01*
X179012000Y-67453305D01*
X179067915Y-67734408D01*
X179177596Y-67999201D01*
X179336828Y-68237508D01*
X179539492Y-68440172D01*
X179748759Y-68580000D01*
X179539492Y-68719828D01*
X179336828Y-68922492D01*
X179177596Y-69160799D01*
X179067915Y-69425592D01*
X179012000Y-69706695D01*
X179012000Y-69993305D01*
X179040682Y-70137500D01*
X177059952Y-70137500D01*
X146939000Y-70137500D01*
X146939000Y-70016441D01*
X146904836Y-69844688D01*
X146837821Y-69682901D01*
X146740531Y-69537296D01*
X146616704Y-69413469D01*
X146471099Y-69316179D01*
X146309312Y-69249164D01*
X146137559Y-69215000D01*
X145962441Y-69215000D01*
X145790688Y-69249164D01*
X145628901Y-69316179D01*
X145483296Y-69413469D01*
X145359469Y-69537296D01*
X145262179Y-69682901D01*
X145195164Y-69844688D01*
X145161000Y-70016441D01*
X96984985Y-70016441D01*
X96989000Y-69996260D01*
X96989000Y-69703740D01*
X96931932Y-69416842D01*
X96819990Y-69146589D01*
X96720333Y-68997441D01*
X116205000Y-68997441D01*
X116205000Y-69172559D01*
X116239164Y-69344312D01*
X116306179Y-69506099D01*
X116403469Y-69651704D01*
X116527296Y-69775531D01*
X116672901Y-69872821D01*
X116834688Y-69939836D01*
X117006441Y-69974000D01*
X117181559Y-69974000D01*
X117353312Y-69939836D01*
X117515099Y-69872821D01*
X117660704Y-69775531D01*
X117784531Y-69651704D01*
X117881821Y-69506099D01*
X117948836Y-69344312D01*
X117983000Y-69172559D01*
X117983000Y-68997441D01*
X117948836Y-68825688D01*
X117881821Y-68663901D01*
X117784531Y-68518296D01*
X117660704Y-68394469D01*
X117515099Y-68297179D01*
X117353312Y-68230164D01*
X117181559Y-68196000D01*
X117006441Y-68196000D01*
X116834688Y-68230164D01*
X116672901Y-68297179D01*
X116527296Y-68394469D01*
X116403469Y-68518296D01*
X116306179Y-68663901D01*
X116239164Y-68825688D01*
X116205000Y-68997441D01*
X96720333Y-68997441D01*
X96657475Y-68903368D01*
X96450632Y-68696525D01*
X96276240Y-68580000D01*
X96450632Y-68463475D01*
X96657475Y-68256632D01*
X96819990Y-68013411D01*
X96931932Y-67743158D01*
X96989000Y-67456260D01*
X96989000Y-67222441D01*
X127000000Y-67222441D01*
X127000000Y-67397559D01*
X127034164Y-67569312D01*
X127101179Y-67731099D01*
X127198469Y-67876704D01*
X127322296Y-68000531D01*
X127467901Y-68097821D01*
X127629688Y-68164836D01*
X127801441Y-68199000D01*
X127976559Y-68199000D01*
X128148312Y-68164836D01*
X128310099Y-68097821D01*
X128455704Y-68000531D01*
X128579531Y-67876704D01*
X128676821Y-67731099D01*
X128743836Y-67569312D01*
X128778000Y-67397559D01*
X128778000Y-67222441D01*
X132207000Y-67222441D01*
X132207000Y-67397559D01*
X132241164Y-67569312D01*
X132308179Y-67731099D01*
X132405469Y-67876704D01*
X132529296Y-68000531D01*
X132674901Y-68097821D01*
X132836688Y-68164836D01*
X133008441Y-68199000D01*
X133183559Y-68199000D01*
X133355312Y-68164836D01*
X133517099Y-68097821D01*
X133662704Y-68000531D01*
X133678794Y-67984441D01*
X134874000Y-67984441D01*
X134874000Y-68159559D01*
X134908164Y-68331312D01*
X134975179Y-68493099D01*
X135072469Y-68638704D01*
X135196296Y-68762531D01*
X135341901Y-68859821D01*
X135503688Y-68926836D01*
X135675441Y-68961000D01*
X135850559Y-68961000D01*
X136022312Y-68926836D01*
X136184099Y-68859821D01*
X136329704Y-68762531D01*
X136345794Y-68746441D01*
X150850600Y-68746441D01*
X150850600Y-68921559D01*
X150884764Y-69093312D01*
X150951779Y-69255099D01*
X151049069Y-69400704D01*
X151172896Y-69524531D01*
X151318501Y-69621821D01*
X151480288Y-69688836D01*
X151652041Y-69723000D01*
X151827159Y-69723000D01*
X151998912Y-69688836D01*
X152160699Y-69621821D01*
X152306304Y-69524531D01*
X152430131Y-69400704D01*
X152527421Y-69255099D01*
X152594436Y-69093312D01*
X152628600Y-68921559D01*
X152628600Y-68746441D01*
X152594436Y-68574688D01*
X152527421Y-68412901D01*
X152430131Y-68267296D01*
X152306304Y-68143469D01*
X152160699Y-68046179D01*
X151998912Y-67979164D01*
X151827159Y-67945000D01*
X151652041Y-67945000D01*
X151480288Y-67979164D01*
X151318501Y-68046179D01*
X151172896Y-68143469D01*
X151049069Y-68267296D01*
X150951779Y-68412901D01*
X150884764Y-68574688D01*
X150850600Y-68746441D01*
X136345794Y-68746441D01*
X136453531Y-68638704D01*
X136550821Y-68493099D01*
X136617836Y-68331312D01*
X136652000Y-68159559D01*
X136652000Y-67984441D01*
X136617836Y-67812688D01*
X136550821Y-67650901D01*
X136453531Y-67505296D01*
X136329704Y-67381469D01*
X136184099Y-67284179D01*
X136022312Y-67217164D01*
X135850559Y-67183000D01*
X135675441Y-67183000D01*
X135503688Y-67217164D01*
X135341901Y-67284179D01*
X135196296Y-67381469D01*
X135072469Y-67505296D01*
X134975179Y-67650901D01*
X134908164Y-67812688D01*
X134874000Y-67984441D01*
X133678794Y-67984441D01*
X133786531Y-67876704D01*
X133883821Y-67731099D01*
X133950836Y-67569312D01*
X133985000Y-67397559D01*
X133985000Y-67222441D01*
X133950836Y-67050688D01*
X133916768Y-66968441D01*
X137414000Y-66968441D01*
X137414000Y-67143559D01*
X137448164Y-67315312D01*
X137515179Y-67477099D01*
X137612469Y-67622704D01*
X137736296Y-67746531D01*
X137881901Y-67843821D01*
X138043688Y-67910836D01*
X138215441Y-67945000D01*
X138390559Y-67945000D01*
X138562312Y-67910836D01*
X138724099Y-67843821D01*
X138869704Y-67746531D01*
X138993531Y-67622704D01*
X139090821Y-67477099D01*
X139157836Y-67315312D01*
X139176309Y-67222441D01*
X142621000Y-67222441D01*
X142621000Y-67397559D01*
X142655164Y-67569312D01*
X142722179Y-67731099D01*
X142819469Y-67876704D01*
X142943296Y-68000531D01*
X143088901Y-68097821D01*
X143250688Y-68164836D01*
X143422441Y-68199000D01*
X143597559Y-68199000D01*
X143769312Y-68164836D01*
X143931099Y-68097821D01*
X144076704Y-68000531D01*
X144200531Y-67876704D01*
X144297821Y-67731099D01*
X144364836Y-67569312D01*
X144399000Y-67397559D01*
X144399000Y-67222441D01*
X147828000Y-67222441D01*
X147828000Y-67397559D01*
X147862164Y-67569312D01*
X147929179Y-67731099D01*
X148026469Y-67876704D01*
X148150296Y-68000531D01*
X148295901Y-68097821D01*
X148457688Y-68164836D01*
X148629441Y-68199000D01*
X148804559Y-68199000D01*
X148976312Y-68164836D01*
X149138099Y-68097821D01*
X149283704Y-68000531D01*
X149407531Y-67876704D01*
X149504821Y-67731099D01*
X149571836Y-67569312D01*
X149606000Y-67397559D01*
X149606000Y-67222441D01*
X153035000Y-67222441D01*
X153035000Y-67397559D01*
X153069164Y-67569312D01*
X153136179Y-67731099D01*
X153233469Y-67876704D01*
X153357296Y-68000531D01*
X153502901Y-68097821D01*
X153664688Y-68164836D01*
X153836441Y-68199000D01*
X154011559Y-68199000D01*
X154183312Y-68164836D01*
X154345099Y-68097821D01*
X154490704Y-68000531D01*
X154614531Y-67876704D01*
X154711821Y-67731099D01*
X154778836Y-67569312D01*
X154813000Y-67397559D01*
X154813000Y-67222441D01*
X158242000Y-67222441D01*
X158242000Y-67397559D01*
X158276164Y-67569312D01*
X158343179Y-67731099D01*
X158440469Y-67876704D01*
X158564296Y-68000531D01*
X158709901Y-68097821D01*
X158871688Y-68164836D01*
X159043441Y-68199000D01*
X159218559Y-68199000D01*
X159390312Y-68164836D01*
X159552099Y-68097821D01*
X159697704Y-68000531D01*
X159821531Y-67876704D01*
X159918821Y-67731099D01*
X159985836Y-67569312D01*
X160020000Y-67397559D01*
X160020000Y-67222441D01*
X163449000Y-67222441D01*
X163449000Y-67397559D01*
X163483164Y-67569312D01*
X163550179Y-67731099D01*
X163647469Y-67876704D01*
X163771296Y-68000531D01*
X163916901Y-68097821D01*
X164078688Y-68164836D01*
X164250441Y-68199000D01*
X164425559Y-68199000D01*
X164597312Y-68164836D01*
X164759099Y-68097821D01*
X164904704Y-68000531D01*
X165028531Y-67876704D01*
X165125821Y-67731099D01*
X165192836Y-67569312D01*
X165227000Y-67397559D01*
X165227000Y-67222441D01*
X165192836Y-67050688D01*
X165125821Y-66888901D01*
X165028531Y-66743296D01*
X164904704Y-66619469D01*
X164759099Y-66522179D01*
X164597312Y-66455164D01*
X164425559Y-66421000D01*
X164250441Y-66421000D01*
X164078688Y-66455164D01*
X163916901Y-66522179D01*
X163771296Y-66619469D01*
X163647469Y-66743296D01*
X163550179Y-66888901D01*
X163483164Y-67050688D01*
X163449000Y-67222441D01*
X160020000Y-67222441D01*
X159985836Y-67050688D01*
X159918821Y-66888901D01*
X159821531Y-66743296D01*
X159697704Y-66619469D01*
X159552099Y-66522179D01*
X159390312Y-66455164D01*
X159218559Y-66421000D01*
X159043441Y-66421000D01*
X158871688Y-66455164D01*
X158709901Y-66522179D01*
X158564296Y-66619469D01*
X158440469Y-66743296D01*
X158343179Y-66888901D01*
X158276164Y-67050688D01*
X158242000Y-67222441D01*
X154813000Y-67222441D01*
X154778836Y-67050688D01*
X154711821Y-66888901D01*
X154614531Y-66743296D01*
X154490704Y-66619469D01*
X154345099Y-66522179D01*
X154183312Y-66455164D01*
X154011559Y-66421000D01*
X153836441Y-66421000D01*
X153664688Y-66455164D01*
X153502901Y-66522179D01*
X153357296Y-66619469D01*
X153233469Y-66743296D01*
X153136179Y-66888901D01*
X153069164Y-67050688D01*
X153035000Y-67222441D01*
X149606000Y-67222441D01*
X149571836Y-67050688D01*
X149504821Y-66888901D01*
X149407531Y-66743296D01*
X149283704Y-66619469D01*
X149138099Y-66522179D01*
X148976312Y-66455164D01*
X148804559Y-66421000D01*
X148629441Y-66421000D01*
X148457688Y-66455164D01*
X148295901Y-66522179D01*
X148150296Y-66619469D01*
X148026469Y-66743296D01*
X147929179Y-66888901D01*
X147862164Y-67050688D01*
X147828000Y-67222441D01*
X144399000Y-67222441D01*
X144364836Y-67050688D01*
X144297821Y-66888901D01*
X144200531Y-66743296D01*
X144076704Y-66619469D01*
X143931099Y-66522179D01*
X143769312Y-66455164D01*
X143597559Y-66421000D01*
X143422441Y-66421000D01*
X143250688Y-66455164D01*
X143088901Y-66522179D01*
X142943296Y-66619469D01*
X142819469Y-66743296D01*
X142722179Y-66888901D01*
X142655164Y-67050688D01*
X142621000Y-67222441D01*
X139176309Y-67222441D01*
X139192000Y-67143559D01*
X139192000Y-66968441D01*
X139157836Y-66796688D01*
X139090821Y-66634901D01*
X138993531Y-66489296D01*
X138869704Y-66365469D01*
X138724099Y-66268179D01*
X138562312Y-66201164D01*
X138390559Y-66167000D01*
X138215441Y-66167000D01*
X138043688Y-66201164D01*
X137881901Y-66268179D01*
X137736296Y-66365469D01*
X137612469Y-66489296D01*
X137515179Y-66634901D01*
X137448164Y-66796688D01*
X137414000Y-66968441D01*
X133916768Y-66968441D01*
X133883821Y-66888901D01*
X133786531Y-66743296D01*
X133662704Y-66619469D01*
X133517099Y-66522179D01*
X133355312Y-66455164D01*
X133183559Y-66421000D01*
X133008441Y-66421000D01*
X132836688Y-66455164D01*
X132674901Y-66522179D01*
X132529296Y-66619469D01*
X132405469Y-66743296D01*
X132308179Y-66888901D01*
X132241164Y-67050688D01*
X132207000Y-67222441D01*
X128778000Y-67222441D01*
X128743836Y-67050688D01*
X128676821Y-66888901D01*
X128579531Y-66743296D01*
X128455704Y-66619469D01*
X128310099Y-66522179D01*
X128148312Y-66455164D01*
X127976559Y-66421000D01*
X127801441Y-66421000D01*
X127629688Y-66455164D01*
X127467901Y-66522179D01*
X127322296Y-66619469D01*
X127198469Y-66743296D01*
X127101179Y-66888901D01*
X127034164Y-67050688D01*
X127000000Y-67222441D01*
X96989000Y-67222441D01*
X96989000Y-67163740D01*
X96931932Y-66876842D01*
X96819990Y-66606589D01*
X96657475Y-66363368D01*
X96450632Y-66156525D01*
X96276240Y-66040000D01*
X96450632Y-65923475D01*
X96657475Y-65716632D01*
X96754488Y-65571441D01*
X124333000Y-65571441D01*
X124333000Y-65746559D01*
X124367164Y-65918312D01*
X124434179Y-66080099D01*
X124531469Y-66225704D01*
X124655296Y-66349531D01*
X124800901Y-66446821D01*
X124962688Y-66513836D01*
X125134441Y-66548000D01*
X125309559Y-66548000D01*
X125481312Y-66513836D01*
X125643099Y-66446821D01*
X125788704Y-66349531D01*
X125912531Y-66225704D01*
X126009821Y-66080099D01*
X126062699Y-65952441D01*
X129921000Y-65952441D01*
X129921000Y-66127559D01*
X129955164Y-66299312D01*
X130022179Y-66461099D01*
X130119469Y-66606704D01*
X130243296Y-66730531D01*
X130388901Y-66827821D01*
X130550688Y-66894836D01*
X130722441Y-66929000D01*
X130897559Y-66929000D01*
X131069312Y-66894836D01*
X131231099Y-66827821D01*
X131376704Y-66730531D01*
X131500531Y-66606704D01*
X131597821Y-66461099D01*
X131664836Y-66299312D01*
X131699000Y-66127559D01*
X131699000Y-65952441D01*
X131664836Y-65780688D01*
X131597821Y-65618901D01*
X131500531Y-65473296D01*
X131376704Y-65349469D01*
X131231099Y-65252179D01*
X131069312Y-65185164D01*
X130897559Y-65151000D01*
X130722441Y-65151000D01*
X130550688Y-65185164D01*
X130388901Y-65252179D01*
X130243296Y-65349469D01*
X130119469Y-65473296D01*
X130022179Y-65618901D01*
X129955164Y-65780688D01*
X129921000Y-65952441D01*
X126062699Y-65952441D01*
X126076836Y-65918312D01*
X126111000Y-65746559D01*
X126111000Y-65571441D01*
X126076836Y-65399688D01*
X126009821Y-65237901D01*
X125912531Y-65092296D01*
X125788704Y-64968469D01*
X125643099Y-64871179D01*
X125481312Y-64804164D01*
X125309559Y-64770000D01*
X125134441Y-64770000D01*
X124962688Y-64804164D01*
X124800901Y-64871179D01*
X124655296Y-64968469D01*
X124531469Y-65092296D01*
X124434179Y-65237901D01*
X124367164Y-65399688D01*
X124333000Y-65571441D01*
X96754488Y-65571441D01*
X96819990Y-65473411D01*
X96931932Y-65203158D01*
X96989000Y-64916260D01*
X96989000Y-64623740D01*
X96931932Y-64336842D01*
X96819990Y-64066589D01*
X96657475Y-63823368D01*
X96450632Y-63616525D01*
X96276240Y-63500000D01*
X96450632Y-63383475D01*
X96657475Y-63176632D01*
X96819990Y-62933411D01*
X96931932Y-62663158D01*
X96989000Y-62376260D01*
X96989000Y-62083740D01*
X96931932Y-61796842D01*
X96819990Y-61526589D01*
X96657475Y-61283368D01*
X96450632Y-61076525D01*
X96276240Y-60960000D01*
X96450632Y-60843475D01*
X96657475Y-60636632D01*
X96819990Y-60393411D01*
X96931932Y-60123158D01*
X96989000Y-59836260D01*
X96989000Y-59543740D01*
X96974307Y-59469872D01*
X98730000Y-59469872D01*
X98730000Y-59910128D01*
X98815890Y-60341925D01*
X98984369Y-60748669D01*
X99228962Y-61114729D01*
X99540271Y-61426038D01*
X99906331Y-61670631D01*
X100313075Y-61839110D01*
X100744872Y-61925000D01*
X101185128Y-61925000D01*
X101616925Y-61839110D01*
X102023669Y-61670631D01*
X102389729Y-61426038D01*
X102701038Y-61114729D01*
X102945631Y-60748669D01*
X103068502Y-60452032D01*
X106265000Y-60452032D01*
X106265000Y-60847968D01*
X106342243Y-61236296D01*
X106493761Y-61602092D01*
X106713731Y-61931301D01*
X106993699Y-62211269D01*
X107322908Y-62431239D01*
X107688704Y-62582757D01*
X108077032Y-62660000D01*
X108472968Y-62660000D01*
X108861296Y-62582757D01*
X109227092Y-62431239D01*
X109556301Y-62211269D01*
X109836269Y-61931301D01*
X110056239Y-61602092D01*
X110207757Y-61236296D01*
X110249030Y-61028800D01*
X111789528Y-61028800D01*
X111789528Y-62728800D01*
X111801788Y-62853282D01*
X111838098Y-62972980D01*
X111897063Y-63083294D01*
X111976415Y-63179985D01*
X112073106Y-63259337D01*
X112183420Y-63318302D01*
X112303118Y-63354612D01*
X112427600Y-63366872D01*
X114127600Y-63366872D01*
X114252082Y-63354612D01*
X114371780Y-63318302D01*
X114482094Y-63259337D01*
X114578785Y-63179985D01*
X114658137Y-63083294D01*
X114717102Y-62972980D01*
X114739113Y-62900420D01*
X114870968Y-63032275D01*
X115114189Y-63194790D01*
X115384442Y-63306732D01*
X115671340Y-63363800D01*
X115963860Y-63363800D01*
X116250758Y-63306732D01*
X116521011Y-63194790D01*
X116764232Y-63032275D01*
X116971075Y-62825432D01*
X117087600Y-62651040D01*
X117204125Y-62825432D01*
X117410968Y-63032275D01*
X117654189Y-63194790D01*
X117924442Y-63306732D01*
X118211340Y-63363800D01*
X118503860Y-63363800D01*
X118790758Y-63306732D01*
X119061011Y-63194790D01*
X119304232Y-63032275D01*
X119511075Y-62825432D01*
X119627600Y-62651040D01*
X119744125Y-62825432D01*
X119950968Y-63032275D01*
X120194189Y-63194790D01*
X120464442Y-63306732D01*
X120751340Y-63363800D01*
X121043860Y-63363800D01*
X121330758Y-63306732D01*
X121601011Y-63194790D01*
X121844232Y-63032275D01*
X122051075Y-62825432D01*
X122167600Y-62651040D01*
X122284125Y-62825432D01*
X122490968Y-63032275D01*
X122734189Y-63194790D01*
X123004442Y-63306732D01*
X123291340Y-63363800D01*
X123583860Y-63363800D01*
X123870758Y-63306732D01*
X124141011Y-63194790D01*
X124384232Y-63032275D01*
X124591075Y-62825432D01*
X124707600Y-62651040D01*
X124824125Y-62825432D01*
X125030968Y-63032275D01*
X125274189Y-63194790D01*
X125544442Y-63306732D01*
X125831340Y-63363800D01*
X126123860Y-63363800D01*
X126410758Y-63306732D01*
X126681011Y-63194790D01*
X126924232Y-63032275D01*
X127131075Y-62825432D01*
X127247600Y-62651040D01*
X127364125Y-62825432D01*
X127570968Y-63032275D01*
X127814189Y-63194790D01*
X128084442Y-63306732D01*
X128371340Y-63363800D01*
X128663860Y-63363800D01*
X128950758Y-63306732D01*
X129221011Y-63194790D01*
X129464232Y-63032275D01*
X129671075Y-62825432D01*
X129787600Y-62651040D01*
X129904125Y-62825432D01*
X130110968Y-63032275D01*
X130354189Y-63194790D01*
X130624442Y-63306732D01*
X130911340Y-63363800D01*
X131203860Y-63363800D01*
X131490758Y-63306732D01*
X131761011Y-63194790D01*
X132004232Y-63032275D01*
X132211075Y-62825432D01*
X132327600Y-62651040D01*
X132444125Y-62825432D01*
X132650968Y-63032275D01*
X132894189Y-63194790D01*
X133164442Y-63306732D01*
X133451340Y-63363800D01*
X133743860Y-63363800D01*
X134030758Y-63306732D01*
X134301011Y-63194790D01*
X134544232Y-63032275D01*
X134751075Y-62825432D01*
X134867600Y-62651040D01*
X134984125Y-62825432D01*
X135190968Y-63032275D01*
X135434189Y-63194790D01*
X135704442Y-63306732D01*
X135991340Y-63363800D01*
X136283860Y-63363800D01*
X136570758Y-63306732D01*
X136841011Y-63194790D01*
X137084232Y-63032275D01*
X137291075Y-62825432D01*
X137407600Y-62651040D01*
X137524125Y-62825432D01*
X137730968Y-63032275D01*
X137974189Y-63194790D01*
X138244442Y-63306732D01*
X138531340Y-63363800D01*
X138823860Y-63363800D01*
X139110758Y-63306732D01*
X139381011Y-63194790D01*
X139624232Y-63032275D01*
X139831075Y-62825432D01*
X139947600Y-62651040D01*
X140064125Y-62825432D01*
X140270968Y-63032275D01*
X140514189Y-63194790D01*
X140784442Y-63306732D01*
X141071340Y-63363800D01*
X141363860Y-63363800D01*
X141650758Y-63306732D01*
X141921011Y-63194790D01*
X142164232Y-63032275D01*
X142371075Y-62825432D01*
X142487600Y-62651040D01*
X142604125Y-62825432D01*
X142810968Y-63032275D01*
X143054189Y-63194790D01*
X143324442Y-63306732D01*
X143611340Y-63363800D01*
X143903860Y-63363800D01*
X144190758Y-63306732D01*
X144461011Y-63194790D01*
X144704232Y-63032275D01*
X144911075Y-62825432D01*
X145027600Y-62651040D01*
X145144125Y-62825432D01*
X145350968Y-63032275D01*
X145594189Y-63194790D01*
X145864442Y-63306732D01*
X146151340Y-63363800D01*
X146443860Y-63363800D01*
X146730758Y-63306732D01*
X147001011Y-63194790D01*
X147244232Y-63032275D01*
X147451075Y-62825432D01*
X147567600Y-62651040D01*
X147684125Y-62825432D01*
X147890968Y-63032275D01*
X148134189Y-63194790D01*
X148404442Y-63306732D01*
X148691340Y-63363800D01*
X148983860Y-63363800D01*
X149270758Y-63306732D01*
X149541011Y-63194790D01*
X149784232Y-63032275D01*
X149991075Y-62825432D01*
X150107600Y-62651040D01*
X150224125Y-62825432D01*
X150430968Y-63032275D01*
X150674189Y-63194790D01*
X150944442Y-63306732D01*
X151231340Y-63363800D01*
X151523860Y-63363800D01*
X151810758Y-63306732D01*
X152081011Y-63194790D01*
X152324232Y-63032275D01*
X152531075Y-62825432D01*
X152647600Y-62651040D01*
X152764125Y-62825432D01*
X152970968Y-63032275D01*
X153214189Y-63194790D01*
X153484442Y-63306732D01*
X153771340Y-63363800D01*
X154063860Y-63363800D01*
X154350758Y-63306732D01*
X154621011Y-63194790D01*
X154864232Y-63032275D01*
X155071075Y-62825432D01*
X155187600Y-62651040D01*
X155304125Y-62825432D01*
X155510968Y-63032275D01*
X155754189Y-63194790D01*
X156024442Y-63306732D01*
X156311340Y-63363800D01*
X156603860Y-63363800D01*
X156890758Y-63306732D01*
X157161011Y-63194790D01*
X157404232Y-63032275D01*
X157611075Y-62825432D01*
X157727600Y-62651040D01*
X157844125Y-62825432D01*
X158050968Y-63032275D01*
X158294189Y-63194790D01*
X158564442Y-63306732D01*
X158851340Y-63363800D01*
X159143860Y-63363800D01*
X159430758Y-63306732D01*
X159701011Y-63194790D01*
X159944232Y-63032275D01*
X160151075Y-62825432D01*
X160267600Y-62651040D01*
X160384125Y-62825432D01*
X160590968Y-63032275D01*
X160834189Y-63194790D01*
X161104442Y-63306732D01*
X161391340Y-63363800D01*
X161683860Y-63363800D01*
X161970758Y-63306732D01*
X162241011Y-63194790D01*
X162484232Y-63032275D01*
X162691075Y-62825432D01*
X162853590Y-62582211D01*
X162965532Y-62311958D01*
X163022600Y-62025060D01*
X163022600Y-61732540D01*
X162965532Y-61445642D01*
X162853590Y-61175389D01*
X162691075Y-60932168D01*
X162484232Y-60725325D01*
X162309840Y-60608800D01*
X162484232Y-60492275D01*
X162524475Y-60452032D01*
X164265000Y-60452032D01*
X164265000Y-60847968D01*
X164342243Y-61236296D01*
X164493761Y-61602092D01*
X164713731Y-61931301D01*
X164993699Y-62211269D01*
X165322908Y-62431239D01*
X165688704Y-62582757D01*
X166077032Y-62660000D01*
X166472968Y-62660000D01*
X166861296Y-62582757D01*
X167227092Y-62431239D01*
X167556301Y-62211269D01*
X167836269Y-61931301D01*
X168056239Y-61602092D01*
X168207757Y-61236296D01*
X168285000Y-60847968D01*
X168285000Y-60452032D01*
X168207757Y-60063704D01*
X168056239Y-59697908D01*
X167903871Y-59469872D01*
X171755000Y-59469872D01*
X171755000Y-59910128D01*
X171840890Y-60341925D01*
X172009369Y-60748669D01*
X172253962Y-61114729D01*
X172565271Y-61426038D01*
X172931331Y-61670631D01*
X173338075Y-61839110D01*
X173769872Y-61925000D01*
X174210128Y-61925000D01*
X174641925Y-61839110D01*
X175048669Y-61670631D01*
X175414729Y-61426038D01*
X175726038Y-61114729D01*
X175970631Y-60748669D01*
X176139110Y-60341925D01*
X176225000Y-59910128D01*
X176225000Y-59469872D01*
X176139110Y-59038075D01*
X175970631Y-58631331D01*
X175726038Y-58265271D01*
X175414729Y-57953962D01*
X175048669Y-57709369D01*
X174641925Y-57540890D01*
X174210128Y-57455000D01*
X173769872Y-57455000D01*
X173338075Y-57540890D01*
X172931331Y-57709369D01*
X172565271Y-57953962D01*
X172253962Y-58265271D01*
X172009369Y-58631331D01*
X171840890Y-59038075D01*
X171755000Y-59469872D01*
X167903871Y-59469872D01*
X167836269Y-59368699D01*
X167556301Y-59088731D01*
X167227092Y-58868761D01*
X166861296Y-58717243D01*
X166472968Y-58640000D01*
X166077032Y-58640000D01*
X165688704Y-58717243D01*
X165322908Y-58868761D01*
X164993699Y-59088731D01*
X164713731Y-59368699D01*
X164493761Y-59697908D01*
X164342243Y-60063704D01*
X164265000Y-60452032D01*
X162524475Y-60452032D01*
X162691075Y-60285432D01*
X162853590Y-60042211D01*
X162965532Y-59771958D01*
X163022600Y-59485060D01*
X163022600Y-59192540D01*
X162965532Y-58905642D01*
X162853590Y-58635389D01*
X162691075Y-58392168D01*
X162484232Y-58185325D01*
X162241011Y-58022810D01*
X161970758Y-57910868D01*
X161683860Y-57853800D01*
X161391340Y-57853800D01*
X161104442Y-57910868D01*
X160834189Y-58022810D01*
X160590968Y-58185325D01*
X160384125Y-58392168D01*
X160267600Y-58566560D01*
X160151075Y-58392168D01*
X159944232Y-58185325D01*
X159701011Y-58022810D01*
X159430758Y-57910868D01*
X159143860Y-57853800D01*
X158851340Y-57853800D01*
X158564442Y-57910868D01*
X158294189Y-58022810D01*
X158050968Y-58185325D01*
X157844125Y-58392168D01*
X157727600Y-58566560D01*
X157611075Y-58392168D01*
X157404232Y-58185325D01*
X157161011Y-58022810D01*
X156890758Y-57910868D01*
X156603860Y-57853800D01*
X156311340Y-57853800D01*
X156024442Y-57910868D01*
X155754189Y-58022810D01*
X155510968Y-58185325D01*
X155304125Y-58392168D01*
X155187600Y-58566560D01*
X155071075Y-58392168D01*
X154864232Y-58185325D01*
X154621011Y-58022810D01*
X154350758Y-57910868D01*
X154063860Y-57853800D01*
X153771340Y-57853800D01*
X153484442Y-57910868D01*
X153214189Y-58022810D01*
X152970968Y-58185325D01*
X152764125Y-58392168D01*
X152647600Y-58566560D01*
X152531075Y-58392168D01*
X152324232Y-58185325D01*
X152081011Y-58022810D01*
X151810758Y-57910868D01*
X151523860Y-57853800D01*
X151231340Y-57853800D01*
X150944442Y-57910868D01*
X150674189Y-58022810D01*
X150430968Y-58185325D01*
X150224125Y-58392168D01*
X150107600Y-58566560D01*
X149991075Y-58392168D01*
X149784232Y-58185325D01*
X149541011Y-58022810D01*
X149270758Y-57910868D01*
X148983860Y-57853800D01*
X148691340Y-57853800D01*
X148404442Y-57910868D01*
X148134189Y-58022810D01*
X147890968Y-58185325D01*
X147684125Y-58392168D01*
X147567600Y-58566560D01*
X147451075Y-58392168D01*
X147244232Y-58185325D01*
X147001011Y-58022810D01*
X146730758Y-57910868D01*
X146443860Y-57853800D01*
X146151340Y-57853800D01*
X145864442Y-57910868D01*
X145594189Y-58022810D01*
X145350968Y-58185325D01*
X145144125Y-58392168D01*
X145027600Y-58566560D01*
X144911075Y-58392168D01*
X144704232Y-58185325D01*
X144461011Y-58022810D01*
X144190758Y-57910868D01*
X143903860Y-57853800D01*
X143611340Y-57853800D01*
X143324442Y-57910868D01*
X143054189Y-58022810D01*
X142810968Y-58185325D01*
X142604125Y-58392168D01*
X142487600Y-58566560D01*
X142371075Y-58392168D01*
X142164232Y-58185325D01*
X141921011Y-58022810D01*
X141650758Y-57910868D01*
X141363860Y-57853800D01*
X141071340Y-57853800D01*
X140784442Y-57910868D01*
X140514189Y-58022810D01*
X140270968Y-58185325D01*
X140064125Y-58392168D01*
X139947600Y-58566560D01*
X139831075Y-58392168D01*
X139624232Y-58185325D01*
X139381011Y-58022810D01*
X139110758Y-57910868D01*
X138823860Y-57853800D01*
X138531340Y-57853800D01*
X138244442Y-57910868D01*
X137974189Y-58022810D01*
X137730968Y-58185325D01*
X137524125Y-58392168D01*
X137407600Y-58566560D01*
X137291075Y-58392168D01*
X137084232Y-58185325D01*
X136841011Y-58022810D01*
X136570758Y-57910868D01*
X136283860Y-57853800D01*
X135991340Y-57853800D01*
X135704442Y-57910868D01*
X135434189Y-58022810D01*
X135190968Y-58185325D01*
X134984125Y-58392168D01*
X134867600Y-58566560D01*
X134751075Y-58392168D01*
X134544232Y-58185325D01*
X134301011Y-58022810D01*
X134030758Y-57910868D01*
X133743860Y-57853800D01*
X133451340Y-57853800D01*
X133164442Y-57910868D01*
X132894189Y-58022810D01*
X132650968Y-58185325D01*
X132444125Y-58392168D01*
X132327600Y-58566560D01*
X132211075Y-58392168D01*
X132004232Y-58185325D01*
X131761011Y-58022810D01*
X131490758Y-57910868D01*
X131203860Y-57853800D01*
X130911340Y-57853800D01*
X130624442Y-57910868D01*
X130354189Y-58022810D01*
X130110968Y-58185325D01*
X129904125Y-58392168D01*
X129787600Y-58566560D01*
X129671075Y-58392168D01*
X129464232Y-58185325D01*
X129221011Y-58022810D01*
X128950758Y-57910868D01*
X128663860Y-57853800D01*
X128371340Y-57853800D01*
X128084442Y-57910868D01*
X127814189Y-58022810D01*
X127570968Y-58185325D01*
X127364125Y-58392168D01*
X127247600Y-58566560D01*
X127131075Y-58392168D01*
X126924232Y-58185325D01*
X126681011Y-58022810D01*
X126410758Y-57910868D01*
X126123860Y-57853800D01*
X125831340Y-57853800D01*
X125544442Y-57910868D01*
X125274189Y-58022810D01*
X125030968Y-58185325D01*
X124824125Y-58392168D01*
X124707600Y-58566560D01*
X124591075Y-58392168D01*
X124384232Y-58185325D01*
X124141011Y-58022810D01*
X123870758Y-57910868D01*
X123583860Y-57853800D01*
X123291340Y-57853800D01*
X123004442Y-57910868D01*
X122734189Y-58022810D01*
X122490968Y-58185325D01*
X122284125Y-58392168D01*
X122167600Y-58566560D01*
X122051075Y-58392168D01*
X121844232Y-58185325D01*
X121601011Y-58022810D01*
X121330758Y-57910868D01*
X121043860Y-57853800D01*
X120751340Y-57853800D01*
X120464442Y-57910868D01*
X120194189Y-58022810D01*
X119950968Y-58185325D01*
X119744125Y-58392168D01*
X119627600Y-58566560D01*
X119511075Y-58392168D01*
X119304232Y-58185325D01*
X119061011Y-58022810D01*
X118790758Y-57910868D01*
X118503860Y-57853800D01*
X118211340Y-57853800D01*
X117924442Y-57910868D01*
X117654189Y-58022810D01*
X117410968Y-58185325D01*
X117204125Y-58392168D01*
X117082405Y-58574334D01*
X117012778Y-58457445D01*
X116817869Y-58241212D01*
X116584520Y-58067159D01*
X116321699Y-57941975D01*
X116174490Y-57897324D01*
X115944600Y-58018645D01*
X115944600Y-59211800D01*
X115964600Y-59211800D01*
X115964600Y-59465800D01*
X115944600Y-59465800D01*
X115944600Y-59485800D01*
X115690600Y-59485800D01*
X115690600Y-59465800D01*
X113404600Y-59465800D01*
X113404600Y-59485800D01*
X113150600Y-59485800D01*
X113150600Y-59465800D01*
X111956786Y-59465800D01*
X111836119Y-59695691D01*
X111933443Y-59970052D01*
X112082422Y-60220155D01*
X112259226Y-60416302D01*
X112183420Y-60439298D01*
X112073106Y-60498263D01*
X111976415Y-60577615D01*
X111897063Y-60674306D01*
X111838098Y-60784620D01*
X111801788Y-60904318D01*
X111789528Y-61028800D01*
X110249030Y-61028800D01*
X110285000Y-60847968D01*
X110285000Y-60452032D01*
X110207757Y-60063704D01*
X110056239Y-59697908D01*
X109836269Y-59368699D01*
X109556301Y-59088731D01*
X109396431Y-58981909D01*
X111836119Y-58981909D01*
X111956786Y-59211800D01*
X113150600Y-59211800D01*
X113150600Y-58018645D01*
X113404600Y-58018645D01*
X113404600Y-59211800D01*
X115690600Y-59211800D01*
X115690600Y-58018645D01*
X115460710Y-57897324D01*
X115313501Y-57941975D01*
X115050680Y-58067159D01*
X114817331Y-58241212D01*
X114622422Y-58457445D01*
X114547600Y-58583055D01*
X114472778Y-58457445D01*
X114277869Y-58241212D01*
X114044520Y-58067159D01*
X113781699Y-57941975D01*
X113634490Y-57897324D01*
X113404600Y-58018645D01*
X113150600Y-58018645D01*
X112920710Y-57897324D01*
X112773501Y-57941975D01*
X112510680Y-58067159D01*
X112277331Y-58241212D01*
X112082422Y-58457445D01*
X111933443Y-58707548D01*
X111836119Y-58981909D01*
X109396431Y-58981909D01*
X109227092Y-58868761D01*
X108861296Y-58717243D01*
X108472968Y-58640000D01*
X108077032Y-58640000D01*
X107688704Y-58717243D01*
X107322908Y-58868761D01*
X106993699Y-59088731D01*
X106713731Y-59368699D01*
X106493761Y-59697908D01*
X106342243Y-60063704D01*
X106265000Y-60452032D01*
X103068502Y-60452032D01*
X103114110Y-60341925D01*
X103200000Y-59910128D01*
X103200000Y-59469872D01*
X103114110Y-59038075D01*
X102945631Y-58631331D01*
X102701038Y-58265271D01*
X102389729Y-57953962D01*
X102023669Y-57709369D01*
X101616925Y-57540890D01*
X101185128Y-57455000D01*
X100744872Y-57455000D01*
X100313075Y-57540890D01*
X99906331Y-57709369D01*
X99540271Y-57953962D01*
X99228962Y-58265271D01*
X98984369Y-58631331D01*
X98815890Y-59038075D01*
X98730000Y-59469872D01*
X96974307Y-59469872D01*
X96931932Y-59256842D01*
X96819990Y-58986589D01*
X96657475Y-58743368D01*
X96450632Y-58536525D01*
X96207411Y-58374010D01*
X95937158Y-58262068D01*
X95650260Y-58205000D01*
X95357740Y-58205000D01*
X95070842Y-58262068D01*
X94800589Y-58374010D01*
X94557368Y-58536525D01*
X94350525Y-58743368D01*
X94188010Y-58986589D01*
X94076068Y-59256842D01*
X94019000Y-59543740D01*
X92100000Y-59543740D01*
X92100000Y-56540000D01*
X192380001Y-56540000D01*
X192380000Y-88240000D01*
G37*
X192380000Y-88240000D02*
X92100000Y-88240000D01*
X92100000Y-84240000D01*
X94015928Y-84240000D01*
X94015928Y-85940000D01*
X94028188Y-86064482D01*
X94064498Y-86184180D01*
X94123463Y-86294494D01*
X94202815Y-86391185D01*
X94299506Y-86470537D01*
X94409820Y-86529502D01*
X94529518Y-86565812D01*
X94654000Y-86578072D01*
X96354000Y-86578072D01*
X96478482Y-86565812D01*
X96598180Y-86529502D01*
X96708494Y-86470537D01*
X96805185Y-86391185D01*
X96884537Y-86294494D01*
X96943502Y-86184180D01*
X96979812Y-86064482D01*
X96992072Y-85940000D01*
X96992072Y-84869872D01*
X98730000Y-84869872D01*
X98730000Y-85310128D01*
X98815890Y-85741925D01*
X98984369Y-86148669D01*
X99228962Y-86514729D01*
X99540271Y-86826038D01*
X99906331Y-87070631D01*
X100313075Y-87239110D01*
X100744872Y-87325000D01*
X101185128Y-87325000D01*
X101616925Y-87239110D01*
X102023669Y-87070631D01*
X102077831Y-87034441D01*
X125984000Y-87034441D01*
X125984000Y-87209559D01*
X126018164Y-87381312D01*
X126085179Y-87543099D01*
X126182469Y-87688704D01*
X126306296Y-87812531D01*
X126451901Y-87909821D01*
X126613688Y-87976836D01*
X126785441Y-88011000D01*
X126960559Y-88011000D01*
X127132312Y-87976836D01*
X127294099Y-87909821D01*
X127439704Y-87812531D01*
X127563531Y-87688704D01*
X127660821Y-87543099D01*
X127727836Y-87381312D01*
X127762000Y-87209559D01*
X127762000Y-87034441D01*
X127727836Y-86862688D01*
X127660821Y-86700901D01*
X127563531Y-86555296D01*
X127439704Y-86431469D01*
X127294099Y-86334179D01*
X127132312Y-86267164D01*
X126960559Y-86233000D01*
X126785441Y-86233000D01*
X126613688Y-86267164D01*
X126451901Y-86334179D01*
X126306296Y-86431469D01*
X126182469Y-86555296D01*
X126085179Y-86700901D01*
X126018164Y-86862688D01*
X125984000Y-87034441D01*
X102077831Y-87034441D01*
X102389729Y-86826038D01*
X102701038Y-86514729D01*
X102945631Y-86148669D01*
X103114110Y-85741925D01*
X103200000Y-85310128D01*
X103200000Y-84869872D01*
X103114110Y-84438075D01*
X102945631Y-84031331D01*
X102701038Y-83665271D01*
X102487799Y-83452032D01*
X106265000Y-83452032D01*
X106265000Y-83847968D01*
X106342243Y-84236296D01*
X106493761Y-84602092D01*
X106713731Y-84931301D01*
X106993699Y-85211269D01*
X107322908Y-85431239D01*
X107688704Y-85582757D01*
X108077032Y-85660000D01*
X108472968Y-85660000D01*
X108861296Y-85582757D01*
X109227092Y-85431239D01*
X109556301Y-85211269D01*
X109836269Y-84931301D01*
X110056239Y-84602092D01*
X110207757Y-84236296D01*
X110257456Y-83986441D01*
X127508000Y-83986441D01*
X127508000Y-84161559D01*
X127542164Y-84333312D01*
X127609179Y-84495099D01*
X127706469Y-84640704D01*
X127830296Y-84764531D01*
X127975901Y-84861821D01*
X128137688Y-84928836D01*
X128309441Y-84963000D01*
X128484559Y-84963000D01*
X128656312Y-84928836D01*
X128818099Y-84861821D01*
X128963704Y-84764531D01*
X129087531Y-84640704D01*
X129184821Y-84495099D01*
X129251836Y-84333312D01*
X129286000Y-84161559D01*
X129286000Y-83986441D01*
X129251836Y-83814688D01*
X129184821Y-83652901D01*
X129087531Y-83507296D01*
X129032267Y-83452032D01*
X164265000Y-83452032D01*
X164265000Y-83847968D01*
X164342243Y-84236296D01*
X164493761Y-84602092D01*
X164713731Y-84931301D01*
X164993699Y-85211269D01*
X165322908Y-85431239D01*
X165688704Y-85582757D01*
X166077032Y-85660000D01*
X166472968Y-85660000D01*
X166861296Y-85582757D01*
X167227092Y-85431239D01*
X167556301Y-85211269D01*
X167836269Y-84931301D01*
X167877314Y-84869872D01*
X171755000Y-84869872D01*
X171755000Y-85310128D01*
X171840890Y-85741925D01*
X172009369Y-86148669D01*
X172253962Y-86514729D01*
X172565271Y-86826038D01*
X172931331Y-87070631D01*
X173338075Y-87239110D01*
X173769872Y-87325000D01*
X174210128Y-87325000D01*
X174641925Y-87239110D01*
X175048669Y-87070631D01*
X175414729Y-86826038D01*
X175726038Y-86514729D01*
X175970631Y-86148669D01*
X176139110Y-85741925D01*
X176225000Y-85310128D01*
X176225000Y-84869872D01*
X176139110Y-84438075D01*
X175970631Y-84031331D01*
X175726038Y-83665271D01*
X175414729Y-83353962D01*
X175048669Y-83109369D01*
X174641925Y-82940890D01*
X174210128Y-82855000D01*
X173769872Y-82855000D01*
X173338075Y-82940890D01*
X172931331Y-83109369D01*
X172565271Y-83353962D01*
X172253962Y-83665271D01*
X172009369Y-84031331D01*
X171840890Y-84438075D01*
X171755000Y-84869872D01*
X167877314Y-84869872D01*
X168056239Y-84602092D01*
X168207757Y-84236296D01*
X168285000Y-83847968D01*
X168285000Y-83452032D01*
X168207757Y-83063704D01*
X168056239Y-82697908D01*
X167836269Y-82368699D01*
X167556301Y-82088731D01*
X167227092Y-81868761D01*
X166861296Y-81717243D01*
X166472968Y-81640000D01*
X166077032Y-81640000D01*
X165688704Y-81717243D01*
X165322908Y-81868761D01*
X164993699Y-82088731D01*
X164713731Y-82368699D01*
X164493761Y-82697908D01*
X164342243Y-83063704D01*
X164265000Y-83452032D01*
X129032267Y-83452032D01*
X128963704Y-83383469D01*
X128818099Y-83286179D01*
X128656312Y-83219164D01*
X128484559Y-83185000D01*
X128309441Y-83185000D01*
X128137688Y-83219164D01*
X127975901Y-83286179D01*
X127830296Y-83383469D01*
X127706469Y-83507296D01*
X127609179Y-83652901D01*
X127542164Y-83814688D01*
X127508000Y-83986441D01*
X110257456Y-83986441D01*
X110285000Y-83847968D01*
X110285000Y-83452032D01*
X110207757Y-83063704D01*
X110056239Y-82697908D01*
X109836269Y-82368699D01*
X109556301Y-82088731D01*
X109227092Y-81868761D01*
X108861296Y-81717243D01*
X108472968Y-81640000D01*
X108077032Y-81640000D01*
X107688704Y-81717243D01*
X107322908Y-81868761D01*
X106993699Y-82088731D01*
X106713731Y-82368699D01*
X106493761Y-82697908D01*
X106342243Y-83063704D01*
X106265000Y-83452032D01*
X102487799Y-83452032D01*
X102389729Y-83353962D01*
X102023669Y-83109369D01*
X101616925Y-82940890D01*
X101185128Y-82855000D01*
X100744872Y-82855000D01*
X100313075Y-82940890D01*
X99906331Y-83109369D01*
X99540271Y-83353962D01*
X99228962Y-83665271D01*
X98984369Y-84031331D01*
X98815890Y-84438075D01*
X98730000Y-84869872D01*
X96992072Y-84869872D01*
X96992072Y-84240000D01*
X96979812Y-84115518D01*
X96943502Y-83995820D01*
X96884537Y-83885506D01*
X96805185Y-83788815D01*
X96708494Y-83709463D01*
X96598180Y-83650498D01*
X96525620Y-83628487D01*
X96657475Y-83496632D01*
X96819990Y-83253411D01*
X96931932Y-82983158D01*
X96989000Y-82696260D01*
X96989000Y-82403740D01*
X96931932Y-82116842D01*
X96819990Y-81846589D01*
X96657475Y-81603368D01*
X96627548Y-81573441D01*
X141478000Y-81573441D01*
X141478000Y-81748559D01*
X141512164Y-81920312D01*
X141579179Y-82082099D01*
X141676469Y-82227704D01*
X141800296Y-82351531D01*
X141945901Y-82448821D01*
X142107688Y-82515836D01*
X142279441Y-82550000D01*
X142454559Y-82550000D01*
X142626312Y-82515836D01*
X142788099Y-82448821D01*
X142933704Y-82351531D01*
X143057531Y-82227704D01*
X143154821Y-82082099D01*
X143221836Y-81920312D01*
X143256000Y-81748559D01*
X143256000Y-81573441D01*
X143221836Y-81401688D01*
X143154821Y-81239901D01*
X143057531Y-81094296D01*
X143028676Y-81065441D01*
X146685000Y-81065441D01*
X146685000Y-81240559D01*
X146719164Y-81412312D01*
X146786179Y-81574099D01*
X146883469Y-81719704D01*
X147007296Y-81843531D01*
X147152901Y-81940821D01*
X147314688Y-82007836D01*
X147486441Y-82042000D01*
X147661559Y-82042000D01*
X147833312Y-82007836D01*
X147995099Y-81940821D01*
X148140704Y-81843531D01*
X148264531Y-81719704D01*
X148361821Y-81574099D01*
X148428836Y-81412312D01*
X148463000Y-81240559D01*
X148463000Y-81065441D01*
X148428836Y-80893688D01*
X148361821Y-80731901D01*
X148264531Y-80586296D01*
X148140704Y-80462469D01*
X147995099Y-80365179D01*
X147833312Y-80298164D01*
X147661559Y-80264000D01*
X147486441Y-80264000D01*
X147314688Y-80298164D01*
X147152901Y-80365179D01*
X147007296Y-80462469D01*
X146883469Y-80586296D01*
X146786179Y-80731901D01*
X146719164Y-80893688D01*
X146685000Y-81065441D01*
X143028676Y-81065441D01*
X142933704Y-80970469D01*
X142788099Y-80873179D01*
X142626312Y-80806164D01*
X142454559Y-80772000D01*
X142279441Y-80772000D01*
X142107688Y-80806164D01*
X141945901Y-80873179D01*
X141800296Y-80970469D01*
X141676469Y-81094296D01*
X141579179Y-81239901D01*
X141512164Y-81401688D01*
X141478000Y-81573441D01*
X96627548Y-81573441D01*
X96450632Y-81396525D01*
X96276240Y-81280000D01*
X96450632Y-81163475D01*
X96657475Y-80956632D01*
X96819990Y-80713411D01*
X96931932Y-80443158D01*
X96989000Y-80156260D01*
X96989000Y-79863740D01*
X96950153Y-79668441D01*
X151892000Y-79668441D01*
X151892000Y-79843559D01*
X151926164Y-80015312D01*
X151993179Y-80177099D01*
X152090469Y-80322704D01*
X152214296Y-80446531D01*
X152359901Y-80543821D01*
X152521688Y-80610836D01*
X152693441Y-80645000D01*
X152868559Y-80645000D01*
X153040312Y-80610836D01*
X153202099Y-80543821D01*
X153347704Y-80446531D01*
X153471531Y-80322704D01*
X153568821Y-80177099D01*
X153635836Y-80015312D01*
X153670000Y-79843559D01*
X153670000Y-79668441D01*
X153635836Y-79496688D01*
X153568821Y-79334901D01*
X153471531Y-79189296D01*
X153347704Y-79065469D01*
X153202099Y-78968179D01*
X153040312Y-78901164D01*
X152868559Y-78867000D01*
X152693441Y-78867000D01*
X152521688Y-78901164D01*
X152359901Y-78968179D01*
X152214296Y-79065469D01*
X152090469Y-79189296D01*
X151993179Y-79334901D01*
X151926164Y-79496688D01*
X151892000Y-79668441D01*
X96950153Y-79668441D01*
X96931932Y-79576842D01*
X96819990Y-79306589D01*
X96657475Y-79063368D01*
X96450632Y-78856525D01*
X96268466Y-78734805D01*
X96385355Y-78665178D01*
X96601588Y-78470269D01*
X96775641Y-78236920D01*
X96900825Y-77974099D01*
X96945476Y-77826890D01*
X96824155Y-77597000D01*
X95631000Y-77597000D01*
X95631000Y-77617000D01*
X95377000Y-77617000D01*
X95377000Y-77597000D01*
X94183845Y-77597000D01*
X94062524Y-77826890D01*
X94107175Y-77974099D01*
X94232359Y-78236920D01*
X94406412Y-78470269D01*
X94622645Y-78665178D01*
X94739534Y-78734805D01*
X94557368Y-78856525D01*
X94350525Y-79063368D01*
X94188010Y-79306589D01*
X94076068Y-79576842D01*
X94019000Y-79863740D01*
X94019000Y-80156260D01*
X94076068Y-80443158D01*
X94188010Y-80713411D01*
X94350525Y-80956632D01*
X94557368Y-81163475D01*
X94731760Y-81280000D01*
X94557368Y-81396525D01*
X94350525Y-81603368D01*
X94188010Y-81846589D01*
X94076068Y-82116842D01*
X94019000Y-82403740D01*
X94019000Y-82696260D01*
X94076068Y-82983158D01*
X94188010Y-83253411D01*
X94350525Y-83496632D01*
X94482380Y-83628487D01*
X94409820Y-83650498D01*
X94299506Y-83709463D01*
X94202815Y-83788815D01*
X94123463Y-83885506D01*
X94064498Y-83995820D01*
X94028188Y-84115518D01*
X94015928Y-84240000D01*
X92100000Y-84240000D01*
X92100000Y-77539719D01*
X179006624Y-77539719D01*
X179048286Y-77823285D01*
X179144468Y-78093275D01*
X179214007Y-78223373D01*
X179460018Y-78297376D01*
X180287395Y-77470000D01*
X179460018Y-76642624D01*
X179214007Y-76716627D01*
X179091107Y-76975550D01*
X179021083Y-77253474D01*
X179006624Y-77539719D01*
X92100000Y-77539719D01*
X92100000Y-59543740D01*
X94019000Y-59543740D01*
X94019000Y-59836260D01*
X94076068Y-60123158D01*
X94188010Y-60393411D01*
X94350525Y-60636632D01*
X94557368Y-60843475D01*
X94731760Y-60960000D01*
X94557368Y-61076525D01*
X94350525Y-61283368D01*
X94188010Y-61526589D01*
X94076068Y-61796842D01*
X94019000Y-62083740D01*
X94019000Y-62376260D01*
X94076068Y-62663158D01*
X94188010Y-62933411D01*
X94350525Y-63176632D01*
X94557368Y-63383475D01*
X94731760Y-63500000D01*
X94557368Y-63616525D01*
X94350525Y-63823368D01*
X94188010Y-64066589D01*
X94076068Y-64336842D01*
X94019000Y-64623740D01*
X94019000Y-64916260D01*
X94076068Y-65203158D01*
X94188010Y-65473411D01*
X94350525Y-65716632D01*
X94557368Y-65923475D01*
X94731760Y-66040000D01*
X94557368Y-66156525D01*
X94350525Y-66363368D01*
X94188010Y-66606589D01*
X94076068Y-66876842D01*
X94019000Y-67163740D01*
X94019000Y-67456260D01*
X94076068Y-67743158D01*
X94188010Y-68013411D01*
X94350525Y-68256632D01*
X94557368Y-68463475D01*
X94731760Y-68580000D01*
X94557368Y-68696525D01*
X94350525Y-68903368D01*
X94188010Y-69146589D01*
X94076068Y-69416842D01*
X94019000Y-69703740D01*
X94019000Y-69996260D01*
X94076068Y-70283158D01*
X94188010Y-70553411D01*
X94350525Y-70796632D01*
X94557368Y-71003475D01*
X94731760Y-71120000D01*
X94557368Y-71236525D01*
X94350525Y-71443368D01*
X94188010Y-71686589D01*
X94076068Y-71956842D01*
X94019000Y-72243740D01*
X94019000Y-72536260D01*
X94076068Y-72823158D01*
X94188010Y-73093411D01*
X94350525Y-73336632D01*
X94557368Y-73543475D01*
X94731760Y-73660000D01*
X94557368Y-73776525D01*
X94350525Y-73983368D01*
X94188010Y-74226589D01*
X94076068Y-74496842D01*
X94019000Y-74783740D01*
X94019000Y-75076260D01*
X94076068Y-75363158D01*
X94188010Y-75633411D01*
X94350525Y-75876632D01*
X94557368Y-76083475D01*
X94739534Y-76205195D01*
X94622645Y-76274822D01*
X94406412Y-76469731D01*
X94232359Y-76703080D01*
X94107175Y-76965901D01*
X94062524Y-77113110D01*
X94183845Y-77343000D01*
X95377000Y-77343000D01*
X95377000Y-77323000D01*
X95631000Y-77323000D01*
X95631000Y-77343000D01*
X96824155Y-77343000D01*
X96945476Y-77113110D01*
X96900825Y-76965901D01*
X96775641Y-76703080D01*
X96601588Y-76469731D01*
X96385355Y-76274822D01*
X96268466Y-76205195D01*
X96450632Y-76083475D01*
X96657475Y-75876632D01*
X96819990Y-75633411D01*
X96884594Y-75477441D01*
X142621000Y-75477441D01*
X142621000Y-75652559D01*
X142655164Y-75824312D01*
X142722179Y-75986099D01*
X142819469Y-76131704D01*
X142943296Y-76255531D01*
X143088901Y-76352821D01*
X143250688Y-76419836D01*
X143422441Y-76454000D01*
X143597559Y-76454000D01*
X143769312Y-76419836D01*
X143931099Y-76352821D01*
X144076704Y-76255531D01*
X144200531Y-76131704D01*
X144297821Y-75986099D01*
X144364836Y-75824312D01*
X144399000Y-75652559D01*
X144399000Y-75477441D01*
X147828000Y-75477441D01*
X147828000Y-75652559D01*
X147862164Y-75824312D01*
X147929179Y-75986099D01*
X148026469Y-76131704D01*
X148150296Y-76255531D01*
X148295901Y-76352821D01*
X148457688Y-76419836D01*
X148629441Y-76454000D01*
X148804559Y-76454000D01*
X148976312Y-76419836D01*
X149138099Y-76352821D01*
X149283704Y-76255531D01*
X149407531Y-76131704D01*
X149504821Y-75986099D01*
X149571836Y-75824312D01*
X149606000Y-75652559D01*
X149606000Y-75477441D01*
X153035000Y-75477441D01*
X153035000Y-75652559D01*
X153069164Y-75824312D01*
X153136179Y-75986099D01*
X153233469Y-76131704D01*
X153357296Y-76255531D01*
X153502901Y-76352821D01*
X153664688Y-76419836D01*
X153836441Y-76454000D01*
X154011559Y-76454000D01*
X154183312Y-76419836D01*
X154345099Y-76352821D01*
X154490704Y-76255531D01*
X154614531Y-76131704D01*
X154711821Y-75986099D01*
X154778836Y-75824312D01*
X154813000Y-75652559D01*
X154813000Y-75477441D01*
X158242000Y-75477441D01*
X158242000Y-75652559D01*
X158276164Y-75824312D01*
X158343179Y-75986099D01*
X158440469Y-76131704D01*
X158564296Y-76255531D01*
X158709901Y-76352821D01*
X158871688Y-76419836D01*
X159043441Y-76454000D01*
X159218559Y-76454000D01*
X159390312Y-76419836D01*
X159552099Y-76352821D01*
X159697704Y-76255531D01*
X159821531Y-76131704D01*
X159834402Y-76112441D01*
X160401000Y-76112441D01*
X160401000Y-76287559D01*
X160435164Y-76459312D01*
X160502179Y-76621099D01*
X160599469Y-76766704D01*
X160723296Y-76890531D01*
X160868901Y-76987821D01*
X161030688Y-77054836D01*
X161202441Y-77089000D01*
X161377559Y-77089000D01*
X161549312Y-77054836D01*
X161711099Y-76987821D01*
X161856704Y-76890531D01*
X161980531Y-76766704D01*
X162077821Y-76621099D01*
X162144836Y-76459312D01*
X162179000Y-76287559D01*
X162179000Y-76112441D01*
X162144836Y-75940688D01*
X162077821Y-75778901D01*
X161980531Y-75633296D01*
X161856704Y-75509469D01*
X161711099Y-75412179D01*
X161549312Y-75345164D01*
X161377559Y-75311000D01*
X161202441Y-75311000D01*
X161030688Y-75345164D01*
X160868901Y-75412179D01*
X160723296Y-75509469D01*
X160599469Y-75633296D01*
X160502179Y-75778901D01*
X160435164Y-75940688D01*
X160401000Y-76112441D01*
X159834402Y-76112441D01*
X159918821Y-75986099D01*
X159985836Y-75824312D01*
X160020000Y-75652559D01*
X160020000Y-75477441D01*
X159985836Y-75305688D01*
X159918821Y-75143901D01*
X159821531Y-74998296D01*
X159697704Y-74874469D01*
X159552099Y-74777179D01*
X159390312Y-74710164D01*
X159218559Y-74676000D01*
X159043441Y-74676000D01*
X158871688Y-74710164D01*
X158709901Y-74777179D01*
X158564296Y-74874469D01*
X158440469Y-74998296D01*
X158343179Y-75143901D01*
X158276164Y-75305688D01*
X158242000Y-75477441D01*
X154813000Y-75477441D01*
X154778836Y-75305688D01*
X154711821Y-75143901D01*
X154614531Y-74998296D01*
X154490704Y-74874469D01*
X154345099Y-74777179D01*
X154183312Y-74710164D01*
X154011559Y-74676000D01*
X153836441Y-74676000D01*
X153664688Y-74710164D01*
X153502901Y-74777179D01*
X153357296Y-74874469D01*
X153233469Y-74998296D01*
X153136179Y-75143901D01*
X153069164Y-75305688D01*
X153035000Y-75477441D01*
X149606000Y-75477441D01*
X149571836Y-75305688D01*
X149504821Y-75143901D01*
X149407531Y-74998296D01*
X149283704Y-74874469D01*
X149138099Y-74777179D01*
X148976312Y-74710164D01*
X148804559Y-74676000D01*
X148629441Y-74676000D01*
X148457688Y-74710164D01*
X148295901Y-74777179D01*
X148150296Y-74874469D01*
X148026469Y-74998296D01*
X147929179Y-75143901D01*
X147862164Y-75305688D01*
X147828000Y-75477441D01*
X144399000Y-75477441D01*
X144364836Y-75305688D01*
X144297821Y-75143901D01*
X144200531Y-74998296D01*
X144076704Y-74874469D01*
X143931099Y-74777179D01*
X143769312Y-74710164D01*
X143597559Y-74676000D01*
X143422441Y-74676000D01*
X143250688Y-74710164D01*
X143088901Y-74777179D01*
X142943296Y-74874469D01*
X142819469Y-74998296D01*
X142722179Y-75143901D01*
X142655164Y-75305688D01*
X142621000Y-75477441D01*
X96884594Y-75477441D01*
X96931932Y-75363158D01*
X96989000Y-75076260D01*
X96989000Y-74783740D01*
X96931932Y-74496842D01*
X96819990Y-74226589D01*
X96657475Y-73983368D01*
X96450632Y-73776525D01*
X96276240Y-73660000D01*
X96407281Y-73572441D01*
X162306000Y-73572441D01*
X162306000Y-73747559D01*
X162340164Y-73919312D01*
X162407179Y-74081099D01*
X162504469Y-74226704D01*
X162628296Y-74350531D01*
X162773901Y-74447821D01*
X162935688Y-74514836D01*
X163107441Y-74549000D01*
X163282559Y-74549000D01*
X163454312Y-74514836D01*
X163616099Y-74447821D01*
X163761704Y-74350531D01*
X163885531Y-74226704D01*
X163982821Y-74081099D01*
X164049836Y-73919312D01*
X164084000Y-73747559D01*
X164084000Y-73572441D01*
X164049836Y-73400688D01*
X163982821Y-73238901D01*
X163885531Y-73093296D01*
X163761704Y-72969469D01*
X163616099Y-72872179D01*
X163454312Y-72805164D01*
X163282559Y-72771000D01*
X163107441Y-72771000D01*
X162935688Y-72805164D01*
X162773901Y-72872179D01*
X162628296Y-72969469D01*
X162504469Y-73093296D01*
X162407179Y-73238901D01*
X162340164Y-73400688D01*
X162306000Y-73572441D01*
X96407281Y-73572441D01*
X96450632Y-73543475D01*
X96657475Y-73336632D01*
X96819990Y-73093411D01*
X96931932Y-72823158D01*
X96989000Y-72536260D01*
X96989000Y-72243740D01*
X96931932Y-71956842D01*
X96819990Y-71686589D01*
X96657475Y-71443368D01*
X96627548Y-71413441D01*
X141478000Y-71413441D01*
X141478000Y-71588559D01*
X141512164Y-71760312D01*
X141579179Y-71922099D01*
X141676469Y-72067704D01*
X141800296Y-72191531D01*
X141945901Y-72288821D01*
X142107688Y-72355836D01*
X142279441Y-72390000D01*
X142454559Y-72390000D01*
X142626312Y-72355836D01*
X142788099Y-72288821D01*
X142933704Y-72191531D01*
X143057531Y-72067704D01*
X143154821Y-71922099D01*
X143221836Y-71760312D01*
X143256000Y-71588559D01*
X143256000Y-71413441D01*
X143230738Y-71286441D01*
X157099000Y-71286441D01*
X157099000Y-71461559D01*
X157133164Y-71633312D01*
X157200179Y-71795099D01*
X157297469Y-71940704D01*
X157421296Y-72064531D01*
X157566901Y-72161821D01*
X157728688Y-72228836D01*
X157900441Y-72263000D01*
X158075559Y-72263000D01*
X158247312Y-72228836D01*
X158409099Y-72161821D01*
X158554704Y-72064531D01*
X158678531Y-71940704D01*
X158775821Y-71795099D01*
X158842836Y-71633312D01*
X158877000Y-71461559D01*
X158877000Y-71286441D01*
X158842836Y-71114688D01*
X158775821Y-70952901D01*
X158678531Y-70807296D01*
X158554704Y-70683469D01*
X158409099Y-70586179D01*
X158247312Y-70519164D01*
X158075559Y-70485000D01*
X157900441Y-70485000D01*
X157728688Y-70519164D01*
X157566901Y-70586179D01*
X157421296Y-70683469D01*
X157297469Y-70807296D01*
X157200179Y-70952901D01*
X157133164Y-71114688D01*
X157099000Y-71286441D01*
X143230738Y-71286441D01*
X143221836Y-71241688D01*
X143154821Y-71079901D01*
X143057531Y-70934296D01*
X142933704Y-70810469D01*
X142788099Y-70713179D01*
X142626312Y-70646164D01*
X142454559Y-70612000D01*
X142279441Y-70612000D01*
X142107688Y-70646164D01*
X141945901Y-70713179D01*
X141800296Y-70810469D01*
X141676469Y-70934296D01*
X141579179Y-71079901D01*
X141512164Y-71241688D01*
X141478000Y-71413441D01*
X96627548Y-71413441D01*
X96450632Y-71236525D01*
X96276240Y-71120000D01*
X96450632Y-71003475D01*
X96657475Y-70796632D01*
X96819990Y-70553411D01*
X96931932Y-70283158D01*
X96984985Y-70016441D01*
X145161000Y-70016441D01*
X145161000Y-70191559D01*
X145195164Y-70363312D01*
X145262179Y-70525099D01*
X145359469Y-70670704D01*
X145483296Y-70794531D01*
X145628901Y-70891821D01*
X145790688Y-70958836D01*
X145962441Y-70993000D01*
X146137559Y-70993000D01*
X146309312Y-70958836D01*
X146471099Y-70891821D01*
X146616704Y-70794531D01*
X146740531Y-70670704D01*
X146837821Y-70525099D01*
X146904836Y-70363312D01*
X146939000Y-70191559D01*
X146939000Y-70137500D01*
X177059952Y-70137500D01*
X177059952Y-72957500D01*
X179127186Y-72957500D01*
X179177596Y-73079201D01*
X179336828Y-73317508D01*
X179539492Y-73520172D01*
X179748759Y-73660000D01*
X179539492Y-73799828D01*
X179336828Y-74002492D01*
X179177596Y-74240799D01*
X179067915Y-74505592D01*
X179012000Y-74786695D01*
X179012000Y-75073305D01*
X179067915Y-75354408D01*
X179177596Y-75619201D01*
X179336828Y-75857508D01*
X179539492Y-76060172D01*
X179747286Y-76199016D01*
X179713627Y-76217007D01*
X179639624Y-76463018D01*
X180467000Y-77290395D01*
X181294376Y-76463018D01*
X181220373Y-76217007D01*
X181184951Y-76200194D01*
X181394508Y-76060172D01*
X181597172Y-75857508D01*
X181737000Y-75648241D01*
X181876828Y-75857508D01*
X182079492Y-76060172D01*
X182288759Y-76200000D01*
X182079492Y-76339828D01*
X181876828Y-76542492D01*
X181737984Y-76750286D01*
X181719993Y-76716627D01*
X181473982Y-76642624D01*
X180646605Y-77470000D01*
X181473982Y-78297376D01*
X181719993Y-78223373D01*
X181736806Y-78187951D01*
X181876828Y-78397508D01*
X182079492Y-78600172D01*
X182288759Y-78740000D01*
X182079492Y-78879828D01*
X181876828Y-79082492D01*
X181737000Y-79291759D01*
X181597172Y-79082492D01*
X181394508Y-78879828D01*
X181186714Y-78740984D01*
X181220373Y-78722993D01*
X181294376Y-78476982D01*
X180467000Y-77649605D01*
X179639624Y-78476982D01*
X179713627Y-78722993D01*
X179749049Y-78739806D01*
X179539492Y-78879828D01*
X179336828Y-79082492D01*
X179177596Y-79320799D01*
X179067915Y-79585592D01*
X179012000Y-79866695D01*
X179012000Y-80153305D01*
X179067915Y-80434408D01*
X179177596Y-80699201D01*
X179336828Y-80937508D01*
X179539492Y-81140172D01*
X179748759Y-81280000D01*
X179539492Y-81419828D01*
X179336828Y-81622492D01*
X179177596Y-81860799D01*
X179067915Y-82125592D01*
X179012000Y-82406695D01*
X179012000Y-82693305D01*
X179067915Y-82974408D01*
X179177596Y-83239201D01*
X179336828Y-83477508D01*
X179539492Y-83680172D01*
X179748759Y-83820000D01*
X179539492Y-83959828D01*
X179336828Y-84162492D01*
X179177596Y-84400799D01*
X179067915Y-84665592D01*
X179012000Y-84946695D01*
X179012000Y-85233305D01*
X179067915Y-85514408D01*
X179177596Y-85779201D01*
X179336828Y-86017508D01*
X179539492Y-86220172D01*
X179777799Y-86379404D01*
X180042592Y-86489085D01*
X180323695Y-86545000D01*
X180610305Y-86545000D01*
X180891408Y-86489085D01*
X181156201Y-86379404D01*
X181394508Y-86220172D01*
X181597172Y-86017508D01*
X181737000Y-85808241D01*
X181876828Y-86017508D01*
X182079492Y-86220172D01*
X182317799Y-86379404D01*
X182582592Y-86489085D01*
X182863695Y-86545000D01*
X183150305Y-86545000D01*
X183431408Y-86489085D01*
X183696201Y-86379404D01*
X183934508Y-86220172D01*
X184137172Y-86017508D01*
X184296404Y-85779201D01*
X184406085Y-85514408D01*
X184462000Y-85233305D01*
X184462000Y-84946695D01*
X184406085Y-84665592D01*
X184296404Y-84400799D01*
X184137172Y-84162492D01*
X183934508Y-83959828D01*
X183725241Y-83820000D01*
X183934508Y-83680172D01*
X184137172Y-83477508D01*
X184296404Y-83239201D01*
X184406085Y-82974408D01*
X184462000Y-82693305D01*
X184462000Y-82406695D01*
X184406085Y-82125592D01*
X184296404Y-81860799D01*
X184137172Y-81622492D01*
X183934508Y-81419828D01*
X183725241Y-81280000D01*
X183934508Y-81140172D01*
X184137172Y-80937508D01*
X184296404Y-80699201D01*
X184406085Y-80434408D01*
X184462000Y-80153305D01*
X184462000Y-79866695D01*
X184406085Y-79585592D01*
X184296404Y-79320799D01*
X184137172Y-79082492D01*
X183934508Y-78879828D01*
X183725241Y-78740000D01*
X183934508Y-78600172D01*
X184137172Y-78397508D01*
X184296404Y-78159201D01*
X184406085Y-77894408D01*
X184462000Y-77613305D01*
X184462000Y-77326695D01*
X184406085Y-77045592D01*
X184296404Y-76780799D01*
X184137172Y-76542492D01*
X183934508Y-76339828D01*
X183725241Y-76200000D01*
X183934508Y-76060172D01*
X184137172Y-75857508D01*
X184296404Y-75619201D01*
X184406085Y-75354408D01*
X184462000Y-75073305D01*
X184462000Y-74786695D01*
X184406085Y-74505592D01*
X184296404Y-74240799D01*
X184137172Y-74002492D01*
X183934508Y-73799828D01*
X183725241Y-73660000D01*
X183934508Y-73520172D01*
X184137172Y-73317508D01*
X184296404Y-73079201D01*
X184406085Y-72814408D01*
X184462000Y-72533305D01*
X184462000Y-72246695D01*
X184406085Y-71965592D01*
X184296404Y-71700799D01*
X184137172Y-71462492D01*
X183934508Y-71259828D01*
X183725241Y-71120000D01*
X183934508Y-70980172D01*
X184137172Y-70777508D01*
X184296404Y-70539201D01*
X184406085Y-70274408D01*
X184462000Y-69993305D01*
X184462000Y-69706695D01*
X184406085Y-69425592D01*
X184296404Y-69160799D01*
X184137172Y-68922492D01*
X183934508Y-68719828D01*
X183725241Y-68580000D01*
X183934508Y-68440172D01*
X184137172Y-68237508D01*
X184296404Y-67999201D01*
X184406085Y-67734408D01*
X184462000Y-67453305D01*
X184462000Y-67166695D01*
X184406085Y-66885592D01*
X184296404Y-66620799D01*
X184137172Y-66382492D01*
X183934508Y-66179828D01*
X183725241Y-66040000D01*
X183934508Y-65900172D01*
X184137172Y-65697508D01*
X184296404Y-65459201D01*
X184406085Y-65194408D01*
X184462000Y-64913305D01*
X184462000Y-64626695D01*
X184406085Y-64345592D01*
X184296404Y-64080799D01*
X184137172Y-63842492D01*
X183934508Y-63639828D01*
X183725241Y-63500000D01*
X183934508Y-63360172D01*
X184137172Y-63157508D01*
X184296404Y-62919201D01*
X184406085Y-62654408D01*
X184462000Y-62373305D01*
X184462000Y-62086695D01*
X184406085Y-61805592D01*
X184296404Y-61540799D01*
X184137172Y-61302492D01*
X183934508Y-61099828D01*
X183725241Y-60960000D01*
X183934508Y-60820172D01*
X184137172Y-60617508D01*
X184296404Y-60379201D01*
X184406085Y-60114408D01*
X184462000Y-59833305D01*
X184462000Y-59546695D01*
X184406085Y-59265592D01*
X184296404Y-59000799D01*
X184137172Y-58762492D01*
X183934508Y-58559828D01*
X183696201Y-58400596D01*
X183431408Y-58290915D01*
X183150305Y-58235000D01*
X182863695Y-58235000D01*
X182582592Y-58290915D01*
X182317799Y-58400596D01*
X182079492Y-58559828D01*
X181876828Y-58762492D01*
X181737000Y-58971759D01*
X181597172Y-58762492D01*
X181394508Y-58559828D01*
X181156201Y-58400596D01*
X180891408Y-58290915D01*
X180610305Y-58235000D01*
X180323695Y-58235000D01*
X180042592Y-58290915D01*
X179777799Y-58400596D01*
X179539492Y-58559828D01*
X179336828Y-58762492D01*
X179177596Y-59000799D01*
X179067915Y-59265592D01*
X179012000Y-59546695D01*
X179012000Y-59833305D01*
X179067915Y-60114408D01*
X179177596Y-60379201D01*
X179336828Y-60617508D01*
X179539492Y-60820172D01*
X179748759Y-60960000D01*
X179539492Y-61099828D01*
X179336828Y-61302492D01*
X179177596Y-61540799D01*
X179067915Y-61805592D01*
X179012000Y-62086695D01*
X179012000Y-62373305D01*
X179067915Y-62654408D01*
X179177596Y-62919201D01*
X179336828Y-63157508D01*
X179539492Y-63360172D01*
X179748759Y-63500000D01*
X179539492Y-63639828D01*
X179336828Y-63842492D01*
X179177596Y-64080799D01*
X179067915Y-64345592D01*
X179012000Y-64626695D01*
X179012000Y-64913305D01*
X179067915Y-65194408D01*
X179177596Y-65459201D01*
X179336828Y-65697508D01*
X179539492Y-65900172D01*
X179748759Y-66040000D01*
X179539492Y-66179828D01*
X179336828Y-66382492D01*
X179177596Y-66620799D01*
X179067915Y-66885592D01*
X179012000Y-67166695D01*
X179012000Y-67453305D01*
X179067915Y-67734408D01*
X179177596Y-67999201D01*
X179336828Y-68237508D01*
X179539492Y-68440172D01*
X179748759Y-68580000D01*
X179539492Y-68719828D01*
X179336828Y-68922492D01*
X179177596Y-69160799D01*
X179067915Y-69425592D01*
X179012000Y-69706695D01*
X179012000Y-69993305D01*
X179040682Y-70137500D01*
X177059952Y-70137500D01*
X146939000Y-70137500D01*
X146939000Y-70016441D01*
X146904836Y-69844688D01*
X146837821Y-69682901D01*
X146740531Y-69537296D01*
X146616704Y-69413469D01*
X146471099Y-69316179D01*
X146309312Y-69249164D01*
X146137559Y-69215000D01*
X145962441Y-69215000D01*
X145790688Y-69249164D01*
X145628901Y-69316179D01*
X145483296Y-69413469D01*
X145359469Y-69537296D01*
X145262179Y-69682901D01*
X145195164Y-69844688D01*
X145161000Y-70016441D01*
X96984985Y-70016441D01*
X96989000Y-69996260D01*
X96989000Y-69703740D01*
X96931932Y-69416842D01*
X96819990Y-69146589D01*
X96720333Y-68997441D01*
X116205000Y-68997441D01*
X116205000Y-69172559D01*
X116239164Y-69344312D01*
X116306179Y-69506099D01*
X116403469Y-69651704D01*
X116527296Y-69775531D01*
X116672901Y-69872821D01*
X116834688Y-69939836D01*
X117006441Y-69974000D01*
X117181559Y-69974000D01*
X117353312Y-69939836D01*
X117515099Y-69872821D01*
X117660704Y-69775531D01*
X117784531Y-69651704D01*
X117881821Y-69506099D01*
X117948836Y-69344312D01*
X117983000Y-69172559D01*
X117983000Y-68997441D01*
X117948836Y-68825688D01*
X117881821Y-68663901D01*
X117784531Y-68518296D01*
X117660704Y-68394469D01*
X117515099Y-68297179D01*
X117353312Y-68230164D01*
X117181559Y-68196000D01*
X117006441Y-68196000D01*
X116834688Y-68230164D01*
X116672901Y-68297179D01*
X116527296Y-68394469D01*
X116403469Y-68518296D01*
X116306179Y-68663901D01*
X116239164Y-68825688D01*
X116205000Y-68997441D01*
X96720333Y-68997441D01*
X96657475Y-68903368D01*
X96450632Y-68696525D01*
X96276240Y-68580000D01*
X96450632Y-68463475D01*
X96657475Y-68256632D01*
X96819990Y-68013411D01*
X96931932Y-67743158D01*
X96989000Y-67456260D01*
X96989000Y-67222441D01*
X127000000Y-67222441D01*
X127000000Y-67397559D01*
X127034164Y-67569312D01*
X127101179Y-67731099D01*
X127198469Y-67876704D01*
X127322296Y-68000531D01*
X127467901Y-68097821D01*
X127629688Y-68164836D01*
X127801441Y-68199000D01*
X127976559Y-68199000D01*
X128148312Y-68164836D01*
X128310099Y-68097821D01*
X128455704Y-68000531D01*
X128579531Y-67876704D01*
X128676821Y-67731099D01*
X128743836Y-67569312D01*
X128778000Y-67397559D01*
X128778000Y-67222441D01*
X132207000Y-67222441D01*
X132207000Y-67397559D01*
X132241164Y-67569312D01*
X132308179Y-67731099D01*
X132405469Y-67876704D01*
X132529296Y-68000531D01*
X132674901Y-68097821D01*
X132836688Y-68164836D01*
X133008441Y-68199000D01*
X133183559Y-68199000D01*
X133355312Y-68164836D01*
X133517099Y-68097821D01*
X133662704Y-68000531D01*
X133678794Y-67984441D01*
X134874000Y-67984441D01*
X134874000Y-68159559D01*
X134908164Y-68331312D01*
X134975179Y-68493099D01*
X135072469Y-68638704D01*
X135196296Y-68762531D01*
X135341901Y-68859821D01*
X135503688Y-68926836D01*
X135675441Y-68961000D01*
X135850559Y-68961000D01*
X136022312Y-68926836D01*
X136184099Y-68859821D01*
X136329704Y-68762531D01*
X136345794Y-68746441D01*
X150850600Y-68746441D01*
X150850600Y-68921559D01*
X150884764Y-69093312D01*
X150951779Y-69255099D01*
X151049069Y-69400704D01*
X151172896Y-69524531D01*
X151318501Y-69621821D01*
X151480288Y-69688836D01*
X151652041Y-69723000D01*
X151827159Y-69723000D01*
X151998912Y-69688836D01*
X152160699Y-69621821D01*
X152306304Y-69524531D01*
X152430131Y-69400704D01*
X152527421Y-69255099D01*
X152594436Y-69093312D01*
X152628600Y-68921559D01*
X152628600Y-68746441D01*
X152594436Y-68574688D01*
X152527421Y-68412901D01*
X152430131Y-68267296D01*
X152306304Y-68143469D01*
X152160699Y-68046179D01*
X151998912Y-67979164D01*
X151827159Y-67945000D01*
X151652041Y-67945000D01*
X151480288Y-67979164D01*
X151318501Y-68046179D01*
X151172896Y-68143469D01*
X151049069Y-68267296D01*
X150951779Y-68412901D01*
X150884764Y-68574688D01*
X150850600Y-68746441D01*
X136345794Y-68746441D01*
X136453531Y-68638704D01*
X136550821Y-68493099D01*
X136617836Y-68331312D01*
X136652000Y-68159559D01*
X136652000Y-67984441D01*
X136617836Y-67812688D01*
X136550821Y-67650901D01*
X136453531Y-67505296D01*
X136329704Y-67381469D01*
X136184099Y-67284179D01*
X136022312Y-67217164D01*
X135850559Y-67183000D01*
X135675441Y-67183000D01*
X135503688Y-67217164D01*
X135341901Y-67284179D01*
X135196296Y-67381469D01*
X135072469Y-67505296D01*
X134975179Y-67650901D01*
X134908164Y-67812688D01*
X134874000Y-67984441D01*
X133678794Y-67984441D01*
X133786531Y-67876704D01*
X133883821Y-67731099D01*
X133950836Y-67569312D01*
X133985000Y-67397559D01*
X133985000Y-67222441D01*
X133950836Y-67050688D01*
X133916768Y-66968441D01*
X137414000Y-66968441D01*
X137414000Y-67143559D01*
X137448164Y-67315312D01*
X137515179Y-67477099D01*
X137612469Y-67622704D01*
X137736296Y-67746531D01*
X137881901Y-67843821D01*
X138043688Y-67910836D01*
X138215441Y-67945000D01*
X138390559Y-67945000D01*
X138562312Y-67910836D01*
X138724099Y-67843821D01*
X138869704Y-67746531D01*
X138993531Y-67622704D01*
X139090821Y-67477099D01*
X139157836Y-67315312D01*
X139176309Y-67222441D01*
X142621000Y-67222441D01*
X142621000Y-67397559D01*
X142655164Y-67569312D01*
X142722179Y-67731099D01*
X142819469Y-67876704D01*
X142943296Y-68000531D01*
X143088901Y-68097821D01*
X143250688Y-68164836D01*
X143422441Y-68199000D01*
X143597559Y-68199000D01*
X143769312Y-68164836D01*
X143931099Y-68097821D01*
X144076704Y-68000531D01*
X144200531Y-67876704D01*
X144297821Y-67731099D01*
X144364836Y-67569312D01*
X144399000Y-67397559D01*
X144399000Y-67222441D01*
X147828000Y-67222441D01*
X147828000Y-67397559D01*
X147862164Y-67569312D01*
X147929179Y-67731099D01*
X148026469Y-67876704D01*
X148150296Y-68000531D01*
X148295901Y-68097821D01*
X148457688Y-68164836D01*
X148629441Y-68199000D01*
X148804559Y-68199000D01*
X148976312Y-68164836D01*
X149138099Y-68097821D01*
X149283704Y-68000531D01*
X149407531Y-67876704D01*
X149504821Y-67731099D01*
X149571836Y-67569312D01*
X149606000Y-67397559D01*
X149606000Y-67222441D01*
X153035000Y-67222441D01*
X153035000Y-67397559D01*
X153069164Y-67569312D01*
X153136179Y-67731099D01*
X153233469Y-67876704D01*
X153357296Y-68000531D01*
X153502901Y-68097821D01*
X153664688Y-68164836D01*
X153836441Y-68199000D01*
X154011559Y-68199000D01*
X154183312Y-68164836D01*
X154345099Y-68097821D01*
X154490704Y-68000531D01*
X154614531Y-67876704D01*
X154711821Y-67731099D01*
X154778836Y-67569312D01*
X154813000Y-67397559D01*
X154813000Y-67222441D01*
X158242000Y-67222441D01*
X158242000Y-67397559D01*
X158276164Y-67569312D01*
X158343179Y-67731099D01*
X158440469Y-67876704D01*
X158564296Y-68000531D01*
X158709901Y-68097821D01*
X158871688Y-68164836D01*
X159043441Y-68199000D01*
X159218559Y-68199000D01*
X159390312Y-68164836D01*
X159552099Y-68097821D01*
X159697704Y-68000531D01*
X159821531Y-67876704D01*
X159918821Y-67731099D01*
X159985836Y-67569312D01*
X160020000Y-67397559D01*
X160020000Y-67222441D01*
X163449000Y-67222441D01*
X163449000Y-67397559D01*
X163483164Y-67569312D01*
X163550179Y-67731099D01*
X163647469Y-67876704D01*
X163771296Y-68000531D01*
X163916901Y-68097821D01*
X164078688Y-68164836D01*
X164250441Y-68199000D01*
X164425559Y-68199000D01*
X164597312Y-68164836D01*
X164759099Y-68097821D01*
X164904704Y-68000531D01*
X165028531Y-67876704D01*
X165125821Y-67731099D01*
X165192836Y-67569312D01*
X165227000Y-67397559D01*
X165227000Y-67222441D01*
X165192836Y-67050688D01*
X165125821Y-66888901D01*
X165028531Y-66743296D01*
X164904704Y-66619469D01*
X164759099Y-66522179D01*
X164597312Y-66455164D01*
X164425559Y-66421000D01*
X164250441Y-66421000D01*
X164078688Y-66455164D01*
X163916901Y-66522179D01*
X163771296Y-66619469D01*
X163647469Y-66743296D01*
X163550179Y-66888901D01*
X163483164Y-67050688D01*
X163449000Y-67222441D01*
X160020000Y-67222441D01*
X159985836Y-67050688D01*
X159918821Y-66888901D01*
X159821531Y-66743296D01*
X159697704Y-66619469D01*
X159552099Y-66522179D01*
X159390312Y-66455164D01*
X159218559Y-66421000D01*
X159043441Y-66421000D01*
X158871688Y-66455164D01*
X158709901Y-66522179D01*
X158564296Y-66619469D01*
X158440469Y-66743296D01*
X158343179Y-66888901D01*
X158276164Y-67050688D01*
X158242000Y-67222441D01*
X154813000Y-67222441D01*
X154778836Y-67050688D01*
X154711821Y-66888901D01*
X154614531Y-66743296D01*
X154490704Y-66619469D01*
X154345099Y-66522179D01*
X154183312Y-66455164D01*
X154011559Y-66421000D01*
X153836441Y-66421000D01*
X153664688Y-66455164D01*
X153502901Y-66522179D01*
X153357296Y-66619469D01*
X153233469Y-66743296D01*
X153136179Y-66888901D01*
X153069164Y-67050688D01*
X153035000Y-67222441D01*
X149606000Y-67222441D01*
X149571836Y-67050688D01*
X149504821Y-66888901D01*
X149407531Y-66743296D01*
X149283704Y-66619469D01*
X149138099Y-66522179D01*
X148976312Y-66455164D01*
X148804559Y-66421000D01*
X148629441Y-66421000D01*
X148457688Y-66455164D01*
X148295901Y-66522179D01*
X148150296Y-66619469D01*
X148026469Y-66743296D01*
X147929179Y-66888901D01*
X147862164Y-67050688D01*
X147828000Y-67222441D01*
X144399000Y-67222441D01*
X144364836Y-67050688D01*
X144297821Y-66888901D01*
X144200531Y-66743296D01*
X144076704Y-66619469D01*
X143931099Y-66522179D01*
X143769312Y-66455164D01*
X143597559Y-66421000D01*
X143422441Y-66421000D01*
X143250688Y-66455164D01*
X143088901Y-66522179D01*
X142943296Y-66619469D01*
X142819469Y-66743296D01*
X142722179Y-66888901D01*
X142655164Y-67050688D01*
X142621000Y-67222441D01*
X139176309Y-67222441D01*
X139192000Y-67143559D01*
X139192000Y-66968441D01*
X139157836Y-66796688D01*
X139090821Y-66634901D01*
X138993531Y-66489296D01*
X138869704Y-66365469D01*
X138724099Y-66268179D01*
X138562312Y-66201164D01*
X138390559Y-66167000D01*
X138215441Y-66167000D01*
X138043688Y-66201164D01*
X137881901Y-66268179D01*
X137736296Y-66365469D01*
X137612469Y-66489296D01*
X137515179Y-66634901D01*
X137448164Y-66796688D01*
X137414000Y-66968441D01*
X133916768Y-66968441D01*
X133883821Y-66888901D01*
X133786531Y-66743296D01*
X133662704Y-66619469D01*
X133517099Y-66522179D01*
X133355312Y-66455164D01*
X133183559Y-66421000D01*
X133008441Y-66421000D01*
X132836688Y-66455164D01*
X132674901Y-66522179D01*
X132529296Y-66619469D01*
X132405469Y-66743296D01*
X132308179Y-66888901D01*
X132241164Y-67050688D01*
X132207000Y-67222441D01*
X128778000Y-67222441D01*
X128743836Y-67050688D01*
X128676821Y-66888901D01*
X128579531Y-66743296D01*
X128455704Y-66619469D01*
X128310099Y-66522179D01*
X128148312Y-66455164D01*
X127976559Y-66421000D01*
X127801441Y-66421000D01*
X127629688Y-66455164D01*
X127467901Y-66522179D01*
X127322296Y-66619469D01*
X127198469Y-66743296D01*
X127101179Y-66888901D01*
X127034164Y-67050688D01*
X127000000Y-67222441D01*
X96989000Y-67222441D01*
X96989000Y-67163740D01*
X96931932Y-66876842D01*
X96819990Y-66606589D01*
X96657475Y-66363368D01*
X96450632Y-66156525D01*
X96276240Y-66040000D01*
X96450632Y-65923475D01*
X96657475Y-65716632D01*
X96754488Y-65571441D01*
X124333000Y-65571441D01*
X124333000Y-65746559D01*
X124367164Y-65918312D01*
X124434179Y-66080099D01*
X124531469Y-66225704D01*
X124655296Y-66349531D01*
X124800901Y-66446821D01*
X124962688Y-66513836D01*
X125134441Y-66548000D01*
X125309559Y-66548000D01*
X125481312Y-66513836D01*
X125643099Y-66446821D01*
X125788704Y-66349531D01*
X125912531Y-66225704D01*
X126009821Y-66080099D01*
X126062699Y-65952441D01*
X129921000Y-65952441D01*
X129921000Y-66127559D01*
X129955164Y-66299312D01*
X130022179Y-66461099D01*
X130119469Y-66606704D01*
X130243296Y-66730531D01*
X130388901Y-66827821D01*
X130550688Y-66894836D01*
X130722441Y-66929000D01*
X130897559Y-66929000D01*
X131069312Y-66894836D01*
X131231099Y-66827821D01*
X131376704Y-66730531D01*
X131500531Y-66606704D01*
X131597821Y-66461099D01*
X131664836Y-66299312D01*
X131699000Y-66127559D01*
X131699000Y-65952441D01*
X131664836Y-65780688D01*
X131597821Y-65618901D01*
X131500531Y-65473296D01*
X131376704Y-65349469D01*
X131231099Y-65252179D01*
X131069312Y-65185164D01*
X130897559Y-65151000D01*
X130722441Y-65151000D01*
X130550688Y-65185164D01*
X130388901Y-65252179D01*
X130243296Y-65349469D01*
X130119469Y-65473296D01*
X130022179Y-65618901D01*
X129955164Y-65780688D01*
X129921000Y-65952441D01*
X126062699Y-65952441D01*
X126076836Y-65918312D01*
X126111000Y-65746559D01*
X126111000Y-65571441D01*
X126076836Y-65399688D01*
X126009821Y-65237901D01*
X125912531Y-65092296D01*
X125788704Y-64968469D01*
X125643099Y-64871179D01*
X125481312Y-64804164D01*
X125309559Y-64770000D01*
X125134441Y-64770000D01*
X124962688Y-64804164D01*
X124800901Y-64871179D01*
X124655296Y-64968469D01*
X124531469Y-65092296D01*
X124434179Y-65237901D01*
X124367164Y-65399688D01*
X124333000Y-65571441D01*
X96754488Y-65571441D01*
X96819990Y-65473411D01*
X96931932Y-65203158D01*
X96989000Y-64916260D01*
X96989000Y-64623740D01*
X96931932Y-64336842D01*
X96819990Y-64066589D01*
X96657475Y-63823368D01*
X96450632Y-63616525D01*
X96276240Y-63500000D01*
X96450632Y-63383475D01*
X96657475Y-63176632D01*
X96819990Y-62933411D01*
X96931932Y-62663158D01*
X96989000Y-62376260D01*
X96989000Y-62083740D01*
X96931932Y-61796842D01*
X96819990Y-61526589D01*
X96657475Y-61283368D01*
X96450632Y-61076525D01*
X96276240Y-60960000D01*
X96450632Y-60843475D01*
X96657475Y-60636632D01*
X96819990Y-60393411D01*
X96931932Y-60123158D01*
X96989000Y-59836260D01*
X96989000Y-59543740D01*
X96974307Y-59469872D01*
X98730000Y-59469872D01*
X98730000Y-59910128D01*
X98815890Y-60341925D01*
X98984369Y-60748669D01*
X99228962Y-61114729D01*
X99540271Y-61426038D01*
X99906331Y-61670631D01*
X100313075Y-61839110D01*
X100744872Y-61925000D01*
X101185128Y-61925000D01*
X101616925Y-61839110D01*
X102023669Y-61670631D01*
X102389729Y-61426038D01*
X102701038Y-61114729D01*
X102945631Y-60748669D01*
X103068502Y-60452032D01*
X106265000Y-60452032D01*
X106265000Y-60847968D01*
X106342243Y-61236296D01*
X106493761Y-61602092D01*
X106713731Y-61931301D01*
X106993699Y-62211269D01*
X107322908Y-62431239D01*
X107688704Y-62582757D01*
X108077032Y-62660000D01*
X108472968Y-62660000D01*
X108861296Y-62582757D01*
X109227092Y-62431239D01*
X109556301Y-62211269D01*
X109836269Y-61931301D01*
X110056239Y-61602092D01*
X110207757Y-61236296D01*
X110249030Y-61028800D01*
X111789528Y-61028800D01*
X111789528Y-62728800D01*
X111801788Y-62853282D01*
X111838098Y-62972980D01*
X111897063Y-63083294D01*
X111976415Y-63179985D01*
X112073106Y-63259337D01*
X112183420Y-63318302D01*
X112303118Y-63354612D01*
X112427600Y-63366872D01*
X114127600Y-63366872D01*
X114252082Y-63354612D01*
X114371780Y-63318302D01*
X114482094Y-63259337D01*
X114578785Y-63179985D01*
X114658137Y-63083294D01*
X114717102Y-62972980D01*
X114739113Y-62900420D01*
X114870968Y-63032275D01*
X115114189Y-63194790D01*
X115384442Y-63306732D01*
X115671340Y-63363800D01*
X115963860Y-63363800D01*
X116250758Y-63306732D01*
X116521011Y-63194790D01*
X116764232Y-63032275D01*
X116971075Y-62825432D01*
X117087600Y-62651040D01*
X117204125Y-62825432D01*
X117410968Y-63032275D01*
X117654189Y-63194790D01*
X117924442Y-63306732D01*
X118211340Y-63363800D01*
X118503860Y-63363800D01*
X118790758Y-63306732D01*
X119061011Y-63194790D01*
X119304232Y-63032275D01*
X119511075Y-62825432D01*
X119627600Y-62651040D01*
X119744125Y-62825432D01*
X119950968Y-63032275D01*
X120194189Y-63194790D01*
X120464442Y-63306732D01*
X120751340Y-63363800D01*
X121043860Y-63363800D01*
X121330758Y-63306732D01*
X121601011Y-63194790D01*
X121844232Y-63032275D01*
X122051075Y-62825432D01*
X122167600Y-62651040D01*
X122284125Y-62825432D01*
X122490968Y-63032275D01*
X122734189Y-63194790D01*
X123004442Y-63306732D01*
X123291340Y-63363800D01*
X123583860Y-63363800D01*
X123870758Y-63306732D01*
X124141011Y-63194790D01*
X124384232Y-63032275D01*
X124591075Y-62825432D01*
X124707600Y-62651040D01*
X124824125Y-62825432D01*
X125030968Y-63032275D01*
X125274189Y-63194790D01*
X125544442Y-63306732D01*
X125831340Y-63363800D01*
X126123860Y-63363800D01*
X126410758Y-63306732D01*
X126681011Y-63194790D01*
X126924232Y-63032275D01*
X127131075Y-62825432D01*
X127247600Y-62651040D01*
X127364125Y-62825432D01*
X127570968Y-63032275D01*
X127814189Y-63194790D01*
X128084442Y-63306732D01*
X128371340Y-63363800D01*
X128663860Y-63363800D01*
X128950758Y-63306732D01*
X129221011Y-63194790D01*
X129464232Y-63032275D01*
X129671075Y-62825432D01*
X129787600Y-62651040D01*
X129904125Y-62825432D01*
X130110968Y-63032275D01*
X130354189Y-63194790D01*
X130624442Y-63306732D01*
X130911340Y-63363800D01*
X131203860Y-63363800D01*
X131490758Y-63306732D01*
X131761011Y-63194790D01*
X132004232Y-63032275D01*
X132211075Y-62825432D01*
X132327600Y-62651040D01*
X132444125Y-62825432D01*
X132650968Y-63032275D01*
X132894189Y-63194790D01*
X133164442Y-63306732D01*
X133451340Y-63363800D01*
X133743860Y-63363800D01*
X134030758Y-63306732D01*
X134301011Y-63194790D01*
X134544232Y-63032275D01*
X134751075Y-62825432D01*
X134867600Y-62651040D01*
X134984125Y-62825432D01*
X135190968Y-63032275D01*
X135434189Y-63194790D01*
X135704442Y-63306732D01*
X135991340Y-63363800D01*
X136283860Y-63363800D01*
X136570758Y-63306732D01*
X136841011Y-63194790D01*
X137084232Y-63032275D01*
X137291075Y-62825432D01*
X137407600Y-62651040D01*
X137524125Y-62825432D01*
X137730968Y-63032275D01*
X137974189Y-63194790D01*
X138244442Y-63306732D01*
X138531340Y-63363800D01*
X138823860Y-63363800D01*
X139110758Y-63306732D01*
X139381011Y-63194790D01*
X139624232Y-63032275D01*
X139831075Y-62825432D01*
X139947600Y-62651040D01*
X140064125Y-62825432D01*
X140270968Y-63032275D01*
X140514189Y-63194790D01*
X140784442Y-63306732D01*
X141071340Y-63363800D01*
X141363860Y-63363800D01*
X141650758Y-63306732D01*
X141921011Y-63194790D01*
X142164232Y-63032275D01*
X142371075Y-62825432D01*
X142487600Y-62651040D01*
X142604125Y-62825432D01*
X142810968Y-63032275D01*
X143054189Y-63194790D01*
X143324442Y-63306732D01*
X143611340Y-63363800D01*
X143903860Y-63363800D01*
X144190758Y-63306732D01*
X144461011Y-63194790D01*
X144704232Y-63032275D01*
X144911075Y-62825432D01*
X145027600Y-62651040D01*
X145144125Y-62825432D01*
X145350968Y-63032275D01*
X145594189Y-63194790D01*
X145864442Y-63306732D01*
X146151340Y-63363800D01*
X146443860Y-63363800D01*
X146730758Y-63306732D01*
X147001011Y-63194790D01*
X147244232Y-63032275D01*
X147451075Y-62825432D01*
X147567600Y-62651040D01*
X147684125Y-62825432D01*
X147890968Y-63032275D01*
X148134189Y-63194790D01*
X148404442Y-63306732D01*
X148691340Y-63363800D01*
X148983860Y-63363800D01*
X149270758Y-63306732D01*
X149541011Y-63194790D01*
X149784232Y-63032275D01*
X149991075Y-62825432D01*
X150107600Y-62651040D01*
X150224125Y-62825432D01*
X150430968Y-63032275D01*
X150674189Y-63194790D01*
X150944442Y-63306732D01*
X151231340Y-63363800D01*
X151523860Y-63363800D01*
X151810758Y-63306732D01*
X152081011Y-63194790D01*
X152324232Y-63032275D01*
X152531075Y-62825432D01*
X152647600Y-62651040D01*
X152764125Y-62825432D01*
X152970968Y-63032275D01*
X153214189Y-63194790D01*
X153484442Y-63306732D01*
X153771340Y-63363800D01*
X154063860Y-63363800D01*
X154350758Y-63306732D01*
X154621011Y-63194790D01*
X154864232Y-63032275D01*
X155071075Y-62825432D01*
X155187600Y-62651040D01*
X155304125Y-62825432D01*
X155510968Y-63032275D01*
X155754189Y-63194790D01*
X156024442Y-63306732D01*
X156311340Y-63363800D01*
X156603860Y-63363800D01*
X156890758Y-63306732D01*
X157161011Y-63194790D01*
X157404232Y-63032275D01*
X157611075Y-62825432D01*
X157727600Y-62651040D01*
X157844125Y-62825432D01*
X158050968Y-63032275D01*
X158294189Y-63194790D01*
X158564442Y-63306732D01*
X158851340Y-63363800D01*
X159143860Y-63363800D01*
X159430758Y-63306732D01*
X159701011Y-63194790D01*
X159944232Y-63032275D01*
X160151075Y-62825432D01*
X160267600Y-62651040D01*
X160384125Y-62825432D01*
X160590968Y-63032275D01*
X160834189Y-63194790D01*
X161104442Y-63306732D01*
X161391340Y-63363800D01*
X161683860Y-63363800D01*
X161970758Y-63306732D01*
X162241011Y-63194790D01*
X162484232Y-63032275D01*
X162691075Y-62825432D01*
X162853590Y-62582211D01*
X162965532Y-62311958D01*
X163022600Y-62025060D01*
X163022600Y-61732540D01*
X162965532Y-61445642D01*
X162853590Y-61175389D01*
X162691075Y-60932168D01*
X162484232Y-60725325D01*
X162309840Y-60608800D01*
X162484232Y-60492275D01*
X162524475Y-60452032D01*
X164265000Y-60452032D01*
X164265000Y-60847968D01*
X164342243Y-61236296D01*
X164493761Y-61602092D01*
X164713731Y-61931301D01*
X164993699Y-62211269D01*
X165322908Y-62431239D01*
X165688704Y-62582757D01*
X166077032Y-62660000D01*
X166472968Y-62660000D01*
X166861296Y-62582757D01*
X167227092Y-62431239D01*
X167556301Y-62211269D01*
X167836269Y-61931301D01*
X168056239Y-61602092D01*
X168207757Y-61236296D01*
X168285000Y-60847968D01*
X168285000Y-60452032D01*
X168207757Y-60063704D01*
X168056239Y-59697908D01*
X167903871Y-59469872D01*
X171755000Y-59469872D01*
X171755000Y-59910128D01*
X171840890Y-60341925D01*
X172009369Y-60748669D01*
X172253962Y-61114729D01*
X172565271Y-61426038D01*
X172931331Y-61670631D01*
X173338075Y-61839110D01*
X173769872Y-61925000D01*
X174210128Y-61925000D01*
X174641925Y-61839110D01*
X175048669Y-61670631D01*
X175414729Y-61426038D01*
X175726038Y-61114729D01*
X175970631Y-60748669D01*
X176139110Y-60341925D01*
X176225000Y-59910128D01*
X176225000Y-59469872D01*
X176139110Y-59038075D01*
X175970631Y-58631331D01*
X175726038Y-58265271D01*
X175414729Y-57953962D01*
X175048669Y-57709369D01*
X174641925Y-57540890D01*
X174210128Y-57455000D01*
X173769872Y-57455000D01*
X173338075Y-57540890D01*
X172931331Y-57709369D01*
X172565271Y-57953962D01*
X172253962Y-58265271D01*
X172009369Y-58631331D01*
X171840890Y-59038075D01*
X171755000Y-59469872D01*
X167903871Y-59469872D01*
X167836269Y-59368699D01*
X167556301Y-59088731D01*
X167227092Y-58868761D01*
X166861296Y-58717243D01*
X166472968Y-58640000D01*
X166077032Y-58640000D01*
X165688704Y-58717243D01*
X165322908Y-58868761D01*
X164993699Y-59088731D01*
X164713731Y-59368699D01*
X164493761Y-59697908D01*
X164342243Y-60063704D01*
X164265000Y-60452032D01*
X162524475Y-60452032D01*
X162691075Y-60285432D01*
X162853590Y-60042211D01*
X162965532Y-59771958D01*
X163022600Y-59485060D01*
X163022600Y-59192540D01*
X162965532Y-58905642D01*
X162853590Y-58635389D01*
X162691075Y-58392168D01*
X162484232Y-58185325D01*
X162241011Y-58022810D01*
X161970758Y-57910868D01*
X161683860Y-57853800D01*
X161391340Y-57853800D01*
X161104442Y-57910868D01*
X160834189Y-58022810D01*
X160590968Y-58185325D01*
X160384125Y-58392168D01*
X160267600Y-58566560D01*
X160151075Y-58392168D01*
X159944232Y-58185325D01*
X159701011Y-58022810D01*
X159430758Y-57910868D01*
X159143860Y-57853800D01*
X158851340Y-57853800D01*
X158564442Y-57910868D01*
X158294189Y-58022810D01*
X158050968Y-58185325D01*
X157844125Y-58392168D01*
X157727600Y-58566560D01*
X157611075Y-58392168D01*
X157404232Y-58185325D01*
X157161011Y-58022810D01*
X156890758Y-57910868D01*
X156603860Y-57853800D01*
X156311340Y-57853800D01*
X156024442Y-57910868D01*
X155754189Y-58022810D01*
X155510968Y-58185325D01*
X155304125Y-58392168D01*
X155187600Y-58566560D01*
X155071075Y-58392168D01*
X154864232Y-58185325D01*
X154621011Y-58022810D01*
X154350758Y-57910868D01*
X154063860Y-57853800D01*
X153771340Y-57853800D01*
X153484442Y-57910868D01*
X153214189Y-58022810D01*
X152970968Y-58185325D01*
X152764125Y-58392168D01*
X152647600Y-58566560D01*
X152531075Y-58392168D01*
X152324232Y-58185325D01*
X152081011Y-58022810D01*
X151810758Y-57910868D01*
X151523860Y-57853800D01*
X151231340Y-57853800D01*
X150944442Y-57910868D01*
X150674189Y-58022810D01*
X150430968Y-58185325D01*
X150224125Y-58392168D01*
X150107600Y-58566560D01*
X149991075Y-58392168D01*
X149784232Y-58185325D01*
X149541011Y-58022810D01*
X149270758Y-57910868D01*
X148983860Y-57853800D01*
X148691340Y-57853800D01*
X148404442Y-57910868D01*
X148134189Y-58022810D01*
X147890968Y-58185325D01*
X147684125Y-58392168D01*
X147567600Y-58566560D01*
X147451075Y-58392168D01*
X147244232Y-58185325D01*
X147001011Y-58022810D01*
X146730758Y-57910868D01*
X146443860Y-57853800D01*
X146151340Y-57853800D01*
X145864442Y-57910868D01*
X145594189Y-58022810D01*
X145350968Y-58185325D01*
X145144125Y-58392168D01*
X145027600Y-58566560D01*
X144911075Y-58392168D01*
X144704232Y-58185325D01*
X144461011Y-58022810D01*
X144190758Y-57910868D01*
X143903860Y-57853800D01*
X143611340Y-57853800D01*
X143324442Y-57910868D01*
X143054189Y-58022810D01*
X142810968Y-58185325D01*
X142604125Y-58392168D01*
X142487600Y-58566560D01*
X142371075Y-58392168D01*
X142164232Y-58185325D01*
X141921011Y-58022810D01*
X141650758Y-57910868D01*
X141363860Y-57853800D01*
X141071340Y-57853800D01*
X140784442Y-57910868D01*
X140514189Y-58022810D01*
X140270968Y-58185325D01*
X140064125Y-58392168D01*
X139947600Y-58566560D01*
X139831075Y-58392168D01*
X139624232Y-58185325D01*
X139381011Y-58022810D01*
X139110758Y-57910868D01*
X138823860Y-57853800D01*
X138531340Y-57853800D01*
X138244442Y-57910868D01*
X137974189Y-58022810D01*
X137730968Y-58185325D01*
X137524125Y-58392168D01*
X137407600Y-58566560D01*
X137291075Y-58392168D01*
X137084232Y-58185325D01*
X136841011Y-58022810D01*
X136570758Y-57910868D01*
X136283860Y-57853800D01*
X135991340Y-57853800D01*
X135704442Y-57910868D01*
X135434189Y-58022810D01*
X135190968Y-58185325D01*
X134984125Y-58392168D01*
X134867600Y-58566560D01*
X134751075Y-58392168D01*
X134544232Y-58185325D01*
X134301011Y-58022810D01*
X134030758Y-57910868D01*
X133743860Y-57853800D01*
X133451340Y-57853800D01*
X133164442Y-57910868D01*
X132894189Y-58022810D01*
X132650968Y-58185325D01*
X132444125Y-58392168D01*
X132327600Y-58566560D01*
X132211075Y-58392168D01*
X132004232Y-58185325D01*
X131761011Y-58022810D01*
X131490758Y-57910868D01*
X131203860Y-57853800D01*
X130911340Y-57853800D01*
X130624442Y-57910868D01*
X130354189Y-58022810D01*
X130110968Y-58185325D01*
X129904125Y-58392168D01*
X129787600Y-58566560D01*
X129671075Y-58392168D01*
X129464232Y-58185325D01*
X129221011Y-58022810D01*
X128950758Y-57910868D01*
X128663860Y-57853800D01*
X128371340Y-57853800D01*
X128084442Y-57910868D01*
X127814189Y-58022810D01*
X127570968Y-58185325D01*
X127364125Y-58392168D01*
X127247600Y-58566560D01*
X127131075Y-58392168D01*
X126924232Y-58185325D01*
X126681011Y-58022810D01*
X126410758Y-57910868D01*
X126123860Y-57853800D01*
X125831340Y-57853800D01*
X125544442Y-57910868D01*
X125274189Y-58022810D01*
X125030968Y-58185325D01*
X124824125Y-58392168D01*
X124707600Y-58566560D01*
X124591075Y-58392168D01*
X124384232Y-58185325D01*
X124141011Y-58022810D01*
X123870758Y-57910868D01*
X123583860Y-57853800D01*
X123291340Y-57853800D01*
X123004442Y-57910868D01*
X122734189Y-58022810D01*
X122490968Y-58185325D01*
X122284125Y-58392168D01*
X122167600Y-58566560D01*
X122051075Y-58392168D01*
X121844232Y-58185325D01*
X121601011Y-58022810D01*
X121330758Y-57910868D01*
X121043860Y-57853800D01*
X120751340Y-57853800D01*
X120464442Y-57910868D01*
X120194189Y-58022810D01*
X119950968Y-58185325D01*
X119744125Y-58392168D01*
X119627600Y-58566560D01*
X119511075Y-58392168D01*
X119304232Y-58185325D01*
X119061011Y-58022810D01*
X118790758Y-57910868D01*
X118503860Y-57853800D01*
X118211340Y-57853800D01*
X117924442Y-57910868D01*
X117654189Y-58022810D01*
X117410968Y-58185325D01*
X117204125Y-58392168D01*
X117082405Y-58574334D01*
X117012778Y-58457445D01*
X116817869Y-58241212D01*
X116584520Y-58067159D01*
X116321699Y-57941975D01*
X116174490Y-57897324D01*
X115944600Y-58018645D01*
X115944600Y-59211800D01*
X115964600Y-59211800D01*
X115964600Y-59465800D01*
X115944600Y-59465800D01*
X115944600Y-59485800D01*
X115690600Y-59485800D01*
X115690600Y-59465800D01*
X113404600Y-59465800D01*
X113404600Y-59485800D01*
X113150600Y-59485800D01*
X113150600Y-59465800D01*
X111956786Y-59465800D01*
X111836119Y-59695691D01*
X111933443Y-59970052D01*
X112082422Y-60220155D01*
X112259226Y-60416302D01*
X112183420Y-60439298D01*
X112073106Y-60498263D01*
X111976415Y-60577615D01*
X111897063Y-60674306D01*
X111838098Y-60784620D01*
X111801788Y-60904318D01*
X111789528Y-61028800D01*
X110249030Y-61028800D01*
X110285000Y-60847968D01*
X110285000Y-60452032D01*
X110207757Y-60063704D01*
X110056239Y-59697908D01*
X109836269Y-59368699D01*
X109556301Y-59088731D01*
X109396431Y-58981909D01*
X111836119Y-58981909D01*
X111956786Y-59211800D01*
X113150600Y-59211800D01*
X113150600Y-58018645D01*
X113404600Y-58018645D01*
X113404600Y-59211800D01*
X115690600Y-59211800D01*
X115690600Y-58018645D01*
X115460710Y-57897324D01*
X115313501Y-57941975D01*
X115050680Y-58067159D01*
X114817331Y-58241212D01*
X114622422Y-58457445D01*
X114547600Y-58583055D01*
X114472778Y-58457445D01*
X114277869Y-58241212D01*
X114044520Y-58067159D01*
X113781699Y-57941975D01*
X113634490Y-57897324D01*
X113404600Y-58018645D01*
X113150600Y-58018645D01*
X112920710Y-57897324D01*
X112773501Y-57941975D01*
X112510680Y-58067159D01*
X112277331Y-58241212D01*
X112082422Y-58457445D01*
X111933443Y-58707548D01*
X111836119Y-58981909D01*
X109396431Y-58981909D01*
X109227092Y-58868761D01*
X108861296Y-58717243D01*
X108472968Y-58640000D01*
X108077032Y-58640000D01*
X107688704Y-58717243D01*
X107322908Y-58868761D01*
X106993699Y-59088731D01*
X106713731Y-59368699D01*
X106493761Y-59697908D01*
X106342243Y-60063704D01*
X106265000Y-60452032D01*
X103068502Y-60452032D01*
X103114110Y-60341925D01*
X103200000Y-59910128D01*
X103200000Y-59469872D01*
X103114110Y-59038075D01*
X102945631Y-58631331D01*
X102701038Y-58265271D01*
X102389729Y-57953962D01*
X102023669Y-57709369D01*
X101616925Y-57540890D01*
X101185128Y-57455000D01*
X100744872Y-57455000D01*
X100313075Y-57540890D01*
X99906331Y-57709369D01*
X99540271Y-57953962D01*
X99228962Y-58265271D01*
X98984369Y-58631331D01*
X98815890Y-59038075D01*
X98730000Y-59469872D01*
X96974307Y-59469872D01*
X96931932Y-59256842D01*
X96819990Y-58986589D01*
X96657475Y-58743368D01*
X96450632Y-58536525D01*
X96207411Y-58374010D01*
X95937158Y-58262068D01*
X95650260Y-58205000D01*
X95357740Y-58205000D01*
X95070842Y-58262068D01*
X94800589Y-58374010D01*
X94557368Y-58536525D01*
X94350525Y-58743368D01*
X94188010Y-58986589D01*
X94076068Y-59256842D01*
X94019000Y-59543740D01*
X92100000Y-59543740D01*
X92100000Y-56540000D01*
X192380001Y-56540000D01*
X192380000Y-88240000D01*
M02*
