G04 #@! TF.GenerationSoftware,KiCad,Pcbnew,(5.1.5)-3*
G04 #@! TF.CreationDate,2020-09-14T20:00:25-05:00*
G04 #@! TF.ProjectId,computer_board,636f6d70-7574-4657-925f-626f6172642e,4.1*
G04 #@! TF.SameCoordinates,Original*
G04 #@! TF.FileFunction,Soldermask,Top*
G04 #@! TF.FilePolarity,Negative*
%FSLAX46Y46*%
G04 Gerber Fmt 4.6, Leading zero omitted, Abs format (unit mm)*
G04 Created by KiCad (PCBNEW (5.1.5)-3) date 2020-09-14 20:00:25*
%MOMM*%
%LPD*%
G04 APERTURE LIST*
%ADD10C,0.100000*%
%ADD11C,1.741600*%
%ADD12C,2.851600*%
%ADD13R,1.801600X1.801600*%
%ADD14O,1.801600X1.801600*%
%ADD15C,3.301600*%
G04 APERTURE END LIST*
D10*
X181338000Y-85090000D02*
G75*
G03X181338000Y-85090000I-871000J0D01*
G01*
X183878000Y-85090000D02*
G75*
G03X183878000Y-85090000I-871000J0D01*
G01*
X181338000Y-82550000D02*
G75*
G03X181338000Y-82550000I-871000J0D01*
G01*
X183878000Y-82550000D02*
G75*
G03X183878000Y-82550000I-871000J0D01*
G01*
X181338000Y-80010000D02*
G75*
G03X181338000Y-80010000I-871000J0D01*
G01*
X183878000Y-80010000D02*
G75*
G03X183878000Y-80010000I-871000J0D01*
G01*
X181338000Y-77470000D02*
G75*
G03X181338000Y-77470000I-871000J0D01*
G01*
X183878000Y-77470000D02*
G75*
G03X183878000Y-77470000I-871000J0D01*
G01*
X181338000Y-74930000D02*
G75*
G03X181338000Y-74930000I-871000J0D01*
G01*
X183878000Y-74930000D02*
G75*
G03X183878000Y-74930000I-871000J0D01*
G01*
X181338000Y-72390000D02*
G75*
G03X181338000Y-72390000I-871000J0D01*
G01*
X183878000Y-72390000D02*
G75*
G03X183878000Y-72390000I-871000J0D01*
G01*
X181338000Y-69850000D02*
G75*
G03X181338000Y-69850000I-871000J0D01*
G01*
X183878000Y-69850000D02*
G75*
G03X183878000Y-69850000I-871000J0D01*
G01*
X181338000Y-67310000D02*
G75*
G03X181338000Y-67310000I-871000J0D01*
G01*
X183878000Y-67310000D02*
G75*
G03X183878000Y-67310000I-871000J0D01*
G01*
X181338000Y-64770000D02*
G75*
G03X181338000Y-64770000I-871000J0D01*
G01*
X183878000Y-64770000D02*
G75*
G03X183878000Y-64770000I-871000J0D01*
G01*
X181338000Y-62230000D02*
G75*
G03X181338000Y-62230000I-871000J0D01*
G01*
X183878000Y-62230000D02*
G75*
G03X183878000Y-62230000I-871000J0D01*
G01*
X181338000Y-59690000D02*
G75*
G03X181338000Y-59690000I-871000J0D01*
G01*
X183878000Y-59690000D02*
G75*
G03X183878000Y-59690000I-871000J0D01*
G01*
D11*
X180467000Y-85090000D03*
X183007000Y-85090000D03*
X180467000Y-82550000D03*
X183007000Y-82550000D03*
X180467000Y-80010000D03*
X183007000Y-80010000D03*
X180467000Y-77470000D03*
X183007000Y-77470000D03*
X180467000Y-74930000D03*
X183007000Y-74930000D03*
X180467000Y-72390000D03*
X183007000Y-72390000D03*
X180467000Y-69850000D03*
X183007000Y-69850000D03*
X180467000Y-67310000D03*
X183007000Y-67310000D03*
X180467000Y-64770000D03*
X183007000Y-64770000D03*
X180467000Y-62230000D03*
X183007000Y-62230000D03*
X180467000Y-59690000D03*
X183007000Y-59690000D03*
D12*
X108275000Y-83650000D03*
X166275000Y-60650000D03*
X166275000Y-83650000D03*
X108275000Y-60650000D03*
D13*
X113277600Y-61878800D03*
D14*
X113277600Y-59338800D03*
X115817600Y-61878800D03*
X115817600Y-59338800D03*
X118357600Y-61878800D03*
X118357600Y-59338800D03*
X120897600Y-61878800D03*
X120897600Y-59338800D03*
X123437600Y-61878800D03*
X123437600Y-59338800D03*
X125977600Y-61878800D03*
X125977600Y-59338800D03*
X128517600Y-61878800D03*
X128517600Y-59338800D03*
X131057600Y-61878800D03*
X131057600Y-59338800D03*
X133597600Y-61878800D03*
X133597600Y-59338800D03*
X136137600Y-61878800D03*
X136137600Y-59338800D03*
X138677600Y-61878800D03*
X138677600Y-59338800D03*
X141217600Y-61878800D03*
X141217600Y-59338800D03*
X143757600Y-61878800D03*
X143757600Y-59338800D03*
X146297600Y-61878800D03*
X146297600Y-59338800D03*
X148837600Y-61878800D03*
X148837600Y-59338800D03*
X151377600Y-61878800D03*
X151377600Y-59338800D03*
X153917600Y-61878800D03*
X153917600Y-59338800D03*
X156457600Y-61878800D03*
X156457600Y-59338800D03*
X158997600Y-61878800D03*
X158997600Y-59338800D03*
X161537600Y-61878800D03*
X161537600Y-59338800D03*
D15*
X100965000Y-59690000D03*
X173990000Y-59690000D03*
X100965000Y-85090000D03*
X173990000Y-85090000D03*
D14*
X95504000Y-59690000D03*
X95504000Y-62230000D03*
X95504000Y-64770000D03*
X95504000Y-67310000D03*
X95504000Y-69850000D03*
X95504000Y-72390000D03*
X95504000Y-74930000D03*
X95504000Y-77470000D03*
X95504000Y-80010000D03*
X95504000Y-82550000D03*
D13*
X95504000Y-85090000D03*
M02*
