G04 #@! TF.GenerationSoftware,KiCad,Pcbnew,(5.1.2)-1*
G04 #@! TF.CreationDate,2019-11-05T14:52:24-06:00*
G04 #@! TF.ProjectId,computer_board,636f6d70-7574-4657-925f-626f6172642e,rev?*
G04 #@! TF.SameCoordinates,Original*
G04 #@! TF.FileFunction,Copper,L4,Bot*
G04 #@! TF.FilePolarity,Positive*
%FSLAX46Y46*%
G04 Gerber Fmt 4.6, Leading zero omitted, Abs format (unit mm)*
G04 Created by KiCad (PCBNEW (5.1.2)-1) date 2019-11-05 14:52:24*
%MOMM*%
%LPD*%
G04 APERTURE LIST*
%ADD10C,1.640000*%
%ADD11O,1.700000X1.700000*%
%ADD12R,1.700000X1.700000*%
%ADD13R,0.800000X0.900000*%
%ADD14R,1.200000X0.900000*%
%ADD15C,0.508000*%
%ADD16C,0.304800*%
%ADD17C,0.152400*%
G04 APERTURE END LIST*
D10*
X184150000Y-59690000D03*
X181610000Y-59690000D03*
X184150000Y-62230000D03*
X181610000Y-62230000D03*
X184150000Y-64770000D03*
X181610000Y-64770000D03*
X184150000Y-67310000D03*
X181610000Y-67310000D03*
X184150000Y-69850000D03*
X181610000Y-69850000D03*
X184150000Y-72390000D03*
X181610000Y-72390000D03*
X184150000Y-74930000D03*
X181610000Y-74930000D03*
X184150000Y-77470000D03*
X181610000Y-77470000D03*
X184150000Y-80010000D03*
X181610000Y-80010000D03*
X184150000Y-82550000D03*
X181610000Y-82550000D03*
X184150000Y-85090000D03*
X181610000Y-85090000D03*
D11*
X95250000Y-59690000D03*
X95250000Y-62230000D03*
X95250000Y-64770000D03*
X95250000Y-67310000D03*
X95250000Y-69850000D03*
X95250000Y-72390000D03*
X95250000Y-74930000D03*
X95250000Y-77470000D03*
X95250000Y-80010000D03*
X95250000Y-82550000D03*
D12*
X95250000Y-85090000D03*
D11*
X113265000Y-61870000D03*
X113265000Y-59330000D03*
X115805000Y-61870000D03*
X115805000Y-59330000D03*
X118345000Y-61870000D03*
X118345000Y-59330000D03*
X120885000Y-61870000D03*
X120885000Y-59330000D03*
X123425000Y-61870000D03*
X123425000Y-59330000D03*
X125965000Y-61870000D03*
X125965000Y-59330000D03*
X128505000Y-61870000D03*
X128505000Y-59330000D03*
X131045000Y-61870000D03*
X131045000Y-59330000D03*
X133585000Y-61870000D03*
X133585000Y-59330000D03*
X136125000Y-61870000D03*
X136125000Y-59330000D03*
X138665000Y-61870000D03*
X138665000Y-59330000D03*
X141205000Y-61870000D03*
X141205000Y-59330000D03*
X143745000Y-61870000D03*
X143745000Y-59330000D03*
X146285000Y-61870000D03*
X146285000Y-59330000D03*
X148825000Y-61870000D03*
X148825000Y-59330000D03*
X151365000Y-61870000D03*
X151365000Y-59330000D03*
X153905000Y-61870000D03*
X153905000Y-59330000D03*
X156445000Y-61870000D03*
X156445000Y-59330000D03*
X158985000Y-61870000D03*
X158985000Y-59330000D03*
X161525000Y-61870000D03*
D12*
X161525000Y-59330000D03*
D13*
X117094000Y-68310000D03*
X118044000Y-66310000D03*
X116144000Y-66310000D03*
X167894000Y-68310000D03*
X168844000Y-66310000D03*
X166944000Y-66310000D03*
X162814000Y-68310000D03*
X163764000Y-66310000D03*
X161864000Y-66310000D03*
X151704000Y-66310000D03*
X153604000Y-66310000D03*
X152654000Y-68310000D03*
X146624000Y-66310000D03*
X148524000Y-66310000D03*
X147574000Y-68310000D03*
X141544000Y-66310000D03*
X143444000Y-66310000D03*
X142494000Y-68310000D03*
X137414000Y-68310000D03*
X138364000Y-66310000D03*
X136464000Y-66310000D03*
X112014000Y-68310000D03*
X112964000Y-66310000D03*
X111064000Y-66310000D03*
X157734000Y-68310000D03*
X158684000Y-66310000D03*
X156784000Y-66310000D03*
X126304000Y-66310000D03*
X128204000Y-66310000D03*
X127254000Y-68310000D03*
X131384000Y-66310000D03*
X133284000Y-66310000D03*
X132334000Y-68310000D03*
X121224000Y-66310000D03*
X123124000Y-66310000D03*
X122174000Y-68310000D03*
D14*
X115994000Y-64516000D03*
X118194000Y-64516000D03*
X166794000Y-64516000D03*
X168994000Y-64516000D03*
X161714000Y-64516000D03*
X163914000Y-64516000D03*
X151554000Y-64516000D03*
X153754000Y-64516000D03*
X115994000Y-70104000D03*
X118194000Y-70104000D03*
X166794000Y-70104000D03*
X168994000Y-70104000D03*
X161714000Y-70104000D03*
X163914000Y-70104000D03*
X151554000Y-70104000D03*
X153754000Y-70104000D03*
X146474000Y-64516000D03*
X148674000Y-64516000D03*
X143594000Y-64516000D03*
X141394000Y-64516000D03*
X138514000Y-64516000D03*
X136314000Y-64516000D03*
X110914000Y-64516000D03*
X113114000Y-64516000D03*
X146474000Y-70104000D03*
X148674000Y-70104000D03*
X143594000Y-70104000D03*
X141394000Y-70104000D03*
X138514000Y-70104000D03*
X136314000Y-70104000D03*
X113114000Y-70104000D03*
X110914000Y-70104000D03*
X156634000Y-64516000D03*
X158834000Y-64516000D03*
X128354000Y-64516000D03*
X126154000Y-64516000D03*
X133434000Y-64516000D03*
X131234000Y-64516000D03*
X123274000Y-64516000D03*
X121074000Y-64516000D03*
X156634000Y-70104000D03*
X158834000Y-70104000D03*
X128354000Y-70104000D03*
X126154000Y-70104000D03*
X131234000Y-70104000D03*
X133434000Y-70104000D03*
X123274000Y-70104000D03*
X121074000Y-70104000D03*
D15*
X137414000Y-67310000D03*
X127254000Y-67056000D03*
X142494000Y-67310000D03*
X112014000Y-67310000D03*
X162814000Y-67310000D03*
X132334000Y-67310000D03*
X147574000Y-67310000D03*
X122174000Y-67310000D03*
X152654000Y-67310000D03*
X117094000Y-67310000D03*
X167894000Y-67310000D03*
X155194000Y-66040000D03*
X160020000Y-64008000D03*
X163576000Y-63246000D03*
X138430000Y-69088000D03*
X159004000Y-68834000D03*
X128524000Y-69088000D03*
X143764000Y-68834000D03*
X113538000Y-68834000D03*
X164084000Y-68834000D03*
X133604000Y-68834000D03*
X148844000Y-68834000D03*
X123444000Y-68834000D03*
X153924000Y-68834000D03*
X118364000Y-68834000D03*
X169164000Y-68834000D03*
X178816000Y-78486000D03*
X115824000Y-73914000D03*
X178816000Y-77216000D03*
X166878000Y-73406000D03*
X161544000Y-72415460D03*
X151638000Y-72136000D03*
X146558000Y-71805840D03*
X141478000Y-71628000D03*
X134874000Y-70891410D03*
X109474000Y-70104000D03*
X156464000Y-68834000D03*
X175260000Y-73660000D03*
X126154000Y-72728000D03*
X129794000Y-70866000D03*
X119634000Y-70866000D03*
D16*
X112964000Y-64666000D02*
X113114000Y-64516000D01*
X112964000Y-66310000D02*
X112964000Y-64666000D01*
D17*
X113114000Y-63913600D02*
X113114000Y-64516000D01*
X114343601Y-62683999D02*
X113114000Y-63913600D01*
X114343601Y-60791399D02*
X114343601Y-62683999D01*
X115805000Y-59330000D02*
X114343601Y-60791399D01*
D16*
X118044000Y-64666000D02*
X118194000Y-64516000D01*
X118044000Y-66310000D02*
X118044000Y-64666000D01*
D17*
X118345000Y-64365000D02*
X118194000Y-64516000D01*
X118345000Y-61870000D02*
X118345000Y-64365000D01*
D16*
X123124000Y-64666000D02*
X123274000Y-64516000D01*
X123124000Y-66310000D02*
X123124000Y-64666000D01*
D17*
X122346399Y-61041601D02*
X122936000Y-60452000D01*
X122346399Y-63738399D02*
X122346399Y-61041601D01*
X123274000Y-64516000D02*
X123124000Y-64516000D01*
X123124000Y-64516000D02*
X122346399Y-63738399D01*
X132463000Y-60452000D02*
X133585000Y-59330000D01*
X122936000Y-60452000D02*
X132463000Y-60452000D01*
D16*
X138364000Y-64666000D02*
X138514000Y-64516000D01*
X138364000Y-66310000D02*
X138364000Y-64666000D01*
D17*
X136125000Y-62277000D02*
X136125000Y-61870000D01*
X138364000Y-64516000D02*
X136125000Y-62277000D01*
X138514000Y-64516000D02*
X138364000Y-64516000D01*
D16*
X128204000Y-64666000D02*
X128354000Y-64516000D01*
X128204000Y-66310000D02*
X128204000Y-64666000D01*
D17*
X128354000Y-63913600D02*
X128354000Y-64516000D01*
X127426399Y-62985999D02*
X128354000Y-63913600D01*
X127426399Y-60969473D02*
X127426399Y-62985999D01*
X127604473Y-60791399D02*
X127426399Y-60969473D01*
X134663601Y-60791399D02*
X127604473Y-60791399D01*
X136125000Y-59330000D02*
X134663601Y-60791399D01*
D16*
X133284000Y-64666000D02*
X133434000Y-64516000D01*
X133284000Y-66310000D02*
X133284000Y-64666000D01*
D17*
X137586399Y-60408601D02*
X137815001Y-60179999D01*
X135990069Y-60408601D02*
X137586399Y-60408601D01*
X135046399Y-61352271D02*
X135990069Y-60408601D01*
X137815001Y-60179999D02*
X138665000Y-59330000D01*
X134186400Y-64516000D02*
X135046399Y-63656001D01*
X135046399Y-63656001D02*
X135046399Y-61352271D01*
X133434000Y-64516000D02*
X134186400Y-64516000D01*
D16*
X143444000Y-64666000D02*
X143594000Y-64516000D01*
X143444000Y-66310000D02*
X143444000Y-64666000D01*
D17*
X141205000Y-62277000D02*
X141205000Y-61870000D01*
X143444000Y-64516000D02*
X141205000Y-62277000D01*
X143594000Y-64516000D02*
X143444000Y-64516000D01*
D16*
X136464000Y-64666000D02*
X136314000Y-64516000D01*
X136464000Y-66310000D02*
X136464000Y-64666000D01*
X136464000Y-66310000D02*
X136464000Y-66360000D01*
X136464000Y-66360000D02*
X137414000Y-67310000D01*
X156784000Y-64666000D02*
X156634000Y-64516000D01*
X156784000Y-66310000D02*
X156784000Y-64666000D01*
X126304000Y-64666000D02*
X126154000Y-64516000D01*
X126304000Y-66310000D02*
X126304000Y-64666000D01*
X126304000Y-66310000D02*
X126508000Y-66310000D01*
X126508000Y-66310000D02*
X127254000Y-67056000D01*
X141394000Y-66160000D02*
X141544000Y-66310000D01*
X141394000Y-64516000D02*
X141394000Y-66160000D01*
X141544000Y-66310000D02*
X141544000Y-66360000D01*
X141544000Y-66360000D02*
X142494000Y-67310000D01*
X111064000Y-64666000D02*
X110914000Y-64516000D01*
X111064000Y-66310000D02*
X111064000Y-64666000D01*
X111064000Y-66310000D02*
X111064000Y-66360000D01*
X111064000Y-66360000D02*
X112014000Y-67310000D01*
X161864000Y-64666000D02*
X161714000Y-64516000D01*
X161864000Y-66310000D02*
X161864000Y-64666000D01*
X161864000Y-66310000D02*
X161864000Y-66360000D01*
X161864000Y-66360000D02*
X162814000Y-67310000D01*
X131384000Y-64666000D02*
X131234000Y-64516000D01*
X131384000Y-66310000D02*
X131384000Y-64666000D01*
X131384000Y-66310000D02*
X131384000Y-66360000D01*
X131384000Y-66360000D02*
X132334000Y-67310000D01*
X146624000Y-64666000D02*
X146474000Y-64516000D01*
X146624000Y-66310000D02*
X146624000Y-64666000D01*
X146624000Y-66310000D02*
X146624000Y-66360000D01*
X146624000Y-66360000D02*
X147574000Y-67310000D01*
X121224000Y-64666000D02*
X121074000Y-64516000D01*
X121224000Y-66310000D02*
X121224000Y-64666000D01*
X121224000Y-66310000D02*
X121224000Y-66360000D01*
X121224000Y-66360000D02*
X122174000Y-67310000D01*
X151704000Y-64666000D02*
X151554000Y-64516000D01*
X151704000Y-66310000D02*
X151704000Y-64666000D01*
X151704000Y-66310000D02*
X151704000Y-66360000D01*
X151704000Y-66360000D02*
X152654000Y-67310000D01*
X116144000Y-64666000D02*
X115994000Y-64516000D01*
X116144000Y-66310000D02*
X116144000Y-64666000D01*
X116144000Y-66310000D02*
X116144000Y-66360000D01*
X116144000Y-66360000D02*
X117094000Y-67310000D01*
X166944000Y-64666000D02*
X166794000Y-64516000D01*
X166944000Y-66310000D02*
X166944000Y-64666000D01*
X166944000Y-66310000D02*
X166944000Y-66360000D01*
X166944000Y-66360000D02*
X167894000Y-67310000D01*
X156784000Y-66310000D02*
X155464000Y-66310000D01*
X155464000Y-66310000D02*
X155194000Y-66040000D01*
X161714000Y-64516000D02*
X160528000Y-64516000D01*
X160528000Y-64516000D02*
X160020000Y-64008000D01*
X148524000Y-64666000D02*
X148674000Y-64516000D01*
X148524000Y-66310000D02*
X148524000Y-64666000D01*
D17*
X144594999Y-62719999D02*
X143745000Y-61870000D01*
X144823601Y-62948601D02*
X144594999Y-62719999D01*
X146956601Y-62948601D02*
X144823601Y-62948601D01*
X148524000Y-64516000D02*
X146956601Y-62948601D01*
X148674000Y-64516000D02*
X148524000Y-64516000D01*
D16*
X153604000Y-64666000D02*
X153754000Y-64516000D01*
X153604000Y-66310000D02*
X153604000Y-64666000D01*
D17*
X144594999Y-60179999D02*
X143745000Y-59330000D01*
X144823601Y-60408601D02*
X144594999Y-60179999D01*
X146419931Y-60408601D02*
X144823601Y-60408601D01*
X147363601Y-62019601D02*
X147363601Y-61352271D01*
X148292601Y-62948601D02*
X147363601Y-62019601D01*
X152036601Y-62948601D02*
X148292601Y-62948601D01*
X147363601Y-61352271D02*
X146419931Y-60408601D01*
X153604000Y-64516000D02*
X152036601Y-62948601D01*
X153754000Y-64516000D02*
X153604000Y-64516000D01*
D16*
X158684000Y-64666000D02*
X158834000Y-64516000D01*
X158684000Y-66310000D02*
X158684000Y-64666000D01*
D17*
X147363601Y-60408601D02*
X147134999Y-60179999D01*
X151499931Y-60408601D02*
X147363601Y-60408601D01*
X152443601Y-62019601D02*
X152443601Y-61352271D01*
X153372601Y-62948601D02*
X152443601Y-62019601D01*
X147134999Y-60179999D02*
X146285000Y-59330000D01*
X156514201Y-62948601D02*
X153372601Y-62948601D01*
X158081600Y-64516000D02*
X156514201Y-62948601D01*
X152443601Y-61352271D02*
X151499931Y-60408601D01*
X158834000Y-64516000D02*
X158081600Y-64516000D01*
D16*
X163764000Y-64666000D02*
X163914000Y-64516000D01*
X163764000Y-66310000D02*
X163764000Y-64666000D01*
D17*
X163914000Y-64516000D02*
X163914000Y-63584000D01*
X163914000Y-63584000D02*
X163576000Y-63246000D01*
D16*
X168844000Y-64666000D02*
X168994000Y-64516000D01*
X168844000Y-66310000D02*
X168844000Y-64666000D01*
D17*
X168994000Y-64516000D02*
X168994000Y-59012000D01*
X168994000Y-59012000D02*
X167386000Y-57404000D01*
X150751000Y-57404000D02*
X148825000Y-59330000D01*
X167386000Y-57404000D02*
X150751000Y-57404000D01*
D16*
X138514000Y-70104000D02*
X138514000Y-69172000D01*
X138514000Y-69172000D02*
X138430000Y-69088000D01*
X158834000Y-70104000D02*
X158834000Y-69004000D01*
X158834000Y-69004000D02*
X159004000Y-68834000D01*
X128354000Y-70104000D02*
X128354000Y-69258000D01*
X128354000Y-69258000D02*
X128524000Y-69088000D01*
X143594000Y-70104000D02*
X143594000Y-69004000D01*
X143594000Y-69004000D02*
X143764000Y-68834000D01*
X113114000Y-70104000D02*
X113114000Y-69258000D01*
X113114000Y-69258000D02*
X113538000Y-68834000D01*
X163914000Y-70104000D02*
X163914000Y-69004000D01*
X163914000Y-69004000D02*
X164084000Y-68834000D01*
X133434000Y-70104000D02*
X133434000Y-69004000D01*
X133434000Y-69004000D02*
X133604000Y-68834000D01*
X148674000Y-70104000D02*
X148674000Y-69004000D01*
X148674000Y-69004000D02*
X148844000Y-68834000D01*
X123274000Y-70104000D02*
X123274000Y-69004000D01*
X123274000Y-69004000D02*
X123444000Y-68834000D01*
X153754000Y-70104000D02*
X153754000Y-69004000D01*
X153754000Y-69004000D02*
X153924000Y-68834000D01*
X118194000Y-70104000D02*
X118194000Y-69004000D01*
X118194000Y-69004000D02*
X118364000Y-68834000D01*
X168994000Y-70104000D02*
X168994000Y-69004000D01*
X168994000Y-69004000D02*
X169164000Y-68834000D01*
X117094000Y-69004000D02*
X115994000Y-70104000D01*
X117094000Y-68310000D02*
X117094000Y-69004000D01*
D17*
X184150000Y-85090000D02*
X183101399Y-84041399D01*
X183101399Y-82517399D02*
X181642601Y-81058601D01*
X181642601Y-81058601D02*
X181106671Y-81058601D01*
X181106671Y-81058601D02*
X178816000Y-78767930D01*
X183101399Y-84041399D02*
X183101399Y-82517399D01*
X178816000Y-78767930D02*
X178816000Y-78486000D01*
X115824000Y-70274000D02*
X115994000Y-70104000D01*
X115824000Y-73914000D02*
X115824000Y-70274000D01*
D16*
X167894000Y-69004000D02*
X166794000Y-70104000D01*
X167894000Y-68310000D02*
X167894000Y-69004000D01*
D17*
X180561399Y-78961399D02*
X178816000Y-77216000D01*
X182113329Y-78961399D02*
X180561399Y-78961399D01*
X182658601Y-79506671D02*
X182113329Y-78961399D01*
X184150000Y-82550000D02*
X182658601Y-81058601D01*
X182658601Y-81058601D02*
X182658601Y-79506671D01*
X166878000Y-70188000D02*
X166794000Y-70104000D01*
X166878000Y-73406000D02*
X166878000Y-70188000D01*
D16*
X162814000Y-69004000D02*
X161714000Y-70104000D01*
X162814000Y-68310000D02*
X162814000Y-69004000D01*
D17*
X161544000Y-70274000D02*
X161714000Y-70104000D01*
X161544000Y-72415460D02*
X161544000Y-70274000D01*
D16*
X152654000Y-69004000D02*
X151554000Y-70104000D01*
X152654000Y-68310000D02*
X152654000Y-69004000D01*
D17*
X151638000Y-70188000D02*
X151554000Y-70104000D01*
X151638000Y-72136000D02*
X151638000Y-70188000D01*
D16*
X147574000Y-69004000D02*
X146474000Y-70104000D01*
X147574000Y-68310000D02*
X147574000Y-69004000D01*
D17*
X146558000Y-70188000D02*
X146474000Y-70104000D01*
X146558000Y-71805840D02*
X146558000Y-70188000D01*
D16*
X142494000Y-69004000D02*
X141394000Y-70104000D01*
X142494000Y-68310000D02*
X142494000Y-69004000D01*
D17*
X141478000Y-70188000D02*
X141394000Y-70104000D01*
X141478000Y-71628000D02*
X141478000Y-70188000D01*
D16*
X137414000Y-69004000D02*
X136314000Y-70104000D01*
X137414000Y-68310000D02*
X137414000Y-69004000D01*
D17*
X135661410Y-70104000D02*
X136314000Y-70104000D01*
X134874000Y-70891410D02*
X135661410Y-70104000D01*
D16*
X112014000Y-69004000D02*
X110914000Y-70104000D01*
X112014000Y-68310000D02*
X112014000Y-69004000D01*
D17*
X109474000Y-70104000D02*
X110914000Y-70104000D01*
D16*
X157734000Y-69004000D02*
X156634000Y-70104000D01*
X157734000Y-68310000D02*
X157734000Y-69004000D01*
D17*
X156464000Y-69934000D02*
X156634000Y-70104000D01*
X156464000Y-68834000D02*
X156464000Y-69934000D01*
D16*
X127254000Y-69004000D02*
X126154000Y-70104000D01*
X127254000Y-68310000D02*
X127254000Y-69004000D01*
D17*
X175514000Y-73406000D02*
X175260000Y-73660000D01*
X181610000Y-67310000D02*
X175514000Y-73406000D01*
X126154000Y-72728000D02*
X126154000Y-70104000D01*
D16*
X132334000Y-69004000D02*
X131234000Y-70104000D01*
X132334000Y-68310000D02*
X132334000Y-69004000D01*
D17*
X130556000Y-70104000D02*
X131234000Y-70104000D01*
X129794000Y-70866000D02*
X130556000Y-70104000D01*
D16*
X122174000Y-69004000D02*
X121074000Y-70104000D01*
X122174000Y-68310000D02*
X122174000Y-69004000D01*
D17*
X120396000Y-70104000D02*
X121074000Y-70104000D01*
X119634000Y-70866000D02*
X120396000Y-70104000D01*
M02*
