G04 #@! TF.GenerationSoftware,KiCad,Pcbnew,(5.1.2)-1*
G04 #@! TF.CreationDate,2019-11-05T14:52:24-06:00*
G04 #@! TF.ProjectId,computer_board,636f6d70-7574-4657-925f-626f6172642e,rev?*
G04 #@! TF.SameCoordinates,Original*
G04 #@! TF.FileFunction,Paste,Bot*
G04 #@! TF.FilePolarity,Positive*
%FSLAX46Y46*%
G04 Gerber Fmt 4.6, Leading zero omitted, Abs format (unit mm)*
G04 Created by KiCad (PCBNEW (5.1.2)-1) date 2019-11-05 14:52:24*
%MOMM*%
%LPD*%
G04 APERTURE LIST*
%ADD10R,0.800000X0.900000*%
%ADD11R,1.200000X0.900000*%
G04 APERTURE END LIST*
D10*
X117094000Y-68310000D03*
X118044000Y-66310000D03*
X116144000Y-66310000D03*
X167894000Y-68310000D03*
X168844000Y-66310000D03*
X166944000Y-66310000D03*
X162814000Y-68310000D03*
X163764000Y-66310000D03*
X161864000Y-66310000D03*
X151704000Y-66310000D03*
X153604000Y-66310000D03*
X152654000Y-68310000D03*
X146624000Y-66310000D03*
X148524000Y-66310000D03*
X147574000Y-68310000D03*
X141544000Y-66310000D03*
X143444000Y-66310000D03*
X142494000Y-68310000D03*
X137414000Y-68310000D03*
X138364000Y-66310000D03*
X136464000Y-66310000D03*
X112014000Y-68310000D03*
X112964000Y-66310000D03*
X111064000Y-66310000D03*
X157734000Y-68310000D03*
X158684000Y-66310000D03*
X156784000Y-66310000D03*
X126304000Y-66310000D03*
X128204000Y-66310000D03*
X127254000Y-68310000D03*
X131384000Y-66310000D03*
X133284000Y-66310000D03*
X132334000Y-68310000D03*
X121224000Y-66310000D03*
X123124000Y-66310000D03*
X122174000Y-68310000D03*
D11*
X115994000Y-64516000D03*
X118194000Y-64516000D03*
X166794000Y-64516000D03*
X168994000Y-64516000D03*
X161714000Y-64516000D03*
X163914000Y-64516000D03*
X151554000Y-64516000D03*
X153754000Y-64516000D03*
X115994000Y-70104000D03*
X118194000Y-70104000D03*
X166794000Y-70104000D03*
X168994000Y-70104000D03*
X161714000Y-70104000D03*
X163914000Y-70104000D03*
X151554000Y-70104000D03*
X153754000Y-70104000D03*
X146474000Y-64516000D03*
X148674000Y-64516000D03*
X143594000Y-64516000D03*
X141394000Y-64516000D03*
X138514000Y-64516000D03*
X136314000Y-64516000D03*
X110914000Y-64516000D03*
X113114000Y-64516000D03*
X146474000Y-70104000D03*
X148674000Y-70104000D03*
X143594000Y-70104000D03*
X141394000Y-70104000D03*
X138514000Y-70104000D03*
X136314000Y-70104000D03*
X113114000Y-70104000D03*
X110914000Y-70104000D03*
X156634000Y-64516000D03*
X158834000Y-64516000D03*
X128354000Y-64516000D03*
X126154000Y-64516000D03*
X133434000Y-64516000D03*
X131234000Y-64516000D03*
X123274000Y-64516000D03*
X121074000Y-64516000D03*
X156634000Y-70104000D03*
X158834000Y-70104000D03*
X128354000Y-70104000D03*
X126154000Y-70104000D03*
X131234000Y-70104000D03*
X133434000Y-70104000D03*
X123274000Y-70104000D03*
X121074000Y-70104000D03*
M02*
