M48
; DRILL file {KiCad (5.1.2)-1} date 11/5/2019 2:52:26 PM
; FORMAT={-:-/ absolute / inch / decimal}
; #@! TF.CreationDate,2019-11-05T14:52:26-06:00
; #@! TF.GenerationSoftware,Kicad,Pcbnew,(5.1.2)-1
; #@! TF.FileFunction,Plated,1,4,PTH
FMAT,2
INCH
T1C0.0100
T2C0.0394
T3C0.0409
%
G90
G05
T1
X4.31Y-2.76
X4.41Y-2.65
X4.47Y-2.71
X4.56Y-2.91
X4.61Y-2.65
X4.66Y-2.71
X4.71Y-2.79
X4.81Y-2.65
X4.86Y-2.71
X4.9667Y-2.8633
X5.01Y-2.64
X5.06Y-2.72
X5.11Y-2.79
X5.21Y-2.65
X5.26Y-2.71
X5.31Y-2.791
X5.41Y-2.65
X5.45Y-2.72
X5.57Y-2.82
X5.61Y-2.65
X5.66Y-2.71
X5.77Y-2.827
X5.81Y-2.65
X5.86Y-2.71
X5.97Y-2.84
X6.01Y-2.65
X6.06Y-2.71
X6.11Y-2.6
X6.16Y-2.71
X6.26Y-2.71
X6.3Y-2.52
X6.36Y-2.851
X6.41Y-2.65
X6.44Y-2.49
X6.46Y-2.71
X6.57Y-2.89
X6.61Y-2.65
X6.66Y-2.71
X6.9Y-2.9
X7.04Y-3.04
X7.04Y-3.09
T2
X4.4593Y-2.3358
X4.4593Y-2.4358
X4.5593Y-2.3358
X4.5593Y-2.4358
X4.6593Y-2.3358
X4.6593Y-2.4358
X4.7593Y-2.3358
X4.7593Y-2.4358
X4.8593Y-2.3358
X4.8593Y-2.4358
X4.9593Y-2.3358
X4.9593Y-2.4358
X5.0593Y-2.3358
X5.0593Y-2.4358
X5.1593Y-2.3358
X5.1593Y-2.4358
X5.2593Y-2.3358
X5.2593Y-2.4358
X5.3593Y-2.3358
X5.3593Y-2.4358
X5.4593Y-2.3358
X5.4593Y-2.4358
X5.5593Y-2.3358
X5.5593Y-2.4358
X5.6593Y-2.3358
X5.6593Y-2.4358
X5.7593Y-2.3358
X5.7593Y-2.4358
X5.8593Y-2.3358
X5.8593Y-2.4358
X5.9593Y-2.3358
X5.9593Y-2.4358
X6.0593Y-2.3358
X6.0593Y-2.4358
X6.1593Y-2.3358
X6.1593Y-2.4358
X6.2593Y-2.3358
X6.2593Y-2.4358
X6.3593Y-2.3358
X6.3593Y-2.4358
X3.75Y-2.35
X3.75Y-2.45
X3.75Y-2.55
X3.75Y-2.65
X3.75Y-2.75
X3.75Y-2.85
X3.75Y-2.95
X3.75Y-3.05
X3.75Y-3.15
X3.75Y-3.25
X3.75Y-3.35
T3
X7.15Y-2.35
X7.15Y-2.45
X7.15Y-2.55
X7.15Y-2.65
X7.15Y-2.75
X7.15Y-2.85
X7.15Y-2.95
X7.15Y-3.05
X7.15Y-3.15
X7.15Y-3.25
X7.15Y-3.35
X7.25Y-2.35
X7.25Y-2.45
X7.25Y-2.55
X7.25Y-2.65
X7.25Y-2.75
X7.25Y-2.85
X7.25Y-2.95
X7.25Y-3.05
X7.25Y-3.15
X7.25Y-3.25
X7.25Y-3.35
T0
M30
