M48
; DRILL file {KiCad (5.1.5)-3} date 9/14/2020 8:00:27 PM
; FORMAT={-:-/ absolute / inch / decimal}
; #@! TF.CreationDate,2020-09-14T20:00:27-05:00
; #@! TF.GenerationSoftware,Kicad,Pcbnew,(5.1.5)-3
; #@! TF.FileFunction,Plated,1,4,PTH
FMAT,2
INCH
T1C0.0100
T2C0.0394
T3C0.0409
%
G90
G05
T1
X4.61Y-2.7199
X4.93Y-2.585
X4.995Y-3.43
X5.035Y-2.65
X5.055Y-3.31
X5.085Y-2.71
X5.15Y-2.6
X5.24Y-2.65
X5.3Y-2.71
X5.345Y-2.68
X5.445Y-2.64
X5.495Y-2.72
X5.605Y-2.815
X5.605Y-3.215
X5.65Y-2.65
X5.65Y-2.975
X5.7Y-2.71
X5.7Y-3.035
X5.75Y-2.76
X5.81Y-3.195
X5.855Y-2.65
X5.855Y-2.975
X5.905Y-2.71
X5.905Y-3.035
X5.974Y-2.71
X6.015Y-3.14
X6.06Y-2.65
X6.06Y-2.975
X6.1Y-2.72
X6.11Y-3.035
X6.22Y-2.81
X6.265Y-2.65
X6.265Y-2.975
X6.315Y-2.71
X6.315Y-3.035
X6.35Y-3.0
X6.425Y-2.9
X6.47Y-2.65
X6.52Y-2.71
T2
X3.76Y-2.35
X3.76Y-2.45
X3.76Y-2.55
X3.76Y-2.65
X3.76Y-2.75
X3.76Y-2.85
X3.76Y-2.95
X3.76Y-3.05
X3.76Y-3.15
X3.76Y-3.25
X3.76Y-3.35
X4.4597Y-2.3362
X4.4597Y-2.4362
X4.5597Y-2.3362
X4.5597Y-2.4362
X4.6597Y-2.3362
X4.6597Y-2.4362
X4.7597Y-2.3362
X4.7597Y-2.4362
X4.8597Y-2.3362
X4.8597Y-2.4362
X4.9597Y-2.3362
X4.9597Y-2.4362
X5.0597Y-2.3362
X5.0597Y-2.4362
X5.1597Y-2.3362
X5.1597Y-2.4362
X5.2597Y-2.3362
X5.2597Y-2.4362
X5.3597Y-2.3362
X5.3597Y-2.4362
X5.4597Y-2.3362
X5.4597Y-2.4362
X5.5597Y-2.3362
X5.5597Y-2.4362
X5.6597Y-2.3362
X5.6597Y-2.4362
X5.7597Y-2.3362
X5.7597Y-2.4362
X5.8597Y-2.3362
X5.8597Y-2.4362
X5.9597Y-2.3362
X5.9597Y-2.4362
X6.0597Y-2.3362
X6.0597Y-2.4362
X6.1597Y-2.3362
X6.1597Y-2.4362
X6.2597Y-2.3362
X6.2597Y-2.4362
X6.3597Y-2.3362
X6.3597Y-2.4362
T3
X7.105Y-2.35
X7.105Y-2.45
X7.105Y-2.55
X7.105Y-2.65
X7.105Y-2.75
X7.105Y-2.85
X7.105Y-2.95
X7.105Y-3.05
X7.105Y-3.15
X7.105Y-3.25
X7.105Y-3.35
X7.205Y-2.35
X7.205Y-2.45
X7.205Y-2.55
X7.205Y-2.65
X7.205Y-2.75
X7.205Y-2.85
X7.205Y-2.95
X7.205Y-3.05
X7.205Y-3.15
X7.205Y-3.25
X7.205Y-3.35
T0
M30
