G04 #@! TF.GenerationSoftware,KiCad,Pcbnew,(5.1.2)-1*
G04 #@! TF.CreationDate,2019-10-29T15:15:45-05:00*
G04 #@! TF.ProjectId,computer_board,636f6d70-7574-4657-925f-626f6172642e,rev?*
G04 #@! TF.SameCoordinates,Original*
G04 #@! TF.FileFunction,Legend,Top*
G04 #@! TF.FilePolarity,Positive*
%FSLAX46Y46*%
G04 Gerber Fmt 4.6, Leading zero omitted, Abs format (unit mm)*
G04 Created by KiCad (PCBNEW (5.1.2)-1) date 2019-10-29 15:15:45*
%MOMM*%
%LPD*%
G04 APERTURE LIST*
%ADD10C,0.150000*%
%ADD11C,0.200000*%
%ADD12C,0.120000*%
%ADD13C,0.203200*%
%ADD14C,0.149860*%
G04 APERTURE END LIST*
D10*
X179414714Y-74567142D02*
X178652714Y-74567142D01*
X178652714Y-74385714D01*
X178689000Y-74276857D01*
X178761571Y-74204285D01*
X178834142Y-74168000D01*
X178979285Y-74131714D01*
X179088142Y-74131714D01*
X179233285Y-74168000D01*
X179305857Y-74204285D01*
X179378428Y-74276857D01*
X179414714Y-74385714D01*
X179414714Y-74567142D01*
X179414714Y-73805142D02*
X178906714Y-73805142D01*
X178652714Y-73805142D02*
X178689000Y-73841428D01*
X178725285Y-73805142D01*
X178689000Y-73768857D01*
X178652714Y-73805142D01*
X178725285Y-73805142D01*
X178906714Y-73115714D02*
X179523571Y-73115714D01*
X179596142Y-73152000D01*
X179632428Y-73188285D01*
X179668714Y-73260857D01*
X179668714Y-73369714D01*
X179632428Y-73442285D01*
X179378428Y-73115714D02*
X179414714Y-73188285D01*
X179414714Y-73333428D01*
X179378428Y-73406000D01*
X179342142Y-73442285D01*
X179269571Y-73478571D01*
X179051857Y-73478571D01*
X178979285Y-73442285D01*
X178943000Y-73406000D01*
X178906714Y-73333428D01*
X178906714Y-73188285D01*
X178943000Y-73115714D01*
X179414714Y-72752857D02*
X178906714Y-72752857D01*
X178652714Y-72752857D02*
X178689000Y-72789142D01*
X178725285Y-72752857D01*
X178689000Y-72716571D01*
X178652714Y-72752857D01*
X178725285Y-72752857D01*
X178906714Y-72498857D02*
X178906714Y-72208571D01*
X178652714Y-72390000D02*
X179305857Y-72390000D01*
X179378428Y-72353714D01*
X179414714Y-72281142D01*
X179414714Y-72208571D01*
X179414714Y-71954571D02*
X178906714Y-71954571D01*
X178652714Y-71954571D02*
X178689000Y-71990857D01*
X178725285Y-71954571D01*
X178689000Y-71918285D01*
X178652714Y-71954571D01*
X178725285Y-71954571D01*
X178906714Y-71664285D02*
X178906714Y-71265142D01*
X179414714Y-71664285D01*
X179414714Y-71265142D01*
X179378428Y-70684571D02*
X179414714Y-70757142D01*
X179414714Y-70902285D01*
X179378428Y-70974857D01*
X179305857Y-71011142D01*
X179015571Y-71011142D01*
X178943000Y-70974857D01*
X178906714Y-70902285D01*
X178906714Y-70757142D01*
X178943000Y-70684571D01*
X179015571Y-70648285D01*
X179088142Y-70648285D01*
X179160714Y-71011142D01*
X179414714Y-70321714D02*
X178906714Y-70321714D01*
X179051857Y-70321714D02*
X178979285Y-70285428D01*
X178943000Y-70249142D01*
X178906714Y-70176571D01*
X178906714Y-70104000D01*
X98642714Y-77252285D02*
X98642714Y-77615142D01*
X97880714Y-77615142D01*
X98642714Y-76671714D02*
X98243571Y-76671714D01*
X98171000Y-76708000D01*
X98134714Y-76780571D01*
X98134714Y-76925714D01*
X98171000Y-76998285D01*
X98606428Y-76671714D02*
X98642714Y-76744285D01*
X98642714Y-76925714D01*
X98606428Y-76998285D01*
X98533857Y-77034571D01*
X98461285Y-77034571D01*
X98388714Y-76998285D01*
X98352428Y-76925714D01*
X98352428Y-76744285D01*
X98316142Y-76671714D01*
X98606428Y-76345142D02*
X98642714Y-76272571D01*
X98642714Y-76127428D01*
X98606428Y-76054857D01*
X98533857Y-76018571D01*
X98497571Y-76018571D01*
X98425000Y-76054857D01*
X98388714Y-76127428D01*
X98388714Y-76236285D01*
X98352428Y-76308857D01*
X98279857Y-76345142D01*
X98243571Y-76345142D01*
X98171000Y-76308857D01*
X98134714Y-76236285D01*
X98134714Y-76127428D01*
X98171000Y-76054857D01*
X98606428Y-75401714D02*
X98642714Y-75474285D01*
X98642714Y-75619428D01*
X98606428Y-75692000D01*
X98533857Y-75728285D01*
X98243571Y-75728285D01*
X98171000Y-75692000D01*
X98134714Y-75619428D01*
X98134714Y-75474285D01*
X98171000Y-75401714D01*
X98243571Y-75365428D01*
X98316142Y-75365428D01*
X98388714Y-75728285D01*
X98642714Y-75038857D02*
X98134714Y-75038857D01*
X98279857Y-75038857D02*
X98207285Y-75002571D01*
X98171000Y-74966285D01*
X98134714Y-74893714D01*
X98134714Y-74821142D01*
X98642714Y-73986571D02*
X97880714Y-73986571D01*
X97880714Y-73805142D01*
X97917000Y-73696285D01*
X97989571Y-73623714D01*
X98062142Y-73587428D01*
X98207285Y-73551142D01*
X98316142Y-73551142D01*
X98461285Y-73587428D01*
X98533857Y-73623714D01*
X98606428Y-73696285D01*
X98642714Y-73805142D01*
X98642714Y-73986571D01*
X98642714Y-73224571D02*
X98134714Y-73224571D01*
X98279857Y-73224571D02*
X98207285Y-73188285D01*
X98171000Y-73152000D01*
X98134714Y-73079428D01*
X98134714Y-73006857D01*
X98642714Y-72752857D02*
X98134714Y-72752857D01*
X97880714Y-72752857D02*
X97917000Y-72789142D01*
X97953285Y-72752857D01*
X97917000Y-72716571D01*
X97880714Y-72752857D01*
X97953285Y-72752857D01*
X98134714Y-72462571D02*
X98642714Y-72281142D01*
X98134714Y-72099714D01*
X98606428Y-71519142D02*
X98642714Y-71591714D01*
X98642714Y-71736857D01*
X98606428Y-71809428D01*
X98533857Y-71845714D01*
X98243571Y-71845714D01*
X98171000Y-71809428D01*
X98134714Y-71736857D01*
X98134714Y-71591714D01*
X98171000Y-71519142D01*
X98243571Y-71482857D01*
X98316142Y-71482857D01*
X98388714Y-71845714D01*
X98642714Y-71156285D02*
X98134714Y-71156285D01*
X98279857Y-71156285D02*
X98207285Y-71120000D01*
X98171000Y-71083714D01*
X98134714Y-71011142D01*
X98134714Y-70938571D01*
X98243571Y-69850000D02*
X98279857Y-69741142D01*
X98316142Y-69704857D01*
X98388714Y-69668571D01*
X98497571Y-69668571D01*
X98570142Y-69704857D01*
X98606428Y-69741142D01*
X98642714Y-69813714D01*
X98642714Y-70104000D01*
X97880714Y-70104000D01*
X97880714Y-69850000D01*
X97917000Y-69777428D01*
X97953285Y-69741142D01*
X98025857Y-69704857D01*
X98098428Y-69704857D01*
X98171000Y-69741142D01*
X98207285Y-69777428D01*
X98243571Y-69850000D01*
X98243571Y-70104000D01*
X98642714Y-69233142D02*
X98606428Y-69305714D01*
X98570142Y-69342000D01*
X98497571Y-69378285D01*
X98279857Y-69378285D01*
X98207285Y-69342000D01*
X98171000Y-69305714D01*
X98134714Y-69233142D01*
X98134714Y-69124285D01*
X98171000Y-69051714D01*
X98207285Y-69015428D01*
X98279857Y-68979142D01*
X98497571Y-68979142D01*
X98570142Y-69015428D01*
X98606428Y-69051714D01*
X98642714Y-69124285D01*
X98642714Y-69233142D01*
X98642714Y-68326000D02*
X98243571Y-68326000D01*
X98171000Y-68362285D01*
X98134714Y-68434857D01*
X98134714Y-68580000D01*
X98171000Y-68652571D01*
X98606428Y-68326000D02*
X98642714Y-68398571D01*
X98642714Y-68580000D01*
X98606428Y-68652571D01*
X98533857Y-68688857D01*
X98461285Y-68688857D01*
X98388714Y-68652571D01*
X98352428Y-68580000D01*
X98352428Y-68398571D01*
X98316142Y-68326000D01*
X98642714Y-67963142D02*
X98134714Y-67963142D01*
X98279857Y-67963142D02*
X98207285Y-67926857D01*
X98171000Y-67890571D01*
X98134714Y-67818000D01*
X98134714Y-67745428D01*
X98642714Y-67164857D02*
X97880714Y-67164857D01*
X98606428Y-67164857D02*
X98642714Y-67237428D01*
X98642714Y-67382571D01*
X98606428Y-67455142D01*
X98570142Y-67491428D01*
X98497571Y-67527714D01*
X98279857Y-67527714D01*
X98207285Y-67491428D01*
X98171000Y-67455142D01*
X98134714Y-67382571D01*
X98134714Y-67237428D01*
X98171000Y-67164857D01*
X172279714Y-75819000D02*
X172279714Y-75673857D01*
X172316000Y-75601285D01*
X172388571Y-75528714D01*
X172533714Y-75492428D01*
X172787714Y-75492428D01*
X172932857Y-75528714D01*
X173005428Y-75601285D01*
X173041714Y-75673857D01*
X173041714Y-75819000D01*
X173005428Y-75891571D01*
X172932857Y-75964142D01*
X172787714Y-76000428D01*
X172533714Y-76000428D01*
X172388571Y-75964142D01*
X172316000Y-75891571D01*
X172279714Y-75819000D01*
X172642571Y-74911857D02*
X172642571Y-75165857D01*
X173041714Y-75165857D02*
X172279714Y-75165857D01*
X172279714Y-74803000D01*
X173005428Y-74549000D02*
X173041714Y-74440142D01*
X173041714Y-74258714D01*
X173005428Y-74186142D01*
X172969142Y-74149857D01*
X172896571Y-74113571D01*
X172824000Y-74113571D01*
X172751428Y-74149857D01*
X172715142Y-74186142D01*
X172678857Y-74258714D01*
X172642571Y-74403857D01*
X172606285Y-74476428D01*
X172570000Y-74512714D01*
X172497428Y-74549000D01*
X172424857Y-74549000D01*
X172352285Y-74512714D01*
X172316000Y-74476428D01*
X172279714Y-74403857D01*
X172279714Y-74222428D01*
X172316000Y-74113571D01*
X173041714Y-73787000D02*
X172279714Y-73787000D01*
X173041714Y-72408142D02*
X172678857Y-72662142D01*
X173041714Y-72843571D02*
X172279714Y-72843571D01*
X172279714Y-72553285D01*
X172316000Y-72480714D01*
X172352285Y-72444428D01*
X172424857Y-72408142D01*
X172533714Y-72408142D01*
X172606285Y-72444428D01*
X172642571Y-72480714D01*
X172678857Y-72553285D01*
X172678857Y-72843571D01*
X173005428Y-71791285D02*
X173041714Y-71863857D01*
X173041714Y-72009000D01*
X173005428Y-72081571D01*
X172932857Y-72117857D01*
X172642571Y-72117857D01*
X172570000Y-72081571D01*
X172533714Y-72009000D01*
X172533714Y-71863857D01*
X172570000Y-71791285D01*
X172642571Y-71755000D01*
X172715142Y-71755000D01*
X172787714Y-72117857D01*
X172533714Y-71501000D02*
X173041714Y-71319571D01*
X172533714Y-71138142D01*
X172969142Y-70847857D02*
X173005428Y-70811571D01*
X173041714Y-70847857D01*
X173005428Y-70884142D01*
X172969142Y-70847857D01*
X173041714Y-70847857D01*
X172279714Y-69759285D02*
X172279714Y-69686714D01*
X172316000Y-69614142D01*
X172352285Y-69577857D01*
X172424857Y-69541571D01*
X172570000Y-69505285D01*
X172751428Y-69505285D01*
X172896571Y-69541571D01*
X172969142Y-69577857D01*
X173005428Y-69614142D01*
X173041714Y-69686714D01*
X173041714Y-69759285D01*
X173005428Y-69831857D01*
X172969142Y-69868142D01*
X172896571Y-69904428D01*
X172751428Y-69940714D01*
X172570000Y-69940714D01*
X172424857Y-69904428D01*
X172352285Y-69868142D01*
X172316000Y-69831857D01*
X172279714Y-69759285D01*
X172533714Y-68852142D02*
X173041714Y-68852142D01*
X172243428Y-69033571D02*
X172787714Y-69215000D01*
X172787714Y-68743285D01*
X174262142Y-76417714D02*
X174298428Y-76454000D01*
X174334714Y-76562857D01*
X174334714Y-76635428D01*
X174298428Y-76744285D01*
X174225857Y-76816857D01*
X174153285Y-76853142D01*
X174008142Y-76889428D01*
X173899285Y-76889428D01*
X173754142Y-76853142D01*
X173681571Y-76816857D01*
X173609000Y-76744285D01*
X173572714Y-76635428D01*
X173572714Y-76562857D01*
X173609000Y-76454000D01*
X173645285Y-76417714D01*
X174334714Y-75982285D02*
X174298428Y-76054857D01*
X174262142Y-76091142D01*
X174189571Y-76127428D01*
X173971857Y-76127428D01*
X173899285Y-76091142D01*
X173863000Y-76054857D01*
X173826714Y-75982285D01*
X173826714Y-75873428D01*
X173863000Y-75800857D01*
X173899285Y-75764571D01*
X173971857Y-75728285D01*
X174189571Y-75728285D01*
X174262142Y-75764571D01*
X174298428Y-75800857D01*
X174334714Y-75873428D01*
X174334714Y-75982285D01*
X174334714Y-75401714D02*
X173826714Y-75401714D01*
X173899285Y-75401714D02*
X173863000Y-75365428D01*
X173826714Y-75292857D01*
X173826714Y-75184000D01*
X173863000Y-75111428D01*
X173935571Y-75075142D01*
X174334714Y-75075142D01*
X173935571Y-75075142D02*
X173863000Y-75038857D01*
X173826714Y-74966285D01*
X173826714Y-74857428D01*
X173863000Y-74784857D01*
X173935571Y-74748571D01*
X174334714Y-74748571D01*
X173826714Y-74385714D02*
X174588714Y-74385714D01*
X173863000Y-74385714D02*
X173826714Y-74313142D01*
X173826714Y-74168000D01*
X173863000Y-74095428D01*
X173899285Y-74059142D01*
X173971857Y-74022857D01*
X174189571Y-74022857D01*
X174262142Y-74059142D01*
X174298428Y-74095428D01*
X174334714Y-74168000D01*
X174334714Y-74313142D01*
X174298428Y-74385714D01*
X173826714Y-73369714D02*
X174334714Y-73369714D01*
X173826714Y-73696285D02*
X174225857Y-73696285D01*
X174298428Y-73660000D01*
X174334714Y-73587428D01*
X174334714Y-73478571D01*
X174298428Y-73406000D01*
X174262142Y-73369714D01*
X173826714Y-73115714D02*
X173826714Y-72825428D01*
X173572714Y-73006857D02*
X174225857Y-73006857D01*
X174298428Y-72970571D01*
X174334714Y-72898000D01*
X174334714Y-72825428D01*
X174298428Y-72281142D02*
X174334714Y-72353714D01*
X174334714Y-72498857D01*
X174298428Y-72571428D01*
X174225857Y-72607714D01*
X173935571Y-72607714D01*
X173863000Y-72571428D01*
X173826714Y-72498857D01*
X173826714Y-72353714D01*
X173863000Y-72281142D01*
X173935571Y-72244857D01*
X174008142Y-72244857D01*
X174080714Y-72607714D01*
X174334714Y-71918285D02*
X173826714Y-71918285D01*
X173971857Y-71918285D02*
X173899285Y-71882000D01*
X173863000Y-71845714D01*
X173826714Y-71773142D01*
X173826714Y-71700571D01*
X173935571Y-70612000D02*
X173971857Y-70503142D01*
X174008142Y-70466857D01*
X174080714Y-70430571D01*
X174189571Y-70430571D01*
X174262142Y-70466857D01*
X174298428Y-70503142D01*
X174334714Y-70575714D01*
X174334714Y-70866000D01*
X173572714Y-70866000D01*
X173572714Y-70612000D01*
X173609000Y-70539428D01*
X173645285Y-70503142D01*
X173717857Y-70466857D01*
X173790428Y-70466857D01*
X173863000Y-70503142D01*
X173899285Y-70539428D01*
X173935571Y-70612000D01*
X173935571Y-70866000D01*
X174334714Y-69995142D02*
X174298428Y-70067714D01*
X174262142Y-70104000D01*
X174189571Y-70140285D01*
X173971857Y-70140285D01*
X173899285Y-70104000D01*
X173863000Y-70067714D01*
X173826714Y-69995142D01*
X173826714Y-69886285D01*
X173863000Y-69813714D01*
X173899285Y-69777428D01*
X173971857Y-69741142D01*
X174189571Y-69741142D01*
X174262142Y-69777428D01*
X174298428Y-69813714D01*
X174334714Y-69886285D01*
X174334714Y-69995142D01*
X174334714Y-69088000D02*
X173935571Y-69088000D01*
X173863000Y-69124285D01*
X173826714Y-69196857D01*
X173826714Y-69342000D01*
X173863000Y-69414571D01*
X174298428Y-69088000D02*
X174334714Y-69160571D01*
X174334714Y-69342000D01*
X174298428Y-69414571D01*
X174225857Y-69450857D01*
X174153285Y-69450857D01*
X174080714Y-69414571D01*
X174044428Y-69342000D01*
X174044428Y-69160571D01*
X174008142Y-69088000D01*
X174334714Y-68725142D02*
X173826714Y-68725142D01*
X173971857Y-68725142D02*
X173899285Y-68688857D01*
X173863000Y-68652571D01*
X173826714Y-68580000D01*
X173826714Y-68507428D01*
X174334714Y-67926857D02*
X173572714Y-67926857D01*
X174298428Y-67926857D02*
X174334714Y-67999428D01*
X174334714Y-68144571D01*
X174298428Y-68217142D01*
X174262142Y-68253428D01*
X174189571Y-68289714D01*
X173971857Y-68289714D01*
X173899285Y-68253428D01*
X173863000Y-68217142D01*
X173826714Y-68144571D01*
X173826714Y-67999428D01*
X173863000Y-67926857D01*
X174865714Y-76000428D02*
X174865714Y-75855285D01*
X174902000Y-75782714D01*
X174974571Y-75710142D01*
X175119714Y-75673857D01*
X175373714Y-75673857D01*
X175518857Y-75710142D01*
X175591428Y-75782714D01*
X175627714Y-75855285D01*
X175627714Y-76000428D01*
X175591428Y-76073000D01*
X175518857Y-76145571D01*
X175373714Y-76181857D01*
X175119714Y-76181857D01*
X174974571Y-76145571D01*
X174902000Y-76073000D01*
X174865714Y-76000428D01*
X175591428Y-75020714D02*
X175627714Y-75093285D01*
X175627714Y-75238428D01*
X175591428Y-75311000D01*
X175555142Y-75347285D01*
X175482571Y-75383571D01*
X175264857Y-75383571D01*
X175192285Y-75347285D01*
X175156000Y-75311000D01*
X175119714Y-75238428D01*
X175119714Y-75093285D01*
X175156000Y-75020714D01*
X175119714Y-74803000D02*
X175119714Y-74512714D01*
X174865714Y-74694142D02*
X175518857Y-74694142D01*
X175591428Y-74657857D01*
X175627714Y-74585285D01*
X175627714Y-74512714D01*
X175627714Y-74149857D02*
X175591428Y-74222428D01*
X175555142Y-74258714D01*
X175482571Y-74295000D01*
X175264857Y-74295000D01*
X175192285Y-74258714D01*
X175156000Y-74222428D01*
X175119714Y-74149857D01*
X175119714Y-74041000D01*
X175156000Y-73968428D01*
X175192285Y-73932142D01*
X175264857Y-73895857D01*
X175482571Y-73895857D01*
X175555142Y-73932142D01*
X175591428Y-73968428D01*
X175627714Y-74041000D01*
X175627714Y-74149857D01*
X175627714Y-73569285D02*
X174865714Y-73569285D01*
X175156000Y-73569285D02*
X175119714Y-73496714D01*
X175119714Y-73351571D01*
X175156000Y-73279000D01*
X175192285Y-73242714D01*
X175264857Y-73206428D01*
X175482571Y-73206428D01*
X175555142Y-73242714D01*
X175591428Y-73279000D01*
X175627714Y-73351571D01*
X175627714Y-73496714D01*
X175591428Y-73569285D01*
X175591428Y-72589571D02*
X175627714Y-72662142D01*
X175627714Y-72807285D01*
X175591428Y-72879857D01*
X175518857Y-72916142D01*
X175228571Y-72916142D01*
X175156000Y-72879857D01*
X175119714Y-72807285D01*
X175119714Y-72662142D01*
X175156000Y-72589571D01*
X175228571Y-72553285D01*
X175301142Y-72553285D01*
X175373714Y-72916142D01*
X175627714Y-72226714D02*
X175119714Y-72226714D01*
X175264857Y-72226714D02*
X175192285Y-72190428D01*
X175156000Y-72154142D01*
X175119714Y-72081571D01*
X175119714Y-72009000D01*
X174938285Y-71210714D02*
X174902000Y-71174428D01*
X174865714Y-71101857D01*
X174865714Y-70920428D01*
X174902000Y-70847857D01*
X174938285Y-70811571D01*
X175010857Y-70775285D01*
X175083428Y-70775285D01*
X175192285Y-70811571D01*
X175627714Y-71247000D01*
X175627714Y-70775285D01*
X174865714Y-70303571D02*
X174865714Y-70231000D01*
X174902000Y-70158428D01*
X174938285Y-70122142D01*
X175010857Y-70085857D01*
X175156000Y-70049571D01*
X175337428Y-70049571D01*
X175482571Y-70085857D01*
X175555142Y-70122142D01*
X175591428Y-70158428D01*
X175627714Y-70231000D01*
X175627714Y-70303571D01*
X175591428Y-70376142D01*
X175555142Y-70412428D01*
X175482571Y-70448714D01*
X175337428Y-70485000D01*
X175156000Y-70485000D01*
X175010857Y-70448714D01*
X174938285Y-70412428D01*
X174902000Y-70376142D01*
X174865714Y-70303571D01*
X175627714Y-69323857D02*
X175627714Y-69759285D01*
X175627714Y-69541571D02*
X174865714Y-69541571D01*
X174974571Y-69614142D01*
X175047142Y-69686714D01*
X175083428Y-69759285D01*
X175627714Y-68961000D02*
X175627714Y-68815857D01*
X175591428Y-68743285D01*
X175555142Y-68707000D01*
X175446285Y-68634428D01*
X175301142Y-68598142D01*
X175010857Y-68598142D01*
X174938285Y-68634428D01*
X174902000Y-68670714D01*
X174865714Y-68743285D01*
X174865714Y-68888428D01*
X174902000Y-68961000D01*
X174938285Y-68997285D01*
X175010857Y-69033571D01*
X175192285Y-69033571D01*
X175264857Y-68997285D01*
X175301142Y-68961000D01*
X175337428Y-68888428D01*
X175337428Y-68743285D01*
X175301142Y-68670714D01*
X175264857Y-68634428D01*
X175192285Y-68598142D01*
D11*
X194633000Y-57716000D02*
X180338000Y-57716000D01*
X180338000Y-57716000D02*
X180338000Y-87064000D01*
X180338000Y-87064000D02*
X194633000Y-87064000D01*
X194633000Y-87064000D02*
X194633000Y-57716000D01*
D12*
X96520000Y-86360000D02*
X95250000Y-86360000D01*
X96520000Y-85090000D02*
X96520000Y-86360000D01*
X94207071Y-59310000D02*
X93810000Y-59310000D01*
X94207071Y-60070000D02*
X93810000Y-60070000D01*
X85150000Y-59310000D02*
X91150000Y-59310000D01*
X85150000Y-60070000D02*
X85150000Y-59310000D01*
X91150000Y-60070000D02*
X85150000Y-60070000D01*
X93810000Y-60960000D02*
X91150000Y-60960000D01*
X94207071Y-61850000D02*
X93810000Y-61850000D01*
X94207071Y-62610000D02*
X93810000Y-62610000D01*
X85150000Y-61850000D02*
X91150000Y-61850000D01*
X85150000Y-62610000D02*
X85150000Y-61850000D01*
X91150000Y-62610000D02*
X85150000Y-62610000D01*
X93810000Y-63500000D02*
X91150000Y-63500000D01*
X94207071Y-64390000D02*
X93810000Y-64390000D01*
X94207071Y-65150000D02*
X93810000Y-65150000D01*
X85150000Y-64390000D02*
X91150000Y-64390000D01*
X85150000Y-65150000D02*
X85150000Y-64390000D01*
X91150000Y-65150000D02*
X85150000Y-65150000D01*
X93810000Y-66040000D02*
X91150000Y-66040000D01*
X94207071Y-66930000D02*
X93810000Y-66930000D01*
X94207071Y-67690000D02*
X93810000Y-67690000D01*
X85150000Y-66930000D02*
X91150000Y-66930000D01*
X85150000Y-67690000D02*
X85150000Y-66930000D01*
X91150000Y-67690000D02*
X85150000Y-67690000D01*
X93810000Y-68580000D02*
X91150000Y-68580000D01*
X94207071Y-69470000D02*
X93810000Y-69470000D01*
X94207071Y-70230000D02*
X93810000Y-70230000D01*
X85150000Y-69470000D02*
X91150000Y-69470000D01*
X85150000Y-70230000D02*
X85150000Y-69470000D01*
X91150000Y-70230000D02*
X85150000Y-70230000D01*
X93810000Y-71120000D02*
X91150000Y-71120000D01*
X94207071Y-72010000D02*
X93810000Y-72010000D01*
X94207071Y-72770000D02*
X93810000Y-72770000D01*
X85150000Y-72010000D02*
X91150000Y-72010000D01*
X85150000Y-72770000D02*
X85150000Y-72010000D01*
X91150000Y-72770000D02*
X85150000Y-72770000D01*
X93810000Y-73660000D02*
X91150000Y-73660000D01*
X94207071Y-74550000D02*
X93810000Y-74550000D01*
X94207071Y-75310000D02*
X93810000Y-75310000D01*
X85150000Y-74550000D02*
X91150000Y-74550000D01*
X85150000Y-75310000D02*
X85150000Y-74550000D01*
X91150000Y-75310000D02*
X85150000Y-75310000D01*
X93810000Y-76200000D02*
X91150000Y-76200000D01*
X94207071Y-77090000D02*
X93810000Y-77090000D01*
X94207071Y-77850000D02*
X93810000Y-77850000D01*
X85150000Y-77090000D02*
X91150000Y-77090000D01*
X85150000Y-77850000D02*
X85150000Y-77090000D01*
X91150000Y-77850000D02*
X85150000Y-77850000D01*
X93810000Y-78740000D02*
X91150000Y-78740000D01*
X94207071Y-79630000D02*
X93810000Y-79630000D01*
X94207071Y-80390000D02*
X93810000Y-80390000D01*
X85150000Y-79630000D02*
X91150000Y-79630000D01*
X85150000Y-80390000D02*
X85150000Y-79630000D01*
X91150000Y-80390000D02*
X85150000Y-80390000D01*
X93810000Y-81280000D02*
X91150000Y-81280000D01*
X94207071Y-82170000D02*
X93810000Y-82170000D01*
X94207071Y-82930000D02*
X93810000Y-82930000D01*
X85150000Y-82170000D02*
X91150000Y-82170000D01*
X85150000Y-82930000D02*
X85150000Y-82170000D01*
X91150000Y-82930000D02*
X85150000Y-82930000D01*
X93810000Y-83820000D02*
X91150000Y-83820000D01*
X94140000Y-84710000D02*
X93810000Y-84710000D01*
X94140000Y-85470000D02*
X93810000Y-85470000D01*
X91150000Y-84810000D02*
X85150000Y-84810000D01*
X91150000Y-84930000D02*
X85150000Y-84930000D01*
X91150000Y-85050000D02*
X85150000Y-85050000D01*
X91150000Y-85170000D02*
X85150000Y-85170000D01*
X91150000Y-85290000D02*
X85150000Y-85290000D01*
X91150000Y-85410000D02*
X85150000Y-85410000D01*
X85150000Y-84710000D02*
X91150000Y-84710000D01*
X85150000Y-85470000D02*
X85150000Y-84710000D01*
X91150000Y-85470000D02*
X85150000Y-85470000D01*
X91150000Y-86420000D02*
X93810000Y-86420000D01*
X91150000Y-58360000D02*
X91150000Y-86420000D01*
X93810000Y-58360000D02*
X91150000Y-58360000D01*
X93810000Y-86420000D02*
X93810000Y-58360000D01*
X162855000Y-58000000D02*
X162855000Y-59330000D01*
X161525000Y-58000000D02*
X162855000Y-58000000D01*
X162855000Y-60600000D02*
X162855000Y-63200000D01*
X160255000Y-60600000D02*
X162855000Y-60600000D01*
X160255000Y-58000000D02*
X160255000Y-60600000D01*
X162855000Y-63200000D02*
X111935000Y-63200000D01*
X160255000Y-58000000D02*
X111935000Y-58000000D01*
X111935000Y-58000000D02*
X111935000Y-63200000D01*
D13*
X107774999Y-87150000D02*
G75*
G02X104775000Y-84149999I1J3000000D01*
G01*
X107775000Y-57150000D02*
X166774998Y-57150000D01*
X166774998Y-57150000D02*
G75*
G02X169774998Y-60150000I0J-3000000D01*
G01*
X104775000Y-60150000D02*
G75*
G02X107775000Y-57150000I3000000J0D01*
G01*
X169774999Y-84150001D02*
G75*
G02X166774998Y-87150000I-3000000J1D01*
G01*
X166774998Y-87150000D02*
X107775000Y-87149999D01*
X104775000Y-84149999D02*
X104775000Y-60150000D01*
X169774998Y-60150000D02*
X169774999Y-84150000D01*
D14*
X180641667Y-87463382D02*
X180641667Y-88177666D01*
X180594048Y-88320523D01*
X180498810Y-88415761D01*
X180355953Y-88463380D01*
X180260715Y-88463380D01*
X181641665Y-88463380D02*
X181070237Y-88463380D01*
X181355951Y-88463380D02*
X181355951Y-87463382D01*
X181260713Y-87606238D01*
X181165475Y-87701476D01*
X181070237Y-87749095D01*
D10*
X92630666Y-87082380D02*
X92630666Y-87796666D01*
X92583047Y-87939523D01*
X92487809Y-88034761D01*
X92344952Y-88082380D01*
X92249714Y-88082380D01*
X93059238Y-87177619D02*
X93106857Y-87130000D01*
X93202095Y-87082380D01*
X93440190Y-87082380D01*
X93535428Y-87130000D01*
X93583047Y-87177619D01*
X93630666Y-87272857D01*
X93630666Y-87368095D01*
X93583047Y-87510952D01*
X93011619Y-88082380D01*
X93630666Y-88082380D01*
X107616666Y-63587380D02*
X107616666Y-64301666D01*
X107569047Y-64444523D01*
X107473809Y-64539761D01*
X107330952Y-64587380D01*
X107235714Y-64587380D01*
X107997619Y-63587380D02*
X108616666Y-63587380D01*
X108283333Y-63968333D01*
X108426190Y-63968333D01*
X108521428Y-64015952D01*
X108569047Y-64063571D01*
X108616666Y-64158809D01*
X108616666Y-64396904D01*
X108569047Y-64492142D01*
X108521428Y-64539761D01*
X108426190Y-64587380D01*
X108140476Y-64587380D01*
X108045238Y-64539761D01*
X107997619Y-64492142D01*
M02*
