G04 #@! TF.GenerationSoftware,KiCad,Pcbnew,(5.1.2)-1*
G04 #@! TF.CreationDate,2019-11-05T14:52:24-06:00*
G04 #@! TF.ProjectId,computer_board,636f6d70-7574-4657-925f-626f6172642e,rev?*
G04 #@! TF.SameCoordinates,Original*
G04 #@! TF.FileFunction,Copper,L2,Inr*
G04 #@! TF.FilePolarity,Positive*
%FSLAX46Y46*%
G04 Gerber Fmt 4.6, Leading zero omitted, Abs format (unit mm)*
G04 Created by KiCad (PCBNEW (5.1.2)-1) date 2019-11-05 14:52:24*
%MOMM*%
%LPD*%
G04 APERTURE LIST*
%ADD10C,1.640000*%
%ADD11O,1.700000X1.700000*%
%ADD12R,1.700000X1.700000*%
%ADD13C,0.508000*%
%ADD14C,0.254000*%
G04 APERTURE END LIST*
D10*
X184150000Y-59690000D03*
X181610000Y-59690000D03*
X184150000Y-62230000D03*
X181610000Y-62230000D03*
X184150000Y-64770000D03*
X181610000Y-64770000D03*
X184150000Y-67310000D03*
X181610000Y-67310000D03*
X184150000Y-69850000D03*
X181610000Y-69850000D03*
X184150000Y-72390000D03*
X181610000Y-72390000D03*
X184150000Y-74930000D03*
X181610000Y-74930000D03*
X184150000Y-77470000D03*
X181610000Y-77470000D03*
X184150000Y-80010000D03*
X181610000Y-80010000D03*
X184150000Y-82550000D03*
X181610000Y-82550000D03*
X184150000Y-85090000D03*
X181610000Y-85090000D03*
D11*
X95250000Y-59690000D03*
X95250000Y-62230000D03*
X95250000Y-64770000D03*
X95250000Y-67310000D03*
X95250000Y-69850000D03*
X95250000Y-72390000D03*
X95250000Y-74930000D03*
X95250000Y-77470000D03*
X95250000Y-80010000D03*
X95250000Y-82550000D03*
D12*
X95250000Y-85090000D03*
D11*
X113265000Y-61870000D03*
X113265000Y-59330000D03*
X115805000Y-61870000D03*
X115805000Y-59330000D03*
X118345000Y-61870000D03*
X118345000Y-59330000D03*
X120885000Y-61870000D03*
X120885000Y-59330000D03*
X123425000Y-61870000D03*
X123425000Y-59330000D03*
X125965000Y-61870000D03*
X125965000Y-59330000D03*
X128505000Y-61870000D03*
X128505000Y-59330000D03*
X131045000Y-61870000D03*
X131045000Y-59330000D03*
X133585000Y-61870000D03*
X133585000Y-59330000D03*
X136125000Y-61870000D03*
X136125000Y-59330000D03*
X138665000Y-61870000D03*
X138665000Y-59330000D03*
X141205000Y-61870000D03*
X141205000Y-59330000D03*
X143745000Y-61870000D03*
X143745000Y-59330000D03*
X146285000Y-61870000D03*
X146285000Y-59330000D03*
X148825000Y-61870000D03*
X148825000Y-59330000D03*
X151365000Y-61870000D03*
X151365000Y-59330000D03*
X153905000Y-61870000D03*
X153905000Y-59330000D03*
X156445000Y-61870000D03*
X156445000Y-59330000D03*
X158985000Y-61870000D03*
X158985000Y-59330000D03*
X161525000Y-61870000D03*
D12*
X161525000Y-59330000D03*
D13*
X137414000Y-67310000D03*
X127254000Y-67056000D03*
X142494000Y-67310000D03*
X112014000Y-67310000D03*
X162814000Y-67310000D03*
X132334000Y-67310000D03*
X147574000Y-67310000D03*
X122174000Y-67310000D03*
X152654000Y-67310000D03*
X117094000Y-67310000D03*
X167894000Y-67310000D03*
X155194000Y-66040000D03*
X160020000Y-64008000D03*
X163576000Y-63246000D03*
X138430000Y-69088000D03*
X159004000Y-68834000D03*
X128524000Y-69088000D03*
X143764000Y-68834000D03*
X113538000Y-68834000D03*
X164084000Y-68834000D03*
X133604000Y-68834000D03*
X148844000Y-68834000D03*
X123444000Y-68834000D03*
X153924000Y-68834000D03*
X118364000Y-68834000D03*
X169164000Y-68834000D03*
X178816000Y-78486000D03*
X115824000Y-73914000D03*
X178816000Y-77216000D03*
X166878000Y-73406000D03*
X161544000Y-72415460D03*
X151638000Y-72136000D03*
X146558000Y-71805840D03*
X141478000Y-71628000D03*
X134874000Y-70891410D03*
X109474000Y-70104000D03*
X156464000Y-68834000D03*
X175260000Y-73660000D03*
X126154000Y-72728000D03*
X129794000Y-70866000D03*
X119634000Y-70866000D03*
D14*
G36*
X176330143Y-58428500D02*
G01*
X180879038Y-58428500D01*
X180682492Y-58559828D01*
X180479828Y-58762492D01*
X180320596Y-59000799D01*
X180210915Y-59265592D01*
X180155000Y-59546695D01*
X180155000Y-59833305D01*
X180210915Y-60114408D01*
X180320596Y-60379201D01*
X180479828Y-60617508D01*
X180682492Y-60820172D01*
X180891759Y-60960000D01*
X180682492Y-61099828D01*
X180479828Y-61302492D01*
X180320596Y-61540799D01*
X180210915Y-61805592D01*
X180155000Y-62086695D01*
X180155000Y-62373305D01*
X180210915Y-62654408D01*
X180320596Y-62919201D01*
X180479828Y-63157508D01*
X180682492Y-63360172D01*
X180891759Y-63500000D01*
X180682492Y-63639828D01*
X180479828Y-63842492D01*
X180320596Y-64080799D01*
X180210915Y-64345592D01*
X180155000Y-64626695D01*
X180155000Y-64913305D01*
X180210915Y-65194408D01*
X180320596Y-65459201D01*
X180479828Y-65697508D01*
X180682492Y-65900172D01*
X180891759Y-66040000D01*
X180682492Y-66179828D01*
X180479828Y-66382492D01*
X180320596Y-66620799D01*
X180210915Y-66885592D01*
X180155000Y-67166695D01*
X180155000Y-67453305D01*
X180210915Y-67734408D01*
X180320596Y-67999201D01*
X180479828Y-68237508D01*
X180682492Y-68440172D01*
X180891759Y-68580000D01*
X180682492Y-68719828D01*
X180479828Y-68922492D01*
X180320596Y-69160799D01*
X180210915Y-69425592D01*
X180155000Y-69706695D01*
X180155000Y-69993305D01*
X180183682Y-70137500D01*
X174837952Y-70137500D01*
X174837952Y-72872813D01*
X174693296Y-72969469D01*
X174569469Y-73093296D01*
X174472179Y-73238901D01*
X174405164Y-73400688D01*
X174371000Y-73572441D01*
X174371000Y-73747559D01*
X174405164Y-73919312D01*
X174472179Y-74081099D01*
X174569469Y-74226704D01*
X174693296Y-74350531D01*
X174838901Y-74447821D01*
X175000688Y-74514836D01*
X175172441Y-74549000D01*
X175347559Y-74549000D01*
X175519312Y-74514836D01*
X175681099Y-74447821D01*
X175826704Y-74350531D01*
X175950531Y-74226704D01*
X176047821Y-74081099D01*
X176114836Y-73919312D01*
X176149000Y-73747559D01*
X176149000Y-73572441D01*
X176114836Y-73400688D01*
X176047821Y-73238901D01*
X175950531Y-73093296D01*
X175826704Y-72969469D01*
X175808791Y-72957500D01*
X180270186Y-72957500D01*
X180320596Y-73079201D01*
X180479828Y-73317508D01*
X180682492Y-73520172D01*
X180891759Y-73660000D01*
X180682492Y-73799828D01*
X180479828Y-74002492D01*
X180320596Y-74240799D01*
X180210915Y-74505592D01*
X180155000Y-74786695D01*
X180155000Y-75073305D01*
X180210915Y-75354408D01*
X180320596Y-75619201D01*
X180479828Y-75857508D01*
X180682492Y-76060172D01*
X180891759Y-76200000D01*
X180682492Y-76339828D01*
X180479828Y-76542492D01*
X180320596Y-76780799D01*
X180210915Y-77045592D01*
X180155000Y-77326695D01*
X180155000Y-77613305D01*
X180210915Y-77894408D01*
X180320596Y-78159201D01*
X180479828Y-78397508D01*
X180682492Y-78600172D01*
X180891759Y-78740000D01*
X180682492Y-78879828D01*
X180479828Y-79082492D01*
X180320596Y-79320799D01*
X180210915Y-79585592D01*
X180155000Y-79866695D01*
X180155000Y-80153305D01*
X180210915Y-80434408D01*
X180320596Y-80699201D01*
X180479828Y-80937508D01*
X180682492Y-81140172D01*
X180891759Y-81280000D01*
X180682492Y-81419828D01*
X180479828Y-81622492D01*
X180320596Y-81860799D01*
X180210915Y-82125592D01*
X180155000Y-82406695D01*
X180155000Y-82693305D01*
X180210915Y-82974408D01*
X180320596Y-83239201D01*
X180479828Y-83477508D01*
X180682492Y-83680172D01*
X180890286Y-83819016D01*
X180856627Y-83837007D01*
X180782624Y-84083018D01*
X181610000Y-84910395D01*
X182437376Y-84083018D01*
X182363373Y-83837007D01*
X182327951Y-83820194D01*
X182537508Y-83680172D01*
X182740172Y-83477508D01*
X182880000Y-83268241D01*
X183019828Y-83477508D01*
X183222492Y-83680172D01*
X183431759Y-83820000D01*
X183222492Y-83959828D01*
X183019828Y-84162492D01*
X182880984Y-84370286D01*
X182862993Y-84336627D01*
X182616982Y-84262624D01*
X181789605Y-85090000D01*
X182616982Y-85917376D01*
X182862993Y-85843373D01*
X182879806Y-85807951D01*
X183019828Y-86017508D01*
X183222492Y-86220172D01*
X183460799Y-86379404D01*
X183725592Y-86489085D01*
X184006695Y-86545000D01*
X184293305Y-86545000D01*
X184574408Y-86489085D01*
X184839201Y-86379404D01*
X185077508Y-86220172D01*
X185280172Y-86017508D01*
X185439404Y-85779201D01*
X185549085Y-85514408D01*
X185605000Y-85233305D01*
X185605000Y-84946695D01*
X185549085Y-84665592D01*
X185439404Y-84400799D01*
X185280172Y-84162492D01*
X185077508Y-83959828D01*
X184868241Y-83820000D01*
X185077508Y-83680172D01*
X185280172Y-83477508D01*
X185439404Y-83239201D01*
X185549085Y-82974408D01*
X185605000Y-82693305D01*
X185605000Y-82406695D01*
X185549085Y-82125592D01*
X185439404Y-81860799D01*
X185280172Y-81622492D01*
X185077508Y-81419828D01*
X184868241Y-81280000D01*
X185077508Y-81140172D01*
X185280172Y-80937508D01*
X185439404Y-80699201D01*
X185549085Y-80434408D01*
X185605000Y-80153305D01*
X185605000Y-79866695D01*
X185549085Y-79585592D01*
X185439404Y-79320799D01*
X185280172Y-79082492D01*
X185077508Y-78879828D01*
X184868241Y-78740000D01*
X185077508Y-78600172D01*
X185280172Y-78397508D01*
X185439404Y-78159201D01*
X185549085Y-77894408D01*
X185605000Y-77613305D01*
X185605000Y-77326695D01*
X185549085Y-77045592D01*
X185439404Y-76780799D01*
X185280172Y-76542492D01*
X185077508Y-76339828D01*
X184868241Y-76200000D01*
X185077508Y-76060172D01*
X185280172Y-75857508D01*
X185439404Y-75619201D01*
X185549085Y-75354408D01*
X185605000Y-75073305D01*
X185605000Y-74786695D01*
X185549085Y-74505592D01*
X185439404Y-74240799D01*
X185280172Y-74002492D01*
X185077508Y-73799828D01*
X184868241Y-73660000D01*
X185077508Y-73520172D01*
X185280172Y-73317508D01*
X185439404Y-73079201D01*
X185549085Y-72814408D01*
X185605000Y-72533305D01*
X185605000Y-72246695D01*
X185549085Y-71965592D01*
X185439404Y-71700799D01*
X185280172Y-71462492D01*
X185077508Y-71259828D01*
X184868241Y-71120000D01*
X185077508Y-70980172D01*
X185280172Y-70777508D01*
X185439404Y-70539201D01*
X185549085Y-70274408D01*
X185605000Y-69993305D01*
X185605000Y-69706695D01*
X185549085Y-69425592D01*
X185439404Y-69160799D01*
X185280172Y-68922492D01*
X185077508Y-68719828D01*
X184868241Y-68580000D01*
X185077508Y-68440172D01*
X185280172Y-68237508D01*
X185439404Y-67999201D01*
X185549085Y-67734408D01*
X185605000Y-67453305D01*
X185605000Y-67166695D01*
X185549085Y-66885592D01*
X185439404Y-66620799D01*
X185280172Y-66382492D01*
X185077508Y-66179828D01*
X184868241Y-66040000D01*
X185077508Y-65900172D01*
X185280172Y-65697508D01*
X185439404Y-65459201D01*
X185549085Y-65194408D01*
X185605000Y-64913305D01*
X185605000Y-64626695D01*
X185549085Y-64345592D01*
X185439404Y-64080799D01*
X185280172Y-63842492D01*
X185077508Y-63639828D01*
X184868241Y-63500000D01*
X185077508Y-63360172D01*
X185280172Y-63157508D01*
X185439404Y-62919201D01*
X185549085Y-62654408D01*
X185605000Y-62373305D01*
X185605000Y-62086695D01*
X185549085Y-61805592D01*
X185439404Y-61540799D01*
X185280172Y-61302492D01*
X185077508Y-61099828D01*
X184868241Y-60960000D01*
X185077508Y-60820172D01*
X185280172Y-60617508D01*
X185439404Y-60379201D01*
X185549085Y-60114408D01*
X185605000Y-59833305D01*
X185605000Y-59546695D01*
X185549085Y-59265592D01*
X185439404Y-59000799D01*
X185280172Y-58762492D01*
X185077508Y-58559828D01*
X184839201Y-58400596D01*
X184574408Y-58290915D01*
X184293305Y-58235000D01*
X184006695Y-58235000D01*
X183725592Y-58290915D01*
X183460799Y-58400596D01*
X183222492Y-58559828D01*
X183019828Y-58762492D01*
X182880000Y-58971759D01*
X182740172Y-58762492D01*
X182537508Y-58559828D01*
X182299201Y-58400596D01*
X182034408Y-58290915D01*
X181935857Y-58271312D01*
X181935857Y-56540000D01*
X192380001Y-56540000D01*
X192380000Y-88240000D01*
X92100000Y-88240000D01*
X92100000Y-85940000D01*
X93761928Y-85940000D01*
X93774188Y-86064482D01*
X93810498Y-86184180D01*
X93869463Y-86294494D01*
X93948815Y-86391185D01*
X94045506Y-86470537D01*
X94155820Y-86529502D01*
X94275518Y-86565812D01*
X94400000Y-86578072D01*
X94964250Y-86575000D01*
X95123000Y-86416250D01*
X95123000Y-85217000D01*
X95377000Y-85217000D01*
X95377000Y-86416250D01*
X95535750Y-86575000D01*
X96100000Y-86578072D01*
X96224482Y-86565812D01*
X96344180Y-86529502D01*
X96454494Y-86470537D01*
X96551185Y-86391185D01*
X96630537Y-86294494D01*
X96689502Y-86184180D01*
X96725812Y-86064482D01*
X96738072Y-85940000D01*
X96735000Y-85375750D01*
X96576250Y-85217000D01*
X95377000Y-85217000D01*
X95123000Y-85217000D01*
X93923750Y-85217000D01*
X93765000Y-85375750D01*
X93761928Y-85940000D01*
X92100000Y-85940000D01*
X92100000Y-59690000D01*
X93757815Y-59690000D01*
X93786487Y-59981111D01*
X93871401Y-60261034D01*
X94009294Y-60519014D01*
X94194866Y-60745134D01*
X94420986Y-60930706D01*
X94475791Y-60960000D01*
X94420986Y-60989294D01*
X94194866Y-61174866D01*
X94009294Y-61400986D01*
X93871401Y-61658966D01*
X93786487Y-61938889D01*
X93757815Y-62230000D01*
X93786487Y-62521111D01*
X93871401Y-62801034D01*
X94009294Y-63059014D01*
X94194866Y-63285134D01*
X94420986Y-63470706D01*
X94475791Y-63500000D01*
X94420986Y-63529294D01*
X94194866Y-63714866D01*
X94009294Y-63940986D01*
X93871401Y-64198966D01*
X93786487Y-64478889D01*
X93757815Y-64770000D01*
X93786487Y-65061111D01*
X93871401Y-65341034D01*
X94009294Y-65599014D01*
X94194866Y-65825134D01*
X94420986Y-66010706D01*
X94475791Y-66040000D01*
X94420986Y-66069294D01*
X94194866Y-66254866D01*
X94009294Y-66480986D01*
X93871401Y-66738966D01*
X93786487Y-67018889D01*
X93757815Y-67310000D01*
X93786487Y-67601111D01*
X93871401Y-67881034D01*
X94009294Y-68139014D01*
X94194866Y-68365134D01*
X94420986Y-68550706D01*
X94475791Y-68580000D01*
X94420986Y-68609294D01*
X94194866Y-68794866D01*
X94009294Y-69020986D01*
X93871401Y-69278966D01*
X93786487Y-69558889D01*
X93757815Y-69850000D01*
X93786487Y-70141111D01*
X93871401Y-70421034D01*
X94009294Y-70679014D01*
X94194866Y-70905134D01*
X94420986Y-71090706D01*
X94475791Y-71120000D01*
X94420986Y-71149294D01*
X94194866Y-71334866D01*
X94009294Y-71560986D01*
X93871401Y-71818966D01*
X93786487Y-72098889D01*
X93757815Y-72390000D01*
X93786487Y-72681111D01*
X93871401Y-72961034D01*
X94009294Y-73219014D01*
X94194866Y-73445134D01*
X94420986Y-73630706D01*
X94475791Y-73660000D01*
X94420986Y-73689294D01*
X94194866Y-73874866D01*
X94009294Y-74100986D01*
X93871401Y-74358966D01*
X93786487Y-74638889D01*
X93757815Y-74930000D01*
X93786487Y-75221111D01*
X93871401Y-75501034D01*
X94009294Y-75759014D01*
X94194866Y-75985134D01*
X94420986Y-76170706D01*
X94475791Y-76200000D01*
X94420986Y-76229294D01*
X94194866Y-76414866D01*
X94009294Y-76640986D01*
X93871401Y-76898966D01*
X93786487Y-77178889D01*
X93757815Y-77470000D01*
X93786487Y-77761111D01*
X93871401Y-78041034D01*
X94009294Y-78299014D01*
X94194866Y-78525134D01*
X94420986Y-78710706D01*
X94475791Y-78740000D01*
X94420986Y-78769294D01*
X94194866Y-78954866D01*
X94009294Y-79180986D01*
X93871401Y-79438966D01*
X93786487Y-79718889D01*
X93757815Y-80010000D01*
X93786487Y-80301111D01*
X93871401Y-80581034D01*
X94009294Y-80839014D01*
X94194866Y-81065134D01*
X94420986Y-81250706D01*
X94475791Y-81280000D01*
X94420986Y-81309294D01*
X94194866Y-81494866D01*
X94009294Y-81720986D01*
X93871401Y-81978966D01*
X93786487Y-82258889D01*
X93757815Y-82550000D01*
X93786487Y-82841111D01*
X93871401Y-83121034D01*
X94009294Y-83379014D01*
X94194866Y-83605134D01*
X94224687Y-83629607D01*
X94155820Y-83650498D01*
X94045506Y-83709463D01*
X93948815Y-83788815D01*
X93869463Y-83885506D01*
X93810498Y-83995820D01*
X93774188Y-84115518D01*
X93761928Y-84240000D01*
X93765000Y-84804250D01*
X93923750Y-84963000D01*
X95123000Y-84963000D01*
X95123000Y-84943000D01*
X95377000Y-84943000D01*
X95377000Y-84963000D01*
X96576250Y-84963000D01*
X96669378Y-84869872D01*
X98730000Y-84869872D01*
X98730000Y-85310128D01*
X98815890Y-85741925D01*
X98984369Y-86148669D01*
X99228962Y-86514729D01*
X99540271Y-86826038D01*
X99906331Y-87070631D01*
X100313075Y-87239110D01*
X100744872Y-87325000D01*
X101185128Y-87325000D01*
X101616925Y-87239110D01*
X102023669Y-87070631D01*
X102389729Y-86826038D01*
X102701038Y-86514729D01*
X102945631Y-86148669D01*
X103114110Y-85741925D01*
X103200000Y-85310128D01*
X103200000Y-84869872D01*
X103114110Y-84438075D01*
X102945631Y-84031331D01*
X102701038Y-83665271D01*
X102487799Y-83452032D01*
X106265000Y-83452032D01*
X106265000Y-83847968D01*
X106342243Y-84236296D01*
X106493761Y-84602092D01*
X106713731Y-84931301D01*
X106993699Y-85211269D01*
X107322908Y-85431239D01*
X107688704Y-85582757D01*
X108077032Y-85660000D01*
X108472968Y-85660000D01*
X108861296Y-85582757D01*
X109227092Y-85431239D01*
X109556301Y-85211269D01*
X109836269Y-84931301D01*
X110056239Y-84602092D01*
X110207757Y-84236296D01*
X110285000Y-83847968D01*
X110285000Y-83452032D01*
X164265000Y-83452032D01*
X164265000Y-83847968D01*
X164342243Y-84236296D01*
X164493761Y-84602092D01*
X164713731Y-84931301D01*
X164993699Y-85211269D01*
X165322908Y-85431239D01*
X165688704Y-85582757D01*
X166077032Y-85660000D01*
X166472968Y-85660000D01*
X166861296Y-85582757D01*
X167227092Y-85431239D01*
X167556301Y-85211269D01*
X167836269Y-84931301D01*
X167877314Y-84869872D01*
X171755000Y-84869872D01*
X171755000Y-85310128D01*
X171840890Y-85741925D01*
X172009369Y-86148669D01*
X172253962Y-86514729D01*
X172565271Y-86826038D01*
X172931331Y-87070631D01*
X173338075Y-87239110D01*
X173769872Y-87325000D01*
X174210128Y-87325000D01*
X174641925Y-87239110D01*
X175048669Y-87070631D01*
X175414729Y-86826038D01*
X175726038Y-86514729D01*
X175970631Y-86148669D01*
X175992040Y-86096982D01*
X180782624Y-86096982D01*
X180856627Y-86342993D01*
X181115550Y-86465893D01*
X181393474Y-86535917D01*
X181679719Y-86550376D01*
X181963285Y-86508714D01*
X182233275Y-86412532D01*
X182363373Y-86342993D01*
X182437376Y-86096982D01*
X181610000Y-85269605D01*
X180782624Y-86096982D01*
X175992040Y-86096982D01*
X176139110Y-85741925D01*
X176225000Y-85310128D01*
X176225000Y-85159719D01*
X180149624Y-85159719D01*
X180191286Y-85443285D01*
X180287468Y-85713275D01*
X180357007Y-85843373D01*
X180603018Y-85917376D01*
X181430395Y-85090000D01*
X180603018Y-84262624D01*
X180357007Y-84336627D01*
X180234107Y-84595550D01*
X180164083Y-84873474D01*
X180149624Y-85159719D01*
X176225000Y-85159719D01*
X176225000Y-84869872D01*
X176139110Y-84438075D01*
X175970631Y-84031331D01*
X175726038Y-83665271D01*
X175414729Y-83353962D01*
X175048669Y-83109369D01*
X174641925Y-82940890D01*
X174210128Y-82855000D01*
X173769872Y-82855000D01*
X173338075Y-82940890D01*
X172931331Y-83109369D01*
X172565271Y-83353962D01*
X172253962Y-83665271D01*
X172009369Y-84031331D01*
X171840890Y-84438075D01*
X171755000Y-84869872D01*
X167877314Y-84869872D01*
X168056239Y-84602092D01*
X168207757Y-84236296D01*
X168285000Y-83847968D01*
X168285000Y-83452032D01*
X168207757Y-83063704D01*
X168056239Y-82697908D01*
X167836269Y-82368699D01*
X167556301Y-82088731D01*
X167227092Y-81868761D01*
X166861296Y-81717243D01*
X166472968Y-81640000D01*
X166077032Y-81640000D01*
X165688704Y-81717243D01*
X165322908Y-81868761D01*
X164993699Y-82088731D01*
X164713731Y-82368699D01*
X164493761Y-82697908D01*
X164342243Y-83063704D01*
X164265000Y-83452032D01*
X110285000Y-83452032D01*
X110207757Y-83063704D01*
X110056239Y-82697908D01*
X109836269Y-82368699D01*
X109556301Y-82088731D01*
X109227092Y-81868761D01*
X108861296Y-81717243D01*
X108472968Y-81640000D01*
X108077032Y-81640000D01*
X107688704Y-81717243D01*
X107322908Y-81868761D01*
X106993699Y-82088731D01*
X106713731Y-82368699D01*
X106493761Y-82697908D01*
X106342243Y-83063704D01*
X106265000Y-83452032D01*
X102487799Y-83452032D01*
X102389729Y-83353962D01*
X102023669Y-83109369D01*
X101616925Y-82940890D01*
X101185128Y-82855000D01*
X100744872Y-82855000D01*
X100313075Y-82940890D01*
X99906331Y-83109369D01*
X99540271Y-83353962D01*
X99228962Y-83665271D01*
X98984369Y-84031331D01*
X98815890Y-84438075D01*
X98730000Y-84869872D01*
X96669378Y-84869872D01*
X96735000Y-84804250D01*
X96738072Y-84240000D01*
X96725812Y-84115518D01*
X96689502Y-83995820D01*
X96630537Y-83885506D01*
X96551185Y-83788815D01*
X96454494Y-83709463D01*
X96344180Y-83650498D01*
X96275313Y-83629607D01*
X96305134Y-83605134D01*
X96490706Y-83379014D01*
X96628599Y-83121034D01*
X96713513Y-82841111D01*
X96742185Y-82550000D01*
X96713513Y-82258889D01*
X96628599Y-81978966D01*
X96490706Y-81720986D01*
X96305134Y-81494866D01*
X96079014Y-81309294D01*
X96024209Y-81280000D01*
X96079014Y-81250706D01*
X96305134Y-81065134D01*
X96490706Y-80839014D01*
X96628599Y-80581034D01*
X96713513Y-80301111D01*
X96742185Y-80010000D01*
X96713513Y-79718889D01*
X96628599Y-79438966D01*
X96490706Y-79180986D01*
X96305134Y-78954866D01*
X96079014Y-78769294D01*
X96024209Y-78740000D01*
X96079014Y-78710706D01*
X96305134Y-78525134D01*
X96490706Y-78299014D01*
X96628599Y-78041034D01*
X96713513Y-77761111D01*
X96742185Y-77470000D01*
X96713513Y-77178889D01*
X96698210Y-77128441D01*
X177927000Y-77128441D01*
X177927000Y-77303559D01*
X177961164Y-77475312D01*
X178028179Y-77637099D01*
X178125469Y-77782704D01*
X178193765Y-77851000D01*
X178125469Y-77919296D01*
X178028179Y-78064901D01*
X177961164Y-78226688D01*
X177927000Y-78398441D01*
X177927000Y-78573559D01*
X177961164Y-78745312D01*
X178028179Y-78907099D01*
X178125469Y-79052704D01*
X178249296Y-79176531D01*
X178394901Y-79273821D01*
X178556688Y-79340836D01*
X178728441Y-79375000D01*
X178903559Y-79375000D01*
X179075312Y-79340836D01*
X179237099Y-79273821D01*
X179382704Y-79176531D01*
X179506531Y-79052704D01*
X179603821Y-78907099D01*
X179670836Y-78745312D01*
X179705000Y-78573559D01*
X179705000Y-78398441D01*
X179670836Y-78226688D01*
X179603821Y-78064901D01*
X179506531Y-77919296D01*
X179438235Y-77851000D01*
X179506531Y-77782704D01*
X179603821Y-77637099D01*
X179670836Y-77475312D01*
X179705000Y-77303559D01*
X179705000Y-77128441D01*
X179670836Y-76956688D01*
X179603821Y-76794901D01*
X179506531Y-76649296D01*
X179382704Y-76525469D01*
X179237099Y-76428179D01*
X179075312Y-76361164D01*
X178903559Y-76327000D01*
X178728441Y-76327000D01*
X178556688Y-76361164D01*
X178394901Y-76428179D01*
X178249296Y-76525469D01*
X178125469Y-76649296D01*
X178028179Y-76794901D01*
X177961164Y-76956688D01*
X177927000Y-77128441D01*
X96698210Y-77128441D01*
X96628599Y-76898966D01*
X96490706Y-76640986D01*
X96305134Y-76414866D01*
X96079014Y-76229294D01*
X96024209Y-76200000D01*
X96079014Y-76170706D01*
X96305134Y-75985134D01*
X96490706Y-75759014D01*
X96628599Y-75501034D01*
X96713513Y-75221111D01*
X96742185Y-74930000D01*
X96713513Y-74638889D01*
X96628599Y-74358966D01*
X96490706Y-74100986D01*
X96305134Y-73874866D01*
X96246129Y-73826441D01*
X114935000Y-73826441D01*
X114935000Y-74001559D01*
X114969164Y-74173312D01*
X115036179Y-74335099D01*
X115133469Y-74480704D01*
X115257296Y-74604531D01*
X115402901Y-74701821D01*
X115564688Y-74768836D01*
X115736441Y-74803000D01*
X115911559Y-74803000D01*
X116083312Y-74768836D01*
X116245099Y-74701821D01*
X116390704Y-74604531D01*
X116514531Y-74480704D01*
X116611821Y-74335099D01*
X116678836Y-74173312D01*
X116713000Y-74001559D01*
X116713000Y-73826441D01*
X116678836Y-73654688D01*
X116611821Y-73492901D01*
X116514531Y-73347296D01*
X116390704Y-73223469D01*
X116245099Y-73126179D01*
X116083312Y-73059164D01*
X115911559Y-73025000D01*
X115736441Y-73025000D01*
X115564688Y-73059164D01*
X115402901Y-73126179D01*
X115257296Y-73223469D01*
X115133469Y-73347296D01*
X115036179Y-73492901D01*
X114969164Y-73654688D01*
X114935000Y-73826441D01*
X96246129Y-73826441D01*
X96079014Y-73689294D01*
X96024209Y-73660000D01*
X96079014Y-73630706D01*
X96305134Y-73445134D01*
X96490706Y-73219014D01*
X96628599Y-72961034D01*
X96713513Y-72681111D01*
X96717518Y-72640441D01*
X125265000Y-72640441D01*
X125265000Y-72815559D01*
X125299164Y-72987312D01*
X125366179Y-73149099D01*
X125463469Y-73294704D01*
X125587296Y-73418531D01*
X125732901Y-73515821D01*
X125894688Y-73582836D01*
X126066441Y-73617000D01*
X126241559Y-73617000D01*
X126413312Y-73582836D01*
X126575099Y-73515821D01*
X126720704Y-73418531D01*
X126820794Y-73318441D01*
X165989000Y-73318441D01*
X165989000Y-73493559D01*
X166023164Y-73665312D01*
X166090179Y-73827099D01*
X166187469Y-73972704D01*
X166311296Y-74096531D01*
X166456901Y-74193821D01*
X166618688Y-74260836D01*
X166790441Y-74295000D01*
X166965559Y-74295000D01*
X167137312Y-74260836D01*
X167299099Y-74193821D01*
X167444704Y-74096531D01*
X167568531Y-73972704D01*
X167665821Y-73827099D01*
X167732836Y-73665312D01*
X167767000Y-73493559D01*
X167767000Y-73318441D01*
X167732836Y-73146688D01*
X167665821Y-72984901D01*
X167568531Y-72839296D01*
X167444704Y-72715469D01*
X167299099Y-72618179D01*
X167137312Y-72551164D01*
X166965559Y-72517000D01*
X166790441Y-72517000D01*
X166618688Y-72551164D01*
X166456901Y-72618179D01*
X166311296Y-72715469D01*
X166187469Y-72839296D01*
X166090179Y-72984901D01*
X166023164Y-73146688D01*
X165989000Y-73318441D01*
X126820794Y-73318441D01*
X126844531Y-73294704D01*
X126941821Y-73149099D01*
X127008836Y-72987312D01*
X127043000Y-72815559D01*
X127043000Y-72640441D01*
X127008836Y-72468688D01*
X126941821Y-72306901D01*
X126844531Y-72161296D01*
X126720704Y-72037469D01*
X126575099Y-71940179D01*
X126413312Y-71873164D01*
X126241559Y-71839000D01*
X126066441Y-71839000D01*
X125894688Y-71873164D01*
X125732901Y-71940179D01*
X125587296Y-72037469D01*
X125463469Y-72161296D01*
X125366179Y-72306901D01*
X125299164Y-72468688D01*
X125265000Y-72640441D01*
X96717518Y-72640441D01*
X96742185Y-72390000D01*
X96713513Y-72098889D01*
X96628599Y-71818966D01*
X96490706Y-71560986D01*
X96305134Y-71334866D01*
X96079014Y-71149294D01*
X96024209Y-71120000D01*
X96079014Y-71090706D01*
X96305134Y-70905134D01*
X96490706Y-70679014D01*
X96628599Y-70421034D01*
X96713513Y-70141111D01*
X96725791Y-70016441D01*
X108585000Y-70016441D01*
X108585000Y-70191559D01*
X108619164Y-70363312D01*
X108686179Y-70525099D01*
X108783469Y-70670704D01*
X108907296Y-70794531D01*
X109052901Y-70891821D01*
X109214688Y-70958836D01*
X109386441Y-70993000D01*
X109561559Y-70993000D01*
X109733312Y-70958836D01*
X109895099Y-70891821D01*
X110040704Y-70794531D01*
X110056794Y-70778441D01*
X118745000Y-70778441D01*
X118745000Y-70953559D01*
X118779164Y-71125312D01*
X118846179Y-71287099D01*
X118943469Y-71432704D01*
X119067296Y-71556531D01*
X119212901Y-71653821D01*
X119374688Y-71720836D01*
X119546441Y-71755000D01*
X119721559Y-71755000D01*
X119893312Y-71720836D01*
X120055099Y-71653821D01*
X120200704Y-71556531D01*
X120324531Y-71432704D01*
X120421821Y-71287099D01*
X120488836Y-71125312D01*
X120523000Y-70953559D01*
X120523000Y-70778441D01*
X128905000Y-70778441D01*
X128905000Y-70953559D01*
X128939164Y-71125312D01*
X129006179Y-71287099D01*
X129103469Y-71432704D01*
X129227296Y-71556531D01*
X129372901Y-71653821D01*
X129534688Y-71720836D01*
X129706441Y-71755000D01*
X129881559Y-71755000D01*
X130053312Y-71720836D01*
X130215099Y-71653821D01*
X130360704Y-71556531D01*
X130484531Y-71432704D01*
X130581821Y-71287099D01*
X130648836Y-71125312D01*
X130683000Y-70953559D01*
X130683000Y-70803851D01*
X133985000Y-70803851D01*
X133985000Y-70978969D01*
X134019164Y-71150722D01*
X134086179Y-71312509D01*
X134183469Y-71458114D01*
X134307296Y-71581941D01*
X134452901Y-71679231D01*
X134614688Y-71746246D01*
X134786441Y-71780410D01*
X134961559Y-71780410D01*
X135133312Y-71746246D01*
X135295099Y-71679231D01*
X135440704Y-71581941D01*
X135482204Y-71540441D01*
X140589000Y-71540441D01*
X140589000Y-71715559D01*
X140623164Y-71887312D01*
X140690179Y-72049099D01*
X140787469Y-72194704D01*
X140911296Y-72318531D01*
X141056901Y-72415821D01*
X141218688Y-72482836D01*
X141390441Y-72517000D01*
X141565559Y-72517000D01*
X141737312Y-72482836D01*
X141899099Y-72415821D01*
X142044704Y-72318531D01*
X142168531Y-72194704D01*
X142265821Y-72049099D01*
X142332836Y-71887312D01*
X142366458Y-71718281D01*
X145669000Y-71718281D01*
X145669000Y-71893399D01*
X145703164Y-72065152D01*
X145770179Y-72226939D01*
X145867469Y-72372544D01*
X145991296Y-72496371D01*
X146136901Y-72593661D01*
X146298688Y-72660676D01*
X146470441Y-72694840D01*
X146645559Y-72694840D01*
X146817312Y-72660676D01*
X146979099Y-72593661D01*
X147124704Y-72496371D01*
X147248531Y-72372544D01*
X147345821Y-72226939D01*
X147412836Y-72065152D01*
X147416160Y-72048441D01*
X150749000Y-72048441D01*
X150749000Y-72223559D01*
X150783164Y-72395312D01*
X150850179Y-72557099D01*
X150947469Y-72702704D01*
X151071296Y-72826531D01*
X151216901Y-72923821D01*
X151378688Y-72990836D01*
X151550441Y-73025000D01*
X151725559Y-73025000D01*
X151897312Y-72990836D01*
X152059099Y-72923821D01*
X152204704Y-72826531D01*
X152328531Y-72702704D01*
X152425821Y-72557099D01*
X152492836Y-72395312D01*
X152506244Y-72327901D01*
X160655000Y-72327901D01*
X160655000Y-72503019D01*
X160689164Y-72674772D01*
X160756179Y-72836559D01*
X160853469Y-72982164D01*
X160977296Y-73105991D01*
X161122901Y-73203281D01*
X161284688Y-73270296D01*
X161456441Y-73304460D01*
X161631559Y-73304460D01*
X161803312Y-73270296D01*
X161965099Y-73203281D01*
X162110704Y-73105991D01*
X162234531Y-72982164D01*
X162331821Y-72836559D01*
X162398836Y-72674772D01*
X162433000Y-72503019D01*
X162433000Y-72327901D01*
X162398836Y-72156148D01*
X162331821Y-71994361D01*
X162234531Y-71848756D01*
X162110704Y-71724929D01*
X161965099Y-71627639D01*
X161803312Y-71560624D01*
X161631559Y-71526460D01*
X161456441Y-71526460D01*
X161284688Y-71560624D01*
X161122901Y-71627639D01*
X160977296Y-71724929D01*
X160853469Y-71848756D01*
X160756179Y-71994361D01*
X160689164Y-72156148D01*
X160655000Y-72327901D01*
X152506244Y-72327901D01*
X152527000Y-72223559D01*
X152527000Y-72048441D01*
X152492836Y-71876688D01*
X152425821Y-71714901D01*
X152328531Y-71569296D01*
X152204704Y-71445469D01*
X152059099Y-71348179D01*
X151897312Y-71281164D01*
X151725559Y-71247000D01*
X151550441Y-71247000D01*
X151378688Y-71281164D01*
X151216901Y-71348179D01*
X151071296Y-71445469D01*
X150947469Y-71569296D01*
X150850179Y-71714901D01*
X150783164Y-71876688D01*
X150749000Y-72048441D01*
X147416160Y-72048441D01*
X147447000Y-71893399D01*
X147447000Y-71718281D01*
X147412836Y-71546528D01*
X147345821Y-71384741D01*
X147248531Y-71239136D01*
X147124704Y-71115309D01*
X146979099Y-71018019D01*
X146817312Y-70951004D01*
X146645559Y-70916840D01*
X146470441Y-70916840D01*
X146298688Y-70951004D01*
X146136901Y-71018019D01*
X145991296Y-71115309D01*
X145867469Y-71239136D01*
X145770179Y-71384741D01*
X145703164Y-71546528D01*
X145669000Y-71718281D01*
X142366458Y-71718281D01*
X142367000Y-71715559D01*
X142367000Y-71540441D01*
X142332836Y-71368688D01*
X142265821Y-71206901D01*
X142168531Y-71061296D01*
X142044704Y-70937469D01*
X141899099Y-70840179D01*
X141737312Y-70773164D01*
X141565559Y-70739000D01*
X141390441Y-70739000D01*
X141218688Y-70773164D01*
X141056901Y-70840179D01*
X140911296Y-70937469D01*
X140787469Y-71061296D01*
X140690179Y-71206901D01*
X140623164Y-71368688D01*
X140589000Y-71540441D01*
X135482204Y-71540441D01*
X135564531Y-71458114D01*
X135661821Y-71312509D01*
X135728836Y-71150722D01*
X135763000Y-70978969D01*
X135763000Y-70803851D01*
X135728836Y-70632098D01*
X135661821Y-70470311D01*
X135564531Y-70324706D01*
X135440704Y-70200879D01*
X135295099Y-70103589D01*
X135133312Y-70036574D01*
X134961559Y-70002410D01*
X134786441Y-70002410D01*
X134614688Y-70036574D01*
X134452901Y-70103589D01*
X134307296Y-70200879D01*
X134183469Y-70324706D01*
X134086179Y-70470311D01*
X134019164Y-70632098D01*
X133985000Y-70803851D01*
X130683000Y-70803851D01*
X130683000Y-70778441D01*
X130648836Y-70606688D01*
X130581821Y-70444901D01*
X130484531Y-70299296D01*
X130360704Y-70175469D01*
X130215099Y-70078179D01*
X130053312Y-70011164D01*
X129881559Y-69977000D01*
X129706441Y-69977000D01*
X129534688Y-70011164D01*
X129372901Y-70078179D01*
X129227296Y-70175469D01*
X129103469Y-70299296D01*
X129006179Y-70444901D01*
X128939164Y-70606688D01*
X128905000Y-70778441D01*
X120523000Y-70778441D01*
X120488836Y-70606688D01*
X120421821Y-70444901D01*
X120324531Y-70299296D01*
X120200704Y-70175469D01*
X120055099Y-70078179D01*
X119893312Y-70011164D01*
X119721559Y-69977000D01*
X119546441Y-69977000D01*
X119374688Y-70011164D01*
X119212901Y-70078179D01*
X119067296Y-70175469D01*
X118943469Y-70299296D01*
X118846179Y-70444901D01*
X118779164Y-70606688D01*
X118745000Y-70778441D01*
X110056794Y-70778441D01*
X110164531Y-70670704D01*
X110261821Y-70525099D01*
X110328836Y-70363312D01*
X110363000Y-70191559D01*
X110363000Y-70016441D01*
X110328836Y-69844688D01*
X110261821Y-69682901D01*
X110164531Y-69537296D01*
X110040704Y-69413469D01*
X109895099Y-69316179D01*
X109733312Y-69249164D01*
X109561559Y-69215000D01*
X109386441Y-69215000D01*
X109214688Y-69249164D01*
X109052901Y-69316179D01*
X108907296Y-69413469D01*
X108783469Y-69537296D01*
X108686179Y-69682901D01*
X108619164Y-69844688D01*
X108585000Y-70016441D01*
X96725791Y-70016441D01*
X96742185Y-69850000D01*
X96713513Y-69558889D01*
X96628599Y-69278966D01*
X96490706Y-69020986D01*
X96305134Y-68794866D01*
X96246129Y-68746441D01*
X112649000Y-68746441D01*
X112649000Y-68921559D01*
X112683164Y-69093312D01*
X112750179Y-69255099D01*
X112847469Y-69400704D01*
X112971296Y-69524531D01*
X113116901Y-69621821D01*
X113278688Y-69688836D01*
X113450441Y-69723000D01*
X113625559Y-69723000D01*
X113797312Y-69688836D01*
X113959099Y-69621821D01*
X114104704Y-69524531D01*
X114228531Y-69400704D01*
X114325821Y-69255099D01*
X114392836Y-69093312D01*
X114427000Y-68921559D01*
X114427000Y-68746441D01*
X117475000Y-68746441D01*
X117475000Y-68921559D01*
X117509164Y-69093312D01*
X117576179Y-69255099D01*
X117673469Y-69400704D01*
X117797296Y-69524531D01*
X117942901Y-69621821D01*
X118104688Y-69688836D01*
X118276441Y-69723000D01*
X118451559Y-69723000D01*
X118623312Y-69688836D01*
X118785099Y-69621821D01*
X118930704Y-69524531D01*
X119054531Y-69400704D01*
X119151821Y-69255099D01*
X119218836Y-69093312D01*
X119253000Y-68921559D01*
X119253000Y-68746441D01*
X122555000Y-68746441D01*
X122555000Y-68921559D01*
X122589164Y-69093312D01*
X122656179Y-69255099D01*
X122753469Y-69400704D01*
X122877296Y-69524531D01*
X123022901Y-69621821D01*
X123184688Y-69688836D01*
X123356441Y-69723000D01*
X123531559Y-69723000D01*
X123703312Y-69688836D01*
X123865099Y-69621821D01*
X124010704Y-69524531D01*
X124134531Y-69400704D01*
X124231821Y-69255099D01*
X124298836Y-69093312D01*
X124317309Y-69000441D01*
X127635000Y-69000441D01*
X127635000Y-69175559D01*
X127669164Y-69347312D01*
X127736179Y-69509099D01*
X127833469Y-69654704D01*
X127957296Y-69778531D01*
X128102901Y-69875821D01*
X128264688Y-69942836D01*
X128436441Y-69977000D01*
X128611559Y-69977000D01*
X128783312Y-69942836D01*
X128945099Y-69875821D01*
X129090704Y-69778531D01*
X129214531Y-69654704D01*
X129311821Y-69509099D01*
X129378836Y-69347312D01*
X129413000Y-69175559D01*
X129413000Y-69000441D01*
X129378836Y-68828688D01*
X129344768Y-68746441D01*
X132715000Y-68746441D01*
X132715000Y-68921559D01*
X132749164Y-69093312D01*
X132816179Y-69255099D01*
X132913469Y-69400704D01*
X133037296Y-69524531D01*
X133182901Y-69621821D01*
X133344688Y-69688836D01*
X133516441Y-69723000D01*
X133691559Y-69723000D01*
X133863312Y-69688836D01*
X134025099Y-69621821D01*
X134170704Y-69524531D01*
X134294531Y-69400704D01*
X134391821Y-69255099D01*
X134458836Y-69093312D01*
X134477309Y-69000441D01*
X137541000Y-69000441D01*
X137541000Y-69175559D01*
X137575164Y-69347312D01*
X137642179Y-69509099D01*
X137739469Y-69654704D01*
X137863296Y-69778531D01*
X138008901Y-69875821D01*
X138170688Y-69942836D01*
X138342441Y-69977000D01*
X138517559Y-69977000D01*
X138689312Y-69942836D01*
X138851099Y-69875821D01*
X138996704Y-69778531D01*
X139120531Y-69654704D01*
X139217821Y-69509099D01*
X139284836Y-69347312D01*
X139319000Y-69175559D01*
X139319000Y-69000441D01*
X139284836Y-68828688D01*
X139250768Y-68746441D01*
X142875000Y-68746441D01*
X142875000Y-68921559D01*
X142909164Y-69093312D01*
X142976179Y-69255099D01*
X143073469Y-69400704D01*
X143197296Y-69524531D01*
X143342901Y-69621821D01*
X143504688Y-69688836D01*
X143676441Y-69723000D01*
X143851559Y-69723000D01*
X144023312Y-69688836D01*
X144185099Y-69621821D01*
X144330704Y-69524531D01*
X144454531Y-69400704D01*
X144551821Y-69255099D01*
X144618836Y-69093312D01*
X144653000Y-68921559D01*
X144653000Y-68746441D01*
X147955000Y-68746441D01*
X147955000Y-68921559D01*
X147989164Y-69093312D01*
X148056179Y-69255099D01*
X148153469Y-69400704D01*
X148277296Y-69524531D01*
X148422901Y-69621821D01*
X148584688Y-69688836D01*
X148756441Y-69723000D01*
X148931559Y-69723000D01*
X149103312Y-69688836D01*
X149265099Y-69621821D01*
X149410704Y-69524531D01*
X149534531Y-69400704D01*
X149631821Y-69255099D01*
X149698836Y-69093312D01*
X149733000Y-68921559D01*
X149733000Y-68746441D01*
X153035000Y-68746441D01*
X153035000Y-68921559D01*
X153069164Y-69093312D01*
X153136179Y-69255099D01*
X153233469Y-69400704D01*
X153357296Y-69524531D01*
X153502901Y-69621821D01*
X153664688Y-69688836D01*
X153836441Y-69723000D01*
X154011559Y-69723000D01*
X154183312Y-69688836D01*
X154345099Y-69621821D01*
X154490704Y-69524531D01*
X154614531Y-69400704D01*
X154711821Y-69255099D01*
X154778836Y-69093312D01*
X154813000Y-68921559D01*
X154813000Y-68746441D01*
X155575000Y-68746441D01*
X155575000Y-68921559D01*
X155609164Y-69093312D01*
X155676179Y-69255099D01*
X155773469Y-69400704D01*
X155897296Y-69524531D01*
X156042901Y-69621821D01*
X156204688Y-69688836D01*
X156376441Y-69723000D01*
X156551559Y-69723000D01*
X156723312Y-69688836D01*
X156885099Y-69621821D01*
X157030704Y-69524531D01*
X157154531Y-69400704D01*
X157251821Y-69255099D01*
X157318836Y-69093312D01*
X157353000Y-68921559D01*
X157353000Y-68746441D01*
X158115000Y-68746441D01*
X158115000Y-68921559D01*
X158149164Y-69093312D01*
X158216179Y-69255099D01*
X158313469Y-69400704D01*
X158437296Y-69524531D01*
X158582901Y-69621821D01*
X158744688Y-69688836D01*
X158916441Y-69723000D01*
X159091559Y-69723000D01*
X159263312Y-69688836D01*
X159425099Y-69621821D01*
X159570704Y-69524531D01*
X159694531Y-69400704D01*
X159791821Y-69255099D01*
X159858836Y-69093312D01*
X159893000Y-68921559D01*
X159893000Y-68746441D01*
X163195000Y-68746441D01*
X163195000Y-68921559D01*
X163229164Y-69093312D01*
X163296179Y-69255099D01*
X163393469Y-69400704D01*
X163517296Y-69524531D01*
X163662901Y-69621821D01*
X163824688Y-69688836D01*
X163996441Y-69723000D01*
X164171559Y-69723000D01*
X164343312Y-69688836D01*
X164505099Y-69621821D01*
X164650704Y-69524531D01*
X164774531Y-69400704D01*
X164871821Y-69255099D01*
X164938836Y-69093312D01*
X164973000Y-68921559D01*
X164973000Y-68746441D01*
X168275000Y-68746441D01*
X168275000Y-68921559D01*
X168309164Y-69093312D01*
X168376179Y-69255099D01*
X168473469Y-69400704D01*
X168597296Y-69524531D01*
X168742901Y-69621821D01*
X168904688Y-69688836D01*
X169076441Y-69723000D01*
X169251559Y-69723000D01*
X169423312Y-69688836D01*
X169585099Y-69621821D01*
X169730704Y-69524531D01*
X169854531Y-69400704D01*
X169951821Y-69255099D01*
X170018836Y-69093312D01*
X170053000Y-68921559D01*
X170053000Y-68746441D01*
X170018836Y-68574688D01*
X169951821Y-68412901D01*
X169854531Y-68267296D01*
X169730704Y-68143469D01*
X169585099Y-68046179D01*
X169423312Y-67979164D01*
X169251559Y-67945000D01*
X169076441Y-67945000D01*
X168904688Y-67979164D01*
X168742901Y-68046179D01*
X168597296Y-68143469D01*
X168473469Y-68267296D01*
X168376179Y-68412901D01*
X168309164Y-68574688D01*
X168275000Y-68746441D01*
X164973000Y-68746441D01*
X164938836Y-68574688D01*
X164871821Y-68412901D01*
X164774531Y-68267296D01*
X164650704Y-68143469D01*
X164505099Y-68046179D01*
X164343312Y-67979164D01*
X164171559Y-67945000D01*
X163996441Y-67945000D01*
X163824688Y-67979164D01*
X163662901Y-68046179D01*
X163517296Y-68143469D01*
X163393469Y-68267296D01*
X163296179Y-68412901D01*
X163229164Y-68574688D01*
X163195000Y-68746441D01*
X159893000Y-68746441D01*
X159858836Y-68574688D01*
X159791821Y-68412901D01*
X159694531Y-68267296D01*
X159570704Y-68143469D01*
X159425099Y-68046179D01*
X159263312Y-67979164D01*
X159091559Y-67945000D01*
X158916441Y-67945000D01*
X158744688Y-67979164D01*
X158582901Y-68046179D01*
X158437296Y-68143469D01*
X158313469Y-68267296D01*
X158216179Y-68412901D01*
X158149164Y-68574688D01*
X158115000Y-68746441D01*
X157353000Y-68746441D01*
X157318836Y-68574688D01*
X157251821Y-68412901D01*
X157154531Y-68267296D01*
X157030704Y-68143469D01*
X156885099Y-68046179D01*
X156723312Y-67979164D01*
X156551559Y-67945000D01*
X156376441Y-67945000D01*
X156204688Y-67979164D01*
X156042901Y-68046179D01*
X155897296Y-68143469D01*
X155773469Y-68267296D01*
X155676179Y-68412901D01*
X155609164Y-68574688D01*
X155575000Y-68746441D01*
X154813000Y-68746441D01*
X154778836Y-68574688D01*
X154711821Y-68412901D01*
X154614531Y-68267296D01*
X154490704Y-68143469D01*
X154345099Y-68046179D01*
X154183312Y-67979164D01*
X154011559Y-67945000D01*
X153836441Y-67945000D01*
X153664688Y-67979164D01*
X153502901Y-68046179D01*
X153357296Y-68143469D01*
X153233469Y-68267296D01*
X153136179Y-68412901D01*
X153069164Y-68574688D01*
X153035000Y-68746441D01*
X149733000Y-68746441D01*
X149698836Y-68574688D01*
X149631821Y-68412901D01*
X149534531Y-68267296D01*
X149410704Y-68143469D01*
X149265099Y-68046179D01*
X149103312Y-67979164D01*
X148931559Y-67945000D01*
X148756441Y-67945000D01*
X148584688Y-67979164D01*
X148422901Y-68046179D01*
X148277296Y-68143469D01*
X148153469Y-68267296D01*
X148056179Y-68412901D01*
X147989164Y-68574688D01*
X147955000Y-68746441D01*
X144653000Y-68746441D01*
X144618836Y-68574688D01*
X144551821Y-68412901D01*
X144454531Y-68267296D01*
X144330704Y-68143469D01*
X144185099Y-68046179D01*
X144023312Y-67979164D01*
X143851559Y-67945000D01*
X143676441Y-67945000D01*
X143504688Y-67979164D01*
X143342901Y-68046179D01*
X143197296Y-68143469D01*
X143073469Y-68267296D01*
X142976179Y-68412901D01*
X142909164Y-68574688D01*
X142875000Y-68746441D01*
X139250768Y-68746441D01*
X139217821Y-68666901D01*
X139120531Y-68521296D01*
X138996704Y-68397469D01*
X138851099Y-68300179D01*
X138689312Y-68233164D01*
X138517559Y-68199000D01*
X138342441Y-68199000D01*
X138170688Y-68233164D01*
X138008901Y-68300179D01*
X137863296Y-68397469D01*
X137739469Y-68521296D01*
X137642179Y-68666901D01*
X137575164Y-68828688D01*
X137541000Y-69000441D01*
X134477309Y-69000441D01*
X134493000Y-68921559D01*
X134493000Y-68746441D01*
X134458836Y-68574688D01*
X134391821Y-68412901D01*
X134294531Y-68267296D01*
X134170704Y-68143469D01*
X134025099Y-68046179D01*
X133863312Y-67979164D01*
X133691559Y-67945000D01*
X133516441Y-67945000D01*
X133344688Y-67979164D01*
X133182901Y-68046179D01*
X133037296Y-68143469D01*
X132913469Y-68267296D01*
X132816179Y-68412901D01*
X132749164Y-68574688D01*
X132715000Y-68746441D01*
X129344768Y-68746441D01*
X129311821Y-68666901D01*
X129214531Y-68521296D01*
X129090704Y-68397469D01*
X128945099Y-68300179D01*
X128783312Y-68233164D01*
X128611559Y-68199000D01*
X128436441Y-68199000D01*
X128264688Y-68233164D01*
X128102901Y-68300179D01*
X127957296Y-68397469D01*
X127833469Y-68521296D01*
X127736179Y-68666901D01*
X127669164Y-68828688D01*
X127635000Y-69000441D01*
X124317309Y-69000441D01*
X124333000Y-68921559D01*
X124333000Y-68746441D01*
X124298836Y-68574688D01*
X124231821Y-68412901D01*
X124134531Y-68267296D01*
X124010704Y-68143469D01*
X123865099Y-68046179D01*
X123703312Y-67979164D01*
X123531559Y-67945000D01*
X123356441Y-67945000D01*
X123184688Y-67979164D01*
X123022901Y-68046179D01*
X122877296Y-68143469D01*
X122753469Y-68267296D01*
X122656179Y-68412901D01*
X122589164Y-68574688D01*
X122555000Y-68746441D01*
X119253000Y-68746441D01*
X119218836Y-68574688D01*
X119151821Y-68412901D01*
X119054531Y-68267296D01*
X118930704Y-68143469D01*
X118785099Y-68046179D01*
X118623312Y-67979164D01*
X118451559Y-67945000D01*
X118276441Y-67945000D01*
X118104688Y-67979164D01*
X117942901Y-68046179D01*
X117797296Y-68143469D01*
X117673469Y-68267296D01*
X117576179Y-68412901D01*
X117509164Y-68574688D01*
X117475000Y-68746441D01*
X114427000Y-68746441D01*
X114392836Y-68574688D01*
X114325821Y-68412901D01*
X114228531Y-68267296D01*
X114104704Y-68143469D01*
X113959099Y-68046179D01*
X113797312Y-67979164D01*
X113625559Y-67945000D01*
X113450441Y-67945000D01*
X113278688Y-67979164D01*
X113116901Y-68046179D01*
X112971296Y-68143469D01*
X112847469Y-68267296D01*
X112750179Y-68412901D01*
X112683164Y-68574688D01*
X112649000Y-68746441D01*
X96246129Y-68746441D01*
X96079014Y-68609294D01*
X96024209Y-68580000D01*
X96079014Y-68550706D01*
X96305134Y-68365134D01*
X96490706Y-68139014D01*
X96628599Y-67881034D01*
X96713513Y-67601111D01*
X96742185Y-67310000D01*
X96733562Y-67222441D01*
X111125000Y-67222441D01*
X111125000Y-67397559D01*
X111159164Y-67569312D01*
X111226179Y-67731099D01*
X111323469Y-67876704D01*
X111447296Y-68000531D01*
X111592901Y-68097821D01*
X111754688Y-68164836D01*
X111926441Y-68199000D01*
X112101559Y-68199000D01*
X112273312Y-68164836D01*
X112435099Y-68097821D01*
X112580704Y-68000531D01*
X112704531Y-67876704D01*
X112801821Y-67731099D01*
X112868836Y-67569312D01*
X112903000Y-67397559D01*
X112903000Y-67222441D01*
X116205000Y-67222441D01*
X116205000Y-67397559D01*
X116239164Y-67569312D01*
X116306179Y-67731099D01*
X116403469Y-67876704D01*
X116527296Y-68000531D01*
X116672901Y-68097821D01*
X116834688Y-68164836D01*
X117006441Y-68199000D01*
X117181559Y-68199000D01*
X117353312Y-68164836D01*
X117515099Y-68097821D01*
X117660704Y-68000531D01*
X117784531Y-67876704D01*
X117881821Y-67731099D01*
X117948836Y-67569312D01*
X117983000Y-67397559D01*
X117983000Y-67222441D01*
X121285000Y-67222441D01*
X121285000Y-67397559D01*
X121319164Y-67569312D01*
X121386179Y-67731099D01*
X121483469Y-67876704D01*
X121607296Y-68000531D01*
X121752901Y-68097821D01*
X121914688Y-68164836D01*
X122086441Y-68199000D01*
X122261559Y-68199000D01*
X122433312Y-68164836D01*
X122595099Y-68097821D01*
X122740704Y-68000531D01*
X122864531Y-67876704D01*
X122961821Y-67731099D01*
X123028836Y-67569312D01*
X123063000Y-67397559D01*
X123063000Y-67222441D01*
X123028836Y-67050688D01*
X122994768Y-66968441D01*
X126365000Y-66968441D01*
X126365000Y-67143559D01*
X126399164Y-67315312D01*
X126466179Y-67477099D01*
X126563469Y-67622704D01*
X126687296Y-67746531D01*
X126832901Y-67843821D01*
X126994688Y-67910836D01*
X127166441Y-67945000D01*
X127341559Y-67945000D01*
X127513312Y-67910836D01*
X127675099Y-67843821D01*
X127820704Y-67746531D01*
X127944531Y-67622704D01*
X128041821Y-67477099D01*
X128108836Y-67315312D01*
X128127309Y-67222441D01*
X131445000Y-67222441D01*
X131445000Y-67397559D01*
X131479164Y-67569312D01*
X131546179Y-67731099D01*
X131643469Y-67876704D01*
X131767296Y-68000531D01*
X131912901Y-68097821D01*
X132074688Y-68164836D01*
X132246441Y-68199000D01*
X132421559Y-68199000D01*
X132593312Y-68164836D01*
X132755099Y-68097821D01*
X132900704Y-68000531D01*
X133024531Y-67876704D01*
X133121821Y-67731099D01*
X133188836Y-67569312D01*
X133223000Y-67397559D01*
X133223000Y-67222441D01*
X136525000Y-67222441D01*
X136525000Y-67397559D01*
X136559164Y-67569312D01*
X136626179Y-67731099D01*
X136723469Y-67876704D01*
X136847296Y-68000531D01*
X136992901Y-68097821D01*
X137154688Y-68164836D01*
X137326441Y-68199000D01*
X137501559Y-68199000D01*
X137673312Y-68164836D01*
X137835099Y-68097821D01*
X137980704Y-68000531D01*
X138104531Y-67876704D01*
X138201821Y-67731099D01*
X138268836Y-67569312D01*
X138303000Y-67397559D01*
X138303000Y-67222441D01*
X141605000Y-67222441D01*
X141605000Y-67397559D01*
X141639164Y-67569312D01*
X141706179Y-67731099D01*
X141803469Y-67876704D01*
X141927296Y-68000531D01*
X142072901Y-68097821D01*
X142234688Y-68164836D01*
X142406441Y-68199000D01*
X142581559Y-68199000D01*
X142753312Y-68164836D01*
X142915099Y-68097821D01*
X143060704Y-68000531D01*
X143184531Y-67876704D01*
X143281821Y-67731099D01*
X143348836Y-67569312D01*
X143383000Y-67397559D01*
X143383000Y-67222441D01*
X146685000Y-67222441D01*
X146685000Y-67397559D01*
X146719164Y-67569312D01*
X146786179Y-67731099D01*
X146883469Y-67876704D01*
X147007296Y-68000531D01*
X147152901Y-68097821D01*
X147314688Y-68164836D01*
X147486441Y-68199000D01*
X147661559Y-68199000D01*
X147833312Y-68164836D01*
X147995099Y-68097821D01*
X148140704Y-68000531D01*
X148264531Y-67876704D01*
X148361821Y-67731099D01*
X148428836Y-67569312D01*
X148463000Y-67397559D01*
X148463000Y-67222441D01*
X151765000Y-67222441D01*
X151765000Y-67397559D01*
X151799164Y-67569312D01*
X151866179Y-67731099D01*
X151963469Y-67876704D01*
X152087296Y-68000531D01*
X152232901Y-68097821D01*
X152394688Y-68164836D01*
X152566441Y-68199000D01*
X152741559Y-68199000D01*
X152913312Y-68164836D01*
X153075099Y-68097821D01*
X153220704Y-68000531D01*
X153344531Y-67876704D01*
X153441821Y-67731099D01*
X153508836Y-67569312D01*
X153543000Y-67397559D01*
X153543000Y-67222441D01*
X161925000Y-67222441D01*
X161925000Y-67397559D01*
X161959164Y-67569312D01*
X162026179Y-67731099D01*
X162123469Y-67876704D01*
X162247296Y-68000531D01*
X162392901Y-68097821D01*
X162554688Y-68164836D01*
X162726441Y-68199000D01*
X162901559Y-68199000D01*
X163073312Y-68164836D01*
X163235099Y-68097821D01*
X163380704Y-68000531D01*
X163504531Y-67876704D01*
X163601821Y-67731099D01*
X163668836Y-67569312D01*
X163703000Y-67397559D01*
X163703000Y-67222441D01*
X167005000Y-67222441D01*
X167005000Y-67397559D01*
X167039164Y-67569312D01*
X167106179Y-67731099D01*
X167203469Y-67876704D01*
X167327296Y-68000531D01*
X167472901Y-68097821D01*
X167634688Y-68164836D01*
X167806441Y-68199000D01*
X167981559Y-68199000D01*
X168153312Y-68164836D01*
X168315099Y-68097821D01*
X168460704Y-68000531D01*
X168584531Y-67876704D01*
X168681821Y-67731099D01*
X168748836Y-67569312D01*
X168783000Y-67397559D01*
X168783000Y-67222441D01*
X168748836Y-67050688D01*
X168681821Y-66888901D01*
X168584531Y-66743296D01*
X168460704Y-66619469D01*
X168315099Y-66522179D01*
X168153312Y-66455164D01*
X167981559Y-66421000D01*
X167806441Y-66421000D01*
X167634688Y-66455164D01*
X167472901Y-66522179D01*
X167327296Y-66619469D01*
X167203469Y-66743296D01*
X167106179Y-66888901D01*
X167039164Y-67050688D01*
X167005000Y-67222441D01*
X163703000Y-67222441D01*
X163668836Y-67050688D01*
X163601821Y-66888901D01*
X163504531Y-66743296D01*
X163380704Y-66619469D01*
X163235099Y-66522179D01*
X163073312Y-66455164D01*
X162901559Y-66421000D01*
X162726441Y-66421000D01*
X162554688Y-66455164D01*
X162392901Y-66522179D01*
X162247296Y-66619469D01*
X162123469Y-66743296D01*
X162026179Y-66888901D01*
X161959164Y-67050688D01*
X161925000Y-67222441D01*
X153543000Y-67222441D01*
X153508836Y-67050688D01*
X153441821Y-66888901D01*
X153344531Y-66743296D01*
X153220704Y-66619469D01*
X153075099Y-66522179D01*
X152913312Y-66455164D01*
X152741559Y-66421000D01*
X152566441Y-66421000D01*
X152394688Y-66455164D01*
X152232901Y-66522179D01*
X152087296Y-66619469D01*
X151963469Y-66743296D01*
X151866179Y-66888901D01*
X151799164Y-67050688D01*
X151765000Y-67222441D01*
X148463000Y-67222441D01*
X148428836Y-67050688D01*
X148361821Y-66888901D01*
X148264531Y-66743296D01*
X148140704Y-66619469D01*
X147995099Y-66522179D01*
X147833312Y-66455164D01*
X147661559Y-66421000D01*
X147486441Y-66421000D01*
X147314688Y-66455164D01*
X147152901Y-66522179D01*
X147007296Y-66619469D01*
X146883469Y-66743296D01*
X146786179Y-66888901D01*
X146719164Y-67050688D01*
X146685000Y-67222441D01*
X143383000Y-67222441D01*
X143348836Y-67050688D01*
X143281821Y-66888901D01*
X143184531Y-66743296D01*
X143060704Y-66619469D01*
X142915099Y-66522179D01*
X142753312Y-66455164D01*
X142581559Y-66421000D01*
X142406441Y-66421000D01*
X142234688Y-66455164D01*
X142072901Y-66522179D01*
X141927296Y-66619469D01*
X141803469Y-66743296D01*
X141706179Y-66888901D01*
X141639164Y-67050688D01*
X141605000Y-67222441D01*
X138303000Y-67222441D01*
X138268836Y-67050688D01*
X138201821Y-66888901D01*
X138104531Y-66743296D01*
X137980704Y-66619469D01*
X137835099Y-66522179D01*
X137673312Y-66455164D01*
X137501559Y-66421000D01*
X137326441Y-66421000D01*
X137154688Y-66455164D01*
X136992901Y-66522179D01*
X136847296Y-66619469D01*
X136723469Y-66743296D01*
X136626179Y-66888901D01*
X136559164Y-67050688D01*
X136525000Y-67222441D01*
X133223000Y-67222441D01*
X133188836Y-67050688D01*
X133121821Y-66888901D01*
X133024531Y-66743296D01*
X132900704Y-66619469D01*
X132755099Y-66522179D01*
X132593312Y-66455164D01*
X132421559Y-66421000D01*
X132246441Y-66421000D01*
X132074688Y-66455164D01*
X131912901Y-66522179D01*
X131767296Y-66619469D01*
X131643469Y-66743296D01*
X131546179Y-66888901D01*
X131479164Y-67050688D01*
X131445000Y-67222441D01*
X128127309Y-67222441D01*
X128143000Y-67143559D01*
X128143000Y-66968441D01*
X128108836Y-66796688D01*
X128041821Y-66634901D01*
X127944531Y-66489296D01*
X127820704Y-66365469D01*
X127675099Y-66268179D01*
X127513312Y-66201164D01*
X127341559Y-66167000D01*
X127166441Y-66167000D01*
X126994688Y-66201164D01*
X126832901Y-66268179D01*
X126687296Y-66365469D01*
X126563469Y-66489296D01*
X126466179Y-66634901D01*
X126399164Y-66796688D01*
X126365000Y-66968441D01*
X122994768Y-66968441D01*
X122961821Y-66888901D01*
X122864531Y-66743296D01*
X122740704Y-66619469D01*
X122595099Y-66522179D01*
X122433312Y-66455164D01*
X122261559Y-66421000D01*
X122086441Y-66421000D01*
X121914688Y-66455164D01*
X121752901Y-66522179D01*
X121607296Y-66619469D01*
X121483469Y-66743296D01*
X121386179Y-66888901D01*
X121319164Y-67050688D01*
X121285000Y-67222441D01*
X117983000Y-67222441D01*
X117948836Y-67050688D01*
X117881821Y-66888901D01*
X117784531Y-66743296D01*
X117660704Y-66619469D01*
X117515099Y-66522179D01*
X117353312Y-66455164D01*
X117181559Y-66421000D01*
X117006441Y-66421000D01*
X116834688Y-66455164D01*
X116672901Y-66522179D01*
X116527296Y-66619469D01*
X116403469Y-66743296D01*
X116306179Y-66888901D01*
X116239164Y-67050688D01*
X116205000Y-67222441D01*
X112903000Y-67222441D01*
X112868836Y-67050688D01*
X112801821Y-66888901D01*
X112704531Y-66743296D01*
X112580704Y-66619469D01*
X112435099Y-66522179D01*
X112273312Y-66455164D01*
X112101559Y-66421000D01*
X111926441Y-66421000D01*
X111754688Y-66455164D01*
X111592901Y-66522179D01*
X111447296Y-66619469D01*
X111323469Y-66743296D01*
X111226179Y-66888901D01*
X111159164Y-67050688D01*
X111125000Y-67222441D01*
X96733562Y-67222441D01*
X96713513Y-67018889D01*
X96628599Y-66738966D01*
X96490706Y-66480986D01*
X96305134Y-66254866D01*
X96079014Y-66069294D01*
X96024209Y-66040000D01*
X96079014Y-66010706D01*
X96150010Y-65952441D01*
X154305000Y-65952441D01*
X154305000Y-66127559D01*
X154339164Y-66299312D01*
X154406179Y-66461099D01*
X154503469Y-66606704D01*
X154627296Y-66730531D01*
X154772901Y-66827821D01*
X154934688Y-66894836D01*
X155106441Y-66929000D01*
X155281559Y-66929000D01*
X155453312Y-66894836D01*
X155615099Y-66827821D01*
X155760704Y-66730531D01*
X155884531Y-66606704D01*
X155981821Y-66461099D01*
X156048836Y-66299312D01*
X156083000Y-66127559D01*
X156083000Y-65952441D01*
X156048836Y-65780688D01*
X155981821Y-65618901D01*
X155884531Y-65473296D01*
X155760704Y-65349469D01*
X155615099Y-65252179D01*
X155453312Y-65185164D01*
X155281559Y-65151000D01*
X155106441Y-65151000D01*
X154934688Y-65185164D01*
X154772901Y-65252179D01*
X154627296Y-65349469D01*
X154503469Y-65473296D01*
X154406179Y-65618901D01*
X154339164Y-65780688D01*
X154305000Y-65952441D01*
X96150010Y-65952441D01*
X96305134Y-65825134D01*
X96490706Y-65599014D01*
X96628599Y-65341034D01*
X96713513Y-65061111D01*
X96742185Y-64770000D01*
X96713513Y-64478889D01*
X96628599Y-64198966D01*
X96490706Y-63940986D01*
X96305134Y-63714866D01*
X96079014Y-63529294D01*
X96024209Y-63500000D01*
X96079014Y-63470706D01*
X96305134Y-63285134D01*
X96490706Y-63059014D01*
X96628599Y-62801034D01*
X96713513Y-62521111D01*
X96742185Y-62230000D01*
X96713513Y-61938889D01*
X96628599Y-61658966D01*
X96490706Y-61400986D01*
X96305134Y-61174866D01*
X96079014Y-60989294D01*
X96024209Y-60960000D01*
X96079014Y-60930706D01*
X96305134Y-60745134D01*
X96490706Y-60519014D01*
X96628599Y-60261034D01*
X96713513Y-59981111D01*
X96742185Y-59690000D01*
X96720505Y-59469872D01*
X98730000Y-59469872D01*
X98730000Y-59910128D01*
X98815890Y-60341925D01*
X98984369Y-60748669D01*
X99228962Y-61114729D01*
X99540271Y-61426038D01*
X99906331Y-61670631D01*
X100313075Y-61839110D01*
X100744872Y-61925000D01*
X101185128Y-61925000D01*
X101616925Y-61839110D01*
X102023669Y-61670631D01*
X102389729Y-61426038D01*
X102701038Y-61114729D01*
X102945631Y-60748669D01*
X103068502Y-60452032D01*
X106265000Y-60452032D01*
X106265000Y-60847968D01*
X106342243Y-61236296D01*
X106493761Y-61602092D01*
X106713731Y-61931301D01*
X106993699Y-62211269D01*
X107322908Y-62431239D01*
X107688704Y-62582757D01*
X108077032Y-62660000D01*
X108472968Y-62660000D01*
X108861296Y-62582757D01*
X109227092Y-62431239D01*
X109556301Y-62211269D01*
X109836269Y-61931301D01*
X109877228Y-61870000D01*
X111772815Y-61870000D01*
X111801487Y-62161111D01*
X111886401Y-62441034D01*
X112024294Y-62699014D01*
X112209866Y-62925134D01*
X112435986Y-63110706D01*
X112693966Y-63248599D01*
X112973889Y-63333513D01*
X113192050Y-63355000D01*
X113337950Y-63355000D01*
X113556111Y-63333513D01*
X113836034Y-63248599D01*
X114094014Y-63110706D01*
X114320134Y-62925134D01*
X114505706Y-62699014D01*
X114535000Y-62644209D01*
X114564294Y-62699014D01*
X114749866Y-62925134D01*
X114975986Y-63110706D01*
X115233966Y-63248599D01*
X115513889Y-63333513D01*
X115732050Y-63355000D01*
X115877950Y-63355000D01*
X116096111Y-63333513D01*
X116376034Y-63248599D01*
X116634014Y-63110706D01*
X116860134Y-62925134D01*
X117045706Y-62699014D01*
X117075000Y-62644209D01*
X117104294Y-62699014D01*
X117289866Y-62925134D01*
X117515986Y-63110706D01*
X117773966Y-63248599D01*
X118053889Y-63333513D01*
X118272050Y-63355000D01*
X118417950Y-63355000D01*
X118636111Y-63333513D01*
X118916034Y-63248599D01*
X119174014Y-63110706D01*
X119400134Y-62925134D01*
X119585706Y-62699014D01*
X119620201Y-62634477D01*
X119689822Y-62751355D01*
X119884731Y-62967588D01*
X120118080Y-63141641D01*
X120380901Y-63266825D01*
X120528110Y-63311476D01*
X120758000Y-63190155D01*
X120758000Y-61997000D01*
X120738000Y-61997000D01*
X120738000Y-61743000D01*
X120758000Y-61743000D01*
X120758000Y-61723000D01*
X121012000Y-61723000D01*
X121012000Y-61743000D01*
X121032000Y-61743000D01*
X121032000Y-61997000D01*
X121012000Y-61997000D01*
X121012000Y-63190155D01*
X121241890Y-63311476D01*
X121389099Y-63266825D01*
X121651920Y-63141641D01*
X121885269Y-62967588D01*
X122080178Y-62751355D01*
X122149799Y-62634477D01*
X122184294Y-62699014D01*
X122369866Y-62925134D01*
X122595986Y-63110706D01*
X122853966Y-63248599D01*
X123133889Y-63333513D01*
X123352050Y-63355000D01*
X123497950Y-63355000D01*
X123716111Y-63333513D01*
X123996034Y-63248599D01*
X124254014Y-63110706D01*
X124480134Y-62925134D01*
X124665706Y-62699014D01*
X124700201Y-62634477D01*
X124769822Y-62751355D01*
X124964731Y-62967588D01*
X125198080Y-63141641D01*
X125460901Y-63266825D01*
X125608110Y-63311476D01*
X125838000Y-63190155D01*
X125838000Y-61997000D01*
X125818000Y-61997000D01*
X125818000Y-61743000D01*
X125838000Y-61743000D01*
X125838000Y-61723000D01*
X126092000Y-61723000D01*
X126092000Y-61743000D01*
X126112000Y-61743000D01*
X126112000Y-61997000D01*
X126092000Y-61997000D01*
X126092000Y-63190155D01*
X126321890Y-63311476D01*
X126469099Y-63266825D01*
X126731920Y-63141641D01*
X126965269Y-62967588D01*
X127160178Y-62751355D01*
X127229799Y-62634477D01*
X127264294Y-62699014D01*
X127449866Y-62925134D01*
X127675986Y-63110706D01*
X127933966Y-63248599D01*
X128213889Y-63333513D01*
X128432050Y-63355000D01*
X128577950Y-63355000D01*
X128796111Y-63333513D01*
X129076034Y-63248599D01*
X129334014Y-63110706D01*
X129560134Y-62925134D01*
X129745706Y-62699014D01*
X129775000Y-62644209D01*
X129804294Y-62699014D01*
X129989866Y-62925134D01*
X130215986Y-63110706D01*
X130473966Y-63248599D01*
X130753889Y-63333513D01*
X130972050Y-63355000D01*
X131117950Y-63355000D01*
X131336111Y-63333513D01*
X131616034Y-63248599D01*
X131874014Y-63110706D01*
X132100134Y-62925134D01*
X132285706Y-62699014D01*
X132315000Y-62644209D01*
X132344294Y-62699014D01*
X132529866Y-62925134D01*
X132755986Y-63110706D01*
X133013966Y-63248599D01*
X133293889Y-63333513D01*
X133512050Y-63355000D01*
X133657950Y-63355000D01*
X133876111Y-63333513D01*
X134156034Y-63248599D01*
X134414014Y-63110706D01*
X134640134Y-62925134D01*
X134825706Y-62699014D01*
X134855000Y-62644209D01*
X134884294Y-62699014D01*
X135069866Y-62925134D01*
X135295986Y-63110706D01*
X135553966Y-63248599D01*
X135833889Y-63333513D01*
X136052050Y-63355000D01*
X136197950Y-63355000D01*
X136416111Y-63333513D01*
X136696034Y-63248599D01*
X136954014Y-63110706D01*
X137180134Y-62925134D01*
X137365706Y-62699014D01*
X137400201Y-62634477D01*
X137469822Y-62751355D01*
X137664731Y-62967588D01*
X137898080Y-63141641D01*
X138160901Y-63266825D01*
X138308110Y-63311476D01*
X138538000Y-63190155D01*
X138538000Y-61997000D01*
X138518000Y-61997000D01*
X138518000Y-61743000D01*
X138538000Y-61743000D01*
X138538000Y-61723000D01*
X138792000Y-61723000D01*
X138792000Y-61743000D01*
X138812000Y-61743000D01*
X138812000Y-61997000D01*
X138792000Y-61997000D01*
X138792000Y-63190155D01*
X139021890Y-63311476D01*
X139169099Y-63266825D01*
X139431920Y-63141641D01*
X139665269Y-62967588D01*
X139860178Y-62751355D01*
X139929799Y-62634477D01*
X139964294Y-62699014D01*
X140149866Y-62925134D01*
X140375986Y-63110706D01*
X140633966Y-63248599D01*
X140913889Y-63333513D01*
X141132050Y-63355000D01*
X141277950Y-63355000D01*
X141496111Y-63333513D01*
X141776034Y-63248599D01*
X142034014Y-63110706D01*
X142260134Y-62925134D01*
X142445706Y-62699014D01*
X142475000Y-62644209D01*
X142504294Y-62699014D01*
X142689866Y-62925134D01*
X142915986Y-63110706D01*
X143173966Y-63248599D01*
X143453889Y-63333513D01*
X143672050Y-63355000D01*
X143817950Y-63355000D01*
X144036111Y-63333513D01*
X144316034Y-63248599D01*
X144574014Y-63110706D01*
X144800134Y-62925134D01*
X144985706Y-62699014D01*
X145020201Y-62634477D01*
X145089822Y-62751355D01*
X145284731Y-62967588D01*
X145518080Y-63141641D01*
X145780901Y-63266825D01*
X145928110Y-63311476D01*
X146158000Y-63190155D01*
X146158000Y-61997000D01*
X146138000Y-61997000D01*
X146138000Y-61743000D01*
X146158000Y-61743000D01*
X146158000Y-61723000D01*
X146412000Y-61723000D01*
X146412000Y-61743000D01*
X146432000Y-61743000D01*
X146432000Y-61997000D01*
X146412000Y-61997000D01*
X146412000Y-63190155D01*
X146641890Y-63311476D01*
X146789099Y-63266825D01*
X147051920Y-63141641D01*
X147285269Y-62967588D01*
X147480178Y-62751355D01*
X147549799Y-62634477D01*
X147584294Y-62699014D01*
X147769866Y-62925134D01*
X147995986Y-63110706D01*
X148253966Y-63248599D01*
X148533889Y-63333513D01*
X148752050Y-63355000D01*
X148897950Y-63355000D01*
X149116111Y-63333513D01*
X149396034Y-63248599D01*
X149654014Y-63110706D01*
X149880134Y-62925134D01*
X150065706Y-62699014D01*
X150095000Y-62644209D01*
X150124294Y-62699014D01*
X150309866Y-62925134D01*
X150535986Y-63110706D01*
X150793966Y-63248599D01*
X151073889Y-63333513D01*
X151292050Y-63355000D01*
X151437950Y-63355000D01*
X151656111Y-63333513D01*
X151936034Y-63248599D01*
X152194014Y-63110706D01*
X152420134Y-62925134D01*
X152605706Y-62699014D01*
X152635000Y-62644209D01*
X152664294Y-62699014D01*
X152849866Y-62925134D01*
X153075986Y-63110706D01*
X153333966Y-63248599D01*
X153613889Y-63333513D01*
X153832050Y-63355000D01*
X153977950Y-63355000D01*
X154196111Y-63333513D01*
X154476034Y-63248599D01*
X154734014Y-63110706D01*
X154960134Y-62925134D01*
X155145706Y-62699014D01*
X155180201Y-62634477D01*
X155249822Y-62751355D01*
X155444731Y-62967588D01*
X155678080Y-63141641D01*
X155940901Y-63266825D01*
X156088110Y-63311476D01*
X156318000Y-63190155D01*
X156318000Y-61997000D01*
X156298000Y-61997000D01*
X156298000Y-61743000D01*
X156318000Y-61743000D01*
X156318000Y-61723000D01*
X156572000Y-61723000D01*
X156572000Y-61743000D01*
X156592000Y-61743000D01*
X156592000Y-61997000D01*
X156572000Y-61997000D01*
X156572000Y-63190155D01*
X156801890Y-63311476D01*
X156949099Y-63266825D01*
X157211920Y-63141641D01*
X157445269Y-62967588D01*
X157640178Y-62751355D01*
X157709799Y-62634477D01*
X157744294Y-62699014D01*
X157929866Y-62925134D01*
X158155986Y-63110706D01*
X158413966Y-63248599D01*
X158693889Y-63333513D01*
X158912050Y-63355000D01*
X159057950Y-63355000D01*
X159276111Y-63333513D01*
X159556034Y-63248599D01*
X159557701Y-63247708D01*
X159453296Y-63317469D01*
X159329469Y-63441296D01*
X159232179Y-63586901D01*
X159165164Y-63748688D01*
X159131000Y-63920441D01*
X159131000Y-64095559D01*
X159165164Y-64267312D01*
X159232179Y-64429099D01*
X159329469Y-64574704D01*
X159453296Y-64698531D01*
X159598901Y-64795821D01*
X159760688Y-64862836D01*
X159932441Y-64897000D01*
X160107559Y-64897000D01*
X160279312Y-64862836D01*
X160441099Y-64795821D01*
X160586704Y-64698531D01*
X160710531Y-64574704D01*
X160807821Y-64429099D01*
X160874836Y-64267312D01*
X160909000Y-64095559D01*
X160909000Y-63920441D01*
X160874836Y-63748688D01*
X160807821Y-63586901D01*
X160710531Y-63441296D01*
X160586704Y-63317469D01*
X160441099Y-63220179D01*
X160279312Y-63153164D01*
X160107559Y-63119000D01*
X159932441Y-63119000D01*
X159760688Y-63153164D01*
X159644682Y-63201216D01*
X159814014Y-63110706D01*
X160040134Y-62925134D01*
X160225706Y-62699014D01*
X160255000Y-62644209D01*
X160284294Y-62699014D01*
X160469866Y-62925134D01*
X160695986Y-63110706D01*
X160953966Y-63248599D01*
X161233889Y-63333513D01*
X161452050Y-63355000D01*
X161597950Y-63355000D01*
X161816111Y-63333513D01*
X162096034Y-63248599D01*
X162264707Y-63158441D01*
X162687000Y-63158441D01*
X162687000Y-63333559D01*
X162721164Y-63505312D01*
X162788179Y-63667099D01*
X162885469Y-63812704D01*
X163009296Y-63936531D01*
X163154901Y-64033821D01*
X163316688Y-64100836D01*
X163488441Y-64135000D01*
X163663559Y-64135000D01*
X163835312Y-64100836D01*
X163997099Y-64033821D01*
X164142704Y-63936531D01*
X164266531Y-63812704D01*
X164363821Y-63667099D01*
X164430836Y-63505312D01*
X164465000Y-63333559D01*
X164465000Y-63158441D01*
X164430836Y-62986688D01*
X164363821Y-62824901D01*
X164266531Y-62679296D01*
X164142704Y-62555469D01*
X163997099Y-62458179D01*
X163835312Y-62391164D01*
X163663559Y-62357000D01*
X163488441Y-62357000D01*
X163316688Y-62391164D01*
X163154901Y-62458179D01*
X163009296Y-62555469D01*
X162885469Y-62679296D01*
X162788179Y-62824901D01*
X162721164Y-62986688D01*
X162687000Y-63158441D01*
X162264707Y-63158441D01*
X162354014Y-63110706D01*
X162580134Y-62925134D01*
X162765706Y-62699014D01*
X162903599Y-62441034D01*
X162988513Y-62161111D01*
X163017185Y-61870000D01*
X162988513Y-61578889D01*
X162903599Y-61298966D01*
X162765706Y-61040986D01*
X162580134Y-60814866D01*
X162550313Y-60790393D01*
X162619180Y-60769502D01*
X162729494Y-60710537D01*
X162826185Y-60631185D01*
X162905537Y-60534494D01*
X162949614Y-60452032D01*
X164265000Y-60452032D01*
X164265000Y-60847968D01*
X164342243Y-61236296D01*
X164493761Y-61602092D01*
X164713731Y-61931301D01*
X164993699Y-62211269D01*
X165322908Y-62431239D01*
X165688704Y-62582757D01*
X166077032Y-62660000D01*
X166472968Y-62660000D01*
X166861296Y-62582757D01*
X167227092Y-62431239D01*
X167556301Y-62211269D01*
X167836269Y-61931301D01*
X168056239Y-61602092D01*
X168207757Y-61236296D01*
X168285000Y-60847968D01*
X168285000Y-60452032D01*
X168207757Y-60063704D01*
X168056239Y-59697908D01*
X167903871Y-59469872D01*
X171755000Y-59469872D01*
X171755000Y-59910128D01*
X171840890Y-60341925D01*
X172009369Y-60748669D01*
X172253962Y-61114729D01*
X172565271Y-61426038D01*
X172931331Y-61670631D01*
X173338075Y-61839110D01*
X173769872Y-61925000D01*
X174210128Y-61925000D01*
X174641925Y-61839110D01*
X175048669Y-61670631D01*
X175414729Y-61426038D01*
X175726038Y-61114729D01*
X175970631Y-60748669D01*
X176139110Y-60341925D01*
X176225000Y-59910128D01*
X176225000Y-59469872D01*
X176139110Y-59038075D01*
X175970631Y-58631331D01*
X175726038Y-58265271D01*
X175414729Y-57953962D01*
X175048669Y-57709369D01*
X174641925Y-57540890D01*
X174210128Y-57455000D01*
X173769872Y-57455000D01*
X173338075Y-57540890D01*
X172931331Y-57709369D01*
X172565271Y-57953962D01*
X172253962Y-58265271D01*
X172009369Y-58631331D01*
X171840890Y-59038075D01*
X171755000Y-59469872D01*
X167903871Y-59469872D01*
X167836269Y-59368699D01*
X167556301Y-59088731D01*
X167227092Y-58868761D01*
X166861296Y-58717243D01*
X166472968Y-58640000D01*
X166077032Y-58640000D01*
X165688704Y-58717243D01*
X165322908Y-58868761D01*
X164993699Y-59088731D01*
X164713731Y-59368699D01*
X164493761Y-59697908D01*
X164342243Y-60063704D01*
X164265000Y-60452032D01*
X162949614Y-60452032D01*
X162964502Y-60424180D01*
X163000812Y-60304482D01*
X163013072Y-60180000D01*
X163013072Y-58480000D01*
X163000812Y-58355518D01*
X162964502Y-58235820D01*
X162905537Y-58125506D01*
X162826185Y-58028815D01*
X162729494Y-57949463D01*
X162619180Y-57890498D01*
X162499482Y-57854188D01*
X162375000Y-57841928D01*
X160675000Y-57841928D01*
X160550518Y-57854188D01*
X160430820Y-57890498D01*
X160320506Y-57949463D01*
X160223815Y-58028815D01*
X160144463Y-58125506D01*
X160085498Y-58235820D01*
X160064607Y-58304687D01*
X160040134Y-58274866D01*
X159814014Y-58089294D01*
X159556034Y-57951401D01*
X159276111Y-57866487D01*
X159057950Y-57845000D01*
X158912050Y-57845000D01*
X158693889Y-57866487D01*
X158413966Y-57951401D01*
X158155986Y-58089294D01*
X157929866Y-58274866D01*
X157744294Y-58500986D01*
X157715000Y-58555791D01*
X157685706Y-58500986D01*
X157500134Y-58274866D01*
X157274014Y-58089294D01*
X157016034Y-57951401D01*
X156736111Y-57866487D01*
X156517950Y-57845000D01*
X156372050Y-57845000D01*
X156153889Y-57866487D01*
X155873966Y-57951401D01*
X155615986Y-58089294D01*
X155389866Y-58274866D01*
X155204294Y-58500986D01*
X155175000Y-58555791D01*
X155145706Y-58500986D01*
X154960134Y-58274866D01*
X154734014Y-58089294D01*
X154476034Y-57951401D01*
X154196111Y-57866487D01*
X153977950Y-57845000D01*
X153832050Y-57845000D01*
X153613889Y-57866487D01*
X153333966Y-57951401D01*
X153075986Y-58089294D01*
X152849866Y-58274866D01*
X152664294Y-58500986D01*
X152629799Y-58565523D01*
X152560178Y-58448645D01*
X152365269Y-58232412D01*
X152131920Y-58058359D01*
X151869099Y-57933175D01*
X151721890Y-57888524D01*
X151492000Y-58009845D01*
X151492000Y-59203000D01*
X151512000Y-59203000D01*
X151512000Y-59457000D01*
X151492000Y-59457000D01*
X151492000Y-59477000D01*
X151238000Y-59477000D01*
X151238000Y-59457000D01*
X151218000Y-59457000D01*
X151218000Y-59203000D01*
X151238000Y-59203000D01*
X151238000Y-58009845D01*
X151008110Y-57888524D01*
X150860901Y-57933175D01*
X150598080Y-58058359D01*
X150364731Y-58232412D01*
X150169822Y-58448645D01*
X150100201Y-58565523D01*
X150065706Y-58500986D01*
X149880134Y-58274866D01*
X149654014Y-58089294D01*
X149396034Y-57951401D01*
X149116111Y-57866487D01*
X148897950Y-57845000D01*
X148752050Y-57845000D01*
X148533889Y-57866487D01*
X148253966Y-57951401D01*
X147995986Y-58089294D01*
X147769866Y-58274866D01*
X147584294Y-58500986D01*
X147555000Y-58555791D01*
X147525706Y-58500986D01*
X147340134Y-58274866D01*
X147114014Y-58089294D01*
X146856034Y-57951401D01*
X146576111Y-57866487D01*
X146357950Y-57845000D01*
X146212050Y-57845000D01*
X145993889Y-57866487D01*
X145713966Y-57951401D01*
X145455986Y-58089294D01*
X145229866Y-58274866D01*
X145044294Y-58500986D01*
X145015000Y-58555791D01*
X144985706Y-58500986D01*
X144800134Y-58274866D01*
X144574014Y-58089294D01*
X144316034Y-57951401D01*
X144036111Y-57866487D01*
X143817950Y-57845000D01*
X143672050Y-57845000D01*
X143453889Y-57866487D01*
X143173966Y-57951401D01*
X142915986Y-58089294D01*
X142689866Y-58274866D01*
X142504294Y-58500986D01*
X142475000Y-58555791D01*
X142445706Y-58500986D01*
X142260134Y-58274866D01*
X142034014Y-58089294D01*
X141776034Y-57951401D01*
X141496111Y-57866487D01*
X141277950Y-57845000D01*
X141132050Y-57845000D01*
X140913889Y-57866487D01*
X140633966Y-57951401D01*
X140375986Y-58089294D01*
X140149866Y-58274866D01*
X139964294Y-58500986D01*
X139935000Y-58555791D01*
X139905706Y-58500986D01*
X139720134Y-58274866D01*
X139494014Y-58089294D01*
X139236034Y-57951401D01*
X138956111Y-57866487D01*
X138737950Y-57845000D01*
X138592050Y-57845000D01*
X138373889Y-57866487D01*
X138093966Y-57951401D01*
X137835986Y-58089294D01*
X137609866Y-58274866D01*
X137424294Y-58500986D01*
X137395000Y-58555791D01*
X137365706Y-58500986D01*
X137180134Y-58274866D01*
X136954014Y-58089294D01*
X136696034Y-57951401D01*
X136416111Y-57866487D01*
X136197950Y-57845000D01*
X136052050Y-57845000D01*
X135833889Y-57866487D01*
X135553966Y-57951401D01*
X135295986Y-58089294D01*
X135069866Y-58274866D01*
X134884294Y-58500986D01*
X134855000Y-58555791D01*
X134825706Y-58500986D01*
X134640134Y-58274866D01*
X134414014Y-58089294D01*
X134156034Y-57951401D01*
X133876111Y-57866487D01*
X133657950Y-57845000D01*
X133512050Y-57845000D01*
X133293889Y-57866487D01*
X133013966Y-57951401D01*
X132755986Y-58089294D01*
X132529866Y-58274866D01*
X132344294Y-58500986D01*
X132309799Y-58565523D01*
X132240178Y-58448645D01*
X132045269Y-58232412D01*
X131811920Y-58058359D01*
X131549099Y-57933175D01*
X131401890Y-57888524D01*
X131172000Y-58009845D01*
X131172000Y-59203000D01*
X131192000Y-59203000D01*
X131192000Y-59457000D01*
X131172000Y-59457000D01*
X131172000Y-59477000D01*
X130918000Y-59477000D01*
X130918000Y-59457000D01*
X130898000Y-59457000D01*
X130898000Y-59203000D01*
X130918000Y-59203000D01*
X130918000Y-58009845D01*
X130688110Y-57888524D01*
X130540901Y-57933175D01*
X130278080Y-58058359D01*
X130044731Y-58232412D01*
X129849822Y-58448645D01*
X129780201Y-58565523D01*
X129745706Y-58500986D01*
X129560134Y-58274866D01*
X129334014Y-58089294D01*
X129076034Y-57951401D01*
X128796111Y-57866487D01*
X128577950Y-57845000D01*
X128432050Y-57845000D01*
X128213889Y-57866487D01*
X127933966Y-57951401D01*
X127675986Y-58089294D01*
X127449866Y-58274866D01*
X127264294Y-58500986D01*
X127235000Y-58555791D01*
X127205706Y-58500986D01*
X127020134Y-58274866D01*
X126794014Y-58089294D01*
X126536034Y-57951401D01*
X126256111Y-57866487D01*
X126037950Y-57845000D01*
X125892050Y-57845000D01*
X125673889Y-57866487D01*
X125393966Y-57951401D01*
X125135986Y-58089294D01*
X124909866Y-58274866D01*
X124724294Y-58500986D01*
X124695000Y-58555791D01*
X124665706Y-58500986D01*
X124480134Y-58274866D01*
X124254014Y-58089294D01*
X123996034Y-57951401D01*
X123716111Y-57866487D01*
X123497950Y-57845000D01*
X123352050Y-57845000D01*
X123133889Y-57866487D01*
X122853966Y-57951401D01*
X122595986Y-58089294D01*
X122369866Y-58274866D01*
X122184294Y-58500986D01*
X122155000Y-58555791D01*
X122125706Y-58500986D01*
X121940134Y-58274866D01*
X121714014Y-58089294D01*
X121456034Y-57951401D01*
X121176111Y-57866487D01*
X120957950Y-57845000D01*
X120812050Y-57845000D01*
X120593889Y-57866487D01*
X120313966Y-57951401D01*
X120055986Y-58089294D01*
X119829866Y-58274866D01*
X119644294Y-58500986D01*
X119615000Y-58555791D01*
X119585706Y-58500986D01*
X119400134Y-58274866D01*
X119174014Y-58089294D01*
X118916034Y-57951401D01*
X118636111Y-57866487D01*
X118417950Y-57845000D01*
X118272050Y-57845000D01*
X118053889Y-57866487D01*
X117773966Y-57951401D01*
X117515986Y-58089294D01*
X117289866Y-58274866D01*
X117104294Y-58500986D01*
X117075000Y-58555791D01*
X117045706Y-58500986D01*
X116860134Y-58274866D01*
X116634014Y-58089294D01*
X116376034Y-57951401D01*
X116096111Y-57866487D01*
X115877950Y-57845000D01*
X115732050Y-57845000D01*
X115513889Y-57866487D01*
X115233966Y-57951401D01*
X114975986Y-58089294D01*
X114749866Y-58274866D01*
X114564294Y-58500986D01*
X114529799Y-58565523D01*
X114460178Y-58448645D01*
X114265269Y-58232412D01*
X114031920Y-58058359D01*
X113769099Y-57933175D01*
X113621890Y-57888524D01*
X113392000Y-58009845D01*
X113392000Y-59203000D01*
X113412000Y-59203000D01*
X113412000Y-59457000D01*
X113392000Y-59457000D01*
X113392000Y-59477000D01*
X113138000Y-59477000D01*
X113138000Y-59457000D01*
X111944186Y-59457000D01*
X111823519Y-59686891D01*
X111920843Y-59961252D01*
X112069822Y-60211355D01*
X112264731Y-60427588D01*
X112493756Y-60598416D01*
X112435986Y-60629294D01*
X112209866Y-60814866D01*
X112024294Y-61040986D01*
X111886401Y-61298966D01*
X111801487Y-61578889D01*
X111772815Y-61870000D01*
X109877228Y-61870000D01*
X110056239Y-61602092D01*
X110207757Y-61236296D01*
X110285000Y-60847968D01*
X110285000Y-60452032D01*
X110207757Y-60063704D01*
X110056239Y-59697908D01*
X109836269Y-59368699D01*
X109556301Y-59088731D01*
X109383261Y-58973109D01*
X111823519Y-58973109D01*
X111944186Y-59203000D01*
X113138000Y-59203000D01*
X113138000Y-58009845D01*
X112908110Y-57888524D01*
X112760901Y-57933175D01*
X112498080Y-58058359D01*
X112264731Y-58232412D01*
X112069822Y-58448645D01*
X111920843Y-58698748D01*
X111823519Y-58973109D01*
X109383261Y-58973109D01*
X109227092Y-58868761D01*
X108861296Y-58717243D01*
X108472968Y-58640000D01*
X108077032Y-58640000D01*
X107688704Y-58717243D01*
X107322908Y-58868761D01*
X106993699Y-59088731D01*
X106713731Y-59368699D01*
X106493761Y-59697908D01*
X106342243Y-60063704D01*
X106265000Y-60452032D01*
X103068502Y-60452032D01*
X103114110Y-60341925D01*
X103200000Y-59910128D01*
X103200000Y-59469872D01*
X103114110Y-59038075D01*
X102945631Y-58631331D01*
X102701038Y-58265271D01*
X102389729Y-57953962D01*
X102023669Y-57709369D01*
X101616925Y-57540890D01*
X101185128Y-57455000D01*
X100744872Y-57455000D01*
X100313075Y-57540890D01*
X99906331Y-57709369D01*
X99540271Y-57953962D01*
X99228962Y-58265271D01*
X98984369Y-58631331D01*
X98815890Y-59038075D01*
X98730000Y-59469872D01*
X96720505Y-59469872D01*
X96713513Y-59398889D01*
X96628599Y-59118966D01*
X96490706Y-58860986D01*
X96305134Y-58634866D01*
X96079014Y-58449294D01*
X95821034Y-58311401D01*
X95541111Y-58226487D01*
X95322950Y-58205000D01*
X95177050Y-58205000D01*
X94958889Y-58226487D01*
X94678966Y-58311401D01*
X94420986Y-58449294D01*
X94194866Y-58634866D01*
X94009294Y-58860986D01*
X93871401Y-59118966D01*
X93786487Y-59398889D01*
X93757815Y-59690000D01*
X92100000Y-59690000D01*
X92100000Y-56540000D01*
X176330143Y-56540000D01*
X176330143Y-58428500D01*
X176330143Y-58428500D01*
G37*
X176330143Y-58428500D02*
X180879038Y-58428500D01*
X180682492Y-58559828D01*
X180479828Y-58762492D01*
X180320596Y-59000799D01*
X180210915Y-59265592D01*
X180155000Y-59546695D01*
X180155000Y-59833305D01*
X180210915Y-60114408D01*
X180320596Y-60379201D01*
X180479828Y-60617508D01*
X180682492Y-60820172D01*
X180891759Y-60960000D01*
X180682492Y-61099828D01*
X180479828Y-61302492D01*
X180320596Y-61540799D01*
X180210915Y-61805592D01*
X180155000Y-62086695D01*
X180155000Y-62373305D01*
X180210915Y-62654408D01*
X180320596Y-62919201D01*
X180479828Y-63157508D01*
X180682492Y-63360172D01*
X180891759Y-63500000D01*
X180682492Y-63639828D01*
X180479828Y-63842492D01*
X180320596Y-64080799D01*
X180210915Y-64345592D01*
X180155000Y-64626695D01*
X180155000Y-64913305D01*
X180210915Y-65194408D01*
X180320596Y-65459201D01*
X180479828Y-65697508D01*
X180682492Y-65900172D01*
X180891759Y-66040000D01*
X180682492Y-66179828D01*
X180479828Y-66382492D01*
X180320596Y-66620799D01*
X180210915Y-66885592D01*
X180155000Y-67166695D01*
X180155000Y-67453305D01*
X180210915Y-67734408D01*
X180320596Y-67999201D01*
X180479828Y-68237508D01*
X180682492Y-68440172D01*
X180891759Y-68580000D01*
X180682492Y-68719828D01*
X180479828Y-68922492D01*
X180320596Y-69160799D01*
X180210915Y-69425592D01*
X180155000Y-69706695D01*
X180155000Y-69993305D01*
X180183682Y-70137500D01*
X174837952Y-70137500D01*
X174837952Y-72872813D01*
X174693296Y-72969469D01*
X174569469Y-73093296D01*
X174472179Y-73238901D01*
X174405164Y-73400688D01*
X174371000Y-73572441D01*
X174371000Y-73747559D01*
X174405164Y-73919312D01*
X174472179Y-74081099D01*
X174569469Y-74226704D01*
X174693296Y-74350531D01*
X174838901Y-74447821D01*
X175000688Y-74514836D01*
X175172441Y-74549000D01*
X175347559Y-74549000D01*
X175519312Y-74514836D01*
X175681099Y-74447821D01*
X175826704Y-74350531D01*
X175950531Y-74226704D01*
X176047821Y-74081099D01*
X176114836Y-73919312D01*
X176149000Y-73747559D01*
X176149000Y-73572441D01*
X176114836Y-73400688D01*
X176047821Y-73238901D01*
X175950531Y-73093296D01*
X175826704Y-72969469D01*
X175808791Y-72957500D01*
X180270186Y-72957500D01*
X180320596Y-73079201D01*
X180479828Y-73317508D01*
X180682492Y-73520172D01*
X180891759Y-73660000D01*
X180682492Y-73799828D01*
X180479828Y-74002492D01*
X180320596Y-74240799D01*
X180210915Y-74505592D01*
X180155000Y-74786695D01*
X180155000Y-75073305D01*
X180210915Y-75354408D01*
X180320596Y-75619201D01*
X180479828Y-75857508D01*
X180682492Y-76060172D01*
X180891759Y-76200000D01*
X180682492Y-76339828D01*
X180479828Y-76542492D01*
X180320596Y-76780799D01*
X180210915Y-77045592D01*
X180155000Y-77326695D01*
X180155000Y-77613305D01*
X180210915Y-77894408D01*
X180320596Y-78159201D01*
X180479828Y-78397508D01*
X180682492Y-78600172D01*
X180891759Y-78740000D01*
X180682492Y-78879828D01*
X180479828Y-79082492D01*
X180320596Y-79320799D01*
X180210915Y-79585592D01*
X180155000Y-79866695D01*
X180155000Y-80153305D01*
X180210915Y-80434408D01*
X180320596Y-80699201D01*
X180479828Y-80937508D01*
X180682492Y-81140172D01*
X180891759Y-81280000D01*
X180682492Y-81419828D01*
X180479828Y-81622492D01*
X180320596Y-81860799D01*
X180210915Y-82125592D01*
X180155000Y-82406695D01*
X180155000Y-82693305D01*
X180210915Y-82974408D01*
X180320596Y-83239201D01*
X180479828Y-83477508D01*
X180682492Y-83680172D01*
X180890286Y-83819016D01*
X180856627Y-83837007D01*
X180782624Y-84083018D01*
X181610000Y-84910395D01*
X182437376Y-84083018D01*
X182363373Y-83837007D01*
X182327951Y-83820194D01*
X182537508Y-83680172D01*
X182740172Y-83477508D01*
X182880000Y-83268241D01*
X183019828Y-83477508D01*
X183222492Y-83680172D01*
X183431759Y-83820000D01*
X183222492Y-83959828D01*
X183019828Y-84162492D01*
X182880984Y-84370286D01*
X182862993Y-84336627D01*
X182616982Y-84262624D01*
X181789605Y-85090000D01*
X182616982Y-85917376D01*
X182862993Y-85843373D01*
X182879806Y-85807951D01*
X183019828Y-86017508D01*
X183222492Y-86220172D01*
X183460799Y-86379404D01*
X183725592Y-86489085D01*
X184006695Y-86545000D01*
X184293305Y-86545000D01*
X184574408Y-86489085D01*
X184839201Y-86379404D01*
X185077508Y-86220172D01*
X185280172Y-86017508D01*
X185439404Y-85779201D01*
X185549085Y-85514408D01*
X185605000Y-85233305D01*
X185605000Y-84946695D01*
X185549085Y-84665592D01*
X185439404Y-84400799D01*
X185280172Y-84162492D01*
X185077508Y-83959828D01*
X184868241Y-83820000D01*
X185077508Y-83680172D01*
X185280172Y-83477508D01*
X185439404Y-83239201D01*
X185549085Y-82974408D01*
X185605000Y-82693305D01*
X185605000Y-82406695D01*
X185549085Y-82125592D01*
X185439404Y-81860799D01*
X185280172Y-81622492D01*
X185077508Y-81419828D01*
X184868241Y-81280000D01*
X185077508Y-81140172D01*
X185280172Y-80937508D01*
X185439404Y-80699201D01*
X185549085Y-80434408D01*
X185605000Y-80153305D01*
X185605000Y-79866695D01*
X185549085Y-79585592D01*
X185439404Y-79320799D01*
X185280172Y-79082492D01*
X185077508Y-78879828D01*
X184868241Y-78740000D01*
X185077508Y-78600172D01*
X185280172Y-78397508D01*
X185439404Y-78159201D01*
X185549085Y-77894408D01*
X185605000Y-77613305D01*
X185605000Y-77326695D01*
X185549085Y-77045592D01*
X185439404Y-76780799D01*
X185280172Y-76542492D01*
X185077508Y-76339828D01*
X184868241Y-76200000D01*
X185077508Y-76060172D01*
X185280172Y-75857508D01*
X185439404Y-75619201D01*
X185549085Y-75354408D01*
X185605000Y-75073305D01*
X185605000Y-74786695D01*
X185549085Y-74505592D01*
X185439404Y-74240799D01*
X185280172Y-74002492D01*
X185077508Y-73799828D01*
X184868241Y-73660000D01*
X185077508Y-73520172D01*
X185280172Y-73317508D01*
X185439404Y-73079201D01*
X185549085Y-72814408D01*
X185605000Y-72533305D01*
X185605000Y-72246695D01*
X185549085Y-71965592D01*
X185439404Y-71700799D01*
X185280172Y-71462492D01*
X185077508Y-71259828D01*
X184868241Y-71120000D01*
X185077508Y-70980172D01*
X185280172Y-70777508D01*
X185439404Y-70539201D01*
X185549085Y-70274408D01*
X185605000Y-69993305D01*
X185605000Y-69706695D01*
X185549085Y-69425592D01*
X185439404Y-69160799D01*
X185280172Y-68922492D01*
X185077508Y-68719828D01*
X184868241Y-68580000D01*
X185077508Y-68440172D01*
X185280172Y-68237508D01*
X185439404Y-67999201D01*
X185549085Y-67734408D01*
X185605000Y-67453305D01*
X185605000Y-67166695D01*
X185549085Y-66885592D01*
X185439404Y-66620799D01*
X185280172Y-66382492D01*
X185077508Y-66179828D01*
X184868241Y-66040000D01*
X185077508Y-65900172D01*
X185280172Y-65697508D01*
X185439404Y-65459201D01*
X185549085Y-65194408D01*
X185605000Y-64913305D01*
X185605000Y-64626695D01*
X185549085Y-64345592D01*
X185439404Y-64080799D01*
X185280172Y-63842492D01*
X185077508Y-63639828D01*
X184868241Y-63500000D01*
X185077508Y-63360172D01*
X185280172Y-63157508D01*
X185439404Y-62919201D01*
X185549085Y-62654408D01*
X185605000Y-62373305D01*
X185605000Y-62086695D01*
X185549085Y-61805592D01*
X185439404Y-61540799D01*
X185280172Y-61302492D01*
X185077508Y-61099828D01*
X184868241Y-60960000D01*
X185077508Y-60820172D01*
X185280172Y-60617508D01*
X185439404Y-60379201D01*
X185549085Y-60114408D01*
X185605000Y-59833305D01*
X185605000Y-59546695D01*
X185549085Y-59265592D01*
X185439404Y-59000799D01*
X185280172Y-58762492D01*
X185077508Y-58559828D01*
X184839201Y-58400596D01*
X184574408Y-58290915D01*
X184293305Y-58235000D01*
X184006695Y-58235000D01*
X183725592Y-58290915D01*
X183460799Y-58400596D01*
X183222492Y-58559828D01*
X183019828Y-58762492D01*
X182880000Y-58971759D01*
X182740172Y-58762492D01*
X182537508Y-58559828D01*
X182299201Y-58400596D01*
X182034408Y-58290915D01*
X181935857Y-58271312D01*
X181935857Y-56540000D01*
X192380001Y-56540000D01*
X192380000Y-88240000D01*
X92100000Y-88240000D01*
X92100000Y-85940000D01*
X93761928Y-85940000D01*
X93774188Y-86064482D01*
X93810498Y-86184180D01*
X93869463Y-86294494D01*
X93948815Y-86391185D01*
X94045506Y-86470537D01*
X94155820Y-86529502D01*
X94275518Y-86565812D01*
X94400000Y-86578072D01*
X94964250Y-86575000D01*
X95123000Y-86416250D01*
X95123000Y-85217000D01*
X95377000Y-85217000D01*
X95377000Y-86416250D01*
X95535750Y-86575000D01*
X96100000Y-86578072D01*
X96224482Y-86565812D01*
X96344180Y-86529502D01*
X96454494Y-86470537D01*
X96551185Y-86391185D01*
X96630537Y-86294494D01*
X96689502Y-86184180D01*
X96725812Y-86064482D01*
X96738072Y-85940000D01*
X96735000Y-85375750D01*
X96576250Y-85217000D01*
X95377000Y-85217000D01*
X95123000Y-85217000D01*
X93923750Y-85217000D01*
X93765000Y-85375750D01*
X93761928Y-85940000D01*
X92100000Y-85940000D01*
X92100000Y-59690000D01*
X93757815Y-59690000D01*
X93786487Y-59981111D01*
X93871401Y-60261034D01*
X94009294Y-60519014D01*
X94194866Y-60745134D01*
X94420986Y-60930706D01*
X94475791Y-60960000D01*
X94420986Y-60989294D01*
X94194866Y-61174866D01*
X94009294Y-61400986D01*
X93871401Y-61658966D01*
X93786487Y-61938889D01*
X93757815Y-62230000D01*
X93786487Y-62521111D01*
X93871401Y-62801034D01*
X94009294Y-63059014D01*
X94194866Y-63285134D01*
X94420986Y-63470706D01*
X94475791Y-63500000D01*
X94420986Y-63529294D01*
X94194866Y-63714866D01*
X94009294Y-63940986D01*
X93871401Y-64198966D01*
X93786487Y-64478889D01*
X93757815Y-64770000D01*
X93786487Y-65061111D01*
X93871401Y-65341034D01*
X94009294Y-65599014D01*
X94194866Y-65825134D01*
X94420986Y-66010706D01*
X94475791Y-66040000D01*
X94420986Y-66069294D01*
X94194866Y-66254866D01*
X94009294Y-66480986D01*
X93871401Y-66738966D01*
X93786487Y-67018889D01*
X93757815Y-67310000D01*
X93786487Y-67601111D01*
X93871401Y-67881034D01*
X94009294Y-68139014D01*
X94194866Y-68365134D01*
X94420986Y-68550706D01*
X94475791Y-68580000D01*
X94420986Y-68609294D01*
X94194866Y-68794866D01*
X94009294Y-69020986D01*
X93871401Y-69278966D01*
X93786487Y-69558889D01*
X93757815Y-69850000D01*
X93786487Y-70141111D01*
X93871401Y-70421034D01*
X94009294Y-70679014D01*
X94194866Y-70905134D01*
X94420986Y-71090706D01*
X94475791Y-71120000D01*
X94420986Y-71149294D01*
X94194866Y-71334866D01*
X94009294Y-71560986D01*
X93871401Y-71818966D01*
X93786487Y-72098889D01*
X93757815Y-72390000D01*
X93786487Y-72681111D01*
X93871401Y-72961034D01*
X94009294Y-73219014D01*
X94194866Y-73445134D01*
X94420986Y-73630706D01*
X94475791Y-73660000D01*
X94420986Y-73689294D01*
X94194866Y-73874866D01*
X94009294Y-74100986D01*
X93871401Y-74358966D01*
X93786487Y-74638889D01*
X93757815Y-74930000D01*
X93786487Y-75221111D01*
X93871401Y-75501034D01*
X94009294Y-75759014D01*
X94194866Y-75985134D01*
X94420986Y-76170706D01*
X94475791Y-76200000D01*
X94420986Y-76229294D01*
X94194866Y-76414866D01*
X94009294Y-76640986D01*
X93871401Y-76898966D01*
X93786487Y-77178889D01*
X93757815Y-77470000D01*
X93786487Y-77761111D01*
X93871401Y-78041034D01*
X94009294Y-78299014D01*
X94194866Y-78525134D01*
X94420986Y-78710706D01*
X94475791Y-78740000D01*
X94420986Y-78769294D01*
X94194866Y-78954866D01*
X94009294Y-79180986D01*
X93871401Y-79438966D01*
X93786487Y-79718889D01*
X93757815Y-80010000D01*
X93786487Y-80301111D01*
X93871401Y-80581034D01*
X94009294Y-80839014D01*
X94194866Y-81065134D01*
X94420986Y-81250706D01*
X94475791Y-81280000D01*
X94420986Y-81309294D01*
X94194866Y-81494866D01*
X94009294Y-81720986D01*
X93871401Y-81978966D01*
X93786487Y-82258889D01*
X93757815Y-82550000D01*
X93786487Y-82841111D01*
X93871401Y-83121034D01*
X94009294Y-83379014D01*
X94194866Y-83605134D01*
X94224687Y-83629607D01*
X94155820Y-83650498D01*
X94045506Y-83709463D01*
X93948815Y-83788815D01*
X93869463Y-83885506D01*
X93810498Y-83995820D01*
X93774188Y-84115518D01*
X93761928Y-84240000D01*
X93765000Y-84804250D01*
X93923750Y-84963000D01*
X95123000Y-84963000D01*
X95123000Y-84943000D01*
X95377000Y-84943000D01*
X95377000Y-84963000D01*
X96576250Y-84963000D01*
X96669378Y-84869872D01*
X98730000Y-84869872D01*
X98730000Y-85310128D01*
X98815890Y-85741925D01*
X98984369Y-86148669D01*
X99228962Y-86514729D01*
X99540271Y-86826038D01*
X99906331Y-87070631D01*
X100313075Y-87239110D01*
X100744872Y-87325000D01*
X101185128Y-87325000D01*
X101616925Y-87239110D01*
X102023669Y-87070631D01*
X102389729Y-86826038D01*
X102701038Y-86514729D01*
X102945631Y-86148669D01*
X103114110Y-85741925D01*
X103200000Y-85310128D01*
X103200000Y-84869872D01*
X103114110Y-84438075D01*
X102945631Y-84031331D01*
X102701038Y-83665271D01*
X102487799Y-83452032D01*
X106265000Y-83452032D01*
X106265000Y-83847968D01*
X106342243Y-84236296D01*
X106493761Y-84602092D01*
X106713731Y-84931301D01*
X106993699Y-85211269D01*
X107322908Y-85431239D01*
X107688704Y-85582757D01*
X108077032Y-85660000D01*
X108472968Y-85660000D01*
X108861296Y-85582757D01*
X109227092Y-85431239D01*
X109556301Y-85211269D01*
X109836269Y-84931301D01*
X110056239Y-84602092D01*
X110207757Y-84236296D01*
X110285000Y-83847968D01*
X110285000Y-83452032D01*
X164265000Y-83452032D01*
X164265000Y-83847968D01*
X164342243Y-84236296D01*
X164493761Y-84602092D01*
X164713731Y-84931301D01*
X164993699Y-85211269D01*
X165322908Y-85431239D01*
X165688704Y-85582757D01*
X166077032Y-85660000D01*
X166472968Y-85660000D01*
X166861296Y-85582757D01*
X167227092Y-85431239D01*
X167556301Y-85211269D01*
X167836269Y-84931301D01*
X167877314Y-84869872D01*
X171755000Y-84869872D01*
X171755000Y-85310128D01*
X171840890Y-85741925D01*
X172009369Y-86148669D01*
X172253962Y-86514729D01*
X172565271Y-86826038D01*
X172931331Y-87070631D01*
X173338075Y-87239110D01*
X173769872Y-87325000D01*
X174210128Y-87325000D01*
X174641925Y-87239110D01*
X175048669Y-87070631D01*
X175414729Y-86826038D01*
X175726038Y-86514729D01*
X175970631Y-86148669D01*
X175992040Y-86096982D01*
X180782624Y-86096982D01*
X180856627Y-86342993D01*
X181115550Y-86465893D01*
X181393474Y-86535917D01*
X181679719Y-86550376D01*
X181963285Y-86508714D01*
X182233275Y-86412532D01*
X182363373Y-86342993D01*
X182437376Y-86096982D01*
X181610000Y-85269605D01*
X180782624Y-86096982D01*
X175992040Y-86096982D01*
X176139110Y-85741925D01*
X176225000Y-85310128D01*
X176225000Y-85159719D01*
X180149624Y-85159719D01*
X180191286Y-85443285D01*
X180287468Y-85713275D01*
X180357007Y-85843373D01*
X180603018Y-85917376D01*
X181430395Y-85090000D01*
X180603018Y-84262624D01*
X180357007Y-84336627D01*
X180234107Y-84595550D01*
X180164083Y-84873474D01*
X180149624Y-85159719D01*
X176225000Y-85159719D01*
X176225000Y-84869872D01*
X176139110Y-84438075D01*
X175970631Y-84031331D01*
X175726038Y-83665271D01*
X175414729Y-83353962D01*
X175048669Y-83109369D01*
X174641925Y-82940890D01*
X174210128Y-82855000D01*
X173769872Y-82855000D01*
X173338075Y-82940890D01*
X172931331Y-83109369D01*
X172565271Y-83353962D01*
X172253962Y-83665271D01*
X172009369Y-84031331D01*
X171840890Y-84438075D01*
X171755000Y-84869872D01*
X167877314Y-84869872D01*
X168056239Y-84602092D01*
X168207757Y-84236296D01*
X168285000Y-83847968D01*
X168285000Y-83452032D01*
X168207757Y-83063704D01*
X168056239Y-82697908D01*
X167836269Y-82368699D01*
X167556301Y-82088731D01*
X167227092Y-81868761D01*
X166861296Y-81717243D01*
X166472968Y-81640000D01*
X166077032Y-81640000D01*
X165688704Y-81717243D01*
X165322908Y-81868761D01*
X164993699Y-82088731D01*
X164713731Y-82368699D01*
X164493761Y-82697908D01*
X164342243Y-83063704D01*
X164265000Y-83452032D01*
X110285000Y-83452032D01*
X110207757Y-83063704D01*
X110056239Y-82697908D01*
X109836269Y-82368699D01*
X109556301Y-82088731D01*
X109227092Y-81868761D01*
X108861296Y-81717243D01*
X108472968Y-81640000D01*
X108077032Y-81640000D01*
X107688704Y-81717243D01*
X107322908Y-81868761D01*
X106993699Y-82088731D01*
X106713731Y-82368699D01*
X106493761Y-82697908D01*
X106342243Y-83063704D01*
X106265000Y-83452032D01*
X102487799Y-83452032D01*
X102389729Y-83353962D01*
X102023669Y-83109369D01*
X101616925Y-82940890D01*
X101185128Y-82855000D01*
X100744872Y-82855000D01*
X100313075Y-82940890D01*
X99906331Y-83109369D01*
X99540271Y-83353962D01*
X99228962Y-83665271D01*
X98984369Y-84031331D01*
X98815890Y-84438075D01*
X98730000Y-84869872D01*
X96669378Y-84869872D01*
X96735000Y-84804250D01*
X96738072Y-84240000D01*
X96725812Y-84115518D01*
X96689502Y-83995820D01*
X96630537Y-83885506D01*
X96551185Y-83788815D01*
X96454494Y-83709463D01*
X96344180Y-83650498D01*
X96275313Y-83629607D01*
X96305134Y-83605134D01*
X96490706Y-83379014D01*
X96628599Y-83121034D01*
X96713513Y-82841111D01*
X96742185Y-82550000D01*
X96713513Y-82258889D01*
X96628599Y-81978966D01*
X96490706Y-81720986D01*
X96305134Y-81494866D01*
X96079014Y-81309294D01*
X96024209Y-81280000D01*
X96079014Y-81250706D01*
X96305134Y-81065134D01*
X96490706Y-80839014D01*
X96628599Y-80581034D01*
X96713513Y-80301111D01*
X96742185Y-80010000D01*
X96713513Y-79718889D01*
X96628599Y-79438966D01*
X96490706Y-79180986D01*
X96305134Y-78954866D01*
X96079014Y-78769294D01*
X96024209Y-78740000D01*
X96079014Y-78710706D01*
X96305134Y-78525134D01*
X96490706Y-78299014D01*
X96628599Y-78041034D01*
X96713513Y-77761111D01*
X96742185Y-77470000D01*
X96713513Y-77178889D01*
X96698210Y-77128441D01*
X177927000Y-77128441D01*
X177927000Y-77303559D01*
X177961164Y-77475312D01*
X178028179Y-77637099D01*
X178125469Y-77782704D01*
X178193765Y-77851000D01*
X178125469Y-77919296D01*
X178028179Y-78064901D01*
X177961164Y-78226688D01*
X177927000Y-78398441D01*
X177927000Y-78573559D01*
X177961164Y-78745312D01*
X178028179Y-78907099D01*
X178125469Y-79052704D01*
X178249296Y-79176531D01*
X178394901Y-79273821D01*
X178556688Y-79340836D01*
X178728441Y-79375000D01*
X178903559Y-79375000D01*
X179075312Y-79340836D01*
X179237099Y-79273821D01*
X179382704Y-79176531D01*
X179506531Y-79052704D01*
X179603821Y-78907099D01*
X179670836Y-78745312D01*
X179705000Y-78573559D01*
X179705000Y-78398441D01*
X179670836Y-78226688D01*
X179603821Y-78064901D01*
X179506531Y-77919296D01*
X179438235Y-77851000D01*
X179506531Y-77782704D01*
X179603821Y-77637099D01*
X179670836Y-77475312D01*
X179705000Y-77303559D01*
X179705000Y-77128441D01*
X179670836Y-76956688D01*
X179603821Y-76794901D01*
X179506531Y-76649296D01*
X179382704Y-76525469D01*
X179237099Y-76428179D01*
X179075312Y-76361164D01*
X178903559Y-76327000D01*
X178728441Y-76327000D01*
X178556688Y-76361164D01*
X178394901Y-76428179D01*
X178249296Y-76525469D01*
X178125469Y-76649296D01*
X178028179Y-76794901D01*
X177961164Y-76956688D01*
X177927000Y-77128441D01*
X96698210Y-77128441D01*
X96628599Y-76898966D01*
X96490706Y-76640986D01*
X96305134Y-76414866D01*
X96079014Y-76229294D01*
X96024209Y-76200000D01*
X96079014Y-76170706D01*
X96305134Y-75985134D01*
X96490706Y-75759014D01*
X96628599Y-75501034D01*
X96713513Y-75221111D01*
X96742185Y-74930000D01*
X96713513Y-74638889D01*
X96628599Y-74358966D01*
X96490706Y-74100986D01*
X96305134Y-73874866D01*
X96246129Y-73826441D01*
X114935000Y-73826441D01*
X114935000Y-74001559D01*
X114969164Y-74173312D01*
X115036179Y-74335099D01*
X115133469Y-74480704D01*
X115257296Y-74604531D01*
X115402901Y-74701821D01*
X115564688Y-74768836D01*
X115736441Y-74803000D01*
X115911559Y-74803000D01*
X116083312Y-74768836D01*
X116245099Y-74701821D01*
X116390704Y-74604531D01*
X116514531Y-74480704D01*
X116611821Y-74335099D01*
X116678836Y-74173312D01*
X116713000Y-74001559D01*
X116713000Y-73826441D01*
X116678836Y-73654688D01*
X116611821Y-73492901D01*
X116514531Y-73347296D01*
X116390704Y-73223469D01*
X116245099Y-73126179D01*
X116083312Y-73059164D01*
X115911559Y-73025000D01*
X115736441Y-73025000D01*
X115564688Y-73059164D01*
X115402901Y-73126179D01*
X115257296Y-73223469D01*
X115133469Y-73347296D01*
X115036179Y-73492901D01*
X114969164Y-73654688D01*
X114935000Y-73826441D01*
X96246129Y-73826441D01*
X96079014Y-73689294D01*
X96024209Y-73660000D01*
X96079014Y-73630706D01*
X96305134Y-73445134D01*
X96490706Y-73219014D01*
X96628599Y-72961034D01*
X96713513Y-72681111D01*
X96717518Y-72640441D01*
X125265000Y-72640441D01*
X125265000Y-72815559D01*
X125299164Y-72987312D01*
X125366179Y-73149099D01*
X125463469Y-73294704D01*
X125587296Y-73418531D01*
X125732901Y-73515821D01*
X125894688Y-73582836D01*
X126066441Y-73617000D01*
X126241559Y-73617000D01*
X126413312Y-73582836D01*
X126575099Y-73515821D01*
X126720704Y-73418531D01*
X126820794Y-73318441D01*
X165989000Y-73318441D01*
X165989000Y-73493559D01*
X166023164Y-73665312D01*
X166090179Y-73827099D01*
X166187469Y-73972704D01*
X166311296Y-74096531D01*
X166456901Y-74193821D01*
X166618688Y-74260836D01*
X166790441Y-74295000D01*
X166965559Y-74295000D01*
X167137312Y-74260836D01*
X167299099Y-74193821D01*
X167444704Y-74096531D01*
X167568531Y-73972704D01*
X167665821Y-73827099D01*
X167732836Y-73665312D01*
X167767000Y-73493559D01*
X167767000Y-73318441D01*
X167732836Y-73146688D01*
X167665821Y-72984901D01*
X167568531Y-72839296D01*
X167444704Y-72715469D01*
X167299099Y-72618179D01*
X167137312Y-72551164D01*
X166965559Y-72517000D01*
X166790441Y-72517000D01*
X166618688Y-72551164D01*
X166456901Y-72618179D01*
X166311296Y-72715469D01*
X166187469Y-72839296D01*
X166090179Y-72984901D01*
X166023164Y-73146688D01*
X165989000Y-73318441D01*
X126820794Y-73318441D01*
X126844531Y-73294704D01*
X126941821Y-73149099D01*
X127008836Y-72987312D01*
X127043000Y-72815559D01*
X127043000Y-72640441D01*
X127008836Y-72468688D01*
X126941821Y-72306901D01*
X126844531Y-72161296D01*
X126720704Y-72037469D01*
X126575099Y-71940179D01*
X126413312Y-71873164D01*
X126241559Y-71839000D01*
X126066441Y-71839000D01*
X125894688Y-71873164D01*
X125732901Y-71940179D01*
X125587296Y-72037469D01*
X125463469Y-72161296D01*
X125366179Y-72306901D01*
X125299164Y-72468688D01*
X125265000Y-72640441D01*
X96717518Y-72640441D01*
X96742185Y-72390000D01*
X96713513Y-72098889D01*
X96628599Y-71818966D01*
X96490706Y-71560986D01*
X96305134Y-71334866D01*
X96079014Y-71149294D01*
X96024209Y-71120000D01*
X96079014Y-71090706D01*
X96305134Y-70905134D01*
X96490706Y-70679014D01*
X96628599Y-70421034D01*
X96713513Y-70141111D01*
X96725791Y-70016441D01*
X108585000Y-70016441D01*
X108585000Y-70191559D01*
X108619164Y-70363312D01*
X108686179Y-70525099D01*
X108783469Y-70670704D01*
X108907296Y-70794531D01*
X109052901Y-70891821D01*
X109214688Y-70958836D01*
X109386441Y-70993000D01*
X109561559Y-70993000D01*
X109733312Y-70958836D01*
X109895099Y-70891821D01*
X110040704Y-70794531D01*
X110056794Y-70778441D01*
X118745000Y-70778441D01*
X118745000Y-70953559D01*
X118779164Y-71125312D01*
X118846179Y-71287099D01*
X118943469Y-71432704D01*
X119067296Y-71556531D01*
X119212901Y-71653821D01*
X119374688Y-71720836D01*
X119546441Y-71755000D01*
X119721559Y-71755000D01*
X119893312Y-71720836D01*
X120055099Y-71653821D01*
X120200704Y-71556531D01*
X120324531Y-71432704D01*
X120421821Y-71287099D01*
X120488836Y-71125312D01*
X120523000Y-70953559D01*
X120523000Y-70778441D01*
X128905000Y-70778441D01*
X128905000Y-70953559D01*
X128939164Y-71125312D01*
X129006179Y-71287099D01*
X129103469Y-71432704D01*
X129227296Y-71556531D01*
X129372901Y-71653821D01*
X129534688Y-71720836D01*
X129706441Y-71755000D01*
X129881559Y-71755000D01*
X130053312Y-71720836D01*
X130215099Y-71653821D01*
X130360704Y-71556531D01*
X130484531Y-71432704D01*
X130581821Y-71287099D01*
X130648836Y-71125312D01*
X130683000Y-70953559D01*
X130683000Y-70803851D01*
X133985000Y-70803851D01*
X133985000Y-70978969D01*
X134019164Y-71150722D01*
X134086179Y-71312509D01*
X134183469Y-71458114D01*
X134307296Y-71581941D01*
X134452901Y-71679231D01*
X134614688Y-71746246D01*
X134786441Y-71780410D01*
X134961559Y-71780410D01*
X135133312Y-71746246D01*
X135295099Y-71679231D01*
X135440704Y-71581941D01*
X135482204Y-71540441D01*
X140589000Y-71540441D01*
X140589000Y-71715559D01*
X140623164Y-71887312D01*
X140690179Y-72049099D01*
X140787469Y-72194704D01*
X140911296Y-72318531D01*
X141056901Y-72415821D01*
X141218688Y-72482836D01*
X141390441Y-72517000D01*
X141565559Y-72517000D01*
X141737312Y-72482836D01*
X141899099Y-72415821D01*
X142044704Y-72318531D01*
X142168531Y-72194704D01*
X142265821Y-72049099D01*
X142332836Y-71887312D01*
X142366458Y-71718281D01*
X145669000Y-71718281D01*
X145669000Y-71893399D01*
X145703164Y-72065152D01*
X145770179Y-72226939D01*
X145867469Y-72372544D01*
X145991296Y-72496371D01*
X146136901Y-72593661D01*
X146298688Y-72660676D01*
X146470441Y-72694840D01*
X146645559Y-72694840D01*
X146817312Y-72660676D01*
X146979099Y-72593661D01*
X147124704Y-72496371D01*
X147248531Y-72372544D01*
X147345821Y-72226939D01*
X147412836Y-72065152D01*
X147416160Y-72048441D01*
X150749000Y-72048441D01*
X150749000Y-72223559D01*
X150783164Y-72395312D01*
X150850179Y-72557099D01*
X150947469Y-72702704D01*
X151071296Y-72826531D01*
X151216901Y-72923821D01*
X151378688Y-72990836D01*
X151550441Y-73025000D01*
X151725559Y-73025000D01*
X151897312Y-72990836D01*
X152059099Y-72923821D01*
X152204704Y-72826531D01*
X152328531Y-72702704D01*
X152425821Y-72557099D01*
X152492836Y-72395312D01*
X152506244Y-72327901D01*
X160655000Y-72327901D01*
X160655000Y-72503019D01*
X160689164Y-72674772D01*
X160756179Y-72836559D01*
X160853469Y-72982164D01*
X160977296Y-73105991D01*
X161122901Y-73203281D01*
X161284688Y-73270296D01*
X161456441Y-73304460D01*
X161631559Y-73304460D01*
X161803312Y-73270296D01*
X161965099Y-73203281D01*
X162110704Y-73105991D01*
X162234531Y-72982164D01*
X162331821Y-72836559D01*
X162398836Y-72674772D01*
X162433000Y-72503019D01*
X162433000Y-72327901D01*
X162398836Y-72156148D01*
X162331821Y-71994361D01*
X162234531Y-71848756D01*
X162110704Y-71724929D01*
X161965099Y-71627639D01*
X161803312Y-71560624D01*
X161631559Y-71526460D01*
X161456441Y-71526460D01*
X161284688Y-71560624D01*
X161122901Y-71627639D01*
X160977296Y-71724929D01*
X160853469Y-71848756D01*
X160756179Y-71994361D01*
X160689164Y-72156148D01*
X160655000Y-72327901D01*
X152506244Y-72327901D01*
X152527000Y-72223559D01*
X152527000Y-72048441D01*
X152492836Y-71876688D01*
X152425821Y-71714901D01*
X152328531Y-71569296D01*
X152204704Y-71445469D01*
X152059099Y-71348179D01*
X151897312Y-71281164D01*
X151725559Y-71247000D01*
X151550441Y-71247000D01*
X151378688Y-71281164D01*
X151216901Y-71348179D01*
X151071296Y-71445469D01*
X150947469Y-71569296D01*
X150850179Y-71714901D01*
X150783164Y-71876688D01*
X150749000Y-72048441D01*
X147416160Y-72048441D01*
X147447000Y-71893399D01*
X147447000Y-71718281D01*
X147412836Y-71546528D01*
X147345821Y-71384741D01*
X147248531Y-71239136D01*
X147124704Y-71115309D01*
X146979099Y-71018019D01*
X146817312Y-70951004D01*
X146645559Y-70916840D01*
X146470441Y-70916840D01*
X146298688Y-70951004D01*
X146136901Y-71018019D01*
X145991296Y-71115309D01*
X145867469Y-71239136D01*
X145770179Y-71384741D01*
X145703164Y-71546528D01*
X145669000Y-71718281D01*
X142366458Y-71718281D01*
X142367000Y-71715559D01*
X142367000Y-71540441D01*
X142332836Y-71368688D01*
X142265821Y-71206901D01*
X142168531Y-71061296D01*
X142044704Y-70937469D01*
X141899099Y-70840179D01*
X141737312Y-70773164D01*
X141565559Y-70739000D01*
X141390441Y-70739000D01*
X141218688Y-70773164D01*
X141056901Y-70840179D01*
X140911296Y-70937469D01*
X140787469Y-71061296D01*
X140690179Y-71206901D01*
X140623164Y-71368688D01*
X140589000Y-71540441D01*
X135482204Y-71540441D01*
X135564531Y-71458114D01*
X135661821Y-71312509D01*
X135728836Y-71150722D01*
X135763000Y-70978969D01*
X135763000Y-70803851D01*
X135728836Y-70632098D01*
X135661821Y-70470311D01*
X135564531Y-70324706D01*
X135440704Y-70200879D01*
X135295099Y-70103589D01*
X135133312Y-70036574D01*
X134961559Y-70002410D01*
X134786441Y-70002410D01*
X134614688Y-70036574D01*
X134452901Y-70103589D01*
X134307296Y-70200879D01*
X134183469Y-70324706D01*
X134086179Y-70470311D01*
X134019164Y-70632098D01*
X133985000Y-70803851D01*
X130683000Y-70803851D01*
X130683000Y-70778441D01*
X130648836Y-70606688D01*
X130581821Y-70444901D01*
X130484531Y-70299296D01*
X130360704Y-70175469D01*
X130215099Y-70078179D01*
X130053312Y-70011164D01*
X129881559Y-69977000D01*
X129706441Y-69977000D01*
X129534688Y-70011164D01*
X129372901Y-70078179D01*
X129227296Y-70175469D01*
X129103469Y-70299296D01*
X129006179Y-70444901D01*
X128939164Y-70606688D01*
X128905000Y-70778441D01*
X120523000Y-70778441D01*
X120488836Y-70606688D01*
X120421821Y-70444901D01*
X120324531Y-70299296D01*
X120200704Y-70175469D01*
X120055099Y-70078179D01*
X119893312Y-70011164D01*
X119721559Y-69977000D01*
X119546441Y-69977000D01*
X119374688Y-70011164D01*
X119212901Y-70078179D01*
X119067296Y-70175469D01*
X118943469Y-70299296D01*
X118846179Y-70444901D01*
X118779164Y-70606688D01*
X118745000Y-70778441D01*
X110056794Y-70778441D01*
X110164531Y-70670704D01*
X110261821Y-70525099D01*
X110328836Y-70363312D01*
X110363000Y-70191559D01*
X110363000Y-70016441D01*
X110328836Y-69844688D01*
X110261821Y-69682901D01*
X110164531Y-69537296D01*
X110040704Y-69413469D01*
X109895099Y-69316179D01*
X109733312Y-69249164D01*
X109561559Y-69215000D01*
X109386441Y-69215000D01*
X109214688Y-69249164D01*
X109052901Y-69316179D01*
X108907296Y-69413469D01*
X108783469Y-69537296D01*
X108686179Y-69682901D01*
X108619164Y-69844688D01*
X108585000Y-70016441D01*
X96725791Y-70016441D01*
X96742185Y-69850000D01*
X96713513Y-69558889D01*
X96628599Y-69278966D01*
X96490706Y-69020986D01*
X96305134Y-68794866D01*
X96246129Y-68746441D01*
X112649000Y-68746441D01*
X112649000Y-68921559D01*
X112683164Y-69093312D01*
X112750179Y-69255099D01*
X112847469Y-69400704D01*
X112971296Y-69524531D01*
X113116901Y-69621821D01*
X113278688Y-69688836D01*
X113450441Y-69723000D01*
X113625559Y-69723000D01*
X113797312Y-69688836D01*
X113959099Y-69621821D01*
X114104704Y-69524531D01*
X114228531Y-69400704D01*
X114325821Y-69255099D01*
X114392836Y-69093312D01*
X114427000Y-68921559D01*
X114427000Y-68746441D01*
X117475000Y-68746441D01*
X117475000Y-68921559D01*
X117509164Y-69093312D01*
X117576179Y-69255099D01*
X117673469Y-69400704D01*
X117797296Y-69524531D01*
X117942901Y-69621821D01*
X118104688Y-69688836D01*
X118276441Y-69723000D01*
X118451559Y-69723000D01*
X118623312Y-69688836D01*
X118785099Y-69621821D01*
X118930704Y-69524531D01*
X119054531Y-69400704D01*
X119151821Y-69255099D01*
X119218836Y-69093312D01*
X119253000Y-68921559D01*
X119253000Y-68746441D01*
X122555000Y-68746441D01*
X122555000Y-68921559D01*
X122589164Y-69093312D01*
X122656179Y-69255099D01*
X122753469Y-69400704D01*
X122877296Y-69524531D01*
X123022901Y-69621821D01*
X123184688Y-69688836D01*
X123356441Y-69723000D01*
X123531559Y-69723000D01*
X123703312Y-69688836D01*
X123865099Y-69621821D01*
X124010704Y-69524531D01*
X124134531Y-69400704D01*
X124231821Y-69255099D01*
X124298836Y-69093312D01*
X124317309Y-69000441D01*
X127635000Y-69000441D01*
X127635000Y-69175559D01*
X127669164Y-69347312D01*
X127736179Y-69509099D01*
X127833469Y-69654704D01*
X127957296Y-69778531D01*
X128102901Y-69875821D01*
X128264688Y-69942836D01*
X128436441Y-69977000D01*
X128611559Y-69977000D01*
X128783312Y-69942836D01*
X128945099Y-69875821D01*
X129090704Y-69778531D01*
X129214531Y-69654704D01*
X129311821Y-69509099D01*
X129378836Y-69347312D01*
X129413000Y-69175559D01*
X129413000Y-69000441D01*
X129378836Y-68828688D01*
X129344768Y-68746441D01*
X132715000Y-68746441D01*
X132715000Y-68921559D01*
X132749164Y-69093312D01*
X132816179Y-69255099D01*
X132913469Y-69400704D01*
X133037296Y-69524531D01*
X133182901Y-69621821D01*
X133344688Y-69688836D01*
X133516441Y-69723000D01*
X133691559Y-69723000D01*
X133863312Y-69688836D01*
X134025099Y-69621821D01*
X134170704Y-69524531D01*
X134294531Y-69400704D01*
X134391821Y-69255099D01*
X134458836Y-69093312D01*
X134477309Y-69000441D01*
X137541000Y-69000441D01*
X137541000Y-69175559D01*
X137575164Y-69347312D01*
X137642179Y-69509099D01*
X137739469Y-69654704D01*
X137863296Y-69778531D01*
X138008901Y-69875821D01*
X138170688Y-69942836D01*
X138342441Y-69977000D01*
X138517559Y-69977000D01*
X138689312Y-69942836D01*
X138851099Y-69875821D01*
X138996704Y-69778531D01*
X139120531Y-69654704D01*
X139217821Y-69509099D01*
X139284836Y-69347312D01*
X139319000Y-69175559D01*
X139319000Y-69000441D01*
X139284836Y-68828688D01*
X139250768Y-68746441D01*
X142875000Y-68746441D01*
X142875000Y-68921559D01*
X142909164Y-69093312D01*
X142976179Y-69255099D01*
X143073469Y-69400704D01*
X143197296Y-69524531D01*
X143342901Y-69621821D01*
X143504688Y-69688836D01*
X143676441Y-69723000D01*
X143851559Y-69723000D01*
X144023312Y-69688836D01*
X144185099Y-69621821D01*
X144330704Y-69524531D01*
X144454531Y-69400704D01*
X144551821Y-69255099D01*
X144618836Y-69093312D01*
X144653000Y-68921559D01*
X144653000Y-68746441D01*
X147955000Y-68746441D01*
X147955000Y-68921559D01*
X147989164Y-69093312D01*
X148056179Y-69255099D01*
X148153469Y-69400704D01*
X148277296Y-69524531D01*
X148422901Y-69621821D01*
X148584688Y-69688836D01*
X148756441Y-69723000D01*
X148931559Y-69723000D01*
X149103312Y-69688836D01*
X149265099Y-69621821D01*
X149410704Y-69524531D01*
X149534531Y-69400704D01*
X149631821Y-69255099D01*
X149698836Y-69093312D01*
X149733000Y-68921559D01*
X149733000Y-68746441D01*
X153035000Y-68746441D01*
X153035000Y-68921559D01*
X153069164Y-69093312D01*
X153136179Y-69255099D01*
X153233469Y-69400704D01*
X153357296Y-69524531D01*
X153502901Y-69621821D01*
X153664688Y-69688836D01*
X153836441Y-69723000D01*
X154011559Y-69723000D01*
X154183312Y-69688836D01*
X154345099Y-69621821D01*
X154490704Y-69524531D01*
X154614531Y-69400704D01*
X154711821Y-69255099D01*
X154778836Y-69093312D01*
X154813000Y-68921559D01*
X154813000Y-68746441D01*
X155575000Y-68746441D01*
X155575000Y-68921559D01*
X155609164Y-69093312D01*
X155676179Y-69255099D01*
X155773469Y-69400704D01*
X155897296Y-69524531D01*
X156042901Y-69621821D01*
X156204688Y-69688836D01*
X156376441Y-69723000D01*
X156551559Y-69723000D01*
X156723312Y-69688836D01*
X156885099Y-69621821D01*
X157030704Y-69524531D01*
X157154531Y-69400704D01*
X157251821Y-69255099D01*
X157318836Y-69093312D01*
X157353000Y-68921559D01*
X157353000Y-68746441D01*
X158115000Y-68746441D01*
X158115000Y-68921559D01*
X158149164Y-69093312D01*
X158216179Y-69255099D01*
X158313469Y-69400704D01*
X158437296Y-69524531D01*
X158582901Y-69621821D01*
X158744688Y-69688836D01*
X158916441Y-69723000D01*
X159091559Y-69723000D01*
X159263312Y-69688836D01*
X159425099Y-69621821D01*
X159570704Y-69524531D01*
X159694531Y-69400704D01*
X159791821Y-69255099D01*
X159858836Y-69093312D01*
X159893000Y-68921559D01*
X159893000Y-68746441D01*
X163195000Y-68746441D01*
X163195000Y-68921559D01*
X163229164Y-69093312D01*
X163296179Y-69255099D01*
X163393469Y-69400704D01*
X163517296Y-69524531D01*
X163662901Y-69621821D01*
X163824688Y-69688836D01*
X163996441Y-69723000D01*
X164171559Y-69723000D01*
X164343312Y-69688836D01*
X164505099Y-69621821D01*
X164650704Y-69524531D01*
X164774531Y-69400704D01*
X164871821Y-69255099D01*
X164938836Y-69093312D01*
X164973000Y-68921559D01*
X164973000Y-68746441D01*
X168275000Y-68746441D01*
X168275000Y-68921559D01*
X168309164Y-69093312D01*
X168376179Y-69255099D01*
X168473469Y-69400704D01*
X168597296Y-69524531D01*
X168742901Y-69621821D01*
X168904688Y-69688836D01*
X169076441Y-69723000D01*
X169251559Y-69723000D01*
X169423312Y-69688836D01*
X169585099Y-69621821D01*
X169730704Y-69524531D01*
X169854531Y-69400704D01*
X169951821Y-69255099D01*
X170018836Y-69093312D01*
X170053000Y-68921559D01*
X170053000Y-68746441D01*
X170018836Y-68574688D01*
X169951821Y-68412901D01*
X169854531Y-68267296D01*
X169730704Y-68143469D01*
X169585099Y-68046179D01*
X169423312Y-67979164D01*
X169251559Y-67945000D01*
X169076441Y-67945000D01*
X168904688Y-67979164D01*
X168742901Y-68046179D01*
X168597296Y-68143469D01*
X168473469Y-68267296D01*
X168376179Y-68412901D01*
X168309164Y-68574688D01*
X168275000Y-68746441D01*
X164973000Y-68746441D01*
X164938836Y-68574688D01*
X164871821Y-68412901D01*
X164774531Y-68267296D01*
X164650704Y-68143469D01*
X164505099Y-68046179D01*
X164343312Y-67979164D01*
X164171559Y-67945000D01*
X163996441Y-67945000D01*
X163824688Y-67979164D01*
X163662901Y-68046179D01*
X163517296Y-68143469D01*
X163393469Y-68267296D01*
X163296179Y-68412901D01*
X163229164Y-68574688D01*
X163195000Y-68746441D01*
X159893000Y-68746441D01*
X159858836Y-68574688D01*
X159791821Y-68412901D01*
X159694531Y-68267296D01*
X159570704Y-68143469D01*
X159425099Y-68046179D01*
X159263312Y-67979164D01*
X159091559Y-67945000D01*
X158916441Y-67945000D01*
X158744688Y-67979164D01*
X158582901Y-68046179D01*
X158437296Y-68143469D01*
X158313469Y-68267296D01*
X158216179Y-68412901D01*
X158149164Y-68574688D01*
X158115000Y-68746441D01*
X157353000Y-68746441D01*
X157318836Y-68574688D01*
X157251821Y-68412901D01*
X157154531Y-68267296D01*
X157030704Y-68143469D01*
X156885099Y-68046179D01*
X156723312Y-67979164D01*
X156551559Y-67945000D01*
X156376441Y-67945000D01*
X156204688Y-67979164D01*
X156042901Y-68046179D01*
X155897296Y-68143469D01*
X155773469Y-68267296D01*
X155676179Y-68412901D01*
X155609164Y-68574688D01*
X155575000Y-68746441D01*
X154813000Y-68746441D01*
X154778836Y-68574688D01*
X154711821Y-68412901D01*
X154614531Y-68267296D01*
X154490704Y-68143469D01*
X154345099Y-68046179D01*
X154183312Y-67979164D01*
X154011559Y-67945000D01*
X153836441Y-67945000D01*
X153664688Y-67979164D01*
X153502901Y-68046179D01*
X153357296Y-68143469D01*
X153233469Y-68267296D01*
X153136179Y-68412901D01*
X153069164Y-68574688D01*
X153035000Y-68746441D01*
X149733000Y-68746441D01*
X149698836Y-68574688D01*
X149631821Y-68412901D01*
X149534531Y-68267296D01*
X149410704Y-68143469D01*
X149265099Y-68046179D01*
X149103312Y-67979164D01*
X148931559Y-67945000D01*
X148756441Y-67945000D01*
X148584688Y-67979164D01*
X148422901Y-68046179D01*
X148277296Y-68143469D01*
X148153469Y-68267296D01*
X148056179Y-68412901D01*
X147989164Y-68574688D01*
X147955000Y-68746441D01*
X144653000Y-68746441D01*
X144618836Y-68574688D01*
X144551821Y-68412901D01*
X144454531Y-68267296D01*
X144330704Y-68143469D01*
X144185099Y-68046179D01*
X144023312Y-67979164D01*
X143851559Y-67945000D01*
X143676441Y-67945000D01*
X143504688Y-67979164D01*
X143342901Y-68046179D01*
X143197296Y-68143469D01*
X143073469Y-68267296D01*
X142976179Y-68412901D01*
X142909164Y-68574688D01*
X142875000Y-68746441D01*
X139250768Y-68746441D01*
X139217821Y-68666901D01*
X139120531Y-68521296D01*
X138996704Y-68397469D01*
X138851099Y-68300179D01*
X138689312Y-68233164D01*
X138517559Y-68199000D01*
X138342441Y-68199000D01*
X138170688Y-68233164D01*
X138008901Y-68300179D01*
X137863296Y-68397469D01*
X137739469Y-68521296D01*
X137642179Y-68666901D01*
X137575164Y-68828688D01*
X137541000Y-69000441D01*
X134477309Y-69000441D01*
X134493000Y-68921559D01*
X134493000Y-68746441D01*
X134458836Y-68574688D01*
X134391821Y-68412901D01*
X134294531Y-68267296D01*
X134170704Y-68143469D01*
X134025099Y-68046179D01*
X133863312Y-67979164D01*
X133691559Y-67945000D01*
X133516441Y-67945000D01*
X133344688Y-67979164D01*
X133182901Y-68046179D01*
X133037296Y-68143469D01*
X132913469Y-68267296D01*
X132816179Y-68412901D01*
X132749164Y-68574688D01*
X132715000Y-68746441D01*
X129344768Y-68746441D01*
X129311821Y-68666901D01*
X129214531Y-68521296D01*
X129090704Y-68397469D01*
X128945099Y-68300179D01*
X128783312Y-68233164D01*
X128611559Y-68199000D01*
X128436441Y-68199000D01*
X128264688Y-68233164D01*
X128102901Y-68300179D01*
X127957296Y-68397469D01*
X127833469Y-68521296D01*
X127736179Y-68666901D01*
X127669164Y-68828688D01*
X127635000Y-69000441D01*
X124317309Y-69000441D01*
X124333000Y-68921559D01*
X124333000Y-68746441D01*
X124298836Y-68574688D01*
X124231821Y-68412901D01*
X124134531Y-68267296D01*
X124010704Y-68143469D01*
X123865099Y-68046179D01*
X123703312Y-67979164D01*
X123531559Y-67945000D01*
X123356441Y-67945000D01*
X123184688Y-67979164D01*
X123022901Y-68046179D01*
X122877296Y-68143469D01*
X122753469Y-68267296D01*
X122656179Y-68412901D01*
X122589164Y-68574688D01*
X122555000Y-68746441D01*
X119253000Y-68746441D01*
X119218836Y-68574688D01*
X119151821Y-68412901D01*
X119054531Y-68267296D01*
X118930704Y-68143469D01*
X118785099Y-68046179D01*
X118623312Y-67979164D01*
X118451559Y-67945000D01*
X118276441Y-67945000D01*
X118104688Y-67979164D01*
X117942901Y-68046179D01*
X117797296Y-68143469D01*
X117673469Y-68267296D01*
X117576179Y-68412901D01*
X117509164Y-68574688D01*
X117475000Y-68746441D01*
X114427000Y-68746441D01*
X114392836Y-68574688D01*
X114325821Y-68412901D01*
X114228531Y-68267296D01*
X114104704Y-68143469D01*
X113959099Y-68046179D01*
X113797312Y-67979164D01*
X113625559Y-67945000D01*
X113450441Y-67945000D01*
X113278688Y-67979164D01*
X113116901Y-68046179D01*
X112971296Y-68143469D01*
X112847469Y-68267296D01*
X112750179Y-68412901D01*
X112683164Y-68574688D01*
X112649000Y-68746441D01*
X96246129Y-68746441D01*
X96079014Y-68609294D01*
X96024209Y-68580000D01*
X96079014Y-68550706D01*
X96305134Y-68365134D01*
X96490706Y-68139014D01*
X96628599Y-67881034D01*
X96713513Y-67601111D01*
X96742185Y-67310000D01*
X96733562Y-67222441D01*
X111125000Y-67222441D01*
X111125000Y-67397559D01*
X111159164Y-67569312D01*
X111226179Y-67731099D01*
X111323469Y-67876704D01*
X111447296Y-68000531D01*
X111592901Y-68097821D01*
X111754688Y-68164836D01*
X111926441Y-68199000D01*
X112101559Y-68199000D01*
X112273312Y-68164836D01*
X112435099Y-68097821D01*
X112580704Y-68000531D01*
X112704531Y-67876704D01*
X112801821Y-67731099D01*
X112868836Y-67569312D01*
X112903000Y-67397559D01*
X112903000Y-67222441D01*
X116205000Y-67222441D01*
X116205000Y-67397559D01*
X116239164Y-67569312D01*
X116306179Y-67731099D01*
X116403469Y-67876704D01*
X116527296Y-68000531D01*
X116672901Y-68097821D01*
X116834688Y-68164836D01*
X117006441Y-68199000D01*
X117181559Y-68199000D01*
X117353312Y-68164836D01*
X117515099Y-68097821D01*
X117660704Y-68000531D01*
X117784531Y-67876704D01*
X117881821Y-67731099D01*
X117948836Y-67569312D01*
X117983000Y-67397559D01*
X117983000Y-67222441D01*
X121285000Y-67222441D01*
X121285000Y-67397559D01*
X121319164Y-67569312D01*
X121386179Y-67731099D01*
X121483469Y-67876704D01*
X121607296Y-68000531D01*
X121752901Y-68097821D01*
X121914688Y-68164836D01*
X122086441Y-68199000D01*
X122261559Y-68199000D01*
X122433312Y-68164836D01*
X122595099Y-68097821D01*
X122740704Y-68000531D01*
X122864531Y-67876704D01*
X122961821Y-67731099D01*
X123028836Y-67569312D01*
X123063000Y-67397559D01*
X123063000Y-67222441D01*
X123028836Y-67050688D01*
X122994768Y-66968441D01*
X126365000Y-66968441D01*
X126365000Y-67143559D01*
X126399164Y-67315312D01*
X126466179Y-67477099D01*
X126563469Y-67622704D01*
X126687296Y-67746531D01*
X126832901Y-67843821D01*
X126994688Y-67910836D01*
X127166441Y-67945000D01*
X127341559Y-67945000D01*
X127513312Y-67910836D01*
X127675099Y-67843821D01*
X127820704Y-67746531D01*
X127944531Y-67622704D01*
X128041821Y-67477099D01*
X128108836Y-67315312D01*
X128127309Y-67222441D01*
X131445000Y-67222441D01*
X131445000Y-67397559D01*
X131479164Y-67569312D01*
X131546179Y-67731099D01*
X131643469Y-67876704D01*
X131767296Y-68000531D01*
X131912901Y-68097821D01*
X132074688Y-68164836D01*
X132246441Y-68199000D01*
X132421559Y-68199000D01*
X132593312Y-68164836D01*
X132755099Y-68097821D01*
X132900704Y-68000531D01*
X133024531Y-67876704D01*
X133121821Y-67731099D01*
X133188836Y-67569312D01*
X133223000Y-67397559D01*
X133223000Y-67222441D01*
X136525000Y-67222441D01*
X136525000Y-67397559D01*
X136559164Y-67569312D01*
X136626179Y-67731099D01*
X136723469Y-67876704D01*
X136847296Y-68000531D01*
X136992901Y-68097821D01*
X137154688Y-68164836D01*
X137326441Y-68199000D01*
X137501559Y-68199000D01*
X137673312Y-68164836D01*
X137835099Y-68097821D01*
X137980704Y-68000531D01*
X138104531Y-67876704D01*
X138201821Y-67731099D01*
X138268836Y-67569312D01*
X138303000Y-67397559D01*
X138303000Y-67222441D01*
X141605000Y-67222441D01*
X141605000Y-67397559D01*
X141639164Y-67569312D01*
X141706179Y-67731099D01*
X141803469Y-67876704D01*
X141927296Y-68000531D01*
X142072901Y-68097821D01*
X142234688Y-68164836D01*
X142406441Y-68199000D01*
X142581559Y-68199000D01*
X142753312Y-68164836D01*
X142915099Y-68097821D01*
X143060704Y-68000531D01*
X143184531Y-67876704D01*
X143281821Y-67731099D01*
X143348836Y-67569312D01*
X143383000Y-67397559D01*
X143383000Y-67222441D01*
X146685000Y-67222441D01*
X146685000Y-67397559D01*
X146719164Y-67569312D01*
X146786179Y-67731099D01*
X146883469Y-67876704D01*
X147007296Y-68000531D01*
X147152901Y-68097821D01*
X147314688Y-68164836D01*
X147486441Y-68199000D01*
X147661559Y-68199000D01*
X147833312Y-68164836D01*
X147995099Y-68097821D01*
X148140704Y-68000531D01*
X148264531Y-67876704D01*
X148361821Y-67731099D01*
X148428836Y-67569312D01*
X148463000Y-67397559D01*
X148463000Y-67222441D01*
X151765000Y-67222441D01*
X151765000Y-67397559D01*
X151799164Y-67569312D01*
X151866179Y-67731099D01*
X151963469Y-67876704D01*
X152087296Y-68000531D01*
X152232901Y-68097821D01*
X152394688Y-68164836D01*
X152566441Y-68199000D01*
X152741559Y-68199000D01*
X152913312Y-68164836D01*
X153075099Y-68097821D01*
X153220704Y-68000531D01*
X153344531Y-67876704D01*
X153441821Y-67731099D01*
X153508836Y-67569312D01*
X153543000Y-67397559D01*
X153543000Y-67222441D01*
X161925000Y-67222441D01*
X161925000Y-67397559D01*
X161959164Y-67569312D01*
X162026179Y-67731099D01*
X162123469Y-67876704D01*
X162247296Y-68000531D01*
X162392901Y-68097821D01*
X162554688Y-68164836D01*
X162726441Y-68199000D01*
X162901559Y-68199000D01*
X163073312Y-68164836D01*
X163235099Y-68097821D01*
X163380704Y-68000531D01*
X163504531Y-67876704D01*
X163601821Y-67731099D01*
X163668836Y-67569312D01*
X163703000Y-67397559D01*
X163703000Y-67222441D01*
X167005000Y-67222441D01*
X167005000Y-67397559D01*
X167039164Y-67569312D01*
X167106179Y-67731099D01*
X167203469Y-67876704D01*
X167327296Y-68000531D01*
X167472901Y-68097821D01*
X167634688Y-68164836D01*
X167806441Y-68199000D01*
X167981559Y-68199000D01*
X168153312Y-68164836D01*
X168315099Y-68097821D01*
X168460704Y-68000531D01*
X168584531Y-67876704D01*
X168681821Y-67731099D01*
X168748836Y-67569312D01*
X168783000Y-67397559D01*
X168783000Y-67222441D01*
X168748836Y-67050688D01*
X168681821Y-66888901D01*
X168584531Y-66743296D01*
X168460704Y-66619469D01*
X168315099Y-66522179D01*
X168153312Y-66455164D01*
X167981559Y-66421000D01*
X167806441Y-66421000D01*
X167634688Y-66455164D01*
X167472901Y-66522179D01*
X167327296Y-66619469D01*
X167203469Y-66743296D01*
X167106179Y-66888901D01*
X167039164Y-67050688D01*
X167005000Y-67222441D01*
X163703000Y-67222441D01*
X163668836Y-67050688D01*
X163601821Y-66888901D01*
X163504531Y-66743296D01*
X163380704Y-66619469D01*
X163235099Y-66522179D01*
X163073312Y-66455164D01*
X162901559Y-66421000D01*
X162726441Y-66421000D01*
X162554688Y-66455164D01*
X162392901Y-66522179D01*
X162247296Y-66619469D01*
X162123469Y-66743296D01*
X162026179Y-66888901D01*
X161959164Y-67050688D01*
X161925000Y-67222441D01*
X153543000Y-67222441D01*
X153508836Y-67050688D01*
X153441821Y-66888901D01*
X153344531Y-66743296D01*
X153220704Y-66619469D01*
X153075099Y-66522179D01*
X152913312Y-66455164D01*
X152741559Y-66421000D01*
X152566441Y-66421000D01*
X152394688Y-66455164D01*
X152232901Y-66522179D01*
X152087296Y-66619469D01*
X151963469Y-66743296D01*
X151866179Y-66888901D01*
X151799164Y-67050688D01*
X151765000Y-67222441D01*
X148463000Y-67222441D01*
X148428836Y-67050688D01*
X148361821Y-66888901D01*
X148264531Y-66743296D01*
X148140704Y-66619469D01*
X147995099Y-66522179D01*
X147833312Y-66455164D01*
X147661559Y-66421000D01*
X147486441Y-66421000D01*
X147314688Y-66455164D01*
X147152901Y-66522179D01*
X147007296Y-66619469D01*
X146883469Y-66743296D01*
X146786179Y-66888901D01*
X146719164Y-67050688D01*
X146685000Y-67222441D01*
X143383000Y-67222441D01*
X143348836Y-67050688D01*
X143281821Y-66888901D01*
X143184531Y-66743296D01*
X143060704Y-66619469D01*
X142915099Y-66522179D01*
X142753312Y-66455164D01*
X142581559Y-66421000D01*
X142406441Y-66421000D01*
X142234688Y-66455164D01*
X142072901Y-66522179D01*
X141927296Y-66619469D01*
X141803469Y-66743296D01*
X141706179Y-66888901D01*
X141639164Y-67050688D01*
X141605000Y-67222441D01*
X138303000Y-67222441D01*
X138268836Y-67050688D01*
X138201821Y-66888901D01*
X138104531Y-66743296D01*
X137980704Y-66619469D01*
X137835099Y-66522179D01*
X137673312Y-66455164D01*
X137501559Y-66421000D01*
X137326441Y-66421000D01*
X137154688Y-66455164D01*
X136992901Y-66522179D01*
X136847296Y-66619469D01*
X136723469Y-66743296D01*
X136626179Y-66888901D01*
X136559164Y-67050688D01*
X136525000Y-67222441D01*
X133223000Y-67222441D01*
X133188836Y-67050688D01*
X133121821Y-66888901D01*
X133024531Y-66743296D01*
X132900704Y-66619469D01*
X132755099Y-66522179D01*
X132593312Y-66455164D01*
X132421559Y-66421000D01*
X132246441Y-66421000D01*
X132074688Y-66455164D01*
X131912901Y-66522179D01*
X131767296Y-66619469D01*
X131643469Y-66743296D01*
X131546179Y-66888901D01*
X131479164Y-67050688D01*
X131445000Y-67222441D01*
X128127309Y-67222441D01*
X128143000Y-67143559D01*
X128143000Y-66968441D01*
X128108836Y-66796688D01*
X128041821Y-66634901D01*
X127944531Y-66489296D01*
X127820704Y-66365469D01*
X127675099Y-66268179D01*
X127513312Y-66201164D01*
X127341559Y-66167000D01*
X127166441Y-66167000D01*
X126994688Y-66201164D01*
X126832901Y-66268179D01*
X126687296Y-66365469D01*
X126563469Y-66489296D01*
X126466179Y-66634901D01*
X126399164Y-66796688D01*
X126365000Y-66968441D01*
X122994768Y-66968441D01*
X122961821Y-66888901D01*
X122864531Y-66743296D01*
X122740704Y-66619469D01*
X122595099Y-66522179D01*
X122433312Y-66455164D01*
X122261559Y-66421000D01*
X122086441Y-66421000D01*
X121914688Y-66455164D01*
X121752901Y-66522179D01*
X121607296Y-66619469D01*
X121483469Y-66743296D01*
X121386179Y-66888901D01*
X121319164Y-67050688D01*
X121285000Y-67222441D01*
X117983000Y-67222441D01*
X117948836Y-67050688D01*
X117881821Y-66888901D01*
X117784531Y-66743296D01*
X117660704Y-66619469D01*
X117515099Y-66522179D01*
X117353312Y-66455164D01*
X117181559Y-66421000D01*
X117006441Y-66421000D01*
X116834688Y-66455164D01*
X116672901Y-66522179D01*
X116527296Y-66619469D01*
X116403469Y-66743296D01*
X116306179Y-66888901D01*
X116239164Y-67050688D01*
X116205000Y-67222441D01*
X112903000Y-67222441D01*
X112868836Y-67050688D01*
X112801821Y-66888901D01*
X112704531Y-66743296D01*
X112580704Y-66619469D01*
X112435099Y-66522179D01*
X112273312Y-66455164D01*
X112101559Y-66421000D01*
X111926441Y-66421000D01*
X111754688Y-66455164D01*
X111592901Y-66522179D01*
X111447296Y-66619469D01*
X111323469Y-66743296D01*
X111226179Y-66888901D01*
X111159164Y-67050688D01*
X111125000Y-67222441D01*
X96733562Y-67222441D01*
X96713513Y-67018889D01*
X96628599Y-66738966D01*
X96490706Y-66480986D01*
X96305134Y-66254866D01*
X96079014Y-66069294D01*
X96024209Y-66040000D01*
X96079014Y-66010706D01*
X96150010Y-65952441D01*
X154305000Y-65952441D01*
X154305000Y-66127559D01*
X154339164Y-66299312D01*
X154406179Y-66461099D01*
X154503469Y-66606704D01*
X154627296Y-66730531D01*
X154772901Y-66827821D01*
X154934688Y-66894836D01*
X155106441Y-66929000D01*
X155281559Y-66929000D01*
X155453312Y-66894836D01*
X155615099Y-66827821D01*
X155760704Y-66730531D01*
X155884531Y-66606704D01*
X155981821Y-66461099D01*
X156048836Y-66299312D01*
X156083000Y-66127559D01*
X156083000Y-65952441D01*
X156048836Y-65780688D01*
X155981821Y-65618901D01*
X155884531Y-65473296D01*
X155760704Y-65349469D01*
X155615099Y-65252179D01*
X155453312Y-65185164D01*
X155281559Y-65151000D01*
X155106441Y-65151000D01*
X154934688Y-65185164D01*
X154772901Y-65252179D01*
X154627296Y-65349469D01*
X154503469Y-65473296D01*
X154406179Y-65618901D01*
X154339164Y-65780688D01*
X154305000Y-65952441D01*
X96150010Y-65952441D01*
X96305134Y-65825134D01*
X96490706Y-65599014D01*
X96628599Y-65341034D01*
X96713513Y-65061111D01*
X96742185Y-64770000D01*
X96713513Y-64478889D01*
X96628599Y-64198966D01*
X96490706Y-63940986D01*
X96305134Y-63714866D01*
X96079014Y-63529294D01*
X96024209Y-63500000D01*
X96079014Y-63470706D01*
X96305134Y-63285134D01*
X96490706Y-63059014D01*
X96628599Y-62801034D01*
X96713513Y-62521111D01*
X96742185Y-62230000D01*
X96713513Y-61938889D01*
X96628599Y-61658966D01*
X96490706Y-61400986D01*
X96305134Y-61174866D01*
X96079014Y-60989294D01*
X96024209Y-60960000D01*
X96079014Y-60930706D01*
X96305134Y-60745134D01*
X96490706Y-60519014D01*
X96628599Y-60261034D01*
X96713513Y-59981111D01*
X96742185Y-59690000D01*
X96720505Y-59469872D01*
X98730000Y-59469872D01*
X98730000Y-59910128D01*
X98815890Y-60341925D01*
X98984369Y-60748669D01*
X99228962Y-61114729D01*
X99540271Y-61426038D01*
X99906331Y-61670631D01*
X100313075Y-61839110D01*
X100744872Y-61925000D01*
X101185128Y-61925000D01*
X101616925Y-61839110D01*
X102023669Y-61670631D01*
X102389729Y-61426038D01*
X102701038Y-61114729D01*
X102945631Y-60748669D01*
X103068502Y-60452032D01*
X106265000Y-60452032D01*
X106265000Y-60847968D01*
X106342243Y-61236296D01*
X106493761Y-61602092D01*
X106713731Y-61931301D01*
X106993699Y-62211269D01*
X107322908Y-62431239D01*
X107688704Y-62582757D01*
X108077032Y-62660000D01*
X108472968Y-62660000D01*
X108861296Y-62582757D01*
X109227092Y-62431239D01*
X109556301Y-62211269D01*
X109836269Y-61931301D01*
X109877228Y-61870000D01*
X111772815Y-61870000D01*
X111801487Y-62161111D01*
X111886401Y-62441034D01*
X112024294Y-62699014D01*
X112209866Y-62925134D01*
X112435986Y-63110706D01*
X112693966Y-63248599D01*
X112973889Y-63333513D01*
X113192050Y-63355000D01*
X113337950Y-63355000D01*
X113556111Y-63333513D01*
X113836034Y-63248599D01*
X114094014Y-63110706D01*
X114320134Y-62925134D01*
X114505706Y-62699014D01*
X114535000Y-62644209D01*
X114564294Y-62699014D01*
X114749866Y-62925134D01*
X114975986Y-63110706D01*
X115233966Y-63248599D01*
X115513889Y-63333513D01*
X115732050Y-63355000D01*
X115877950Y-63355000D01*
X116096111Y-63333513D01*
X116376034Y-63248599D01*
X116634014Y-63110706D01*
X116860134Y-62925134D01*
X117045706Y-62699014D01*
X117075000Y-62644209D01*
X117104294Y-62699014D01*
X117289866Y-62925134D01*
X117515986Y-63110706D01*
X117773966Y-63248599D01*
X118053889Y-63333513D01*
X118272050Y-63355000D01*
X118417950Y-63355000D01*
X118636111Y-63333513D01*
X118916034Y-63248599D01*
X119174014Y-63110706D01*
X119400134Y-62925134D01*
X119585706Y-62699014D01*
X119620201Y-62634477D01*
X119689822Y-62751355D01*
X119884731Y-62967588D01*
X120118080Y-63141641D01*
X120380901Y-63266825D01*
X120528110Y-63311476D01*
X120758000Y-63190155D01*
X120758000Y-61997000D01*
X120738000Y-61997000D01*
X120738000Y-61743000D01*
X120758000Y-61743000D01*
X120758000Y-61723000D01*
X121012000Y-61723000D01*
X121012000Y-61743000D01*
X121032000Y-61743000D01*
X121032000Y-61997000D01*
X121012000Y-61997000D01*
X121012000Y-63190155D01*
X121241890Y-63311476D01*
X121389099Y-63266825D01*
X121651920Y-63141641D01*
X121885269Y-62967588D01*
X122080178Y-62751355D01*
X122149799Y-62634477D01*
X122184294Y-62699014D01*
X122369866Y-62925134D01*
X122595986Y-63110706D01*
X122853966Y-63248599D01*
X123133889Y-63333513D01*
X123352050Y-63355000D01*
X123497950Y-63355000D01*
X123716111Y-63333513D01*
X123996034Y-63248599D01*
X124254014Y-63110706D01*
X124480134Y-62925134D01*
X124665706Y-62699014D01*
X124700201Y-62634477D01*
X124769822Y-62751355D01*
X124964731Y-62967588D01*
X125198080Y-63141641D01*
X125460901Y-63266825D01*
X125608110Y-63311476D01*
X125838000Y-63190155D01*
X125838000Y-61997000D01*
X125818000Y-61997000D01*
X125818000Y-61743000D01*
X125838000Y-61743000D01*
X125838000Y-61723000D01*
X126092000Y-61723000D01*
X126092000Y-61743000D01*
X126112000Y-61743000D01*
X126112000Y-61997000D01*
X126092000Y-61997000D01*
X126092000Y-63190155D01*
X126321890Y-63311476D01*
X126469099Y-63266825D01*
X126731920Y-63141641D01*
X126965269Y-62967588D01*
X127160178Y-62751355D01*
X127229799Y-62634477D01*
X127264294Y-62699014D01*
X127449866Y-62925134D01*
X127675986Y-63110706D01*
X127933966Y-63248599D01*
X128213889Y-63333513D01*
X128432050Y-63355000D01*
X128577950Y-63355000D01*
X128796111Y-63333513D01*
X129076034Y-63248599D01*
X129334014Y-63110706D01*
X129560134Y-62925134D01*
X129745706Y-62699014D01*
X129775000Y-62644209D01*
X129804294Y-62699014D01*
X129989866Y-62925134D01*
X130215986Y-63110706D01*
X130473966Y-63248599D01*
X130753889Y-63333513D01*
X130972050Y-63355000D01*
X131117950Y-63355000D01*
X131336111Y-63333513D01*
X131616034Y-63248599D01*
X131874014Y-63110706D01*
X132100134Y-62925134D01*
X132285706Y-62699014D01*
X132315000Y-62644209D01*
X132344294Y-62699014D01*
X132529866Y-62925134D01*
X132755986Y-63110706D01*
X133013966Y-63248599D01*
X133293889Y-63333513D01*
X133512050Y-63355000D01*
X133657950Y-63355000D01*
X133876111Y-63333513D01*
X134156034Y-63248599D01*
X134414014Y-63110706D01*
X134640134Y-62925134D01*
X134825706Y-62699014D01*
X134855000Y-62644209D01*
X134884294Y-62699014D01*
X135069866Y-62925134D01*
X135295986Y-63110706D01*
X135553966Y-63248599D01*
X135833889Y-63333513D01*
X136052050Y-63355000D01*
X136197950Y-63355000D01*
X136416111Y-63333513D01*
X136696034Y-63248599D01*
X136954014Y-63110706D01*
X137180134Y-62925134D01*
X137365706Y-62699014D01*
X137400201Y-62634477D01*
X137469822Y-62751355D01*
X137664731Y-62967588D01*
X137898080Y-63141641D01*
X138160901Y-63266825D01*
X138308110Y-63311476D01*
X138538000Y-63190155D01*
X138538000Y-61997000D01*
X138518000Y-61997000D01*
X138518000Y-61743000D01*
X138538000Y-61743000D01*
X138538000Y-61723000D01*
X138792000Y-61723000D01*
X138792000Y-61743000D01*
X138812000Y-61743000D01*
X138812000Y-61997000D01*
X138792000Y-61997000D01*
X138792000Y-63190155D01*
X139021890Y-63311476D01*
X139169099Y-63266825D01*
X139431920Y-63141641D01*
X139665269Y-62967588D01*
X139860178Y-62751355D01*
X139929799Y-62634477D01*
X139964294Y-62699014D01*
X140149866Y-62925134D01*
X140375986Y-63110706D01*
X140633966Y-63248599D01*
X140913889Y-63333513D01*
X141132050Y-63355000D01*
X141277950Y-63355000D01*
X141496111Y-63333513D01*
X141776034Y-63248599D01*
X142034014Y-63110706D01*
X142260134Y-62925134D01*
X142445706Y-62699014D01*
X142475000Y-62644209D01*
X142504294Y-62699014D01*
X142689866Y-62925134D01*
X142915986Y-63110706D01*
X143173966Y-63248599D01*
X143453889Y-63333513D01*
X143672050Y-63355000D01*
X143817950Y-63355000D01*
X144036111Y-63333513D01*
X144316034Y-63248599D01*
X144574014Y-63110706D01*
X144800134Y-62925134D01*
X144985706Y-62699014D01*
X145020201Y-62634477D01*
X145089822Y-62751355D01*
X145284731Y-62967588D01*
X145518080Y-63141641D01*
X145780901Y-63266825D01*
X145928110Y-63311476D01*
X146158000Y-63190155D01*
X146158000Y-61997000D01*
X146138000Y-61997000D01*
X146138000Y-61743000D01*
X146158000Y-61743000D01*
X146158000Y-61723000D01*
X146412000Y-61723000D01*
X146412000Y-61743000D01*
X146432000Y-61743000D01*
X146432000Y-61997000D01*
X146412000Y-61997000D01*
X146412000Y-63190155D01*
X146641890Y-63311476D01*
X146789099Y-63266825D01*
X147051920Y-63141641D01*
X147285269Y-62967588D01*
X147480178Y-62751355D01*
X147549799Y-62634477D01*
X147584294Y-62699014D01*
X147769866Y-62925134D01*
X147995986Y-63110706D01*
X148253966Y-63248599D01*
X148533889Y-63333513D01*
X148752050Y-63355000D01*
X148897950Y-63355000D01*
X149116111Y-63333513D01*
X149396034Y-63248599D01*
X149654014Y-63110706D01*
X149880134Y-62925134D01*
X150065706Y-62699014D01*
X150095000Y-62644209D01*
X150124294Y-62699014D01*
X150309866Y-62925134D01*
X150535986Y-63110706D01*
X150793966Y-63248599D01*
X151073889Y-63333513D01*
X151292050Y-63355000D01*
X151437950Y-63355000D01*
X151656111Y-63333513D01*
X151936034Y-63248599D01*
X152194014Y-63110706D01*
X152420134Y-62925134D01*
X152605706Y-62699014D01*
X152635000Y-62644209D01*
X152664294Y-62699014D01*
X152849866Y-62925134D01*
X153075986Y-63110706D01*
X153333966Y-63248599D01*
X153613889Y-63333513D01*
X153832050Y-63355000D01*
X153977950Y-63355000D01*
X154196111Y-63333513D01*
X154476034Y-63248599D01*
X154734014Y-63110706D01*
X154960134Y-62925134D01*
X155145706Y-62699014D01*
X155180201Y-62634477D01*
X155249822Y-62751355D01*
X155444731Y-62967588D01*
X155678080Y-63141641D01*
X155940901Y-63266825D01*
X156088110Y-63311476D01*
X156318000Y-63190155D01*
X156318000Y-61997000D01*
X156298000Y-61997000D01*
X156298000Y-61743000D01*
X156318000Y-61743000D01*
X156318000Y-61723000D01*
X156572000Y-61723000D01*
X156572000Y-61743000D01*
X156592000Y-61743000D01*
X156592000Y-61997000D01*
X156572000Y-61997000D01*
X156572000Y-63190155D01*
X156801890Y-63311476D01*
X156949099Y-63266825D01*
X157211920Y-63141641D01*
X157445269Y-62967588D01*
X157640178Y-62751355D01*
X157709799Y-62634477D01*
X157744294Y-62699014D01*
X157929866Y-62925134D01*
X158155986Y-63110706D01*
X158413966Y-63248599D01*
X158693889Y-63333513D01*
X158912050Y-63355000D01*
X159057950Y-63355000D01*
X159276111Y-63333513D01*
X159556034Y-63248599D01*
X159557701Y-63247708D01*
X159453296Y-63317469D01*
X159329469Y-63441296D01*
X159232179Y-63586901D01*
X159165164Y-63748688D01*
X159131000Y-63920441D01*
X159131000Y-64095559D01*
X159165164Y-64267312D01*
X159232179Y-64429099D01*
X159329469Y-64574704D01*
X159453296Y-64698531D01*
X159598901Y-64795821D01*
X159760688Y-64862836D01*
X159932441Y-64897000D01*
X160107559Y-64897000D01*
X160279312Y-64862836D01*
X160441099Y-64795821D01*
X160586704Y-64698531D01*
X160710531Y-64574704D01*
X160807821Y-64429099D01*
X160874836Y-64267312D01*
X160909000Y-64095559D01*
X160909000Y-63920441D01*
X160874836Y-63748688D01*
X160807821Y-63586901D01*
X160710531Y-63441296D01*
X160586704Y-63317469D01*
X160441099Y-63220179D01*
X160279312Y-63153164D01*
X160107559Y-63119000D01*
X159932441Y-63119000D01*
X159760688Y-63153164D01*
X159644682Y-63201216D01*
X159814014Y-63110706D01*
X160040134Y-62925134D01*
X160225706Y-62699014D01*
X160255000Y-62644209D01*
X160284294Y-62699014D01*
X160469866Y-62925134D01*
X160695986Y-63110706D01*
X160953966Y-63248599D01*
X161233889Y-63333513D01*
X161452050Y-63355000D01*
X161597950Y-63355000D01*
X161816111Y-63333513D01*
X162096034Y-63248599D01*
X162264707Y-63158441D01*
X162687000Y-63158441D01*
X162687000Y-63333559D01*
X162721164Y-63505312D01*
X162788179Y-63667099D01*
X162885469Y-63812704D01*
X163009296Y-63936531D01*
X163154901Y-64033821D01*
X163316688Y-64100836D01*
X163488441Y-64135000D01*
X163663559Y-64135000D01*
X163835312Y-64100836D01*
X163997099Y-64033821D01*
X164142704Y-63936531D01*
X164266531Y-63812704D01*
X164363821Y-63667099D01*
X164430836Y-63505312D01*
X164465000Y-63333559D01*
X164465000Y-63158441D01*
X164430836Y-62986688D01*
X164363821Y-62824901D01*
X164266531Y-62679296D01*
X164142704Y-62555469D01*
X163997099Y-62458179D01*
X163835312Y-62391164D01*
X163663559Y-62357000D01*
X163488441Y-62357000D01*
X163316688Y-62391164D01*
X163154901Y-62458179D01*
X163009296Y-62555469D01*
X162885469Y-62679296D01*
X162788179Y-62824901D01*
X162721164Y-62986688D01*
X162687000Y-63158441D01*
X162264707Y-63158441D01*
X162354014Y-63110706D01*
X162580134Y-62925134D01*
X162765706Y-62699014D01*
X162903599Y-62441034D01*
X162988513Y-62161111D01*
X163017185Y-61870000D01*
X162988513Y-61578889D01*
X162903599Y-61298966D01*
X162765706Y-61040986D01*
X162580134Y-60814866D01*
X162550313Y-60790393D01*
X162619180Y-60769502D01*
X162729494Y-60710537D01*
X162826185Y-60631185D01*
X162905537Y-60534494D01*
X162949614Y-60452032D01*
X164265000Y-60452032D01*
X164265000Y-60847968D01*
X164342243Y-61236296D01*
X164493761Y-61602092D01*
X164713731Y-61931301D01*
X164993699Y-62211269D01*
X165322908Y-62431239D01*
X165688704Y-62582757D01*
X166077032Y-62660000D01*
X166472968Y-62660000D01*
X166861296Y-62582757D01*
X167227092Y-62431239D01*
X167556301Y-62211269D01*
X167836269Y-61931301D01*
X168056239Y-61602092D01*
X168207757Y-61236296D01*
X168285000Y-60847968D01*
X168285000Y-60452032D01*
X168207757Y-60063704D01*
X168056239Y-59697908D01*
X167903871Y-59469872D01*
X171755000Y-59469872D01*
X171755000Y-59910128D01*
X171840890Y-60341925D01*
X172009369Y-60748669D01*
X172253962Y-61114729D01*
X172565271Y-61426038D01*
X172931331Y-61670631D01*
X173338075Y-61839110D01*
X173769872Y-61925000D01*
X174210128Y-61925000D01*
X174641925Y-61839110D01*
X175048669Y-61670631D01*
X175414729Y-61426038D01*
X175726038Y-61114729D01*
X175970631Y-60748669D01*
X176139110Y-60341925D01*
X176225000Y-59910128D01*
X176225000Y-59469872D01*
X176139110Y-59038075D01*
X175970631Y-58631331D01*
X175726038Y-58265271D01*
X175414729Y-57953962D01*
X175048669Y-57709369D01*
X174641925Y-57540890D01*
X174210128Y-57455000D01*
X173769872Y-57455000D01*
X173338075Y-57540890D01*
X172931331Y-57709369D01*
X172565271Y-57953962D01*
X172253962Y-58265271D01*
X172009369Y-58631331D01*
X171840890Y-59038075D01*
X171755000Y-59469872D01*
X167903871Y-59469872D01*
X167836269Y-59368699D01*
X167556301Y-59088731D01*
X167227092Y-58868761D01*
X166861296Y-58717243D01*
X166472968Y-58640000D01*
X166077032Y-58640000D01*
X165688704Y-58717243D01*
X165322908Y-58868761D01*
X164993699Y-59088731D01*
X164713731Y-59368699D01*
X164493761Y-59697908D01*
X164342243Y-60063704D01*
X164265000Y-60452032D01*
X162949614Y-60452032D01*
X162964502Y-60424180D01*
X163000812Y-60304482D01*
X163013072Y-60180000D01*
X163013072Y-58480000D01*
X163000812Y-58355518D01*
X162964502Y-58235820D01*
X162905537Y-58125506D01*
X162826185Y-58028815D01*
X162729494Y-57949463D01*
X162619180Y-57890498D01*
X162499482Y-57854188D01*
X162375000Y-57841928D01*
X160675000Y-57841928D01*
X160550518Y-57854188D01*
X160430820Y-57890498D01*
X160320506Y-57949463D01*
X160223815Y-58028815D01*
X160144463Y-58125506D01*
X160085498Y-58235820D01*
X160064607Y-58304687D01*
X160040134Y-58274866D01*
X159814014Y-58089294D01*
X159556034Y-57951401D01*
X159276111Y-57866487D01*
X159057950Y-57845000D01*
X158912050Y-57845000D01*
X158693889Y-57866487D01*
X158413966Y-57951401D01*
X158155986Y-58089294D01*
X157929866Y-58274866D01*
X157744294Y-58500986D01*
X157715000Y-58555791D01*
X157685706Y-58500986D01*
X157500134Y-58274866D01*
X157274014Y-58089294D01*
X157016034Y-57951401D01*
X156736111Y-57866487D01*
X156517950Y-57845000D01*
X156372050Y-57845000D01*
X156153889Y-57866487D01*
X155873966Y-57951401D01*
X155615986Y-58089294D01*
X155389866Y-58274866D01*
X155204294Y-58500986D01*
X155175000Y-58555791D01*
X155145706Y-58500986D01*
X154960134Y-58274866D01*
X154734014Y-58089294D01*
X154476034Y-57951401D01*
X154196111Y-57866487D01*
X153977950Y-57845000D01*
X153832050Y-57845000D01*
X153613889Y-57866487D01*
X153333966Y-57951401D01*
X153075986Y-58089294D01*
X152849866Y-58274866D01*
X152664294Y-58500986D01*
X152629799Y-58565523D01*
X152560178Y-58448645D01*
X152365269Y-58232412D01*
X152131920Y-58058359D01*
X151869099Y-57933175D01*
X151721890Y-57888524D01*
X151492000Y-58009845D01*
X151492000Y-59203000D01*
X151512000Y-59203000D01*
X151512000Y-59457000D01*
X151492000Y-59457000D01*
X151492000Y-59477000D01*
X151238000Y-59477000D01*
X151238000Y-59457000D01*
X151218000Y-59457000D01*
X151218000Y-59203000D01*
X151238000Y-59203000D01*
X151238000Y-58009845D01*
X151008110Y-57888524D01*
X150860901Y-57933175D01*
X150598080Y-58058359D01*
X150364731Y-58232412D01*
X150169822Y-58448645D01*
X150100201Y-58565523D01*
X150065706Y-58500986D01*
X149880134Y-58274866D01*
X149654014Y-58089294D01*
X149396034Y-57951401D01*
X149116111Y-57866487D01*
X148897950Y-57845000D01*
X148752050Y-57845000D01*
X148533889Y-57866487D01*
X148253966Y-57951401D01*
X147995986Y-58089294D01*
X147769866Y-58274866D01*
X147584294Y-58500986D01*
X147555000Y-58555791D01*
X147525706Y-58500986D01*
X147340134Y-58274866D01*
X147114014Y-58089294D01*
X146856034Y-57951401D01*
X146576111Y-57866487D01*
X146357950Y-57845000D01*
X146212050Y-57845000D01*
X145993889Y-57866487D01*
X145713966Y-57951401D01*
X145455986Y-58089294D01*
X145229866Y-58274866D01*
X145044294Y-58500986D01*
X145015000Y-58555791D01*
X144985706Y-58500986D01*
X144800134Y-58274866D01*
X144574014Y-58089294D01*
X144316034Y-57951401D01*
X144036111Y-57866487D01*
X143817950Y-57845000D01*
X143672050Y-57845000D01*
X143453889Y-57866487D01*
X143173966Y-57951401D01*
X142915986Y-58089294D01*
X142689866Y-58274866D01*
X142504294Y-58500986D01*
X142475000Y-58555791D01*
X142445706Y-58500986D01*
X142260134Y-58274866D01*
X142034014Y-58089294D01*
X141776034Y-57951401D01*
X141496111Y-57866487D01*
X141277950Y-57845000D01*
X141132050Y-57845000D01*
X140913889Y-57866487D01*
X140633966Y-57951401D01*
X140375986Y-58089294D01*
X140149866Y-58274866D01*
X139964294Y-58500986D01*
X139935000Y-58555791D01*
X139905706Y-58500986D01*
X139720134Y-58274866D01*
X139494014Y-58089294D01*
X139236034Y-57951401D01*
X138956111Y-57866487D01*
X138737950Y-57845000D01*
X138592050Y-57845000D01*
X138373889Y-57866487D01*
X138093966Y-57951401D01*
X137835986Y-58089294D01*
X137609866Y-58274866D01*
X137424294Y-58500986D01*
X137395000Y-58555791D01*
X137365706Y-58500986D01*
X137180134Y-58274866D01*
X136954014Y-58089294D01*
X136696034Y-57951401D01*
X136416111Y-57866487D01*
X136197950Y-57845000D01*
X136052050Y-57845000D01*
X135833889Y-57866487D01*
X135553966Y-57951401D01*
X135295986Y-58089294D01*
X135069866Y-58274866D01*
X134884294Y-58500986D01*
X134855000Y-58555791D01*
X134825706Y-58500986D01*
X134640134Y-58274866D01*
X134414014Y-58089294D01*
X134156034Y-57951401D01*
X133876111Y-57866487D01*
X133657950Y-57845000D01*
X133512050Y-57845000D01*
X133293889Y-57866487D01*
X133013966Y-57951401D01*
X132755986Y-58089294D01*
X132529866Y-58274866D01*
X132344294Y-58500986D01*
X132309799Y-58565523D01*
X132240178Y-58448645D01*
X132045269Y-58232412D01*
X131811920Y-58058359D01*
X131549099Y-57933175D01*
X131401890Y-57888524D01*
X131172000Y-58009845D01*
X131172000Y-59203000D01*
X131192000Y-59203000D01*
X131192000Y-59457000D01*
X131172000Y-59457000D01*
X131172000Y-59477000D01*
X130918000Y-59477000D01*
X130918000Y-59457000D01*
X130898000Y-59457000D01*
X130898000Y-59203000D01*
X130918000Y-59203000D01*
X130918000Y-58009845D01*
X130688110Y-57888524D01*
X130540901Y-57933175D01*
X130278080Y-58058359D01*
X130044731Y-58232412D01*
X129849822Y-58448645D01*
X129780201Y-58565523D01*
X129745706Y-58500986D01*
X129560134Y-58274866D01*
X129334014Y-58089294D01*
X129076034Y-57951401D01*
X128796111Y-57866487D01*
X128577950Y-57845000D01*
X128432050Y-57845000D01*
X128213889Y-57866487D01*
X127933966Y-57951401D01*
X127675986Y-58089294D01*
X127449866Y-58274866D01*
X127264294Y-58500986D01*
X127235000Y-58555791D01*
X127205706Y-58500986D01*
X127020134Y-58274866D01*
X126794014Y-58089294D01*
X126536034Y-57951401D01*
X126256111Y-57866487D01*
X126037950Y-57845000D01*
X125892050Y-57845000D01*
X125673889Y-57866487D01*
X125393966Y-57951401D01*
X125135986Y-58089294D01*
X124909866Y-58274866D01*
X124724294Y-58500986D01*
X124695000Y-58555791D01*
X124665706Y-58500986D01*
X124480134Y-58274866D01*
X124254014Y-58089294D01*
X123996034Y-57951401D01*
X123716111Y-57866487D01*
X123497950Y-57845000D01*
X123352050Y-57845000D01*
X123133889Y-57866487D01*
X122853966Y-57951401D01*
X122595986Y-58089294D01*
X122369866Y-58274866D01*
X122184294Y-58500986D01*
X122155000Y-58555791D01*
X122125706Y-58500986D01*
X121940134Y-58274866D01*
X121714014Y-58089294D01*
X121456034Y-57951401D01*
X121176111Y-57866487D01*
X120957950Y-57845000D01*
X120812050Y-57845000D01*
X120593889Y-57866487D01*
X120313966Y-57951401D01*
X120055986Y-58089294D01*
X119829866Y-58274866D01*
X119644294Y-58500986D01*
X119615000Y-58555791D01*
X119585706Y-58500986D01*
X119400134Y-58274866D01*
X119174014Y-58089294D01*
X118916034Y-57951401D01*
X118636111Y-57866487D01*
X118417950Y-57845000D01*
X118272050Y-57845000D01*
X118053889Y-57866487D01*
X117773966Y-57951401D01*
X117515986Y-58089294D01*
X117289866Y-58274866D01*
X117104294Y-58500986D01*
X117075000Y-58555791D01*
X117045706Y-58500986D01*
X116860134Y-58274866D01*
X116634014Y-58089294D01*
X116376034Y-57951401D01*
X116096111Y-57866487D01*
X115877950Y-57845000D01*
X115732050Y-57845000D01*
X115513889Y-57866487D01*
X115233966Y-57951401D01*
X114975986Y-58089294D01*
X114749866Y-58274866D01*
X114564294Y-58500986D01*
X114529799Y-58565523D01*
X114460178Y-58448645D01*
X114265269Y-58232412D01*
X114031920Y-58058359D01*
X113769099Y-57933175D01*
X113621890Y-57888524D01*
X113392000Y-58009845D01*
X113392000Y-59203000D01*
X113412000Y-59203000D01*
X113412000Y-59457000D01*
X113392000Y-59457000D01*
X113392000Y-59477000D01*
X113138000Y-59477000D01*
X113138000Y-59457000D01*
X111944186Y-59457000D01*
X111823519Y-59686891D01*
X111920843Y-59961252D01*
X112069822Y-60211355D01*
X112264731Y-60427588D01*
X112493756Y-60598416D01*
X112435986Y-60629294D01*
X112209866Y-60814866D01*
X112024294Y-61040986D01*
X111886401Y-61298966D01*
X111801487Y-61578889D01*
X111772815Y-61870000D01*
X109877228Y-61870000D01*
X110056239Y-61602092D01*
X110207757Y-61236296D01*
X110285000Y-60847968D01*
X110285000Y-60452032D01*
X110207757Y-60063704D01*
X110056239Y-59697908D01*
X109836269Y-59368699D01*
X109556301Y-59088731D01*
X109383261Y-58973109D01*
X111823519Y-58973109D01*
X111944186Y-59203000D01*
X113138000Y-59203000D01*
X113138000Y-58009845D01*
X112908110Y-57888524D01*
X112760901Y-57933175D01*
X112498080Y-58058359D01*
X112264731Y-58232412D01*
X112069822Y-58448645D01*
X111920843Y-58698748D01*
X111823519Y-58973109D01*
X109383261Y-58973109D01*
X109227092Y-58868761D01*
X108861296Y-58717243D01*
X108472968Y-58640000D01*
X108077032Y-58640000D01*
X107688704Y-58717243D01*
X107322908Y-58868761D01*
X106993699Y-59088731D01*
X106713731Y-59368699D01*
X106493761Y-59697908D01*
X106342243Y-60063704D01*
X106265000Y-60452032D01*
X103068502Y-60452032D01*
X103114110Y-60341925D01*
X103200000Y-59910128D01*
X103200000Y-59469872D01*
X103114110Y-59038075D01*
X102945631Y-58631331D01*
X102701038Y-58265271D01*
X102389729Y-57953962D01*
X102023669Y-57709369D01*
X101616925Y-57540890D01*
X101185128Y-57455000D01*
X100744872Y-57455000D01*
X100313075Y-57540890D01*
X99906331Y-57709369D01*
X99540271Y-57953962D01*
X99228962Y-58265271D01*
X98984369Y-58631331D01*
X98815890Y-59038075D01*
X98730000Y-59469872D01*
X96720505Y-59469872D01*
X96713513Y-59398889D01*
X96628599Y-59118966D01*
X96490706Y-58860986D01*
X96305134Y-58634866D01*
X96079014Y-58449294D01*
X95821034Y-58311401D01*
X95541111Y-58226487D01*
X95322950Y-58205000D01*
X95177050Y-58205000D01*
X94958889Y-58226487D01*
X94678966Y-58311401D01*
X94420986Y-58449294D01*
X94194866Y-58634866D01*
X94009294Y-58860986D01*
X93871401Y-59118966D01*
X93786487Y-59398889D01*
X93757815Y-59690000D01*
X92100000Y-59690000D01*
X92100000Y-56540000D01*
X176330143Y-56540000D01*
X176330143Y-58428500D01*
M02*
